<?xml version="1.0" encoding="utf-8"?>
<!-- Generator: Adobe Illustrator 16.0.0, SVG Export Plug-In . SVG Version: 6.00 Build 0)  -->
<!DOCTYPE svg PUBLIC "-//W3C//DTD SVG 1.1//EN" "http://www.w3.org/Graphics/SVG/1.1/DTD/svg11.dtd">
<svg version="1.1" id="Layer_1" xmlns="http://www.w3.org/2000/svg" xmlns:xlink="http://www.w3.org/1999/xlink" x="0px" y="0px"
	 width="800px" height="375px" viewBox="0 0 800 375" enable-background="new 0 0 800 375" xml:space="preserve">
<g>
	<path fill-rule="evenodd" clip-rule="evenodd" fill="#454545" d="M606.002,185.706c-0.584-1.118-1.388-2.119-2.048-3.2
		c-0.465-0.763-0.854-1.572-1.272-2.363c-0.732-1.384-1.381-2.821-2.214-4.142c-0.933-1.48-2.026-2.86-3.061-4.277
		c-1.562-2.139-1.903-4.854-3.673-6.983c-2.064-2.484-3.531-5.46-5.326-8.177c-1.738-2.63-3.416-5.321-5.385-7.773
		c-3.301-4.111-6.74-8.119-10.255-12.05c-2.864-3.202-5.952-6.201-8.884-9.345c-1.293-1.387-2.436-2.914-3.659-4.367
		c-2.148-2.552-3.864-5.501-6.76-7.368c-0.565-0.364-1.185-0.674-1.673-1.123c-2.752-2.525-5.441-5.12-8.215-7.622
		c-1.591-1.436-3.322-2.714-4.948-4.113c-1.194-1.028-2.238-2.246-3.496-3.183c-1.293-0.963-2.828-1.597-4.144-2.534
		c-2.547-1.812-4.985-3.775-7.528-5.594c-0.896-0.642-2.031-0.947-2.938-1.578c-1.158-0.806-2.112-1.914-3.298-2.667
		c-3.919-2.489-7.896-4.888-11.863-7.299c-2.065-1.254-4.154-2.471-6.243-3.687c-1.354-0.789-2.686-1.634-4.102-2.297
		c-1.965-0.922-4.072-1.556-5.987-2.564c-3.159-1.666-6.175-3.611-9.749-4.347c-0.398-0.082-0.748-0.393-1.124-0.591
		c-2.14-1.129-4.203-2.45-6.439-3.336c-3.036-1.201-6.206-2.062-9.312-3.084c-0.757-0.249-1.478-0.616-2.244-0.823
		c-2.917-0.787-5.835-1.576-8.773-2.28c-3.909-0.937-7.823-1.86-11.761-2.666c-3.598-0.736-7.221-1.36-10.847-1.939
		c-4.253-0.679-8.508-1.395-12.789-1.828c-2.605-0.263-5.263-0.024-7.896-0.006c-3.547,0.023-7.095,0.04-10.642,0.082
		c-2.777,0.032-5.56,0.008-8.33,0.174c-2.346,0.142-4.726,0.944-7.003,0.686c-2.718-0.311-5.258,0.079-7.845,0.568
		c-4.653,0.88-9.316,1.721-13.943,2.72c-3.6,0.777-7.132,1.865-10.732,2.639c-2.78,0.597-5.493,1.37-8.155,2.347
		c-4.237,1.555-8.486,3.078-12.704,4.684c-4.497,1.711-9.018,3.379-13.43,5.29c-4.392,1.902-8.719,3.972-12.965,6.179
		c-3.168,1.647-6.179,3.604-9.226,5.476c-1.712,1.052-3.355,2.215-5.032,3.324c-3.658,2.421-7.303,4.862-10.982,7.249
		c-2.044,1.326-4.25,2.424-6.194,3.877c-1.695,1.268-3.102,2.916-4.68,4.348c-2.064,1.874-4.228,3.64-6.245,5.561
		c-2.296,2.184-4.336,4.653-6.736,6.706c-5.83,4.988-11.956,9.646-17.088,15.398c-2.903,3.255-5.722,6.586-8.516,9.935
		c-1.93,2.313-3.675,4.783-5.645,7.06c-1.964,2.271-4.197,4.311-6.144,6.595c-2.153,2.525-4.18,5.168-6.143,7.846
		c-1.942,2.652-3.843,5.347-5.572,8.141c-2.681,4.33-5.174,8.776-7.805,13.14c-0.881,1.459-2.102,2.729-2.867,4.237
		c-0.666,1.311-1.302,2.851-1.253,4.265c0.092,2.684,0.715,5.324,1.928,7.805c1.234,2.524,2.184,5.188,3.45,7.694
		c1.217,2.406,2.633,4.718,4.05,7.017c1.603,2.601,3.201,5.216,4.992,7.687c1.85,2.549,3.926,4.936,5.908,7.388
		c2.007,2.481,3.952,5.017,6.049,7.42c2.438,2.794,4.961,5.516,7.537,8.183c2.138,2.213,4.472,4.237,6.601,6.458
		c2.866,2.991,5.494,6.22,8.456,9.109c3.135,3.059,6.547,5.832,9.827,8.743c2.265,2.01,4.505,4.049,6.768,6.062
		c1.502,1.337,2.955,2.743,4.56,3.947c1.488,1.115,3.211,1.916,4.714,3.014c1.642,1.199,3.155,2.573,4.717,3.881
		c2.889,2.419,6.072,4.375,9.385,6.159c1.586,0.854,2.983,2.056,4.553,2.947c2.173,1.235,4.474,2.246,6.636,3.497
		c4.252,2.462,8.36,5.21,12.999,6.907c2.502,0.915,5.171,1.367,7.689,2.244c3.521,1.226,6.974,2.646,10.449,4
		c1.066,0.415,2.125,0.858,3.164,1.34c1.216,0.565,2.358,1.329,3.619,1.75c1.825,0.609,3.74,0.944,5.594,1.477
		c2.839,0.815,5.642,1.759,8.489,2.54c3.721,1.021,7.46,1.979,11.212,2.884c1.989,0.479,4.009,0.88,6.036,1.151
		c2.86,0.384,5.765,0.476,8.605,0.953c2.77,0.466,5.473,1.31,8.226,1.892c1.868,0.396,3.761,0.731,5.66,0.904
		c2.456,0.224,4.928,0.289,7.395,0.368c2.916,0.093,5.835,0.179,8.752,0.177c4.543-0.002,9.086-0.06,13.628-0.141
		c1.198-0.021,2.393-0.209,3.588-0.32c0.006,0.058,0.011,0.115,0.015,0.174c2.097-0.163,4.192-0.332,6.289-0.486
		c1.103-0.082,2.227-0.032,3.306-0.23c2.336-0.43,4.637-1.057,6.977-1.462c2.786-0.481,5.65-0.593,8.386-1.26
		c4.922-1.2,9.785-2.653,14.648-4.084c2.051-0.604,4.024-1.461,6.059-2.126c4.16-1.36,8.371-2.57,12.495-4.029
		c3.11-1.101,6.105-2.521,9.173-3.745c6.777-2.705,13.45-5.646,19.779-9.284c5.389-3.097,10.726-6.295,15.966-9.635
		c3.054-1.946,5.858-4.278,8.802-6.401c2.28-1.646,4.606-3.228,6.9-4.854c1.203-0.854,2.383-1.742,3.569-2.62
		c0.386-0.285,0.759-0.586,1.139-0.877c3.308-2.533,6.962-4.728,9.839-7.68c3.982-4.088,8.203-7.871,12.477-11.624
		c2.957-2.598,6.035-5.101,8.692-7.983c3.215-3.487,6.04-7.332,9.038-11.02c1.161-1.429,2.388-2.809,3.486-4.284
		c2.45-3.29,4.892-6.588,7.236-9.952c2.295-3.293,4.509-6.646,6.677-10.023c1.756-2.734,3.505-5.485,5.048-8.341
		c1.377-2.549,2.204-5.424,3.771-7.831c1.207-1.856,0.074-3.455,0.198-5.148C607.506,188.172,606.61,186.872,606.002,185.706z
		 M235.861,211.73c-0.941-0.114-0.932-1.086-0.406-1.626C236.395,210.219,236.387,211.189,235.861,211.73z M256.549,113.151
		C258.926,113.69,255.08,115.066,256.549,113.151L256.549,113.151z M250.059,143.171c0-0.676,0-1.354,0-2.028
		C252.014,140.687,252.254,143.775,250.059,143.171z M252.086,202.804c0.361-0.315,0.916-0.436,1.623-0.405
		C254.127,204.055,251.814,204.563,252.086,202.804z M257.361,201.182c-1.379-0.109-3.291,0.313-4.057-0.405
		c-0.283-1.25-0.283-0.781,0-2.029c1.971,0.056,4.557-0.499,4.461,1.622C257.371,200.381,257.453,200.866,257.361,201.182z
		 M269.936,106.256c-0.328-0.078-0.404-0.408-0.812-0.407c0.078-0.329,0.408-0.402,0.408-0.811c0.328,0.077,0.404,0.408,0.811,0.405
		C270.264,105.772,269.934,105.848,269.936,106.256z M284.133,152.908c0.441,0.099,0.275,0.807,0.812,0.811
		C284.771,154.84,283.67,153.739,284.133,152.908z M286.162,119.236c-1.361,0.416-0.631-1.261-0.811-2.028c0.404,0,0.811,0,1.217,0
		C286.348,117.798,287.041,119.306,286.162,119.236z M503.193,124.917c0.541,0,1.082,0,1.623,0c0.279,1.359-0.68,1.481-1.623,1.622
		C503.193,125.997,503.193,125.458,503.193,124.917z M501.572,143.576c-0.982,0.665-1.971,1.034-3.244,0.406
		C497.609,140.852,501.758,141.02,501.572,143.576z M498.328,136.68c-0.176,0.773-0.875,1.019-0.814,2.029
		c-1.256,0.04-1.936-0.496-2.838-0.812C494.711,136.082,497.01,136.086,498.328,136.68z M456.947,67.717
		c0.191,0.865-0.578,0.772-1.217,0.811c0.078-0.327,0.408-0.402,0.406-0.811C456.408,67.717,456.678,67.717,456.947,67.717z
		 M454.516,63.255c0.404,0,0.811,0,1.215,0c-0.047,0.212,0.682,1.788,0,2.838c-0.107,0.171-1.01-0.097-0.811,0.407
		C453.992,66.162,453.811,64.007,454.516,63.255z M417.193,70.557c0.896,0.051,0.172,1.721,0.406,2.435
		c-0.533-0.145-0.639-0.716-1.217-0.812C416.086,71.072,417.189,71.362,417.193,70.557z M366.891,61.226
		c0.875-0.004,0.412,1.978-0.406,0.813C366.562,61.71,366.893,61.632,366.891,61.226z M364.861,69.34c0.271,0,0.541,0,0.812,0
		c0,0.27,0,0.541,0,0.811c-0.271,0-0.541,0-0.812,0C364.861,69.881,364.861,69.609,364.861,69.34z M364.455,76.235
		c-0.449-1.274-0.189-1.07,0.406-2.026C366.693,73.9,366.381,76.918,364.455,76.235z M363.645,67.717
		c1.182-0.596,1.182,1.813,0,1.218C363.645,68.527,363.645,68.122,363.645,67.717z M347.418,80.697
		c0.85-0.172,1.074,0.279,1.623,0.407c-0.713,0.64-0.842,1.861-2.029,2.028C347.48,82.651,347.473,81.698,347.418,80.697z
		 M333.625,84.35c0.658,0.604-1.164,1.338-0.811,1.622c0.504,0.404-0.361,0.703-1.217,1.216c-0.549,0.331-1.064,1.073-2.029,0.813
		C329.479,85.508,331.395,83.205,333.625,84.35z M325.107,85.972c1.273-0.192,1.658,0.505,2.027,1.216
		c-0.311,1.312-1.123,2.125-2.434,2.436C325.379,88.949,325.023,87.242,325.107,85.972z M326.73,110.718
		c-1.5,0.282-1.793-0.643-1.623-2.029c0.406,0,0.809,0,1.217,0C326.664,109.16,326.857,109.776,326.73,110.718z M320.238,72.586
		c0.855,1.056,0.59,3.591-1.623,2.839C318.455,73.777,318.764,72.598,320.238,72.586z M314.965,101.793
		c1.061-0.113,1.744,0.147,1.621,1.216C315.527,103.124,314.844,102.86,314.965,101.793z M306.852,148.85
		c0.498,0.178,0.834,0.521,0.812,1.219C306.256,150.422,306.271,149.443,306.852,148.85z M297.117,136.68
		c1.547-0.194,2.588,0.115,3.244,0.812c-0.25,1.373-2.73,0.515-3.652,1.217C296.58,137.768,296.773,137.151,297.117,136.68z
		 M298.738,155.341c0.729,0.051,0.855-0.497,1.623-0.406c0,0.406,0,0.813,0,1.219C299.328,156.362,298.787,156.844,298.738,155.341z
		 M299.551,273.39c0-0.812,0-1.621,0-2.435c0.404,0,0.811,0,1.217,0C301.52,271.755,301.369,273.943,299.551,273.39z
		 M341.332,290.833c-0.898,0.225-0.576-0.776-1.217-0.812c0.066-0.476,0.74-0.34,1.217-0.403
		C341.332,290.021,341.332,290.427,341.332,290.833z M372.568,309.087c0-0.269,0-0.541,0-0.81c0.814-0.138,1.271,0.08,1.219,0.81
		C373.381,309.087,372.977,309.087,372.568,309.087z M497.334,206.374c-0.257,3.524-0.386,7.068-0.875,10.561
		c-0.289,2.063-1.135,4.054-1.787,6.06c-0.979,3.014-1.857,6.073-3.056,8.999c-1.36,3.321-2.844,6.621-4.615,9.735
		c-1.552,2.725-3.552,5.199-5.401,7.748c-1.399,1.927-2.827,3.838-4.336,5.68c-0.937,1.144-2.047,2.146-3.082,3.21
		c-1.825,1.875-3.841,3.601-5.439,5.651c-2.874,3.69-6.688,6.068-10.614,8.375c-2.314,1.359-4.516,2.913-6.847,4.242
		c-1.452,0.828-3.039,1.428-4.587,2.08c-1.71,0.721-3.436,1.408-5.172,2.062c-0.7,0.263-1.446,0.408-2.175,0.589
		c-3.959,0.982-8.145,1.201-11.714,3.489c-0.04,0.025-0.082,0.104-0.099,0.098c-1.763-0.704-2.392,1.243-3.671,1.564
		c-1.615,0.405-3.29,0.588-4.946,0.815c-2.701,0.37-5.401,0.776-8.115,1.021c-1.892,0.17-3.807,0.135-5.71,0.121
		c-2.284-0.018-4.58,0.025-6.848-0.197c-5.918-0.58-11.893-0.934-17.711-2.064c-4.619-0.897-9.045-2.801-13.55-4.277
		c-2.63-0.862-5.271-1.701-7.861-2.672c-1.577-0.592-3.13-1.306-4.582-2.155c-3.058-1.789-5.937-3.918-9.096-5.489
		c-1.958-0.974-3.679-2.165-5.362-3.48c-1.875-1.465-3.819-2.857-5.562-4.467c-1.923-1.776-3.676-3.74-5.457-5.664
		c-1.45-1.566-2.917-3.13-4.222-4.814c-1.156-1.493-2.122-3.137-3.128-4.741c-0.613-0.979-1.018-2.111-1.736-2.995
		c-1.468-1.808-3.219-3.395-4.594-5.264c-1.007-1.369-1.646-3.021-2.364-4.587c-0.997-2.176-1.994-4.357-2.848-6.591
		c-1.641-4.294-3.451-8.55-4.681-12.964c-1.139-4.085-1.655-8.349-2.364-12.547c-0.832-4.924-1.644-9.854-2.324-14.801
		c-0.254-1.843-0.166-3.747,1.13-5.335c0.131-0.162,0.217-0.458,0.168-0.652c-0.286-1.146-0.758-2.265-0.898-3.424
		c-0.146-1.201-0.197-2.489,0.078-3.652c1.238-5.229,2.472-10.466,3.975-15.621c1.045-3.585,2.473-7.062,3.833-10.547
		c0.648-1.661,1.473-3.264,2.33-4.83c2.415-4.411,4.811-8.836,7.367-13.164c1.435-2.428,3.073-4.753,4.798-6.987
		c2.586-3.354,5.169-6.733,8.047-9.829c2.962-3.186,6.082-6.292,9.49-8.979c3.562-2.809,7.501-5.153,11.366-7.554
		c2.723-1.691,5.54-3.258,8.424-4.654c2.293-1.11,4.698-2.066,7.147-2.757c4.134-1.165,8.316-2.198,12.529-3.031
		c2.755-0.545,5.593-0.726,8.404-0.905c2.395-0.153,4.838,0.17,7.203-0.146c5.571-0.745,10.862,0.812,16.255,1.597
		c2.169,0.315,4.409,0.276,6.531,0.766c5.169,1.191,10.594,1.363,15.438,3.907c1.682,0.884,3.54,1.427,5.299,2.17
		c2.2,0.929,4.315,2.127,6.59,2.793c2.086,0.611,4.168,1.092,5.916,2.452c0.561,0.437,1.085,0.919,1.623,1.383
		c0.18,0.154,0.329,0.412,0.531,0.462c3.871,0.952,6.217,4.064,9.093,6.415c1.855,1.516,3.72,3.031,5.454,4.68
		c1.584,1.506,3.018,3.173,4.483,4.799c1.233,1.368,2.446,2.756,3.617,4.178c0.748,0.91,1.4,1.899,2.1,2.851
		c1.109,1.509,2.297,2.967,3.319,4.533c2.039,3.123,4.088,6.248,5.928,9.49c0.765,1.348,0.933,3.021,1.503,4.495
		c0.445,1.153,1.099,2.225,1.646,3.339c0.379,0.771,0.83,1.524,1.086,2.338c0.95,3.021,1.776,6.081,2.766,9.088
		c0.446,1.356,1.323,2.575,1.732,3.938c1.02,3.398,2.214,6.79,1.619,10.757c0.198,2.282,0.449,4.863,0.624,7.448
		c0.034,0.517-0.277,1.047-0.341,1.581c-0.139,1.165-0.273,2.336-0.311,3.507c-0.032,0.995,0.165,2,0.103,2.99
		c-0.246,3.937-0.253,7.887-1.048,11.79C497.354,202.327,497.48,204.376,497.334,206.374z M499.139,206.049
		c-0.506-0.98-1.004-1.97-1.217-3.245c0.648,0.282,0.709-1.058,1.217-1.217c1.576-0.49,3.389,0.962,3.244,2.434
		C502.271,205.166,501.518,206.301,499.139,206.049z M502.789,144.794c-0.463-1.275,0.637-0.986,0.811-1.623
		c0.361-0.314,0.918-0.436,1.623-0.406C506.135,143.722,504.15,146.113,502.789,144.794z M506.846,147.634
		c-0.068-1.016,0.623-1.271,1.217-1.623c1.016-0.069,1.271,0.624,1.623,1.216c0.068,1.017-0.623,1.271-1.217,1.623
		C507.453,148.918,507.197,148.228,506.846,147.634z M510.09,179.274c-1.871,0.015-1.402-3.46-0.404-4.057
		C511.006,175.356,510.615,178.547,510.09,179.274z M516.582,143.576c-1.52,0.162-2.094-1.846-1.219-2.838c0.406,0,0.812,0,1.219,0
		C517.389,141.504,516.777,142.652,516.582,143.576z M520.232,166.294c-0.127-1.444-0.787-2.12,1.217-2.029
		C521.529,165.428,521.5,166.479,520.232,166.294z M524.695,152.501c0.775,0.171,1.744,0.147,1.623,1.218
		C525.541,153.547,524.57,153.571,524.695,152.501z M548.225,239.312c-1.234,0.018-2.67,0.235-2.434-1.217
		C546.59,237.344,548.775,237.493,548.225,239.312z M566.072,158.586c-0.676,0-1.352,0-2.027,0
		c-0.551-1.767,0.967-1.469,1.217-2.433c0.541,0,1.082,0,1.623,0C567.445,157.795,566.004,157.436,566.072,158.586z
		 M593.252,173.596C592.021,175.096,591.887,172.363,593.252,173.596L593.252,173.596z"/>
	<path fill-rule="evenodd" clip-rule="evenodd" fill="#454545" d="M440.078,174.74c-1.078-2.817-2.188-5.642-3.562-8.322
		c-1.082-2.113-2.604-3.999-3.889-6.013c-0.566-0.888-0.896-1.953-1.562-2.746c-3.45-4.106-7.375-7.639-12.374-9.811
		c-1.269-0.552-2.455-1.43-3.772-1.695c-1.543-0.312-3.133-0.109-4.714-0.723c-3.188-1.234-6.552-1.463-9.959-1.017
		c-0.655,0.086-1.343-0.082-2.016-0.097c-0.318-0.007-0.656,0.017-0.955,0.117c-4.476,1.506-8.984,2.927-13.402,4.59
		c-2.133,0.803-4.358,1.754-6.072,3.196c-3.017,2.54-5.777,5.412-8.443,8.33c-1.794,1.964-3.291,4.21-4.816,6.403
		c-0.745,1.073-1.02,2.454-2.371,3.113c-0.318,0.155-0.429,0.818-0.552,1.27c-0.126,0.46-0.095,0.962-0.226,1.42
		c-0.927,3.26-1.789,6.543-2.843,9.763c-1.476,4.507-0.498,9.01,0.13,13.426c0.562,3.952,1.798,7.839,3.061,11.647
		c0.746,2.248,1.813,4.537,3.291,6.358c1.838,2.266,4.039,4.378,6.455,6.004c4.369,2.94,7.936,7.147,13.236,8.646
		c2.162,0.611,4.32,1.292,6.526,1.682c2,0.354,4.062,0.467,6.099,0.479c2.184,0.014,4.491,0.193,6.531-0.416
		c4.646-1.39,9.503-2.337,13.519-5.407c1.462-1.118,3.334-1.716,4.74-2.887c2.425-2.017,4.667-4.259,6.92-6.474
		c2.564-2.523,4.988-5.181,6.394-8.567c0.346-0.831,0.432-1.766,0.712-2.628c1.333-4.104,2.817-8.163,4.004-12.309
		c0.983-3.433,2.087-6.891,1.627-10.572c0.143-0.037,0.285-0.074,0.428-0.111C441.517,179.171,440.909,176.913,440.078,174.74z
		 M376.627,177.652c-1.23,0.527-0.715-0.805-1.219-1.217c-0.297-0.244-1.271-0.895-0.811-2.435c0.83-0.292,1.607-1.271,2.434-0.405
		C377.82,174.587,377.529,177.098,376.627,177.652z M403.807,219.438c0.217-1.812,0.383-3.672,2.434-3.651
		c-0.521-0.533-0.521-1.496,0-2.029c1.672,0.012,2.029,1.506,2.027,2.436C408.266,217.274,405.879,219.964,403.807,219.438z"/>
</g>
</svg>
