<?xml version="1.0" encoding="utf-8"?>
<!-- Generator: Adobe Illustrator 16.0.0, SVG Export Plug-In . SVG Version: 6.00 Build 0)  -->
<!DOCTYPE svg PUBLIC "-//W3C//DTD SVG 1.1//EN" "http://www.w3.org/Graphics/SVG/1.1/DTD/svg11.dtd">
<svg version="1.1" id="Layer_1" xmlns="http://www.w3.org/2000/svg" xmlns:xlink="http://www.w3.org/1999/xlink" x="0px" y="0px"
	 width="800px" height="600px" viewBox="0 0 800 600" enable-background="new 0 0 800 600" xml:space="preserve">
<g>
	<path fill="#454545" d="M602.188,209.483c0-1.398,0-2.796,0-4.195c-0.14,0-0.279,0-0.417,0c-0.665-2.385,0.342-4.48-0.841-6.292
		c-0.14,0-0.279,0-0.42,0c-0.558-0.7-1.117-1.398-1.678-2.097c-0.279,0-0.558,0-0.838,0c-1.12-1.258-2.238-2.517-3.355-3.776
		c-0.28,0-0.56,0-0.84,0c-0.141-0.279-0.28-0.559-0.42-0.839c-0.141,0-0.278,0-0.419,0c-0.559-0.699-1.119-1.398-1.677-2.097
		c-0.28,0-0.56,0-0.84,0c-0.28-0.42-0.56-0.839-0.838-1.259c-0.28-0.14-0.561-0.28-0.84-0.42c-0.839-1.147-0.476-1.664-2.099-2.097
		c0-0.28,0-0.559,0-0.839c-2.406-0.654-4.127-4.183-6.291-5.454c0-0.279,0-0.559,0-0.838c-1.669-0.452-2.034-1.739-3.356-2.517
		c0-0.28,0-0.559,0-0.839c-0.42-0.14-0.839-0.28-1.259-0.42c0-0.279,0-0.559,0-0.839c-0.278-0.14-0.559-0.279-0.838-0.419
		c0-0.14,0-0.28,0-0.419c-0.28,0-0.56,0-0.84,0c-0.14-0.419-0.278-0.839-0.418-1.259c-1.958-1.817-3.916-3.635-5.874-5.454
		c0-0.279,0-0.559,0-0.838c-1.705-0.507-0.445-0.29-1.257-1.259c-0.141,0-0.28,0-0.421,0c0-0.139,0-0.279,0-0.419
		c-0.42-0.14-0.84-0.279-1.258-0.42c0-0.279,0-0.559,0-0.838c-0.279-0.14-0.56-0.279-0.84-0.419c0-0.14,0-0.28,0-0.42
		c-0.42-0.14-0.838-0.279-1.258-0.419c-0.511-0.41-1.109-1.949-1.678-2.517c-1.398-1.119-2.798-2.237-4.195-3.356
		c-0.839-1.118-1.678-2.237-2.517-3.356c-0.279,0-0.56,0-0.84,0c-2.236-2.377-4.474-4.753-6.711-7.131
		c-0.84-0.7-1.678-1.398-2.518-2.097c0-0.28,0-0.56,0-0.839c-0.278-0.14-0.559-0.28-0.839-0.42c0-0.14,0-0.279,0-0.419
		c-0.419-0.14-0.839-0.279-1.258-0.42c-1.119-1.257-2.237-2.516-3.354-3.774c-2.798-2.656-5.594-5.314-8.392-7.97
		c0-0.28,0-0.56,0-0.839c-0.558-0.28-1.118-0.56-1.678-0.839c0-0.28,0-0.56,0-0.839c-1.818-1.678-3.636-3.356-5.454-5.034
		c-3.942-3.944-7.64-7.944-12.164-11.326l-0.838-0.838c0-0.279,0-0.559,0-0.839c-0.42-0.279-0.84-0.559-1.259-0.839
		c0-0.279,0-0.558,0-0.838c-0.56-0.28-1.119-0.559-1.678-0.839c0-0.279,0-0.559,0-0.838c-1.817-1.679-3.635-3.356-5.453-5.034
		c0-0.141,0-0.28,0-0.42c-0.84,0.279-1.678,0.559-2.518,0.838c0,0.14,0,0.28,0,0.42c-0.978,0-1.958,0-2.936,0c0-0.14,0-0.28,0-0.42
		c-0.14,0-0.28,0-0.42,0c-0.838,0-1.678,0-2.518,0c-0.127,0.031-0.118,0.558-0.839,0.42c0-0.14,0-0.28,0-0.42
		c-2.237,0-4.475,0-6.711,0c0,0.14,0,0.28,0,0.42c-0.979,0-1.958,0-2.938,0c0-0.14,0-0.28,0-0.42c-1.538,0-3.075,0-4.613,0
		c0-0.14,0-0.279,0-0.418c-0.979,0.139-1.958,0.278-2.937,0.418c-0.107-0.023-0.138-0.535-0.839-0.418c0,0.139,0,0.278,0,0.418
		c-0.141,0-0.28,0-0.419,0c-0.28-0.14-0.56-0.279-0.839-0.418c0,0.139,0,0.278,0,0.418c-4.334-0.14-8.67-0.279-13.005-0.418
		c0,0.139,0,0.278,0,0.418c-0.418-0.14-0.838-0.279-1.258-0.418c-1.538,0-3.076,0-4.613,0c0,0.139,0,0.278,0,0.418
		c-0.141,0-0.28,0-0.42,0c0-0.14,0-0.279,0-0.418c-0.979,0-1.958,0-2.937,0c-2.89,0.844-7.728,0.418-11.327,0.418
		c-8.249,0-16.5,0-24.749,0c0-0.14,0-0.279,0-0.418c-0.141,0-0.278,0-0.418,0c0,0.139,0,0.278,0,0.418c-1.398,0-2.798,0-4.195,0
		c0,0.14,0,0.28,0,0.42c-0.14,0-0.28,0-0.42,0c0-0.14,0-0.28,0-0.42c-1.678,0-3.356,0-5.033,0c0-0.14,0-0.279,0-0.418
		c-0.328-0.011-1.414,0.734-2.517,0.418c-1.7-0.485-10.278-0.981-12.585-0.418c0,0.139,0,0.278,0,0.418
		c-0.719,0.121-1.96-0.784-3.354-0.418c-2.407,0.627-10.247,0-15.104,0c-7.472,0-16.973-0.057-23.069,0c-0.141,0-0.28,0-0.42,0
		c0-0.141,0-0.28,0-0.42c-2.936-0.141-5.873-0.28-8.81-0.419c0,0.14,0,0.279,0,0.419c-3.915,0-7.831,0-11.745,0
		c-4.959,0-8.04,0-13.424,0c-2.376,0-4.754,0-7.131,0c0,0.14,0,0.279,0,0.42c-0.687,0.028-3.211-0.88-4.614-0.42
		c0,0.14,0,0.279,0,0.42c-0.84,0.139-1.678,0.278-2.518,0.418c-0.278,0.42-0.558,0.839-0.838,1.259c-0.42,0-0.84,0-1.258,0
		c-1.12,1.257-2.238,2.517-3.358,3.776c-0.557,0.418-1.117,0.838-1.677,1.257c0,0.28,0,0.559,0,0.838
		c-0.278,0.141-0.559,0.28-0.838,0.42c-1.259,1.397-2.519,2.797-3.776,4.195c-0.28,0-0.56,0-0.838,0c0,0.28,0,0.559,0,0.838
		c-0.938,0.233-1.063,0.351-1.678,0.839c0,0.14,0,0.28,0,0.419c-1.241,0.865-2.1,0.798-2.518,2.517c-0.279,0-0.56,0-0.84,0
		c-2.236,2.377-4.474,4.753-6.711,7.13c-0.418,0.28-0.838,0.56-1.258,0.839c0,0.14,0,0.279,0,0.42c-0.28,0-0.561,0-0.84,0
		c-0.419,0.559-0.839,1.118-1.259,1.678c-0.14,0-0.279,0-0.42,0c0,0.28,0,0.559,0,0.839c-0.558,0.42-1.118,0.838-1.678,1.259
		c0,0.279,0,0.559,0,0.838c-0.418,0.14-0.838,0.279-1.258,0.419c-0.56,0.699-1.117,1.399-1.678,2.098c-0.28,0-0.56,0-0.838,0
		c-1.399,1.538-2.798,3.076-4.196,4.614c-2.153,2.155-4.782,3.92-6.291,6.711c-0.279,0-0.56,0-0.84,0
		c-0.478,1.746-1.839,2.26-2.936,3.356c-1.398,1.538-2.797,3.076-4.195,4.614c-0.838,0.699-1.678,1.398-2.517,2.097
		c-0.42,0.561-0.839,1.12-1.259,1.678c-0.141,0-0.28,0-0.419,0c0,0.28,0,0.56,0,0.839c-0.42,0.28-0.839,0.561-1.259,0.839
		c-0.839,0.979-1.678,1.958-2.517,2.937c-0.279,0-0.56,0-0.84,0c-0.56,0.839-1.118,1.678-1.678,2.517c-0.28,0-0.56,0-0.838,0
		c-0.14,0.42-0.28,0.838-0.42,1.258c-0.42,0.28-0.84,0.559-1.258,0.839c-0.7,0.839-1.399,1.677-2.098,2.517
		c-1.958,1.818-3.916,3.636-5.874,5.454c-0.697,0.839-1.397,1.678-2.098,2.517c-0.279,0-0.558,0-0.837,0
		c-0.98,1.118-1.958,2.237-2.938,3.355c-2.096,2.098-4.193,4.194-6.291,6.292c-1.094,1.095-2.461,1.609-2.937,3.356
		c-1.605,0.407-1.302,0.934-2.097,2.097c-0.198,0.289-0.555,0.278-0.841,0.84c-0.278,0-0.558,0-0.837,0
		c-0.583,2.145-2.744,2.86-3.776,4.613c-0.279,0-0.56,0-0.838,0c-0.345,1.249-0.981,1.646-1.678,2.517c-0.141,0-0.28,0-0.42,0
		c-0.141,0.699-0.28,1.398-0.42,2.098c-0.279,0.14-0.56,0.28-0.84,0.42c0,2.096,0,4.194,0,6.291
		c-0.448,1.546-1.019,11.336-0.418,13.424c0.14,0,0.28,0,0.418,0c0,1.118,0,2.238,0,3.356c-0.138,0-0.278,0-0.418,0
		c0.14,0.42,0.28,0.838,0.418,1.258l-0.418,0.419c0.007,0.593,0.311-0.164,0.418,0.42c-0.138,1.538-0.278,3.077-0.418,4.614
		c0,1.398,0,2.797,0,4.195c-0.141,0-0.28,0-0.42,0c0,2.376,0,4.754,0,7.131c-0.749,2.583,0.034,5.289,0,8.389
		c0,0.699,0,1.398,0,2.098c-0.141,0-0.28,0-0.42,0c0,3.076,0,6.153,0,9.228c0,7.83,0,15.662,0,23.492c0,2.516,0,5.034,0,7.549
		c0.14,0,0.279,0,0.42,0c0,0.56,0,1.119,0,1.679c-0.141,0-0.28,0-0.42,0c-0.14,5.453-0.279,10.908-0.42,16.361
		c-0.138,7.129-0.278,14.262-0.418,21.393c0.14,0,0.28,0,0.418,0c0,1.398,0,2.796,0,4.195c0.004,4.975-0.765,11.729,0.42,15.938
		c-0.14,2.797-0.279,5.594-0.42,8.391c0.141,0,0.28,0,0.42,0c-0.14,2.937-0.279,5.872-0.42,8.809
		c0.936,3.255,0.41,8.604,0.42,12.584c0.14,1.398,0.279,2.797,0.42,4.195c-0.335,1.453-1.052,10.286-0.42,12.165
		c0.14,0,0.279,0,0.42,0c0,0.419,0,0.839,0,1.258c0.7,0.56,1.398,1.119,2.098,1.678c0,0.141,0,0.279,0,0.42c0.279,0,0.558,0,0.838,0
		c0.14,0.279,0.28,0.56,0.42,0.839c0.28,0,0.56,0,0.84,0c0.278,0.42,0.559,0.84,0.838,1.259c0.141,0,0.28,0,0.42,0
		c0,0.279,0,0.56,0,0.838c0.187,0.232,2.184,1.491,2.517,1.678c0,0.28,0,0.561,0,0.84c1.746,0.476,2.261,1.842,3.354,2.936
		c0.98,0.84,1.958,1.679,2.938,2.518c0.279,0.42,0.558,0.84,0.838,1.259c0.28,0,0.56,0,0.84,0c0.14,0.419,0.279,0.839,0.42,1.259
		c0.838,0.699,1.677,1.397,2.516,2.097c0,0.279,0,0.559,0,0.839c0.28,0,0.56,0,0.84,0c0.978,1.118,1.958,2.238,2.936,3.356
		c0.28,0.14,0.561,0.279,0.84,0.419c0,0.279,0,0.561,0,0.84c1.398,1.258,2.796,2.517,4.193,3.774
		c0.985,1.069-0.227,1.105,1.679,1.678c0,0.28,0,0.56,0,0.84c1.258,1.117,2.518,2.236,3.775,3.355c0.14,0.279,0.28,0.56,0.42,0.839
		c0.28,0,0.559,0,0.838,0c0.279,0.559,0.56,1.118,0.84,1.678c0.28,0,0.559,0,0.838,0c1.12,1.259,2.237,2.518,3.355,3.775
		c0.84,0.699,1.679,1.398,2.518,2.098c0,0.28,0,0.559,0,0.839c0.561,0.28,1.119,0.559,1.679,0.838
		c1.27,1.603,2.393,4.029,4.613,4.615c0.331,1.343,1.584,2.621,2.938,2.936c0,0.28,0,0.561,0,0.84c0.279,0,0.558,0,0.838,0
		c1.118,1.259,2.237,2.517,3.355,3.775c0.28,0.14,0.561,0.279,0.84,0.42c0,0.14,0,0.279,0,0.418c0,0.142,0,0.281,0,0.42
		c0.141,0,0.28,0,0.42,0c0,0.141,0,0.279,0,0.42c0.278,0,0.559,0,0.839,0c0,0.28,0,0.56,0,0.839
		c1.509,0.407,1.758,1.405,2.935,2.098c0,0.28,0,0.559,0,0.839c0.28,0,0.561,0,0.841,0c0.14,0.419,0.279,0.839,0.42,1.259
		c1.257,0.979,2.516,1.956,3.775,2.937c0,0.28,0,0.56,0,0.839c2.181,0.591,2.957,2.652,4.193,4.194
		c0.7,0.419,1.398,0.839,2.098,1.258c0.14,0.419,0.28,0.84,0.42,1.26c0.698,0.559,1.398,1.117,2.097,1.677c0,0.28,0,0.559,0,0.84
		c3.355,3.076,6.713,6.151,10.068,9.228c1.397,1.537,2.796,3.077,4.193,4.615c0.7,0.559,1.4,1.119,2.098,1.678
		c0,0.28,0,0.56,0,0.839c0.28,0.14,0.561,0.279,0.84,0.419c0.419,0.56,0.839,1.118,1.259,1.679c0.279,0,0.56,0,0.838,0
		c0.979,1.118,1.957,2.236,2.938,3.355c0.279,0,0.558,0,0.838,0c0.84,0.979,1.678,1.958,2.518,2.936c2.516,0,5.033,0,7.551,0
		c0-0.14,0-0.279,0-0.419c1.259,0,2.517,0,3.774,0c0-0.14,0-0.279,0-0.42c0.14,0,0.279,0,0.419,0c0,0.141,0,0.28,0,0.42
		c2.519,0,5.034,0,7.552,0c0.018-0.005,0.334-0.639,1.259-0.42c0,0.141,0,0.28,0,0.42c3.215,0,6.433,0,9.647,0
		c3.708,1.094,12.566,0.628,16.358,0c0.32-0.053,2.658,0.417,3.776,0.419c3.216-0.14,6.433-0.279,9.649-0.419
		c0,0.14,0,0.279,0,0.419c0.418-0.14,0.838-0.279,1.257-0.419c3.217,0,6.432,0,9.647,0c0-0.14,0-0.279,0-0.42
		c0.841,0.141,1.678,0.28,2.518,0.42c0-0.14,0-0.279,0-0.42c1.818,0.141,3.636,0.28,5.454,0.42c0-0.14,0-0.279,0-0.42
		c1.117,0.141,2.237,0.28,3.355,0.42c0.993-0.062,1.932-0.788,3.355-0.42c0,0.141,0,0.28,0,0.42c0.918,0.199,1.251-0.417,1.258-0.42
		c1.817,0,3.636,0,5.453,0c7.41,0,19.115-0.809,24.33,0.42c3.775,0,7.551,0,11.327,0c0-0.14,0-0.279,0-0.42
		c0.317-0.053,2.656,0.417,3.773,0.42c3.405,0.009,9.358-0.325,11.326,0c2.602,0.43,5.942-0.157,7.97,0.419c1.958,0,3.916,0,5.873,0
		c0-0.14,0-0.279,0-0.419c2.656-0.14,5.314-0.279,7.972-0.42c0,0.141,0,0.28,0,0.42c5.592,0,11.185,0,16.778,0
		c0.56,0,1.118,0,1.678,0c0,0.14,0,0.279,0,0.419c0.141,0,0.28,0,0.42,0c0-0.14,0-0.279,0-0.419c0.698,0,1.397,0,2.098,0
		c0,0.14,0,0.279,0,0.419c0.138,0,0.278,0,0.418,0c0-0.14,0-0.279,0-0.419c1.398,0,2.798,0,4.196,0c0,0.14,0,0.279,0,0.419
		c1.957-0.14,3.915-0.279,5.873-0.419c0-0.14,0-0.279,0-0.42c1.816-0.141,3.636-0.279,5.451-0.418c0-0.141,0-0.281,0-0.42
		c1.12-0.979,2.238-1.958,3.356-2.938c0-0.279,0-0.559,0-0.837c0.279-0.142,0.56-0.28,0.839-0.421
		c0.942-0.998,2.556-2.346,2.937-3.775c1.734-0.451,1.616-1.279,2.518-2.517c0.279-0.141,0.56-0.279,0.838-0.42
		c0.7-0.838,1.399-1.677,2.098-2.517c0.886-0.863,1.691-0.642,2.098-2.098c0.28,0,0.56,0,0.84,0
		c0.558-0.698,1.118-1.398,1.678-2.098c0.138,0,0.278,0,0.418,0c0.14-0.419,0.28-0.839,0.42-1.259c0.28,0,0.561,0,0.84,0
		c0.278-0.419,0.559-0.838,0.838-1.258c0.42-0.14,0.84-0.279,1.259-0.419c0-0.28,0-0.561,0-0.84c1.708-0.499,0.441-0.297,1.26-1.258
		c0.139,0,0.279,0,0.417,0c0-0.141,0-0.28,0-0.419c0.28,0,0.561,0,0.841,0c0.837-0.979,1.677-1.958,2.517-2.937
		c1.118-0.979,2.236-1.959,3.356-2.938c0.278-0.419,0.558-0.839,0.838-1.258c0.28,0,0.561,0,0.84,0
		c0.978-1.118,1.958-2.238,2.936-3.355c0.28,0,0.56,0,0.838,0c1.4-1.538,2.798-3.076,4.195-4.614c0.421-0.28,0.841-0.56,1.259-0.84
		c0-0.278,0-0.559,0-0.838c1.867-0.521,1.497-1.608,3.355-2.099c0.404-1.486,1.198-1.613,2.098-2.517
		c1.538-1.677,3.077-3.354,4.615-5.033c0.278,0,0.558,0,0.838,0c0.49-1.812,1.321-1.439,2.098-2.518c0-0.279,0-0.559,0-0.838
		c0.979-0.84,1.958-1.679,2.937-2.517c0-0.14,0-0.28,0-0.42c0.28-0.141,0.56-0.28,0.84-0.419c0-0.28,0-0.56,0-0.839
		c1.817-1.678,3.635-3.356,5.453-5.035c5.704-5.705,11.072-11.464,17.618-16.358l0.838-0.84c0-0.28,0-0.56,0-0.839
		c0.979-0.838,1.957-1.678,2.936-2.517c0.141-0.279,0.28-0.561,0.421-0.839c0.279,0,0.559,0,0.839,0
		c1.118-1.259,2.236-2.518,3.355-3.776c0.699-0.559,1.398-1.118,2.099-1.677c0.138-0.281,0.278-0.559,0.418-0.84
		c0.28,0,0.56,0,0.84,0c0.838-0.979,1.678-1.957,2.516-2.937c0.279,0,0.56,0,0.84,0c0.14-0.278,0.279-0.559,0.42-0.838
		c1.15-1.089,2.255-2.228,3.775-2.937c0.272-1.562,0.865-5.943,0.418-7.552c-0.14,0-0.28,0-0.418,0c0-2.236,0-4.474,0-6.71
		c0.138,0,0.278,0,0.418,0c-0.14-1.259-0.28-2.517-0.418-3.776c0-3.774,0-7.551,0-11.326c0-0.698,0-1.397,0-2.097
		c0.138,0,0.278,0,0.418,0c-0.14-1.259-0.28-2.518-0.418-3.775c0-3.634,0-7.271,0-10.906c0-2.517,0-5.034,0-7.551
		c0.138,0,0.278,0,0.418,0c0-0.979,0-1.958,0-2.938c0.014-4.306-0.597-12.846,0-15.52c0-2.377,0-4.754,0-7.132
		c0.141,0,0.28,0,0.42,0c0-0.979,0-1.957,0-2.936c-0.107-0.584-0.459,0.173-0.42-0.419c0.141,0,0.28,0,0.42,0
		c0-1.119,0-2.237,0-3.356c-0.14,0-0.279,0-0.42,0c-0.587-2.118,0.306-6.689,0.42-7.131c-0.14-2.655-0.279-5.313-0.42-7.97
		c0.141,0,0.28,0,0.42,0c0-2.377,0-4.754,0-7.132c0-1.677,0-3.355,0-5.034c0.141,0,0.28,0,0.421,0
		c-0.141-0.418-0.28-0.838-0.421-1.258c0-2.097,0-4.195,0-6.292c0.141,0,0.28,0,0.421,0c0-0.14,0-0.28,0-0.419
		c-0.141-1.118-0.28-2.237-0.421-3.356c0.141,0,0.28,0,0.421,0c0.556-2.422-0.146-6.179-0.421-7.97
		c0.141-1.817,0.28-3.636,0.421-5.452c-0.141,0-0.28,0-0.421,0c-0.02-0.137,0.399-0.931,0.421-1.679c0-0.979,0-1.957,0-2.936
		c-0.141,0-0.28,0-0.421,0c-0.486-1.754,0.323-3.819,0.421-5.034c0-0.839,0-1.677,0-2.518c-0.141,0-0.28,0-0.421,0
		c0-0.978,0-1.957,0-2.936c0.141,0,0.28,0,0.421,0c0-0.14,0-0.28,0-0.42c-0.141,0-0.28,0-0.421,0c0-0.838,0-1.677,0-2.516
		c0.141,0,0.28,0,0.421,0c0.14-7.689,0.279-15.381,0.42-23.071c0.138-2.797,0.277-5.594,0.417-8.39c-0.14,0-0.279,0-0.417,0
		c0.138-1.258,0.277-2.517,0.417-3.774c-0.14,0-0.279,0-0.417,0C601.646,209.46,602.188,209.483,602.188,209.483z M479.282,161.244
		c0.14,0,0.278,0,0.418,0c0-0.561,0-1.12,0-1.678c-0.14,0-0.278,0-0.418,0c0.14-0.419,0.278-0.839,0.418-1.259
		c-0.14,0-0.278,0-0.418,0c0-0.559,0-1.118,0-1.678c0.14,0,0.278,0,0.418,0c0-0.699,0-1.398,0-2.098c-0.14,0-0.278,0-0.418,0
		c0-0.139,0-0.279,0-0.418c0.14,0,0.278,0,0.418,0c0-0.979,0-1.958,0-2.937c2.938-0.141,5.873-0.28,8.809-0.419
		c0,0.14,0,0.279,0,0.419c1.817,0,3.636,0,5.454,0c0,0.14,0,0.279,0,0.42c0.699,0,1.397,0,2.098,0c0,0.14,0,0.279,0,0.418
		c0.42-0.14,0.84-0.279,1.258-0.418c0,0.14,0,0.279,0,0.418c1.258,0.141,2.518,0.28,3.775,0.42c0,0.14,0,0.279,0,0.419
		c0.28,0,0.56,0,0.84,0c0,0.14,0,0.28,0,0.42c0.418,0,0.838,0,1.258,0c0,0.14,0,0.279,0,0.419c0.28,0,0.561,0,0.839,0
		c0.14,0.28,0.279,0.56,0.42,0.838c0.279,0,0.56,0,0.84,0c0.14,0.28,0.279,0.561,0.42,0.839c0.278,0,0.558,0,0.837,0
		c0.14,0.28,0.28,0.56,0.42,0.839c0.559,0,1.119,0,1.678,0c0.141,0.28,0.28,0.56,0.42,0.839c0.839,0.7,1.679,1.398,2.517,2.098
		c0,0.28,0,0.559,0,0.838c1.596,0.42,1.312,0.917,2.098,2.098c0.279,0.14,0.56,0.279,0.838,0.419c0.141,0.699,0.28,1.398,0.42,2.097
		c0.141,0,0.28,0,0.42,0c0.141,0.559,0.28,1.119,0.419,1.678c0.141,0,0.28,0,0.421,0c0,0.559,0,1.119,0,1.678
		c0.138,0,0.278,0,0.418,0c0,0.42,0,0.839,0,1.259c0.14,0,0.28,0,0.42,0c0.28,3.775,0.56,7.551,0.84,11.326c-0.141,0-0.28,0-0.42,0
		c0,1.118,0,2.237,0,3.356c-0.14,0-0.279,0-0.42,0c0,0.279,0,0.559,0,0.839c-0.14,0-0.28,0-0.42,0c0,0.419,0,0.838,0,1.258
		c-0.14,0-0.28,0-0.418,0c0,0.42,0,0.838,0,1.259c-0.141,0-0.28,0-0.421,0c-0.139,0.839-0.278,1.678-0.419,2.516
		c-0.14,0-0.279,0-0.42,0c-0.279,0.839-0.558,1.678-0.838,2.517c-0.141,0-0.28,0-0.42,0c-0.14,0.56-0.28,1.119-0.42,1.678
		c-1.118,0.979-2.238,1.958-3.355,2.937c-0.42,0.559-0.839,1.119-1.259,1.678c-0.279,0-0.559,0-0.839,0
		c-0.141,0.28-0.28,0.559-0.419,0.839c-0.56,0.14-1.119,0.279-1.677,0.42c-0.141,0.278-0.28,0.559-0.42,0.838
		c-0.561,0.139-1.12,0.279-1.679,0.419c0,0.14,0,0.28,0,0.42c-0.56,0-1.119,0-1.678,0c0,0.139,0,0.278,0,0.418
		c-0.42,0-0.84,0-1.26,0c0,0.14,0,0.28,0,0.42c-0.838,0-1.677,0-2.516,0c0,0.139,0,0.279,0,0.418c-1.118,0-2.237,0-3.355,0
		c0,0.141,0,0.28,0,0.42c-0.15,0.015-1.127-0.492-2.099-0.42c-1.844,0.136-5.545,1.124-7.969,0.42
		c-1.305-0.378-2.328-0.768-4.195-0.838c-0.358-0.473,0.056-0.066-0.42-0.42c0-1.398,0-2.796,0-4.194c-0.14,0-0.279,0-0.42,0
		c0.141-0.42,0.28-0.839,0.42-1.259c-0.14,0-0.279,0-0.42,0c0-2.097,0-4.195,0-6.292c-0.14,0-0.278,0-0.418,0
		c0.14-3.636,0.278-7.272,0.418-10.907c-0.14,0-0.278,0-0.418,0c-0.716-2.548,0.251-8.807,0.418-10.906
		C479.561,165.998,479.422,163.621,479.282,161.244z M381.124,172.15c0.14,0,0.279,0,0.42,0c0-1.258,0-2.517,0-3.775
		c0.138,0,0.278,0,0.418,0c0-0.42,0-0.84,0-1.259c0.14,0,0.28,0,0.42,0c0-0.419,0-0.838,0-1.258c0.14,0,0.28,0,0.42,0
		c0-0.419,0-0.839,0-1.258c0.14,0,0.28,0,0.42,0c0-0.42,0-0.838,0-1.258c0.14,0,0.278,0,0.418,0c0.141-0.419,0.28-0.839,0.42-1.258
		c0.28-0.14,0.561-0.28,0.84-0.419c0-0.28,0-0.559,0-0.839c0.141,0,0.278,0,0.418,0c0.901-1.082,2.092-1.835,2.518-3.356
		c0.28,0,0.56,0,0.839,0c0-0.279,0-0.559,0-0.839c0.42-0.14,0.839-0.28,1.259-0.42c0.28-0.419,0.559-0.839,0.838-1.258
		c0.28,0,0.561,0,0.84,0c0.42-0.559,0.839-1.118,1.259-1.677c0.279,0,0.56,0,0.84,0c0-0.14,0-0.28,0-0.42
		c0.558-0.14,1.117-0.279,1.678-0.419c0-0.14,0-0.279,0-0.42c0.418,0,0.838,0,1.257,0c0-0.14,0-0.279,0-0.418c0.7,0,1.398,0,2.099,0
		c0-0.141,0-0.28,0-0.42c0.558,0,1.118,0,1.678,0c0.14-0.28,0.28-0.559,0.42-0.839c0.698,0,1.397,0,2.097,0c0-0.14,0-0.28,0-0.419
		c0.42,0.139,0.84,0.279,1.259,0.419c1.259,0,2.516,0,3.774,0c0,0.139,0,0.28,0,0.419c1.174,0.413,2.379,0.261,3.356,0.839
		c0.139,0.279,0.278,0.559,0.419,0.838c0.42,0,0.84,0,1.26,0c0,0.14,0,0.279,0,0.419c0.277,0,0.558,0,0.838,0
		c0.14,0.28,0.279,0.56,0.42,0.839c0.56,0.14,1.117,0.28,1.678,0.42c0.279,0.418,0.56,0.838,0.838,1.258c0.28,0,0.56,0,0.84,0
		c0.14,0.42,0.28,0.839,0.42,1.259c0.698,0.56,1.398,1.119,2.097,1.678c0,0.28,0,0.559,0,0.839c0.14,0,0.279,0,0.419,0
		c0.14,0.419,0.28,0.838,0.42,1.258c0.42,0.279,0.841,0.559,1.259,0.839c0.139,0.559,0.279,1.118,0.419,1.678c0.14,0,0.28,0,0.42,0
		c0.28,0.839,0.559,1.677,0.839,2.517c0.14,0,0.279,0,0.419,0c0,0.419,0,0.839,0,1.258c0.141,0,0.28,0,0.42,0
		c0,0.419,0,0.839,0,1.259c0.141,0,0.28,0,0.42,0c0,0.42,0,0.839,0,1.259c0.141,0,0.278,0,0.419,0c0,0.419,0,0.839,0,1.258
		c0.14,0,0.279,0,0.42,0c0,0.839,0,1.678,0,2.517c0.14,0,0.279,0,0.42,0c-0.141,0.42-0.28,0.839-0.42,1.259
		c0.14,0.419,0.279,0.839,0.42,1.258c-0.141,0-0.28,0-0.42,0c-0.141,2.937-0.28,5.874-0.42,8.809c-0.141,0-0.278,0-0.419,0
		c0,0.42,0,0.839,0,1.259c-0.14,0-0.279,0-0.42,0c0,0.419,0,0.839,0,1.258c-0.14,0-0.279,0-0.42,0
		c-0.14,0.979-0.279,1.958-0.419,2.937c-0.28,0.141-0.559,0.28-0.839,0.42c0,0.279,0,0.559,0,0.838c-0.14,0-0.28,0-0.42,0
		c-0.491,0.628-0.58,0.743-0.837,1.678c-0.28,0-0.561,0-0.841,0c-0.14,0.419-0.28,0.839-0.42,1.259
		c-0.838,0.699-1.678,1.399-2.516,2.098c-0.14,0.28-0.28,0.559-0.42,0.839c-0.56,0.14-1.118,0.28-1.678,0.419c0,0.14,0,0.28,0,0.42
		c-0.28,0-0.561,0-0.84,0c-0.141,0.28-0.278,0.559-0.418,0.839c-0.28,0-0.561,0-0.84,0c0,0.14,0,0.28,0,0.419
		c-0.421,0-0.838,0-1.258,0c0,0.14,0,0.279,0,0.42c-0.28,0-0.56,0-0.84,0c0,0.14,0,0.279,0,0.42
		c-1.817,0.278-3.636,0.559-5.454,0.838c0,0.139,0,0.279,0,0.419c-1.397,0-2.795,0-4.193,0c0,0.14,0,0.28,0,0.42l-0.42-0.42
		c-0.42,0.14-0.838,0.28-1.258,0.42c0-0.14,0-0.28,0-0.42c-0.56,0-1.12,0-1.678,0c0-0.14,0-0.28,0-0.419c-0.42,0-0.84,0-1.26,0
		c0-0.14,0-0.28,0-0.42c-0.559,0-1.117,0-1.678,0c-0.14-0.279-0.278-0.559-0.418-0.838c-0.421,0-0.84,0-1.26,0
		c-0.14-0.28-0.278-0.559-0.418-0.839c-0.42,0-0.84,0-1.26,0c0-0.14,0-0.28,0-0.42c-0.28,0-0.559,0-0.839,0c0-0.139,0-0.279,0-0.419
		c-0.279,0-0.56,0-0.84,0c-0.14-0.28-0.279-0.559-0.418-0.839c-0.28,0-0.56,0-0.84,0c-0.279-0.42-0.56-0.839-0.839-1.259
		c-0.139,0-0.279,0-0.419,0c0-0.279,0-0.559,0-0.839c-0.42-0.279-0.84-0.559-1.259-0.838c0-0.279,0-0.559,0-0.839
		c-0.278-0.14-0.559-0.279-0.839-0.419c-0.14-0.419-0.28-0.838-0.42-1.258c-0.14,0-0.279,0-0.42,0
		c-0.14-0.559-0.277-1.119-0.418-1.678c-0.279-0.14-0.56-0.279-0.84-0.418c-0.14-0.56-0.279-1.119-0.42-1.679
		c-0.14,0-0.278,0-0.418,0c0-0.559,0-1.118,0-1.677c-0.14,0-0.28,0-0.42,0c0-0.419,0-0.839,0-1.258c-0.14,0-0.28,0-0.42,0
		c0-0.561,0-1.12,0-1.678c-0.14,0-0.28,0-0.42,0c0-0.699,0-1.399,0-2.098C381.464,179.332,380.422,174.646,381.124,172.15z
		 M274.157,199.417c0.14,0,0.279,0,0.42,0c0-0.559,0-1.12,0-1.678c0.14,0,0.279,0,0.42,0c0-0.42,0-0.839,0-1.259
		c0.278-0.139,0.558-0.28,0.837-0.419c0-0.56,0-1.119,0-1.678c0.141,0,0.28,0,0.42,0c0-0.28,0-0.56,0-0.839c0.141,0,0.28,0,0.421,0
		c0-0.42,0-0.839,0-1.259c0.138,0,0.278,0,0.418,0c0.14-0.559,0.28-1.119,0.419-1.678c0.141,0,0.28,0,0.42,0
		c0-0.559,0-1.119,0-1.678c0.28-0.14,0.561-0.28,0.839-0.42c0-0.419,0-0.839,0-1.258c0.14,0,0.279,0,0.42,0
		c0.14-0.559,0.279-1.119,0.42-1.678c0.14,0,0.279,0,0.42,0c0.14-0.838,0.278-1.678,0.418-2.517c0.14,0,0.28,0,0.42,0
		c0-0.28,0-0.56,0-0.839c0.14,0,0.28,0,0.42,0c0-0.28,0-0.56,0-0.839c0.14,0,0.28,0,0.42,0c0.28-0.839,0.559-1.677,0.838-2.517
		c0.141,0,0.28,0,0.42,0c0-0.7,0-1.399,0-2.098c0.14,0,0.28,0,0.42,0c0-0.42,0-0.839,0-1.259c0.14,0,0.28,0,0.418,0
		c0-0.279,0-0.559,0-0.839c0.141,0,0.28,0,0.421,0c0.14-0.559,0.279-1.118,0.42-1.678c0.139,0,0.278,0,0.419,0
		c0-0.559,0-1.118,0-1.678c0.14,0,0.279,0,0.42,0c0.278-0.839,0.559-1.678,0.838-2.517c0.141,0,0.28,0,0.42,0
		c0-0.28,0-0.559,0-0.839c0.14,0,0.28,0,0.42,0c0.138-0.699,0.278-1.398,0.418-2.098c0.28-0.139,0.56-0.279,0.84-0.419
		c0-0.559,0-1.119,0-1.678c0.14,0,0.28,0,0.42,0c0-0.42,0-0.839,0-1.259c0.141,0,0.278,0,0.418,0c0-0.56,0-1.119,0-1.678
		c0.141,0,0.28,0,0.42,0c0-0.28,0-0.559,0-0.839c0.28-0.14,0.561-0.28,0.84-0.419c0.141-0.839,0.278-1.678,0.419-2.518
		c0.14,0,0.279,0,0.42,0c0.14-0.559,0.279-1.118,0.42-1.678c0.14,0,0.279,0,0.419,0c0-0.419,0-0.839,0-1.258c0.141,0,0.28,0,0.419,0
		c0-0.28,0-0.56,0-0.839c0.14,0,0.279,0,0.42,0c0-0.42,0-0.839,0-1.259c0.617-0.874,3.734-0.467,4.615-1.258
		c0.698,0,1.397,0,2.096,0c0.258,0.465,0.718,0.643,0.84,0.839c0,0.279,0,0.559,0,0.838c0.141,0,0.28,0,0.42,0
		c0.278,1.258,0.558,2.517,0.838,3.775c0.14,0,0.28,0,0.42,0c0,0.42,0,0.839,0,1.259c0.141,0,0.28,0,0.42,0c0,0.419,0,0.839,0,1.259
		c0.141,0,0.28,0,0.419,0c0.139,0.839,0.279,1.678,0.419,2.517c0.14,0,0.28,0,0.42,0c0.14,0.838,0.28,1.678,0.42,2.517
		c0.14,0,0.28,0,0.418,0c0,0.279,0,0.559,0,0.838c0.141,0,0.28,0,0.42,0c0,0.559,0,1.119,0,1.678c0.141,0,0.28,0,0.42,0
		c0,0.28,0,0.559,0,0.838c0.141,0,0.28,0,0.42,0c0,0.419,0,0.839,0,1.259c0.141,0,0.28,0,0.42,0
		c0.139,1.118,0.278,2.237,0.419,3.356c0.14,0,0.279,0,0.42,0c0,0.279,0,0.559,0,0.838c0.14,0,0.279,0,0.42,0
		c0.14,1.118,0.279,2.237,0.42,3.356c0.138,0,0.278,0,0.418,0c0,0.28,0,0.559,0,0.839c0.14,0,0.279,0,0.42,0
		c0,0.418,0,0.838,0,1.257c0.14,0,0.279,0,0.42,0c0,0.42,0,0.84,0,1.259c0.14,0,0.28,0,0.42,0c0,0.42,0,0.838,0,1.258
		c0.14,0,0.278,0,0.418,0c0,0.419,0,0.839,0,1.258c0.14,0,0.279,0,0.419,0c0,0.42,0,0.839,0,1.259c0.141,0,0.28,0,0.42,0
		c0,0.28,0,0.559,0,0.839c0.141,0,0.28,0,0.421,0c0,0.419,0,0.839,0,1.258c0.14,0,0.278,0,0.418,0c0,0.28,0,0.56,0,0.839
		c0.14,0,0.28,0,0.419,0c0,0.42,0,0.838,0,1.259c0.141,0,0.28,0,0.42,0c0,0.418,0,0.839,0,1.258c0.28,0.14,0.561,0.28,0.839,0.42
		c0,0.42,0,0.838,0,1.259c0.14,0,0.279,0,0.42,0c0,0.419,0,0.838,0,1.258c0.14,0,0.279,0,0.42,0c0,0.42,0,0.839,0,1.258
		c0.14,0,0.279,0,0.42,0c0,0.28,0,0.559,0,0.839c0.14,0,0.279,0,0.418,0c0,0.419,0,0.839,0,1.258c0.14,0,0.28,0,0.42,0
		c0,0.28,0,0.561,0,0.839c0.14,0,0.28,0,0.42,0c0.619,1.389,0.119,1.876,1.258,2.937c-0.099,0.99-0.178,1.037-0.418,1.677
		c-2.238,0-4.476,0-6.713,0c0-0.14,0-0.279,0-0.418c-1.687-1.232-0.787-1.243-1.678-2.937c-0.14,0-0.28,0-0.418,0
		c-0.28-0.839-0.561-1.678-0.84-2.517c-0.141,0-0.28,0-0.42,0c0-0.419,0-0.839,0-1.259c-0.141,0-0.28,0-0.419,0
		c-0.14-0.559-0.279-1.119-0.42-1.678c-0.14,0-0.279,0-0.42,0c0-0.28,0-0.559,0-0.839c-0.279-0.14-0.56-0.28-0.84-0.419
		c0-0.42,0-0.839,0-1.259c-0.138,0-0.278,0-0.418,0c-0.702-0.7-2.924-1.268-4.615-0.839c0,0-0.171,0.597-1.258,0.419
		c0-0.139,0-0.279,0-0.419c-0.42,0.14-0.838,0.28-1.258,0.419c-0.84,0-1.678,0-2.519,0c0-0.139,0-0.279,0-0.419
		c-0.837,0.14-1.677,0.28-2.516,0.419c-0.607-0.064-0.663-0.613-1.678-0.419c0,0.14,0,0.28,0,0.419
		c-0.84-0.139-1.678-0.279-2.518-0.419c0,0.14,0,0.28,0,0.419c-0.42,0.14-0.838,0.28-1.258,0.42
		c-0.235,0.566-0.148,0.979-0.42,1.678c-0.14,0-0.279,0-0.42,0c0,0.559,0,1.119,0,1.678c-0.14,0-0.28,0-0.418,0
		c0,0.28,0,0.56,0,0.839c-0.141,0-0.28,0-0.42,0c-0.141,0.839-0.28,1.678-0.419,2.517c-0.141,0-0.28,0-0.42,0
		c-0.141,0.559-0.28,1.118-0.421,1.678c-0.138,0-0.278,0-0.418,0c0,0.42,0,0.839,0,1.259c-0.14,0-0.28,0-0.42,0
		c0,0.419,0,0.839,0,1.259c-0.05,0.093-0.623,0.404-0.84,0.838c-2.043,0.051-7.194,0.704-7.969,0c-0.141,0-0.28,0-0.42,0
		C273.877,200.254,274.017,199.836,274.157,199.417z M278.771,349.589c0,0.141,0,0.28,0,0.42c-1.538,0.14-3.076,0.279-4.613,0.419
		c0-0.14,0-0.279,0-0.419c-0.979,0-1.958,0-2.937,0c0-0.14,0-0.279,0-0.42c-0.56,0-1.119,0-1.678,0c0-0.14,0-0.279,0-0.419
		c-0.561-0.14-1.12-0.28-1.678-0.42c0-0.14,0-0.28,0-0.419c-0.279,0-0.56,0-0.84,0c-0.42-0.56-0.838-1.118-1.258-1.678
		c-0.28,0-0.56,0-0.84,0c-0.28-0.419-0.559-0.84-0.838-1.259c-0.28,0-0.561,0-0.84,0c-0.698-0.839-1.398-1.678-2.099-2.518
		c0-0.279,0-0.559,0-0.838c-0.277-0.141-0.558-0.28-0.837-0.421c-0.141-0.418-0.28-0.838-0.421-1.258c-0.14,0-0.279,0-0.42,0
		c0-0.279,0-0.559,0-0.839c-0.14,0-0.278,0-0.417,0c0-0.279,0-0.559,0-0.839c-0.14,0-0.28,0-0.42,0c0-0.419,0-0.839,0-1.259
		c-0.14,0-0.28,0-0.42,0c0-0.418,0-0.839,0-1.257c-0.141,0-0.28,0-0.42,0c0-0.281,0-0.561,0-0.84c-0.141,0-0.278,0-0.419,0
		c0-0.42,0-0.84,0-1.259c-0.14,0-0.279,0-0.419,0c0-0.42,0-0.838,0-1.258c-0.141,0-0.28,0-0.42,0c0-0.42,0-0.841,0-1.259
		c-0.141,0-0.28,0-0.42,0c0-1.259,0-2.518,0-3.775c-0.141,0-0.28,0-0.419,0c0-0.559,0-1.119,0-1.678c-0.14,0-0.279,0-0.42,0
		c0-1.398,0-2.797,0-4.195c-0.14,0-0.279,0-0.42,0c0-0.42,0-0.839,0-1.258c-0.14,0-0.279,0-0.42,0
		c-0.49-1.548,0.223-3.574,0.42-4.614c3.03-0.021,7.33-0.441,9.649,0.419c0.155,0.856,0.138,2.781,0.418,3.776c0.14,0,0.28,0,0.42,0
		c0,0.697,0,1.397,0,2.096c-0.14,0-0.28,0-0.42,0c0,0.141,0,0.28,0,0.42c0.14,0,0.28,0,0.42,0c0,0.979,0,1.958,0,2.938
		c0.14,0,0.28,0,0.42,0c0.14,1.816,0.28,3.635,0.42,5.452c0.139,0,0.278,0,0.418,0c0.14,0.699,0.28,1.399,0.42,2.099
		c0.14,0,0.28,0,0.42,0c0,0.279,0,0.559,0,0.838c0.141,0,0.28,0,0.42,0c0.141,0.56,0.278,1.119,0.419,1.678c0.139,0,0.278,0,0.419,0
		c0.42,0.56,0.84,1.119,1.258,1.678c0.701,0.485,0.962-0.005,1.678,0.84c2.141-0.003,4.178-0.538,5.036-1.679
		c0-0.279,0-0.559,0-0.839c0.698-0.559,1.397-1.118,2.096-1.678c0-0.42,0-0.838,0-1.258c0.279-0.14,0.56-0.279,0.84-0.42
		c0-0.28,0-0.56,0-0.839c0.279-0.141,0.56-0.279,0.838-0.42c0-0.559,0-1.118,0-1.678c0.14,0,0.28,0,0.42,0
		c0.14-1.258,0.28-2.518,0.42-3.774c0.14,0,0.28,0,0.42,0c0-0.561,0-1.119,0-1.679c0.14,0,0.28,0,0.418,0c0-1.119,0-2.237,0-3.355
		c0.141,0,0.28,0,0.42,0c0-2.238,0-4.475,0-6.713c0.141,0,0.28,0,0.42,0c-0.14-2.236-0.279-4.473-0.42-6.71c0-2.938,0-5.874,0-8.809
		c0.141-0.42,0.28-0.839,0.42-1.259c-0.14,0-0.279,0-0.42,0c-0.14-2.097-0.279-4.194-0.42-6.292c0-1.957,0-3.915,0-5.872
		c0.141,0,0.28,0,0.42,0c0.367-1.365-0.562-2.079-0.42-2.937c0.141,0,0.28,0,0.42,0c-0.14-1.258-0.279-2.517-0.42-3.775
		c0.141,0,0.28,0,0.42,0c0-1.538,0-3.077,0-4.615c-0.14,0-0.279,0-0.42,0c0-0.582,0.671-0.676,0.42-1.677c-0.14,0-0.279,0-0.42,0
		c0.141-3.915,0.28-7.831,0.42-11.745c-0.14,0-0.279,0-0.42,0c0.141-0.28,0.28-0.56,0.42-0.839c0.056-1.006-0.373-1.073-0.42-1.678
		c-0.063-0.85,0.42-0.839,0.42-0.839c0.261-1.178-0.328-1.082-0.42-1.258c0-0.14,0-0.28,0-0.42c0.141,0,0.28,0,0.42,0
		c0-0.559,0-1.119,0-1.678c-0.14,0-0.279,0-0.42,0c0.058-0.57,0.368-0.624,0.42-1.678c2.97-0.2,7.278-1.475,8.81,0
		c1.511,1.537,0.599,5.593,0.839,8.39c0.352,4.098,0.841,8.361,0.839,13.004c0,1.677,0,3.355,0,5.034c-0.141,0-0.28,0-0.42,0
		c0,3.355,0,6.711,0,10.066c-1.195,4.304-0.658,14.254,0.42,18.039c0.562,1.97-0.024,9.897-0.42,11.325c0,1.538,0,3.076,0,4.613
		c-0.139,0-0.278,0-0.419,0c0,2.797,0,5.594,0,8.391c-0.14,0-0.279,0-0.419,0c0,0.979,0,1.958,0,2.936c-0.141,0-0.28,0-0.42,0
		c0,0.561,0,1.119,0,1.679c-0.141,0-0.28,0-0.42,0c0,0.419,0,0.84,0,1.258c-0.141,0-0.278,0-0.419,0
		c-0.279,0.839-0.56,1.679-0.84,2.517c-0.14,0-0.279,0-0.42,0c0,0.28,0,0.561,0,0.839c-0.277,0.141-0.558,0.281-0.838,0.42
		c0,0.279,0,0.559,0,0.84c-0.14,0-0.28,0-0.42,0c-0.28,0.839-0.56,1.677-0.838,2.517c-0.699,0.56-1.399,1.118-2.098,1.678
		c0,0.279,0,0.559,0,0.84c-0.56,0.419-1.119,0.838-1.678,1.258c0,0.139,0,0.279,0,0.419c-0.28,0-0.56,0-0.84,0
		c0,0.141,0,0.28,0,0.42c-0.279,0-0.558,0-0.838,0c0,0.139,0,0.279,0,0.419c-0.42,0-0.84,0-1.26,0
		c-0.14,0.28-0.278,0.56-0.418,0.839C279.61,349.589,279.19,349.589,278.771,349.589z M301.004,448.586
		c-1.297-0.003-2.154-0.124-2.938-0.42c-0.698-3.215-1.398-6.433-2.097-9.648c-0.839,0-1.68,0-2.517,0c0-0.139,0-0.279,0-0.418
		c-0.14,0-0.28,0-0.42,0c0,0.139,0,0.279,0,0.418c-1.348,0.274-4.375,0.187-5.034-0.418c-0.838,0-1.678,0-2.516,0
		c0,0.139,0,0.279,0,0.418c-0.141,0-0.28,0-0.42,0c0,1.12,0,2.238,0,3.357c-0.591,1.967-1.306,4.059-1.26,6.711
		c-0.471,0.358-0.064-0.057-0.418,0.42c-0.979,0-1.958,0-2.938,0c0.038-4.854,0.194-6.541,1.26-10.068
		c0.14-1.677,0.28-3.355,0.418-5.033c0.141,0,0.28,0,0.42,0c0-0.42,0-0.839,0-1.259c0.141,0,0.28,0,0.42,0c0-0.699,0-1.398,0-2.097
		c0.14,0,0.28,0,0.42,0c0-0.979,0-1.958,0-2.937c0.14,0,0.28,0,0.418,0c0.141-0.979,0.28-1.958,0.421-2.937c0.14,0,0.279,0,0.42,0
		c0-0.56,0-1.118,0-1.678c0.139,0,0.278,0,0.419,0c0-0.28,0-0.56,0-0.839c0.14,0,0.279,0,0.42,0
		c0.138-1.679,0.278-3.356,0.418-5.033c0.141,0,0.28,0,0.42,0c0-0.56,0-1.12,0-1.679c0.141,0,0.28,0,0.42,0c0-0.42,0-0.839,0-1.258
		c0.14,0,0.28,0,0.42,0c0-0.42,0-0.84,0-1.259c0.138,0,0.278,0,0.418,0c0.28-1.679,0.56-3.356,0.84-5.034c0.14,0,0.28,0,0.42,0
		c0-0.84,0-1.678,0-2.518c0.141,0,0.278,0,0.418,0c0.42-1.538,0.84-3.076,1.26-4.613c0.837-0.252,0.36,0.058,0.839-0.42
		c0.42,0,0.839,0,1.258,0c0,0.14,0,0.28,0,0.42c1.103,1.162,0.283,2.745,0.84,4.613c0.14,0,0.28,0,0.42,0c0,0.7,0,1.399,0,2.099
		c0.139,0,0.279,0,0.417,0c0,1.118,0,2.237,0,3.354c0.141,0,0.28,0,0.42,0c0,0.979,0,1.958,0,2.938c0.141,0,0.28,0,0.421,0
		c0,0.839,0,1.678,0,2.517c0.14,0,0.279,0,0.42,0c0,1.258,0,2.517,0,3.775c0.14,0,0.279,0,0.419,0c0,0.56,0,1.119,0,1.678
		c0.139,0,0.278,0,0.419,0c0,0.42,0,0.839,0,1.259c0.14,0,0.279,0,0.42,0c0.14,1.118,0.279,2.237,0.42,3.355c0.14,0,0.279,0,0.42,0
		c0,1.398,0,2.797,0,4.195c0.138,0,0.278,0,0.418,0c0,0.698,0,1.397,0,2.097c0.14,0,0.28,0,0.42,0c0,0.839,0,1.679,0,2.517
		c0.14,0,0.28,0,0.42,0c0,0.42,0,0.839,0,1.259c0.14,0,0.28,0,0.42,0c0,0.42,0,0.84,0,1.259c0.14,0,0.278,0,0.418,0
		c0,0.838,0,1.678,0,2.516c0.14,0,0.28,0,0.42,0c0,0.7,0,1.399,0,2.099c0.141,0,0.28,0,0.42,0c0,0.559,0,1.118,0,1.678
		c0.141,0,0.28,0,0.42,0c0,0.979,0,1.958,0,2.937c0.141,0,0.278,0,0.418,0C301.323,447.898,301.245,447.944,301.004,448.586z
		 M327.431,403.282c-2.937,0-5.873,0-8.809,0c-0.383,4.179,0,9.111,0,14.262c0,10.486,0,20.976,0,31.462c-1.119,0-2.237,0-3.357,0
		c-0.14-0.784-0.418-0.84-0.418-0.84c0-0.978,0-1.958,0-2.936c-0.141,0-0.28,0-0.42,0c0-0.561,0-1.119,0-1.679
		c-0.141,0-0.28,0-0.42,0c0.14-0.42,0.279-0.838,0.42-1.258c0-0.559,0-1.118,0-1.678c-0.141,0-0.28,0-0.42,0
		c0-1.958,0-3.915,0-5.873c0.14,0,0.279,0,0.42,0c0-0.14,0-0.28,0-0.419c-0.141,0-0.28,0-0.42,0c0-0.699,0-1.399,0-2.097
		c-0.041-5.056,0.041-10.321,0-14.264c0-3.355,0-6.712,0-10.067c0.14-0.419,0.279-0.84,0.42-1.258c-0.141,0-0.28,0-0.42,0
		c0-0.979,0-1.958,0-2.937c-0.141,0-0.28,0-0.42,0c0-0.141,0-0.279,0-0.42c-0.698,0.141-1.397,0.279-2.096,0.42
		c-1.958,0-3.916,0-5.874,0c0-0.141,0-0.279,0-0.42c-0.14,0-0.279,0-0.42,0c0,0.141,0,0.279,0,0.42c-0.279,0-0.558,0-0.838,0
		c-0.367-0.959-0.445-1.855-0.42-3.356c0.838-0.14,1.678-0.28,2.518-0.419c0-0.141,0-0.279,0-0.42
		c0.698,0.141,1.398,0.279,2.097,0.42c0-0.141,0-0.279,0-0.42c1.397,0,2.797,0,4.194,0c0-0.14,0-0.28,0-0.419
		c2.19-0.599,4.312,1.348,5.874,0c2.915-0.021,7.014-0.402,9.228,0.419c0,0.699,0,1.398,0,2.098c0.14,0,0.28,0,0.42,0
		C328.011,402.622,327.827,402.527,327.431,403.282z M335.821,349.17c-0.303-1.48-0.855-3.296-1.261-4.614
		c-0.138-1.398-0.278-2.797-0.418-4.195c-0.14,0-0.279,0-0.42,0c-0.14-1.816-0.279-3.635-0.42-5.453c-0.14,0-0.28,0-0.42,0
		c-0.418-2.236-0.838-4.475-1.258-6.711c-0.56-0.141-1.118-0.28-1.678-0.42c0-0.14,0-0.28,0-0.42
		c-0.705-0.159-0.743,0.399-0.839,0.42c-0.839,0-1.678,0-2.517,0c-4.491,0.022-8.821,0.328-11.327,0c0,0.14,0,0.279,0,0.42
		c-0.139,0-0.278,0-0.418,0c-0.932,2.238-1.369,5.59-2.099,7.971c0,0.839,0,1.677,0,2.516c-0.14,0-0.279,0-0.42,0
		c0,0.839,0,1.678,0,2.518c-0.139,0-0.279,0-0.419,0c0,0.698,0,1.397,0,2.097c-0.14,0-0.278,0-0.418,0c0,1.259,0,2.518,0,3.775
		c-0.141,0-0.28,0-0.421,0c-0.14,0.839-0.279,1.678-0.42,2.517c-1.708,0.117-8.327,1.205-9.646,0
		c-0.483-0.712,0.251-5.308,0.418-7.131c0.28-1.817,0.56-3.636,0.84-5.452c0.141,0,0.28,0,0.42,0c0-0.979,0-1.958,0-2.938
		c0.141,0,0.28,0,0.419,0c0-0.559,0-1.118,0-1.678c0.139,0,0.279,0,0.419,0c0.14-1.259,0.28-2.517,0.42-3.775c0.14,0,0.28,0,0.42,0
		c0-0.979,0-1.958,0-2.936c0.14,0,0.28,0,0.418,0c0-1.119,0-2.238,0-3.357c0.141,0,0.28,0,0.42,0c0-0.979,0-1.957,0-2.936
		c0.141,0,0.28,0,0.42,0c0-0.698,0-1.398,0-2.098c1.376-4.437,2.044-9.782,3.356-14.262c0-1.118,0-2.238,0-3.356
		c0.14,0,0.279,0,0.42,0c0-0.839,0-1.677,0-2.517c0.14,0,0.28,0,0.42,0c0.14-1.678,0.278-3.356,0.418-5.034c0.14,0,0.279,0,0.419,0
		c0-0.698,0-1.397,0-2.098c0.141,0,0.28,0,0.42,0c0-0.559,0-1.118,0-1.678c0.141,0,0.28,0,0.421,0c0-1.117,0-2.237,0-3.355
		c0.14,0,0.278,0,0.418,0c0-0.56,0-1.119,0-1.678c0.14,0,0.28,0,0.419,0c0-0.559,0-1.119,0-1.678c0.141,0,0.28,0,0.42,0
		c0-0.559,0-1.119,0-1.678c0.141,0,0.28,0,0.421,0c0-0.699,0-1.398,0-2.098c0.14,0,0.279,0,0.418,0c0-0.419,0-0.839,0-1.258
		c0.14,0,0.279,0,0.42,0c0.14-2.237,0.279-4.475,0.42-6.712c0.14,0,0.279,0,0.42,0c0-0.839,0-1.678,0-2.517c0.14,0,0.279,0,0.418,0
		c0-0.839,0-1.678,0-2.517c0.14,0,0.28,0,0.42,0c0-0.559,0-1.119,0-1.677c0.14,0,0.28,0,0.42,0c0-0.7,0-1.398,0-2.099
		c0.14,0,0.28,0,0.42,0c0-0.418,0-0.838,0-1.257c0.14,0,0.28,0,0.42,0c0-0.979,0-1.958,0-2.937c0.139,0,0.278,0,0.418,0
		c0-0.699,0-1.398,0-2.097c0.141,0,0.28,0,0.42,0c0.14-0.979,0.28-1.958,0.42-2.937c0.14,0,0.28,0,0.42,0
		c0.139-0.28,0.278-0.559,0.419-0.839c3.425-0.021,6.109-0.493,8.809,0c0.14,0.559,0.28,1.119,0.42,1.678c0.14,0,0.28,0,0.42,0
		c0.14,1.397,0.279,2.796,0.419,4.194c0.139,0,0.278,0,0.419,0c0,0.42,0,0.839,0,1.259c0.14,0,0.279,0,0.42,0
		c0,0.838,0,1.678,0,2.517c0.14,0,0.279,0,0.42,0c0,0.839,0,1.677,0,2.517c0.14,0,0.279,0,0.42,0c0,0.558,0,1.118,0,1.677
		c0.14,0,0.278,0,0.418,0c0.14,2.237,0.28,4.475,0.42,6.711c1.296,4.333,1.623,9.838,2.936,14.264c0,0.979,0,1.958,0,2.936
		c0.141,0,0.28,0,0.42,0c0,0.978,0,1.958,0,2.936c0.141,0,0.28,0,0.421,0c0,0.979,0,1.958,0,2.937c0.14,0,0.279,0,0.42,0
		c0,0.839,0,1.677,0,2.517c0.14,0,0.278,0,0.417,0c0,0.56,0,1.119,0,1.677c0.14,0,0.28,0,0.42,0c0,1.12,0,2.238,0,3.357
		c0.14,0,0.28,0,0.42,0c0,0.559,0,1.118,0,1.677c0.141,0,0.28,0,0.42,0c0.141,1.259,0.28,2.519,0.42,3.776c0.138,0,0.278,0,0.418,0
		c0,0.698,0,1.398,0,2.098c0.14,0,0.28,0,0.42,0c0,0.418,0,0.839,0,1.258c0.14,0,0.28,0,0.42,0c0.42,3.636,0.838,7.271,1.258,10.906
		c0.141,0,0.28,0,0.42,0c0,0.56,0,1.119,0,1.679c0.141,0,0.28,0,0.42,0c0,0.419,0,0.839,0,1.258c0.141,0,0.278,0,0.419,0
		c0,0.84,0,1.679,0,2.517c0.14,0,0.279,0,0.42,0c0,0.699,0,1.398,0,2.098c0.14,0,0.279,0,0.42,0c0,1.119,0,2.238,0,3.356
		c0.14,0,0.279,0,0.42,0c0,0.559,0,1.117,0,1.677c0.14,0,0.278,0,0.418,0c0,0.84,0,1.68,0,2.519c0.14,0,0.279,0,0.419,0
		c0,0.838,0,1.677,0,2.516c0.141,0,0.28,0,0.421,0c0,0.979,0,1.958,0,2.937c0.14,0,0.28,0,0.42,0
		c0.28,2.098,0.559,4.195,0.837,6.292C343.011,349.173,339.695,349.215,335.821,349.17z M344.21,199.836
		c-0.108-0.054-1.591-2.328-1.678-2.518c0-0.419,0-0.839,0-1.258c-0.141,0-0.28,0-0.42,0c0-0.28,0-0.56,0-0.839
		c-0.28-0.14-0.561-0.28-0.839-0.42c0-0.279,0-0.559,0-0.838c-0.14,0-0.279,0-0.42,0c0-0.419,0-0.839,0-1.259
		c-0.14,0-0.279,0-0.42,0c0-0.419,0-0.838,0-1.258c-0.14,0-0.279,0-0.42,0c0-0.28,0-0.559,0-0.839c-0.14,0-0.279,0-0.418,0
		c0-0.419,0-0.839,0-1.258c-0.14,0-0.279,0-0.42,0c-0.14-0.56-0.28-1.119-0.42-1.679c-0.14,0-0.28,0-0.42,0c0-0.418,0-0.839,0-1.257
		c-0.14,0-0.28,0-0.418,0c0-0.28,0-0.559,0-0.839c-0.14,0-0.279,0-0.42,0c-0.14-0.979-0.279-1.958-0.42-2.937c-0.14,0-0.28,0-0.42,0
		c-0.14-0.559-0.28-1.119-0.42-1.678c-0.139,0-0.277,0-0.417,0c-0.141-0.699-0.28-1.398-0.42-2.097c-0.141,0-0.28,0-0.421,0
		c-0.279-1.259-0.558-2.518-0.838-3.776c-0.14,0-0.279,0-0.42,0c-0.14-0.699-0.279-1.399-0.42-2.098c-0.14,0-0.28,0-0.42,0
		c0-0.279,0-0.559,0-0.839c-0.14,0-0.278,0-0.418,0c0-0.419,0-0.839,0-1.258c-0.28-0.14-0.56-0.28-0.84-0.419
		c0-0.28,0-0.559,0-0.839c-0.14,0-0.28,0-0.42,0c0-0.419,0-0.839,0-1.258c-0.14,0-0.278,0-0.418,0c0-0.28,0-0.56,0-0.84
		c-0.141,0-0.28,0-0.42,0c0-0.279,0-0.559,0-0.839c-0.141,0-0.28,0-0.42,0c-0.28-0.839-0.561-1.678-0.839-2.517
		c-0.14,0-0.279,0-0.419,0c-0.42-1.257-0.84-2.516-1.259-3.774c-0.279-0.14-0.559-0.28-0.839-0.42c0-0.559,0-1.119,0-1.678
		c-0.14,0-0.28,0-0.42,0c0-0.28,0-0.559,0-0.839c-0.14,0-0.28,0-0.42,0c-0.139-0.839-0.278-1.678-0.419-2.517
		c-0.279-0.14-0.56-0.279-0.839-0.42c0-0.698,0-1.397,0-2.097c1.584-0.094,3.33-0.791,4.195,0c1.317-0.041,4.004-0.326,4.613,0.419
		c0.141,0.699,0.28,1.399,0.42,2.098c0.141,0,0.28,0,0.42,0c0,0.28,0,0.56,0,0.839c0.14,0,0.28,0,0.418,0
		c0.141,0.839,0.28,1.678,0.42,2.517c0.141,0,0.28,0,0.421,0c0.14,0.839,0.279,1.678,0.42,2.517c0.14,0,0.278,0,0.417,0
		c0.14,0.559,0.28,1.118,0.42,1.678c0.14,0,0.28,0,0.42,0c0,0.42,0,0.839,0,1.259c0.141,0,0.28,0,0.42,0c0,0.279,0,0.559,0,0.838
		c0.141,0,0.28,0,0.42,0c0,0.419,0,0.839,0,1.258c0.138,0,0.278,0,0.418,0c0.14,0.56,0.28,1.119,0.42,1.678c0.14,0,0.28,0,0.42,0
		c0.141,0.84,0.28,1.679,0.42,2.518c0.139,0,0.278,0,0.418,0c0,0.28,0,0.559,0,0.839c0.141,0,0.28,0,0.42,0
		c0.141,0.979,0.28,1.958,0.42,2.937c0.141,0,0.28,0,0.42,0c0,0.419,0,0.838,0,1.258c0.141,0,0.278,0,0.419,0
		c0,0.28,0,0.559,0,0.839c0.14,0,0.279,0,0.42,0c0,0.419,0,0.839,0,1.257c0.14,0,0.279,0,0.42,0c0,0.42,0,0.839,0,1.259
		c0.279,0.14,0.56,0.28,0.838,0.42c0.14,0.699,0.279,1.398,0.419,2.097c0.141,0,0.28,0,0.421,0c0.614,1.498,0.891,2.937,0.838,5.034
		c0.473,0.359,0.066-0.056,0.419,0.42c0.42,0,0.841,0,1.259,0c0-0.141,0-0.28,0-0.42c0.95-0.852,0.314-0.93,0.84-2.097
		c0.14,0,0.279,0,0.42,0c0-0.28,0-0.559,0-0.839c0.14,0,0.279,0,0.42,0c0-0.42,0-0.839,0-1.259c0.138,0,0.278,0,0.418,0
		c0.28-1.258,0.56-2.517,0.84-3.776c0.14,0,0.28,0,0.42,0c0.278-0.839,0.559-1.677,0.838-2.517c0.14,0,0.28,0,0.42,0
		c0.561-1.677,1.118-3.355,1.678-5.033c0.28-0.14,0.561-0.28,0.839-0.419c0-0.56,0-1.119,0-1.678c0.14,0,0.279,0,0.42,0
		c0.279-0.84,0.559-1.679,0.839-2.518c0.14,0,0.28,0,0.418,0c0-0.279,0-0.559,0-0.839c0.141,0,0.28,0,0.42,0
		c0-0.419,0-0.839,0-1.258c0.141,0,0.28,0,0.42,0c0-0.28,0-0.56,0-0.839c0.28-0.14,0.561-0.28,0.838-0.42c0-0.279,0-0.56,0-0.839
		c0.141,0,0.28,0,0.421,0c0.14-0.839,0.279-1.678,0.42-2.517c0.14,0,0.279,0,0.42,0c0-0.28,0-0.559,0-0.839
		c0.279-0.14,0.558-0.28,0.838-0.419c0-0.279,0-0.559,0-0.839c0.14,0,0.28,0,0.42,0c0-0.279,0-0.559,0-0.839c0.14,0,0.279,0,0.419,0
		c0-0.419,0-0.839,0-1.258c0.141,0,0.28,0,0.421,0c0-0.279,0-0.559,0-0.838c0.138,0,0.278,0,0.418,0c0-0.28,0-0.56,0-0.839
		c0.14,0,0.28,0,0.42,0c0.141-0.42,0.28-0.839,0.419-1.259c2.468-0.021,5.75-0.25,7.552,0.42c-0.106,3.657-1.406,5.459-2.518,7.97
		c0,0.419,0,0.839,0,1.258c-0.14,0-0.28,0-0.42,0c-0.14,0.56-0.28,1.119-0.42,1.678c-0.139,0-0.278,0-0.418,0
		c0,0.42,0,0.838,0,1.258c-0.141,0-0.28,0-0.42,0c0,0.28,0,0.559,0,0.839c-0.141,0-0.28,0-0.42,0c0,0.419,0,0.839,0,1.258
		c-0.141,0-0.28,0-0.42,0c0,0.28,0,0.56,0,0.839c-0.141,0-0.278,0-0.419,0c0,0.42,0,0.84,0,1.259c-0.14,0-0.279,0-0.419,0
		c-0.14,0.559-0.28,1.119-0.42,1.678c-0.14,0-0.28,0-0.42,0c0,0.28,0,0.559,0,0.839c-0.141,0-0.278,0-0.419,0
		c0,0.42,0,0.839,0,1.258c-0.14,0-0.279,0-0.42,0c0,0.279,0,0.559,0,0.839c-0.139,0-0.278,0-0.419,0
		c-0.14,0.559-0.28,1.118-0.42,1.678c-0.14,0-0.28,0-0.418,0c-0.141,0.839-0.28,1.678-0.421,2.517c-0.14,0-0.279,0-0.419,0
		c0,0.28,0,0.559,0,0.839c-0.14,0-0.28,0-0.42,0c-0.141,0.699-0.28,1.398-0.418,2.098c-0.141,0-0.28,0-0.42,0
		c-0.141,0.839-0.28,1.678-0.42,2.517c-0.141,0-0.28,0-0.42,0c-0.141,0.699-0.28,1.398-0.421,2.097c-0.138,0-0.277,0-0.418,0
		c-0.14,0.56-0.279,1.118-0.42,1.677c-0.14,0-0.279,0-0.42,0c0,0.42,0,0.839,0,1.259c-0.279,0.14-0.558,0.28-0.838,0.419
		c0,0.28,0,0.56,0,0.84c-0.14,0-0.28,0-0.42,0c0,0.279,0,0.559,0,0.839c-0.14,0-0.279,0-0.419,0c0,0.419,0,0.838,0,1.258
		c-0.141,0-0.28,0-0.42,0c0,0.28,0,0.559,0,0.839c-0.141,0-0.278,0-0.419,0c-0.14,0.839-0.28,1.678-0.42,2.517
		c-0.699,1.538-1.397,3.077-2.098,4.615c-1.513-0.042-4.223-0.33-5.034,0.42C345.327,199.836,344.77,199.836,344.21,199.836z
		 M367.699,448.586c-0.924-1.018-0.292-3.563-0.838-5.034c-0.14,0-0.28,0-0.42,0c0-0.279,0-0.56,0-0.838c-0.14,0-0.28,0-0.42,0
		c0-0.7,0-1.398,0-2.098c-0.139,0-0.278,0-0.418,0c-0.141-0.979-0.28-1.958-0.42-2.937c-0.011-0.021-0.647-0.444-0.84-0.839
		c-4.248-0.003-6.418,0.147-9.647-0.42c-0.41,0.505-1.087,0.949-1.678,1.259c-0.646,3.272-1.7,7.243-1.678,10.906
		c-1.365,0.163-2.116,0.135-3.775,0.42c0-0.14,0-0.279,0-0.42c-0.141,0-0.28,0-0.42,0c0.108-2.405,0.708-4.031,1.26-5.872
		c0.278-2.657,0.558-5.314,0.838-7.971c0.14,0,0.28,0,0.42,0c0-0.419,0-0.839,0-1.259c0.14,0,0.28,0,0.42,0c0-0.279,0-0.56,0-0.839
		c0.139,0,0.278,0,0.418,0c0-0.418,0-0.839,0-1.258c0.141,0,0.28,0,0.42,0c0-1.258,0-2.518,0-3.775c0.14,0,0.28,0,0.42,0
		c0-0.42,0-0.839,0-1.259c0.141,0,0.28,0,0.42,0c0-0.699,0-1.398,0-2.098c0.141,0,0.278,0,0.419,0c0-0.559,0-1.117,0-1.678
		c0.14,0,0.279,0,0.419,0c0-0.839,0-1.678,0-2.517c0.14,0,0.28,0,0.42,0c0-0.28,0-0.56,0-0.839c0.14,0,0.28,0,0.42,0
		c0-0.7,0-1.398,0-2.097c0.141,0,0.278,0,0.419,0c0-0.56,0-1.12,0-1.679c0.14,0,0.279,0,0.42,0c0-0.979,0-1.958,0-2.937
		c0.14,0,0.279,0,0.419,0c0-0.419,0-0.839,0-1.259c0.14,0,0.28,0,0.42,0c0-0.559,0-1.117,0-1.678c0.14,0,0.28,0,0.418,0
		c0-0.7,0-1.397,0-2.097c0.798-2.472,2.041-5.23,2.519-7.971c0.978,0,1.957,0,2.936,0c0.14,1.258,0.28,2.517,0.42,3.775
		c0.141,0,0.28,0,0.419,0c0,0.42,0,0.84,0,1.259c0.141,0,0.28,0,0.42,0c0,1.118,0,2.237,0,3.355c0.141,0,0.278,0,0.419,0
		c0,0.56,0,1.118,0,1.678c0.14,0,0.28,0,0.42,0c0,0.42,0,0.84,0,1.258c0.14,0,0.28,0,0.42,0c0.14,1.259,0.279,2.518,0.419,3.776
		c0.141,0,0.278,0,0.419,0c0.14,1.259,0.279,2.518,0.42,3.774c0.14,0,0.279,0,0.42,0c0,0.561,0,1.119,0,1.679c0.14,0,0.279,0,0.42,0
		c0.14,1.539,0.279,3.077,0.418,4.614c0.14,0,0.28,0,0.42,0c0.14,1.397,0.28,2.796,0.42,4.194c0.14,0,0.28,0,0.42,0
		c0,0.42,0,0.84,0,1.26c0.14,0,0.28,0,0.418,0c0,0.558,0,1.117,0,1.677c0.141,0,0.28,0,0.42,0c0,0.699,0,1.398,0,2.098
		c0.141,0,0.28,0,0.42,0c0,0.979,0,1.958,0,2.937c0.141,0,0.28,0,0.42,0c0.14,1.119,0.279,2.237,0.42,3.354
		c0.847,2.496,2.086,5.62,2.096,8.811C370.173,449.043,368.368,449.21,367.699,448.586z M390.771,449.006
		c-2.014-0.043-6.812-0.63-7.969,0.419c-1.656,0.042-4.964,0.414-5.873-0.419c-0.724-0.73-1.344-4.462-0.838-6.292
		c0.14,0,0.279,0,0.418,0c0-1.119,0-2.238,0-3.356c-0.643-2.31,0-5.223,0-8.391c0-6.01,0-12.024,0-18.036
		c-0.002-2.139-1.077-7.175,0-8.39c-0.019-1.915-0.068-4.152,0.42-5.453c0.84,0,1.678,0,2.518,0
		c0.763,4.124,0.389,9.876,0.42,14.682c0.139,2.656,0.277,5.313,0.418,7.97c-0.141,0-0.279,0-0.418,0c0,1.538,0,3.076,0,4.614
		c0.139,0,0.277,0,0.418,0c0,1.817,0,3.635,0,5.453c-0.141,0-0.279,0-0.418,0c-0.132,0.853,0.418,0.839,0.418,0.839
		c-0.141,1.817-0.279,3.636-0.418,5.454c0.139,0.838,0.277,1.678,0.418,2.517c-0.141,0-0.279,0-0.418,0c0,1.119,0,2.237,0,3.355
		c0.139,0,0.277,0,0.418,0c0,0.14,0,0.28,0,0.419c0.42,0,0.84,0,1.26,0c0,0.141,0,0.279,0,0.42c3.029-0.021,7.329-0.44,9.646,0.42
		C391.051,446.488,390.911,447.747,390.771,449.006z M392.449,347.911c0,0.141,0,0.28,0,0.42c-0.698,0-1.398,0-2.097,0
		c0-0.14,0-0.279,0-0.42c-1.495-0.439-1.837-0.11-2.938,0c-0.14-0.419-0.279-0.839-0.419-1.258c-0.139,0-0.278,0-0.418,0
		c0-0.28,0-0.56,0-0.84c-0.141,0-0.28,0-0.421,0c0-0.279,0-0.559,0-0.84c-0.28-0.139-0.56-0.278-0.84-0.418
		c-0.277-1.398-0.558-2.797-0.838-4.195c-0.14,0-0.279,0-0.42,0c0-0.279,0-0.559,0-0.839c-0.14,0-0.279,0-0.42,0
		c0-0.42,0-0.839,0-1.258c-0.14,0-0.278,0-0.418,0c0-0.42,0-0.84,0-1.258c-0.14,0-0.28,0-0.42,0c0-0.28,0-0.561,0-0.839
		c-0.14,0-0.28,0-0.42,0c0-0.561,0-1.119,0-1.68c-0.14,0-0.28,0-0.42,0c0-0.698,0-1.397,0-2.097c-0.14,0-0.28,0-0.418,0
		c0-0.421,0-0.839,0-1.259c-0.141,0-0.28,0-0.42,0c-0.141-0.559-0.28-1.118-0.42-1.678c-0.141,0-0.28,0-0.42,0
		c-0.141-0.978-0.279-1.958-0.418-2.936c-0.14,0-0.28,0-0.42,0c-0.14-0.839-0.28-1.679-0.42-2.518c-0.141,0-0.28,0-0.42,0
		c0-0.279,0-0.56,0-0.84c-0.141,0-0.28,0-0.42,0c-0.278-1.258-0.558-2.516-0.838-3.774c-0.14,0-0.28,0-0.42,0c0-0.28,0-0.56,0-0.839
		c-0.141,0-0.28,0-0.42,0c0-0.42,0-0.839,0-1.259c-0.139,0-0.278,0-0.418,0c-0.141-0.839-0.28-1.678-0.42-2.517
		c-0.28-0.14-0.561-0.28-0.84-0.42c-0.141-0.559-0.278-1.117-0.419-1.678c-0.279-0.14-0.56-0.278-0.84-0.419
		c-0.14-0.56-0.279-1.118-0.42-1.678c-0.838-0.699-1.678-1.398-2.515-2.098c-0.141-0.279-0.28-0.559-0.421-0.839
		c-0.279,0-0.56,0-0.838,0c-0.141-0.28-0.28-0.56-0.42-0.84c-1.36-0.686-1.084,0.653-2.098-0.838
		c-1.355,0.163-1.226,0.38-2.098,0.838c0,0.7,0,1.399,0,2.099c0.14,0,0.279,0,0.42,0c0,3.494,0,6.99,0,10.486c0.14,0,0.279,0,0.42,0
		c0,0.141,0,0.279,0,0.419c0.515,3.092-0.62,7.209,0.418,9.648c-0.06,0.59-0.327-0.166-0.418,0.42c0,1.678,0,3.356,0,5.033
		c0.003,4.786,1.147,10.196-0.42,14.263c-2.487,0.462-6.11,0.45-9.229,0.419c-0.324-1.799-0.414-4.326-0.42-6.712
		c0-1.118,0-2.237,0-3.355c-0.138,0-0.278,0-0.418,0c0-1.957,0-3.915,0-5.873c0,0-0.42,0.088-0.42-0.838
		c0-0.974,0.787-1.591,0.42-2.937c-0.14,0-0.28,0-0.42,0c0-1.119,0-2.237,0-3.355c0-4.475,0-8.95,0-13.424
		c-1.142-3.948,0.445-9.711-0.419-14.263c-0.141,0-0.28,0-0.42,0c0-0.139,0-0.278,0-0.418c0.14,0,0.279,0,0.42,0
		c0-1.538,0-3.078,0-4.615c-0.576-1.991,0.181-5.473-0.42-7.969c-0.141,0-0.278,0-0.419,0c-0.119-0.662,0.411-0.791,0.419-0.839
		c-0.141-0.839-0.278-1.678-0.419-2.517c0-2.517,0-5.034,0-7.55c-0.14,0-0.28,0-0.42,0c-0.58-2.106,0.39-4.598,0.42-7.131
		c0-2.098,0-4.195,0-6.292c0.141,0,0.278,0,0.419,0c0.118-0.706-0.396-0.728-0.419-0.839c0-0.839,0-1.678,0-2.517
		c0.141,0,0.278,0,0.419,0c-0.141-0.42-0.278-0.839-0.419-1.259c0.141-1.957,0.278-3.915,0.419-5.873
		c0.472-0.358,0.066,0.056,0.42-0.42c3.179-0.033,6.098-1.033,8.389-0.418c1.957,0,3.915,0,5.873,0c0,0.14,0,0.279,0,0.418
		c0.56,0,1.118,0,1.678,0c0,0.141,0,0.28,0,0.42c0.561,0.14,1.118,0.28,1.678,0.419c0,0.14,0,0.28,0,0.42
		c1.118,0.14,2.238,0.28,3.356,0.42c0.14,0.279,0.279,0.559,0.42,0.838c0.838,0.279,1.678,0.56,2.516,0.839
		c0.42,0.559,0.84,1.118,1.26,1.678c0.42,0,0.838,0,1.258,0c0.14,0.279,0.279,0.559,0.42,0.839c0.279,0,0.558,0,0.838,0
		c0.14,0.279,0.28,0.559,0.42,0.839c0.28,0,0.56,0,0.84,0c0.979,1.118,1.958,2.237,2.936,3.356c0.839,0.699,1.678,1.398,2.517,2.098
		c0.14,0.559,0.279,1.118,0.42,1.677c0.279,0.139,0.559,0.279,0.839,0.419c0,0.28,0,0.559,0,0.839c0.14,0,0.28,0,0.42,0
		c0.278,0.839,0.559,1.678,0.838,2.517c0.141,0,0.28,0,0.42,0c0.141,0.979,0.28,1.958,0.42,2.937c0.139,0,0.278,0,0.419,0
		c0,0.559,0,1.119,0,1.678c0.473,1.475,1.473,5.686,0.84,7.97c-0.141,0-0.28,0-0.42,0c0,1.678,0,3.356,0,5.034
		c-0.141,0-0.28,0-0.42,0c-0.141,0.838-0.28,1.677-0.419,2.516c-0.14,0-0.279,0-0.42,0c0,0.42,0,0.839,0,1.259
		c-0.279,0.14-0.56,0.279-0.84,0.419c0,0.28,0,0.56,0,0.839c-0.14,0-0.279,0-0.418,0c0,0.42,0,0.839,0,1.259c-0.14,0-0.28,0-0.42,0
		c0,0.28,0,0.559,0,0.839c-0.28,0.14-0.56,0.28-0.839,0.418c0,0.28,0,0.56,0,0.84c-0.559,0.419-1.119,0.839-1.679,1.258
		c-0.14,0.559-0.279,1.119-0.419,1.678c-0.278,0.14-0.559,0.28-0.839,0.42c-0.699,0.839-1.397,1.677-2.098,2.517
		c-2.516,0.839-5.033,1.678-7.551,2.517c0.689,1.008,0.322,0.263,1.26,0.84c0,0.139,0,0.279,0,0.418c0.28,0,0.558,0,0.838,0
		c0,0.141,0,0.281,0,0.42c0.56,0.42,1.12,0.839,1.678,1.259c0,0.279,0,0.559,0,0.84c0.279,0.139,0.56,0.278,0.84,0.418
		c0,0.28,0,0.56,0,0.84c0.42,0.28,0.838,0.56,1.258,0.839c0,0.279,0,0.56,0,0.838c0.14,0,0.28,0,0.42,0
		c0.14,0.561,0.28,1.12,0.42,1.679c0.14,0,0.278,0,0.418,0c0,0.421,0,0.838,0,1.259c0.141,0,0.28,0,0.42,0c0,0.419,0,0.839,0,1.259
		c0.141,0,0.28,0,0.42,0c0,0.279,0,0.559,0,0.838c0.141,0,0.28,0,0.42,0c0,0.42,0,0.84,0,1.259c0.141,0,0.278,0,0.418,0
		c0,0.279,0,0.56,0,0.839c0.141,0,0.28,0,0.42,0c0.28,1.259,0.561,2.518,0.841,3.776c0.14,0,0.279,0,0.418,0
		c0,0.278,0,0.559,0,0.838c0.14,0,0.279,0,0.419,0c0.14,0.979,0.28,1.958,0.42,2.937c0.14,0,0.28,0,0.42,0
		c0.14,0.56,0.28,1.118,0.419,1.679c0.14,0,0.279,0,0.42,0c0.14,0.839,0.279,1.677,0.419,2.517c0.14,0,0.28,0,0.42,0
		c0,0.278,0,0.559,0,0.839c0.28,0.14,0.559,0.279,0.838,0.419c0,0.42,0,0.839,0,1.259c0.141,0,0.28,0,0.42,0c0,0.56,0,1.118,0,1.678
		c0.141,0,0.28,0,0.42,0c0,0.28,0,0.56,0,0.84c0.141,0,0.28,0,0.42,0c0,0.418,0,0.838,0,1.257c0.139,0,0.278,0,0.419,0
		c0,0.28,0,0.561,0,0.84c0.14,0,0.279,0,0.42,0c0.14,0.84,0.279,1.679,0.42,2.517c0.14,0,0.279,0,0.42,0
		c0.14,0.559,0.278,1.119,0.418,1.678c0.14,0,0.28,0,0.42,0c0.14,0.7,0.279,1.397,0.419,2.097c0.141,0,0.28,0,0.421,0
		c0,0.421,0,0.84,0,1.259c0.14,0,0.278,0,0.418,0c0,0.28,0,0.56,0,0.84c0.14,0,0.28,0,0.42,0c0.28,1.397,0.56,2.796,0.839,4.194
		c-1.257,0.141-2.517,0.28-3.774,0.42C393.179,348.306,393.152,347.795,392.449,347.911z M411.326,449.006
		c-2.196-0.036-10.311-0.491-11.326,0.419c-1.118,0-2.237,0-3.356,0c0-0.14,0-0.28,0-0.419c-1.595-1.736-0.839-8.216-0.839-12.165
		c0-3.202,0.374-5.445,0-7.971c-0.14-0.419-0.278-0.839-0.418-1.258c0.14,0,0.278,0,0.418,0c0.062-0.544-0.652-0.692-0.418-1.678
		c0.14,0,0.278,0,0.418,0c0-2.377,0-4.754,0-7.132c0.14,0,0.28,0,0.42,0c0-0.14,0-0.28,0-0.42c-0.14,0-0.28,0-0.42,0
		c0.14-1.118,0.28-2.236,0.42-3.355c0-3.216,0-6.432,0-9.648c-0.002-1.343,0.201-3.057-0.42-3.774
		c0.098-1.807,0.259-1.422,0.839-2.517c1.508-0.007,2.385,0.052,3.356,0.419c0,8.669,0,17.34,0,26.008
		c0.002,2.224,0.543,4.671,0,5.873c0.041,0.471,0.995,2.349,0.42,3.355c-0.14,0-0.28,0-0.42,0c-0.021,2.916-0.402,7.015,0.42,9.229
		c0.698,0,1.398,0,2.098,0c0,0.14,0,0.28,0,0.419c0.715,0.128,0.715-0.39,0.839-0.419c1.154-0.272,3.251-0.062,3.774,0.419
		c1.702-0.018,3.503,0.002,4.614,0.42C411.604,446.208,411.465,447.606,411.326,449.006z M441.107,440.616c0,0.839,0,1.678,0,2.516
		c-0.138,0-0.277,0-0.418,0c-0.14,0.84-0.279,1.679-0.419,2.517c-0.141,0-0.28,0-0.421,0c-0.14,0.562-0.279,1.12-0.42,1.679
		c-0.278,0.14-0.558,0.279-0.837,0.42c-0.141,0.419-0.28,0.839-0.42,1.259c-0.561,0.139-1.119,0.279-1.679,0.419
		c0,0.14,0,0.28,0,0.419c-1.397,0-2.796,0-4.193,0c-0.84-0.699-1.68-1.397-2.519-2.097c-0.14-0.42-0.278-0.839-0.419-1.259
		c-0.42-0.278-0.838-0.559-1.258-0.84c-0.141-0.559-0.28-1.117-0.42-1.677c-0.14,0-0.28,0-0.42,0c0-0.281,0-0.56,0-0.84
		c-0.14,0-0.278,0-0.418,0c0-0.558,0-1.118,0-1.677c-0.141,0-0.28,0-0.42,0c0-0.419,0-0.839,0-1.26c-0.141,0-0.28,0-0.42,0
		c0-0.698,0-1.396,0-2.096c-0.141,0-0.28,0-0.42,0c0-1.679,0-3.356,0-5.034c-0.141,0-0.278,0-0.419,0
		c0.141-0.56,0.278-1.119,0.419-1.678c-0.141,0-0.278,0-0.419,0c-0.11-0.973,0.784-1.566,0.419-2.937c-0.141,0-0.278,0-0.419,0
		c0-2.517,0-5.034,0-7.551c0-4.324-0.745-11.187,0.419-14.682c0.14,0,0.279,0,0.42,0c0-0.42,0-0.84,0-1.258c0.14,0,0.279,0,0.42,0
		c0-0.42,0-0.839,0-1.259c0.14,0,0.279,0,0.42,0c0-0.42,0-0.839,0-1.259c0.278-0.141,0.558-0.279,0.838-0.42
		c0.7-0.979,1.398-1.958,2.097-2.936c0.141,0,0.28,0,0.421,0c0-0.14,0-0.28,0-0.42c0.418,0,0.838,0,1.258,0c0-0.14,0-0.28,0-0.42
		c1.678,0,3.355,0,5.033,0c0.7,0.979,1.398,1.958,2.099,2.938c0,0.419,0,0.838,0,1.258c0.279,0.141,0.559,0.279,0.837,0.42
		c0,0.28,0,0.56,0,0.839c0.141,0,0.28,0,0.42,0c0,0.559,0,1.118,0,1.677c0.141,0,0.28,0,0.421,0c0.43,1.381-0.323,2.871,0.419,3.776
		c0.012,1.495-0.066,2.839-0.419,3.775c-2.617-0.33-1.394-0.936-2.098-2.937c-0.141,0-0.28,0-0.42,0c0-0.559,0-1.12,0-1.679
		c-0.695-1.902-2.081-3.722-2.937-5.452c-0.838,0.14-1.678,0.28-2.516,0.419c-0.334,1.474-1.253,2.137-1.68,3.356
		c0,0.698,0,1.397,0,2.097c-0.138,0-0.278,0-0.418,0c0,0.7,0,1.399,0,2.097c-0.141,0-0.28,0-0.421,0c0,1.538,0,3.078,0,4.615
		c-0.14,0-0.278,0-0.419,0c-0.066,0.542,0.676,0.694,0.419,1.679c-0.14,0-0.278,0-0.419,0c0,1.817,0,3.635,0,5.452
		c0.141,0,0.279,0,0.419,0c-0.14,0.42-0.278,0.84-0.419,1.258c0.141,0,0.279,0,0.419,0c0,1.26,0,2.519,0,3.776
		c0.141,0,0.28,0,0.421,0c0,1.956,0,3.916,0,5.872c0.14,0,0.28,0,0.418,0c0,0.699,0,1.399,0,2.098c0.141,0,0.28,0,0.42,0
		c0.696,2.397-0.249,5.992,0.84,7.97c0.086,0.158,0.947,0.709,1.258,1.259c0.7,0,1.398,0,2.098,0c0-0.141,0-0.279,0-0.42
		c0.28,0,0.561,0,0.839,0c1.263-0.744,2.185-7.962,2.098-10.486c0.14,0,0.279,0,0.42,0c0-0.14,0-0.279,0-0.42
		c1.199,0.021,1.795,0.147,2.515,0.42c0.141,2.237,0.28,4.475,0.42,6.712C441.388,440.616,441.248,440.616,441.107,440.616z
		 M444.884,346.653c-0.019,1.198-0.146,1.796-0.418,2.517c-1.81,0.019-3.828,0.033-5.036-0.42c-0.138-1.678-0.278-3.355-0.418-5.033
		c-0.699,0.14-1.399,0.279-2.098,0.418c-0.535,2.008-1.552,1.53-2.936,2.519c-0.56,0.698-1.12,1.398-1.678,2.097
		c-0.42,0-0.84,0-1.26,0c-2.864,1.163-7.21,1.716-10.487,0.42c0-0.14,0-0.28,0-0.42c-0.279,0-0.558,0-0.838,0c0-0.14,0-0.28,0-0.419
		c-0.279,0-0.56,0-0.84,0c-0.838-0.7-1.678-1.399-2.516-2.097c0-0.281,0-0.561,0-0.84c-0.28-0.14-0.561-0.28-0.84-0.421
		c0-0.139,0-0.278,0-0.418c-0.698-0.56-1.398-1.119-2.099-1.679c0-0.279,0-0.559,0-0.838c-0.14,0-0.279,0-0.417,0
		c0-0.28,0-0.561,0-0.839c-0.279-0.141-0.56-0.281-0.84-0.42c-0.14-0.559-0.28-1.118-0.42-1.679
		c-0.28-0.139-0.559-0.279-0.838-0.419c-0.14-0.56-0.28-1.118-0.42-1.677c-0.14,0-0.28,0-0.42,0
		c-0.28-0.839-0.559-1.679-0.838-2.519c-0.141,0-0.28,0-0.42,0c-0.141-0.839-0.28-1.677-0.42-2.518c-0.141,0-0.28,0-0.42,0
		c-0.139-0.559-0.278-1.117-0.419-1.677c-0.14,0-0.279,0-0.42,0c0-0.419,0-0.839,0-1.258c-0.14,0-0.279,0-0.42,0
		c0-0.839,0-1.679,0-2.517c-0.14,0-0.279,0-0.42,0c0-0.279,0-0.56,0-0.839c-0.14,0-0.278,0-0.418,0
		c-0.14-1.259-0.279-2.519-0.419-3.776c-0.141,0-0.28,0-0.42,0c0-0.979,0-1.957,0-2.936c-0.141,0-0.28,0-0.421,0
		c-0.14-1.679-0.278-3.356-0.418-5.035c-0.141,0-0.28,0-0.419,0c0-1.257,0-2.515,0-3.775c-0.141,0-0.28,0-0.42,0
		c0-1.816,0-3.635,0-5.452c-0.141,0-0.28,0-0.42,0c-0.572-2,0.189-5.326,0.42-6.711c0-1.538,0-3.076,0-4.615c-0.141,0-0.28,0-0.42,0
		c0.14-1.258,0.279-2.517,0.42-3.774c-0.141,0-0.28,0-0.42,0c0-0.14,0-0.279,0-0.42c0.14,0,0.279,0,0.42,0c0-1.678,0-3.355,0-5.033
		c0.14,0,0.279,0,0.42,0c0-0.839,0-1.678,0-2.517c0.139,0,0.278,0,0.419,0c0-0.559,0-1.119,0-1.678c0.14,0,0.278,0,0.418,0
		c0.141-1.258,0.28-2.517,0.421-3.776c-0.018-0.088-0.574-0.14-0.421-0.839c0.141,0,0.28,0,0.421,0c0-0.419,0-0.839,0-1.258
		c0.14,0,0.279,0,0.42,0c0-0.7,0-1.399,0-2.098c0.14,0,0.279,0,0.419,0c0-0.42,0-0.839,0-1.259c0.14,0,0.278,0,0.418,0
		c0-0.419,0-0.839,0-1.258c0.141,0,0.28,0,0.42,0c0-0.839,0-1.678,0-2.517c0.141,0,0.28,0,0.42,0c0-0.28,0-0.56,0-0.839
		c0.141,0,0.28,0,0.42,0c0-0.419,0-0.838,0-1.258c0.141,0,0.28,0,0.419,0c0-0.419,0-0.839,0-1.257c0.14,0,0.279,0,0.42,0
		c0.14-0.561,0.279-1.12,0.42-1.679c0.14,0,0.279,0,0.42,0c0-0.279,0-0.559,0-0.839c0.418-0.279,0.838-0.559,1.258-0.838
		c0.14-0.7,0.28-1.399,0.42-2.097c0.279-0.141,0.558-0.28,0.838-0.42c0.14-0.559,0.28-1.118,0.42-1.678c0.14,0,0.28,0,0.42,0
		c0.592-0.743,0.974-1,1.258-2.097c1.185-0.274,1.723-0.639,2.518-1.258c0-0.14,0-0.28,0-0.419c0.558-0.14,1.118-0.28,1.678-0.42
		c0-0.14,0-0.28,0-0.42c0.28,0,0.559,0,0.838,0c0.141-0.279,0.28-0.559,0.42-0.839c1.146-0.689,2.969-0.623,4.614-0.839
		c0.279-0.139,0.56-0.279,0.839-0.418c0,0.139,0,0.279,0,0.418c0.979,0,1.958,0,2.937,0c0,0.14,0,0.28,0,0.42c0.279,0,0.56,0,0.84,0
		c1.015,0.514,1.616,1.329,2.936,1.677c0,0.28,0,0.559,0,0.839c2.641,0.562,2.509,1.99,3.775,3.775
		c0.42,0.279,0.839,0.559,1.258,0.839c0,0.279,0,0.559,0,0.839c0.42,0.279,0.84,0.559,1.259,0.838c0,0.28,0,0.559,0,0.839
		c0.14,0,0.279,0,0.42,0c0,0.419,0,0.839,0,1.257c0.279,0.141,0.559,0.28,0.839,0.42c0,0.28,0,0.559,0,0.838c0.14,0,0.28,0,0.418,0
		c0.141,0.56,0.28,1.119,0.42,1.678c0.141,0,0.28,0,0.421,0c0,0.42,0,0.839,0,1.259c0.14,0,0.279,0,0.419,0
		c0.28,1.397,0.559,2.796,0.838,4.195c0.141,0,0.28,0,0.42,0c0.013,1.494-0.065,2.838-0.42,3.775c-0.838,0-1.678,0-2.516,0
		c0,0.139,0,0.279,0,0.418c-1.514,0.042-4.223,0.33-5.033-0.418c-0.855-0.93-0.384-2.011-0.84-3.356c-0.14,0-0.28,0-0.42,0
		c0-0.559,0-1.118,0-1.678c-0.14,0-0.28,0-0.418,0c0-0.279,0-0.559,0-0.838c-0.141,0-0.28,0-0.42,0
		c-0.141-0.559-0.28-1.118-0.42-1.678c-0.279-0.14-0.56-0.28-0.84-0.419c0-0.28,0-0.56,0-0.839l-0.839-0.838
		c-0.278,0-0.559,0-0.839,0c-0.138-0.28-0.278-0.561-0.418-0.839c-0.42-0.14-0.84-0.28-1.26-0.42c0-0.14,0-0.279,0-0.419
		c-0.418-0.139-0.838-0.279-1.258-0.419c0-0.14,0-0.28,0-0.42c-0.979,0-1.958,0-2.937,0c-0.446,0.533-0.742,0.437-1.257,0.839
		c0,0.14,0,0.28,0,0.419c-0.28,0-0.561,0-0.841,0c-0.978,1.539-1.957,3.077-2.936,4.615c-0.14,0.839-0.28,1.678-0.42,2.517
		c-0.14,0-0.28,0-0.42,0c0,0.28,0,0.559,0,0.839c-0.14,0-0.28,0-0.42,0c0,0.699,0,1.397,0,2.097
		c-0.646,2.021-1.488,4.625-2.096,6.711c0,2.796,0,5.594,0,8.39c-0.14,0-0.28,0-0.42,0c-0.141,3.216-0.28,6.432-0.42,9.648
		c0.14,1.119,0.279,2.238,0.42,3.356c-0.141,0-0.28,0-0.42,0c0,2.375,0,4.754,0,7.131c0.14,0,0.279,0,0.42,0
		c0.14,2.098,0.28,4.195,0.42,6.291c0.14,0,0.277,0,0.418,0c0,1.818,0,3.637,0,5.454c0.14,0,0.279,0,0.42,0c0,0.419,0,0.84,0,1.259
		c0.14,0,0.279,0,0.42,0c0,0.698,0,1.398,0,2.097c0.14,0,0.279,0,0.42,0c0,0.56,0,1.119,0,1.679c0.14,0,0.278,0,0.418,0
		c0,0.559,0,1.118,0,1.678c0.14,0,0.28,0,0.42,0c0,0.279,0,0.559,0,0.838c0.14,0,0.28,0,0.42,0c0,0.7,0,1.398,0,2.099
		c0.14,0,0.28,0,0.42,0c0,0.419,0,0.839,0,1.258c1.132,2.929,2.76,7.56,5.872,8.39c0,0.14,0,0.28,0,0.419c1.119,0,2.237,0,3.355,0
		c0.14-0.279,0.28-0.558,0.42-0.838c0.7-0.141,1.398-0.28,2.097-0.42c0-0.14,0-0.279,0-0.42c0.28-0.139,0.561-0.279,0.839-0.418
		c0.141-0.421,0.28-0.839,0.42-1.26c0.141,0,0.28,0,0.42,0c0.07-2.912,0.99-4.813,1.678-7.131c0-0.979,0-1.958,0-2.936
		c0.993-3.462,0.78-10.088,0-14.262c-3.072-0.005-6.32-0.198-8.81-0.421c0-1.118,0-2.237,0-3.355c-0.14,0-0.279,0-0.419,0
		c0.14-0.84,0.279-1.678,0.419-2.518c-0.14,0-0.279,0-0.419,0c0-1.117,0-2.238,0-3.355c0.14,0,0.279,0,0.419,0
		c1.068-1.008,3.758-0.838,5.874-0.839c3.075,0,6.151,0,9.227,0c0-0.14,0-0.28,0-0.419c1.764-0.504,4.237,0.182,5.454,0.419
		c-0.14,1.817-0.28,3.636-0.418,5.454c0.074,1.035,0.505,1.523,0.418,2.935c-0.14,0.561-0.28,1.12-0.418,1.679
		c0.828,5.153,0.418,12.18,0.418,18.038c0,2.935,0,5.872,0,8.809c-0.14,0-0.28,0-0.418,0c-0.133,0.853,0.418,0.839,0.418,0.839
		C445.233,340.237,445.278,346.2,444.884,346.653z M445.724,199.417c-1.479-4.028-0.84-8.136-0.84-13.004c0-2.517,0-5.034,0-7.55
		c0.14,0,0.28,0,0.42,0c-0.14-1.259-0.28-2.518-0.42-3.776c0.728-2.687,0.42-7.109,0.42-10.487c0-4.542,0.225-9.496,0.42-13.423
		c0.56,0,1.118,0,1.678,0c0-0.141,0-0.28,0-0.419c2.244-0.021,5.114-0.177,6.712,0.419c0.026,6.114,0.779,13.937-0.421,19.296
		c0.141,0.698,0.28,1.398,0.421,2.097c-0.141,0-0.28,0-0.421,0c-0.514,2.278-0.035,6.35,0.421,7.97c0,2.237,0,4.475,0,6.712
		c-0.1,0.584-0.446-0.174-0.421,0.418c0.141,0,0.28,0,0.421,0c0.521,2.785-0.117,6.451,0.42,8.81c0,0.56,0,1.119,0,1.678
		c-0.141,0-0.28,0-0.42,0c-0.141,0.42-0.28,0.839-0.421,1.259c-2.096,0.14-4.193,0.279-6.291,0.42c0-0.141,0-0.28,0-0.42
		C446.842,199.417,446.283,199.417,445.724,199.417z M464.18,431.807c0,1.538,0,3.077,0,4.614c-0.14,0-0.279,0-0.418,0
		c0,0.42,0,0.84,0,1.259c-0.14,0-0.28,0-0.42,0c-0.14,1.678-0.28,3.356-0.42,5.034c-0.777,2.307-3.508,6.513-5.873,7.13
		c0,0.141,0,0.279,0,0.421c-1.118-0.28-2.236-0.56-3.356-0.84c0-0.14,0-0.28,0-0.419c-0.279,0-0.558,0-0.838,0
		c-0.84-0.979-1.678-1.958-2.518-2.938c0-0.279,0-0.559,0-0.838c-0.14,0-0.28,0-0.42,0c0-0.42,0-0.84,0-1.259
		c-0.139,0-0.277,0-0.418,0c0-0.56,0-1.119,0-1.678c-0.14,0-0.28,0-0.42,0c0-0.28,0-0.559,0-0.839c-0.14,0-0.28,0-0.42,0
		c0-1.259,0-2.518,0-3.775c-0.141,0-0.28,0-0.42,0c0-0.839,0-1.679,0-2.518c-0.141,0-0.278,0-0.418,0c0-2.517,0-5.032,0-7.55
		c-0.001-0.008-0.628-0.34-0.42-1.259c0.141,0,0.28,0,0.42,0c0.603-2.481-0.13-5.99,0.418-7.971c0.14-2.236,0.279-4.474,0.42-6.711
		c0.14,0,0.28,0,0.42,0c0-0.84,0-1.678,0-2.517c0.14,0,0.28,0,0.42,0c0-0.559,0-1.119,0-1.678c0.141,0,0.279,0,0.418,0
		c0-0.699,0-1.398,0-2.099c0.14,0,0.28,0,0.42,0c0.14-0.559,0.28-1.118,0.42-1.677c0.14,0,0.28,0,0.42,0c0-0.279,0-0.559,0-0.839
		c0.838-0.699,1.678-1.398,2.516-2.098c0-0.14,0-0.28,0-0.42c0.938-0.551,1.146,0.211,2.098-0.839
		c2.346,0.12,3.034,0.944,4.614,1.679c0.336,1.511,1.244,2.887,1.678,4.193c0,0.84,0,1.678,0,2.518c0.14,0,0.28,0,0.42,0
		c0,0.28,0,0.56,0,0.839c0.14,0,0.279,0,0.42,0c0,0.42,0,0.839,0,1.259c0.14,0,0.28,0,0.42,0c0.14,3.075,0.28,6.152,0.42,9.229
		C464.68,422.482,464.182,427.824,464.18,431.807z M488.509,442.714c-0.398,1.264-1.333,2.291-1.678,3.774
		c-1.198,0.304-2.806,1.56-3.355,2.518c-2.649,0.175-5.821,0.938-7.55-0.84c-2.767-1.563-4.644-7.391-4.614-11.745
		c0.839-0.14,1.678-0.279,2.517-0.42c1.237,3.135,1.951,6.685,4.194,8.81c0.14,0.279,0.28,0.56,0.42,0.838
		c0.314,0.202,2.226,0.673,2.936,0.42c1.12-0.979,2.237-1.957,3.357-2.937c0.138-1.257,0.278-2.516,0.418-3.774
		c-0.14,0-0.28,0-0.418,0c0-0.699,0-1.397,0-2.097c-0.14,0-0.28,0-0.42,0c-0.14-0.56-0.28-1.119-0.42-1.679c-0.14,0-0.28,0-0.42,0
		c0-0.42,0-0.839,0-1.258c-0.14,0-0.28,0-0.42,0c0-0.56,0-1.119,0-1.679c-0.139,0-0.278,0-0.418,0
		c-0.14-0.559-0.279-1.119-0.42-1.679c-0.28-0.14-0.56-0.279-0.84-0.418c0-0.279,0-0.561,0-0.839c-0.139,0-0.278,0-0.419,0
		c-0.139-0.84-0.278-1.679-0.419-2.518c-0.14,0-0.279,0-0.42,0c0-0.279,0-0.559,0-0.839c-0.14,0-0.279,0-0.42,0
		c0-0.419,0-0.839,0-1.258c-0.559-0.42-1.118-0.84-1.678-1.26c-0.14-0.559-0.278-1.118-0.418-1.677c-0.141,0-0.28,0-0.42,0
		c-0.28-0.84-0.561-1.679-0.84-2.517c-0.141,0-0.28,0-0.419,0c0-0.42,0-0.84,0-1.26c-0.14,0-0.279,0-0.42,0c0-0.278,0-0.559,0-0.839
		c-0.14,0-0.279,0-0.419,0c0-0.418,0-0.838,0-1.258c-0.141,0-0.28,0-0.42,0c0-0.419,0-0.839,0-1.259c-0.141,0-0.28,0-0.419,0
		c0-0.279,0-0.559,0-0.838c-0.14,0-0.28,0-0.42,0c0-0.42,0-0.84,0-1.259c-0.14,0-0.28,0-0.419,0c-0.14-1.259-0.28-2.518-0.42-3.775
		c-0.182-0.603-0.81-2.542-0.42-3.776c0.84-1.538,1.679-3.076,2.518-4.613c0.279,0,0.56,0,0.839,0c0-0.14,0-0.28,0-0.42
		c0.278,0,0.559,0,0.839,0c0-0.14,0-0.28,0-0.419c1.267-0.615,0.768,0.412,1.678-0.839c4.438-0.105,4.807,1.41,6.293,4.194
		c0.138,0,0.278,0,0.418,0c0,0.279,0,0.559,0,0.84c0.141,0,0.28,0,0.42,0c0,0.559,0,1.117,0,1.677
		c0.89,2.223,1.777,3.653,1.679,7.132c-0.7,0-1.398,0-2.099,0c-0.525-2.698-1.895-7.557-3.775-8.809
		c-1.211-0.9-3.169,1.052-4.193,1.677c-0.321,1.958-0.472,5.932,0.42,7.971c0.14,0,0.278,0,0.418,0c0,0.279,0,0.559,0,0.839
		c0.14,0,0.28,0,0.42,0c0,0.278,0,0.56,0,0.839c0.28,0.141,0.56,0.279,0.84,0.42c0,0.279,0,0.56,0,0.839c0.14,0,0.278,0,0.418,0
		c0,0.279,0,0.559,0,0.838c0.141,0,0.28,0,0.42,0c0.141,0.699,0.28,1.399,0.42,2.099c0.28,0.139,0.56,0.279,0.838,0.419
		c0.14,0.419,0.28,0.839,0.42,1.258c0.14,0,0.28,0,0.42,0c0.141,0.699,0.28,1.398,0.42,2.099c0.14,0,0.279,0,0.418,0
		c0,0.279,0,0.559,0,0.838c0.14,0,0.28,0,0.42,0c0.14,0.56,0.28,1.118,0.42,1.679c0.14,0,0.28,0,0.42,0
		c0.42,1.397,0.838,2.796,1.258,4.195c0.141,0,0.28,0,0.42,0c0.141,0.558,0.28,1.117,0.42,1.677c0.139,0,0.278,0,0.418,0
		c0,0.56,0,1.118,0,1.678c0.141,0,0.28,0,0.421,0c0,0.42,0,0.84,0,1.259c0.14,0,0.279,0,0.42,0c0,0.559,0,1.118,0,1.678
		C488.095,437.674,489.22,440.473,488.509,442.714z M489.77,338.683c0,0.28,0,0.56,0,0.839c-0.141,0-0.28,0-0.42,0
		c0,0.28,0,0.56,0,0.839c-0.141,0-0.28,0-0.42,0c0,0.279,0,0.559,0,0.84c-0.141,0-0.28,0-0.421,0c0,0.278,0,0.559,0,0.839
		c-0.278,0.14-0.558,0.279-0.837,0.419c0,0.28,0,0.56,0,0.839c-0.561,0.42-1.12,0.838-1.679,1.259c0,0.14,0,0.279,0,0.418
		c-0.84,0.281-1.678,0.561-2.518,0.84c-0.28,0.421-0.559,0.84-0.838,1.259c-0.56,0.141-1.12,0.279-1.679,0.42
		c-0.278,0.419-0.559,0.839-0.839,1.258c-0.56,0-1.118,0-1.678,0c0,0.14,0,0.28,0,0.42c-0.838,0-1.678,0-2.517,0
		c0,0.14,0,0.279,0,0.419c-1.27,0.362-5.006-0.836-5.453-1.258c-1.865,0.012-2.846-0.01-3.775-0.839
		c-0.141-0.279-0.28-0.561-0.42-0.839c-0.42-0.141-0.838-0.28-1.258-0.419c-0.141-0.421-0.28-0.84-0.421-1.261
		c-0.698-0.559-1.396-1.117-2.097-1.677c0-0.279,0-0.559,0-0.839c-0.28-0.14-0.558-0.279-0.838-0.419
		c-0.42-1.259-0.84-2.518-1.26-3.775c-0.139,0-0.278,0-0.418,0c0-0.28,0-0.56,0-0.84c-0.141,0-0.28,0-0.42,0
		c-0.141-0.839-0.28-1.678-0.42-2.517c-0.141,0-0.28,0-0.42,0c0-0.42,0-0.839,0-1.259c-0.141,0-0.278,0-0.419,0
		c0-0.279,0-0.559,0-0.838c-0.14,0-0.279,0-0.42,0c0-0.56,0-1.118,0-1.679c-0.14,0-0.279,0-0.42,0c0-0.419,0-0.839,0-1.258
		c-0.14,0-0.279,0-0.419,0c0-0.56,0-1.119,0-1.678c-0.14,0-0.278,0-0.418,0c0-0.56,0-1.119,0-1.678c-0.141,0-0.28,0-0.421,0
		c0-1.538,0-3.077,0-4.615c-1.097-3.738-0.998-9.183-2.097-13.003c0-2.237,0-4.475,0-6.712c-0.977-3.447-0.825-11.399,0-15.102
		c0.223-1.006-0.433-1.096-0.421-1.677c0-0.14,0-0.28,0-0.42c0.141,0,0.28,0,0.421,0c0-1.398,0-2.797,0-4.195c0.14,0,0.279,0,0.42,0
		c0-1.258,0-2.517,0-3.776c0.14,0,0.279,0,0.42,0c0.138-1.678,0.277-3.356,0.417-5.033c0.14,0,0.28,0,0.42,0c0-0.42,0-0.839,0-1.259
		c0.141,0,0.28,0,0.42,0c0-0.419,0-0.839,0-1.258c0.141,0,0.28,0,0.421,0c0-0.42,0-0.839,0-1.259c0.14,0,0.278,0,0.418,0
		c0-0.419,0-0.838,0-1.258c0.14,0,0.279,0,0.419,0c0-0.28,0-0.56,0-0.839c0.141,0,0.28,0,0.42,0c0-0.419,0-0.838,0-1.258
		c0.141,0,0.28,0,0.42,0c0.278-1.257,0.559-2.517,0.839-3.776c0.14,0,0.279,0,0.42,0c0-0.279,0-0.559,0-0.838
		c0.279-0.139,0.56-0.28,0.838-0.419c0-0.28,0-0.559,0-0.839c0.14,0,0.279,0,0.42,0c0.28-0.838,0.56-1.678,0.84-2.517
		c0.28-0.14,0.558-0.28,0.838-0.42c0-0.279,0-0.559,0-0.839c0.436-0.545,1.529-0.457,2.097-0.839
		c0.28-0.419,0.561-0.839,0.841-1.258c0.698-0.14,1.397-0.279,2.096-0.419c0-0.14,0-0.28,0-0.419c0.28,0,0.56,0,0.84,0
		c0-0.14,0-0.28,0-0.42c0.698,0,1.398,0,2.098,0c0-0.14,0-0.28,0-0.42c0.839,0,1.678,0,2.517,0c0,0.14,0,0.28,0,0.42
		c0.14,0,0.28,0,0.42,0c0.276-0.159,0.021-0.616,0.839-0.42c0,0.14,0,0.28,0,0.42c0.839,0,1.678,0,2.517,0c0,0.14,0,0.28,0,0.42
		c0.42,0,0.84,0,1.258,0c0,0.139,0,0.279,0,0.419c0.84,0.14,1.678,0.279,2.518,0.419c0.141,0.279,0.28,0.56,0.419,0.839
		c0.559,0.139,1.119,0.28,1.679,0.419c0.279,0.42,0.558,0.839,0.838,1.259c0.28,0,0.56,0,0.84,0c0,0.14,0,0.279,0,0.419
		c0.42,0.28,0.838,0.561,1.258,0.839c0,0.28,0,0.56,0,0.839c0.28,0.14,0.561,0.279,0.84,0.42c0,0.279,0,0.559,0,0.838
		c0.278,0.14,0.559,0.28,0.839,0.419c0.14,0.56,0.279,1.118,0.42,1.677c0.14,0,0.279,0,0.42,0c0,0.28,0,0.561,0,0.839
		c0.139,0,0.277,0,0.417,0c0.28,0.84,0.561,1.679,0.841,2.517c0.14,0,0.279,0,0.42,0c0.277,1.538,0.557,3.076,0.837,4.614
		c0.141,0,0.28,0,0.42,0c0,0.559,0,1.118,0,1.678c0.141,0,0.28,0,0.421,0c0,0.42,0,0.838,0,1.259c0.14,0,0.279,0,0.418,0
		c0.14,1.257,0.279,2.517,0.419,3.776c0.141,0,0.28,0,0.42,0c0,0.699,0,1.397,0,2.097c0.141,0,0.28,0,0.42,0
		c0,1.538,0,3.076,0,4.614c0.141,0,0.28,0,0.419,0c0,1.538,0,3.077,0,4.614c0.14,0,0.279,0,0.42,0c0,0.978,0,1.958,0,2.936
		c0.14,0,0.279,0,0.42,0c0.055,0.486-0.698,1.081-0.42,2.098c0.14,0,0.279,0,0.42,0c0,1.678,0,3.356,0,5.034
		c0.43,2.305,0.418,12.542-0.42,15.521c0,3.636,0,7.271,0,10.907c-0.141,0-0.28,0-0.42,0c0,0.979,0,1.957,0,2.937
		c-0.139,0-0.278,0-0.419,0c0,0.838,0,1.678,0,2.517c-0.14,0-0.279,0-0.42,0c0,0.839,0,1.678,0,2.517
		c-0.839,2.376-1.678,4.754-2.518,7.131C490.047,338.683,489.909,338.683,489.77,338.683z M514.937,403.282
		c-3.38-0.005-7.326-0.071-10.067,0.42c0,0.279,0,0.559,0,0.839c-0.14,0-0.279,0-0.419,0c-0.118,0.702,0.396,0.731,0.419,0.838
		c0,0.84,0,1.678,0,2.518c0,2.936,0,5.873,0,8.81c0.141,0,0.28,0,0.421,0c-0.141,1.258-0.28,2.517-0.421,3.774
		c-0.046,3.99,0.108,8.848-0.419,12.165c-0.131,0.819,0.419,0.839,0.419,0.839c0,0.699,0,1.399,0,2.098c-0.14,0-0.279,0-0.419,0
		c0,0.699,0,1.398,0,2.098c0.14,0,0.279,0,0.419,0c0.395,1.442,0.073,9.502-0.419,10.067c-0.141,0.419-0.28,0.839-0.42,1.259
		c-1.47,0.217-1.342,0.168-2.937,0.419c-0.14-0.419-0.279-0.839-0.42-1.259c-0.14,0-0.278,0-0.418,0c0-0.279,0-0.56,0-0.839
		c-0.14,0-0.28,0-0.42,0c0-1.817,0-3.637,0-5.452c0-4.655-0.206-10.295,0.42-14.263c0.133-0.847-0.42-0.839-0.42-0.839
		c-0.507-2.289-0.036-6.339,0.42-7.971c0.424-1.521,0.073-11.172-0.42-11.746c0-0.978,0-1.956,0-2.935c-0.141,0-0.28,0-0.42,0
		c0-0.141,0-0.281,0-0.42c-2.655-0.141-5.313-0.279-7.969-0.42c0-0.139,0-0.279,0-0.419c-0.141,0-0.28,0-0.421,0
		c-0.023-2.362,0.104-2.804,0.839-4.195c3.636,0,7.271,0,10.906,0c0.561,0.14,1.12,0.28,1.679,0.42
		c1.651-0.261,5.684-1.06,7.971-0.42c0,0.14,0,0.28,0,0.42c0.838,0,1.678,0,2.516,0
		C514.937,400.485,514.937,401.885,514.937,403.282z M546.397,280.795c0,4.195,0,8.391,0,12.583c-0.14,0-0.28,0-0.42,0
		c-0.537,1.918,0.214,4.993,0.42,6.292c-0.14,1.818-0.28,3.636-0.42,5.453c0.178,0.629,0.778,2.511,0.42,3.776
		c-0.14,0-0.28,0-0.42,0c0,0.978,0,1.958,0,2.935c0.372,1.32,0.968,6.474,0.42,8.392c-0.14,0-0.28,0-0.42,0c0,2.236,0,4.474,0,6.71
		c0.14,0,0.28,0,0.42,0c-0.14,1.398-0.28,2.798-0.42,4.195c0.14,0,0.28,0,0.42,0c0,0.141,0,0.279,0,0.42c-0.14,0-0.28,0-0.42,0
		c-0.327,2.087,0.292,4.372,0.42,5.872c0,1.818,0,3.636,0,5.453c-0.14,0-0.28,0-0.42,0c0.14,0.979,0.28,1.958,0.42,2.937
		c-0.14,0-0.28,0-0.42,0c0,0.14,0,0.28,0,0.421c-0.139,0-0.278,0-0.418,0c-0.395-1.732-1.358-2.88-2.099-4.195
		c0-0.28,0-0.561,0-0.839c-0.279-0.141-0.559-0.281-0.839-0.42c-0.141-0.699-0.278-1.398-0.419-2.098
		c-0.279-0.139-0.56-0.28-0.839-0.419c0-0.42,0-0.84,0-1.258c-0.14,0-0.28,0-0.42,0c0-0.28,0-0.561,0-0.839
		c-0.278-0.141-0.559-0.281-0.838-0.421c0-0.419,0-0.839,0-1.259c-0.141,0-0.28,0-0.421,0c0-0.278,0-0.56,0-0.839
		c-0.14,0-0.279,0-0.419,0c-0.28-0.838-0.559-1.679-0.838-2.517c-0.141,0-0.28,0-0.42,0c-0.141-0.839-0.28-1.678-0.421-2.517
		c-0.279-0.141-0.558-0.28-0.838-0.419c0-0.42,0-0.84,0-1.26c-0.14,0-0.279,0-0.42,0c-0.14-0.559-0.279-1.118-0.42-1.677
		c-0.14,0-0.279,0-0.42,0c0-0.42,0-0.839,0-1.259c-0.138,0-0.278,0-0.418,0c0-0.279,0-0.56,0-0.84c-0.14,0-0.28,0-0.42,0
		c0-0.279,0-0.559,0-0.839c-0.14,0-0.28,0-0.42,0c-0.279-0.839-0.558-1.677-0.838-2.517c-0.14,0-0.28,0-0.42,0
		c0-0.419,0-0.838,0-1.258c-0.14,0-0.28,0-0.42,0c-0.141-0.56-0.28-1.119-0.419-1.678c-0.141,0-0.278,0-0.419,0
		c0-0.42,0-0.839,0-1.259c-0.14,0-0.279,0-0.42,0c0-0.28,0-0.559,0-0.839c-0.14,0-0.279,0-0.42,0c0-0.28,0-0.559,0-0.84
		c-0.14,0-0.28,0-0.42,0c-0.278-0.838-0.558-1.677-0.838-2.515c-0.14,0-0.28,0-0.42,0c0-0.421,0-0.84,0-1.261c-0.14,0-0.28,0-0.42,0
		c0-0.278,0-0.559,0-0.839c-0.14,0-0.28,0-0.418,0c-0.141-0.698-0.28-1.396-0.42-2.096c-0.141,0-0.28,0-0.42,0
		c0-0.421,0-0.839,0-1.259c-0.141,0-0.28,0-0.42,0c-0.28-0.84-0.558-1.679-0.838-2.517c-0.141,0-0.28,0-0.421,0
		c0-0.28,0-0.56,0-0.84c-0.14,0-0.279,0-0.42,0c0-0.419,0-0.839,0-1.259c-0.279-0.139-0.558-0.279-0.837-0.419
		c0-0.28,0-0.56,0-0.839c-0.14,0-0.28,0-0.42,0c0-0.28,0-0.56,0-0.839c-0.141,0-0.28,0-0.42,0c0-0.42,0-0.838,0-1.258
		c-0.141,0-0.28,0-0.421,0c0-0.419,0-0.839,0-1.258c-0.138,0-0.278,0-0.417,0c0-0.28,0-0.56,0-0.839c-0.141,0-0.28,0-0.42,0
		c-0.28-0.839-0.561-1.678-0.84-2.518c-0.141,0-0.278,0-0.419,0c0-0.559,0-1.118,0-1.678c-0.14,0-0.279,0-0.42,0
		c-0.14-0.839-0.279-1.678-0.42-2.517c-0.14,0-0.279,0-0.42,0c0-0.279,0-0.559,0-0.839c-0.14,0-0.278,0-0.418,0
		c-0.279-1.258-0.56-2.516-0.84-3.774c-0.14,0-0.28,0-0.42,0c0-0.28,0-0.56,0-0.838c-0.14,0-0.28,0-0.418,0
		c-0.56-1.678-1.12-3.356-1.678-5.035c-0.56-0.139-1.119-0.278-1.68-0.418c-0.358,0.473,0.058,0.065-0.418,0.418
		c0.14,1.259,0.28,2.518,0.418,3.776c0.141,0,0.28,0,0.42,0c-0.14,1.258-0.279,2.517-0.42,3.776c0.355,2.299,0.419,5.862,0.42,8.809
		c0,1.398,0,2.797,0,4.194c0.141,0,0.28,0,0.42,0c0,1.538,0,3.076,0,4.614c-0.14,0-0.279,0-0.42,0c0,0.84,0,1.679,0,2.519
		c0.141,0,0.28,0,0.42,0c0,2.097,0,4.194,0,6.291c-0.14,1.258-0.279,2.518-0.42,3.775c0.141,0,0.28,0,0.42,0
		c-0.14,1.397-0.279,2.797-0.42,4.195c-0.319,3.688,0.424,8.302-0.42,11.324c0,2.099,0,4.197,0,6.294c0.141,0,0.28,0,0.42,0
		c0.744,2.658-0.358,7.701-0.42,10.067c-3.108,0.568-4.819,0.445-8.807,0.419c0-0.839,0-1.678,0-2.516c-0.141,0-0.28,0-0.42,0
		c0.14-1.679,0.279-3.357,0.42-5.034c0-4.474,0-8.95,0-13.424c-0.141-2.796-0.28-5.594-0.42-8.39c0.14,0,0.279,0,0.42,0
		c-0.141-0.419-0.28-0.839-0.42-1.259c-0.115-2.162-0.265-6.964,0-7.971c0.14,0,0.279,0,0.42,0
		c-0.28-4.613-0.561-9.229-0.841-13.842c0-4.334,0-8.668,0-13.003c0-1.258,0-2.517,0-3.776c-0.028-0.123-0.55-0.122-0.419-0.839
		c0.14,0,0.279,0,0.419,0c0.347-1.504,0.255-5.515-0.419-6.292c0-4.753,0-9.508,0-14.262c0-3.188-0.221-5.916,0.84-7.97
		c2.655,0,5.312,0,7.969,0c0.879,0.449,0.78,2.142,1.258,2.936c0.28,0.14,0.561,0.279,0.84,0.419c0.28,1.259,0.56,2.517,0.84,3.776
		c0.138,0,0.278,0,0.418,0c0,0.279,0,0.559,0,0.839c0.14,0,0.28,0,0.42,0c0.141,0.698,0.28,1.397,0.42,2.097c0.14,0,0.279,0,0.42,0
		c0.138,0.559,0.278,1.118,0.418,1.677c0.14,0,0.28,0,0.42,0c0,0.28,0,0.56,0,0.84c0.14,0,0.28,0,0.42,0c0,0.419,0,0.839,0,1.257
		c0.28,0.14,0.56,0.28,0.838,0.42c0.141,0.7,0.28,1.398,0.42,2.097c0.141,0,0.28,0,0.42,0c0,0.42,0,0.839,0,1.259
		c0.141,0,0.28,0,0.42,0c0,0.279,0,0.559,0,0.839c0.141,0,0.278,0,0.419,0c0,0.279,0,0.559,0,0.839
		c0.279,0.139,0.56,0.28,0.84,0.419c0,0.42,0,0.839,0,1.259c0.14,0,0.279,0,0.42,0c0,0.28,0,0.559,0,0.839c0.139,0,0.279,0,0.417,0
		c0,0.28,0,0.559,0,0.839c0.141,0,0.28,0,0.421,0c0.279,0.838,0.56,1.677,0.84,2.516c0.14,0,0.279,0,0.417,0c0,0.42,0,0.839,0,1.259
		c0.141,0,0.28,0,0.42,0c0,0.279,0,0.559,0,0.839c0.141,0,0.28,0,0.42,0c0,0.279,0,0.559,0,0.839c0.141,0,0.28,0,0.421,0
		c0.28,0.838,0.558,1.678,0.838,2.517c0.14,0,0.279,0,0.42,0c0.14,0.839,0.279,1.678,0.42,2.517c0.14,0,0.279,0,0.42,0
		c0.278,0.839,0.558,1.678,0.838,2.517c0.14,0,0.28,0,0.42,0c0.28,1.257,0.56,2.516,0.838,3.775c0.14,0,0.28,0,0.42,0
		c0.141,0.559,0.28,1.119,0.42,1.678c0.141,0,0.28,0,0.42,0c0.141,0.699,0.278,1.398,0.419,2.097c0.278,0.14,0.559,0.28,0.839,0.42
		c0.28,1.259,0.561,2.517,0.839,3.776c0.14,0,0.279,0,0.419,0c0,0.279,0,0.559,0,0.839c0.14,0,0.28,0,0.42,0
		c0.28,0.838,0.56,1.677,0.838,2.516c0.561-0.14,1.12-0.28,1.68-0.419c-0.14-1.538-0.279-3.076-0.42-4.614
		c0.141-0.42,0.28-0.839,0.42-1.259c-0.14,0-0.279,0-0.42,0c0.141-1.958,0.28-3.916,0.42-5.873c-0.14,0-0.279,0-0.42,0
		c0-0.699,0-1.398,0-2.098c-0.14,0-0.279,0-0.42,0c0-0.14,0-0.28,0-0.418c0.141,0,0.28,0,0.42,0c0.624-4.045-0.76-8.251,0-11.326
		c-0.14-1.259-0.279-2.517-0.42-3.775c0.141,0,0.28,0,0.42,0c0-2.376,0-4.754,0-7.132c0.28-4.334,0.559-8.669,0.838-13.003
		c2.612-0.138,5.66-0.439,8.81-0.42c1.06,5.924,0.42,11.873,0.42,18.038C546.817,272.493,547.28,277.648,546.397,280.795z"/>
	<path fill="#454545" d="M389.933,182.637c0.14,0,0.28,0,0.42,0c0.139,0.979,0.278,1.958,0.418,2.937c0.141,0,0.28,0,0.42,0
		c0,0.28,0,0.559,0,0.839c0.28,0.14,0.561,0.28,0.84,0.418c0,0.28,0,0.56,0,0.839c1.259,1.119,2.517,2.238,3.774,3.356
		c0.42,0.56,0.839,1.119,1.259,1.678c0.839,0.141,1.679,0.28,2.517,0.419c0,0.14,0,0.28,0,0.42c0.28,0,0.56,0,0.84,0
		c0,0.14,0,0.279,0,0.419c1.817,0.14,3.635,0.28,5.453,0.419c0-0.14,0-0.28,0-0.419c0.278,0,0.559,0,0.838,0c0-0.14,0-0.279,0-0.419
		c0.28,0,0.561,0,0.84,0c0.141-0.28,0.28-0.56,0.419-0.839c0.42,0,0.84,0,1.26,0c0-0.139,0-0.279,0-0.419c0.418,0,0.838,0,1.258,0
		c0-0.14,0-0.28,0-0.418c1.538-0.794,2.879-1.074,3.355-2.937c2.214-0.595,1.512-1.755,2.518-3.356
		c0.278-0.14,0.558-0.28,0.838-0.419c0-0.279,0-0.559,0-0.839c0.14,0,0.28,0,0.42,0c0-0.559,0-1.117,0-1.678
		c0.603-1.667,2.074-5.938,1.258-8.809c-0.14,0-0.279,0-0.42,0c0-0.7,0-1.398,0-2.097c-0.138,0-0.278,0-0.418,0
		c0-0.561,0-1.119,0-1.678c-0.14,0-0.28,0-0.42,0c0-0.279,0-0.56,0-0.839c-0.14,0-0.28,0-0.42,0c0-0.42,0-0.839,0-1.259
		c-0.14,0-0.28,0-0.42,0c-0.14-0.559-0.278-1.119-0.418-1.678c-0.141,0-0.28,0-0.42,0c0-0.28,0-0.559,0-0.839
		c-0.141,0-0.28,0-0.42,0c-0.141-0.42-0.28-0.839-0.42-1.259c-0.278-0.14-0.558-0.279-0.838-0.418c0-0.28,0-0.56,0-0.839
		c-0.42-0.28-0.841-0.56-1.258-0.839c-0.14-0.419-0.279-0.838-0.42-1.258c-0.28,0-0.56,0-0.84,0c0-0.141,0-0.28,0-0.419
		c-0.903-0.761-1.531-1.389-2.936-1.678c-0.579-0.555-3.542-1.246-5.033-0.839c0,0.139,0,0.28,0,0.419c-1.118,0-2.238,0-3.356,0
		c-0.63,0.2-3.433,1.646-3.776,2.098c0,0.279,0,0.559,0,0.839l-0.839,0.838c-0.278,0-0.559,0-0.839,0
		c-0.7,0.515-1.861,2.339-2.097,3.356c-0.28,0-0.561,0-0.839,0c-0.279,0.839-0.56,1.677-0.84,2.517c-0.14,0-0.279,0-0.42,0
		c0,0.559,0,1.119,0,1.678c-0.14,0-0.279,0-0.418,0c0,0.559,0,1.119,0,1.678c-0.14,0-0.28,0-0.42,0c0,0.839,0,1.678,0,2.517
		c-0.14,0-0.28,0-0.42,0c0,1.817,0,3.635,0,5.453c0.14,0,0.28,0,0.42,0C389.933,180.4,389.933,181.519,389.933,182.637z"/>
	<path fill="#454545" d="M488.092,173.828c0,4.474,0,8.95,0,13.423c0,2.255-0.175,5.099,0.417,6.711c0.28,0,0.561,0,0.841,0
		c0,0.14,0,0.28,0,0.419c0.14,0,0.279,0,0.42,0c0-0.14,0-0.28,0-0.419c1.397,0.14,2.795,0.28,4.193,0.419
		c0.117,0.027,0.128,0.545,0.84,0.419c0-0.14,0-0.279,0-0.419c0.698,0,1.397,0,2.098,0c0-0.14,0-0.28,0-0.419
		c0.558,0,1.118,0,1.678,0c0-0.14,0-0.279,0-0.419c0.838-0.14,1.678-0.28,2.516-0.42c0-0.14,0-0.279,0-0.419
		c0.56-0.139,1.12-0.279,1.678-0.419c0-0.14,0-0.28,0-0.418c0.28,0,0.561,0,0.84,0c0.28-0.42,0.559-0.84,0.839-1.259
		c0.279,0,0.56,0,0.84,0c0.14-0.419,0.279-0.839,0.42-1.258c0.418-0.28,0.837-0.56,1.257-0.84c0-0.279,0-0.559,0-0.839
		c0.28-0.139,0.559-0.279,0.839-0.418c0.14-0.559,0.28-1.119,0.42-1.678c0.14,0,0.279,0,0.419,0c0-0.56,0-1.119,0-1.678
		c0.28-0.14,0.561-0.28,0.839-0.42c0-0.559,0-1.118,0-1.678c0.14,0,0.279,0,0.42,0c0-0.28,0-0.559,0-0.839c0.14,0,0.279,0,0.42,0
		c0.14-1.538,0.279-3.077,0.42-4.614c-0.141,0-0.28,0-0.42,0c0-0.139,0-0.28,0-0.419c0.14-0.42,0.279-0.839,0.42-1.259
		c-0.141,0-0.28,0-0.42,0c-0.141-0.838-0.28-1.678-0.42-2.517c-0.141,0-0.28,0-0.42,0c0-0.279,0-0.559,0-0.839
		c-0.141,0-0.278,0-0.419,0c-0.14-0.839-0.279-1.678-0.42-2.517c-0.279-0.14-0.559-0.28-0.839-0.419
		c-0.141-0.42-0.28-0.84-0.419-1.259c-0.56-0.419-1.119-0.838-1.677-1.258c0-0.279,0-0.559,0-0.839
		c-0.28-0.139-0.561-0.279-0.841-0.419c-0.419-0.56-0.839-1.119-1.258-1.677c-0.279,0-0.56,0-0.84,0
		c-0.14-0.28-0.279-0.56-0.42-0.839c-0.418-0.14-0.838-0.28-1.258-0.419c0-0.141,0-0.28,0-0.419c-1.258-0.14-2.518-0.28-3.775-0.42
		c0-0.141,0-0.28,0-0.419c-0.279,0-0.558,0-0.838,0c0-0.14,0-0.28,0-0.42c-2.656,0-5.313,0-7.972,0
		c-0.959,2.531-0.404,7.226-0.417,10.487C488.084,172.013,487.663,173.249,488.092,173.828z"/>
	<path fill="#454545" d="M300.584,181.379c0.141-0.839,0.28-1.677,0.42-2.517c-0.14,0-0.279,0-0.42,0c0-0.42,0-0.84,0-1.259
		c-0.14,0-0.279,0-0.42,0c-0.28-1.258-0.56-2.517-0.838-3.775c-0.14,0-0.28,0-0.42,0c0-0.28,0-0.559,0-0.839c-0.14,0-0.28,0-0.42,0
		c0-0.419,0-0.839,0-1.258c-0.14,0-0.28,0-0.42,0c0-0.28,0-0.561,0-0.839c-0.14,0-0.28,0-0.418,0
		c-0.28-1.538-0.561-3.076-0.84-4.614c-0.473-0.358-0.064,0.056-0.42-0.42c-0.419,0-0.838,0-1.258,0c0,0.14,0,0.28,0,0.42
		c-0.141,0-0.28,0-0.421,0c-0.279,1.397-0.558,2.796-0.837,4.195c-0.14,0-0.28,0-0.42,0c0,0.419,0,0.839,0,1.259
		c-0.14,0-0.28,0-0.42,0c0,0.419,0,0.838,0,1.258c-0.141,0-0.28,0-0.42,0c0,0.28,0,0.56,0,0.839c-0.139,0-0.278,0-0.419,0
		c-0.941,2.131-0.95,4.435-2.518,5.874c0.141,0.418,0.28,0.838,0.42,1.257C293.593,181.099,297.088,181.239,300.584,181.379z"/>
	<path fill="#454545" d="M378.606,290.023c0.998-0.916,1.176,0.032,1.678-1.678c2.02-0.531,1.57-1.804,2.518-3.355
		c0.28-0.14,0.56-0.28,0.838-0.419c0-0.56,0-1.119,0-1.678c0.28-0.139,0.561-0.28,0.84-0.419c0-0.419,0-0.839,0-1.259
		c0.141,0,0.28,0,0.42,0c0-2.237,0-4.475,0-6.711c-0.14,0-0.279,0-0.42,0c0-0.419,0-0.839,0-1.258c-0.14,0-0.279,0-0.42,0
		c0-0.56,0-1.119,0-1.679c-0.14,0-0.279,0-0.42,0c0-0.279,0-0.559,0-0.838c-0.14,0-0.278,0-0.418,0
		c-0.28-0.839-0.56-1.678-0.84-2.517c-0.28-0.14-0.56-0.279-0.838-0.419c0-0.28,0-0.56,0-0.839c-0.561-0.42-1.12-0.839-1.678-1.259
		c-0.14-0.28-0.28-0.559-0.42-0.839c-0.28,0-0.561,0-0.84,0c-0.141-0.28-0.28-0.559-0.42-0.839c-0.418-0.139-0.838-0.28-1.258-0.418
		c0-0.141,0-0.28,0-0.42c-0.28,0-0.559,0-0.838,0c-0.141-0.28-0.28-0.56-0.42-0.84c-0.7-0.14-1.398-0.279-2.099-0.419
		c0-0.139,0-0.279,0-0.419c-0.279,0-0.56,0-0.838,0c0-0.14,0-0.28,0-0.42c-1.26-0.279-2.518-0.559-3.775-0.838
		c0,0.139,0,0.279,0,0.419c-0.56,0-1.119,0-1.678,0c0-0.141,0-0.28,0-0.419c-0.84,0-1.678,0-2.518,0
		c-0.094,2.288-1.164,7.834-0.42,10.486c0.377,1.344,0.961,6.443,0.42,8.39c-0.141,0-0.28,0-0.42,0c0,1.398,0,2.797,0,4.195
		c0,2.221,0.827,8.281,0,9.228c0.021,1.2,0.146,1.796,0.42,2.517c2.098-0.139,4.195-0.28,6.293-0.419c0-0.14,0-0.28,0-0.419
		c0.418,0,0.838,0,1.258,0c0-0.14,0-0.28,0-0.42c0.28,0,0.56,0,0.838,0c0-0.14,0-0.28,0-0.42c0.561,0,1.12,0,1.679,0
		c0-0.139,0-0.279,0-0.418c0.279,0,0.56,0,0.84,0c0-0.141,0-0.28,0-0.42c0.279,0,0.56,0,0.838,0
		C377.209,291.701,377.908,290.862,378.606,290.023z"/>
	<path fill="#454545" d="M485.153,293.798c0-2.097,0-4.194,0-6.292c-0.14,0-0.28,0-0.418,0c0-0.419,0-0.839,0-1.258
		c-0.14,0-0.28,0-0.42,0c0.14-0.419,0.28-0.839,0.42-1.259c-0.14,0-0.28,0-0.42,0c-0.14-2.237-0.28-4.475-0.42-6.711
		c-0.14,0-0.28,0-0.42,0c0-0.56,0-1.12,0-1.678c-0.14,0-0.28,0-0.42,0c0-0.42,0-0.838,0-1.259c-0.139,0-0.278,0-0.418,0
		c0-0.699,0-1.398,0-2.097c-0.14,0-0.279,0-0.42,0c0-0.419,0-0.839,0-1.259c-0.14,0-0.28,0-0.42,0c0-0.28,0-0.559,0-0.839
		c-0.14,0-0.28,0-0.42,0c-0.278-1.398-0.558-2.797-0.838-4.195c-0.279-0.14-0.56-0.28-0.84-0.42
		c-0.14-0.559-0.278-1.119-0.418-1.678c-0.141,0-0.28,0-0.42,0c-0.593-0.743-0.977-0.999-1.258-2.097
		c-0.839-0.253-0.361,0.058-0.84-0.42c-1.958,0-3.916,0-5.873,0c-0.278,0.42-0.559,0.84-0.839,1.26c-0.279,0-0.56,0-0.84,0
		c0,0.138,0,0.279,0,0.418c-0.698,0.559-1.397,1.12-2.096,1.678c-0.84,4.195-1.678,8.39-2.519,12.585
		c-0.278,6.851-0.559,13.703-0.837,20.553c0,4.335,0,8.67,0,13.003c0.139,0,0.278,0,0.418,0c0,0.979,0,1.959,0,2.938
		c0.141,0,0.279,0,0.419,0c0,1.118,0,2.238,0,3.355c0.141,0,0.28,0,0.421,0c0,0.84,0,1.678,0,2.518c0.14,0,0.279,0,0.42,0
		c0,0.979,0,1.957,0,2.937c0.138,0,0.278,0,0.418,0c0.141,0.979,0.28,1.957,0.42,2.937c0.14,0,0.279,0,0.42,0
		c0,0.418,0,0.838,0,1.258c0.14,0,0.279,0,0.42,0c0,0.559,0,1.118,0,1.678c0.14,0,0.278,0,0.418,0c0.14,1.119,0.28,2.238,0.42,3.356
		c0.14,0,0.28,0,0.42,0c0,0.279,0,0.559,0,0.838c0.14,0,0.28,0,0.42,0c0,0.561,0,1.119,0,1.679c0.14,0,0.278,0,0.418,0
		c0.464,0.678,0.584,0.708,0.84,1.679c0.993,0.252,1.98,0.997,2.517,1.677c1.398-0.139,2.797-0.28,4.195-0.419
		c0-0.141,0-0.28,0-0.42c0.699,0,1.397,0,2.098,0c0-0.14,0-0.279,0-0.42c4.102-1.069,5.05-8.04,6.291-12.164
		c0.141-1.818,0.28-3.636,0.42-5.454c0.838-2.774,0.879-6.24,0.84-10.066c0-0.699,0-1.399,0-2.098
		c-0.027-0.117-0.546-0.128-0.42-0.84c0.141,0,0.28,0,0.42,0C487.259,303.075,485.874,296.312,485.153,293.798z"/>
	<path fill="#454545" d="M327.85,306.384c-0.141,0-0.28,0-0.419,0c0-0.7,0-1.398,0-2.099c-0.14,0-0.279,0-0.42,0
		c0-0.979,0-1.958,0-2.937c-0.139,0-0.279,0-0.419,0c0-0.699,0-1.397,0-2.097c-0.14,0-0.28,0-0.42,0c0-0.698,0-1.398,0-2.097
		c-0.14,0-0.28,0-0.42,0c0-1.538,0-3.077,0-4.614c-0.139,0-0.278,0-0.419,0c0-0.839,0-1.678,0-2.517c-0.14,0-0.279,0-0.419,0
		c0-0.698,0-1.398,0-2.097c-0.141,0-0.28,0-0.42,0c0-0.56,0-1.119,0-1.678c-0.141,0-0.28,0-0.42,0c0-1.399,0-2.797,0-4.195
		c-0.139,0-0.278,0-0.419,0c0-0.139,0-0.279,0-0.419c-0.42,0-0.84,0-1.26,0c-0.582,1.564,0.166,4.283-0.418,6.292
		c-0.14,0-0.28,0-0.42,0c-0.14,1.538-0.279,3.076-0.42,4.614c-0.14,0-0.279,0-0.42,0c0,0.42,0,0.838,0,1.258
		c-0.14,0-0.278,0-0.418,0c-0.141,1.259-0.28,2.517-0.42,3.776c-0.141,0-0.28,0-0.419,0c0,1.118,0,2.237,0,3.355
		c-0.141,0-0.28,0-0.42,0c0,0.699,0,1.397,0,2.098c-0.141,0-0.28,0-0.419,0c0,0.699,0,1.398,0,2.097c-0.14,0-0.28,0-0.42,0
		c0,0.979,0,1.958,0,2.937c-0.14,0-0.28,0-0.42,0c-0.14,1.538-0.279,3.077-0.42,4.614c-0.14,0-0.279,0-0.418,0
		c0,0.84,0,1.678,0,2.518c-0.28,0.139-0.56,0.279-0.84,0.419c0.099,0.99,0.178,1.037,0.42,1.678
		c1.958-0.139,3.915-0.279,5.871-0.419c0-0.14,0-0.28,0-0.42c0.7,0.14,1.4,0.28,2.099,0.42c0-0.14,0-0.28,0-0.42
		c2.463,0.03,3.148-0.063,4.614-0.839c-0.062-2.659-0.643-4.642-1.259-6.711C327.85,308.061,327.85,307.223,327.85,306.384z"/>
	<path fill="#454545" d="M460.404,418.803c0-0.839,0-1.677,0-2.517c-0.139,0-0.278,0-0.418,0c0-1.259,0-2.517,0-3.775
		c-0.141,0-0.28,0-0.42,0c-0.609-1.946-0.333-3.872-1.679-5.033c-0.391-1.417-1.046-1.456-2.518-1.679
		c-0.697,1.119-1.397,2.237-2.096,3.356c0,0.419,0,0.839,0,1.259c-0.14,0-0.279,0-0.42,0c0,0.559,0,1.118,0,1.678
		c-0.14,0-0.279,0-0.42,0c0,0.559,0,1.118,0,1.678c-0.14,0-0.279,0-0.42,0c0,0.699,0,1.398,0,2.098c-0.14,0-0.279,0-0.42,0
		c0,1.817,0,3.635,0,5.452c-0.429,1.525-1.009,7.524-0.418,9.647c0.14,0,0.28,0,0.418,0c0.141,2.238,0.28,4.476,0.42,6.713
		c0.415,1.359,1.079,2.866,1.26,4.614c0.534,0.26,0.895,0.408,1.259,0.838c0.837,0,1.677,0,2.516,0
		c0.197-0.098,1.949-2.987,2.098-3.354c0-0.42,0-0.84,0-1.26c0.14,0,0.279,0,0.42,0c0-0.978,0-1.958,0-2.936c0.14,0,0.279,0,0.42,0
		c0-0.56,0-1.119,0-1.678c0.14,0,0.279,0,0.418,0c0-2.237,0-4.475,0-6.712c0.14-1.817,0.279-3.637,0.42-5.453
		c-0.141-0.7-0.28-1.398-0.42-2.097c0.14,0,0.279,0,0.42,0C460.914,418.763,460.404,418.803,460.404,418.803z"/>
	<path fill="#454545" d="M363.506,428.451c-0.14,0-0.28,0-0.42,0c0-1.119,0-2.238,0-3.355c-1.159-3.604-2.559-7.748-2.516-12.585
		c-0.7-0.141-1.4-0.279-2.098-0.419c-0.069,4.147-1.104,8.01-2.099,11.326c-0.643,2.146,0.298,3.607-1.258,5.033
		c-0.015,1.597,0.034,3.172,0.418,4.194c2.262-0.063,5.645-0.544,6.293,0c0.991-0.1,1.037-0.177,1.679-0.418
		c0.14-0.84,0.279-1.679,0.419-2.518c-0.14,0-0.279,0-0.419,0C363.506,429.29,363.506,428.87,363.506,428.451z"/>
	<path fill="#454545" d="M293.873,423.418c-0.14,0-0.28,0-0.42,0c-0.14-1.119-0.28-2.237-0.42-3.356c-0.141,0-0.28,0-0.42,0
		c0-0.419,0-0.839,0-1.259c-0.139,0-0.278,0-0.419,0c0-1.118,0-2.238,0-3.355c-0.14,0-0.279,0-0.419,0
		c-0.259-1.017-0.442-0.922-0.84-1.678c-0.278,0-0.559,0-0.839,0c-0.478,1.229-0.894,3.408-1.258,4.613c0,0.979,0,1.958,0,2.937
		c-0.14,0-0.28,0-0.42,0c0,0.559,0,1.119,0,1.679c-0.14,0-0.28,0-0.42,0c0,0.699,0,1.397,0,2.098c-0.14,0-0.28,0-0.42,0
		c0,0.839,0,1.678,0,2.517c-0.14,0-0.28,0-0.418,0c0,1.258,0,2.518,0,3.775c-0.14,0-0.28,0-0.42,0
		c-0.14,0.979-0.279,1.957-0.42,2.937c1.548-0.063,5.596-0.592,6.712,0.419c0.989-0.1,1.037-0.178,1.677-0.419
		c-0.199-2.057-0.755-4.535-1.257-6.293C292.979,426.367,294.062,424.486,293.873,423.418z"/>
</g>
</svg>
