<?xml version="1.0" encoding="utf-8"?>
<!-- Generator: Adobe Illustrator 16.0.0, SVG Export Plug-In . SVG Version: 6.00 Build 0)  -->
<!DOCTYPE svg PUBLIC "-//W3C//DTD SVG 1.1//EN" "http://www.w3.org/Graphics/SVG/1.1/DTD/svg11.dtd">
<svg version="1.1" id="Layer_1" xmlns="http://www.w3.org/2000/svg" xmlns:xlink="http://www.w3.org/1999/xlink" x="0px" y="0px"
	 width="800px" height="600px" viewBox="0 0 800 600" enable-background="new 0 0 800 600" xml:space="preserve">
<g>
	<path fill="#454545" d="M652.735,186.854c0-1.747,0-3.495,0-5.243c-0.176,0-0.35,0-0.521,0c-0.832-2.981,0.426-5.601-1.051-7.865
		c-0.176,0-0.35,0-0.525,0c-0.697-0.875-1.396-1.748-2.098-2.622c-0.35,0-0.697,0-1.047,0c-1.4-1.573-2.799-3.146-4.195-4.72
		c-0.35,0-0.699,0-1.049,0c-0.176-0.349-0.352-0.698-0.525-1.049c-0.176,0-0.348,0-0.523,0c-0.699-0.873-1.398-1.747-2.096-2.621
		c-0.352,0-0.699,0-1.051,0c-0.35-0.525-0.699-1.049-1.047-1.574c-0.35-0.175-0.701-0.35-1.049-0.525
		c-1.049-1.434-0.596-2.079-2.625-2.621c0-0.351,0-0.699,0-1.049c-3.008-0.817-5.158-5.228-7.863-6.817c0-0.349,0-0.698,0-1.048
		c-2.086-0.565-2.543-2.174-4.195-3.146c0-0.35,0-0.699,0-1.048c-0.525-0.175-1.049-0.351-1.574-0.526c0-0.348,0-0.699,0-1.048
		c-0.348-0.175-0.697-0.349-1.047-0.524c0-0.175,0-0.35,0-0.524c-0.35,0-0.699,0-1.049,0c-0.176-0.524-0.348-1.049-0.523-1.574
		c-2.447-2.271-4.895-4.544-7.342-6.817c0-0.349,0-0.698,0-1.048c-2.131-0.634-0.557-0.362-1.572-1.574c-0.176,0-0.35,0-0.525,0
		c0-0.174,0-0.349,0-0.524c-0.525-0.174-1.049-0.349-1.572-0.525c0-0.348,0-0.698,0-1.048c-0.35-0.175-0.699-0.349-1.049-0.523
		c0-0.175,0-0.351,0-0.525c-0.525-0.175-1.049-0.349-1.572-0.524c-0.639-0.513-1.387-2.437-2.098-3.146
		c-1.748-1.399-3.498-2.796-5.244-4.195c-1.049-1.397-2.098-2.796-3.146-4.195c-0.35,0-0.699,0-1.049,0
		c-2.797-2.972-5.592-5.941-8.389-8.914c-1.051-0.875-2.098-1.747-3.148-2.621c0-0.35,0-0.7,0-1.049
		c-0.348-0.174-0.697-0.35-1.047-0.525c0-0.174,0-0.349,0-0.524c-0.525-0.174-1.049-0.349-1.572-0.525
		c-1.4-1.571-2.797-3.145-4.193-4.718c-3.498-3.32-6.992-6.643-10.49-9.962c0-0.35,0-0.7,0-1.048
		c-0.697-0.351-1.398-0.7-2.098-1.049c0-0.35,0-0.7,0-1.049c-2.271-2.097-4.545-4.196-6.816-6.293
		c-4.928-4.93-9.551-9.93-15.205-14.158l-1.049-1.048c0-0.349,0-0.699,0-1.049c-0.523-0.349-1.049-0.699-1.572-1.049
		c0-0.349,0-0.697,0-1.048c-0.699-0.35-1.4-0.699-2.098-1.049c0-0.349,0-0.698,0-1.047c-2.271-2.098-4.543-4.195-6.816-6.292
		c0-0.176,0-0.35,0-0.525c-1.051,0.349-2.098,0.699-3.146,1.048c0,0.175,0,0.35,0,0.525c-1.223,0-2.447,0-3.67,0
		c0-0.175,0-0.35,0-0.525c-0.174,0-0.35,0-0.525,0c-1.047,0-2.098,0-3.146,0c-0.158,0.039-0.148,0.697-1.049,0.525
		c0-0.175,0-0.35,0-0.525c-2.797,0-5.594,0-8.389,0c0,0.175,0,0.35,0,0.525c-1.225,0-2.447,0-3.672,0c0-0.175,0-0.35,0-0.525
		c-1.922,0-3.844,0-5.766,0c0-0.175,0-0.349,0-0.523c-1.225,0.174-2.449,0.348-3.672,0.523c-0.135-0.029-0.172-0.668-1.049-0.523
		c0,0.174,0,0.348,0,0.523c-0.176,0-0.35,0-0.523,0c-0.35-0.175-0.699-0.349-1.049-0.523c0,0.174,0,0.348,0,0.523
		c-5.416-0.175-10.836-0.349-16.256-0.523c0,0.174,0,0.348,0,0.523c-0.521-0.175-1.047-0.349-1.572-0.523c-1.922,0-3.846,0-5.766,0
		c0,0.174,0,0.348,0,0.523c-0.176,0-0.352,0-0.525,0c0-0.175,0-0.349,0-0.523c-1.223,0-2.447,0-3.67,0
		c-3.613,1.055-9.66,0.523-14.16,0.523c-10.311,0-20.625,0-30.936,0c0-0.175,0-0.349,0-0.523c-0.176,0-0.348,0-0.523,0
		c0,0.174,0,0.348,0,0.523c-1.748,0-3.496,0-5.244,0c0,0.175,0,0.35,0,0.525c-0.174,0-0.35,0-0.523,0c0-0.175,0-0.35,0-0.525
		c-2.098,0-4.197,0-6.293,0c0-0.175,0-0.349,0-0.523c-0.41-0.014-1.768,0.917-3.145,0.523c-2.125-0.606-12.848-1.226-15.732-0.523
		c0,0.174,0,0.348,0,0.523c-0.898,0.151-2.45-0.979-4.193-0.523c-3.009,0.784-12.809,0-18.88,0c-9.339,0-21.215-0.071-28.836,0
		c-0.176,0-0.351,0-0.525,0c0-0.176,0-0.35,0-0.525c-3.669-0.176-7.341-0.35-11.012-0.524c0,0.175,0,0.349,0,0.524
		c-4.894,0-9.789,0-14.681,0c-6.199,0-10.05,0-16.78,0c-2.97,0-5.942,0-8.914,0c0,0.175,0,0.349,0,0.525
		c-0.858,0.035-4.014-1.101-5.768-0.525c0,0.175,0,0.349,0,0.525c-1.05,0.174-2.097,0.348-3.147,0.523
		c-0.348,0.525-0.697,1.049-1.047,1.574c-0.525,0-1.05,0-1.572,0c-1.4,1.572-2.798,3.146-4.198,4.72
		c-0.696,0.522-1.396,1.047-2.096,1.572c0,0.351,0,0.699,0,1.048c-0.348,0.176-0.698,0.351-1.047,0.526
		c-1.573,1.747-3.148,3.496-4.72,5.243c-0.351,0-0.7,0-1.047,0c0,0.351,0,0.699,0,1.048c-1.173,0.291-1.33,0.438-2.097,1.049
		c0,0.175,0,0.351,0,0.524c-1.552,1.082-2.625,0.998-3.147,3.146c-0.349,0-0.7,0-1.05,0c-2.795,2.971-5.592,5.942-8.389,8.913
		c-0.522,0.35-1.047,0.699-1.572,1.049c0,0.175,0,0.349,0,0.525c-0.351,0-0.701,0-1.05,0c-0.524,0.699-1.049,1.398-1.574,2.097
		c-0.174,0-0.349,0-0.525,0c0,0.35,0,0.699,0,1.049c-0.697,0.525-1.397,1.048-2.097,1.573c0,0.349,0,0.698,0,1.048
		c-0.522,0.175-1.047,0.349-1.572,0.524c-0.699,0.874-1.396,1.749-2.097,2.622c-0.35,0-0.699,0-1.047,0
		c-1.749,1.923-3.497,3.845-5.245,5.768c-2.692,2.693-5.978,4.9-7.864,8.389c-0.349,0-0.7,0-1.05,0
		c-0.597,2.183-2.299,2.825-3.669,4.195c-1.748,1.922-3.496,3.845-5.244,5.768c-1.047,0.874-2.097,1.748-3.146,2.621
		c-0.525,0.701-1.048,1.399-1.573,2.098c-0.176,0-0.351,0-0.524,0c0,0.35,0,0.7,0,1.048c-0.525,0.351-1.048,0.701-1.573,1.049
		c-1.049,1.223-2.097,2.448-3.146,3.671c-0.349,0-0.699,0-1.05,0c-0.699,1.048-1.397,2.097-2.097,3.146c-0.35,0-0.699,0-1.047,0
		c-0.174,0.525-0.35,1.048-0.525,1.573c-0.525,0.351-1.05,0.699-1.572,1.049c-0.875,1.049-1.749,2.097-2.622,3.146
		c-2.447,2.273-4.895,4.544-7.342,6.817c-0.872,1.048-1.747,2.097-2.622,3.146c-0.35,0-0.697,0-1.046,0
		c-1.226,1.397-2.448,2.796-3.673,4.194c-2.62,2.622-5.242,5.243-7.864,7.865c-1.367,1.369-3.076,2.012-3.67,4.195
		c-2.007,0.509-1.627,1.167-2.621,2.622c-0.248,0.361-0.693,0.347-1.051,1.05c-0.348,0-0.697,0-1.046,0
		c-0.729,2.681-3.43,3.575-4.72,5.767c-0.349,0-0.7,0-1.047,0c-0.431,1.561-1.227,2.058-2.097,3.146c-0.176,0-0.351,0-0.525,0
		c-0.176,0.874-0.351,1.748-0.525,2.622c-0.349,0.175-0.7,0.35-1.05,0.525c0,2.62,0,5.242,0,7.863
		c-0.561,1.934-1.273,14.17-0.522,16.78c0.174,0,0.35,0,0.522,0c0,1.397,0,2.797,0,4.194c-0.172,0-0.348,0-0.522,0
		c0.174,0.525,0.35,1.049,0.522,1.573l-0.522,0.524c0.008,0.74,0.388-0.205,0.522,0.524c-0.172,1.923-0.348,3.846-0.522,5.768
		c0,1.748,0,3.496,0,5.244c-0.176,0-0.351,0-0.525,0c0,2.971,0,5.942,0,8.914c-0.937,3.229,0.042,6.61,0,10.485
		c0,0.874,0,1.748,0,2.622c-0.176,0-0.351,0-0.525,0c0,3.846,0,7.692,0,11.536c0,9.786,0,19.576,0,29.364c0,3.145,0,6.292,0,9.437
		c0.174,0,0.349,0,0.525,0c0,0.7,0,1.399,0,2.099c-0.176,0-0.351,0-0.525,0c-0.175,6.816-0.349,13.634-0.525,20.45
		c-0.172,8.911-0.348,17.827-0.522,26.741c0.174,0,0.35,0,0.522,0c0,1.748,0,3.495,0,5.244c0.005,6.218-0.956,14.662,0.525,19.923
		c-0.175,3.496-0.349,6.992-0.525,10.488c0.176,0,0.35,0,0.525,0c-0.175,3.671-0.349,7.34-0.525,11.011
		c1.169,4.068,0.513,10.756,0.525,15.73c0.174,1.748,0.349,3.496,0.525,5.244c-0.419,1.816-1.315,12.857-0.525,15.206
		c0.174,0,0.349,0,0.525,0c0,0.523,0,1.049,0,1.572c0.875,0.699,1.748,1.398,2.622,2.097c0,0.176,0,0.35,0,0.525
		c0.349,0,0.697,0,1.047,0c0.174,0.349,0.35,0.699,0.525,1.049c0.35,0,0.699,0,1.05,0c0.348,0.524,0.698,1.05,1.047,1.573
		c0.176,0,0.35,0,0.525,0c0,0.349,0,0.699,0,1.047c0.233,0.291,2.729,1.864,3.146,2.098c0,0.351,0,0.7,0,1.05
		c2.183,0.595,2.826,2.302,4.193,3.669c1.226,1.05,2.447,2.099,3.673,3.147c0.349,0.524,0.697,1.05,1.047,1.573
		c0.351,0,0.7,0,1.05,0c0.175,0.523,0.349,1.049,0.525,1.573c1.047,0.874,2.096,1.747,3.145,2.621c0,0.35,0,0.698,0,1.049
		c0.351,0,0.7,0,1.05,0c1.222,1.397,2.448,2.798,3.669,4.195c0.351,0.175,0.701,0.35,1.05,0.523c0,0.35,0,0.701,0,1.05
		c1.748,1.572,3.495,3.146,5.242,4.719c1.231,1.336-0.283,1.382,2.098,2.097c0,0.351,0,0.699,0,1.05
		c1.572,1.396,3.147,2.796,4.719,4.194c0.175,0.35,0.351,0.699,0.525,1.049c0.351,0,0.698,0,1.047,0
		c0.349,0.698,0.7,1.397,1.05,2.097c0.351,0,0.698,0,1.047,0c1.4,1.574,2.797,3.147,4.194,4.72c1.05,0.874,2.099,1.748,3.147,2.622
		c0,0.351,0,0.698,0,1.049c0.701,0.35,1.399,0.698,2.099,1.047c1.587,2.003,2.991,5.037,5.767,5.77
		c0.414,1.678,1.98,3.276,3.672,3.669c0,0.351,0,0.701,0,1.05c0.349,0,0.697,0,1.047,0c1.397,1.573,2.796,3.146,4.194,4.72
		c0.35,0.174,0.701,0.349,1.05,0.524c0,0.175,0,0.35,0,0.522c0,0.177,0,0.352,0,0.525c0.176,0,0.35,0,0.525,0
		c0,0.176,0,0.349,0,0.524c0.348,0,0.698,0,1.048,0c0,0.351,0,0.699,0,1.049c1.886,0.509,2.197,1.757,3.668,2.622
		c0,0.351,0,0.698,0,1.049c0.35,0,0.701,0,1.051,0c0.175,0.523,0.349,1.048,0.525,1.573c1.571,1.223,3.145,2.445,4.719,3.671
		c0,0.35,0,0.699,0,1.048c2.726,0.739,3.696,3.315,5.242,5.243c0.875,0.523,1.748,1.049,2.622,1.572
		c0.175,0.523,0.351,1.05,0.525,1.575c0.873,0.698,1.748,1.396,2.621,2.096c0,0.351,0,0.698,0,1.05
		c4.194,3.845,8.391,7.689,12.585,11.534c1.747,1.922,3.495,3.847,5.242,5.77c0.875,0.698,1.75,1.398,2.622,2.097
		c0,0.351,0,0.699,0,1.049c0.35,0.175,0.701,0.349,1.05,0.523c0.523,0.699,1.048,1.397,1.573,2.099c0.349,0,0.7,0,1.047,0
		c1.225,1.397,2.446,2.795,3.672,4.194c0.349,0,0.697,0,1.047,0c1.05,1.223,2.097,2.447,3.147,3.669c3.145,0,6.292,0,9.438,0
		c0-0.174,0-0.349,0-0.523c1.574,0,3.146,0,4.718,0c0-0.175,0-0.349,0-0.524c0.174,0,0.349,0,0.523,0c0,0.176,0,0.35,0,0.524
		c3.148,0,6.293,0,9.44,0c0.022-0.006,0.417-0.798,1.573-0.524c0,0.176,0,0.35,0,0.524c4.019,0,8.041,0,12.06,0
		c4.635,1.367,15.708,0.785,20.448,0c0.4-0.065,3.323,0.521,4.721,0.523c4.02-0.174,8.041-0.349,12.062-0.523
		c0,0.175,0,0.35,0,0.523c0.522-0.174,1.047-0.349,1.571-0.523c4.021,0,8.04,0,12.06,0c0-0.175,0-0.349,0-0.524
		c1.052,0.176,2.097,0.35,3.147,0.524c0-0.175,0-0.349,0-0.524c2.272,0.176,4.545,0.35,6.817,0.524c0-0.175,0-0.349,0-0.524
		c1.396,0.176,2.796,0.35,4.194,0.524c1.241-0.077,2.414-0.985,4.194-0.524c0,0.176,0,0.35,0,0.524
		c1.147,0.249,1.563-0.521,1.572-0.524c2.271,0,4.544,0,6.816,0c9.263,0,23.894-1.011,30.414,0.524c4.719,0,9.438,0,14.158,0
		c0-0.175,0-0.349,0-0.524c0.396-0.066,3.32,0.521,4.717,0.524c4.256,0.011,11.697-0.406,14.158,0
		c3.252,0.537,7.428-0.196,9.961,0.523c2.447,0,4.896,0,7.342,0c0-0.174,0-0.349,0-0.523c3.32-0.175,6.643-0.349,9.965-0.524
		c0,0.176,0,0.35,0,0.524c6.99,0,13.98,0,20.973,0c0.699,0,1.398,0,2.098,0c0,0.175,0,0.35,0,0.523c0.176,0,0.35,0,0.525,0
		c0-0.174,0-0.349,0-0.523c0.871,0,1.746,0,2.621,0c0,0.175,0,0.35,0,0.523c0.172,0,0.348,0,0.523,0c0-0.174,0-0.349,0-0.523
		c1.748,0,3.496,0,5.244,0c0,0.175,0,0.35,0,0.523c2.447-0.174,4.895-0.349,7.342-0.523c0-0.175,0-0.349,0-0.524
		c2.27-0.176,4.545-0.35,6.814-0.522c0-0.176,0-0.352,0-0.525c1.4-1.223,2.797-2.447,4.195-3.672c0-0.349,0-0.698,0-1.046
		c0.35-0.177,0.699-0.351,1.049-0.526c1.178-1.247,3.193-2.932,3.67-4.719c2.168-0.564,2.02-1.6,3.146-3.146
		c0.35-0.176,0.699-0.349,1.049-0.524c0.875-1.048,1.748-2.096,2.621-3.146c1.107-1.079,2.115-0.803,2.623-2.622
		c0.35,0,0.699,0,1.049,0c0.697-0.873,1.398-1.748,2.098-2.622c0.172,0,0.348,0,0.521,0c0.176-0.524,0.352-1.049,0.525-1.574
		c0.352,0,0.701,0,1.051,0c0.348-0.523,0.697-1.047,1.047-1.572c0.525-0.174,1.049-0.349,1.574-0.523c0-0.351,0-0.7,0-1.05
		c2.135-0.624,0.551-0.371,1.574-1.572c0.174,0,0.35,0,0.521,0c0-0.176,0-0.351,0-0.523c0.35,0,0.699,0,1.051,0
		c1.045-1.224,2.096-2.447,3.145-3.671c1.398-1.225,2.797-2.448,4.197-3.672c0.348-0.523,0.695-1.049,1.047-1.572
		c0.35,0,0.701,0,1.049,0c1.223-1.397,2.447-2.798,3.67-4.194c0.35,0,0.699,0,1.047,0c1.752-1.923,3.498-3.845,5.244-5.768
		c0.527-0.351,1.051-0.699,1.574-1.05c0-0.348,0-0.698,0-1.048c2.334-0.65,1.871-2.01,4.193-2.623
		c0.506-1.857,1.498-2.017,2.623-3.146c1.922-2.096,3.846-4.193,5.77-6.292c0.348,0,0.697,0,1.047,0
		c0.613-2.266,1.652-1.799,2.621-3.146c0-0.35,0-0.698,0-1.048c1.225-1.05,2.449-2.098,3.672-3.146c0-0.175,0-0.351,0-0.524
		c0.35-0.176,0.699-0.351,1.049-0.524c0-0.35,0-0.699,0-1.048c2.271-2.098,4.545-4.196,6.816-6.294
		c7.131-7.132,13.842-14.33,22.023-20.448l1.047-1.05c0-0.351,0-0.699,0-1.049c1.223-1.047,2.447-2.097,3.67-3.146
		c0.176-0.35,0.35-0.701,0.525-1.049c0.35,0,0.699,0,1.049,0c1.398-1.573,2.795-3.146,4.195-4.721
		c0.873-0.698,1.748-1.397,2.623-2.096c0.172-0.352,0.348-0.698,0.521-1.05c0.352,0,0.699,0,1.051,0
		c1.047-1.223,2.098-2.446,3.145-3.671c0.35,0,0.699,0,1.049,0c0.176-0.348,0.35-0.698,0.525-1.047
		c1.438-1.361,2.818-2.784,4.719-3.671c0.342-1.953,1.082-7.429,0.523-9.439c-0.176,0-0.352,0-0.523,0c0-2.796,0-5.592,0-8.388
		c0.172,0,0.348,0,0.523,0c-0.176-1.573-0.352-3.146-0.523-4.721c0-4.718,0-9.438,0-14.157c0-0.873,0-1.747,0-2.621
		c0.172,0,0.348,0,0.523,0c-0.176-1.573-0.352-3.146-0.523-4.719c0-4.543,0-9.089,0-13.633c0-3.146,0-6.293,0-9.438
		c0.172,0,0.348,0,0.523,0c0-1.225,0-2.448,0-3.672c0.018-5.383-0.746-16.058,0-19.399c0-2.972,0-5.942,0-8.915
		c0.176,0,0.35,0,0.525,0c0-1.224,0-2.446,0-3.67c-0.135-0.729-0.574,0.217-0.525-0.523c0.176,0,0.35,0,0.525,0
		c0-1.398,0-2.797,0-4.195c-0.176,0-0.35,0-0.525,0c-0.734-2.647,0.381-8.362,0.525-8.914c-0.176-3.318-0.35-6.642-0.525-9.962
		c0.176,0,0.35,0,0.525,0c0-2.971,0-5.943,0-8.915c0-2.097,0-4.194,0-6.292c0.176,0,0.35,0,0.525,0
		c-0.176-0.522-0.35-1.048-0.525-1.572c0-2.621,0-5.243,0-7.865c0.176,0,0.35,0,0.525,0c0-0.175,0-0.35,0-0.523
		c-0.176-1.398-0.35-2.797-0.525-4.196c0.176,0,0.35,0,0.525,0c0.695-3.028-0.182-7.723-0.525-9.962
		c0.176-2.271,0.35-4.545,0.525-6.815c-0.176,0-0.35,0-0.525,0c-0.025-0.171,0.498-1.163,0.525-2.1c0-1.223,0-2.446,0-3.669
		c-0.176,0-0.35,0-0.525,0c-0.609-2.192,0.402-4.774,0.525-6.293c0-1.049,0-2.096,0-3.146c-0.176,0-0.35,0-0.525,0
		c0-1.223,0-2.446,0-3.67c0.176,0,0.35,0,0.525,0c0-0.175,0-0.349,0-0.524c-0.176,0-0.35,0-0.525,0c0-1.048,0-2.098,0-3.146
		c0.176,0,0.35,0,0.525,0c0.174-9.61,0.35-19.226,0.525-28.838c0.172-3.496,0.346-6.992,0.521-10.487c-0.176,0-0.35,0-0.521,0
		c0.172-1.572,0.346-3.146,0.521-4.719c-0.176,0-0.35,0-0.521,0C652.058,186.825,652.735,186.854,652.735,186.854z M499.103,126.556
		c0.174,0,0.348,0,0.523,0c0-0.701,0-1.4,0-2.098c-0.176,0-0.35,0-0.523,0c0.174-0.524,0.348-1.048,0.523-1.573
		c-0.176,0-0.35,0-0.523,0c0-0.698,0-1.398,0-2.097c0.174,0,0.348,0,0.523,0c0-0.874,0-1.748,0-2.623c-0.176,0-0.35,0-0.523,0
		c0-0.174,0-0.349,0-0.523c0.174,0,0.348,0,0.523,0c0-1.224,0-2.447,0-3.67c3.672-0.176,7.34-0.35,11.01-0.524
		c0,0.174,0,0.349,0,0.524c2.271,0,4.545,0,6.818,0c0,0.174,0,0.349,0,0.525c0.873,0,1.746,0,2.621,0c0,0.174,0,0.349,0,0.523
		c0.525-0.174,1.051-0.349,1.572-0.523c0,0.174,0,0.349,0,0.523c1.572,0.176,3.146,0.35,4.719,0.525c0,0.175,0,0.349,0,0.524
		c0.352,0,0.701,0,1.051,0c0,0.175,0,0.35,0,0.525c0.521,0,1.047,0,1.572,0c0,0.174,0,0.349,0,0.523c0.35,0,0.701,0,1.049,0
		c0.174,0.35,0.35,0.7,0.525,1.048c0.348,0,0.699,0,1.049,0c0.174,0.35,0.35,0.701,0.525,1.049c0.348,0,0.697,0,1.045,0
		c0.176,0.351,0.352,0.7,0.525,1.049c0.699,0,1.398,0,2.098,0c0.176,0.35,0.35,0.7,0.525,1.048c1.049,0.875,2.098,1.748,3.145,2.623
		c0,0.35,0,0.698,0,1.048c1.996,0.525,1.641,1.146,2.623,2.622c0.35,0.175,0.699,0.349,1.047,0.524
		c0.176,0.873,0.35,1.748,0.525,2.621c0.176,0,0.35,0,0.525,0c0.176,0.699,0.35,1.399,0.523,2.098c0.176,0,0.35,0,0.525,0
		c0,0.699,0,1.398,0,2.097c0.172,0,0.348,0,0.523,0c0,0.525,0,1.048,0,1.573c0.174,0,0.35,0,0.523,0
		c0.352,4.719,0.701,9.438,1.051,14.157c-0.176,0-0.35,0-0.525,0c0,1.397,0,2.796,0,4.195c-0.174,0-0.35,0-0.525,0
		c0,0.349,0,0.699,0,1.049c-0.174,0-0.35,0-0.523,0c0,0.523,0,1.048,0,1.572c-0.176,0-0.352,0-0.523,0c0,0.525,0,1.048,0,1.573
		c-0.176,0-0.35,0-0.525,0c-0.174,1.049-0.348,2.097-0.523,3.146c-0.176,0-0.35,0-0.525,0c-0.35,1.049-0.697,2.098-1.047,3.146
		c-0.176,0-0.352,0-0.525,0c-0.176,0.7-0.352,1.399-0.525,2.098c-1.398,1.223-2.797,2.447-4.193,3.67
		c-0.525,0.699-1.049,1.398-1.574,2.097c-0.35,0-0.699,0-1.049,0c-0.176,0.351-0.35,0.699-0.523,1.049
		c-0.699,0.174-1.398,0.349-2.096,0.525c-0.176,0.348-0.352,0.698-0.525,1.048c-0.701,0.174-1.4,0.35-2.098,0.524
		c0,0.175,0,0.35,0,0.525c-0.699,0-1.4,0-2.098,0c0,0.174,0,0.348,0,0.522c-0.525,0-1.051,0-1.574,0c0,0.176,0,0.35,0,0.525
		c-1.049,0-2.096,0-3.145,0c0,0.175,0,0.349,0,0.523c-1.398,0-2.797,0-4.195,0c0,0.176,0,0.351,0,0.525
		c-0.188,0.018-1.408-0.615-2.623-0.525c-2.305,0.17-6.932,1.405-9.961,0.525c-1.631-0.474-2.91-0.961-5.244-1.049
		c-0.447-0.591,0.07-0.083-0.525-0.525c0-1.747,0-3.496,0-5.243c-0.174,0-0.348,0-0.523,0c0.176-0.525,0.35-1.049,0.523-1.574
		c-0.174,0-0.348,0-0.523,0c0-2.622,0-5.244,0-7.864c-0.176,0-0.35,0-0.523,0c0.174-4.545,0.348-9.091,0.523-13.633
		c-0.176,0-0.35,0-0.523,0c-0.895-3.185,0.314-11.009,0.523-13.633C499.45,132.497,499.276,129.526,499.103,126.556z
		 M376.405,140.188c0.174,0,0.35,0,0.525,0c0-1.573,0-3.146,0-4.718c0.172,0,0.348,0,0.521,0c0-0.525,0-1.05,0-1.574
		c0.175,0,0.351,0,0.525,0c0-0.524,0-1.048,0-1.573c0.174,0,0.35,0,0.525,0c0-0.524,0-1.049,0-1.573c0.174,0,0.35,0,0.524,0
		c0-0.525,0-1.048,0-1.573c0.175,0,0.348,0,0.522,0c0.176-0.523,0.35-1.048,0.525-1.573c0.35-0.175,0.7-0.35,1.049-0.524
		c0-0.35,0-0.698,0-1.048c0.176,0,0.348,0,0.523,0c1.126-1.353,2.614-2.294,3.146-4.195c0.35,0,0.699,0,1.049,0
		c0-0.349,0-0.699,0-1.048c0.524-0.175,1.049-0.351,1.573-0.525c0.351-0.524,0.698-1.049,1.048-1.573c0.35,0,0.7,0,1.049,0
		c0.525-0.699,1.049-1.398,1.574-2.097c0.349,0,0.699,0,1.049,0c0-0.175,0-0.351,0-0.525c0.697-0.175,1.396-0.349,2.098-0.524
		c0-0.175,0-0.349,0-0.525c0.522,0,1.047,0,1.571,0c0-0.174,0-0.349,0-0.523c0.875,0,1.748,0,2.623,0c0-0.176,0-0.351,0-0.525
		c0.697,0,1.397,0,2.097,0c0.176-0.35,0.352-0.699,0.525-1.049c0.873,0,1.746,0,2.621,0c0-0.175,0-0.35,0-0.524
		c0.525,0.174,1.049,0.349,1.572,0.524c1.574,0,3.145,0,4.719,0c0,0.174,0,0.35,0,0.524c1.467,0.516,2.975,0.326,4.195,1.049
		c0.174,0.349,0.348,0.699,0.523,1.048c0.525,0,1.051,0,1.576,0c0,0.175,0,0.349,0,0.524c0.346,0,0.695,0,1.047,0
		c0.174,0.35,0.35,0.7,0.525,1.049c0.699,0.175,1.396,0.35,2.096,0.525c0.35,0.523,0.699,1.048,1.049,1.572c0.35,0,0.699,0,1.049,0
		c0.174,0.525,0.35,1.049,0.525,1.574c0.873,0.699,1.748,1.399,2.621,2.097c0,0.35,0,0.699,0,1.049c0.174,0,0.348,0,0.523,0
		c0.174,0.524,0.35,1.048,0.525,1.573c0.523,0.349,1.051,0.699,1.572,1.049c0.174,0.698,0.35,1.397,0.523,2.097
		c0.176,0,0.352,0,0.525,0c0.35,1.048,0.699,2.096,1.049,3.146c0.174,0,0.35,0,0.523,0c0,0.524,0,1.049,0,1.572
		c0.176,0,0.35,0,0.525,0c0,0.524,0,1.049,0,1.574c0.176,0,0.35,0,0.525,0c0,0.525,0,1.048,0,1.573c0.176,0,0.348,0,0.523,0
		c0,0.524,0,1.049,0,1.573c0.174,0,0.348,0,0.523,0c0,1.049,0,2.097,0,3.146c0.176,0,0.35,0,0.525,0
		c-0.176,0.525-0.35,1.049-0.525,1.573c0.176,0.524,0.35,1.049,0.525,1.572c-0.176,0-0.35,0-0.525,0
		c-0.176,3.671-0.35,7.342-0.523,11.012c-0.176,0-0.348,0-0.523,0c0,0.525,0,1.049,0,1.573c-0.176,0-0.35,0-0.525,0
		c0,0.524,0,1.049,0,1.572c-0.176,0-0.35,0-0.525,0c-0.174,1.225-0.35,2.448-0.523,3.671c-0.35,0.176-0.699,0.35-1.049,0.525
		c0,0.349,0,0.698,0,1.048c-0.174,0-0.35,0-0.525,0c-0.613,0.785-0.725,0.929-1.045,2.097c-0.352,0-0.701,0-1.051,0
		c-0.176,0.524-0.352,1.049-0.525,1.574c-1.047,0.873-2.098,1.749-3.145,2.622c-0.176,0.35-0.352,0.698-0.525,1.048
		c-0.699,0.175-1.398,0.35-2.098,0.524c0,0.175,0,0.35,0,0.525c-0.35,0-0.699,0-1.049,0c-0.176,0.35-0.348,0.698-0.523,1.048
		c-0.35,0-0.699,0-1.049,0c0,0.175,0,0.351,0,0.524c-0.527,0-1.047,0-1.572,0c0,0.174,0,0.349,0,0.525c-0.352,0-0.699,0-1.051,0
		c0,0.174,0,0.349,0,0.525c-2.271,0.348-4.545,0.698-6.816,1.048c0,0.174,0,0.35,0,0.524c-1.748,0-3.494,0-5.242,0
		c0,0.175,0,0.35,0,0.525l-0.525-0.525c-0.525,0.175-1.047,0.35-1.572,0.525c0-0.176,0-0.351,0-0.525c-0.7,0-1.4,0-2.097,0
		c0-0.175,0-0.351,0-0.524c-0.524,0-1.05,0-1.575,0c0-0.175,0-0.35,0-0.525c-0.697,0-1.396,0-2.097,0
		c-0.175-0.349-0.348-0.698-0.522-1.047c-0.525,0-1.05,0-1.574,0c-0.175-0.351-0.348-0.699-0.523-1.049c-0.524,0-1.049,0-1.574,0
		c0-0.174,0-0.35,0-0.525c-0.35,0-0.698,0-1.049,0c0-0.174,0-0.349,0-0.523c-0.349,0-0.699,0-1.049,0
		c-0.176-0.35-0.35-0.699-0.523-1.049c-0.35,0-0.699,0-1.049,0c-0.35-0.525-0.7-1.048-1.049-1.573c-0.174,0-0.35,0-0.523,0
		c0-0.349,0-0.699,0-1.049c-0.525-0.349-1.051-0.698-1.574-1.048c0-0.349,0-0.699,0-1.049c-0.348-0.175-0.698-0.349-1.049-0.524
		c-0.174-0.524-0.35-1.047-0.524-1.573c-0.175,0-0.349,0-0.524,0c-0.176-0.699-0.348-1.399-0.523-2.098
		c-0.349-0.175-0.699-0.349-1.049-0.523c-0.176-0.7-0.35-1.399-0.525-2.099c-0.175,0-0.348,0-0.522,0c0-0.699,0-1.397,0-2.097
		c-0.175,0-0.351,0-0.524,0c0-0.524,0-1.049,0-1.572c-0.176,0-0.352,0-0.525,0c0-0.701,0-1.399,0-2.098c-0.175,0-0.351,0-0.525,0
		c0-0.874,0-1.749,0-2.622C376.83,149.165,375.527,143.308,376.405,140.188z M242.696,174.271c0.174,0,0.349,0,0.525,0
		c0-0.699,0-1.399,0-2.098c0.174,0,0.349,0,0.525,0c0-0.525,0-1.049,0-1.574c0.348-0.174,0.697-0.35,1.046-0.523
		c0-0.7,0-1.399,0-2.098c0.176,0,0.351,0,0.525,0c0-0.35,0-0.699,0-1.048c0.176,0,0.351,0,0.526,0c0-0.525,0-1.049,0-1.574
		c0.172,0,0.348,0,0.522,0c0.174-0.699,0.35-1.398,0.523-2.097c0.176,0,0.351,0,0.525,0c0-0.699,0-1.398,0-2.097
		c0.351-0.175,0.701-0.35,1.049-0.525c0-0.523,0-1.049,0-1.572c0.174,0,0.349,0,0.525,0c0.174-0.698,0.349-1.399,0.525-2.098
		c0.174,0,0.349,0,0.525,0c0.174-1.048,0.348-2.097,0.522-3.146c0.174,0,0.35,0,0.525,0c0-0.35,0-0.7,0-1.049
		c0.174,0,0.35,0,0.525,0c0-0.35,0-0.7,0-1.048c0.174,0,0.35,0,0.525,0c0.35-1.049,0.698-2.097,1.047-3.146c0.176,0,0.35,0,0.525,0
		c0-0.875,0-1.749,0-2.622c0.174,0,0.35,0,0.525,0c0-0.525,0-1.048,0-1.574c0.174,0,0.35,0,0.522,0c0-0.348,0-0.699,0-1.048
		c0.176,0,0.35,0,0.526,0c0.175-0.699,0.349-1.398,0.525-2.097c0.173,0,0.348,0,0.524,0c0-0.699,0-1.398,0-2.097
		c0.174,0,0.349,0,0.525,0c0.348-1.049,0.698-2.098,1.047-3.146c0.176,0,0.35,0,0.525,0c0-0.35,0-0.698,0-1.048
		c0.174,0,0.35,0,0.525,0c0.172-0.874,0.348-1.748,0.522-2.622c0.35-0.174,0.699-0.349,1.05-0.524c0-0.699,0-1.398,0-2.097
		c0.174,0,0.35,0,0.525,0c0-0.525,0-1.048,0-1.573c0.176,0,0.348,0,0.522,0c0-0.7,0-1.398,0-2.097c0.176,0,0.35,0,0.525,0
		c0-0.351,0-0.699,0-1.049c0.35-0.175,0.701-0.35,1.05-0.524c0.176-1.048,0.348-2.098,0.523-3.147c0.175,0,0.349,0,0.525,0
		c0.175-0.699,0.349-1.397,0.525-2.097c0.175,0,0.349,0,0.524,0c0-0.524,0-1.049,0-1.572c0.176,0,0.35,0,0.523,0
		c0-0.35,0-0.7,0-1.048c0.175,0,0.349,0,0.525,0c0-0.525,0-1.049,0-1.574c0.771-1.092,4.668-0.583,5.769-1.572
		c0.873,0,1.747,0,2.62,0c0.322,0.582,0.897,0.803,1.05,1.049c0,0.349,0,0.699,0,1.048c0.176,0,0.351,0,0.525,0
		c0.348,1.573,0.697,3.146,1.047,4.719c0.175,0,0.351,0,0.525,0c0,0.525,0,1.048,0,1.573c0.176,0,0.351,0,0.525,0
		c0,0.524,0,1.049,0,1.574c0.176,0,0.351,0,0.524,0c0.173,1.048,0.349,2.097,0.523,3.146c0.175,0,0.351,0,0.525,0
		c0.175,1.048,0.351,2.097,0.525,3.146c0.175,0,0.351,0,0.522,0c0,0.349,0,0.699,0,1.048c0.176,0,0.351,0,0.525,0
		c0,0.699,0,1.399,0,2.098c0.176,0,0.351,0,0.525,0c0,0.35,0,0.699,0,1.048c0.176,0,0.351,0,0.525,0c0,0.524,0,1.049,0,1.574
		c0.176,0,0.351,0,0.525,0c0.173,1.397,0.348,2.796,0.524,4.195c0.174,0,0.349,0,0.525,0c0,0.349,0,0.699,0,1.048
		c0.174,0,0.349,0,0.525,0c0.174,1.398,0.349,2.797,0.525,4.196c0.172,0,0.348,0,0.522,0c0,0.35,0,0.698,0,1.048
		c0.174,0,0.349,0,0.525,0c0,0.523,0,1.048,0,1.572c0.174,0,0.349,0,0.525,0c0,0.525,0,1.05,0,1.574c0.174,0,0.35,0,0.525,0
		c0,0.525,0,1.048,0,1.573c0.174,0,0.348,0,0.522,0c0,0.524,0,1.049,0,1.573c0.174,0,0.349,0,0.523,0c0,0.525,0,1.049,0,1.574
		c0.176,0,0.351,0,0.525,0c0,0.35,0,0.698,0,1.048c0.176,0,0.351,0,0.526,0c0,0.524,0,1.049,0,1.573c0.174,0,0.348,0,0.522,0
		c0,0.35,0,0.7,0,1.049c0.174,0,0.35,0,0.523,0c0,0.525,0,1.048,0,1.573c0.176,0,0.351,0,0.525,0c0,0.523,0,1.049,0,1.572
		c0.351,0.175,0.701,0.35,1.049,0.525c0,0.525,0,1.048,0,1.574c0.174,0,0.349,0,0.525,0c0,0.523,0,1.048,0,1.572
		c0.174,0,0.349,0,0.525,0c0,0.525,0,1.048,0,1.573c0.174,0,0.349,0,0.525,0c0,0.35,0,0.699,0,1.049c0.174,0,0.349,0,0.522,0
		c0,0.524,0,1.048,0,1.572c0.174,0,0.35,0,0.525,0c0,0.35,0,0.701,0,1.049c0.174,0,0.35,0,0.525,0
		c0.774,1.736,0.149,2.345,1.572,3.67c-0.124,1.237-0.222,1.297-0.522,2.097c-2.798,0-5.595,0-8.391,0c0-0.175,0-0.349,0-0.522
		c-2.108-1.541-0.984-1.554-2.097-3.671c-0.175,0-0.351,0-0.522,0c-0.351-1.048-0.701-2.098-1.05-3.146c-0.176,0-0.351,0-0.525,0
		c0-0.524,0-1.048,0-1.573c-0.176,0-0.351,0-0.524,0c-0.174-0.698-0.349-1.398-0.525-2.097c-0.174,0-0.349,0-0.525,0
		c0-0.35,0-0.699,0-1.049c-0.349-0.174-0.699-0.35-1.05-0.523c0-0.525,0-1.049,0-1.574c-0.172,0-0.348,0-0.522,0
		c-0.877-0.875-3.655-1.585-5.769-1.048c0,0-0.213,0.746-1.572,0.523c0-0.174,0-0.349,0-0.523c-0.525,0.174-1.047,0.35-1.572,0.523
		c-1.05,0-2.097,0-3.148,0c0-0.174,0-0.349,0-0.523c-1.046,0.174-2.096,0.35-3.145,0.523c-0.759-0.08-0.829-0.767-2.097-0.523
		c0,0.174,0,0.35,0,0.523c-1.05-0.174-2.097-0.349-3.147-0.523c0,0.174,0,0.35,0,0.523c-0.525,0.175-1.047,0.35-1.572,0.525
		c-0.294,0.708-0.186,1.225-0.525,2.097c-0.175,0-0.349,0-0.525,0c0,0.699,0,1.398,0,2.097c-0.175,0-0.351,0-0.522,0
		c0,0.351,0,0.7,0,1.049c-0.176,0-0.351,0-0.525,0c-0.176,1.049-0.351,2.097-0.524,3.146c-0.176,0-0.35,0-0.525,0
		c-0.176,0.699-0.35,1.397-0.526,2.097c-0.172,0-0.348,0-0.522,0c0,0.525,0,1.048,0,1.573c-0.175,0-0.351,0-0.525,0
		c0,0.524,0,1.049,0,1.574c-0.062,0.117-0.779,0.506-1.05,1.048c-2.554,0.064-8.993,0.88-9.961,0c-0.176,0-0.351,0-0.525,0
		C242.346,175.318,242.521,174.796,242.696,174.271z M248.463,361.986c0,0.176,0,0.351,0,0.525
		c-1.923,0.174-3.845,0.349-5.767,0.523c0-0.175,0-0.35,0-0.523c-1.223,0-2.448,0-3.671,0c0-0.175,0-0.35,0-0.525
		c-0.699,0-1.399,0-2.097,0c0-0.175,0-0.349,0-0.523c-0.701-0.175-1.4-0.351-2.097-0.525c0-0.174,0-0.35,0-0.523
		c-0.349,0-0.699,0-1.05,0c-0.525-0.699-1.047-1.397-1.572-2.097c-0.35,0-0.699,0-1.05,0c-0.35-0.524-0.698-1.05-1.047-1.574
		c-0.35,0-0.701,0-1.05,0c-0.873-1.048-1.748-2.097-2.623-3.146c0-0.35,0-0.698,0-1.048c-0.347-0.176-0.697-0.35-1.046-0.525
		c-0.176-0.522-0.35-1.048-0.526-1.572c-0.175,0-0.349,0-0.525,0c0-0.35,0-0.698,0-1.049c-0.175,0-0.348,0-0.521,0
		c0-0.35,0-0.698,0-1.049c-0.174,0-0.35,0-0.525,0c0-0.523,0-1.049,0-1.573c-0.174,0-0.35,0-0.525,0c0-0.522,0-1.049,0-1.571
		c-0.176,0-0.35,0-0.525,0c0-0.352,0-0.7,0-1.05c-0.176,0-0.348,0-0.523,0c0-0.524,0-1.05,0-1.573c-0.175,0-0.349,0-0.524,0
		c0-0.525,0-1.048,0-1.572c-0.176,0-0.35,0-0.525,0c0-0.525,0-1.051,0-1.573c-0.176,0-0.35,0-0.525,0c0-1.574,0-3.147,0-4.72
		c-0.176,0-0.35,0-0.523,0c0-0.698,0-1.398,0-2.097c-0.175,0-0.349,0-0.525,0c0-1.748,0-3.496,0-5.244c-0.175,0-0.349,0-0.525,0
		c0-0.525,0-1.049,0-1.572c-0.175,0-0.349,0-0.525,0c-0.613-1.936,0.278-4.468,0.525-5.769c3.788-0.026,9.163-0.552,12.062,0.524
		c0.194,1.07,0.172,3.477,0.522,4.72c0.175,0,0.351,0,0.525,0c0,0.872,0,1.747,0,2.62c-0.174,0-0.35,0-0.525,0
		c0,0.176,0,0.351,0,0.524c0.175,0,0.351,0,0.525,0c0,1.225,0,2.448,0,3.672c0.175,0,0.351,0,0.525,0
		c0.175,2.271,0.351,4.544,0.525,6.815c0.173,0,0.348,0,0.522,0c0.175,0.874,0.351,1.749,0.525,2.623c0.175,0,0.351,0,0.525,0
		c0,0.35,0,0.698,0,1.048c0.176,0,0.351,0,0.525,0c0.176,0.699,0.348,1.398,0.524,2.097c0.173,0,0.348,0,0.523,0
		c0.525,0.7,1.05,1.399,1.572,2.098c0.876,0.606,1.203-0.006,2.097,1.05c2.676-0.004,5.222-0.673,6.295-2.099
		c0-0.349,0-0.698,0-1.049c0.873-0.698,1.747-1.397,2.62-2.097c0-0.525,0-1.048,0-1.572c0.349-0.175,0.699-0.35,1.05-0.525
		c0-0.35,0-0.699,0-1.048c0.349-0.176,0.699-0.35,1.047-0.525c0-0.698,0-1.397,0-2.097c0.174,0,0.35,0,0.525,0
		c0.174-1.572,0.35-3.147,0.525-4.719c0.174,0,0.35,0,0.525,0c0-0.7,0-1.398,0-2.098c0.174,0,0.35,0,0.522,0
		c0-1.399,0-2.797,0-4.194c0.176,0,0.35,0,0.525,0c0-2.798,0-5.594,0-8.392c0.176,0,0.35,0,0.525,0
		c-0.175-2.795-0.349-5.591-0.525-8.388c0-3.672,0-7.342,0-11.011c0.176-0.524,0.35-1.05,0.525-1.574c-0.175,0-0.349,0-0.525,0
		c-0.175-2.621-0.349-5.243-0.525-7.865c0-2.446,0-4.894,0-7.34c0.176,0,0.35,0,0.525,0c0.459-1.707-0.702-2.599-0.525-3.671
		c0.176,0,0.35,0,0.525,0c-0.175-1.573-0.349-3.146-0.525-4.719c0.176,0,0.35,0,0.525,0c0-1.922,0-3.847,0-5.77
		c-0.175,0-0.349,0-0.525,0c0-0.727,0.838-0.845,0.525-2.096c-0.175,0-0.349,0-0.525,0c0.176-4.894,0.35-9.789,0.525-14.682
		c-0.175,0-0.349,0-0.525,0c0.176-0.351,0.35-0.699,0.525-1.05c0.069-1.257-0.466-1.342-0.525-2.097
		c-0.08-1.062,0.525-1.049,0.525-1.049c0.326-1.474-0.41-1.353-0.525-1.572c0-0.176,0-0.351,0-0.525c0.176,0,0.35,0,0.525,0
		c0-0.698,0-1.398,0-2.098c-0.175,0-0.349,0-0.525,0c0.072-0.712,0.46-0.78,0.525-2.098c3.712-0.25,9.098-1.843,11.012,0
		c1.889,1.922,0.749,6.991,1.049,10.488c0.439,5.122,1.051,10.452,1.048,16.255c0,2.096,0,4.194,0,6.292c-0.176,0-0.35,0-0.525,0
		c0,4.194,0,8.39,0,12.583c-1.494,5.381-0.823,17.817,0.525,22.549c0.702,2.462-0.03,12.371-0.525,14.156c0,1.923,0,3.845,0,5.767
		c-0.173,0-0.348,0-0.523,0c0,3.496,0,6.992,0,10.488c-0.175,0-0.349,0-0.524,0c0,1.223,0,2.447,0,3.669c-0.176,0-0.35,0-0.525,0
		c0,0.701,0,1.399,0,2.099c-0.176,0-0.35,0-0.525,0c0,0.523,0,1.05,0,1.572c-0.176,0-0.348,0-0.523,0
		c-0.349,1.049-0.7,2.099-1.05,3.146c-0.175,0-0.349,0-0.525,0c0,0.351,0,0.701,0,1.049c-0.347,0.176-0.697,0.352-1.047,0.525
		c0,0.349,0,0.698,0,1.05c-0.175,0-0.351,0-0.525,0c-0.351,1.048-0.7,2.096-1.047,3.146c-0.874,0.699-1.75,1.397-2.622,2.097
		c0,0.35,0,0.698,0,1.05c-0.7,0.524-1.399,1.048-2.097,1.572c0,0.174,0,0.35,0,0.524c-0.351,0-0.7,0-1.05,0c0,0.176,0,0.35,0,0.524
		c-0.349,0-0.697,0-1.047,0c0,0.174,0,0.35,0,0.523c-0.525,0-1.05,0-1.575,0c-0.175,0.351-0.348,0.7-0.522,1.049
		C249.513,361.986,248.988,361.986,248.463,361.986z M276.254,485.732c-1.621-0.003-2.693-0.154-3.672-0.524
		c-0.873-4.019-1.748-8.041-2.621-12.061c-1.049,0-2.1,0-3.146,0c0-0.174,0-0.35,0-0.522c-0.174,0-0.35,0-0.525,0
		c0,0.173,0,0.349,0,0.522c-1.685,0.343-5.469,0.233-6.292-0.522c-1.047,0-2.097,0-3.145,0c0,0.173,0,0.349,0,0.522
		c-0.176,0-0.351,0-0.525,0c0,1.4,0,2.798,0,4.196c-0.739,2.459-1.632,5.073-1.575,8.389c-0.588,0.448-0.081-0.07-0.522,0.525
		c-1.225,0-2.448,0-3.672,0c0.047-6.068,0.243-8.177,1.575-12.586c0.174-2.096,0.35-4.194,0.522-6.291c0.176,0,0.35,0,0.525,0
		c0-0.525,0-1.049,0-1.573c0.176,0,0.35,0,0.525,0c0-0.874,0-1.748,0-2.621c0.174,0,0.35,0,0.525,0c0-1.224,0-2.447,0-3.671
		c0.174,0,0.35,0,0.522,0c0.176-1.223,0.35-2.447,0.526-3.671c0.175,0,0.349,0,0.525,0c0-0.699,0-1.397,0-2.097
		c0.173,0,0.348,0,0.524,0c0-0.351,0-0.699,0-1.049c0.174,0,0.349,0,0.525,0c0.172-2.099,0.348-4.195,0.522-6.291
		c0.176,0,0.35,0,0.525,0c0-0.7,0-1.4,0-2.099c0.176,0,0.35,0,0.525,0c0-0.525,0-1.049,0-1.572c0.174,0,0.35,0,0.525,0
		c0-0.525,0-1.05,0-1.573c0.172,0,0.348,0,0.522,0c0.35-2.099,0.699-4.196,1.05-6.293c0.174,0,0.35,0,0.525,0
		c0-1.05,0-2.098,0-3.147c0.176,0,0.348,0,0.522,0c0.525-1.922,1.05-3.845,1.575-5.767c1.046-0.314,0.45,0.072,1.048-0.524
		c0.525,0,1.049,0,1.572,0c0,0.175,0,0.351,0,0.524c1.378,1.453,0.354,3.432,1.05,5.767c0.175,0,0.351,0,0.525,0
		c0,0.876,0,1.75,0,2.624c0.173,0,0.349,0,0.521,0c0,1.397,0,2.796,0,4.192c0.176,0,0.35,0,0.525,0c0,1.225,0,2.448,0,3.672
		c0.176,0,0.35,0,0.526,0c0,1.049,0,2.098,0,3.146c0.175,0,0.349,0,0.525,0c0,1.572,0,3.146,0,4.719c0.175,0,0.349,0,0.524,0
		c0,0.699,0,1.399,0,2.098c0.173,0,0.348,0,0.523,0c0,0.524,0,1.048,0,1.573c0.175,0,0.349,0,0.525,0
		c0.175,1.397,0.349,2.797,0.525,4.194c0.175,0,0.349,0,0.525,0c0,1.748,0,3.496,0,5.244c0.172,0,0.348,0,0.522,0
		c0,0.873,0,1.747,0,2.621c0.175,0,0.351,0,0.525,0c0,1.048,0,2.098,0,3.146c0.175,0,0.351,0,0.525,0c0,0.524,0,1.049,0,1.573
		c0.175,0,0.351,0,0.525,0c0,0.525,0,1.05,0,1.573c0.175,0,0.348,0,0.522,0c0,1.048,0,2.098,0,3.145c0.175,0,0.351,0,0.525,0
		c0,0.876,0,1.75,0,2.624c0.176,0,0.351,0,0.525,0c0,0.698,0,1.397,0,2.097c0.176,0,0.351,0,0.525,0c0,1.225,0,2.447,0,3.671
		c0.176,0,0.348,0,0.522,0C276.654,484.873,276.556,484.931,276.254,485.732z M309.288,429.104c-3.671,0-7.341,0-11.011,0
		c-0.479,5.223,0,11.389,0,17.827c0,13.107,0,26.219,0,39.327c-1.399,0-2.797,0-4.197,0c-0.175-0.98-0.522-1.05-0.522-1.05
		c0-1.222,0-2.447,0-3.67c-0.176,0-0.351,0-0.525,0c0-0.7,0-1.398,0-2.098c-0.176,0-0.351,0-0.525,0
		c0.174-0.525,0.349-1.048,0.525-1.572c0-0.698,0-1.398,0-2.098c-0.176,0-0.351,0-0.525,0c0-2.447,0-4.894,0-7.341
		c0.174,0,0.349,0,0.525,0c0-0.175,0-0.351,0-0.524c-0.176,0-0.351,0-0.525,0c0-0.874,0-1.749,0-2.62
		c-0.051-6.32,0.051-12.902,0-17.83c0-4.194,0-8.39,0-12.584c0.174-0.523,0.349-1.05,0.525-1.572c-0.176,0-0.351,0-0.525,0
		c0-1.225,0-2.447,0-3.671c-0.176,0-0.351,0-0.525,0c0-0.176,0-0.349,0-0.524c-0.873,0.176-1.747,0.349-2.62,0.524
		c-2.448,0-4.895,0-7.343,0c0-0.176,0-0.349,0-0.524c-0.174,0-0.349,0-0.525,0c0,0.176,0,0.349,0,0.524c-0.349,0-0.697,0-1.047,0
		c-0.459-1.198-0.557-2.319-0.525-4.195c1.047-0.175,2.097-0.351,3.147-0.523c0-0.176,0-0.35,0-0.525
		c0.873,0.176,1.748,0.35,2.621,0.525c0-0.176,0-0.35,0-0.525c1.747,0,3.496,0,5.243,0c0-0.175,0-0.351,0-0.523
		c2.738-0.748,5.391,1.685,7.343,0c3.644-0.025,8.767-0.503,11.534,0.523c0,0.874,0,1.748,0,2.622c0.175,0,0.351,0,0.525,0
		C310.013,428.278,309.784,428.159,309.288,429.104z M319.776,361.463c-0.378-1.851-1.069-4.12-1.576-5.768
		c-0.172-1.748-0.348-3.496-0.522-5.244c-0.174,0-0.349,0-0.525,0c-0.174-2.271-0.349-4.544-0.525-6.816c-0.174,0-0.35,0-0.525,0
		c-0.522-2.796-1.047-5.594-1.572-8.389c-0.699-0.176-1.397-0.351-2.097-0.525c0-0.175,0-0.351,0-0.524
		c-0.881-0.199-0.929,0.499-1.048,0.524c-1.049,0-2.097,0-3.146,0c-5.614,0.028-11.026,0.41-14.159,0c0,0.175,0,0.35,0,0.525
		c-0.173,0-0.348,0-0.522,0c-1.165,2.798-1.711,6.987-2.624,9.963c0,1.049,0,2.096,0,3.145c-0.174,0-0.349,0-0.525,0
		c0,1.049,0,2.098,0,3.147c-0.173,0-0.349,0-0.523,0c0,0.872,0,1.746,0,2.62c-0.175,0-0.348,0-0.522,0c0,1.574,0,3.147,0,4.72
		c-0.176,0-0.351,0-0.526,0c-0.174,1.049-0.349,2.097-0.525,3.146c-2.135,0.146-10.409,1.507-12.058,0
		c-0.604-0.89,0.314-6.635,0.522-8.913c0.351-2.272,0.7-4.545,1.05-6.815c0.176,0,0.351,0,0.525,0c0-1.225,0-2.447,0-3.672
		c0.176,0,0.351,0,0.524,0c0-0.698,0-1.397,0-2.098c0.173,0,0.349,0,0.523,0c0.175-1.573,0.351-3.146,0.525-4.719
		c0.175,0,0.351,0,0.525,0c0-1.224,0-2.447,0-3.67c0.175,0,0.351,0,0.522,0c0-1.398,0-2.798,0-4.196c0.176,0,0.351,0,0.525,0
		c0-1.224,0-2.446,0-3.67c0.176,0,0.351,0,0.525,0c0-0.872,0-1.748,0-2.622c1.72-5.545,2.555-12.228,4.196-17.827
		c0-1.397,0-2.796,0-4.195c0.174,0,0.349,0,0.525,0c0-1.049,0-2.096,0-3.146c0.174,0,0.35,0,0.525,0
		c0.174-2.098,0.348-4.194,0.522-6.292c0.174,0,0.349,0,0.523,0c0-0.872,0-1.746,0-2.622c0.176,0,0.351,0,0.525,0
		c0-0.698,0-1.397,0-2.098c0.176,0,0.351,0,0.526,0c0-1.396,0-2.796,0-4.193c0.174,0,0.348,0,0.522,0c0-0.699,0-1.399,0-2.098
		c0.174,0,0.35,0,0.523,0c0-0.699,0-1.398,0-2.098c0.176,0,0.351,0,0.525,0c0-0.698,0-1.398,0-2.098c0.176,0,0.351,0,0.526,0
		c0-0.873,0-1.748,0-2.622c0.174,0,0.349,0,0.522,0c0-0.523,0-1.049,0-1.572c0.174,0,0.349,0,0.525,0
		c0.174-2.797,0.349-5.593,0.525-8.39c0.174,0,0.349,0,0.525,0c0-1.049,0-2.099,0-3.146c0.174,0,0.349,0,0.522,0
		c0-1.05,0-2.099,0-3.147c0.174,0,0.35,0,0.525,0c0-0.698,0-1.398,0-2.096c0.174,0,0.35,0,0.525,0c0-0.875,0-1.748,0-2.623
		c0.174,0,0.35,0,0.525,0c0-0.524,0-1.048,0-1.572c0.174,0,0.35,0,0.525,0c0-1.225,0-2.448,0-3.671c0.173,0,0.348,0,0.522,0
		c0-0.874,0-1.748,0-2.621c0.176,0,0.35,0,0.525,0c0.174-1.225,0.35-2.447,0.525-3.672c0.174,0,0.35,0,0.525,0
		c0.173-0.349,0.348-0.698,0.523-1.049c4.281-0.025,7.637-0.615,11.011,0c0.175,0.7,0.351,1.399,0.525,2.099
		c0.175,0,0.351,0,0.525,0c0.175,1.747,0.349,3.495,0.524,5.243c0.173,0,0.348,0,0.523,0c0,0.524,0,1.049,0,1.573
		c0.175,0,0.349,0,0.525,0c0,1.049,0,2.098,0,3.146c0.175,0,0.349,0,0.525,0c0,1.049,0,2.098,0,3.147c0.175,0,0.349,0,0.525,0
		c0,0.697,0,1.397,0,2.096c0.175,0,0.348,0,0.522,0c0.175,2.797,0.351,5.595,0.525,8.389c1.62,5.418,2.029,12.299,3.669,17.83
		c0,1.223,0,2.447,0,3.67c0.176,0,0.351,0,0.525,0c0,1.223,0,2.448,0,3.67c0.176,0,0.351,0,0.526,0c0,1.223,0,2.446,0,3.671
		c0.174,0,0.349,0,0.525,0c0,1.048,0,2.097,0,3.146c0.174,0,0.348,0,0.521,0c0,0.699,0,1.398,0,2.097c0.175,0,0.351,0,0.525,0
		c0,1.399,0,2.797,0,4.196c0.175,0,0.351,0,0.525,0c0,0.698,0,1.397,0,2.096c0.176,0,0.351,0,0.525,0
		c0.176,1.573,0.351,3.148,0.525,4.721c0.172,0,0.348,0,0.522,0c0,0.872,0,1.748,0,2.622c0.175,0,0.351,0,0.525,0
		c0,0.522,0,1.048,0,1.572c0.175,0,0.351,0,0.525,0c0.525,4.544,1.047,9.089,1.572,13.633c0.176,0,0.351,0,0.525,0
		c0,0.699,0,1.398,0,2.098c0.176,0,0.351,0,0.525,0c0,0.524,0,1.049,0,1.572c0.176,0,0.348,0,0.524,0c0,1.05,0,2.099,0,3.146
		c0.174,0,0.349,0,0.525,0c0,0.874,0,1.748,0,2.622c0.174,0,0.349,0,0.525,0c0,1.398,0,2.798,0,4.195c0.174,0,0.349,0,0.525,0
		c0,0.698,0,1.396,0,2.096c0.174,0,0.348,0,0.522,0c0,1.05,0,2.1,0,3.148c0.174,0,0.349,0,0.523,0c0,1.047,0,2.096,0,3.145
		c0.176,0,0.351,0,0.526,0c0,1.223,0,2.447,0,3.671c0.174,0,0.35,0,0.525,0c0.35,2.622,0.698,5.244,1.046,7.864
		C328.763,361.467,324.619,361.519,319.776,361.463z M330.262,174.796c-0.136-0.067-1.989-2.91-2.097-3.147c0-0.524,0-1.049,0-1.572
		c-0.176,0-0.351,0-0.525,0c0-0.351,0-0.7,0-1.049c-0.351-0.175-0.701-0.35-1.049-0.525c0-0.349,0-0.698,0-1.048
		c-0.174,0-0.349,0-0.525,0c0-0.524,0-1.049,0-1.574c-0.174,0-0.349,0-0.525,0c0-0.524,0-1.047,0-1.573c-0.174,0-0.349,0-0.525,0
		c0-0.35,0-0.699,0-1.049c-0.174,0-0.349,0-0.522,0c0-0.523,0-1.049,0-1.572c-0.174,0-0.349,0-0.525,0
		c-0.174-0.7-0.35-1.399-0.525-2.099c-0.174,0-0.35,0-0.525,0c0-0.523,0-1.049,0-1.572c-0.174,0-0.35,0-0.522,0
		c0-0.351,0-0.699,0-1.049c-0.174,0-0.349,0-0.525,0c-0.174-1.223-0.349-2.447-0.525-3.67c-0.174,0-0.35,0-0.525,0
		c-0.174-0.699-0.35-1.398-0.525-2.097c-0.173,0-0.347,0-0.521,0c-0.176-0.874-0.351-1.748-0.525-2.621c-0.176,0-0.351,0-0.526,0
		c-0.349-1.574-0.697-3.147-1.047-4.72c-0.174,0-0.349,0-0.525,0c-0.174-0.874-0.349-1.749-0.525-2.622c-0.174,0-0.35,0-0.525,0
		c0-0.349,0-0.699,0-1.049c-0.174,0-0.348,0-0.522,0c0-0.523,0-1.048,0-1.573c-0.35-0.174-0.699-0.35-1.05-0.524
		c0-0.35,0-0.699,0-1.049c-0.174,0-0.35,0-0.525,0c0-0.524,0-1.049,0-1.572c-0.174,0-0.348,0-0.522,0c0-0.35,0-0.7,0-1.05
		c-0.176,0-0.35,0-0.525,0c0-0.349,0-0.699,0-1.049c-0.176,0-0.35,0-0.525,0c-0.35-1.048-0.701-2.097-1.048-3.146
		c-0.175,0-0.349,0-0.524,0c-0.525-1.571-1.05-3.145-1.573-4.718c-0.349-0.175-0.698-0.351-1.049-0.525c0-0.698,0-1.398,0-2.097
		c-0.174,0-0.35,0-0.525,0c0-0.351,0-0.698,0-1.049c-0.174,0-0.35,0-0.525,0c-0.173-1.048-0.348-2.097-0.523-3.146
		c-0.349-0.175-0.7-0.349-1.049-0.525c0-0.873,0-1.747,0-2.621c1.98-0.118,4.163-0.988,5.244,0c1.647-0.051,5.005-0.407,5.767,0.524
		c0.176,0.874,0.351,1.749,0.525,2.622c0.176,0,0.351,0,0.525,0c0,0.35,0,0.699,0,1.049c0.175,0,0.351,0,0.522,0
		c0.176,1.049,0.351,2.097,0.525,3.146c0.176,0,0.351,0,0.526,0c0.174,1.049,0.349,2.097,0.525,3.146c0.174,0,0.348,0,0.521,0
		c0.175,0.699,0.351,1.397,0.525,2.097c0.175,0,0.351,0,0.525,0c0,0.525,0,1.048,0,1.573c0.176,0,0.351,0,0.525,0
		c0,0.349,0,0.699,0,1.048c0.176,0,0.351,0,0.525,0c0,0.524,0,1.049,0,1.573c0.172,0,0.348,0,0.522,0
		c0.175,0.7,0.351,1.398,0.525,2.097c0.175,0,0.351,0,0.525,0c0.176,1.05,0.351,2.098,0.525,3.147c0.173,0,0.348,0,0.522,0
		c0,0.35,0,0.699,0,1.048c0.176,0,0.351,0,0.525,0c0.176,1.223,0.351,2.448,0.525,3.671c0.176,0,0.351,0,0.525,0
		c0,0.524,0,1.048,0,1.573c0.176,0,0.348,0,0.524,0c0,0.35,0,0.699,0,1.049c0.174,0,0.349,0,0.525,0c0,0.523,0,1.048,0,1.571
		c0.174,0,0.349,0,0.525,0c0,0.525,0,1.049,0,1.574c0.349,0.175,0.699,0.35,1.047,0.525c0.174,0.874,0.349,1.748,0.523,2.621
		c0.176,0,0.351,0,0.526,0c0.768,1.873,1.113,3.671,1.047,6.292c0.591,0.449,0.083-0.07,0.523,0.525c0.525,0,1.051,0,1.574,0
		c0-0.176,0-0.351,0-0.525c1.188-1.065,0.393-1.163,1.05-2.622c0.174,0,0.349,0,0.525,0c0-0.35,0-0.699,0-1.048
		c0.174,0,0.349,0,0.525,0c0-0.525,0-1.049,0-1.574c0.172,0,0.348,0,0.522,0c0.35-1.573,0.699-3.146,1.05-4.72
		c0.174,0,0.35,0,0.525,0c0.348-1.049,0.698-2.097,1.047-3.146c0.174,0,0.35,0,0.525,0c0.701-2.096,1.397-4.194,2.097-6.292
		c0.35-0.174,0.701-0.35,1.048-0.524c0-0.7,0-1.398,0-2.097c0.175,0,0.349,0,0.525,0c0.349-1.05,0.698-2.099,1.049-3.147
		c0.174,0,0.35,0,0.522,0c0-0.349,0-0.699,0-1.049c0.176,0,0.35,0,0.525,0c0-0.524,0-1.049,0-1.572c0.176,0,0.35,0,0.525,0
		c0-0.35,0-0.7,0-1.048c0.35-0.175,0.701-0.351,1.047-0.525c0-0.349,0-0.7,0-1.049c0.176,0,0.35,0,0.526,0
		c0.175-1.048,0.349-2.098,0.525-3.146c0.175,0,0.349,0,0.525,0c0-0.351,0-0.699,0-1.049c0.349-0.175,0.697-0.351,1.047-0.524
		c0-0.349,0-0.699,0-1.049c0.175,0,0.351,0,0.525,0c0-0.348,0-0.699,0-1.048c0.175,0,0.35,0,0.523,0c0-0.524,0-1.049,0-1.573
		c0.176,0,0.351,0,0.526,0c0-0.349,0-0.699,0-1.048c0.173,0,0.349,0,0.522,0c0-0.35,0-0.7,0-1.048c0.175,0,0.351,0,0.525,0
		c0.176-0.525,0.35-1.049,0.523-1.574c3.084-0.025,7.188-0.313,9.439,0.525c-0.133,4.572-1.758,6.824-3.146,9.963
		c0,0.524,0,1.049,0,1.573c-0.175,0-0.351,0-0.525,0c-0.174,0.7-0.35,1.398-0.525,2.097c-0.173,0-0.348,0-0.521,0
		c0,0.525,0,1.048,0,1.573c-0.176,0-0.351,0-0.525,0c0,0.351,0,0.699,0,1.049c-0.176,0-0.35,0-0.525,0c0,0.524,0,1.049,0,1.572
		c-0.176,0-0.35,0-0.524,0c0,0.35,0,0.7,0,1.049c-0.176,0-0.348,0-0.523,0c0,0.525,0,1.05,0,1.573c-0.175,0-0.349,0-0.524,0
		c-0.174,0.699-0.35,1.399-0.524,2.098c-0.175,0-0.351,0-0.524,0c0,0.35,0,0.698,0,1.049c-0.176,0-0.348,0-0.523,0
		c0,0.525,0,1.048,0,1.573c-0.176,0-0.35,0-0.525,0c0,0.349,0,0.699,0,1.049c-0.174,0-0.348,0-0.523,0
		c-0.175,0.699-0.351,1.397-0.525,2.097c-0.174,0-0.35,0-0.522,0c-0.176,1.049-0.351,2.098-0.526,3.146c-0.174,0-0.349,0-0.523,0
		c0,0.351,0,0.699,0,1.049c-0.174,0-0.35,0-0.525,0c-0.176,0.874-0.35,1.748-0.522,2.622c-0.176,0-0.35,0-0.525,0
		c-0.176,1.049-0.35,2.098-0.525,3.146c-0.176,0-0.35,0-0.525,0c-0.176,0.874-0.35,1.747-0.526,2.621c-0.172,0-0.347,0-0.522,0
		c-0.175,0.7-0.349,1.398-0.525,2.097c-0.175,0-0.349,0-0.525,0c0,0.525,0,1.049,0,1.574c-0.349,0.174-0.697,0.35-1.047,0.523
		c0,0.35,0,0.7,0,1.05c-0.175,0-0.351,0-0.525,0c0,0.349,0,0.699,0,1.049c-0.175,0-0.349,0-0.524,0c0,0.523,0,1.048,0,1.572
		c-0.176,0-0.35,0-0.525,0c0,0.35,0,0.699,0,1.048c-0.176,0-0.348,0-0.523,0c-0.175,1.049-0.351,2.098-0.525,3.146
		c-0.874,1.922-1.747,3.846-2.622,5.769c-1.891-0.053-5.278-0.412-6.293,0.525C331.659,174.796,330.961,174.796,330.262,174.796z
		 M359.624,485.732c-1.154-1.271-0.365-4.454-1.047-6.292c-0.175,0-0.351,0-0.525,0c0-0.35,0-0.7,0-1.048c-0.174,0-0.35,0-0.525,0
		c0-0.875,0-1.748,0-2.622c-0.173,0-0.348,0-0.521,0c-0.176-1.223-0.351-2.447-0.525-3.671c-0.014-0.026-0.809-0.555-1.05-1.048
		c-5.31-0.004-8.022,0.184-12.059-0.525c-0.513,0.631-1.359,1.187-2.097,1.573c-0.807,4.091-2.125,9.055-2.097,13.633
		c-1.707,0.204-2.646,0.169-4.719,0.525c0-0.175,0-0.35,0-0.525c-0.176,0-0.351,0-0.525,0c0.135-3.006,0.885-5.039,1.575-7.34
		c0.348-3.321,0.697-6.643,1.047-9.963c0.174,0,0.35,0,0.525,0c0-0.524,0-1.049,0-1.574c0.174,0,0.35,0,0.525,0
		c0-0.349,0-0.699,0-1.048c0.173,0,0.348,0,0.522,0c0-0.522,0-1.049,0-1.572c0.176,0,0.35,0,0.525,0c0-1.572,0-3.147,0-4.72
		c0.174,0,0.35,0,0.525,0c0-0.524,0-1.049,0-1.573c0.176,0,0.35,0,0.525,0c0-0.874,0-1.748,0-2.622c0.176,0,0.348,0,0.523,0
		c0-0.698,0-1.396,0-2.098c0.175,0,0.349,0,0.524,0c0-1.048,0-2.097,0-3.146c0.174,0,0.35,0,0.525,0c0-0.351,0-0.699,0-1.049
		c0.174,0,0.35,0,0.525,0c0-0.875,0-1.748,0-2.62c0.176,0,0.348,0,0.523,0c0-0.7,0-1.4,0-2.099c0.175,0,0.349,0,0.525,0
		c0-1.224,0-2.447,0-3.671c0.175,0,0.349,0,0.524,0c0-0.523,0-1.049,0-1.573c0.174,0,0.35,0,0.525,0c0-0.698,0-1.396,0-2.098
		c0.174,0,0.35,0,0.522,0c0-0.875,0-1.746,0-2.62c0.997-3.09,2.551-6.538,3.148-9.964c1.222,0,2.447,0,3.669,0
		c0.175,1.572,0.351,3.146,0.525,4.72c0.176,0,0.35,0,0.523,0c0,0.524,0,1.05,0,1.573c0.176,0,0.35,0,0.525,0
		c0,1.397,0,2.797,0,4.194c0.176,0,0.348,0,0.523,0c0,0.699,0,1.397,0,2.097c0.174,0,0.35,0,0.524,0c0,0.525,0,1.05,0,1.572
		c0.175,0,0.351,0,0.524,0c0.176,1.574,0.35,3.147,0.524,4.721c0.176,0,0.348,0,0.523,0c0.175,1.573,0.349,3.147,0.524,4.718
		c0.176,0,0.35,0,0.525,0c0,0.701,0,1.399,0,2.099c0.175,0,0.35,0,0.525,0c0.174,1.924,0.349,3.847,0.521,5.768
		c0.176,0,0.352,0,0.525,0c0.175,1.747,0.351,3.495,0.525,5.243c0.174,0,0.35,0,0.524,0c0,0.525,0,1.05,0,1.575
		c0.175,0,0.351,0,0.522,0c0,0.696,0,1.396,0,2.096c0.176,0,0.351,0,0.525,0c0,0.874,0,1.748,0,2.622c0.176,0,0.35,0,0.524,0
		c0,1.223,0,2.447,0,3.671c0.176,0,0.351,0,0.524,0c0.176,1.398,0.35,2.796,0.525,4.192c1.059,3.12,2.607,7.025,2.619,11.014
		C362.715,486.304,360.459,486.513,359.624,485.732z M388.463,486.258c-2.518-0.054-8.516-0.787-9.961,0.523
		c-2.07,0.053-6.205,0.518-7.342-0.523c-0.904-0.913-1.68-5.577-1.047-7.865c0.174,0,0.349,0,0.521,0c0-1.398,0-2.798,0-4.195
		c-0.803-2.887,0-6.528,0-10.488c0-7.513,0-15.03,0-22.545c-0.002-2.674-1.346-8.969,0-10.487c-0.023-2.394-0.085-5.19,0.525-6.816
		c1.05,0,2.098,0,3.146,0c0.953,5.155,0.486,12.345,0.525,18.352c0.174,3.32,0.347,6.643,0.522,9.963c-0.176,0-0.349,0-0.522,0
		c0,1.922,0,3.845,0,5.768c0.174,0,0.347,0,0.522,0c0,2.271,0,4.543,0,6.816c-0.176,0-0.349,0-0.522,0
		c-0.165,1.065,0.522,1.049,0.522,1.049c-0.176,2.271-0.349,4.544-0.522,6.817c0.174,1.047,0.347,2.097,0.522,3.146
		c-0.176,0-0.349,0-0.522,0c0,1.399,0,2.797,0,4.194c0.174,0,0.347,0,0.522,0c0,0.175,0,0.351,0,0.523c0.524,0,1.05,0,1.575,0
		c0,0.176,0,0.35,0,0.525c3.786-0.027,9.16-0.551,12.058,0.524C388.813,483.11,388.639,484.685,388.463,486.258z M390.561,359.89
		c0,0.176,0,0.35,0,0.524c-0.873,0-1.748,0-2.621,0c0-0.175,0-0.349,0-0.524c-1.869-0.55-2.296-0.139-3.672,0
		c-0.174-0.524-0.349-1.049-0.523-1.572c-0.174,0-0.348,0-0.522,0c0-0.351,0-0.7,0-1.05c-0.176,0-0.351,0-0.526,0
		c0-0.35,0-0.698,0-1.05c-0.35-0.174-0.699-0.349-1.049-0.522c-0.348-1.748-0.697-3.496-1.048-5.244c-0.175,0-0.349,0-0.524,0
		c0-0.35,0-0.698,0-1.049c-0.176,0-0.35,0-0.525,0c0-0.525,0-1.049,0-1.572c-0.175,0-0.348,0-0.522,0c0-0.525,0-1.05,0-1.572
		c-0.175,0-0.351,0-0.524,0c0-0.351,0-0.701,0-1.049c-0.176,0-0.352,0-0.525,0c0-0.7,0-1.398,0-2.1c-0.175,0-0.351,0-0.525,0
		c0-0.873,0-1.747,0-2.621c-0.174,0-0.35,0-0.521,0c0-0.525,0-1.048,0-1.573c-0.176,0-0.352,0-0.525,0
		c-0.176-0.698-0.351-1.397-0.525-2.097c-0.176,0-0.35,0-0.524,0c-0.176-1.223-0.349-2.448-0.522-3.67c-0.175,0-0.351,0-0.525,0
		c-0.174-1.049-0.35-2.099-0.524-3.146c-0.176,0-0.351,0-0.524,0c0-0.35,0-0.7,0-1.05c-0.176,0-0.352,0-0.525,0
		c-0.348-1.572-0.697-3.145-1.047-4.719c-0.176,0-0.352,0-0.525,0c0-0.35,0-0.699,0-1.048c-0.176,0-0.351,0-0.525,0
		c0-0.525,0-1.049,0-1.574c-0.173,0-0.348,0-0.521,0c-0.176-1.048-0.352-2.097-0.525-3.146c-0.351-0.175-0.701-0.351-1.05-0.524
		c-0.176-0.698-0.349-1.396-0.524-2.098c-0.349-0.175-0.699-0.348-1.049-0.523c-0.175-0.699-0.35-1.397-0.525-2.098
		c-1.047-0.874-2.098-1.748-3.143-2.622c-0.176-0.349-0.352-0.698-0.527-1.048c-0.349,0-0.699,0-1.047,0
		c-0.176-0.351-0.35-0.7-0.525-1.05c-1.699-0.857-1.354,0.816-2.621-1.048c-1.695,0.204-1.532,0.475-2.623,1.048
		c0,0.875,0,1.749,0,2.623c0.176,0,0.35,0,0.525,0c0,4.367,0,8.737,0,13.107c0.175,0,0.35,0,0.525,0c0,0.176,0,0.35,0,0.524
		c0.643,3.864-0.775,9.011,0.521,12.061c-0.074,0.737-0.408-0.208-0.521,0.524c0,2.098,0,4.195,0,6.292
		c0.004,5.982,1.434,12.745-0.525,17.828c-3.109,0.577-7.638,0.562-11.537,0.523c-0.405-2.248-0.518-5.407-0.525-8.39
		c0-1.397,0-2.797,0-4.194c-0.172,0-0.348,0-0.522,0c0-2.446,0-4.894,0-7.342c0,0-0.525,0.11-0.525-1.047
		c0-1.217,0.984-1.988,0.525-3.671c-0.175,0-0.351,0-0.525,0c0-1.398,0-2.797,0-4.194c0-5.593,0-11.188,0-16.779
		c-1.427-4.936,0.557-12.139-0.524-17.829c-0.176,0-0.35,0-0.525,0c0-0.174,0-0.348,0-0.522c0.175,0,0.349,0,0.525,0
		c0-1.922,0-3.848,0-5.769c-0.72-2.489,0.226-6.841-0.525-9.962c-0.176,0-0.348,0-0.523,0c-0.149-0.828,0.514-0.988,0.523-1.049
		c-0.176-1.049-0.348-2.098-0.523-3.147c0-3.146,0-6.291,0-9.437c-0.175,0-0.351,0-0.525,0c-0.725-2.634,0.487-5.749,0.525-8.915
		c0-2.622,0-5.244,0-7.865c0.176,0,0.348,0,0.523,0c0.148-0.883-0.494-0.909-0.523-1.049c0-1.048,0-2.097,0-3.146
		c0.176,0,0.348,0,0.523,0c-0.176-0.524-0.348-1.049-0.523-1.573c0.176-2.446,0.348-4.894,0.523-7.342
		c0.59-0.446,0.083,0.071,0.525-0.524c3.974-0.042,7.622-1.29,10.486-0.522c2.445,0,4.894,0,7.341,0c0,0.175,0,0.349,0,0.522
		c0.7,0,1.397,0,2.097,0c0,0.176,0,0.351,0,0.524c0.701,0.176,1.398,0.351,2.098,0.524c0,0.176,0,0.35,0,0.524
		c1.398,0.176,2.798,0.351,4.195,0.526c0.175,0.348,0.35,0.698,0.525,1.047c1.047,0.35,2.098,0.7,3.145,1.049
		c0.525,0.699,1.05,1.397,1.574,2.099c0.525,0,1.048,0,1.572,0c0.175,0.349,0.35,0.698,0.525,1.049c0.35,0,0.697,0,1.047,0
		c0.175,0.349,0.351,0.698,0.525,1.048c0.35,0,0.699,0,1.05,0c1.224,1.398,2.447,2.796,3.669,4.194
		c1.049,0.874,2.098,1.748,3.146,2.622c0.174,0.7,0.349,1.398,0.524,2.098c0.349,0.173,0.698,0.349,1.049,0.523
		c0,0.351,0,0.699,0,1.049c0.175,0,0.351,0,0.524,0c0.348,1.049,0.699,2.099,1.048,3.146c0.176,0,0.351,0,0.524,0
		c0.176,1.225,0.351,2.447,0.525,3.672c0.174,0,0.348,0,0.523,0c0,0.698,0,1.399,0,2.098c0.591,1.843,1.841,7.106,1.05,9.962
		c-0.176,0-0.351,0-0.524,0c0,2.097,0,4.195,0,6.293c-0.176,0-0.351,0-0.525,0c-0.176,1.047-0.35,2.097-0.523,3.145
		c-0.175,0-0.35,0-0.525,0c0,0.525,0,1.05,0,1.574c-0.349,0.175-0.699,0.348-1.049,0.523c0,0.35,0,0.7,0,1.049
		c-0.176,0-0.35,0-0.523,0c0,0.525,0,1.049,0,1.573c-0.174,0-0.35,0-0.524,0c0,0.351,0,0.698,0,1.049
		c-0.351,0.175-0.7,0.351-1.049,0.523c0,0.35,0,0.7,0,1.05c-0.698,0.524-1.399,1.049-2.099,1.572
		c-0.174,0.7-0.349,1.399-0.523,2.098c-0.348,0.175-0.698,0.351-1.049,0.524c-0.873,1.05-1.746,2.098-2.621,3.146
		c-3.145,1.048-6.292,2.097-9.439,3.146c0.862,1.26,0.403,0.328,1.575,1.05c0,0.173,0,0.349,0,0.522c0.351,0,0.696,0,1.048,0
		c0,0.176,0,0.352,0,0.524c0.699,0.525,1.399,1.049,2.097,1.574c0,0.349,0,0.698,0,1.05c0.349,0.173,0.699,0.348,1.05,0.522
		c0,0.35,0,0.699,0,1.05c0.525,0.35,1.047,0.699,1.572,1.048c0,0.35,0,0.7,0,1.048c0.174,0,0.35,0,0.525,0
		c0.174,0.7,0.35,1.4,0.524,2.099c0.175,0,0.348,0,0.522,0c0,0.525,0,1.047,0,1.573c0.176,0,0.35,0,0.525,0c0,0.523,0,1.049,0,1.573
		c0.176,0,0.35,0,0.524,0c0,0.35,0,0.698,0,1.048c0.176,0,0.351,0,0.524,0c0,0.524,0,1.05,0,1.573c0.176,0,0.348,0,0.523,0
		c0,0.349,0,0.699,0,1.049c0.176,0,0.35,0,0.524,0c0.351,1.573,0.7,3.146,1.051,4.72c0.175,0,0.349,0,0.522,0
		c0,0.349,0,0.698,0,1.048c0.175,0,0.35,0,0.523,0c0.175,1.223,0.351,2.447,0.525,3.671c0.174,0,0.35,0,0.525,0
		c0.174,0.699,0.35,1.397,0.523,2.098c0.174,0,0.349,0,0.524,0c0.175,1.049,0.349,2.097,0.524,3.146c0.174,0,0.35,0,0.524,0
		c0,0.348,0,0.698,0,1.048c0.351,0.175,0.698,0.35,1.048,0.524c0,0.524,0,1.048,0,1.573c0.176,0,0.35,0,0.524,0
		c0,0.699,0,1.397,0,2.097c0.176,0,0.351,0,0.524,0c0,0.351,0,0.7,0,1.05c0.176,0,0.351,0,0.525,0c0,0.522,0,1.048,0,1.571
		c0.174,0,0.348,0,0.523,0c0,0.351,0,0.701,0,1.05c0.175,0,0.35,0,0.525,0c0.174,1.05,0.349,2.099,0.524,3.146
		c0.175,0,0.349,0,0.524,0c0.176,0.698,0.349,1.399,0.523,2.098c0.174,0,0.35,0,0.524,0c0.175,0.875,0.349,1.747,0.524,2.621
		c0.176,0,0.35,0,0.525,0c0,0.525,0,1.05,0,1.573c0.175,0,0.348,0,0.522,0c0,0.351,0,0.699,0,1.05c0.175,0,0.351,0,0.524,0
		c0.352,1.747,0.7,3.495,1.049,5.243c-1.57,0.176-3.146,0.35-4.718,0.524C391.473,360.383,391.44,359.744,390.561,359.89z
		 M414.157,486.258c-2.744-0.045-12.889-0.614-14.158,0.523c-1.397,0-2.796,0-4.195,0c0-0.175,0-0.351,0-0.523
		c-1.993-2.171-1.049-10.27-1.049-15.206c0-4.003,0.468-6.807,0-9.964c-0.175-0.523-0.348-1.049-0.522-1.572
		c0.175,0,0.348,0,0.522,0c0.078-0.68-0.815-0.865-0.522-2.097c0.175,0,0.348,0,0.522,0c0-2.972,0-5.942,0-8.915
		c0.175,0,0.351,0,0.524,0c0-0.175,0-0.351,0-0.525c-0.174,0-0.35,0-0.524,0c0.175-1.397,0.351-2.795,0.524-4.194
		c0-4.02,0-8.039,0-12.061c-0.002-1.678,0.252-3.82-0.524-4.718c0.122-2.258,0.323-1.777,1.049-3.146
		c1.885-0.009,2.981,0.064,4.195,0.523c0,10.836,0,21.675,0,32.51c0.003,2.779,0.679,5.839,0,7.342
		c0.052,0.588,1.244,2.936,0.525,4.194c-0.174,0-0.35,0-0.525,0c-0.025,3.645-0.503,8.768,0.525,11.535c0.873,0,1.748,0,2.623,0
		c0,0.175,0,0.351,0,0.523c0.893,0.16,0.893-0.486,1.049-0.523c1.441-0.341,4.062-0.077,4.717,0.523
		c2.129-0.021,4.379,0.003,5.768,0.525C414.505,482.761,414.331,484.509,414.157,486.258z M451.384,475.771c0,1.049,0,2.098,0,3.145
		c-0.172,0-0.346,0-0.521,0c-0.176,1.05-0.35,2.099-0.523,3.146c-0.176,0-0.352,0-0.527,0c-0.174,0.702-0.35,1.4-0.525,2.099
		c-0.348,0.175-0.695,0.35-1.045,0.525c-0.176,0.523-0.352,1.048-0.525,1.573c-0.701,0.173-1.398,0.349-2.098,0.523
		c0,0.175,0,0.351,0,0.523c-1.748,0-3.496,0-5.242,0c-1.051-0.874-2.1-1.746-3.148-2.62c-0.174-0.525-0.348-1.049-0.523-1.574
		c-0.525-0.348-1.047-0.698-1.572-1.05c-0.176-0.698-0.35-1.396-0.525-2.096c-0.174,0-0.35,0-0.525,0c0-0.352,0-0.699,0-1.05
		c-0.174,0-0.348,0-0.521,0c0-0.697,0-1.397,0-2.096c-0.176,0-0.35,0-0.525,0c0-0.523,0-1.049,0-1.575c-0.176,0-0.35,0-0.525,0
		c0-0.872,0-1.745,0-2.619c-0.176,0-0.35,0-0.523,0c0-2.099,0-4.195,0-6.293c-0.176,0-0.348,0-0.523,0
		c0.176-0.699,0.348-1.398,0.523-2.097c-0.176,0-0.348,0-0.523,0c-0.139-1.216,0.979-1.958,0.523-3.671c-0.176,0-0.348,0-0.523,0
		c0-3.146,0-6.293,0-9.438c0-5.405-0.932-13.983,0.523-18.353c0.174,0,0.348,0,0.523,0c0-0.524,0-1.05,0-1.572
		c0.176,0,0.35,0,0.525,0c0-0.524,0-1.048,0-1.573c0.176,0,0.35,0,0.525,0c0-0.524,0-1.049,0-1.573
		c0.348-0.176,0.697-0.35,1.047-0.525c0.875-1.223,1.748-2.447,2.621-3.669c0.176,0,0.35,0,0.525,0c0-0.175,0-0.351,0-0.525
		c0.523,0,1.049,0,1.572,0c0-0.174,0-0.35,0-0.524c2.098,0,4.195,0,6.293,0c0.875,1.223,1.748,2.447,2.623,3.672
		c0,0.523,0,1.047,0,1.572c0.35,0.176,0.697,0.349,1.045,0.524c0,0.351,0,0.7,0,1.049c0.176,0,0.352,0,0.525,0
		c0,0.698,0,1.397,0,2.096c0.176,0,0.352,0,0.527,0c0.537,1.727-0.404,3.589,0.523,4.721c0.014,1.869-0.084,3.549-0.523,4.72
		c-3.271-0.413-1.742-1.17-2.623-3.671c-0.176,0-0.35,0-0.525,0c0-0.698,0-1.4,0-2.099c-0.869-2.378-2.602-4.652-3.67-6.815
		c-1.047,0.175-2.098,0.351-3.145,0.524c-0.418,1.842-1.566,2.671-2.1,4.195c0,0.873,0,1.747,0,2.621c-0.172,0-0.348,0-0.523,0
		c0,0.875,0,1.749,0,2.62c-0.176,0-0.35,0-0.525,0c0,1.923,0,3.848,0,5.77c-0.174,0-0.348,0-0.523,0
		c-0.084,0.678,0.844,0.868,0.523,2.099c-0.174,0-0.348,0-0.523,0c0,2.271,0,4.543,0,6.814c0.176,0,0.35,0,0.523,0
		c-0.174,0.525-0.348,1.05-0.523,1.572c0.176,0,0.35,0,0.523,0c0,1.575,0,3.148,0,4.721c0.176,0,0.35,0,0.525,0
		c0,2.445,0,4.896,0,7.34c0.176,0,0.352,0,0.523,0c0,0.874,0,1.75,0,2.622c0.176,0,0.35,0,0.525,0
		c0.869,2.997-0.312,7.49,1.049,9.963c0.107,0.197,1.184,0.886,1.572,1.573c0.875,0,1.748,0,2.623,0c0-0.176,0-0.35,0-0.525
		c0.35,0,0.699,0,1.049,0c1.578-0.93,2.73-9.952,2.621-13.107c0.174,0,0.35,0,0.525,0c0-0.175,0-0.35,0-0.525
		c1.498,0.026,2.244,0.185,3.143,0.525c0.176,2.797,0.352,5.593,0.525,8.39C451.735,475.771,451.56,475.771,451.384,475.771z
		 M456.104,358.317c-0.023,1.497-0.184,2.244-0.521,3.146c-2.264,0.023-4.785,0.041-6.297-0.525
		c-0.172-2.097-0.348-4.194-0.521-6.291c-0.875,0.175-1.75,0.349-2.623,0.522c-0.668,2.51-1.939,1.913-3.668,3.148
		c-0.699,0.872-1.4,1.748-2.098,2.62c-0.525,0-1.051,0-1.574,0c-3.58,1.454-9.014,2.146-13.109,0.525c0-0.175,0-0.351,0-0.525
		c-0.35,0-0.697,0-1.047,0c0-0.174,0-0.35,0-0.523c-0.35,0-0.701,0-1.051,0c-1.047-0.875-2.098-1.749-3.145-2.621
		c0-0.352,0-0.7,0-1.05c-0.35-0.174-0.701-0.35-1.049-0.525c0-0.174,0-0.349,0-0.522c-0.873-0.7-1.748-1.399-2.625-2.099
		c0-0.35,0-0.698,0-1.048c-0.174,0-0.348,0-0.52,0c0-0.35,0-0.7,0-1.048c-0.35-0.176-0.701-0.352-1.051-0.525
		c-0.174-0.698-0.35-1.397-0.525-2.099c-0.35-0.173-0.697-0.349-1.047-0.523c-0.174-0.699-0.35-1.397-0.525-2.096
		c-0.174,0-0.35,0-0.523,0c-0.352-1.049-0.699-2.099-1.049-3.148c-0.176,0-0.35,0-0.523,0c-0.176-1.049-0.352-2.096-0.525-3.146
		c-0.176,0-0.352,0-0.525,0c-0.174-0.698-0.348-1.396-0.523-2.097c-0.174,0-0.35,0-0.525,0c0-0.523,0-1.048,0-1.572
		c-0.174,0-0.35,0-0.525,0c0-1.048,0-2.098,0-3.146c-0.174,0-0.348,0-0.523,0c0-0.349,0-0.699,0-1.049c-0.176,0-0.348,0-0.523,0
		c-0.174-1.573-0.35-3.147-0.523-4.72c-0.176,0-0.35,0-0.525,0c0-1.225,0-2.446,0-3.67c-0.176,0-0.35,0-0.525,0
		c-0.174-2.099-0.348-4.195-0.523-6.294c-0.176,0-0.35,0-0.523,0c0-1.571,0-3.144,0-4.719c-0.176,0-0.35,0-0.523,0
		c0-2.271,0-4.544,0-6.815c-0.176,0-0.352,0-0.525,0c-0.715-2.5,0.236-6.658,0.525-8.389c0-1.923,0-3.846,0-5.77
		c-0.176,0-0.352,0-0.525,0c0.174-1.572,0.35-3.146,0.525-4.718c-0.176,0-0.352,0-0.525,0c0-0.175,0-0.349,0-0.524
		c0.174,0,0.35,0,0.525,0c0-2.098,0-4.194,0-6.292c0.174,0,0.348,0,0.523,0c0-1.049,0-2.099,0-3.146c0.174,0,0.348,0,0.523,0
		c0-0.698,0-1.398,0-2.098c0.176,0,0.35,0,0.523,0c0.176-1.572,0.35-3.146,0.525-4.719c-0.021-0.11-0.717-0.176-0.525-1.049
		c0.176,0,0.35,0,0.525,0c0-0.523,0-1.049,0-1.572c0.176,0,0.35,0,0.525,0c0-0.875,0-1.749,0-2.622c0.174,0,0.35,0,0.523,0
		c0-0.526,0-1.049,0-1.573c0.176,0,0.348,0,0.523,0c0-0.524,0-1.049,0-1.572c0.176,0,0.35,0,0.523,0c0-1.05,0-2.099,0-3.147
		c0.176,0,0.352,0,0.525,0c0-0.351,0-0.699,0-1.049c0.176,0,0.352,0,0.525,0c0-0.524,0-1.048,0-1.573c0.176,0,0.35,0,0.523,0
		c0-0.523,0-1.049,0-1.571c0.174,0,0.35,0,0.525,0c0.174-0.7,0.35-1.399,0.525-2.1c0.174,0,0.348,0,0.523,0c0-0.348,0-0.698,0-1.048
		c0.523-0.35,1.049-0.7,1.572-1.048c0.176-0.875,0.352-1.749,0.525-2.622c0.35-0.176,0.697-0.351,1.047-0.524
		c0.176-0.698,0.352-1.396,0.525-2.098c0.174,0,0.35,0,0.525,0c0.74-0.929,1.217-1.25,1.572-2.622
		c1.48-0.342,2.152-0.798,3.146-1.572c0-0.176,0-0.351,0-0.523c0.697-0.176,1.398-0.351,2.098-0.526c0-0.175,0-0.349,0-0.524
		c0.35,0,0.697,0,1.047,0c0.176-0.349,0.35-0.698,0.525-1.049c1.432-0.862,3.711-0.777,5.768-1.049
		c0.35-0.173,0.699-0.349,1.049-0.522c0,0.174,0,0.35,0,0.522c1.223,0,2.447,0,3.67,0c0,0.176,0,0.351,0,0.526
		c0.35,0,0.699,0,1.051,0c1.268,0.642,2.02,1.66,3.668,2.096c0,0.351,0,0.699,0,1.05c3.301,0.702,3.137,2.488,4.721,4.72
		c0.523,0.349,1.049,0.698,1.572,1.048c0,0.349,0,0.698,0,1.049c0.523,0.35,1.049,0.698,1.572,1.049c0,0.351,0,0.698,0,1.049
		c0.176,0,0.35,0,0.525,0c0,0.524,0,1.048,0,1.572c0.35,0.176,0.699,0.35,1.049,0.524c0,0.351,0,0.699,0,1.049
		c0.174,0,0.35,0,0.521,0c0.176,0.699,0.352,1.398,0.525,2.097c0.176,0,0.352,0,0.527,0c0,0.525,0,1.049,0,1.574
		c0.174,0,0.348,0,0.523,0c0.35,1.746,0.697,3.496,1.047,5.244c0.176,0,0.35,0,0.525,0c0.016,1.867-0.082,3.547-0.525,4.719
		c-1.047,0-2.098,0-3.145,0c0,0.174,0,0.348,0,0.522c-1.893,0.054-5.279,0.413-6.291-0.522c-1.07-1.163-0.48-2.514-1.051-4.195
		c-0.174,0-0.35,0-0.525,0c0-0.698,0-1.397,0-2.099c-0.174,0-0.35,0-0.521,0c0-0.349,0-0.698,0-1.047c-0.176,0-0.35,0-0.525,0
		c-0.176-0.7-0.35-1.398-0.525-2.099c-0.348-0.175-0.699-0.35-1.049-0.523c0-0.35,0-0.7,0-1.049l-1.049-1.048
		c-0.348,0-0.697,0-1.049,0c-0.172-0.35-0.348-0.7-0.521-1.05c-0.525-0.174-1.051-0.35-1.576-0.524c0-0.175,0-0.35,0-0.525
		c-0.521-0.173-1.047-0.348-1.572-0.523c0-0.175,0-0.349,0-0.524c-1.223,0-2.447,0-3.67,0c-0.559,0.665-0.928,0.545-1.57,1.048
		c0,0.176,0,0.351,0,0.525c-0.352,0-0.701,0-1.051,0c-1.223,1.923-2.447,3.847-3.67,5.768c-0.176,1.049-0.352,2.098-0.525,3.147
		c-0.174,0-0.35,0-0.525,0c0,0.349,0,0.698,0,1.048c-0.174,0-0.35,0-0.523,0c0,0.873,0,1.747,0,2.621
		c-0.809,2.525-1.861,5.781-2.621,8.39c0,3.495,0,6.992,0,10.487c-0.174,0-0.35,0-0.523,0c-0.176,4.02-0.352,8.04-0.525,12.06
		c0.174,1.398,0.35,2.798,0.525,4.195c-0.176,0-0.352,0-0.525,0c0,2.969,0,5.942,0,8.914c0.174,0,0.35,0,0.525,0
		c0.174,2.622,0.35,5.244,0.523,7.863c0.176,0,0.348,0,0.523,0c0,2.273,0,4.546,0,6.817c0.174,0,0.35,0,0.525,0
		c0,0.524,0,1.05,0,1.574c0.174,0,0.348,0,0.523,0c0,0.872,0,1.748,0,2.62c0.176,0,0.35,0,0.525,0c0,0.7,0,1.399,0,2.099
		c0.174,0,0.348,0,0.523,0c0,0.698,0,1.397,0,2.098c0.174,0,0.35,0,0.523,0c0,0.349,0,0.698,0,1.047c0.176,0,0.352,0,0.525,0
		c0,0.875,0,1.748,0,2.623c0.174,0,0.35,0,0.525,0c0,0.524,0,1.049,0,1.572c1.414,3.661,3.449,9.45,7.34,10.487
		c0,0.175,0,0.351,0,0.523c1.398,0,2.797,0,4.193,0c0.176-0.349,0.352-0.696,0.525-1.047c0.875-0.176,1.748-0.351,2.621-0.525
		c0-0.174,0-0.349,0-0.524c0.35-0.174,0.701-0.35,1.049-0.522c0.176-0.526,0.35-1.049,0.525-1.575c0.176,0,0.35,0,0.523,0
		c0.088-3.64,1.238-6.017,2.098-8.913c0-1.224,0-2.447,0-3.67c1.242-4.327,0.977-12.609,0-17.827
		c-3.84-0.006-7.9-0.247-11.012-0.525c0-1.398,0-2.797,0-4.194c-0.174,0-0.35,0-0.523,0c0.174-1.05,0.35-2.098,0.523-3.147
		c-0.174,0-0.35,0-0.523,0c0-1.396,0-2.798,0-4.194c0.174,0,0.35,0,0.523,0c1.336-1.26,4.697-1.047,7.342-1.049
		c3.846,0,7.689,0,11.533,0c0-0.174,0-0.349,0-0.523c2.205-0.631,5.297,0.228,6.818,0.523c-0.174,2.272-0.35,4.545-0.521,6.818
		c0.092,1.294,0.631,1.904,0.521,3.668c-0.174,0.7-0.35,1.4-0.521,2.099c1.035,6.441,0.521,15.225,0.521,22.547
		c0,3.669,0,7.341,0,11.011c-0.174,0-0.35,0-0.521,0c-0.166,1.066,0.521,1.049,0.521,1.049
		C456.542,350.297,456.599,357.751,456.104,358.317z M457.155,174.271c-1.85-5.036-1.051-10.17-1.051-16.255
		c0-3.146,0-6.293,0-9.438c0.174,0,0.35,0,0.525,0c-0.176-1.574-0.352-3.147-0.525-4.72c0.91-3.358,0.525-8.886,0.525-13.109
		c0-5.677,0.281-11.87,0.525-16.778c0.699,0,1.396,0,2.096,0c0-0.176,0-0.35,0-0.524c2.807-0.026,6.393-0.222,8.391,0.524
		c0.033,7.643,0.975,17.42-0.525,24.12c0.176,0.873,0.35,1.748,0.525,2.622c-0.176,0-0.35,0-0.525,0
		c-0.643,2.848-0.045,7.937,0.525,9.963c0,2.796,0,5.594,0,8.39c-0.125,0.731-0.559-0.217-0.525,0.523c0.176,0,0.35,0,0.525,0
		c0.65,3.48-0.146,8.063,0.525,11.012c0,0.7,0,1.398,0,2.097c-0.176,0-0.352,0-0.525,0c-0.176,0.525-0.35,1.049-0.525,1.574
		c-2.621,0.174-5.242,0.349-7.865,0.525c0-0.176,0-0.351,0-0.525C458.552,174.271,457.854,174.271,457.155,174.271z
		 M480.224,464.759c0,1.923,0,3.847,0,5.768c-0.174,0-0.348,0-0.521,0c0,0.525,0,1.05,0,1.573c-0.174,0-0.35,0-0.525,0
		c-0.174,2.098-0.35,4.196-0.525,6.293c-0.971,2.884-4.385,8.141-7.34,8.912c0,0.176,0,0.35,0,0.526
		c-1.398-0.351-2.797-0.699-4.195-1.05c0-0.175,0-0.351,0-0.523c-0.35,0-0.697,0-1.049,0c-1.049-1.224-2.096-2.447-3.146-3.672
		c0-0.35,0-0.698,0-1.048c-0.174,0-0.35,0-0.525,0c0-0.524,0-1.05,0-1.573c-0.172,0-0.346,0-0.521,0c0-0.699,0-1.398,0-2.097
		c-0.176,0-0.352,0-0.525,0c0-0.351,0-0.698,0-1.049c-0.174,0-0.35,0-0.525,0c0-1.573,0-3.147,0-4.72c-0.176,0-0.35,0-0.523,0
		c0-1.048,0-2.098,0-3.146c-0.176,0-0.35,0-0.523,0c0-3.146,0-6.29,0-9.438c-0.002-0.01-0.785-0.425-0.525-1.573
		c0.176,0,0.352,0,0.525,0c0.754-3.102-0.162-7.488,0.523-9.964c0.174-2.795,0.348-5.592,0.523-8.389c0.176,0,0.352,0,0.525,0
		c0-1.05,0-2.097,0-3.146c0.174,0,0.35,0,0.525,0c0-0.698,0-1.398,0-2.097c0.176,0,0.35,0,0.521,0c0-0.874,0-1.748,0-2.624
		c0.176,0,0.352,0,0.525,0c0.174-0.698,0.35-1.397,0.525-2.096c0.174,0,0.35,0,0.525,0c0-0.349,0-0.698,0-1.049
		c1.047-0.874,2.096-1.748,3.145-2.622c0-0.174,0-0.35,0-0.524c1.172-0.688,1.432,0.264,2.621-1.049
		c2.932,0.15,3.793,1.181,5.768,2.099c0.42,1.889,1.555,3.608,2.098,5.241c0,1.05,0,2.098,0,3.147c0.174,0,0.35,0,0.525,0
		c0,0.351,0,0.699,0,1.049c0.174,0,0.348,0,0.523,0c0,0.524,0,1.048,0,1.573c0.176,0,0.352,0,0.525,0
		c0.176,3.844,0.352,7.69,0.525,11.535C480.849,453.104,480.228,459.78,480.224,464.759z M510.636,478.393
		c-0.498,1.58-1.666,2.864-2.098,4.718c-1.498,0.38-3.506,1.95-4.193,3.147c-3.312,0.219-7.277,1.173-9.438-1.05
		c-3.459-1.954-5.805-9.238-5.768-14.682c1.049-0.175,2.098-0.349,3.145-0.524c1.547,3.918,2.439,8.355,5.244,11.012
		c0.174,0.349,0.35,0.699,0.525,1.047c0.393,0.253,2.781,0.842,3.668,0.525c1.4-1.224,2.797-2.446,4.197-3.671
		c0.172-1.571,0.348-3.145,0.523-4.718c-0.176,0-0.352,0-0.523,0c0-0.874,0-1.747,0-2.621c-0.174,0-0.35,0-0.525,0
		c-0.174-0.699-0.35-1.398-0.523-2.099c-0.176,0-0.352,0-0.525,0c0-0.524,0-1.048,0-1.572c-0.176,0-0.352,0-0.525,0
		c0-0.699,0-1.398,0-2.098c-0.174,0-0.348,0-0.521,0c-0.176-0.698-0.35-1.399-0.525-2.099c-0.352-0.175-0.699-0.35-1.051-0.522
		c0-0.35,0-0.701,0-1.049c-0.172,0-0.348,0-0.523,0c-0.174-1.05-0.348-2.099-0.523-3.146c-0.174,0-0.35,0-0.525,0
		c0-0.35,0-0.698,0-1.049c-0.174,0-0.348,0-0.523,0c0-0.523,0-1.049,0-1.572c-0.699-0.525-1.398-1.05-2.098-1.575
		c-0.176-0.698-0.348-1.397-0.523-2.096c-0.176,0-0.35,0-0.523,0c-0.352-1.05-0.701-2.099-1.051-3.146c-0.176,0-0.35,0-0.523,0
		c0-0.525,0-1.05,0-1.575c-0.174,0-0.35,0-0.525,0c0-0.348,0-0.698,0-1.048c-0.174,0-0.35,0-0.523,0c0-0.522,0-1.048,0-1.572
		c-0.176,0-0.35,0-0.525,0c0-0.524,0-1.049,0-1.574c-0.176,0-0.35,0-0.523,0c0-0.349,0-0.698,0-1.047c-0.174,0-0.35,0-0.525,0
		c0-0.525,0-1.05,0-1.573c-0.174,0-0.35,0-0.523,0c-0.174-1.574-0.35-3.147-0.523-4.72c-0.229-0.753-1.014-3.178-0.525-4.721
		c1.049-1.922,2.098-3.845,3.146-5.767c0.35,0,0.699,0,1.049,0c0-0.174,0-0.35,0-0.524c0.348,0,0.697,0,1.049,0
		c0-0.175,0-0.351,0-0.523c1.582-0.77,0.959,0.515,2.098-1.049c5.547-0.132,6.008,1.763,7.865,5.243c0.172,0,0.348,0,0.523,0
		c0,0.349,0,0.698,0,1.05c0.176,0,0.35,0,0.523,0c0,0.698,0,1.396,0,2.096c1.113,2.778,2.223,4.566,2.1,8.915
		c-0.875,0-1.748,0-2.623,0c-0.658-3.373-2.369-9.446-4.721-11.011c-1.514-1.126-3.961,1.314-5.24,2.096
		c-0.402,2.447-0.59,7.414,0.523,9.963c0.176,0,0.348,0,0.523,0c0,0.35,0,0.698,0,1.049c0.174,0,0.35,0,0.525,0
		c0,0.348,0,0.699,0,1.049c0.35,0.176,0.699,0.349,1.049,0.524c0,0.35,0,0.7,0,1.049c0.174,0,0.348,0,0.523,0
		c0,0.35,0,0.698,0,1.048c0.176,0,0.35,0,0.523,0c0.176,0.874,0.352,1.749,0.525,2.623c0.35,0.173,0.699,0.349,1.047,0.523
		c0.176,0.523,0.352,1.049,0.525,1.572c0.174,0,0.35,0,0.525,0c0.176,0.874,0.35,1.748,0.525,2.623c0.174,0,0.348,0,0.521,0
		c0,0.35,0,0.698,0,1.048c0.174,0,0.35,0,0.525,0c0.174,0.699,0.35,1.397,0.525,2.099c0.174,0,0.35,0,0.523,0
		c0.525,1.746,1.049,3.494,1.572,5.244c0.176,0,0.352,0,0.525,0c0.176,0.696,0.35,1.396,0.525,2.096c0.174,0,0.348,0,0.521,0
		c0,0.699,0,1.397,0,2.097c0.176,0,0.352,0,0.527,0c0,0.525,0,1.05,0,1.574c0.174,0,0.348,0,0.523,0c0,0.698,0,1.397,0,2.097
		C510.118,472.093,511.524,475.591,510.636,478.393z M512.212,348.354c0,0.351,0,0.699,0,1.049c-0.176,0-0.35,0-0.525,0
		c0,0.351,0,0.699,0,1.049c-0.176,0-0.35,0-0.525,0c0,0.349,0,0.698,0,1.05c-0.176,0-0.35,0-0.525,0c0,0.348,0,0.698,0,1.048
		c-0.348,0.175-0.697,0.35-1.047,0.524c0,0.35,0,0.699,0,1.048c-0.699,0.525-1.398,1.048-2.098,1.574c0,0.174,0,0.349,0,0.522
		c-1.049,0.352-2.098,0.7-3.146,1.05c-0.352,0.525-0.699,1.05-1.047,1.573c-0.701,0.176-1.4,0.349-2.1,0.524
		c-0.348,0.524-0.697,1.049-1.049,1.572c-0.699,0-1.396,0-2.096,0c0,0.175,0,0.351,0,0.525c-1.049,0-2.098,0-3.146,0
		c0,0.175,0,0.349,0,0.523c-1.588,0.453-6.258-1.045-6.816-1.572c-2.332,0.015-3.557-0.012-4.719-1.049
		c-0.176-0.349-0.352-0.7-0.525-1.048c-0.525-0.176-1.047-0.351-1.572-0.524c-0.176-0.525-0.35-1.05-0.525-1.575
		c-0.873-0.698-1.746-1.396-2.621-2.097c0-0.349,0-0.698,0-1.048c-0.352-0.175-0.697-0.35-1.049-0.524
		c-0.523-1.573-1.049-3.146-1.574-4.719c-0.174,0-0.348,0-0.521,0c0-0.351,0-0.699,0-1.05c-0.176,0-0.352,0-0.525,0
		c-0.176-1.049-0.35-2.098-0.525-3.146c-0.176,0-0.35,0-0.525,0c0-0.525,0-1.049,0-1.574c-0.176,0-0.348,0-0.523,0
		c0-0.349,0-0.698,0-1.047c-0.174,0-0.348,0-0.523,0c0-0.699,0-1.397,0-2.099c-0.176,0-0.35,0-0.525,0c0-0.523,0-1.049,0-1.572
		c-0.176,0-0.35,0-0.523,0c0-0.699,0-1.398,0-2.097c-0.176,0-0.348,0-0.523,0c0-0.7,0-1.399,0-2.098c-0.176,0-0.35,0-0.525,0
		c0-1.923,0-3.847,0-5.769c-1.371-4.673-1.248-11.479-2.621-16.254c0-2.797,0-5.594,0-8.39c-1.221-4.309-1.031-14.248,0-18.877
		c0.277-1.258-0.541-1.37-0.525-2.097c0-0.176,0-0.35,0-0.524c0.176,0,0.35,0,0.525,0c0-1.748,0-3.496,0-5.244
		c0.174,0,0.35,0,0.525,0c0-1.572,0-3.146,0-4.72c0.174,0,0.348,0,0.523,0c0.174-2.097,0.348-4.195,0.521-6.291
		c0.176,0,0.352,0,0.525,0c0-0.526,0-1.049,0-1.573c0.176,0,0.35,0,0.525,0c0-0.524,0-1.049,0-1.572c0.176,0,0.35,0,0.525,0
		c0-0.525,0-1.05,0-1.575c0.176,0,0.348,0,0.523,0c0-0.523,0-1.047,0-1.572c0.174,0,0.348,0,0.523,0c0-0.351,0-0.699,0-1.049
		c0.176,0,0.35,0,0.525,0c0-0.524,0-1.048,0-1.573c0.176,0,0.35,0,0.523,0c0.348-1.571,0.699-3.146,1.049-4.719
		c0.176,0,0.35,0,0.525,0c0-0.35,0-0.7,0-1.048c0.35-0.175,0.699-0.351,1.047-0.524c0-0.351,0-0.698,0-1.049c0.176,0,0.35,0,0.525,0
		c0.35-1.049,0.699-2.098,1.049-3.146c0.352-0.175,0.697-0.351,1.049-0.525c0-0.349,0-0.699,0-1.049
		c0.543-0.681,1.91-0.571,2.621-1.048c0.35-0.525,0.699-1.05,1.051-1.574c0.873-0.174,1.746-0.349,2.619-0.523
		c0-0.176,0-0.351,0-0.523c0.35,0,0.699,0,1.049,0c0-0.176,0-0.351,0-0.526c0.873,0,1.748,0,2.623,0c0-0.175,0-0.349,0-0.524
		c1.049,0,2.098,0,3.146,0c0,0.176,0,0.35,0,0.524c0.174,0,0.35,0,0.523,0c0.346-0.197,0.027-0.769,1.049-0.524
		c0,0.176,0,0.35,0,0.524c1.049,0,2.098,0,3.146,0c0,0.176,0,0.351,0,0.526c0.525,0,1.049,0,1.572,0c0,0.173,0,0.348,0,0.523
		c1.049,0.175,2.098,0.35,3.146,0.523c0.176,0.35,0.35,0.7,0.523,1.049c0.699,0.175,1.398,0.351,2.1,0.525
		c0.348,0.524,0.695,1.048,1.047,1.573c0.35,0,0.699,0,1.049,0c0,0.175,0,0.349,0,0.523c0.525,0.351,1.049,0.701,1.572,1.049
		c0,0.351,0,0.699,0,1.049c0.352,0.174,0.701,0.349,1.051,0.524c0,0.35,0,0.698,0,1.049c0.348,0.175,0.697,0.351,1.049,0.523
		c0.174,0.699,0.348,1.397,0.523,2.098c0.176,0,0.35,0,0.525,0c0,0.35,0,0.7,0,1.048c0.174,0,0.348,0,0.521,0
		c0.35,1.05,0.701,2.1,1.051,3.147c0.176,0,0.35,0,0.525,0c0.346,1.923,0.695,3.845,1.047,5.768c0.176,0,0.35,0,0.523,0
		c0,0.698,0,1.397,0,2.098c0.176,0,0.352,0,0.527,0c0,0.524,0,1.047,0,1.573c0.174,0,0.348,0,0.521,0
		c0.176,1.571,0.35,3.146,0.523,4.719c0.176,0,0.352,0,0.525,0c0,0.874,0,1.747,0,2.621c0.176,0,0.35,0,0.525,0
		c0,1.923,0,3.846,0,5.768c0.176,0,0.35,0,0.523,0c0,1.923,0,3.847,0,5.769c0.174,0,0.35,0,0.525,0c0,1.223,0,2.447,0,3.67
		c0.174,0,0.348,0,0.523,0c0.068,0.608-0.871,1.351-0.523,2.622c0.174,0,0.348,0,0.523,0c0,2.098,0,4.194,0,6.292
		c0.537,2.882,0.523,15.678-0.523,19.4c0,4.545,0,9.09,0,13.634c-0.176,0-0.352,0-0.525,0c0,1.224,0,2.446,0,3.671
		c-0.174,0-0.348,0-0.523,0c0,1.048,0,2.098,0,3.146c-0.176,0-0.35,0-0.525,0c0,1.049,0,2.098,0,3.146
		c-1.049,2.97-2.098,5.942-3.146,8.913C512.558,348.354,512.386,348.354,512.212,348.354z M543.671,429.104
		c-4.225-0.007-9.158-0.09-12.584,0.524c0,0.35,0,0.698,0,1.049c-0.176,0-0.35,0-0.523,0c-0.148,0.878,0.494,0.914,0.523,1.047
		c0,1.05,0,2.098,0,3.147c0,3.669,0,7.341,0,11.012c0.176,0,0.35,0,0.525,0c-0.176,1.572-0.35,3.146-0.525,4.718
		c-0.059,4.988,0.135,11.06-0.523,15.207c-0.164,1.023,0.523,1.048,0.523,1.048c0,0.874,0,1.75,0,2.622c-0.176,0-0.35,0-0.523,0
		c0,0.874,0,1.748,0,2.622c0.174,0,0.348,0,0.523,0c0.492,1.804,0.092,11.878-0.523,12.585c-0.176,0.523-0.352,1.048-0.525,1.573
		c-1.838,0.271-1.678,0.21-3.672,0.523c-0.174-0.523-0.348-1.049-0.523-1.573c-0.176,0-0.348,0-0.523,0c0-0.35,0-0.699,0-1.049
		c-0.174,0-0.35,0-0.525,0c0-2.271,0-4.546,0-6.815c0-5.818-0.256-12.868,0.525-17.828c0.166-1.059-0.525-1.049-0.525-1.049
		c-0.633-2.861-0.045-7.923,0.525-9.963c0.529-1.9,0.092-13.965-0.525-14.683c0-1.222,0-2.445,0-3.668c-0.176,0-0.35,0-0.523,0
		c0-0.176,0-0.352,0-0.525c-3.32-0.176-6.643-0.349-9.961-0.524c0-0.174,0-0.35,0-0.524c-0.176,0-0.352,0-0.527,0
		c-0.029-2.952,0.131-3.504,1.049-5.244c4.545,0,9.09,0,13.633,0c0.701,0.175,1.4,0.351,2.1,0.525
		c2.062-0.326,7.104-1.324,9.963-0.525c0,0.175,0,0.351,0,0.525c1.047,0,2.098,0,3.145,0
		C543.671,425.607,543.671,427.356,543.671,429.104z M582.997,275.994c0,5.244,0,10.488,0,15.729c-0.174,0-0.35,0-0.525,0
		c-0.672,2.397,0.268,6.24,0.525,7.865c-0.174,2.273-0.35,4.545-0.525,6.816c0.223,0.786,0.973,3.139,0.525,4.721
		c-0.174,0-0.35,0-0.525,0c0,1.222,0,2.447,0,3.668c0.465,1.65,1.211,8.092,0.525,10.489c-0.174,0-0.35,0-0.525,0
		c0,2.796,0,5.593,0,8.388c0.176,0,0.352,0,0.525,0c-0.174,1.748-0.35,3.497-0.525,5.244c0.176,0,0.352,0,0.525,0
		c0,0.176,0,0.35,0,0.525c-0.174,0-0.35,0-0.525,0c-0.408,2.608,0.365,5.465,0.525,7.34c0,2.272,0,4.545,0,6.816
		c-0.174,0-0.35,0-0.525,0c0.176,1.225,0.352,2.447,0.525,3.671c-0.174,0-0.35,0-0.525,0c0,0.174,0,0.35,0,0.525
		c-0.174,0-0.348,0-0.521,0c-0.494-2.165-1.699-3.6-2.623-5.244c0-0.35,0-0.7,0-1.048c-0.35-0.176-0.699-0.352-1.049-0.525
		c-0.176-0.874-0.348-1.748-0.523-2.622c-0.35-0.173-0.701-0.351-1.049-0.523c0-0.525,0-1.05,0-1.572c-0.176,0-0.352,0-0.525,0
		c0-0.351,0-0.701,0-1.049c-0.348-0.176-0.699-0.352-1.047-0.526c0-0.523,0-1.048,0-1.573c-0.176,0-0.352,0-0.527,0
		c0-0.348,0-0.699,0-1.049c-0.174,0-0.348,0-0.523,0c-0.35-1.047-0.697-2.098-1.047-3.146c-0.176,0-0.35,0-0.525,0
		c-0.176-1.049-0.35-2.097-0.525-3.146c-0.35-0.176-0.697-0.351-1.047-0.523c0-0.525,0-1.05,0-1.575c-0.176,0-0.35,0-0.525,0
		c-0.176-0.698-0.35-1.397-0.525-2.096c-0.174,0-0.35,0-0.525,0c0-0.525,0-1.049,0-1.573c-0.172,0-0.348,0-0.521,0
		c0-0.35,0-0.7,0-1.05c-0.176,0-0.352,0-0.525,0c0-0.35,0-0.698,0-1.049c-0.174,0-0.35,0-0.525,0
		c-0.348-1.049-0.697-2.096-1.047-3.146c-0.174,0-0.35,0-0.525,0c0-0.524,0-1.048,0-1.572c-0.174,0-0.35,0-0.523,0
		c-0.176-0.7-0.352-1.399-0.525-2.098c-0.176,0-0.348,0-0.523,0c0-0.524,0-1.049,0-1.573c-0.174,0-0.348,0-0.523,0
		c0-0.351,0-0.698,0-1.049c-0.176,0-0.35,0-0.525,0c0-0.351,0-0.698,0-1.05c-0.176,0-0.352,0-0.525,0
		c-0.348-1.047-0.697-2.096-1.047-3.144c-0.176,0-0.352,0-0.525,0c0-0.525,0-1.05,0-1.575c-0.174,0-0.35,0-0.525,0
		c0-0.349,0-0.698,0-1.049c-0.174,0-0.35,0-0.521,0c-0.176-0.873-0.352-1.746-0.525-2.62c-0.176,0-0.35,0-0.525,0
		c0-0.525,0-1.048,0-1.573c-0.176,0-0.35,0-0.523,0c-0.352-1.05-0.697-2.099-1.049-3.146c-0.176,0-0.35,0-0.525,0
		c0-0.351,0-0.699,0-1.05c-0.174,0-0.35,0-0.525,0c0-0.523,0-1.049,0-1.573c-0.35-0.174-0.697-0.35-1.045-0.524
		c0-0.349,0-0.699,0-1.048c-0.176,0-0.352,0-0.525,0c0-0.35,0-0.7,0-1.049c-0.176,0-0.352,0-0.525,0c0-0.525,0-1.048,0-1.572
		c-0.176,0-0.35,0-0.525,0c0-0.525,0-1.05,0-1.573c-0.172,0-0.348,0-0.521,0c0-0.35,0-0.7,0-1.049c-0.176,0-0.352,0-0.525,0
		c-0.35-1.049-0.701-2.098-1.049-3.147c-0.176,0-0.35,0-0.525,0c0-0.699,0-1.397,0-2.097c-0.174,0-0.348,0-0.523,0
		c-0.176-1.049-0.35-2.098-0.525-3.146c-0.174,0-0.35,0-0.525,0c0-0.35,0-0.7,0-1.05c-0.174,0-0.348,0-0.521,0
		c-0.35-1.572-0.699-3.145-1.051-4.719c-0.174,0-0.35,0-0.525,0c0-0.349,0-0.699,0-1.047c-0.174,0-0.35,0-0.521,0
		c-0.699-2.099-1.4-4.195-2.098-6.294c-0.699-0.175-1.398-0.348-2.1-0.523c-0.447,0.591,0.072,0.081-0.521,0.523
		c0.174,1.573,0.35,3.146,0.521,4.719c0.176,0,0.35,0,0.525,0c-0.176,1.572-0.35,3.147-0.525,4.721
		c0.445,2.874,0.523,7.327,0.525,11.011c0,1.748,0,3.496,0,5.243c0.176,0,0.35,0,0.525,0c0,1.923,0,3.844,0,5.767
		c-0.176,0-0.35,0-0.525,0c0,1.05,0,2.099,0,3.148c0.176,0,0.35,0,0.525,0c0,2.62,0,5.242,0,7.863
		c-0.176,1.572-0.35,3.147-0.525,4.72c0.176,0,0.35,0,0.525,0c-0.176,1.746-0.35,3.496-0.525,5.244
		c-0.4,4.61,0.529,10.377-0.525,14.155c0,2.623,0,5.246,0,7.867c0.176,0,0.35,0,0.525,0c0.93,3.322-0.449,9.626-0.525,12.584
		c-3.885,0.711-6.023,0.557-11.008,0.523c0-1.048,0-2.097,0-3.145c-0.176,0-0.352,0-0.525,0c0.174-2.098,0.35-4.196,0.525-6.292
		c0-5.593,0-11.188,0-16.78c-0.176-3.495-0.352-6.992-0.525-10.487c0.174,0,0.35,0,0.525,0c-0.176-0.523-0.352-1.048-0.525-1.573
		c-0.145-2.702-0.33-8.705,0-9.963c0.174,0,0.35,0,0.525,0c-0.352-5.767-0.701-11.536-1.051-17.303c0-5.417,0-10.836,0-16.254
		c0-1.573,0-3.146,0-4.72c-0.035-0.154-0.688-0.151-0.523-1.049c0.174,0,0.348,0,0.523,0c0.434-1.881,0.318-6.895-0.523-7.865
		c0-5.941,0-11.885,0-17.827c0-3.984-0.277-7.394,1.049-9.962c3.318,0,6.641,0,9.961,0c1.1,0.561,0.975,2.677,1.572,3.669
		c0.35,0.175,0.701,0.35,1.051,0.524c0.35,1.573,0.699,3.146,1.049,4.72c0.172,0,0.348,0,0.523,0c0,0.349,0,0.698,0,1.049
		c0.174,0,0.35,0,0.523,0c0.176,0.873,0.352,1.747,0.525,2.622c0.176,0,0.35,0,0.525,0c0.172,0.698,0.348,1.397,0.521,2.096
		c0.176,0,0.352,0,0.525,0c0,0.351,0,0.7,0,1.05c0.176,0,0.352,0,0.525,0c0,0.525,0,1.05,0,1.572
		c0.35,0.175,0.699,0.351,1.047,0.525c0.176,0.874,0.352,1.748,0.525,2.621c0.176,0,0.35,0,0.525,0c0,0.524,0,1.05,0,1.573
		c0.176,0,0.35,0,0.523,0c0,0.349,0,0.699,0,1.049c0.176,0,0.35,0,0.525,0c0,0.349,0,0.699,0,1.05
		c0.348,0.173,0.699,0.349,1.049,0.523c0,0.524,0,1.049,0,1.573c0.174,0,0.35,0,0.525,0c0,0.35,0,0.698,0,1.049
		c0.174,0,0.35,0,0.521,0c0,0.351,0,0.698,0,1.049c0.176,0,0.35,0,0.525,0c0.35,1.047,0.699,2.097,1.051,3.146
		c0.174,0,0.348,0,0.52,0c0,0.524,0,1.049,0,1.573c0.176,0,0.352,0,0.525,0c0,0.35,0,0.698,0,1.049c0.176,0,0.352,0,0.525,0
		c0,0.349,0,0.698,0,1.049c0.176,0,0.35,0,0.525,0c0.352,1.048,0.697,2.097,1.049,3.146c0.174,0,0.348,0,0.523,0
		c0.176,1.049,0.35,2.097,0.525,3.146c0.174,0,0.35,0,0.525,0c0.348,1.049,0.697,2.098,1.047,3.146c0.174,0,0.35,0,0.525,0
		c0.35,1.572,0.699,3.145,1.047,4.719c0.174,0,0.35,0,0.525,0c0.176,0.698,0.35,1.399,0.525,2.098c0.176,0,0.35,0,0.523,0
		c0.176,0.874,0.348,1.746,0.523,2.62c0.35,0.175,0.699,0.35,1.049,0.525c0.352,1.573,0.701,3.146,1.049,4.719
		c0.176,0,0.35,0,0.523,0c0,0.35,0,0.7,0,1.05c0.176,0,0.352,0,0.525,0c0.35,1.048,0.699,2.097,1.047,3.145
		c0.701-0.174,1.4-0.349,2.1-0.523c-0.174-1.923-0.348-3.845-0.523-5.768c0.176-0.525,0.35-1.049,0.523-1.573
		c-0.174,0-0.348,0-0.523,0c0.176-2.446,0.35-4.895,0.523-7.341c-0.174,0-0.348,0-0.523,0c0-0.874,0-1.748,0-2.623
		c-0.176,0-0.35,0-0.525,0c0-0.175,0-0.351,0-0.522c0.176,0,0.35,0,0.525,0c0.779-5.058-0.951-10.313,0-14.157
		c-0.176-1.575-0.35-3.147-0.525-4.72c0.176,0,0.35,0,0.525,0c0-2.971,0-5.943,0-8.915c0.35-5.417,0.697-10.836,1.047-16.255
		c3.266-0.172,7.074-0.549,11.012-0.524c1.324,7.404,0.525,14.841,0.525,22.548C583.522,265.617,584.101,272.061,582.997,275.994z"
		/>
	<path fill="#454545" d="M387.416,153.296c0.175,0,0.351,0,0.524,0c0.174,1.223,0.348,2.447,0.523,3.67c0.176,0,0.35,0,0.524,0
		c0,0.351,0,0.699,0,1.049c0.351,0.174,0.7,0.35,1.05,0.523c0,0.35,0,0.7,0,1.049c1.573,1.399,3.146,2.798,4.718,4.195
		c0.524,0.7,1.049,1.398,1.573,2.097c1.049,0.176,2.099,0.35,3.146,0.524c0,0.174,0,0.35,0,0.525c0.35,0,0.7,0,1.049,0
		c0,0.175,0,0.349,0,0.524c2.271,0.174,4.543,0.35,6.816,0.524c0-0.174,0-0.35,0-0.524c0.348,0,0.699,0,1.047,0
		c0-0.175,0-0.349,0-0.524c0.352,0,0.701,0,1.051,0c0.176-0.351,0.35-0.7,0.523-1.049c0.525,0,1.051,0,1.574,0
		c0-0.174,0-0.349,0-0.524c0.523,0,1.049,0,1.572,0c0-0.174,0-0.35,0-0.523c1.924-0.993,3.6-1.342,4.195-3.671
		c2.768-0.744,1.889-2.193,3.146-4.195c0.348-0.174,0.697-0.35,1.047-0.524c0-0.349,0-0.699,0-1.049c0.176,0,0.352,0,0.525,0
		c0-0.698,0-1.396,0-2.097c0.754-2.084,2.594-7.423,1.572-11.011c-0.174,0-0.35,0-0.525,0c0-0.875,0-1.748,0-2.622
		c-0.172,0-0.348,0-0.521,0c0-0.701,0-1.399,0-2.098c-0.176,0-0.352,0-0.525,0c0-0.349,0-0.7,0-1.049c-0.174,0-0.35,0-0.525,0
		c0-0.525,0-1.048,0-1.573c-0.174,0-0.35,0-0.523,0c-0.176-0.699-0.35-1.398-0.523-2.097c-0.176,0-0.35,0-0.525,0
		c0-0.35,0-0.699,0-1.049c-0.176,0-0.35,0-0.523,0c-0.176-0.525-0.352-1.049-0.525-1.574c-0.348-0.174-0.697-0.348-1.047-0.523
		c0-0.35,0-0.7,0-1.048c-0.525-0.351-1.053-0.7-1.572-1.049c-0.176-0.524-0.35-1.048-0.525-1.573c-0.352,0-0.699,0-1.051,0
		c0-0.176,0-0.351,0-0.524c-1.129-0.952-1.914-1.736-3.668-2.097c-0.725-0.693-4.428-1.558-6.293-1.049c0,0.174,0,0.35,0,0.524
		c-1.396,0-2.797,0-4.195,0c-0.788,0.25-4.291,2.057-4.72,2.622c0,0.349,0,0.699,0,1.049l-1.049,1.048c-0.348,0-0.698,0-1.048,0
		c-0.876,0.644-2.327,2.924-2.621,4.195c-0.351,0-0.701,0-1.049,0c-0.35,1.049-0.699,2.097-1.05,3.146c-0.175,0-0.349,0-0.524,0
		c0,0.699,0,1.398,0,2.097c-0.176,0-0.35,0-0.523,0c0,0.699,0,1.399,0,2.098c-0.174,0-0.35,0-0.524,0c0,1.048,0,2.097,0,3.146
		c-0.175,0-0.351,0-0.524,0c0,2.271,0,4.544,0,6.816c0.174,0,0.35,0,0.524,0C387.416,150.5,387.416,151.899,387.416,153.296z"/>
	<path fill="#454545" d="M510.114,142.286c0,5.592,0,11.187,0,16.779c0,2.819-0.219,6.374,0.521,8.39c0.35,0,0.701,0,1.051,0
		c0,0.174,0,0.35,0,0.524c0.176,0,0.35,0,0.525,0c0-0.174,0-0.35,0-0.524c1.746,0.174,3.494,0.35,5.242,0.524
		c0.146,0.034,0.16,0.681,1.049,0.524c0-0.175,0-0.349,0-0.524c0.873,0,1.748,0,2.623,0c0-0.174,0-0.35,0-0.524
		c0.697,0,1.396,0,2.096,0c0-0.175,0-0.349,0-0.524c1.049-0.175,2.098-0.351,3.145-0.525c0-0.175,0-0.349,0-0.524
		c0.701-0.174,1.4-0.349,2.098-0.524c0-0.174,0-0.35,0-0.523c0.352,0,0.701,0,1.051,0c0.35-0.525,0.697-1.05,1.049-1.574
		c0.348,0,0.699,0,1.049,0c0.174-0.523,0.35-1.049,0.525-1.572c0.521-0.35,1.045-0.7,1.57-1.05c0-0.349,0-0.699,0-1.049
		c0.352-0.174,0.699-0.349,1.049-0.523c0.174-0.698,0.35-1.399,0.525-2.098c0.174,0,0.35,0,0.523,0c0-0.699,0-1.398,0-2.097
		c0.35-0.174,0.701-0.35,1.049-0.525c0-0.698,0-1.397,0-2.097c0.174,0,0.35,0,0.525,0c0-0.35,0-0.698,0-1.048
		c0.174,0,0.348,0,0.523,0c0.176-1.922,0.35-3.846,0.525-5.768c-0.176,0-0.35,0-0.525,0c0-0.174,0-0.35,0-0.523
		c0.176-0.526,0.35-1.049,0.525-1.574c-0.176,0-0.35,0-0.525,0c-0.176-1.048-0.35-2.097-0.523-3.146c-0.176,0-0.352,0-0.525,0
		c0-0.349,0-0.699,0-1.048c-0.176,0-0.348,0-0.523,0c-0.176-1.049-0.35-2.098-0.525-3.146c-0.35-0.174-0.699-0.35-1.049-0.523
		c-0.176-0.525-0.35-1.05-0.523-1.574c-0.699-0.524-1.398-1.048-2.096-1.573c0-0.349,0-0.699,0-1.049
		c-0.352-0.174-0.701-0.349-1.051-0.524c-0.523-0.699-1.049-1.398-1.572-2.096c-0.35,0-0.699,0-1.051,0
		c-0.174-0.351-0.35-0.7-0.525-1.049c-0.521-0.175-1.047-0.35-1.572-0.524c0-0.176,0-0.35,0-0.523
		c-1.572-0.175-3.146-0.351-4.719-0.525c0-0.176,0-0.351,0-0.524c-0.35,0-0.697,0-1.047,0c0-0.175,0-0.351,0-0.525
		c-3.32,0-6.643,0-9.965,0c-1.199,3.164-0.506,9.032-0.521,13.109C510.104,140.016,509.579,141.561,510.114,142.286z"/>
	<path fill="#454545" d="M275.729,151.724c0.176-1.049,0.351-2.097,0.525-3.146c-0.174,0-0.349,0-0.525,0c0-0.525,0-1.05,0-1.574
		c-0.174,0-0.349,0-0.525,0c-0.35-1.572-0.699-3.146-1.047-4.718c-0.174,0-0.35,0-0.525,0c0-0.35,0-0.699,0-1.049
		c-0.174,0-0.35,0-0.525,0c0-0.524,0-1.049,0-1.572c-0.174,0-0.35,0-0.525,0c0-0.351,0-0.701,0-1.049c-0.174,0-0.35,0-0.522,0
		c-0.35-1.922-0.701-3.845-1.05-5.768c-0.591-0.448-0.081,0.07-0.525-0.525c-0.523,0-1.047,0-1.572,0c0,0.175,0,0.35,0,0.525
		c-0.176,0-0.35,0-0.526,0c-0.349,1.747-0.697,3.495-1.046,5.243c-0.174,0-0.35,0-0.525,0c0,0.524,0,1.049,0,1.574
		c-0.174,0-0.35,0-0.525,0c0,0.523,0,1.048,0,1.572c-0.176,0-0.35,0-0.525,0c0,0.35,0,0.699,0,1.049c-0.173,0-0.348,0-0.523,0
		c-1.177,2.664-1.188,5.543-3.147,7.342c0.176,0.522,0.35,1.047,0.525,1.572C266.991,151.374,271.359,151.549,275.729,151.724z"/>
	<path fill="#454545" d="M373.258,287.529c1.247-1.145,1.469,0.039,2.097-2.098c2.524-0.663,1.963-2.255,3.147-4.193
		c0.35-0.176,0.699-0.351,1.047-0.525c0-0.699,0-1.397,0-2.097c0.35-0.175,0.701-0.351,1.05-0.525c0-0.523,0-1.048,0-1.573
		c0.176,0,0.351,0,0.524,0c0-2.795,0-5.593,0-8.389c-0.174,0-0.349,0-0.524,0c0-0.523,0-1.05,0-1.572c-0.175,0-0.349,0-0.524,0
		c0-0.7,0-1.398,0-2.1c-0.176,0-0.35,0-0.525,0c0-0.348,0-0.698,0-1.047c-0.175,0-0.348,0-0.522,0
		c-0.351-1.049-0.7-2.098-1.05-3.147c-0.351-0.175-0.699-0.349-1.047-0.523c0-0.35,0-0.699,0-1.049
		c-0.701-0.524-1.4-1.049-2.098-1.573c-0.175-0.35-0.351-0.698-0.525-1.049c-0.35,0-0.7,0-1.049,0
		c-0.176-0.351-0.352-0.698-0.525-1.049c-0.522-0.174-1.047-0.35-1.572-0.522c0-0.176,0-0.35,0-0.524c-0.351,0-0.698,0-1.047,0
		c-0.176-0.351-0.352-0.699-0.525-1.05c-0.875-0.175-1.748-0.35-2.623-0.525c0-0.173,0-0.348,0-0.523c-0.35,0-0.699,0-1.048,0
		c0-0.175,0-0.349,0-0.524c-1.575-0.35-3.147-0.7-4.72-1.048c0,0.174,0,0.348,0,0.523c-0.699,0-1.398,0-2.097,0
		c0-0.176,0-0.35,0-0.523c-1.05,0-2.097,0-3.147,0c-0.117,2.86-1.455,9.793-0.524,13.108c0.472,1.68,1.201,8.054,0.524,10.486
		c-0.176,0-0.35,0-0.524,0c0,1.748,0,3.496,0,5.244c0,2.776,1.034,10.352,0,11.535c0.026,1.5,0.183,2.246,0.524,3.146
		c2.623-0.175,5.244-0.351,7.867-0.524c0-0.175,0-0.351,0-0.524c0.521,0,1.047,0,1.572,0c0-0.174,0-0.35,0-0.524
		c0.35,0,0.699,0,1.047,0c0-0.176,0-0.351,0-0.525c0.701,0,1.4,0,2.099,0c0-0.173,0-0.349,0-0.523c0.349,0,0.699,0,1.05,0
		c0-0.176,0-0.351,0-0.524c0.35,0,0.699,0,1.047,0C371.51,289.627,372.385,288.578,373.258,287.529z"/>
	<path fill="#454545" d="M506.442,292.249c0-2.622,0-5.243,0-7.865c-0.176,0-0.352,0-0.523,0c0-0.524,0-1.05,0-1.572
		c-0.174,0-0.35,0-0.525,0c0.176-0.524,0.352-1.049,0.525-1.573c-0.174,0-0.35,0-0.525,0c-0.174-2.797-0.35-5.594-0.523-8.39
		c-0.176,0-0.352,0-0.525,0c0-0.7,0-1.399,0-2.098c-0.176,0-0.352,0-0.525,0c0-0.524,0-1.049,0-1.573c-0.174,0-0.348,0-0.521,0
		c0-0.874,0-1.748,0-2.621c-0.176,0-0.35,0-0.525,0c0-0.524,0-1.05,0-1.573c-0.176,0-0.352,0-0.525,0c0-0.351,0-0.699,0-1.049
		c-0.174,0-0.35,0-0.525,0c-0.348-1.748-0.697-3.496-1.047-5.244c-0.35-0.175-0.699-0.351-1.049-0.524
		c-0.176-0.698-0.35-1.398-0.523-2.098c-0.176,0-0.35,0-0.525,0c-0.74-0.929-1.221-1.247-1.572-2.621
		c-1.049-0.315-0.451,0.072-1.049-0.524c-2.447,0-4.895,0-7.342,0c-0.348,0.524-0.697,1.05-1.049,1.574c-0.35,0-0.699,0-1.049,0
		c0,0.173,0,0.349,0,0.522c-0.873,0.698-1.748,1.399-2.621,2.098c-1.049,5.244-2.096,10.488-3.146,15.731
		c-0.35,8.562-0.699,17.129-1.047,25.691c0,5.419,0,10.838,0,16.254c0.174,0,0.348,0,0.521,0c0,1.225,0,2.449,0,3.672
		c0.176,0,0.35,0,0.525,0c0,1.397,0,2.798,0,4.194c0.176,0,0.35,0,0.525,0c0,1.05,0,2.098,0,3.147c0.174,0,0.35,0,0.525,0
		c0,1.223,0,2.446,0,3.67c0.172,0,0.348,0,0.521,0c0.176,1.224,0.352,2.446,0.525,3.671c0.174,0,0.35,0,0.525,0
		c0,0.522,0,1.048,0,1.572c0.174,0,0.348,0,0.523,0c0,0.698,0,1.397,0,2.098c0.176,0,0.35,0,0.523,0
		c0.174,1.398,0.35,2.798,0.525,4.195c0.174,0,0.35,0,0.523,0c0,0.349,0,0.698,0,1.047c0.176,0,0.352,0,0.525,0
		c0,0.701,0,1.399,0,2.099c0.176,0,0.348,0,0.523,0c0.58,0.848,0.729,0.885,1.049,2.099c1.242,0.314,2.477,1.246,3.146,2.096
		c1.748-0.173,3.496-0.351,5.244-0.523c0-0.176,0-0.351,0-0.525c0.873,0,1.746,0,2.621,0c0-0.174,0-0.349,0-0.524
		c5.127-1.337,6.312-10.05,7.865-15.205c0.176-2.273,0.35-4.545,0.523-6.817c1.049-3.469,1.1-7.801,1.051-12.583
		c0-0.874,0-1.75,0-2.622c-0.035-0.146-0.684-0.16-0.525-1.05c0.176,0,0.35,0,0.525,0
		C509.073,303.845,507.343,295.391,506.442,292.249z"/>
	<path fill="#454545" d="M309.812,307.98c-0.176,0-0.35,0-0.523,0c0-0.876,0-1.748,0-2.624c-0.175,0-0.349,0-0.525,0
		c0-1.223,0-2.447,0-3.67c-0.173,0-0.349,0-0.524,0c0-0.873,0-1.747,0-2.621c-0.174,0-0.35,0-0.525,0c0-0.873,0-1.748,0-2.622
		c-0.174,0-0.35,0-0.525,0c0-1.923,0-3.846,0-5.768c-0.173,0-0.348,0-0.523,0c0-1.049,0-2.098,0-3.146c-0.175,0-0.349,0-0.524,0
		c0-0.872,0-1.748,0-2.62c-0.176,0-0.35,0-0.525,0c0-0.7,0-1.399,0-2.098c-0.176,0-0.35,0-0.525,0c0-1.749,0-3.496,0-5.244
		c-0.173,0-0.348,0-0.523,0c0-0.175,0-0.349,0-0.524c-0.525,0-1.05,0-1.575,0c-0.728,1.955,0.208,5.354-0.522,7.866
		c-0.175,0-0.351,0-0.525,0c-0.175,1.922-0.349,3.844-0.525,5.767c-0.175,0-0.349,0-0.525,0c0,0.524,0,1.048,0,1.573
		c-0.175,0-0.348,0-0.522,0c-0.176,1.573-0.351,3.146-0.525,4.719c-0.176,0-0.351,0-0.524,0c0,1.398,0,2.797,0,4.194
		c-0.176,0-0.35,0-0.525,0c0,0.874,0,1.747,0,2.622c-0.176,0-0.35,0-0.523,0c0,0.874,0,1.748,0,2.621c-0.175,0-0.351,0-0.525,0
		c0,1.224,0,2.447,0,3.671c-0.175,0-0.351,0-0.525,0c-0.175,1.923-0.349,3.847-0.525,5.768c-0.175,0-0.349,0-0.522,0
		c0,1.05,0,2.098,0,3.147c-0.351,0.173-0.7,0.349-1.05,0.523c0.123,1.237,0.222,1.296,0.525,2.097
		c2.447-0.173,4.894-0.349,7.339-0.523c0-0.175,0-0.351,0-0.524c0.875,0.174,1.75,0.35,2.623,0.524c0-0.175,0-0.351,0-0.524
		c3.079,0.037,3.936-0.08,5.768-1.049c-0.078-3.324-0.803-5.802-1.574-8.389C309.812,310.076,309.812,309.028,309.812,307.98z"/>
	<path fill="#454545" d="M475.505,448.504c0-1.049,0-2.096,0-3.146c-0.174,0-0.348,0-0.521,0c0-1.574,0-3.146,0-4.72
		c-0.176,0-0.352,0-0.525,0c-0.762-2.433-0.416-4.84-2.098-6.291c-0.488-1.771-1.309-1.82-3.148-2.099
		c-0.871,1.398-1.746,2.797-2.619,4.195c0,0.523,0,1.049,0,1.573c-0.174,0-0.35,0-0.525,0c0,0.698,0,1.398,0,2.098
		c-0.174,0-0.348,0-0.523,0c0,0.698,0,1.397,0,2.097c-0.176,0-0.35,0-0.525,0c0,0.874,0,1.748,0,2.622c-0.176,0-0.35,0-0.525,0
		c0,2.272,0,4.544,0,6.815c-0.535,1.907-1.262,9.405-0.521,12.06c0.174,0,0.35,0,0.521,0c0.176,2.798,0.35,5.595,0.525,8.391
		c0.518,1.699,1.348,3.583,1.574,5.769c0.668,0.324,1.119,0.51,1.574,1.047c1.045,0,2.096,0,3.145,0
		c0.246-0.122,2.436-3.734,2.621-4.193c0-0.524,0-1.05,0-1.574c0.176,0,0.35,0,0.525,0c0-1.222,0-2.447,0-3.67
		c0.174,0,0.35,0,0.525,0c0-0.699,0-1.398,0-2.097c0.174,0,0.348,0,0.521,0c0-2.797,0-5.594,0-8.39
		c0.176-2.272,0.35-4.546,0.525-6.816c-0.176-0.876-0.35-1.748-0.525-2.621c0.176,0,0.35,0,0.525,0
		C476.142,448.454,475.505,448.504,475.505,448.504z"/>
	<path fill="#454545" d="M354.381,460.564c-0.174,0-0.35,0-0.524,0c0-1.399,0-2.798,0-4.194c-1.448-4.505-3.198-9.686-3.145-15.731
		c-0.875-0.176-1.75-0.349-2.622-0.523c-0.086,5.185-1.379,10.012-2.623,14.157c-0.803,2.683,0.372,4.51-1.572,6.292
		c-0.019,1.996,0.042,3.965,0.522,5.243c2.827-0.08,7.056-0.681,7.866,0c1.238-0.125,1.297-0.222,2.098-0.522
		c0.176-1.05,0.35-2.099,0.524-3.147c-0.175,0-0.349,0-0.524,0C354.381,461.613,354.381,461.088,354.381,460.564z"/>
	<path fill="#454545" d="M267.341,454.272c-0.174,0-0.35,0-0.525,0c-0.174-1.398-0.35-2.796-0.525-4.195c-0.176,0-0.35,0-0.525,0
		c0-0.523,0-1.049,0-1.573c-0.173,0-0.348,0-0.523,0c0-1.397,0-2.798,0-4.194c-0.175,0-0.349,0-0.524,0
		c-0.323-1.271-0.553-1.152-1.05-2.098c-0.348,0-0.698,0-1.048,0c-0.597,1.536-1.117,4.261-1.572,5.767c0,1.225,0,2.448,0,3.671
		c-0.175,0-0.351,0-0.525,0c0,0.698,0,1.399,0,2.099c-0.175,0-0.351,0-0.525,0c0,0.874,0,1.747,0,2.622c-0.175,0-0.351,0-0.525,0
		c0,1.049,0,2.097,0,3.146c-0.175,0-0.351,0-0.522,0c0,1.572,0,3.147,0,4.72c-0.175,0-0.351,0-0.525,0
		c-0.175,1.223-0.349,2.446-0.525,3.67c1.935-0.079,6.995-0.739,8.39,0.524c1.237-0.125,1.296-0.223,2.096-0.524
		c-0.249-2.57-0.944-5.669-1.571-7.866C266.223,457.959,267.577,455.608,267.341,454.272z"/>
</g>
</svg>
