<?xml version="1.0" encoding="utf-8"?>
<!-- Generator: Adobe Illustrator 16.0.0, SVG Export Plug-In . SVG Version: 6.00 Build 0)  -->
<!DOCTYPE svg PUBLIC "-//W3C//DTD SVG 1.1//EN" "http://www.w3.org/Graphics/SVG/1.1/DTD/svg11.dtd">
<svg version="1.1" id="Layer_1" xmlns="http://www.w3.org/2000/svg" xmlns:xlink="http://www.w3.org/1999/xlink" x="0px" y="0px"
	 width="800px" height="600px" viewBox="0 0 800 600" enable-background="new 0 0 800 600" xml:space="preserve">
<path fill-rule="evenodd" clip-rule="evenodd" fill="#444444" d="M385.637,440.781c1.798,0.485,1.934,1.336,1.082,2.537
	c2.451,1.465,4.893,2.942,7.3,4.475c4.477,2.85,5.262,3.04,9.595-0.016c1.429-1.005,3.055-1.727,4.542-2.657
	c5.333-3.334,10.607-6.764,15.975-10.04c5.753-3.511,11.532-6.981,17.396-10.299c5.494-3.108,11.227-5.809,16.652-9.028
	c5.588-3.318,10.867-7.155,16.413-10.55c2.776-1.7,5.99-2.69,8.75-4.414c3.865-2.412,7.302-5.541,11.254-7.774
	c10.28-5.812,20.816-11.167,31.077-17.01c2.732-1.556,6.604-2.564,6.67-6.885c0.037-2.457,0.002-4.92-0.108-7.376
	c-0.413-9.208-1.06-18.41-1.264-27.622c-0.242-10.987-0.047-21.984-0.179-32.976c-0.085-7.022-0.479-14.04-0.623-21.063
	c-0.136-6.547,0.386-13.15-0.291-19.634c-1.152-11.023,0.001-21.922,0.738-32.854c0.33-4.881,0.19-5.431-4.657-7.541
	c-0.419-0.184-0.747-0.565-1.149-0.801c-10.711-6.245-21.407-12.515-32.145-18.711c-5.159-2.978-10.378-5.85-15.605-8.705
	c-9.765-5.335-19.609-10.526-29.311-15.972c-4.586-2.574-8.805-5.81-13.398-8.371c-7.465-4.163-15.111-8.004-22.664-12.014
	c-3.206-1.703-6.214-3.957-9.604-5.071c-2.174-0.714-5.186-0.463-7.29,0.509c-5.078,2.341-9.808,5.424-14.746,8.084
	c-3.519,1.896-7.226,3.45-10.707,5.408c-4.354,2.449-8.479,5.303-12.848,7.722c-12.243,6.781-24.561,13.428-36.848,20.13
	c-6.661,3.633-13.334,7.243-19.969,10.923c-4.583,2.54-9.108,5.186-13.662,7.777c-3.964,2.256-8.062,4.309-11.846,6.832
	c-2.01,1.342-4.771,3.367-4.958,5.301c-0.642,6.616-0.329,13.328-0.313,20.003c0.015,6.211,0.308,12.427,0.135,18.631
	c-0.353,12.653-1.233,25.298-1.353,37.951c-0.157,16.621,0.233,33.246,0.342,49.87c0.055,8.3,0.01,16.601,0.01,24.346
	c1.222,0.607,2.333,1.122,3.388,1.649c0.469-0.195,1.108,0.252,1.221,0.643c0.185,0.102,0.374,0.198,0.556,0.305
	c1.21,0.706,2.212,1.773,3.431,2.458c11.607,6.518,23.209,13.045,34.884,19.438c4.614,2.528,9.589,4.427,14.08,7.143
	c7.17,4.337,14.001,9.235,21.109,13.682c8.26,5.166,16.629,10.16,24.979,15.182c0.386,0.003,0.767,0.003,1.108-0.036
	c-0.027,0.229-0.081,0.431-0.149,0.612c0.257,0.154,0.516,0.309,0.774,0.465c3.951,2.379,7.941,4.695,11.908,7.049
	C385.523,442.017,385.659,441.479,385.637,440.781z M518.703,334.33C522.919,334.94,517.973,339.888,518.703,334.33L518.703,334.33z
	 M508.612,357.273c-0.288,1.244-2.3,0.764-3.674,0.914C505.229,356.943,507.237,357.435,508.612,357.273z M507.696,349.014
	c-0.507,2.178-3.554,3.802-5.509,1.835C502.291,348.505,505.259,349.028,507.696,349.014z M495.762,217.786
	c0.435,1.956-1.311,1.739-2.75,1.836C493.414,218.487,494.187,217.73,495.762,217.786z M482.921,395.812
	c2.283,0.38,0.048,3.564-1.842,2.761C481.4,397.366,482.696,397.124,482.921,395.812z M480.163,378.382
	C480.347,375.63,483.975,379.256,480.163,378.382L480.163,378.382z M478.32,326.072C479.407,323.279,483.194,327.06,478.32,326.072
	L478.32,326.072z M474.654,363.696C474.838,360.948,478.465,364.573,474.654,363.696L474.654,363.696z M477.412,368.28
	c-0.226,1.626-1.583,2.101-3.675,1.845C474.341,368.894,475.7,368.415,477.412,368.28z M471.903,256.328
	C472.089,253.579,475.717,257.205,471.903,256.328L471.903,256.328z M471.903,325.157c-0.4,1.123-1.182,1.88-2.757,1.829
	C468.719,325.025,470.465,325.244,471.903,325.157z M460.888,359.104c-0.217,1.62-1.575,2.1-3.666,1.844
	C456.297,358.188,459.263,359.321,460.888,359.104z M455.387,386.638c-1.376,2.614-4.632,3.322-8.265,3.676
	C448.776,387.988,451.961,387.194,455.387,386.638z M436.112,396.739c0,0.609,0,1.224,0,1.834c-1.921,0.386-2.429-0.628-3.675-0.926
	C433.347,396.169,434.89,395.54,436.112,396.739z M427.854,417.848C425.835,420.646,421.976,416.778,427.854,417.848
	L427.854,417.848z M426.938,191.162c0.16,2.002-0.757,2.928-2.749,2.759C424.02,191.918,424.926,191.001,426.938,191.162z
	 M415.921,209.52c-1.383,1.304-3.958,3.403-5.508,1.834C410.919,209.182,413.967,207.552,415.921,209.52z M408.58,207.686
	c0.168,2.006-0.749,2.92-2.752,2.753C405.659,208.435,406.576,207.519,408.58,207.686z M404.911,198.504
	c-0.401,1.135-1.173,1.89-2.757,1.842C401.728,198.384,403.465,198.594,404.911,198.504z M390.229,402.238
	C392.504,398.661,391.563,405.28,390.229,402.238L390.229,402.238z M389.304,237.971
	C390.397,235.189,394.178,238.968,389.304,237.971L389.304,237.971z M280.103,235.219
	C280.288,232.471,283.914,236.09,280.103,235.219L280.103,235.219z M300.287,382.05C300.47,379.308,304.099,382.931,300.287,382.05
	L300.287,382.05z M300.287,220.528C300.47,217.786,304.099,221.413,300.287,220.528L300.287,220.528z M306.712,323.314
	C308.996,319.742,308.055,326.361,306.712,323.314L306.712,323.314z M316.812,325.157c-2.486-0.821,0.426-3.727,2.758-2.751
	C319.843,324.519,316.908,323.419,316.812,325.157z M324.145,250.821c-0.395,1.124-1.174,1.881-2.75,1.833
	C321.796,251.518,322.569,250.765,324.145,250.821z M322.312,259.07C323.405,256.289,327.184,260.075,322.312,259.07L322.312,259.07
	z M338.837,367.372C341.121,363.785,340.172,370.411,338.837,367.372L338.837,367.372z M343.421,402.238
	C345.703,398.661,344.762,405.28,343.421,402.238L343.421,402.238z M350.77,389.397c-0.395-1.924,0.618-2.43,0.909-3.676
	c1.736,0.097,0.642,3.04,2.758,2.752C354.147,389.72,352.136,389.235,350.77,389.397z M375.546,162.722
	c1.06,0.771,2.452,1.205,4.583,0.909C380.289,165.131,374.13,165.486,375.546,162.722z M378.296,435.282
	c0.488-2.871,3.424-3.312,6.425-3.677C385.154,435.401,380.426,434.051,378.296,435.282z"/>
</svg>
