<?xml version="1.0" encoding="utf-8"?>
<!-- Generator: Adobe Illustrator 16.0.0, SVG Export Plug-In . SVG Version: 6.00 Build 0)  -->
<!DOCTYPE svg PUBLIC "-//W3C//DTD SVG 1.1//EN" "http://www.w3.org/Graphics/SVG/1.1/DTD/svg11.dtd">
<svg version="1.1" id="Layer_1" xmlns="http://www.w3.org/2000/svg" xmlns:xlink="http://www.w3.org/1999/xlink" x="0px" y="0px"
	 width="800px" height="50px" viewBox="0 150 800 50" enable-background="new 0 150 800 50" xml:space="preserve">
<path fill="#444444" d="M396.253,175.326c-0.4-1.126-0.872-2.375-1.287-3.644c-0.437-1.333-0.795-2.691-1.23-4.025
	c-0.369-1.13-0.804-2.238-1.199-3.359c-0.128-0.364-0.183-0.761-0.343-1.108c-0.378-0.816-0.862-1.588-1.19-2.422
	c-0.609-1.549-1.652-2.77-2.789-3.929c-0.339-0.345-1.356-0.314-1.485,0.041c-0.187,0.515-0.429,1.082-0.375,1.6
	c0.25,2.388,0.552,4.772,0.922,7.145c0.214,1.37,0.554,2.725,0.906,4.068c0.474,1.81,1.042,3.595,1.516,5.404
	c0.409,1.561,0.752,3.139,1.108,4.712c0.21,0.932,0.309,1.794-0.268,2.727c-0.565,0.913-1.037,1.759-2.253,1.697
	c-0.261-0.014-0.53-0.142-0.767-0.269c-0.143-0.077-0.216-0.275-0.348-0.384c-0.989-0.809-2.024-1.565-2.969-2.422
	c-1.22-1.105-2.637-1.84-4.144-2.437c-0.112-0.044-0.279-0.031-0.392,0.02c-0.841,0.37-1.699,0.711-2.502,1.151
	c-0.772,0.423-1.215,2.05-0.841,2.824c0.134,0.278,0.336,0.53,0.439,0.818c0.404,1.13,0.945,2.175,1.771,3.059
	c0.654,0.699,1.294,1.413,1.965,2.096c0.934,0.95,1.806,1.991,2.863,2.779c0.898,0.669,1.646,1.604,2.799,1.911
	c0.05,0.014,0.084,0.079,0.129,0.116c0.619,0.503,1.231,1.012,1.857,1.505c0.803,0.632,1.614,1.253,2.425,1.875
	c0.292,0.224,0.664,0.382,0.876,0.662c0.531,0.7,1.279,0.963,2.07,1.082c0.565,0.085,1.158-0.03,1.737-0.013
	c1.726,0.054,3.451,0.118,5.176,0.199c1.004,0.048,2.01,0.228,3.01,0.188c1.828-0.071,3.652-0.26,5.477-0.405
	c0.271-0.021,0.541-0.1,0.812-0.105c0.853-0.017,1.711,0.044,2.558-0.029c0.756-0.065,1.495-0.34,2.25-0.393
	c0.886-0.062,1.252-0.682,1.45-1.33c0.683-2.229,1.307-4.479,1.886-6.738c0.338-1.32,0.514-2.682,0.824-4.011
	c0.32-1.363,0.713-2.711,1.082-4.062c0.314-1.149,0.676-2.287,0.955-3.445c0.379-1.568,0.695-3.151,1.045-4.727
	c0.375-1.689,0.757-3.377,1.139-5.064c0.056-0.244,0.15-0.481,0.191-0.728c0.229-1.404,0.488-2.807,0.652-4.219
	c0.09-0.785,0.039-1.591-0.004-2.385c-0.014-0.254-0.229-0.491-0.306-0.749c-0.15-0.498-0.242-1.015-0.408-1.507
	c-0.142-0.423-0.45-0.589-0.878-0.35c-1.094,0.611-1.965,1.445-2.524,2.578c-0.57,1.155-1.096,2.328-1.25,3.629
	c-0.017,0.134-0.061,0.271-0.122,0.392c-0.627,1.212-0.781,2.562-1.131,3.854c-0.152,0.564-0.256,1.142-0.395,1.709
	c-0.261,1.063-0.649,2.113-0.758,3.191c-0.08,0.788-0.332,1.357-0.914,1.832c-0.298,0.243-1.102,0.227-1.388-0.023
	c-0.739-0.646-0.878-1.561-0.537-2.317c0.548-1.216,0.756-2.497,1.06-3.758c0.435-1.799,0.789-3.618,1.139-5.436
	c0.434-2.248,1.027-4.466,1.242-6.755c0.041-0.443,0.197-0.881,0.198-1.321c0.003-1.309,0.003-2.643-0.875-3.73
	c-0.195-0.242-0.673-0.489-0.923-0.412c-0.859,0.264-1.746,0.703-2.1,1.542c-0.406,0.966-1.086,1.816-1.203,2.923
	c-0.068,0.635-0.427,1.233-0.576,1.867c-0.281,1.192-0.494,2.4-0.757,3.597c-0.282,1.281-0.644,2.548-0.876,3.837
	c-0.354,1.967-0.547,3.965-0.965,5.916c-0.224,1.042,0.195,2.459-1.322,2.952c-0.029,0.009-0.038,0.067-0.064,0.096
	c-0.273,0.306-1.324,0.317-1.541-0.017c-0.264-0.405-0.518-0.831-0.688-1.28c-0.78-2.062-1.579-4.12-2.278-6.211
	c-0.594-1.778-1.074-3.597-1.576-5.405c-0.331-1.194-0.567-2.417-0.922-3.604c-0.677-2.265-1.641-4.407-2.931-6.392
	c-0.315-0.484-0.688-1.012-1.352-1c-0.363,0.007-0.717,0.275-1.083,0.297c-0.666,0.039-0.763,0.591-0.889,0.998
	c-0.244,0.785-0.275,1.594-0.144,2.442c0.229,1.472,0.267,2.972,0.448,4.452c0.116,0.945,0.292,1.892,0.54,2.812
	c0.369,1.368,0.828,2.712,1.242,4.068c0.176,0.577,0.329,1.162,0.504,1.74c0.346,1.138,0.691,2.275,1.054,3.408
	c0.201,0.629,0.429,1.249,0.658,1.868c0.295,0.799,0.235,1.582-0.13,2.332c-0.057,0.116-0.342,0.188-0.51,0.17
	C397.15,175.549,396.782,175.44,396.253,175.326z"/>
</svg>
