<?xml version="1.0" encoding="utf-8"?>
<!-- Generator: Adobe Illustrator 16.0.0, SVG Export Plug-In . SVG Version: 6.00 Build 0)  -->
<!DOCTYPE svg PUBLIC "-//W3C//DTD SVG 1.1//EN" "http://www.w3.org/Graphics/SVG/1.1/DTD/svg11.dtd">
<svg version="1.1" id="Layer_1" xmlns="http://www.w3.org/2000/svg" xmlns:xlink="http://www.w3.org/1999/xlink" x="0px" y="0px"
	 width="800px" height="50px" viewBox="0 0 800 50" enable-background="new 0 0 800 50" xml:space="preserve">
<path fill="#444444" d="M422.888,44.445c-0.169-0.463-0.162-0.99-0.223-1.49c-0.074-0.608-0.115-1.223-0.209-1.828
	c-0.104-0.659-0.25-1.313-0.38-1.971c-0.03-0.149-0.085-0.295-0.104-0.446c-0.133-1.092-0.688-2.062-0.82-3.168
	c-0.162-1.34-1.14-2.29-1.971-3.242c-0.67-0.766-1.601-1.298-2.362-1.992c-1.354-1.23-3.03-1.77-4.716-2.304
	c-0.655-0.209-1.312-0.411-1.989-0.62c0.028-0.148,0.036-0.25,0.069-0.344c0.304-0.829,0.678-1.64,0.903-2.488
	c0.35-1.312,0.862-2.533,1.611-3.662c0.054-0.08,0.061-0.192,0.085-0.291c0.059-0.221,0.108-0.443,0.173-0.661
	c0.194-0.663,0.404-1.32,0.582-1.986c0.056-0.209,0.021-0.44,0.041-0.659c0.063-0.724,0.219-1.451,0.186-2.17
	c-0.073-1.536-0.092-3.087-0.448-4.594c-0.361-1.525-0.302-3.136-1.33-4.527c-0.497-0.672-0.936-1.376-1.562-1.941
	c-0.188-0.168-0.416-0.344-0.501-0.563c-0.16-0.415-0.229-0.864-0.348-1.354c-0.423-0.075-0.853-0.144-1.275-0.23
	c-0.126-0.024-0.249-0.095-0.357-0.166c-0.231-0.149-0.435-0.364-0.686-0.463c-1.179-0.466-2.438-0.243-3.614-0.138
	c-1.038,0.093-2.016-0.155-3.025-0.131c-0.571,0.013-1.118,0.015-1.667,0.168c-0.685,0.188-1.373,0.352-2.059,0.535
	c-0.583,0.156-1.214,0.232-1.731,0.513c-0.971,0.521-1.916,1.11-2.79,1.778c-0.605,0.461-1.154,1.047-1.582,1.677
	c-0.527,0.778-0.937,1.646-1.334,2.502c-0.399,0.86-0.763,1.739-1.066,2.637c-0.249,0.737-0.34,1.527-0.586,2.267
	c-0.331,1.004-0.349,2.029-0.345,3.062c0.002,0.372,0,0.747,0.052,1.114c0.081,0.586,0.178,1.173,0.317,1.747
	c0.181,0.742,0.285,1.541,0.646,2.188c0.482,0.864,1.19,1.601,1.783,2.406c0.318,0.432,0.689,0.856,0.875,1.347
	c0.278,0.729,0.422,1.508,0.599,2.274c0.027,0.112-0.047,0.333-0.136,0.377c-0.887,0.427-1.782,0.832-2.681,1.233
	c-0.498,0.223-1.037,0.373-1.504,0.646c-1.609,0.947-2.901,2.286-4.208,3.593c-0.706,0.705-1.271,1.551-1.969,2.266
	c-1.112,1.137-1.928,2.457-2.507,3.91c-0.53,1.334-1.14,2.653-1.22,4.127c-0.005,0.097-0.062,0.193-0.107,0.283
	c-0.438,0.846-0.47,1.77-0.367,2.669c0.092,0.812,0.535,1.472,1.197,2.015c0.348,0.281,0.709,0.433,1.063,0.326
	c0.877-0.266,1.697-0.109,2.527,0.146c0.087,0.026,0.179,0.062,0.266,0.057c0.503-0.027,1.004-0.102,1.505-0.096
	c1.137,0.012,2.271,0.076,3.408,0.088c0.807,0.008,1.616-0.06,2.423-0.052c1.113,0.013,2.225,0.066,3.337,0.098
	c1.1,0.032,2.198,0.061,3.297,0.086c0.066,0.002,0.134-0.025,0.2-0.029c0.885-0.059,1.769-0.12,2.653-0.163
	c0.208-0.011,0.42,0.073,0.63,0.077c0.756,0.01,1.512-0.002,2.269,0.005c1.392,0.016,2.781,0.04,4.172,0.057
	c0.083,0.002,0.167-0.041,0.252-0.044c0.771-0.033,1.543-0.091,2.313-0.082c0.759,0.01,1.516,0.122,2.273,0.127
	c1.06,0.007,2.117-0.055,3.179-0.066c0.536-0.008,1.073,0.05,1.609,0.045c0.612-0.004,1.228-0.033,1.84-0.064
	c0.302-0.018,0.602-0.094,0.899-0.09c0.876,0.015,1.751,0.097,2.626,0.078c0.824-0.02,1.666-0.721,1.858-1.508
	c0.08-0.332,0.015-0.696,0.063-1.039C422.988,45.679,423.12,45.085,422.888,44.445z M409.575,37.933
	c-0.408,0.533-0.752,1.224-1.662,1.014c-0.296-0.068-0.635,0.071-0.956,0.088c-0.829,0.045-1.659,0.073-2.488,0.112
	c-0.475,0.021-0.951,0.034-1.421,0.096c-0.1,0.013-0.252,0.229-0.243,0.343c0.044,0.559,0.173,1.108,0.198,1.663
	c0.044,0.994,0.062,1.989,0.034,2.981c-0.009,0.322-0.172,0.651-0.314,0.955c-0.064,0.14-0.233,0.254-0.382,0.326
	c-1.232,0.618-2.774-0.388-2.785-1.76c-0.009-1.337-0.095-2.672-0.172-4.006c-0.006-0.118-0.192-0.318-0.306-0.324
	c-1.229-0.066-2.432-0.375-3.692-0.249c-0.729,0.073-1.609,0.283-2.222-0.489c-0.539-0.679-0.668-1.627-0.028-2.42
	c0.682-0.845,1.541-1.226,2.628-1.162c1.09,0.062,2.183,0.062,3.271,0.099c0.287,0.01,0.396-0.112,0.392-0.396
	c-0.029-1.203-0.053-2.408-0.073-3.612c-0.007-0.374-0.051-0.759,0.018-1.12c0.057-0.298,0.166-0.63,0.588-0.684
	c0.188-0.021,0.359-0.156,0.499-0.223c0.496,0.148,0.974,0.301,1.457,0.436c0.409,0.115,0.637,0.301,0.559,0.797
	c-0.049,0.318,0.076,0.662,0.116,0.996c0.021,0.164,0.037,0.334,0.026,0.498c-0.059,0.886-0.12,1.771-0.189,2.654
	c-0.021,0.311,0.104,0.437,0.415,0.428c1.272-0.025,2.545-0.053,3.818-0.053c0.468,0,0.903-0.167,1.415-0.007
	c0.566,0.179,0.975,0.347,1.179,0.917c0.148,0.415,0.345,0.82,0.433,1.248C409.738,37.354,409.729,37.734,409.575,37.933z"/>
</svg>
