<?xml version="1.0" encoding="utf-8"?>
<!-- Generator: Adobe Illustrator 16.0.0, SVG Export Plug-In . SVG Version: 6.00 Build 0)  -->
<!DOCTYPE svg PUBLIC "-//W3C//DTD SVG 1.1//EN" "http://www.w3.org/Graphics/SVG/1.1/DTD/svg11.dtd">
<svg version="1.1" id="Layer_1" xmlns="http://www.w3.org/2000/svg" xmlns:xlink="http://www.w3.org/1999/xlink" x="0px" y="0px"
	 width="800px" height="50px" viewBox="0 150 800 50" enable-background="new 0 150 800 50" xml:space="preserve">
<path fill="#444444" d="M427.471,186.055c-0.01-0.517,0.069-1.034,0.092-1.551c0.043-0.979-0.178-1.941-0.155-2.923
	c0.021-0.942-0.068-1.886-0.087-2.829c-0.025-1.162-0.031-2.324-0.039-3.485c-0.004-0.638,0.037-1.277-0.002-1.912
	c-0.051-0.819-0.24-1.636-0.225-2.451c0.014-0.718-0.385-1.449,0.035-2.157c0.008-0.013,0.002-0.033,0.002-0.051
	c-0.018-1.26-0.24-2.518-0.044-3.78c0.011-0.064-0.001-0.133-0.001-0.2c-0.008-0.742-0.029-1.485-0.02-2.229
	c0.012-0.837,0.059-1.675,0.075-2.512c0.016-0.804,0.012-1.607,0.018-2.411c0.005-0.656,0.036-1.313,0.007-1.969
	c-0.023-0.553-0.273-1.145-0.141-1.643c0.195-0.73-0.119-1.229-0.424-1.778c-0.055-0.099-0.16-0.229-0.252-0.238
	c-0.604-0.062-1.211-0.12-1.818-0.132c-0.947-0.017-1.895,0.021-2.842,0.006c-1.228-0.019-2.453-0.078-3.682-0.101
	c-1.352-0.023-2.703-0.001-4.055-0.043c-1.318-0.041-2.635-0.156-3.953-0.205c-1.146-0.043-2.293-0.048-3.438-0.047
	c-0.455,0-0.908,0.082-1.364,0.094c-0.994,0.026-1.989,0.057-2.983,0.038c-1.043-0.02-2.083-0.122-3.126-0.138
	c-1.621-0.023-3.244,0.021-4.864-0.012c-1.083-0.021-2.163-0.157-3.245-0.184c-1.245-0.03-2.491,0.008-3.736,0.008
	c-1.546-0.001-3.092,0.008-4.637-0.026c-0.811-0.018-1.619-0.156-2.43-0.173c-1.234-0.026-2.472-0.039-3.703,0.03
	c-0.622,0.036-1.248,0.222-1.844,0.422c-0.459,0.153-0.925,0.374-1.297,0.677c-0.33,0.269-0.734,0.679-0.758,1.049
	c-0.084,1.294-0.012,2.598-0.01,3.897c0.001,0.881-0.009,1.763-0.025,2.644c-0.016,0.909-0.058,1.818-0.065,2.729
	c-0.007,0.828,0.029,1.658,0.025,2.487c-0.004,0.728-0.072,1.457-0.048,2.185c0.05,1.553,0.16,3.104,0.21,4.656
	c0.046,1.413,0.049,2.828,0.066,4.243c0.015,1.256,0.026,2.512,0.035,3.768c0.003,0.368-0.004,0.735-0.014,1.103
	c-0.027,0.999-0.073,1.998-0.082,2.997c-0.005,0.654,0.052,1.309,0.062,1.964c0.011,0.828-0.083,1.669,0.027,2.483
	c0.097,0.711,0.394,1.412,1.154,1.729c0.229,0.096,0.482,0.148,0.73,0.187c1.163,0.18,2.325,0.366,3.492,0.513
	c1.424,0.179,2.876-0.127,4.296,0.244c0.364,0.095,0.764,0.086,1.146,0.072c0.935-0.033,1.867-0.107,2.802-0.145
	c0.979-0.037,1.963-0.115,2.937-0.056c1.077,0.065,2.147,0.258,3.217,0.415c0.143,0.021,0.358,0.135,0.387,0.245
	c0.219,0.84,0.304,1.716-0.256,2.438c-0.607,0.782-1.321,1.484-2.007,2.203c-0.116,0.122-0.341,0.132-0.493,0.229
	c-0.284,0.184-0.603,0.353-0.804,0.608c-0.106,0.134,0.041,0.444,0.008,0.666c-0.04,0.271-0.27,0.531,0.118,0.748
	c0.252,0.141,0.461,0.356,0.705,0.516c0.072,0.047,0.194,0.031,0.292,0.022c0.613-0.058,1.224-0.145,1.839-0.177
	c1.011-0.054,2.023-0.075,3.035-0.105c1.179-0.036,2.357-0.092,3.536-0.093c1.208-0.001,2.416,0.067,3.623,0.081
	c0.872,0.009,1.744-0.023,2.616-0.035c0.831-0.011,1.675-0.117,2.487-0.001c0.721,0.104,1.346,0.129,2-0.248
	c0.59-0.34,0.686-0.554,0.373-1.197c-0.264-0.542-0.598-0.892-1.184-1.192c-1.189-0.611-1.301-1.896-1.412-3.083
	c-0.053-0.556,0.014-1.122,0.028-1.753c0.551-0.031,1.175-0.09,1.8-0.099c0.929-0.012,1.859,0.043,2.787,0.015
	c1.889-0.06,3.773-0.244,5.666-0.097c0.234,0.019,0.471,0.021,0.707,0.012c0.811-0.035,1.622-0.112,2.433-0.109
	c0.62,0.003,1.238,0.144,1.858,0.149c1.062,0.012,2.126-0.057,3.189-0.05c0.93,0.005,1.348-0.243,1.555-1.129
	c0.128-0.541,0.21-1.104,0.215-1.657C427.598,187.499,427.484,186.777,427.471,186.055z M421.851,183.278
	c-0.249-0.002-0.499-0.123-0.747-0.121c-0.448,0.004-0.896,0.057-1.344,0.095c-0.064,0.005-0.161,0.079-0.187,0.058
	c-0.586-0.518-1.251-0.08-1.871-0.134c-1.427-0.125-2.864-0.13-4.3-0.136c-1.123-0.004-2.248,0.088-3.372,0.091
	c-1.069,0.003-2.14-0.07-3.208-0.083c-1.047-0.012-2.094,0.028-3.14,0.01c-0.796-0.014-1.591-0.096-2.388-0.126
	c-0.856-0.032-1.713-0.04-2.57-0.058c-0.767-0.016-1.534-0.049-2.3-0.04c-1.249,0.015-2.497,0.069-3.745,0.083
	c-0.997,0.011-1.994-0.021-2.991-0.021c-0.921-0.001-1.843-0.003-2.763,0.028c-1.384,0.048-2.75-0.148-4.124-0.236
	c-1.105-0.07-2.222,0.077-3.334,0.105c-0.709,0.018-1.421,0.028-2.128-0.021c-0.554-0.04-0.757-0.417-0.759-0.968
	c-0.001-0.526-0.116-1.053-0.177-1.58c-0.014-0.125-0.07-0.305-0.01-0.369c0.311-0.336,0.187-0.696,0.015-0.986
	c-0.241-0.406-0.175-0.829-0.168-1.237c0.016-0.969,0.146-1.938,0.143-2.906c-0.004-1.245-0.082-2.491-0.152-3.735
	c-0.062-1.082-0.197-2.16-0.226-3.243c-0.024-0.887,0.09-1.777,0.087-2.666c-0.005-1.185-0.101-2.369-0.086-3.553
	c0.009-0.738,0.159-1.475,0.229-2.213c0.066-0.699,0.129-1.399,0.158-2.101c0.014-0.332-0.081-0.668-0.08-1.002
	c0.001-0.346,0.096-0.604,0.559-0.601c1.488,0.01,2.977-0.021,4.466-0.041c0.288-0.004,0.576-0.046,0.863-0.046
	c1.513,0.002,3.026,0.025,4.539,0.014c1.076-0.008,2.151-0.069,3.227-0.09c0.726-0.014,1.453,0.004,2.18,0.006
	c1.113,0.004,2.226-0.01,3.338,0.013c1.236,0.025,2.471,0.105,3.707,0.118c0.711,0.008,1.422-0.095,2.134-0.104
	c1.299-0.016,2.597,0.019,3.895-0.001c0.873-0.013,1.746-0.118,2.619-0.117c1.145,0.001,2.289,0.04,3.432,0.109
	c1.408,0.086,2.812,0.25,4.221,0.325c1.365,0.073,2.736,0.071,4.104,0.111c0.593,0.018,1.184,0.089,1.775,0.084
	c0.51-0.005,0.654,0.231,0.596,0.688c-0.018,0.134-0.009,0.271-0.012,0.406c-0.019,0.002-0.037,0.004-0.055,0.006
	c0.111,1.06,0.238,2.118,0.327,3.181c0.054,0.653,0.034,1.312,0.069,1.968c0.078,1.385,0.187,2.768,0.251,4.152
	c0.048,1.04,0.05,2.083,0.068,3.124c0.022,1.225,0.034,2.45,0.059,3.675c0.034,1.666,0.085,3.332,0.11,4.997
	c0.023,1.386,0.029,2.772,0.027,4.157C422.81,183.131,422.647,183.286,421.851,183.278z"/>
</svg>
