<?xml version="1.0" encoding="utf-8"?>
<!-- Generator: Adobe Illustrator 16.0.0, SVG Export Plug-In . SVG Version: 6.00 Build 0)  -->
<!DOCTYPE svg PUBLIC "-//W3C//DTD SVG 1.1//EN" "http://www.w3.org/Graphics/SVG/1.1/DTD/svg11.dtd">
<svg version="1.1" id="Layer_1" xmlns="http://www.w3.org/2000/svg" xmlns:xlink="http://www.w3.org/1999/xlink" x="0px" y="0px"
	 width="800px" height="50px" viewBox="0 150 800 50" enable-background="new 0 150 800 50" xml:space="preserve">
<path fill="#444444" d="M381.451,172.966c0.04,0.068,0.987,18.838,1.235,19.512c0.036,0.098,0.269,0.166,0.415,0.173
	c1.476,0.067,2.954,0.093,4.428,0.187c0.636,0.041,1.326,0.09,1.875,0.365c0.46,0.231,0.87,0.357,1.37,0.477
	c1.229,0.296,2.394,0.879,3.562,1.396c0.612,0.271,1.15,0.714,1.767,0.971c1.055,0.439,2.132,0.832,3.223,1.172
	c1.248,0.39,2.52,0.707,3.784,1.044c0.844,0.225,1.688,0.446,2.538,0.638c1.229,0.278,2.432-0.111,3.646-0.162
	c1.013-0.041,1.737-0.439,2.469-1.083c1.445-1.271,1.903-3.414,1.15-4.943c0.365-0.589,0.709-1.141,1.067-1.718
	c0.22,0,0.576,0.104,0.821-0.019c0.999-0.497,1.692-1.252,1.623-2.46c-0.055-0.959-0.146-1.916-0.249-2.871
	c-0.043-0.396-0.161-0.784-0.242-1.176c-0.045-0.217-0.136-0.439-0.119-0.651c0.065-0.781,0.651-1.214,1.123-1.763
	c0.551-0.643,1.077-1.43,1.257-2.234c0.28-1.252,0.064-2.537-0.567-3.709c-0.179-0.332-0.444-0.692-0.437-1.035
	c0.017-0.827,0.108-1.693,0.792-2.284c1-0.865,0.617-3.092-0.677-3.584c-0.731-0.278-1.5-0.543-2.271-0.622
	c-1.754-0.18-3.501-0.53-5.289-0.236c-1.103,0.181-2.229,0.211-3.344,0.322c-0.147,0.015-0.29,0.107-0.43,0.172
	c-0.766,0.359-1.472,0.316-2.093-0.305c-0.124-0.124-0.22-0.289-0.364-0.376c-0.482-0.293-0.393-0.815-0.241-1.115
	c0.677-1.338,1.384-2.671,2.207-3.923c0.573-0.872,0.823-1.836,1.084-2.792c0.227-0.829,0.244-1.715,0.344-2.577
	c0.029-0.256,0.037-0.516,0.029-0.774c-0.025-0.812,0.051-1.649-0.125-2.428c-0.246-1.094-0.656-2.147-1.483-2.989
	c-0.682-0.693-1.229-0.76-2.04-0.149c-0.111,0.083-0.301,0.157-0.417,0.119c-0.431-0.14-0.759,0.096-0.876,0.394
	c-0.371,0.933-0.696,1.89-0.954,2.86c-0.181,0.685-0.127,1.439-0.349,2.105c-0.445,1.34-0.978,2.64-1.719,3.871
	c-0.916,1.521-2.025,2.816-3.417,3.903c-0.636,0.497-1.292,1.018-1.77,1.655c-0.645,0.862-1.497,1.456-2.281,2.145
	c-0.506,0.444-0.974,0.933-1.451,1.41c-0.209,0.21-0.399,0.44-0.595,0.664c-0.221,0.252-0.427,0.52-0.662,0.758
	c-0.309,0.313-0.598,0.785-0.969,0.87c-0.803,0.184-1.651,0.177-2.481,0.227c-1.109,0.066-2.22,0.094-3.327,0.183
	C381.822,172.598,381.641,172.833,381.451,172.966z"/>
</svg>
