<?xml version="1.0" encoding="utf-8"?>
<!-- Generator: Adobe Illustrator 16.0.0, SVG Export Plug-In . SVG Version: 6.00 Build 0)  -->
<!DOCTYPE svg PUBLIC "-//W3C//DTD SVG 1.1//EN" "http://www.w3.org/Graphics/SVG/1.1/DTD/svg11.dtd">
<svg version="1.1" id="Layer_1" xmlns="http://www.w3.org/2000/svg" xmlns:xlink="http://www.w3.org/1999/xlink" x="0px" y="0px"
	 width="800px" height="50px" viewBox="0 0 800 50" enable-background="new 0 0 800 50" xml:space="preserve">
<g>
	<path fill="#444444" d="M409.929,28.996c-0.057,0.65-0.15,1.324-0.163,1.999c-0.015,0.854,0.054,1.707,0.059,2.561
		c0.002,0.368,0.075,0.919-0.125,1.07c-0.541,0.415-1.128,0.875-1.938,0.649c-0.399-0.11-0.839-0.129-1.258-0.115
		c-0.777,0.025-1.553,0.104-2.329,0.165c-0.734,0.057-1.472,0.108-2.207,0.177c-0.966,0.089-1.932,0.277-2.896,0.264
		c-1.291-0.019-2.579-0.192-3.868-0.294c-0.453-0.036-0.923-0.133-1.36-0.058c-0.923,0.159-1.797-0.654-1.771-1.587
		c0.026-0.931-0.086-1.867-0.185-2.796c-0.064-0.621-0.272-1.229-0.306-1.851c-0.027-0.538-0.193-0.843-0.754-0.818
		c-1.697,0.069-3.396,0.161-5.089,0.271c-0.437,0.028-0.86,0.201-1.295,0.225c-0.364,0.019-0.733-0.115-1.103-0.127
		c-0.527-0.018-1.059,0.035-1.587,0.024c-0.698-0.015-1.395-0.069-2.093-0.091c-0.807-0.024-1.614-0.033-2.422-0.041
		c-0.626-0.006-1.251-0.011-1.876,0.006c-0.398,0.012-0.799,0.115-1.191,0.084c-0.987-0.076-1.951-0.122-2.903,0.288
		c-0.315,0.137-0.428,0.249-0.4,0.562c0.025,0.305,0.036,0.609,0.045,0.914c0.013,0.383,0.014,0.767,0.027,1.148
		c0.004,0.111,0.051,0.222,0.045,0.331c-0.059,1.182-0.146,2.362-0.18,3.546c-0.041,1.431-0.036,2.863-0.058,4.294
		c-0.009,0.591-0.063,1.185-0.037,1.772c0.025,0.545,0.133,1.086,0.204,1.628c0.096,0.718,0.154,1.442,0.298,2.15
		c0.186,0.91,0.581,1.71,1.106,2.507c0.421,0.637,0.959,0.859,1.541,0.924c1.016,0.108,2.05,0.033,3.076,0.043
		c0.646,0.006,1.291,0.016,1.938,0.045c0.629,0.029,1.258,0.127,1.887,0.124c1.301-0.009,2.603-0.082,3.903-0.093
		c0.859-0.006,1.719,0.074,2.578,0.073c0.551-0.001,1.101-0.102,1.651-0.116c0.554-0.015,1.107,0.039,1.66,0.03
		c0.57-0.009,1.141-0.076,1.71-0.084c0.584-0.008,1.168,0.028,1.753,0.039c1.263,0.025,2.525,0.043,3.789,0.072
		c0.36,0.009,0.722,0.063,1.081,0.067c1.706,0.013,3.412,0.028,5.117,0.016c1.207-0.01,2.414-0.047,3.62-0.104
		c1.377-0.064,2.75-0.187,4.127-0.245c0.839-0.035,1.685,0.045,2.521-0.008c1.968-0.122,3.932-0.293,5.896-0.439
		c0.531-0.039,1.062-0.062,1.594-0.096c1.091-0.067,2.184-0.105,3.269-0.221c0.561-0.06,1.15-0.164,1.65-0.408
		c1.132-0.553,1.491-1.717,1.891-2.781c0.22-0.59,0.192-1.271,0.271-1.91c0.071-0.574,0.179-1.148,0.192-1.727
		c0.029-1.113-0.006-2.229,0.007-3.346c0.014-1.256,0.064-2.511,0.074-3.766c0.012-1.4-0.232-2.799,0.099-4.201
		c0.17-0.717-0.123-0.864-0.878-0.739c-0.764,0.126-1.552,0.171-2.326,0.146c-0.79-0.023-1.574-0.239-2.365-0.258
		c-1.365-0.028-2.733,0.037-4.101,0.049c-0.411,0.004-0.821-0.074-1.231-0.061c-1.238,0.042-2.477,0.146-3.715,0.161
		C413.084,29.062,411.563,29.016,409.929,28.996z"/>
	<path fill="#444444" d="M405.881,32.979c1.327,0.084,1.627-0.179,1.594-1.244c-0.021-0.707-0.137-1.41-0.188-2.116
		c-0.054-0.714-0.309-0.999-1.012-0.983c-0.624,0.014-1.246,0.11-1.87,0.135c-0.646,0.026-1.294-0.011-1.939,0.023
		c-0.272,0.016-0.541,0.202-0.811,0.199c-0.362-0.004-0.725-0.171-1.086-0.172c-0.83-0.002-1.632-0.51-2.482-0.135
		c-0.066,0.03-0.18-0.05-0.273-0.067c-0.313-0.064-0.627-0.163-0.943-0.177c-0.646-0.025-1.293,0-1.94-0.004
		c-0.624-0.002-0.811,0.159-0.765,0.771c0.085,1.119,0.232,2.233,0.285,3.354c0.022,0.504,0.229,0.642,0.671,0.621
		c0.169-0.01,0.34,0.011,0.511,0.018c1.704,0.068,3.408,0.174,5.113,0.191c0.944,0.013,1.894-0.112,2.839-0.19
		C404.437,33.129,405.291,33.035,405.881,32.979z"/>
	<path fill="#444444" d="M429.257,21.588c-0.015-0.586-0.154-1.17-0.174-1.756c-0.036-1.078-0.005-2.158-0.042-3.236
		c-0.026-0.754-0.257-1.524-0.153-2.255c0.173-1.219-0.258-2.278-1.006-3.024c-0.72-0.717-1.789-1.116-2.758-1.534
		c-0.608-0.263-1.312-0.314-1.979-0.439c-0.877-0.166-1.754-0.393-2.64-0.444c-1.534-0.094-3.075-0.078-4.613-0.093
		c-0.418-0.004-0.838,0.071-1.254,0.062c0.003-0.021,0.004-0.042,0.009-0.065c0.056-0.367,0.271-0.754,0.206-1.091
		c-0.244-1.274-0.579-2.533-0.87-3.799c-0.301-1.295-1.42-2.56-3.082-2.244c-0.141,0.026-0.3-0.051-0.449-0.077
		c-0.354-0.062-0.707-0.165-1.063-0.175c-0.991-0.026-1.983,0.019-2.975-0.022c-1.754-0.07-3.505-0.185-5.257-0.278
		c-0.784-0.042-1.571-0.149-2.349-0.104c-1.214,0.073-2.419,0.271-3.631,0.379c-1.294,0.117-2.609,0.086-3.88,0.322
		c-0.92,0.171-1.986,0.159-2.64,1.104c-0.3,0.434-0.809,0.73-1.073,1.178c-0.845,1.418-1.289,2.965-1.295,4.613
		c-0.786,0.021-1.573,0.049-2.359,0.062c-0.611,0.012-1.225,0.001-1.837,0.016c-1.192,0.029-2.405-0.049-3.576,0.136
		c-1.434,0.225-2.878,0.083-4.32,0.355c-1.151,0.22-2.175,1.175-2.45,2.058c-0.25,0.798-0.381,1.635-0.522,2.461
		c-0.096,0.558-0.12,1.128-0.175,1.691c-0.035,0.372-0.066,0.746-0.098,1.119c-0.062,0.74-0.156,1.48-0.168,2.223
		c-0.018,1.032,0.046,2.065,0.043,3.1c-0.002,0.736-0.078,1.473-0.079,2.209c0,0.566,0.075,1.133,0.099,1.7
		c0.014,0.309,0.061,0.483,0.456,0.479c0.62-0.009,1.241,0.08,1.862,0.122c0.19,0.014,0.385,0.02,0.576,0.009
		c1.254-0.065,2.508-0.159,3.763-0.2c0.727-0.025,1.458,0.009,2.185,0.051c1.182,0.07,2.358,0.193,3.54,0.244
		c0.659,0.027,1.322-0.054,1.984-0.072c1.142-0.034,2.284-0.049,3.426-0.09c1.276-0.047,2.554-0.159,3.828-0.157
		c1.719,0.003,3.438,0.081,5.156,0.142c0.531,0.02,1.06,0.111,1.591,0.119c3.008,0.043,6.017,0.068,9.025,0.104
		c1.058,0.013,2.115,0.02,3.173,0.062c1.249,0.052,2.496,0.188,3.745,0.2c1.629,0.016,3.259-0.082,4.888-0.08
		c2.4,0.002,4.801,0.049,7.201,0.077c0.002-0.019,0.005-0.034,0.007-0.051c0.513-0.036,1.033-0.031,1.533-0.13
		c0.195-0.039,0.493-0.309,0.496-0.477C429.308,24.591,429.294,23.089,429.257,21.588z M404.642,8.775
		c-0.78,0.134-1.602,0.024-2.401,0.068c-0.723,0.039-1.438,0.172-2.161,0.196c-0.717,0.024-1.438-0.032-2.154-0.06
		c-0.838-0.029-1.678-0.047-2.515-0.105c-1.146-0.08-2.287-0.206-3.428,0.066c-0.232,0.056-0.496,0.009-0.741-0.021
		c-0.146-0.018-0.292-0.036-0.438-0.057c0.021-0.285,0.028-0.574,0.135-0.822c0.328-0.76,0.604-1.631,1.172-2.179
		c0.762-0.738,1.833-0.979,2.944-0.976c1.18,0.007,2.359-0.095,3.538-0.179c1.01-0.071,2.017-0.254,3.025-0.261
		c1.587-0.013,3.174,0.083,4.761,0.13c0.782,0.023,1.524,0.17,2.198,0.604c0.167,0.107,0.395,0.121,0.595,0.178
		c0.104,0.03,0.239,0.026,0.304,0.094c0.803,0.831,1.511,1.711,1.793,2.882c0.038,0.158,0.071,0.29,0.104,0.405
		c-0.428,0.012-0.854,0.021-1.28,0.009C408.274,8.698,406.466,8.466,404.642,8.775z"/>
</g>
</svg>
