<?xml version="1.0" encoding="utf-8"?>
<!-- Generator: Adobe Illustrator 16.0.0, SVG Export Plug-In . SVG Version: 6.00 Build 0)  -->
<!DOCTYPE svg PUBLIC "-//W3C//DTD SVG 1.1//EN" "http://www.w3.org/Graphics/SVG/1.1/DTD/svg11.dtd">
<svg version="1.1" id="Layer_1" xmlns="http://www.w3.org/2000/svg" xmlns:xlink="http://www.w3.org/1999/xlink" x="0px" y="0px"
	 width="800px" height="300px" viewBox="0 150 800 300" enable-background="new 0 150 800 300" xml:space="preserve">
<path fill="#444444" d="M609.126,258.585c0.708-4.794,1.585-9.56,2.337-14.346c0.284-1.813-0.323-2.704-1.938-3.506
	c-1.979-0.985-3.42,0.083-4.909,1.121c-4.32,3.011-8.587,6.106-12.991,8.985c-4.325,2.824-8.886,5.283-13.171,8.158
	c-4.728,3.168-9.188,6.728-13.89,9.936c-6.007,4.098-12.176,7.966-18.205,12.032c-2.505,1.687-4.839,3.622-7.188,5.399
	c-0.377-0.277-0.608-0.364-0.69-0.525c-0.237-0.469-0.434-0.961-0.616-1.455c-2.743-7.367-7.236-13.584-13.004-18.795
	c-7.064-6.381-15.431-10.117-24.925-11.292c-7.102-0.879-14.166-1.966-21.371-1.911c-8.316,0.063-16.644-0.289-24.966-0.377
	c-6.839-0.074-13.679-0.027-20.521-0.033c-3.98-0.002-7.962,0-11.987,0c-0.198-0.772-0.43-1.371-0.496-1.986
	c-0.854-8.042-8.858-15.473-16.276-16.848c-4.624-0.858-4.556-0.98-4.038-5.833c0.171-1.578,0.696-2.604,2.392-2.771
	c2.053-0.204,3.28-1.493,3.75-3.348c0.382-1.493,0.502-3.087,0.507-4.636c0.016-3.093-1.139-4.156-4.243-4.059
	c-2.845,0.088-5.688,0.193-8.526,0.4c-1.704,0.124-2.729-0.511-3.504-2.045c-1.365-2.7-3.465-4.737-6.21-6.079
	c-0.56-0.272-1.062-0.653-1.596-0.978c-4.021-2.446-8.376-4.047-13.081-3.76c-3.868,0.236-7.714,1.044-11.532,1.788
	c-5.554,1.084-10.364,3.776-14.048,7.995c-0.603,0.689-1.208,1.175-1.839,1.517c-0.199,0.398-0.398,0.796-0.599,1.198
	c-0.785,0-1.57,0-2.355,0c0.056-0.166,0.11-0.332,0.166-0.498c-0.276,0.012-0.562,0.015-0.855,0.008
	c-2.85-0.071-5.699-0.146-8.547-0.125c-2.163,0.018-2.745,0.659-2.998,2.818c-0.282,2.397,0.389,4.611,1.301,6.759
	c0.478,1.121,1.344,1.771,2.666,1.936c1.414,0.177,2.796,0.635,4.288,0.994c-0.301,2.499-0.532,4.671-0.824,6.836
	c-0.283,2.097-1.22,3.395-3.604,3.619c-4.72,0.445-8.305,3.034-10.795,6.9c-1.46,2.265-2.399,4.886-3.412,7.412
	c-0.574,1.429-1.31,2.29-2.954,2.288c-1.894-0.001-3.785,0.231-5.677,0.221c-3.771-0.02-7.585-0.525-11.306-0.122
	c-6.167,0.668-12.356,1.555-18.388,2.976c-6.696,1.579-12.874,4.646-18.646,8.433c-7.805,5.119-13.763,11.693-16.41,20.891
	c-0.785,2.729-1.789,5.396-2.667,8.103c-0.452,1.398-1.264,1.776-2.811,1.832c-7.257,0.255-14.518,0.605-21.75,1.226
	c-3.169,0.272-5.962,1.715-8.212,4.237c-1.67,1.875-2.209,4-2.568,6.312c-0.384,2.476-0.992,3.104-3.444,3.246
	c-1.569,0.088-3.157-0.167-4.731-0.119c-4.554,0.142-8.407,2.136-8.734,7.556c-0.142,2.346,1.011,3.86,2.975,4.707
	c1.528,0.662,3.198,1.043,4.841,1.366c2.452,0.486,4.935,0.813,6.984,1.142c1.106,1.92,1.749,3.678,2.92,4.951
	c4.165,4.539,9.558,7.179,15.57,7.553c8.489,0.527,17.03,0.339,25.547,0.302c1.454-0.007,2.432,0.202,3.113,1.493
	c3.546,6.713,9.867,10.064,16.435,12.667c4.961,1.965,10.338,2.914,15.572,4.143c4.188,0.982,8.438,1.702,13.058,2.62
	c0,2.346-0.023,4.443,0.007,6.539c0.022,1.598-0.795,2.3-2.316,2.339c-0.632,0.017-1.267,0.078-1.898,0.052
	c-5.861-0.25-11.567,0.676-17.135,2.416c-5.583,1.744-9.819,7.127-8.901,13.58c0.312,2.192,0.95,4.215,1.873,6.092
	c0-0.174,0-0.349,0-0.521c1.445,0.506,0.711,0.053,1.57,0.785c-0.262,0-0.523,0-0.789,0c-0.531,0.646-0.218,0.367-0.4,0.492
	c0.701,1.285,1.544,2.498,2.528,3.644c1.885,2.193,4.252,3.784,7.32,3.901c4.708,0.178,9.412,0.384,14.121,0.521
	c8.214,0.237,16.427,0.437,24.64,0.644c3.039,0.077,6.078,0.139,9.115,0.197c3.771,0.072,7.546,0.023,11.308,0.244
	c2.401,0.142,4.771,0.78,7.174,1.005c7.562,0.706,15.133,0.188,22.696-0.021c5.568-0.153,11.132-0.602,16.703-0.683
	c3.832-0.057,7.671,0.349,11.508,0.444c3.375,0.084,6.775-0.222,10.121,0.1c3.455,0.332,6.81-1.702,10.252-0.239
	c0.076,0.033,0.205-0.035,0.305-0.066c4.056-1.282,8.136-0.239,12.125,0.196c6.274,0.683,12.464,1.778,18.822,0.627
	c2.656-0.482,5.631-0.985,8.118-0.274c5.149,1.477,10.259,0.193,15.361,0.446c5.157,0.256,10.432-0.914,15.585-1.848
	c3.176-0.577,6.234-1.835,9.314-2.877c2.021-0.686,3.342-2.133,4.019-4.18c0.792-2.393,1.694-4.75,2.416-7.162
	c0.229-0.756,0.29-1.764-0.028-2.443c-2.456-5.283-6.43-9.189-12.267-9.836c-8.38-0.93-16.841-1.154-25.273-1.53
	c-5.566-0.249-11.145-0.271-16.72-0.325c-1.646-0.016-2.215-0.761-2.256-2.316c-0.055-2.092-0.32-4.176-0.386-6.268
	c-0.02-0.791,0.271-1.593,0.408-2.365c8.757-0.213,17.286-0.662,25.807-0.568c10.67,0.115,21.253-0.938,31.86-1.684
	c1.048-0.074,2.104-0.268,3.106-0.565c4.134-1.231,8.312-2.354,12.352-3.838c4.953-1.819,8.925-5.164,12.117-9.283
	c2.694-3.478,5.024-7.237,7.487-10.831c5.188-0.156,10.242-0.309,15.188,1.209c1.089,0.336,2.289,0.35,3.44,0.446
	c5.981,0.512,11.979,0.914,17.951,1.519c7.442,0.756,14.863,1.695,22.302,2.506c2.145,0.233,3.113-0.504,3.322-2.362
	c0.631-5.638,1.251-11.279,1.858-16.919c0.771-7.129,1.387-14.276,2.329-21.382c1.096-8.257,2.502-16.471,3.705-24.713
	C608.018,267.571,608.464,263.062,609.126,258.585z M241.199,328.004c1.449,0.508,0.715,0.059,1.574,0.787
	C241.324,328.287,242.059,328.736,241.199,328.004z M247.484,291.867c-1.832-0.227-1.945-0.348-3.141-0.781c0-0.264,0-0.523,0-0.787
	c-0.262,0-0.527,0-0.785,0c0-0.264,0-0.521,0-0.785c1.309,0,2.617,0,3.926,0C247.484,290.299,247.484,291.086,247.484,291.867z
	 M263.195,300.51c-0.785-0.264-1.57-0.521-2.355-0.785c1.023-1.988-0.156-1.039,2.355-1.568
	C263.195,298.938,263.195,299.725,263.195,300.51z M267.125,268.303c-0.262,0-0.527,0-0.789,0c0,0.262,0,0.521,0,0.785
	c-0.262,0-0.523,0-0.785,0c-0.262-0.785-0.523-1.572-0.785-2.354c1.449,0.508,0.715,0.053,1.57,0.781c0.262,0,0.527,0,0.789,0
	C267.125,267.779,267.125,268.039,267.125,268.303z M283.621,299.725c-0.785-0.26-1.574-0.523-2.359-0.787
	c1.027-1.988-0.152-1.037,2.359-1.568C283.621,298.156,283.621,298.938,283.621,299.725z M296.973,341.357c-0.523,0-1.047,0-1.57,0
	c0-0.521,0-1.045,0-1.572c0.523,0,1.047,0,1.57,0C296.973,340.312,296.973,340.836,296.973,341.357z M406.949,328.004
	c0.52,0,1.047,0,1.569,0c0-0.26,0-0.523,0-0.787c1.449,0.508,0.716,0.061,1.574,0.787c0.258,0,0.521,0,0.785,0
	c-0.266,0.525-0.527,1.049-0.785,1.574c-1.672-0.289-1.483-0.105-2.358-0.787C407.734,328.791,406.129,328.752,406.949,328.004z
	 M380.083,276.897c2.147-1.984,3.952-4.121,7.185-4.776c2.951-0.599,5.808-0.131,8.158,0.86c6.03,2.542,9.172,7.658,7.028,14.551
	c-0.822,2.643-2.832,4.385-5.05,5.854c-3.005,1.993-6.47,2.31-10.294,2.507c-0.175-0.03-0.699-0.082-1.207-0.212
	c-4.288-1.1-8.722-6.369-8.806-10.792C377.043,281.909,377.709,279.094,380.083,276.897z M399.883,344.502
	c-0.512,1.447-0.059,0.711-0.785,1.568c-1.323,0.664-0.276,0.59-1.573,0c-0.81-1.234-0.082-0.096,0-2.35
	C398.309,343.979,399.098,344.238,399.883,344.502z M388.883,328.791c0.228-1.83,0.349-1.943,0.789-3.143
	c0.781,0.522,1.566,1.045,2.355,1.567c0,0.527,0,1.05,0,1.574c-0.789,0.262-1.574,0.524-2.355,0.787c0-0.263,0-0.525,0-0.787
	C389.406,328.791,389.145,328.791,388.883,328.791z M373.957,280.871c0.262,0,0.523,0,0.785,0c0,0.26,0,0.523,0,0.785
	c-0.262,0-0.523,0-0.785,0c0,0.264,0,0.523,0,0.787c-1.988-1.027-1.039,0.152-1.57-2.355
	C373.836,280.594,373.102,280.143,373.957,280.871z M366.102,270.66c1.453,0.504,0.716,0.053,1.57,0.785c0.262,0,0.527,0,0.789,0
	c0,0.264,0,0.527,0,0.783c-0.262,0-0.527,0-0.789,0C365.609,273.049,365.895,272.584,366.102,270.66z M355.887,235.309
	c0.527,0,1.051,0,1.574,0c0,0.525,0,1.049,0,1.572c-0.523,0-1.047,0-1.574,0C355.887,236.357,355.887,235.834,355.887,235.309z
	 M348.82,234.525c0.522,0.26,1.047,0.52,1.573,0.783c-0.266,0.525-0.526,1.049-0.788,1.572c-0.785,0-1.57,0-2.355,0
	C347.934,235.127,347.918,235.76,348.82,234.525z M351.176,326.432c-0.508,1.451-0.055,0.717-0.781,1.572
	c-0.862,0.729-0.104,0.293-1.573,0.787c-0.263-0.787-0.523-1.574-0.785-2.359C349.082,326.432,350.129,326.432,351.176,326.432z
	 M328.395,265.947c0.73,0.857,0.298,0.104,0.789,1.568C327.559,266.844,328.559,267.695,328.395,265.947z M316.609,254.166
	c0,0.518,0,1.045,0,1.566c-1.867-0.625-1.349-0.254-2.355-1.566C315.043,254.166,315.828,254.166,316.609,254.166z M304.872,291.56
	c-0.674-0.596-1.367-1.423-1.566-2.256c-0.889-3.766-0.875-7.613,0.424-11.243c1.543-4.321,5.039-6.59,9.389-7.618
	c0.604-0.143,1.315-0.257,1.882-0.079c5.113,1.61,9.892,3.753,12.247,9.049c0.497,1.114,0.509,2.442,0.678,3.321
	c0.145,4.721-1.938,8.004-5.372,10.163C316.513,296.691,309.252,295.43,304.872,291.56z M322.898,346.855c0,1.051,0,2.1,0,3.147
	c-0.263,0-0.527,0-0.785,0c-0.267-1.049-0.527-2.098-0.789-3.147C321.848,346.855,322.371,346.855,322.898,346.855z
	 M316.609,308.367c-2.168-0.471-1.418,0.443-1.566-1.576c0.523,0,1.047,0,1.566,0C316.609,307.316,316.609,307.842,316.609,308.367z
	 M330.75,397.918c-0.258,0-0.523,0-0.785,0c0-0.523,0-1.047,0-1.568c0.262,0,0.527,0,0.785,0
	C330.75,396.871,330.75,397.395,330.75,397.918z M352.746,371.994c-0.521,0-1.043,0-1.57,0c0-0.523,0-1.045,0-1.568
	c0.527,0,1.051,0,1.57,0C352.746,370.949,352.746,371.471,352.746,371.994z M391.238,384.566c-0.785,0-1.566,0-2.355,0
	c0-0.789,0-1.572,0-2.357c0.789,0,1.57,0,2.355,0C391.238,382.994,391.238,383.777,391.238,384.566z M410.879,384.566
	c-0.785,0-1.574,0-2.359,0c0-0.527,0-1.049,0-1.572c0.785,0.264,1.574,0.523,2.359,0.783
	C410.879,384.039,410.879,384.303,410.879,384.566z M418.312,368.677c-0.02,1.351-1.026,1.75-2.171,1.798
	c-3.051,0.131-6.105,0.354-9.154,0.291c-7.054-0.145-14.104-0.498-21.159-0.658c-7.801-0.176-15.604-0.312-23.404-0.312
	c-6.85-0.001-13.698,0.322-20.548,0.293c-6.419-0.027-12.848-0.214-19.194-1.395c-0.812-0.15-1.657-0.123-2.705-0.19
	c-0.177-3.093-0.353-6.188-0.541-9.494c1.445-0.249,2.658-0.575,3.889-0.651c6.17-0.371,12.332-0.457,18.511,0.004
	c3.555,0.265,7.144,0.063,10.712,0.188c2.104,0.073,4.201,0.576,6.295,0.531c6.607-0.143,13.209-0.562,19.819-0.663
	c5.359-0.083,10.724,0.196,16.088,0.214c5.444,0.02,10.886-0.124,16.329-0.12c2.291,0.001,4.58,0.196,7.252,0.321
	C418.329,362.208,418.362,365.443,418.312,368.677z M428.16,264.375c-2.82-0.258-2.156,1.105-2.355-1.57c0.781,0,1.566,0,2.355,0
	C428.16,263.326,428.16,263.854,428.16,264.375z M436.801,269.088c-1.047,0-2.094,0-3.145,0c0-0.785,0-1.572,0-2.354
	c1.051,0,2.098,0,3.145,0C436.801,267.516,436.801,268.303,436.801,269.088z M465.082,281.656c-0.523,0-1.047,0-1.574,0
	c-0.262-0.785-0.522-1.568-0.785-2.357c-0.901-1.539-0.233-0.582,0-2.354c1.052,0,2.099,0,3.146,0
	C465.602,278.518,465.344,280.088,465.082,281.656z M486.289,314.65c-0.785,0.262-1.57,0.522-2.355,0.787c0-0.525,0-1.049,0-1.576
	c0.785,0,1.57,0,2.355,0C486.289,314.125,486.289,314.389,486.289,314.65z M485.504,264.375c-0.262,0-0.52,0-0.785,0
	c0.551-1.854,0.816-1.742,1.57-3.143c0.68,0.871,0.523,0.674,0.785,2.357C485.629,264.094,486.363,263.643,485.504,264.375z
	 M507.496,335.861c1.453,0.506,0.719,0.055,1.574,0.787C507.621,336.141,508.355,336.588,507.496,335.861z M507.496,324.08
	c1.453,0.506,0.719,0.051,1.574,0.783C507.621,324.354,508.355,324.809,507.496,324.08z M531.852,300.51c-0.262,0-0.522,0-0.784,0
	c0.229-1.832,0.352-1.945,0.784-3.141c0.523,0,1.048,0,1.57,0C532.875,299.219,532.605,299.117,531.852,300.51z M576.629,305.223
	c-3.289-0.52-2.559-0.246-2.359-2.354c0.785,0,1.574,0,2.359,0c0,0.262,0,0.521,0,0.785c0.262,0,0.523,0,0.781,0
	C577.152,304.178,576.891,304.703,576.629,305.223z M590.766,265.162c-0.522,0-1.043,0-1.569,0c0.266-1.309,0.526-2.621,0.784-3.93
	c1.673,0.287,1.48,0.105,2.359,0.785c0.676,0.871,0.521,0.68,0.785,2.357C591.453,264.664,591.645,264.479,590.766,265.162z"/>
</svg>
