<?xml version="1.0" encoding="utf-8"?>
<!-- Generator: Adobe Illustrator 16.0.0, SVG Export Plug-In . SVG Version: 6.00 Build 0)  -->
<!DOCTYPE svg PUBLIC "-//W3C//DTD SVG 1.1//EN" "http://www.w3.org/Graphics/SVG/1.1/DTD/svg11.dtd">
<svg version="1.1" id="Layer_1" xmlns="http://www.w3.org/2000/svg" xmlns:xlink="http://www.w3.org/1999/xlink" x="0px" y="0px"
	 width="800px" height="350px" viewBox="0 0 800 350" enable-background="new 0 0 800 350" xml:space="preserve">
<path fill="#444444" d="M521.439,170.455c0-0.527,0-1.045,0-1.572c0.266,0,0.529,0,0.798,0c-0.031-4.287-0.453-8.561-1.064-12.818
	c-0.665-4.631-2.095-9.186-2.414-13.826c-0.414-6.002-2.562-11.508-3.979-17.215c-0.575-2.316-1.523-4.629-2.751-6.674
	c-3.655-6.084-7.481-12.068-11.336-18.033c-5.36-8.293-12.336-15.269-19.46-21.918c-10.059-9.387-21.896-16.279-35.022-20.541
	c-7.759-2.519-15.74-4.41-23.709-6.197c-4.287-0.963-8.747-1.374-13.148-1.553c-5.614-0.227-11.252-0.037-16.872,0.112
	c-2.809,0.075-5.634,0.29-8.397,0.75c-5.42,0.9-10.791,2.09-16.203,3.031c-15.828,2.754-30.671,7.869-43.324,18.137
	c-4.058,3.291-8.252,6.539-11.713,10.408c-4.005,4.479-7.516,9.463-10.808,14.51c-7.692,11.793-15.403,23.588-19.475,37.312
	c-1.988,6.703-3.976,13.32-4.382,20.396c-0.509,8.864-0.589,17.688-0.033,26.547c0.54,8.6,1.674,17.078,4.25,25.312
	c0.837,2.678,1.966,5.271,3.052,7.862c2.728,6.525,5.375,13.091,8.315,19.521c1.725,3.777,4.312,7.014,7.155,10.115
	c4.694,5.122,8.921,10.672,13.53,15.875c2.657,3,5.334,6.188,8.603,8.402c9.385,6.371,17.706,14.486,28.822,18.126
	c0.741,0.237,1.342,0.886,2.041,1.277c7.335,4.173,14.449,8.932,23.396,8.857c0.522,0,1.041,0.266,1.571,0.352
	c7.005,1.119,14.012,2.229,18.805,2.987c10.818-0.175,19.131-1.815,27.188-4.356c8.914-2.814,17.757-5.84,26.116-10.243
	c12.22-6.44,23.456-14.01,32.113-24.94c3.076-3.888,5.896-7.972,8.901-11.911c4.471-5.857,9.228-11.513,13.452-17.539
	c4.99-7.117,7.397-15.443,10.008-23.627c1.054-3.306,1.807-6.71,2.896-10c1.312-3.949,2.722-7.842,2.811-12.087
	c0.059-2.813,0.282-5.64,0.628-8.435c0.269-2.141,0.393-4.274,0.425-6.406C521.96,170.455,521.699,170.455,521.439,170.455z
	 M313.271,113.109c0.521,0,1.048,0,1.568,0c0,0.521,0,1.045,0,1.57c-0.521,0-1.048,0-1.568,0
	C313.271,114.154,313.271,113.631,313.271,113.109z M294.418,157.887c-0.524,0-1.048,0-1.572,0c0-0.523,0-1.049,0-1.57
	c0.524,0,1.048,0,1.572,0C294.418,156.838,294.418,157.363,294.418,157.887z M314.842,184.596c0,0.26,0,0.52,0,0.783
	c0,0-3.054-0.104-1.568-0.783c0.188-1.1,0.888,0.32,0.784-0.785c1.447,0.508,0.715,0.053,1.568,0.785
	C315.364,184.596,315.103,184.596,314.842,184.596z M312.521,181.729c-0.453,0.287-0.993,0.469-1.369,0.83
	c-4.005,3.83-9.229,2.026-12.849-1.584c-3.929-3.921-4.423-9.518-1.169-13.812c1.701-2.242,3.5-4.548,6.658-4.042
	c6.037,0.165,10.415,3.385,12.292,8.89C317.331,175.662,315.883,179.613,312.521,181.729z M460.088,98.818
	c2.862-2.338,5.977-2.279,9.987,0.375c2.963,1.957,5.502,4.281,5.505,8.236c-0.137,4.918-3.545,8.604-8.738,9.432
	c-4.749,0.757-8.892-1.603-10.587-6.027C454.97,107.48,456.901,101.422,460.088,98.818z M448.385,84.827c1.309,0,2.617,0,3.93,0
	c0,0.264,0,0.526,0,0.79c0.262,0,0.521,0,0.783,0c0,0.521,0,1.046,0,1.568c-2.111,0.387-2.332,1.065-3.928,0
	c-0.521,0-1.047,0-1.572,0C447.859,86.402,448.123,85.617,448.385,84.827z M437.387,120.179c0.785,0.259,1.572,0.522,2.355,0.786
	c0,0.26,0,0.521,0,0.786c-0.783,0-1.57,0-2.355,0C437.387,121.225,437.387,120.702,437.387,120.179z M431.889,87.186
	c0,0.525,0,1.049,0,1.571c-1.985-1.024-1.039,0.152-1.57-2.354C430.84,86.663,431.365,86.925,431.889,87.186z M421.678,59.693
	c0,0.264,0,0.521,0,0.785c-0.966,0.681-0.896,0.594-1.571,1.568c-1.989-1.023-1.038,0.156-1.569-2.354
	C419.58,59.693,420.628,59.693,421.678,59.693z M387.897,75.402c0.265,0.093,0.438,0.146,0.58,0.188
	c1.432-3.646,4.643-5.677,8.547-5.952c5.721-0.402,11.031,4.561,11.353,10.582c0.248,4.635-4.37,8.284-11.014,8.711
	c-4.389,0.281-9.584-4.085-9.688-8.412c-0.042-1.773,0.215-3.334,0.706-4.687C388.311,75.777,388.212,75.67,387.897,75.402z
	 M371.4,55.763c0.263,0,0.521,0,0.784,0c0,0.525,0,1.05,0,1.57c-0.263,0-0.521,0-0.784,0C371.4,56.812,371.4,56.289,371.4,55.763z
	 M339.193,89.544c0.784,0,1.567,0,2.354,0c0,0.522,0,1.045,0,1.571c-0.787,0-1.57,0-2.354,0
	C339.193,90.588,339.193,90.066,339.193,89.544z M330.77,96.617c6.712-1.137,11.867,2.455,12.995,10.154
	c0.382,2.614-0.623,5.027-2.917,6.653c-4.471,3.165-9.423,3.681-14.593,2.397c-2.162-0.536-3.083-2.5-3.723-4.416
	c-0.417-1.244-0.422-2.629-0.507-3.217C321.884,102.316,324.054,97.752,330.77,96.617z M335.265,183.811c0,0.26,0,0.521,0,0.785
	c-0.965,0.68-0.896,0.59-1.567,1.568c-2.659-0.979-1.688-0.309-1.572-2.354C333.172,183.811,334.218,183.811,335.265,183.811z
	 M319.555,128.822c0.993-0.516,1.639-0.817,2.356-1.572c0.262,0,0.521,0,0.785,0c0,1.572,0,3.145,0,4.712
	c-1.198-0.444-1.296-0.579-3.144-0.786C319.555,130.393,319.555,129.607,319.555,128.822z M321.126,195.592
	c-0.262,0-0.522,0-0.784,0c-0.442-1.201-0.583-1.297-0.787-3.143c0.787,0.521,1.571,1.049,2.356,1.572c0,0.262,0,0.521,0,0.785
	c-0.261,0-0.524,0-0.785,0C321.126,195.07,321.126,195.334,321.126,195.592z M340.543,245.585
	c-6.372,5.815-15.216,3.091-18.275-4.11c-2.646-6.229,2.698-14.771,10.206-14.748c0.472,0.143,1.928,0.409,3.241,0.998
	c3.183,1.428,5.454,4.026,7.047,6.938C344.919,238.604,344.134,242.311,340.543,245.585z M360.403,287.502c-0.522,0-1.048,0-1.57,0
	c-0.445-1.199-0.582-1.295-0.788-3.145c0.788,0.264,1.574,0.521,2.358,0.783C360.403,285.93,360.403,286.715,360.403,287.502z
	 M374.542,294.572c-0.261,0-0.523,0-0.784,0c-0.87,0.68-0.675,0.52-2.355,0.785c0-0.785,0-1.572,0-2.357c0.263,0,0.521,0,0.786,0
	c0.868-0.676,0.675-0.523,2.354-0.785C374.542,293,374.542,293.785,374.542,294.572z M394.181,293.785
	c-1.868-0.629-1.349-0.254-2.354-1.57c0.786,0,1.572,0,2.354,0C394.181,292.74,394.181,293.264,394.181,293.785z M411.575,265.329
	c-0.755,7.78-4.199,12.031-12.126,12.357c-5.136-0.013-10.774-5.925-10.482-11.337c0.289-5.378,5.743-11.654,11.123-11.216
	C405.666,255.589,412.047,260.443,411.575,265.329z M440.969,215.713c-0.94,0.751-1.847,1.575-2.64,2.479
	c-5.425,6.192-12.553,9.449-20.224,11.748c-3.598,1.076-7.282,1.86-10.848,3.028c-4.238,1.39-8.548,1.019-12.729,0.398
	c-6.097-0.904-12.209-2.065-18.106-3.819c-7.554-2.249-14.133-6.521-19.82-11.972c-5.679-5.44-9.534-12.032-12.574-19.345
	c-2.175-5.227-4.354-10.316-5.289-15.937c-1.533-9.248,0.238-18.151,2.266-27.093c2.066-9.11,7.105-16.404,13.433-22.965
	c3.534-3.666,6.855-7.631,10.825-10.756c5.95-4.682,12.625-8.136,20.545-8.127c2.282,0.004,4.565,0.002,6.848,0.002
	c0.003,0.176,0.005,0.352,0.008,0.528c4.396-0.114,8.792-0.329,13.186-0.286c1.853,0.016,3.796,0.297,5.527,0.928
	c8.178,2.973,16.487,5.533,23.793,10.645c5.191,3.632,8.974,8.404,12.816,13.191c2.595,3.236,5.014,6.639,7.209,10.158
	c2.979,4.78,3.865,10.303,4.401,15.766c0.472,4.792,0.315,9.652,0.276,14.48c-0.01,1.301-0.503,2.631-0.944,3.885
	c-1.903,5.434-3.875,10.842-5.818,16.258c-0.229,0.631-0.344,1.337-0.703,1.879C448.923,206.014,446.024,211.688,440.969,215.713z
	 M460.612,251.915c-2.465-0.437-4.815-1.99-5.825-4.529c-0.919-2.311-1.411-4.791-2.091-7.196
	c0.28-6.295,5.348-12.832,13.021-10.562c3.877,1.146,7.493,2.528,8.566,6.953C476.031,243.781,470.907,253.738,460.612,251.915z
	 M475.877,156.316c-0.521,0-1.045,0-1.568,0c0-0.525,0-1.047,0-1.574c0.523,0.264,1.049,0.527,1.568,0.789
	C475.877,155.791,475.877,156.055,475.877,156.316z M479.805,164.957c0.525,0.264,1.049,0.52,1.572,0.781c0,0.522,0,1.051,0,1.572
	c-0.783,0-1.572,0-2.357,0C479.283,166.525,479.545,165.738,479.805,164.957z M491.651,184.311
	c-5.976,0.146-10.567-2.709-10.488-8.334c0.091-6.589,4.123-11.707,9.839-11.853c6.367-0.163,10.403,4.744,10.622,10.163
	C501.856,180.117,497.798,184.148,491.651,184.311z"/>
</svg>
