<?xml version="1.0" encoding="utf-8"?>
<!-- Generator: Adobe Illustrator 16.0.0, SVG Export Plug-In . SVG Version: 6.00 Build 0)  -->
<!DOCTYPE svg PUBLIC "-//W3C//DTD SVG 1.1//EN" "http://www.w3.org/Graphics/SVG/1.1/DTD/svg11.dtd">
<svg version="1.1" id="Layer_1" xmlns="http://www.w3.org/2000/svg" xmlns:xlink="http://www.w3.org/1999/xlink" x="0px" y="0px"
	 width="800px" height="600px" viewBox="0 0 800 600" enable-background="new 0 0 800 600" xml:space="preserve">
<path fill-rule="evenodd" clip-rule="evenodd" fill="#444444" d="M696.809,273.609c-6.209-3.294-12.886-5.5-19.651-7.398
	c-2.583-0.725-5.16-1.475-7.733-2.241c-2.51-0.748-4.97-1.72-7.523-2.262c-4.779-1.013-9.611-1.766-14.418-2.662
	c-5.333-0.997-10.652-2.078-15.993-3.041c-5.556-1.003-11.114-1.988-16.694-2.831c-5.051-0.763-10.118-1.462-15.203-1.941
	c-8.631-0.813-17.189-2.246-25.883-2.617c-6.504-0.278-12.969-1.427-19.466-2.028c-5.183-0.479-10.384-0.729-15.579-1.054
	c-2.906-0.183-5.816-0.259-8.72-0.472c-4.489-0.327-8.97-0.743-13.459-1.099c-4.755-0.378-9.521-0.646-14.265-1.138
	c-1.666-0.172-3.341-0.703-4.902-1.341c-3.443-1.41-6.795-3.036-10.223-4.49c-3.44-1.461-6.752-3.137-9.485-5.72
	c-3.14-2.969-6.175-6.052-9.252-9.084c-1.863-1.832-3.69-3.7-5.602-5.48c-1.188-1.109-2.489-2.098-3.758-3.118
	c-1.4-1.129-2.831-2.222-4.231-3.351c-1.729-1.391-3.381-2.881-5.171-4.188c-2.146-1.566-4.529-2.827-6.58-4.501
	c-3.833-3.129-8.089-5.363-12.859-6.552c-1.833-0.457-3.771-0.685-5.664-0.681c-2.62,0.004-3.585,0.934-3.43,3.611
	c0.175,3.06,0.79,6.095,1.224,9.14c0.537,3.795,1.241,7.576,1.575,11.389c0.239,2.753-0.261,5.576,0.021,8.322
	c0.365,3.544-0.153,6.769-2.161,9.699c-1.433,2.092-2.557,4.409-5.18,5.497c-5.449,2.257-11.142,3.312-16.969,3.626
	c-3.363,0.18-6.586-0.436-9.693-2.048c-3.927-2.041-7.537-4.615-11.854-6.051c-3.79-1.26-7.212-3.608-10.819-5.436
	c-1.36-0.689-2.733-1.404-4.18-1.864c-4.723-1.5-8.723-4.24-12.628-7.159c-0.658-0.491-1.199-1.22-1.925-1.52
	c-3.381-1.396-6.723-3.02-10.241-3.911c-3.746-0.949-5.41-0.41-5.93,3.758c-0.14,1.121-0.005,2.302,0.17,3.43
	c0.653,4.259,1.416,8.502,2.059,12.763c0.457,3.036,0.955,6.083,1.097,9.14c0.062,1.36-0.287,3.196-1.18,4.064
	c-3.637,3.532-7.717,6.468-12.878,7.48c-3.112,0.611-6.183,1.495-9.316,1.926c-3.905,0.539-7.859,0.753-11.795,1.081
	c-2.402,0.2-4.81,0.34-7.214,0.522c-4.274,0.323-8.351-0.872-12.449-1.726c-2.988-0.622-5.903-1.61-8.825-2.52
	c-1.607-0.5-3.211-1.071-4.723-1.803c-1.509-0.729-2.841-1.829-4.361-2.532c-1.889-0.873-4.017,0.35-4.159,2.388
	c-0.183,2.604-0.201,5.223-0.189,7.835c0.01,1.878-0.578,3.462-2.064,4.583c-0.581,0.437-1.421,0.525-2.14,0.782
	c-3.646,1.302-7.217,2.908-10.956,3.837c-4.562,1.133-9.257,1.743-13.907,2.501c-6.512,1.061-13.017,1.917-19.587,0.234
	c-4.007-1.025-7.629-2.682-10.68-5.496c-1.888-1.741-3.652-3.633-5.639-5.252c-4.154-3.389-8.444-6.609-12.623-9.967
	c-1.784-1.435-3.244-3.354-5.177-4.505c-5.466-3.258-10.965-6.52-16.712-9.227c-4.33-2.037-9.07-3.196-13.606-4.806
	c-1.179-0.419-2.303-1.011-3.41-1.604c-3.394-1.817-6.783-3.57-10.705-4.064c-2.657-0.334-5.286-0.932-7.901-1.528
	c-1.965-0.447-3.858-1.351-5.837-1.575c-4.61-0.522-9.256-0.719-13.879-1.131c-1.723-0.153-2.718,0.752-3.383,2.072
	c-0.712,1.414-0.223,4.171,0.881,4.917c1.308,0.883,2.703,1.675,4.148,2.305c3.323,1.452,6.888,2.453,10.001,4.249
	c3.348,1.93,6.404,4.424,9.382,6.919c3.063,2.565,5.924,5.38,8.789,8.174c2.569,2.506,5.152,5.021,7.49,7.738
	c2.025,2.354,3.674,5.028,5.564,7.504c2.087,2.733,4.399,5.306,6.361,8.124c2.312,3.323,4.361,6.83,6.5,10.271
	c0.28,0.452,0.507,0.972,0.611,1.491c1.032,5.162,2.313,10.304,1.85,15.639c-0.227,2.612-0.472,5.228-0.843,7.821
	c-0.15,1.054-0.681,2.046-1.004,3.078c-0.625,2.002-1.208,4.016-1.841,6.013c-0.475,1.503-0.989,2.989-1.504,4.479
	c-0.962,2.779-1.865,5.585-2.933,8.324c-0.804,2.064-1.802,4.054-2.758,6.056c-1.236,2.589-2.313,5.285-3.833,7.698
	c-1.461,2.32-2.208,4.767-2.473,7.405c-0.387,3.853,2.548,6.314,6.264,5.124c1.853-0.595,3.633-1.535,5.307-2.546
	c2.38-1.44,4.65-3.067,6.935-4.661c2.107-1.468,4.039-3.244,6.279-4.454c5.758-3.106,10.284-7.525,14.203-12.641
	c0.961-1.256,1.825-2.627,2.483-4.062c1.427-3.107,2.495-6.39,4.071-9.411c1.789-3.427,3.883-6.709,6.015-9.942
	c1.641-2.486,3.391-4.938,5.374-7.149c2.14-2.388,4.33-4.928,7.004-6.585c3.465-2.153,7.703-2.43,11.729-2.747
	c3.826-0.301,7.69-0.064,11.535-0.183c4.547-0.143,8.986,0.521,13.266,1.938c1.34,0.443,2.626,1.605,3.498,2.766
	c1.1,1.467,1.597,3.373,2.631,4.902c1.319,1.949,3.159,3.583,5.646,3.403c1.982-0.146,3.921-0.952,5.864-1.517
	c1.994-0.58,3.929-1.513,5.957-1.784c4.729-0.632,9.496-1.291,14.253-1.322c5.134-0.033,10.282,0.531,15.407,1.026
	c4.476,0.433,8.927,1.118,13.386,1.718c3.857,0.516,7.784,0.761,11.548,1.68c5.206,1.271,10.295,3.032,15.404,4.669
	c0.653,0.21,1.33,0.833,1.669,1.446c1.178,2.137,1.667,4.459,1.753,6.921c0.059,1.621,0.276,3.342,0.919,4.799
	c0.524,1.195,1.681,2.776,2.739,2.93c2.021,0.296,4.188-0.213,6.263-0.57c1.062-0.18,2.026-0.865,3.083-1.134
	c2.854-0.724,5.739-1.331,8.602-2.021c1.169-0.282,2.393-0.503,3.457-1.024c3.859-1.893,8.023-2.18,12.179-2.276
	c2.438-0.057,4.884,0.473,7.333,0.664c1.674,0.131,3.359,0.094,5.037,0.198c1.578,0.097,3.15,0.271,4.726,0.423
	c0.905,0.088,1.812,0.18,2.715,0.29c2.384,0.29,4.763,0.661,7.158,0.868c3.656,0.314,7.33,0.436,10.98,0.79
	c3.933,0.382,7.838,1.25,11.771,1.353c7,0.183,14.01-0.184,21.012,0.448c5.362,0.484,10.746,0.71,16.117,1.086
	c3.876,0.274,7.749,0.604,11.625,0.922c0.868,0.073,1.742,0.156,2.6,0.31c2.147,0.376,4.292,0.785,6.433,1.209
	c0.795,0.156,1.574,0.406,2.365,0.597c3.04,0.737,4.551,3.322,6.324,5.465c1.551,1.874,2.903,4.005,3.906,6.223
	c2.752,6.088,2.58,12.628,2.442,19.114c-0.088,4.263-0.554,8.523-0.566,12.783c-0.021,5.736-0.997,11.134-3.61,16.341
	c-1.578,3.145-2.314,6.505,0.127,10.05c2.029,2.951,5.042,3.718,7.945,1.476c2.112-1.629,4.228-3.261,6.268-4.98
	c4.132-3.483,7.072-7.868,9.381-12.712c2.024-4.244,4.143-8.445,6.124-12.708c1.33-2.862,2.562-5.771,3.706-8.712
	c0.707-1.809,1.057-3.755,1.771-5.559c0.538-1.347,1.559-2.502,2.1-3.849c1.564-3.909,3.134-7.828,4.438-11.827
	c1.199-3.669,2.94-7.021,4.779-10.389c1.575-2.882,3.379-4.971,6.873-5.021c0.43-0.006,0.854-0.199,1.285-0.296
	c3.034-0.688,6.045-1.508,9.109-2.026c4.102-0.696,8.249-1.115,12.367-1.731c4.876-0.73,9.73-1.615,14.611-2.295
	c5.758-0.804,11.531-1.492,17.303-2.167c4.464-0.523,8.945-0.916,13.41-1.436c5.985-0.693,11.964-1.454,17.941-2.185
	c0.017,0.14,0.032,0.279,0.049,0.419c3.933-0.379,7.899-0.559,11.786-1.215c2.204-0.371,4.36-1.36,6.387-2.371
	c3.072-1.529,5.991-3.362,9.016-4.991c3.709-1.994,7.545-3.774,11.165-5.913c2.6-1.535,5.067-3.298,7.465-5.201
	c5.58-4.428,11.255-8.705,15.383-14.609C700.916,279.3,700.384,275.507,696.809,273.609z M185.923,294.727
	c1.445,0.508,0.711,0.057,1.566,0.787C186.04,295.008,186.778,295.459,185.923,294.727z M225.981,279.803c0.523,0,1.047,0,1.574,0
	C226.974,281.262,227.22,280.779,225.981,279.803z M265.259,286.088c1.051,0,2.098,0,3.145,0
	C267.13,286.977,266.544,287.023,265.259,286.088z M319.466,275.088c-0.523,0-1.051,0-1.574,0c0-1.045,0-2.092,0-3.141
	c0.785,0.264,1.574,0.527,2.359,0.785c-0.512,1.447-0.059,0.713-0.785,1.572C319.466,274.564,319.466,274.828,319.466,275.088z
	 M322.603,285.303c-0.258,0-0.52,0-0.785,0c0,0.262,0,0.525,0,0.785c-0.516,0-1.043,0-1.566,0c0.262-0.785,0.523-1.572,0.785-2.357
	c0.527,0.264,1.047,0.521,1.566,0.785C322.603,284.779,322.603,285.039,322.603,285.303z M329.673,273.52
	c-0.855,0.727-0.102,0.295-1.566,0.785c-0.449-1.199-0.582-1.297-0.785-3.143c1.043,0.262,2.094,0.525,3.141,0.785
	C329.954,273.395,330.407,272.662,329.673,273.52z M361.099,237.381c1.445,0.508,0.711,0.061,1.57,0.787
	C361.224,237.662,361.958,238.113,361.099,237.381z M388.595,297.084c-0.789,0-1.57,0-2.355,0c-1.062-2.396-1.625-3.09-1.578-4.711
	c1.316,1.045,2.621,2.094,3.934,3.141C388.595,296.035,388.595,296.559,388.595,297.084z M421.587,281.375c-0.262,0-0.527,0-0.785,0
	c0-0.525,0-1.049,0-1.572c0.258,0,0.523,0,0.785,0C421.587,280.326,421.587,280.85,421.587,281.375z M423.942,292.373
	c1.449,0.506,0.715,0.053,1.57,0.781C424.063,292.646,424.798,293.102,423.942,292.373z M437.298,306.51
	c-2.176-0.469-1.426,0.443-1.574-1.568c0.523,0,1.047,0,1.574,0C437.298,305.465,437.298,305.99,437.298,306.51z M442.009,249.164
	c-1.672-0.285-1.48-0.104-2.359-0.783c-0.258,0-0.516,0-0.781,0c0-0.262,0-0.525,0-0.785c0.266,0,0.523,0,0.781,0
	c0.266-0.523,0.527-1.045,0.785-1.568c0.527,0,1.051,0,1.574,0C442.009,247.072,442.009,248.119,442.009,249.164z M456.935,242.879
	c-0.523,0-1.047,0-1.57,0c0-0.521,0-1.045,0-1.568c0.523,0,1.047,0,1.57,0C456.935,241.834,456.935,242.357,456.935,242.879z
	 M477.364,234.24c0,0.264,0,0.523,0,0.787c-0.527,0-1.051,0-1.578,0c0.684-1.754,0.672-1.121,1.578-2.355
	C478.024,233.994,477.95,232.939,477.364,234.24z M504.856,366.213c-0.527,0-1.047,0-1.574,0c0.23-1.832,0.352-1.949,0.785-3.145
	c0.262,0,0.527,0,0.789,0C504.856,364.119,504.856,365.164,504.856,366.213z M518.208,288.441c0.66,1.328,0.59,0.275,0,1.572
	c0,0.264,0,0.523,0,0.787c-0.258,0-0.523,0-0.785,0C517.685,290.014,517.95,289.229,518.208,288.441z M518.208,298.656
	c0,0.264,0,0.523,0,0.787c-1.871-0.635-1.352-0.256-2.355-1.572C516.638,298.135,517.423,298.395,518.208,298.656z M518.208,385.854
	c-0.785,0-1.57,0-2.355,0c0.262-0.785,0.52-1.572,0.785-2.359c0.523,0.264,1.047,0.527,1.57,0.787
	C518.208,384.803,518.208,385.326,518.208,385.854z M520.563,328.504c-1.449,0.508-0.711,0.061-1.566,0.789
	c-0.266,0-0.527,0-0.789,0c0-1.312,0-2.621,0-3.926c0.789,0,1.57,0,2.355,0C520.563,326.412,520.563,327.459,520.563,328.504z
	 M535.489,325.367c0.266,0,0.523,0,0.785,0c0-0.264,0-0.525,0-0.787c0.73,0.857,0.297,0.104,0.789,1.57
	C537.063,326.15,534.009,326.043,535.489,325.367z M555.13,298.656c0-0.785,0-1.572,0-2.357c0.262,0,0.52,0,0.785,0
	c0-0.264,0-0.527,0-0.785c1.844,0.145,2.203,0.07,3.141,0.785c0.523,0,1.047,0,1.57,0
	C559.599,298.457,558.188,298.611,555.13,298.656z M627.42,302.694c-2.14-0.514-4.333-1.037-6.526-1.562
	c-0.06-0.158-0.115-0.317-0.175-0.478c2.336-2.008,4.244-4.597,7.747-5.223C629.517,297.969,628.495,300.192,627.42,302.694z
	 M631.325,286.871c-0.258,0-0.523,0-0.781,0c0,0.262,0,0.525,0,0.789c-0.527,0-1.051,0-1.574,0c0.266-0.789,0.523-1.572,0.789-2.357
	c0.52,0.262,1.043,0.525,1.566,0.785C631.325,286.352,631.325,286.611,631.325,286.871z M658.267,295.817
	c-0.997,0.572-1.986,1.152-2.991,1.712c-2.188,1.223-4.353,2.502-6.594,3.62c-1.54,0.77-1.842,0.425-1.807-1.348
	c0.029-1.678-0.123-3.357-0.166-5.035c-0.024-0.903,0.44-1.282,1.346-1.145c3.328,0.508,6.656,1.005,9.986,1.508
	C658.116,295.357,658.191,295.588,658.267,295.817z M633.089,294.644c0.014-0.252,0.319-0.672,0.534-0.701
	c1.696-0.233,3.4-0.396,5.105-0.575c0.104,0.204,0.212,0.408,0.319,0.615c-1.828,1.514-3.655,3.027-5.486,4.543
	c-0.164-0.124-0.33-0.244-0.497-0.365C633.064,296.989,633.032,295.814,633.089,294.644z M642.698,301.294
	c-0.368,1.143-0.476,2.371-0.89,3.489c-0.172,0.468-0.914,1.123-1.274,1.054c-2.436-0.474-4.841-1.118-7.585-1.788
	c3.247-2.405,6.145-4.552,9.045-6.701C643.278,298.454,643.174,299.808,642.698,301.294z M637.911,277.272
	c0.296-1.215,0.61-2.426,0.887-3.646c0.68-3.014,4.252-4.15,6.551-2.947c2.284,1.197,4.854,1.99,5.846,4.867
	c0.831,2.406-0.107,4.882-2.519,5.72c-1.338,0.467-2.688,0.924-4.066,1.241C640.9,283.362,637.836,282.083,637.911,277.272z
	 M657.522,305.02c-1.259,1.54-2.853,2.816-4.379,4.118c-0.331,0.282-1.046,0.365-1.486,0.229c-1.707-0.524-3.376-1.175-5.486-1.931
	c4.696-2.516,9.126-4.892,13.556-7.267c0.15,0.091,0.304,0.18,0.454,0.269C659.312,301.979,658.624,303.67,657.522,305.02z
	 M671.392,269.59c-0.508,1.451-0.055,0.713-0.793,1.572c0,0.262,0,0.525,0,0.785c-0.254,0-0.516,0-0.781,0
	c-0.262-0.785-0.52-1.572-0.785-2.357C669.817,269.59,670.599,269.59,671.392,269.59z M664.008,304.113
	c-0.134-0.131-0.269-0.266-0.405-0.4c0.604-2.188,1.166-4.388,1.854-6.55c0.121-0.381,0.839-0.895,1.183-0.83
	c2.339,0.446,4.647,1.026,6.962,1.578c0.143,0.032,0.255,0.183,0.65,0.479C671.005,300.833,667.451,302.372,664.008,304.113z"/>
</svg>
