<?xml version="1.0" encoding="utf-8"?>
<!-- Generator: Adobe Illustrator 16.0.0, SVG Export Plug-In . SVG Version: 6.00 Build 0)  -->
<!DOCTYPE svg PUBLIC "-//W3C//DTD SVG 1.1//EN" "http://www.w3.org/Graphics/SVG/1.1/DTD/svg11.dtd">
<svg version="1.1" id="Layer_1" xmlns="http://www.w3.org/2000/svg" xmlns:xlink="http://www.w3.org/1999/xlink" x="0px" y="0px"
	 width="800px" height="400px" viewBox="0 100 800 400" enable-background="new 0 100 800 400" xml:space="preserve">
<path fill="#444444" d="M484.087,266.873c0.726-1.126,1.181-2.594,1.263-3.937c0.283-4.586-2.785-7.142-6.141-9.406
	c-3.817-2.575-7.796-4.922-11.499-7.644c-4.288-3.155-8.027-6.917-9.865-12.081c-1.653-4.648-2.784-9.502-4.678-14.043
	c-1.84-4.419-3.848-9.002-8.089-11.74c-2.55-1.643-5.434-2.809-8.266-3.955c-2.61-1.055-3.958-2.948-4.685-5.531
	c-0.646-2.293,0.861-3.52,2.258-4.721c4.874-4.202,5.045-10.333,2.767-15.351c-0.684-1.501-1.479-2.965-1.987-4.521
	c-1.209-3.708,0.282-6.394,4.032-7.429c3.275-0.908,5.032-3.359,5.429-6.391c0.361-2.766-0.074-5.669-0.41-8.479
	c-0.136-1.144-1.192-1.799-2.491-1.614c-1.394,0.201-2.226,0.876-2.022,2.425c0.156,1.198,0.226,2.412,0.436,3.598
	c0.798,4.5,0.134,5.73-4.265,6.888c-1.84,0.482-3.07,1.432-4.086,2.988c-2.121,3.238-2.283,6.551-0.763,10.031
	c0.879,2.014,1.874,3.988,2.592,6.058c0.787,2.266,0.742,4.602-0.784,6.602c-2.592,3.392-5.861,5.958-10.022,7.071
	c-1.54,0.414-3.305,0.362-4.258-1.335c0.72-2.302,1.562-4.455,2.048-6.683c1.021-4.672-0.037-10.627-5.978-13.187
	c-1.398-0.604-2.739-1.447-3.912-2.419c-0.874-0.725-1.77-1.74-2.064-2.792c-0.896-3.19-0.671-6.346,1.476-9.065
	c0.877-1.108,2.069-1.967,2.959-3.071c0.604-0.747,0.928-1.719,1.371-2.578c-2.513-1.627-4.426-1.068-6.073,0.479
	c-6.008,5.622-7.643,18.009,2.791,22.511c0.201,0.086,0.405,0.175,0.603,0.273c5.227,2.658,6.334,8.451,2.353,13.225
	c-0.354-0.411-0.775-0.749-1.005-1.188c-2.477-4.763-6.271-7.445-11.728-7.752c-2.671-0.147-3.66-1.393-3.462-4.102
	c0.081-1.084,0.504-2.138,0.652-3.224c0.807-5.916,1.52-11.825-3.097-16.771c-0.07-0.033-0.167-0.108-0.271-0.119
	c-0.762-0.092-1.521-0.178-2.285-0.248c-1.731-0.156-3.243,0.564-3.421,1.762c-0.219,1.476,0.871,2.271,2.003,2.612
	c2.031,0.612,2.845,2.078,2.963,3.915c0.133,2.053,0.052,4.142-0.148,6.196c-0.171,1.738-0.729,3.437-0.969,5.175
	c-0.736,5.362,1.379,8.088,6.72,8.868c1.402,0.204,2.804,0.495,4.168,0.883c2.857,0.812,5.292,3.948,5.354,6.829
	c0.011,0.399-0.164,0.863-0.394,1.2c-1.702,2.532-7.468,4.871-10.546,2.519c-2.062-1.575-4.562-2.557-6.797-3.921
	c-0.8-0.488-1.649-1.192-2.036-2.005c-2.249-4.714-3.841-9.384-1.93-14.849c1.842-5.276-0.977-10.206-6.081-12.516
	c-4.296-1.939-8.389-0.994-12.45,0.6c-1.555,0.609-1.741,1.944-0.562,3.123c1.354,1.349,2.821,1.192,4.517,0.483
	c4.543-1.899,7.761-0.78,10.135,3.018c1.143,1.827,0.535,3.464-0.154,5.005c-2.177,4.849-1,9.373,0.87,13.955
	c1.179,2.889,2.587,5.572,4.84,7.763c1.365,1.324,0.948,2.906,0.302,4.286c-0.65,1.386-2.011,1.431-3.438,1.149
	c-2.968-0.582-5.259-2.169-6.93-4.606c-2.443-3.561-4.432-7.319-4.371-11.82c0.1-7.276-9.268-13-14.998-12.344
	c-1.389,0.158-2.596,0.438-3.175,1.872c1.34,2.81,1.339,2.75,4.105,2.675c1.054-0.026,2.21,0.076,3.154,0.492
	c3.756,1.662,6.215,4.2,6.413,8.707c0.118,2.674,1.112,5.311,1.723,7.961c0.122,0.529,0.289,1.045,0.437,1.568
	c-3.049-2.612-6.577-2.396-9.936-2.137c-4.731,0.362-4.721,0.55-6.442-3.896c-0.199-0.51-0.343-1.042-0.498-1.569
	c-1.029-3.456-2.104-3.726-5.257-0.905c1.113,2.762,2.134,5.759,3.525,8.573c0.899,1.822,2.587,3.024,4.781,3.013
	c1.179-0.006,2.403-0.076,3.524-0.403c3.092-0.905,5.688-0.182,7.655,2.293c1.599,2.013,2.959,4.216,4.469,6.392
	c-1.518,1.728-3.548,1.43-5.287,1.701c-5.559,0.859-10.616,0.38-14.437-4.737c-1.342-1.799-3.754-3.218-5.958-3.877
	c-6.97-2.081-12.636,1.067-17.738,5.417c-0.551,0.469-0.576,2.118-0.222,2.953c0.53,1.25,1.753,1.026,2.817,0.378
	c1.312-0.8,2.684-1.506,3.945-2.378c5.689-3.925,10.829-3.308,15.434,1.885c1.992,2.245,4.161,4.242,7.281,4.818
	c0.456,0.083,0.863,0.425,1.876,0.948c-2.751,0.868-4.896,1.608-7.08,2.215c-3.255,0.903-3.682,0.698-5.625-2.223
	c-1.249-1.88-4.578-3.482-6.551-2.72c-2.538,0.983-4.938,2.344-7.342,3.645c-0.52,0.278-1.149,1.012-1.124,1.506
	c0.05,1.002,0.337,2.107,0.904,2.902c0.201,0.284,1.578-0.037,2.271-0.38c1.567-0.776,2.993-1.84,4.566-2.601
	c2.723-1.315,3.272-1.098,5.062,1.525c2.107,3.093,3.544,3.716,7.266,2.846c2.243-0.524,4.422-1.311,6.644-1.922
	c3.764-1.037,7.314,0.204,9.481,3.48c0.958,1.445,1.831,2.534,3.797,2.663c0.784,0.049,1.675,1.278,2.131,2.171
	c0.188,0.365-0.504,1.4-1.031,1.874c-1.176,1.063-2.306,0.429-3.141-0.543c-2.027-2.35-4.818-3.45-7.537-4.571
	c-4.086-1.688-8.282-2.009-12.51-0.267c-2.127,0.879-4.316,1.621-6.503,2.35c-4.087,1.363-7.828,1.677-10.936-2.355
	c-1.108-1.438-3.137-2.535-4.947-3c-5.236-1.343-12.013,2.057-14.524,6.86c-0.53,1.016-0.65,2.063,0.313,2.617
	c0.592,0.34,1.752,0.23,2.375-0.146c1.208-0.727,2.228-1.775,3.31-2.71c4.156-3.59,7.919-3.45,11.711,0.505
	c1.913,1.994,4.113,3.174,6.96,3.181c3.336,0.006,6.521-0.479,9.635-1.759c6.785-2.786,13.392-3.181,19.367,2.011
	c0.52,0.451,0.877,1.085,1.52,1.9c-1.846,0.956-3.407,1.692-4.9,2.551c-3.808,2.197-7.671,3.226-11.838,0.954
	c-1.153-0.628-2.376-1.13-3.576-1.673c-3.278-1.477-6.668-2.358-10.226-1.249c-2.604,0.814-5.101,1.975-7.71,2.758
	c-1.551,0.461-1.938,1.293-1.537,2.668c0.405,1.396,1.346,1.951,2.778,1.5c0.939-0.294,1.922-0.516,2.8-0.944
	c5.215-2.557,10.324-2.705,15.353,0.477c0.458,0.292,1.034,0.405,1.483,0.709c1.737,1.164,3.719,1.587,5.678,1.265
	c2.565-0.423,5.141-1.037,7.568-1.956c2.345-0.888,4.471-2.335,6.751-3.41c2.189-1.033,4.863-0.23,5.738,1.575
	c0.62,1.276-0.585,4.024-2.387,4.945c-2.458,1.256-5.047,2.406-7.889,1.607c-4.473-1.25-8.737-0.352-12.748,1.438
	c-3.51,1.567-6.72,1.287-10.187,0.1c-2.966-1.015-5.89-2.042-9.118-2.462c-5.094-0.667-9.521,1.021-14.089,2.476
	c-1.217,0.387-1.59,2.057-0.987,3.361c0.522,1.139,1.683,1.461,3.001,0.849c1.09-0.507,2.14-1.241,3.288-1.468
	c5.78-1.144,11.443-1.371,17.054,1.262c4.038,1.893,8.369,2.532,12.598,0.065c0.84-0.492,1.832-0.74,2.77-1.05
	c1.98-0.654,3.991-0.794,6.542-0.333c-0.766,0.714-1.146,1.243-1.661,1.525c-3.264,1.784-6.543,3.545-9.848,5.253
	c-2.925,1.512-5.604,1.262-8.188-0.972c-3.489-3.019-7.841-3.29-12.127-3.008c-4.42,0.295-8.605,1.818-12.524,3.839
	c-1.82,0.939-3.414,2.372-4.985,3.725c-1.075,0.926-0.955,2.23-0.16,3.277c0.811,1.069,1.95,0.83,2.972,0.226
	c0.463-0.271,0.836-0.694,1.254-1.045c4.661-3.928,10.145-5.604,16.134-5.663c3.117-0.026,6.053,0.591,8.496,2.916
	c2.088,1.99,4.643,2.912,7.585,1.865c1.229-0.436,2.567-0.65,3.701-1.254c3.671-1.959,7.271-4.048,10.895-6.099
	c1.417-0.8,2.823-1.626,4.207-2.426c1.757,1.143,1.993,2.383,1.043,4.016c-1.747,3.002-4.394,4.912-7.53,6.107
	c-5.332,2.035-10.725,3.912-16.098,5.831c-0.378,0.134-0.828,0.071-1.287,0.102c-0.454-0.883-0.829-1.668-1.251-2.427
	c-2.988-5.402-9.908-7.494-15.453-4.758c-1.398,0.687-1.603,1.71-1.22,2.986c0.435,1.458,1.391,1.668,2.831,1.289
	c1.578-0.417,3.244-0.612,4.881-0.666c3.693-0.125,5.23,1.417,5.453,5.247c-1.229,0.833-2.451,0.521-3.763,0.116
	c-1.884-0.583-3.803-1.2-5.747-1.378c-1.581-0.145-3.423-0.069-4.79,0.621c-3.057,1.544-5.526,3.925-7.346,6.872
	c-1.592,2.583-1.294,5.435,0.643,7.312c0.839-0.435,1.678-0.869,2.588-1.34c0.046-0.387,0.074-0.822,0.155-1.248
	c1.123-5.881,5.999-8.924,11.718-7.33c1.48,0.41,3.021,1.231,4.449,1.079c2.847-0.303,4.185,1.297,5.45,3.3
	c0.353,0.558,0.769,1.074,1.139,1.619c1.692,2.494,4.05,3.096,6.919,2.645c3.925-0.618,6.891-2.69,9.146-5.821
	c1.886-2.622,3.607-5.357,5.488-8.175c1.554,0.548,1.645,1.922,1.619,3.397c-0.079,4.717-4.812,11.533-9.204,13.202
	c-1.937,0.736-3.844,1.574-5.826,2.148c-2.415,0.695-4.875,1.272-7.35,1.7c-2.687,0.465-4.485-0.738-5.977-3.074
	c-1.002-1.57-2.667-2.852-4.291-3.849c-1.479-0.904-2.556,0.116-2.191,1.867c0.133,0.636,0.323,1.337,0.714,1.83
	c1.488,1.886,3.013,3.753,4.635,5.523c1.229,1.34,2.839,1.974,4.688,2.129c3.897,0.323,7.601-0.349,11.262-1.678
	c2.542-0.922,5.062-2.44,7.918-1.659c5.276,1.444,9.936,4.051,13.702,8.07c1.53,1.629,2.375,3.758,2.265,5.939
	c-0.156,3.104-1.652,5.61-4.35,7.367c-2.698,1.758-4.275,1.482-5.948-1.32c-1.712-2.868-2.945-5.922-2.984-9.312
	c-0.015-1.426-0.688-2.231-1.87-2.809c-1.281-0.629-2.228-0.153-3.275,0.676c-7.112,5.604-14.84,5.77-22.933,2.454
	c-0.911-0.37-1.846-0.763-2.807-0.925c-1.678-0.277-2.557,0.631-2.205,2.281c0.18,0.84,0.589,1.654,1.027,2.407
	c0.828,1.425,1.727,2.808,2.645,4.177c1.001,1.491,0.931,2.869-0.305,4.181c-0.602,0.64-1.122,1.383-1.806,1.915
	c-3.099,2.417-6.206,4.828-9.384,7.137c-2.298,1.674-2.357,3.6,0.057,5.134c0.729,0.468,1.615,0.683,2.417,1.042
	c0.798,0.354,1.648,0.65,2.351,1.149c2.251,1.6,2.461,2.712,0.708,4.86c-1.312,1.607-2.83,3.056-4.323,4.504
	c-1.556,1.513-3.193,2.938-4.898,4.5c0.635,0.898,0.938,1.826,1.51,2.043c1.506,0.574,3.117,0.9,4.711,1.207
	c1.06,0.205,2.246-0.026,3.226,0.338c2.929,1.097,4.076,3.99,2.903,7.041c-0.626,1.632-1.598,3.168-1.995,4.846
	c-0.555,2.354,0.869,3.537,3.174,2.847c1.361-0.409,2.688-0.94,4.013-1.46c3.931-1.533,8.011-2.332,12.217-2.26
	c2.925,0.052,4.518,1.586,4.525,4.506c0.006,2.396-0.255,4.828-0.724,7.182c-0.644,3.223-1.773,6.352-2.376,9.576
	c-1.482,7.938-2.191,15.904,0.247,23.815c0.97,3.146,1.902,6.305,2.937,9.427c3.324,10.055,8.955,18.498,17.558,24.824
	c1.59,1.169,3.216,2.288,4.814,3.444c4.702,3.401,9.928,5.747,15.649,6.459c6.083,0.752,12.234,1.062,18.368,1.251
	c4.363,0.134,8.78,0.035,13.104-0.512c3.318-0.42,6.482-1.967,9.802-2.528c4.776-0.82,8.52-3.569,12.053-6.4
	c4.471-3.583,8.078-8.083,10.096-13.6c1.316-3.597,2.607-7.211,3.703-10.878c2.184-7.311,2.528-14.64,0.032-21.998
	c-1.991-5.864-6.643-9.697-10.525-14.122c-0.283-0.323-0.651-0.665-1.048-0.782c-3.98-1.201-7.918-2.982-11.985-3.38
	c-7.494-0.733-14.651,1.081-20.896,5.472c-1.728,1.219-3.152,3.035-4.324,4.832c-1.364,2.092-2.382,4.428-3.409,6.721
	c-2.446,5.462-0.99,10.554,1.853,15.352c1.312,2.218,3.38,2.404,5.18,0.518c2.189-2.294,4.157-4.806,6.143-7.281
	c3.405-4.254,7.921-5.668,13.146-5.178c2.056,0.192,5.178,3.356,5.092,5.371c-0.192,4.705-1.473,9.112-4.911,12.551
	c-2.935,2.931-6.274,4.829-10.084,5.853c0,0.128,0,0.259,0,0.386c-0.56,0-1.119,0-1.676,0c-1.136,0.219-2.301,0.384-3.521,0.461
	c-5.409,0.332-10.17-1.079-14.682-3.581c-4.701-2.604-7.196-7.165-8.46-12.105c-2.029-7.96-1.594-15.976,1.792-23.539
	c3.347-7.472,8.36-13.597,15.778-17.492c10.088-5.295,20.155-10.634,30.227-15.968c0.58-0.307,1.164-0.649,1.651-1.081
	c0.444-0.394,0.897-0.776,1.348-1.166c-0.259,0-0.519,0-0.777,0c0.343-2.001,0.126-1.775,0.941-2.83c0-0.312,0-0.625,0-0.94
	c0.314,0,0.627,0,0.946,0c0,0.315,0,0.631,0,0.94c0.522,0.176,1.046,0.351,1.571,0.524c2.155-1.845,4.288-3.713,6.196-5.782
	c3.99-4.324,6.444-9.589,7.831-15.36c1.257-5.215,1.121-10.457,0.866-15.729c-0.542-11.181-6.124-18.972-15.997-23.869
	c-1.959-0.969-4.021-1.731-5.985-2.688c-3.343-1.627-6.61-3.416-9.978-4.989c-5.407-2.525-10.334-5.719-14.665-9.843
	c-3.506-3.341-3.762-9.15-0.251-13.093c0.769,1.562,1.444,3.029,2.193,4.453c1.699,3.233,3.514,6.249,7.549,7.149
	c4.442,0.991,8.766,1.861,13.201-0.148c4.428-2.008,8.109-0.19,11.396,2.787c2.586,2.347,5.305,4.58,7.646,7.153
	c3.309,3.632,7.017,2.833,10.184,1.336c1.09-0.516,2.102-1.225,3.229-1.622C479.457,272.099,482.144,269.895,484.087,266.873z
	 M441.589,159.218c0.627,0.316,1.256,0.632,1.889,0.944c0,0.317,0,0.63,0,0.947c-0.633,0-1.262,0-1.889,0
	C441.589,160.478,441.589,159.85,441.589,159.218z M370.89,188.439c-0.815-1.045-0.624-0.809-0.941-2.825c0.313,0,0.627,0,0.941,0
	C370.89,186.558,370.89,187.497,370.89,188.439z M360.339,276.104c-1.689,2.266-4.324,2.884-6.899,3.37
	c-0.677,0.126-1.716-0.373-2.225-0.922c-0.859-0.924-1.427-2.118-2.306-3.49c4.893-3.095,10.025-3.544,15.165-4.6
	C362.838,272.351,361.686,274.301,360.339,276.104z M361.464,214.838c0-0.628,0-1.259,0-1.887c0.941,0,1.884,0,2.826,0
	c0.843,1.033-0.094,0.105,0.941,0.942c0,0.627,0,1.261,0,1.886C363.975,215.466,362.72,215.154,361.464,214.838z M377.666,221.801
	c-1.32,0.797-2.891,1.412-4.259,0.088c-2.461-2.379-5.261-4.192-8.412-5.688c3.644,0.164,6.965-0.902,10.368-1.382
	c1.821-0.258,3.277,1.208,4.716,2.25c0.216,0.155,0.339,0.59,0.329,0.892C380.351,219.835,379.073,220.949,377.666,221.801z
	 M379.901,209.2c-0.85-1.479-1.655-2.886-2.604-4.54C380.914,205.897,381.556,207.047,379.901,209.2z M367.117,381.689
	c-1.153,0.815-1.078,0.713-1.884,1.879c-0.816-1.039-0.625-0.807-0.942-2.821c0.942,0,1.884,0,2.826,0
	C367.117,381.062,367.117,381.372,367.117,381.689z M387.859,409.966c-0.319,0-0.634,0-0.947,0
	c-0.529-1.438-0.693-1.556-0.941-3.764c0.632,0.312,1.256,0.623,1.89,0.938C387.859,408.082,387.859,409.028,387.859,409.966z
	 M388.797,392.055c-0.31,0-0.624,0-0.938,0c-0.812-1.748-1.384-2.474-1.89-4.705c0.941,0.309,1.89,0.627,2.826,0.94
	C388.797,389.547,388.797,390.803,388.797,392.055z M445.362,409.966c0.624,0,1.256,0,1.884,0c0.844,1.031-0.094,0.108,0.941,0.947
	c-1.231,2.386,0.188,1.247-2.825,1.884C445.362,411.855,445.362,410.913,445.362,409.966z M400.112,292.133
	c-0.627,0-1.262,0-1.884,0c0.313-1.884,0.623-3.769,0.94-5.653c0.315,0,0.629,0,0.942,0
	C400.112,288.365,400.112,290.249,400.112,292.133z M409.539,330.785c0.313-0.944,0.627-1.887,0.942-2.829
	c0.814,1.051,0.627,0.812,0.94,2.829C410.796,330.785,410.167,330.785,409.539,330.785z M434.051,319.473c0.942,0,1.88,0,2.826,0
	c0,0.941,0,1.885,0,2.826c-0.946,0-1.884,0-2.826,0C434.051,321.355,434.051,320.414,434.051,319.473z M431.22,305.329
	c0.314,0,0.633,0,0.942,0c0,0.627,0,1.262,0,1.889c-0.311,0-0.628,0-0.942,0C431.22,306.591,431.22,305.958,431.22,305.329z
	 M418.966,310.992c0.942,0.31,1.891,0.624,2.832,0.941c0,0.31,0,0.623,0,0.937c-0.941,0-1.89,0-2.832,0
	C418.966,312.243,418.966,311.618,418.966,310.992z M425.566,248.774c-0.815-1.047-0.627-0.813-0.947-2.826c0.32,0,0.633,0,0.947,0
	C425.566,246.889,425.566,247.829,425.566,248.774z M438.834,242.31c-3.449,0.073-6.215-2.569-6.161-5.889
	c0.056-3.337,2.268-6.275,4.676-6.222c3.705,0.086,6.116,2.369,6.134,5.8C443.495,238.951,441.056,242.267,438.834,242.31z"/>
</svg>
