<?xml version="1.0" encoding="utf-8"?>
<!-- Generator: Adobe Illustrator 16.0.0, SVG Export Plug-In . SVG Version: 6.00 Build 0)  -->
<!DOCTYPE svg PUBLIC "-//W3C//DTD SVG 1.1//EN" "http://www.w3.org/Graphics/SVG/1.1/DTD/svg11.dtd">
<svg version="1.1" id="Layer_1" xmlns="http://www.w3.org/2000/svg" xmlns:xlink="http://www.w3.org/1999/xlink" x="0px" y="0px"
	 width="800px" height="300px" viewBox="0 150 800 300" enable-background="new 0 150 800 300" xml:space="preserve">
<path fill="#444444" d="M680.852,275.029c-5.875-3.117-12.193-5.206-18.594-7.001c-2.443-0.687-4.883-1.394-7.316-2.121
	c-2.373-0.708-4.703-1.625-7.119-2.14c-4.523-0.958-9.098-1.671-13.643-2.518c-5.047-0.945-10.08-1.967-15.135-2.879
	c-5.258-0.948-10.518-1.88-15.797-2.677c-4.779-0.724-9.574-1.384-14.385-1.837c-8.168-0.77-16.266-2.127-24.492-2.476
	c-6.155-0.264-12.272-1.35-18.419-1.919c-4.904-0.455-9.826-0.689-14.742-0.996c-2.75-0.174-5.505-0.248-8.251-0.449
	c-4.248-0.308-8.487-0.702-12.736-1.039c-4.499-0.356-9.008-0.613-13.497-1.077c-1.577-0.162-3.162-0.665-4.639-1.27
	c-3.259-1.332-6.43-2.873-9.676-4.248c-3.254-1.381-6.388-2.968-8.974-5.413c-2.971-2.808-5.843-5.726-8.754-8.596
	c-1.763-1.732-3.492-3.5-5.302-5.186c-1.124-1.048-2.354-1.987-3.557-2.952c-1.324-1.068-2.678-2.1-4.003-3.167
	c-1.637-1.319-3.2-2.726-4.894-3.966c-2.03-1.481-4.285-2.672-6.225-4.257c-3.628-2.963-7.654-5.075-12.168-6.203
	c-1.735-0.43-3.57-0.646-5.359-0.643c-2.48,0.004-3.394,0.884-3.246,3.417c0.164,2.894,0.747,5.768,1.157,8.646
	c0.51,3.596,1.175,7.171,1.492,10.779c0.225,2.604-0.248,5.277,0.019,7.875c0.347,3.353-0.145,6.405-2.046,9.178
	c-1.355,1.979-2.419,4.173-4.9,5.2c-5.156,2.136-10.543,3.134-16.056,3.432c-3.183,0.17-6.233-0.413-9.173-1.937
	c-3.715-1.93-7.131-4.366-11.216-5.726c-3.586-1.191-6.824-3.414-10.237-5.146c-1.286-0.65-2.585-1.326-3.955-1.764
	c-4.47-1.417-8.255-4.012-11.949-6.771c-0.623-0.467-1.134-1.156-1.821-1.442c-3.201-1.319-6.362-2.854-9.69-3.7
	c-3.545-0.896-5.12-0.388-5.613,3.558c-0.131,1.06-0.004,2.178,0.162,3.247c0.617,4.027,1.34,8.042,1.948,12.075
	c0.433,2.873,0.904,5.756,1.039,8.648c0.058,1.286-0.272,3.024-1.116,3.846c-3.442,3.343-7.303,6.12-12.187,7.079
	c-2.945,0.578-5.85,1.414-8.815,1.822c-3.695,0.51-7.438,0.713-11.162,1.022c-2.272,0.19-4.55,0.321-6.825,0.493
	c-4.044,0.306-7.902-0.823-11.78-1.633c-2.827-0.588-5.585-1.521-8.351-2.383c-1.52-0.474-3.039-1.014-4.469-1.707
	c-1.427-0.69-2.688-1.729-4.127-2.396c-1.787-0.826-3.801,0.33-3.935,2.258c-0.174,2.464-0.19,4.945-0.18,7.414
	c0.01,1.777-0.546,3.277-1.953,4.337c-0.549,0.415-1.344,0.497-2.024,0.741c-3.45,1.232-6.829,2.75-10.367,3.629
	c-4.316,1.072-8.759,1.65-13.16,2.367c-6.162,1.005-12.317,1.814-18.534,0.223c-3.792-0.969-7.219-2.538-10.105-5.202
	c-1.788-1.646-3.457-3.438-5.336-4.969c-3.93-3.206-7.991-6.254-11.943-9.431c-1.689-1.359-3.072-3.174-4.899-4.264
	c-5.172-3.081-10.377-6.169-15.813-8.73c-4.097-1.929-8.582-3.024-12.874-4.549c-1.118-0.396-2.181-0.955-3.227-1.515
	c-3.212-1.723-6.421-3.381-10.133-3.848c-2.513-0.317-4.998-0.882-7.474-1.444c-1.859-0.425-3.653-1.279-5.523-1.492
	c-4.363-0.494-8.759-0.68-13.133-1.07c-1.629-0.144-2.574,0.713-3.2,1.961c-0.673,1.336-0.211,3.948,0.832,4.652
	c1.241,0.837,2.558,1.585,3.926,2.182c3.146,1.375,6.516,2.32,9.463,4.021c3.17,1.825,6.06,4.186,8.877,6.547
	c2.901,2.426,5.608,5.091,8.317,7.734c2.43,2.37,4.875,4.75,7.088,7.321c1.917,2.229,3.477,4.758,5.266,7.101
	c1.973,2.586,4.162,5.021,6.018,7.687c2.188,3.145,4.128,6.463,6.15,9.72c0.264,0.427,0.479,0.918,0.578,1.41
	c0.977,4.885,2.19,9.75,1.75,14.8c-0.215,2.467-0.445,4.945-0.798,7.398c-0.14,0.999-0.643,1.936-0.95,2.912
	c-0.592,1.894-1.141,3.8-1.741,5.691c-0.45,1.422-0.937,2.825-1.425,4.234c-0.908,2.635-1.764,5.285-2.774,7.88
	c-0.76,1.953-1.707,3.833-2.609,5.73c-1.17,2.448-2.189,5.001-3.626,7.282c-1.383,2.196-2.091,4.51-2.34,7.007
	c-0.369,3.649,2.409,5.978,5.926,4.851c1.753-0.563,3.438-1.453,5.021-2.409c2.252-1.362,4.401-2.901,6.562-4.41
	c1.995-1.39,3.822-3.071,5.943-4.217c5.449-2.939,9.731-7.118,13.439-11.962c0.909-1.188,1.726-2.484,2.35-3.842
	c1.349-2.94,2.361-6.046,3.851-8.903c1.693-3.247,3.675-6.352,5.692-9.406c1.553-2.354,3.208-4.673,5.085-6.771
	c2.025-2.256,4.098-4.661,6.627-6.228c3.279-2.038,7.29-2.3,11.099-2.6c3.621-0.285,7.276-0.06,10.915-0.172
	c4.302-0.136,8.502,0.493,12.552,1.833c1.269,0.42,2.486,1.52,3.31,2.618c1.041,1.388,1.511,3.189,2.49,4.638
	c1.248,1.845,2.989,3.392,5.343,3.219c1.875-0.139,3.71-0.9,5.547-1.433c1.888-0.55,3.719-1.435,5.637-1.692
	c4.475-0.595,8.986-1.216,13.487-1.247c4.857-0.032,9.729,0.499,14.579,0.971c4.236,0.41,8.447,1.056,12.667,1.625
	c3.65,0.487,7.366,0.721,10.927,1.589c4.926,1.2,9.742,2.873,14.577,4.421c0.618,0.198,1.258,0.788,1.579,1.367
	c1.114,2.021,1.577,4.215,1.659,6.545c0.055,1.536,0.261,3.164,0.869,4.544c0.497,1.128,1.59,2.627,2.592,2.773
	c1.912,0.277,3.962-0.201,5.926-0.54c1.005-0.173,1.918-0.817,2.917-1.075c2.702-0.682,5.432-1.257,8.141-1.909
	c1.106-0.271,2.264-0.479,3.271-0.969c3.65-1.793,7.591-2.065,11.523-2.154c2.307-0.057,4.621,0.447,6.939,0.629
	c1.583,0.121,3.179,0.085,4.767,0.188c1.493,0.087,2.979,0.254,4.471,0.397c0.856,0.081,1.714,0.173,2.569,0.273
	c2.256,0.277,4.507,0.627,6.773,0.822c3.46,0.299,6.937,0.414,10.39,0.746c3.721,0.362,7.417,1.184,11.137,1.283
	c6.626,0.175,13.259-0.175,19.884,0.424c5.074,0.456,10.168,0.671,15.251,1.025c3.666,0.263,7.332,0.572,11.001,0.877
	c0.82,0.064,1.646,0.146,2.459,0.288c2.032,0.356,4.06,0.745,6.087,1.146c0.752,0.148,1.488,0.385,2.239,0.566
	c2.876,0.697,4.307,3.143,5.982,5.17c1.467,1.775,2.747,3.791,3.696,5.891c2.604,5.758,2.442,11.948,2.311,18.085
	c-0.083,4.034-0.523,8.065-0.536,12.096c-0.019,5.429-0.942,10.534-3.416,15.462c-1.491,2.978-2.188,6.156,0.121,9.511
	c1.919,2.793,4.771,3.518,7.517,1.396c2.001-1.541,4.003-3.085,5.932-4.711c3.91-3.297,6.694-7.444,8.878-12.03
	c1.915-4.014,3.92-7.989,5.795-12.022c1.258-2.708,2.425-5.461,3.506-8.243c0.67-1.713,1.001-3.555,1.676-5.26
	c0.509-1.277,1.477-2.368,1.988-3.646c1.479-3.699,2.964-7.407,4.199-11.188c1.135-3.473,2.781-6.643,4.521-9.832
	c1.49-2.728,3.198-4.705,6.504-4.752c0.406-0.006,0.809-0.188,1.216-0.276c2.871-0.655,5.72-1.431,8.618-1.92
	c3.882-0.657,7.807-1.056,11.704-1.638c4.613-0.689,9.207-1.526,13.826-2.173c5.447-0.76,10.912-1.412,16.373-2.049
	c4.223-0.497,8.463-0.868,12.689-1.358c5.664-0.656,11.32-1.376,16.977-2.069c0.016,0.133,0.029,0.267,0.047,0.396
	c3.721-0.357,7.471-0.525,11.152-1.148c2.084-0.349,4.123-1.287,6.043-2.243c2.908-1.446,5.67-3.18,8.529-4.721
	c3.51-1.893,7.139-3.574,10.566-5.599c2.459-1.452,4.793-3.12,7.062-4.92c5.281-4.19,10.65-8.237,14.557-13.824
	C684.738,280.413,684.236,276.823,680.852,275.029z M197.429,295.01c1.368,0.481,0.673,0.055,1.481,0.746
	C197.539,295.275,198.237,295.703,197.429,295.01z M235.333,280.89c0.495,0,0.991,0,1.49,0
	C236.273,282.27,236.506,281.812,235.333,280.89z M272.5,286.837c0.995,0,1.986,0,2.976,0
	C274.27,287.677,273.716,287.722,272.5,286.837z M323.792,276.427c-0.494,0-0.994,0-1.489,0c0-0.988,0-1.978,0-2.971
	c0.743,0.249,1.489,0.5,2.232,0.741c-0.484,1.37-0.055,0.674-0.743,1.488C323.792,275.932,323.792,276.182,323.792,276.427z
	 M326.761,286.093c-0.244,0-0.492,0-0.743,0c0,0.249,0,0.497,0,0.744c-0.489,0-0.986,0-1.482,0c0.248-0.744,0.496-1.489,0.743-2.231
	c0.499,0.249,0.99,0.493,1.481,0.742C326.761,285.597,326.761,285.844,326.761,286.093z M333.452,274.944
	c-0.808,0.688-0.097,0.28-1.482,0.742c-0.424-1.135-0.55-1.227-0.742-2.974c0.986,0.248,1.98,0.496,2.972,0.743
	C333.717,274.826,334.146,274.132,333.452,274.944z M363.188,240.749c1.368,0.48,0.674,0.056,1.486,0.743
	C363.307,241.013,364.001,241.441,363.188,240.749z M389.206,297.24c-0.747,0-1.485,0-2.228,0c-1.006-2.266-1.538-2.923-1.494-4.457
	c1.245,0.989,2.481,1.98,3.723,2.972C389.206,296.248,389.206,296.744,389.206,297.24z M420.425,282.376c-0.249,0-0.5,0-0.744,0
	c0-0.496,0-0.993,0-1.486c0.244,0,0.495,0,0.744,0C420.425,281.384,420.425,281.88,420.425,282.376z M422.652,292.784
	c1.371,0.478,0.678,0.049,1.487,0.738C422.768,293.042,423.463,293.474,422.652,292.784z M435.292,306.16
	c-2.06-0.441-1.352,0.417-1.49-1.484c0.495,0,0.991,0,1.49,0C435.292,305.171,435.292,305.668,435.292,306.16z M439.749,251.897
	c-1.582-0.271-1.401-0.098-2.232-0.743c-0.246,0-0.487,0-0.739,0c0-0.245,0-0.497,0-0.74c0.252,0,0.493,0,0.739,0
	c0.251-0.495,0.499-0.99,0.741-1.485c0.5,0,0.995,0,1.491,0C439.749,249.918,439.749,250.91,439.749,251.897z M453.87,245.95
	c-0.493,0-0.989,0-1.483,0c0-0.493,0-0.988,0-1.482c0.494,0,0.99,0,1.483,0C453.87,244.961,453.87,245.456,453.87,245.95z
	 M473.203,237.774c0,0.252,0,0.495,0,0.746c-0.499,0-0.994,0-1.493,0c0.647-1.66,0.636-1.062,1.493-2.23
	C473.827,237.543,473.759,236.545,473.203,237.774z M499.217,362.652c-0.498,0-0.992,0-1.489,0c0.219-1.734,0.333-1.843,0.744-2.975
	c0.247,0,0.498,0,0.745,0C499.217,360.672,499.217,361.66,499.217,362.652z M511.852,289.062c0.624,1.256,0.559,0.26,0,1.489
	c0,0.249,0,0.494,0,0.743c-0.244,0-0.495,0-0.744,0C511.356,290.552,511.607,289.808,511.852,289.062z M511.852,298.729
	c0,0.25,0,0.495,0,0.745c-1.771-0.601-1.279-0.242-2.229-1.488C510.366,298.235,511.107,298.482,511.852,298.729z M511.852,381.237
	c-0.744,0-1.485,0-2.229,0c0.249-0.741,0.492-1.484,0.743-2.23c0.496,0.248,0.99,0.498,1.485,0.746
	C511.852,380.243,511.852,380.74,511.852,381.237z M514.079,326.972c-1.371,0.48-0.673,0.059-1.481,0.745c-0.251,0-0.5,0-0.746,0
	c0-1.24,0-2.477,0-3.715c0.746,0,1.485,0,2.228,0C514.079,324.991,514.079,325.982,514.079,326.972z M528.202,324.002
	c0.253,0,0.496,0,0.745,0c0-0.25,0-0.493,0-0.743c0.69,0.813,0.281,0.097,0.745,1.484
	C529.692,324.743,526.804,324.645,528.202,324.002z M546.789,298.729c0-0.743,0-1.488,0-2.23c0.248,0,0.491,0,0.742,0
	c0-0.25,0-0.499,0-0.743c1.746,0.136,2.085,0.066,2.973,0.743c0.495,0,0.99,0,1.485,0
	C551.017,298.54,549.682,298.686,546.789,298.729z M615.193,302.549c-2.025-0.485-4.102-0.98-6.176-1.478
	c-0.057-0.148-0.107-0.301-0.164-0.452c2.209-1.9,4.014-4.35,7.328-4.942C617.178,298.079,616.211,300.182,615.193,302.549z
	 M618.889,287.577c-0.244,0-0.496,0-0.738,0c0,0.248,0,0.496,0,0.747c-0.5,0-0.996,0-1.49,0c0.252-0.747,0.494-1.487,0.746-2.231
	c0.492,0.249,0.986,0.497,1.482,0.744C618.889,287.086,618.889,287.332,618.889,287.577z M644.383,296.042
	c-0.945,0.541-1.881,1.089-2.83,1.62c-2.07,1.157-4.121,2.368-6.242,3.425c-1.455,0.729-1.742,0.402-1.707-1.275
	c0.027-1.587-0.119-3.177-0.158-4.764c-0.023-0.855,0.416-1.214,1.273-1.084c3.148,0.481,6.299,0.95,9.449,1.427
	C644.238,295.606,644.311,295.826,644.383,296.042z M620.559,294.933c0.014-0.239,0.301-0.637,0.504-0.664
	c1.605-0.221,3.217-0.375,4.83-0.544c0.102,0.193,0.201,0.386,0.303,0.581c-1.729,1.434-3.461,2.865-5.193,4.299
	c-0.152-0.116-0.311-0.229-0.469-0.344C620.535,297.151,620.504,296.04,620.559,294.933z M629.65,301.225
	c-0.348,1.081-0.453,2.242-0.844,3.303c-0.162,0.44-0.863,1.061-1.203,0.998c-2.309-0.451-4.582-1.062-7.18-1.695
	c3.072-2.274,5.814-4.305,8.559-6.339C630.199,298.537,630.1,299.819,629.65,301.225z M625.121,278.493
	c0.279-1.149,0.576-2.293,0.838-3.449c0.645-2.852,4.023-3.926,6.199-2.79c2.162,1.133,4.594,1.884,5.533,4.606
	c0.787,2.277-0.104,4.62-2.387,5.413c-1.266,0.441-2.541,0.874-3.844,1.174C627.949,284.256,625.049,283.046,625.121,278.493z
	 M643.676,304.753c-1.191,1.452-2.699,2.661-4.143,3.896c-0.314,0.263-0.988,0.343-1.404,0.215
	c-1.615-0.499-3.195-1.115-5.193-1.829c4.443-2.381,8.635-4.627,12.826-6.876c0.145,0.087,0.289,0.172,0.43,0.255
	C645.369,301.872,644.721,303.472,643.676,304.753z M656.801,271.225c-0.48,1.374-0.053,0.676-0.75,1.487c0,0.248,0,0.496,0,0.743
	c-0.24,0-0.49,0-0.736,0c-0.25-0.743-0.494-1.488-0.746-2.23C655.312,271.225,656.051,271.225,656.801,271.225z M649.816,303.892
	c-0.129-0.121-0.256-0.251-0.383-0.379c0.57-2.069,1.102-4.151,1.754-6.197c0.111-0.361,0.793-0.847,1.117-0.785
	c2.215,0.422,4.396,0.971,6.586,1.493c0.139,0.03,0.242,0.174,0.617,0.454C656.436,300.788,653.072,302.244,649.816,303.892z"/>
</svg>
