<?xml version="1.0" encoding="utf-8"?>
<!-- Generator: Adobe Illustrator 16.0.0, SVG Export Plug-In . SVG Version: 6.00 Build 0)  -->
<!DOCTYPE svg PUBLIC "-//W3C//DTD SVG 1.1//EN" "http://www.w3.org/Graphics/SVG/1.1/DTD/svg11.dtd">
<svg version="1.1" id="Layer_1" xmlns="http://www.w3.org/2000/svg" xmlns:xlink="http://www.w3.org/1999/xlink" x="0px" y="0px"
	 width="800px" height="600px" viewBox="0 0 800 600" enable-background="new 0 0 800 600" xml:space="preserve">
<path fill-rule="evenodd" clip-rule="evenodd" fill="#444444" d="M669.98,286.521c-0.484-3.424-1.018-6.854-1.762-10.228
	c-1.576-7.11-3.076-14.249-5.033-21.257c-2.037-7.288-4.312-14.534-6.969-21.617c-2.594-6.911-5.721-13.63-8.758-20.367
	c-3.414-7.568-6.822-15.15-10.553-22.566c-2.6-5.162-5.859-9.986-8.613-15.076c-4.184-7.734-8.604-15.307-14.205-22.113
	c-3.973-4.828-8.076-9.549-12.123-14.317c-5.443-6.422-10.787-12.933-16.373-19.231c-2.715-3.062-5.877-5.729-8.832-8.577
	c-3.352-3.232-6.504-6.709-10.104-9.633c-3.521-2.857-7.471-5.192-11.283-7.685c-4.857-3.174-9.879-6.109-14.592-9.48
	c-2.035-1.457-5.713-1.732-5.209-5.666c0.033-0.264-0.328-0.707-0.615-0.861c-3.066-1.643-6.064-3.449-9.252-4.816
	c-6.348-2.728-12.764-5.31-19.229-7.75c-3.298-1.244-6.734-2.15-10.157-3.021c-3.417-0.871-6.887-1.545-10.348-2.239
	c-4.551-0.913-9.104-1.823-13.68-2.607c-1.731-0.296-3.791,0.647-4.896-1.624c-0.158-0.323-0.829-0.602-1.233-0.567
	c-2.86,0.238-5.541,1.288-8.604,0.862c-2.127-0.295-2.801,2.136-2.772,4.145c0.029,2.184,0.58,4.167,3.219,4.395
	c2.324,0.201,3.628,1.492,4.668,3.643c-2.129,0.769-4.011,1.787-6.006,2.106c-6.528,1.042-13.079,1.995-19.655,2.671
	c-7.061,0.728-14.154,1.107-21.235,1.631c-6.513,0.482-13.105,0.469-19.52,1.538c-10.52,1.754-20.95,4.079-31.364,6.406
	c-8.446,1.89-17.02,3.541-25.162,6.372c-10.59,3.684-20.91,8.211-31.151,12.807c-6.212,2.789-12.016,6.476-18.076,9.615
	c-7.142,3.701-14.329,7.319-21.561,10.842c-6.777,3.3-13.576,6.575-20.489,9.574c-3.409,1.48-7.097,2.443-11.446,0.139
	c2.494-3.771,4.499-7.708,7.364-10.862c2.467-2.716,6.072-4.359,8.901-6.794c5.724-4.926,12.115-8.906,19.019-11.641
	c8.15-3.229,15.421-7.976,23.192-11.824c4.074-2.021,8.259-3.941,12.585-5.309c6.691-2.115,13.537-3.753,20.335-5.523
	c3.717-0.967,7.531-1.599,11.196-2.725c6.633-2.033,13.174-4.373,20.293-3.703c0.63,0.059,1.291-0.193,1.934-0.323
	c4.683-0.954,9.332-2.133,14.055-2.8c4.145-0.586,8.411-0.314,12.547-0.934c6.934-1.035,13.786-2.6,20.715-3.695
	c3.328-0.527,6.608-0.94,9.583-2.684c3.34-1.959,4.662-6.015,2.38-7.889c-1.211-0.993-2.635-2.041-4.111-2.34
	c-4.404-0.89-8.916-1.248-13.322-2.13c-9.29-1.859-18.525,0.12-27.771,0.328c-6.798,0.153-13.605,1.315-20.339,2.45
	c-8.657,1.457-17.278,3.184-25.85,5.09c-5.735,1.275-11.453,2.779-17.002,4.69c-8.179,2.818-16.336,5.788-24.248,9.269
	c-6.094,2.68-11.899,6.073-17.654,9.455c-11.294,6.635-22.49,13.441-33.667,20.275c-2.615,1.6-5.01,3.572-7.472,5.416
	c-5.205,3.896-10.6,7.577-15.523,11.802c-5.794,4.975-11.196,10.407-16.723,15.688c-8.646,8.258-15.421,18.056-22.306,27.718
	c-4.083,5.729-7.168,12.164-11.189,17.943c-4.327,6.22-7.141,13.137-10.245,19.931c-2.608,5.706-5.038,11.483-7.299,17.356
	c-2.346,6.106-2.949,12.426-4.426,18.629c-1.357,5.714-3.306,11.287-4.653,17.006c-1.172,4.968-1.985,10.032-2.747,15.088
	c-1.362,9.033-2.532,18.096-3.887,27.131c-0.148,0.987-0.845,1.98-1.514,2.781c-0.975,1.172-2.764,1.979-1.129,3.904
	c0.154,0.18,0.078,0.812-0.114,0.985c-1.853,1.67-1.716,3.753-1.434,5.942c0.215,1.656,0.287,3.335,0.355,5.008
	c0.195,4.748,0.376,9.495,0.52,14.245c0.062,2.026-0.061,4.06,0.047,6.083c0.269,5.119,0.66,10.234,0.933,15.354
	c0.244,4.672-0.063,9.426,0.684,14.01c1.84,11.324,4.492,22.461,8.608,33.238c3.619,9.476,6.519,19.235,10.367,28.611
	c3.412,8.31,7.251,16.516,11.707,24.306c4.771,8.343,10.359,16.233,15.826,24.159c3.76,5.45,7.764,10.75,11.944,15.885
	c3.639,4.471,7.467,8.832,11.596,12.846c5.681,5.528,11.706,10.707,17.622,15.992c4.377,3.912,8.653,7.965,13.281,11.563
	c3.43,2.669,7.207,4.989,11.091,6.944c3.802,1.913,7.91,3.235,11.927,4.696c3.949,1.437,8.17,2.295,11.89,4.163
	c7.985,4.006,15.85,4.366,23.927,0.619c2.201-1.02,3.008-2.602,1.974-4.943c-0.739-1.678-1.423-3.383-2.212-5.27
	c0.727-0.107,1.105-0.272,1.421-0.193c8.88,2.216,17.495,5.525,26.685,6.458c4.909,0.498,9.81,1.333,14.725,1.403
	c5.031,0.074,9.429-3.701,9.258-7.607c-0.116-2.66-0.786-5.344-1.541-7.922c-0.811-2.76-2.009-5.405-3.037-8.102
	c0.17-0.16,0.341-0.32,0.511-0.482c2.178,2.932,5.204,3.926,8.55,4.182c5.014,0.384,10.893-2.789,11.003-6.703
	c0.096-3.418-0.933-6.99-2.073-10.283c-1.237-3.566-3.178-6.888-4.812-10.315c0.166-0.235,0.331-0.472,0.496-0.706
	c2.209,0.555,4.395,1.27,6.633,1.619c2.269,0.354,4.7,0.848,6.868,0.385c4.029-0.865,6.184-3.66,4.562-7.807
	c-1.13-2.895-1.574-6.057-2.368-9.279c0.679-0.13,1.297-0.232,1.907-0.365c2.673-0.584,5.158-1.645,5.855-4.527
	c0.494-2.051,0.777-4.352,0.372-6.384c-1.562-7.822-4.863-14.844-10.442-20.693c-1.347-1.412-2.497-3.013-3.725-4.536
	c-2.156-2.68-3.99-5.715-6.517-7.98c-5.825-5.221-11.892-10.188-18.038-15.029c-5.497-4.332-11.328-8.242-16.84-12.561
	c-6.672-5.226-13.633-10.222-18.574-17.277c-3.804-5.43-7.322-11.059-10.913-16.633c-1.724-2.674-3.649-5.285-4.895-8.177
	c-2.034-4.714-3.98-9.534-5.252-14.491c-2.243-8.758-4.182-17.612-5.776-26.51c-0.662-3.697-0.381-7.635-0.068-11.424
	c0.793-9.601,1.562-19.221,2.954-28.742c0.454-3.11,2.7-6.004,4.326-8.885c1.327-2.354,3.577-4.352,4.319-6.836
	c1.853-6.191,5.669-11.124,9.343-16.153c3.195-4.371,6.641-8.577,10.207-12.655c2.858-3.269,5.831-6.514,9.167-9.269
	c4.281-3.54,9.188-6.321,13.446-9.88c9.688-8.1,20.361-14.335,32.72-17.018c9.768-2.119,19.694-3.561,29.602-4.934
	c5.054-0.701,10.229-0.463,15.332-0.863c8.133-0.639,16.248-1.436,24.18,1.379c2.103,0.746,4.207,1.541,6.374,2.031
	c6.886,1.554,13.438,3.92,19.761,7.09c7.249,3.634,14.84,6.613,21.968,10.46c4.393,2.369,9.063,4.505,12.39,8.648
	c4.345,5.411,8.643,10.951,13.658,15.697c4.863,4.603,8.377,9.925,11.424,15.716c1.467,2.787,2.793,5.662,4.436,8.342
	c1.48,2.408,3.66,1.697,5.73,0.733c2.119-0.985,2.822-2.718,2.311-4.873c-0.605-2.545-1.254-5.097-2.137-7.552
	c-2.301-6.396-4.172-13.035-7.287-19.021c-3.207-6.164-7.687-11.666-11.596-17.467c-1.306-1.939-2.329-4.127-3.892-5.824
	c-4.18-4.536-8.37-9.104-12.951-13.219c-5.835-5.244-12.107-10-18.099-15.08c-3.066-2.6-6.11-5.271-7.243-9.431
	c-0.522-1.913,0.127-2.965,1.962-3.198c2.42-0.307,4.651-0.688,7.322-0.018c9.917,2.492,16.982,9.117,23.53,16.057
	c6.463,6.851,12.041,14.59,17.548,22.27c7.768,10.838,14.555,22.207,17.701,35.447c2.197,9.256,5.09,18.342,7.445,27.563
	c1.084,4.243,2.174,8.608,2.301,12.946c0.338,11.429-0.998,22.776-2.449,34.114c-1.119,8.764-2.99,17.159-7.994,24.636
	c-1.262,1.885-3.357,3.772-1.398,6.508c0.229,0.318-0.242,1.232-0.523,1.805c-0.615,1.252-1.393,2.428-1.967,3.697
	c-1.387,3.064-2.518,6.259-4.076,9.23c-2.863,5.459-5.836,10.873-8.998,16.166c-3.504,5.865-7.145,11.659-10.964,17.32
	c-2.652,3.933-5.864,7.486-8.563,11.389c-4.523,6.548-10.073,11.912-16.828,16.145c-2.579,1.617-4.842,3.795-7.029,5.941
	c-0.622,0.611-0.938,2.206-0.598,3.013c1.538,3.655,5.183,5.392,8.427,6.206c2.314,0.58,5.64-1.043,7.938-2.559
	c7.391-4.873,14.241-10.604,21.812-15.157c8.812-5.306,14.168-13.784,20.869-21.003c2.758-2.969,4.053-7.252,6.367-10.699
	c2.109-3.143,4.699-5.963,7.076-8.924c0.35,0.23,0.697,0.463,1.047,0.694c-1.117,2.52-2.018,5.166-3.398,7.532
	c-2.426,4.154-4.979,8.258-7.781,12.165c-3.424,4.771-6.857,9.6-10.842,13.888c-4.373,4.705-9.303,8.908-14.129,13.173
	c-4.197,3.708-8.335,7.581-12.976,10.66c-3.842,2.549-7.604,5.029-10.683,8.483c-0.526,0.594-1.328,0.979-2.057,1.352
	c-2.068,1.054-4.324,1.822-6.222,3.115c-6.596,4.496-13.071,9.173-19.602,13.771c-3.488,2.455-3.2,9.701,0.667,11.453
	c4.165,1.889,8.684,2.401,12.788,0.016c8.547-4.971,17.08-10,25.322-15.455c7.505-4.967,14.604-10.539,21.905-15.818
	c1.705-1.234,3.492-2.359,5.922-3.996c-0.463,1.363-0.488,2.011-0.822,2.33c-2.637,2.506-5.35,4.934-8.01,7.412
	c-4.005,3.73-8.01,7.463-11.968,11.242c-1.49,1.421-2.681,3.201-4.306,4.424c-4.502,3.385-9.044,6.739-13.779,9.783
	c-8.843,5.682-17.883,11.053-26.729,16.729c-2.619,1.68-5.275,3.615-7.189,6.014c-3.182,3.988-3.564,8.371,1.845,11.375
	c3.582,1.989,7.613,1.748,10.909,0.283c3.277-1.458,6.54-2.955,9.792-4.473c0.659-0.631,1.365-1.015,2.103-0.994
	c7.065-3.331,14.073-6.788,20.991-10.405c4.542-2.372,8.522-5.858,12.646-8.984c4.719-3.577,9.377-7.245,13.941-11.019
	c3.379-2.795,6.445-5.973,9.865-8.708c4.008-3.203,8.252-6.106,12.391-9.15c1.676-1.233,3.336-2.487,5.006-3.733
	c0.268,0.234,0.533,0.473,0.801,0.71c-3.395,4.615-6.428,9.562-10.281,13.756c-4.092,4.45-8.822,8.356-13.531,12.185
	c-4.766,3.875-9.861,7.344-14.783,11.029c-3.867,2.895-7.463,6.229-11.586,8.685c-5.771,3.435-9.322,8.808-13.348,13.789
	c-1.392,1.722-1.276,3.743,0.078,5.696c2.686,3.874,9.148,5.113,13.718,2.158c4.45-2.877,8.768-5.778,13.673-8.035
	c6.465-2.978,12.336-7.281,18.355-11.184c5.107-3.312,10.021-6.916,15.098-10.279c1.82-1.205,4.01-1.875,5.754-3.168
	c2.307-1.713,4.414-3.723,6.479-5.735c5.924-5.772,11.939-11.462,17.605-17.479c3.307-3.51,5.982-7.609,8.994-11.4
	c3.99-5.02,8.479-9.708,11.939-15.064c4.947-7.66,9.219-15.763,13.656-23.742c1.936-3.476,3.377-7.232,5.402-10.65
	c1.883-3.172,4.242-6.062,6.389-9.075c0.234-0.075,0.467-0.151,0.699-0.228c-0.213,2.408-0.092,4.908-0.709,7.207
	c-1.482,5.514-3.189,10.979-5.055,16.379c-1.094,3.16-2.57,6.203-4.051,9.213c-1.484,3.02-3.23,5.912-4.789,8.896
	c-1.861,3.559-3.471,7.262-5.508,10.713c-2.83,4.791-5.707,9.592-9.029,14.043c-3.094,4.141-5.08,9.137-9.49,12.312
	c-1.82,1.312-3.324,3.066-4.953,4.637c-0.266,0.258-0.443,0.604-0.652,0.916c-1.566,2.365-2.812,5.059-4.791,6.998
	c-1.924,1.885-2.389,3.776-2.539,6.286c-0.293,4.905,2.326,6.97,7.064,5.827c8.342-2.013,14.162-7.691,19.502-13.62
	c4.912-5.456,8.766-11.868,13.029-17.897c1.543-2.18,2.715-4.651,4.424-6.678c3.588-4.26,7.182-8.48,9.482-13.617
	c0.688-1.531,1.328-3.084,2.021-4.614c2.582-5.679,5.453-11.245,7.691-17.057c2.424-6.289,4.285-12.796,6.346-19.22
	c1.787-5.562,3.791-11.076,5.186-16.736c1.469-5.969,2.279-12.101,3.479-18.141c0.959-4.832,2.031-9.644,3.129-14.445
	c0.424-1.853,1.053-3.655,1.59-5.481c0.318-0.015,0.635-0.032,0.949-0.046c0.307,1.064,0.895,2.137,0.873,3.193
	c-0.127,5.865-0.152,11.75-0.688,17.584c-0.66,7.182-2.051,14.203-4.678,21.039c-2.748,7.15-4.658,14.621-7.012,21.926
	c-0.684,2.12,0.697,5.139,3.047,5.895c2.408,0.773,3.637-0.591,4.508-2.651c2.207-5.228,4.49-10.42,6.736-15.632
	c0.688-1.592,1.547-3.145,1.982-4.804c1.773-6.771,3.475-13.562,5.094-20.372c2.553-10.748,4.525-21.586,5.137-32.652
	c0.484-8.723,1.199-17.432,1.832-26.143c0.27-3.714,1.15-7.478,0.789-11.123C672.693,304.669,671.264,295.601,669.98,286.521z
	 M159.187,261.531c1.186,0.192,0.288,2.468,1.65,2.48C160.483,266.084,158.48,263.225,159.187,261.531z M169.063,263.182
	C166.817,260.676,171.573,265.441,169.063,263.182L169.063,263.182z M164.128,421.831c-0.109-7.334,9.087-2.849,13.176-2.49
	C174.513,424.822,170.138,422.332,164.128,421.831z M177.304,457.354c0.655-1.75,3.395-3.225,4.934-1.662
	C181.787,457.656,179.057,459.121,177.304,457.354z M185.536,427.603c-3.549,0.811-2.401-3.099-4.934-3.298
	c0.692-1.238,2.644-1.199,4.109-1.65C184.477,425.158,187.355,425.867,185.536,427.603z M177.304,321.018
	c2.415-2.738,7.576-1.084,10.699,0C185.61,323.742,178.613,323.771,177.304,321.018z M225.884,344.155
	c-4.536-0.752-8.602,0.354-15.649,0.825C209.844,338.133,228.969,329.067,225.884,344.155z M355.158,517.666
	c0.384,2.593-0.723,3.682-3.292,3.299C351.962,518.865,353.067,517.769,355.158,517.666z M351.866,444.136
	c1.914,3.601-5.082,5.339-6.583,8.255c-2.166,0.244-0.648-3.193-3.3-2.474C343.236,444.143,347.948,443.438,351.866,444.136z
	 M304.111,420.166c-2.261-2.695-6.649-3.24-8.24-6.597C299.338,412.051,303.905,415.732,304.111,420.166z M294.221,411.904
	C294.699,408.592,293.53,416.795,294.221,411.904L294.221,411.904z M252.231,525.928c3.659-3.195,10.324,2.238,15.641,0.825
	C264.669,533.071,255.988,529.028,252.231,525.928z M264.587,440.822c0.215-3.63,5.643-2.041,7.41-4.123
	C273.735,439.041,267.276,440.195,264.587,440.822z M385.744,166.613c-6.048,3.871-12.856,5.31-19.888,6.176
	c-2.883,0.355-5.695,1.402-8.502,2.258c-9.547,2.91-18.595,7.009-27.743,10.978c-7.219,3.132-13.693,7.204-20.264,11.289
	c-4.5,2.798-9.15,5.392-13.442,8.478c-4.146,2.983-8.125,6.271-11.808,9.811c-4.283,4.116-8.408,8.449-12.133,13.065
	c-2.785,3.45-5.018,7.396-7.159,11.306c-3.126,5.715-6.356,11.432-8.783,17.454c-2.109,5.237-3.425,10.841-4.61,16.386
	c-1.251,5.85-2.203,11.794-2.789,17.748c-0.737,7.494-1.028,15.035-1.404,22.561c-0.239,4.768-0.625,9.562-0.338,14.309
	c0.454,7.527,0.922,15.087,3.824,22.249c1.538,3.788,2.942,7.694,3.807,11.676c0.997,4.597,1.455,9.323,1.877,14.019
	c0.119,1.322-0.71,2.729-1.345,4.934c-2.534-3.584-4.9-6.521-6.8-9.733c-1.924-3.253-3.467-6.743-5.021-10.2
	c-0.942-2.092-1.689-4.288-2.352-6.489c-3.611-11.995-5.845-24.271-4.917-36.776c0.955-12.869,2.742-25.68,4.321-38.496
	c1.501-12.155,5.435-23.63,10.209-34.844c1.268-2.976,2.228-6.146,3.901-8.877c5.922-9.654,12.151-19.088,20.649-26.801
	c5.821-5.286,11.083-11.242,17.207-16.129c5.365-4.28,11.522-7.591,17.446-11.135c4.223-2.525,8.603-4.803,12.992-7.039
	c1.46-0.742,3.195-0.924,4.751-1.507c3.585-1.349,7.06-3.052,10.72-4.138c8.594-2.551,17.171-5.14,26.289-5.391
	c3.42-0.094,6.914-1.037,10.184-2.158c3.481-1.195,6.372,0.566,9.514,1.066c1.05,0.164,2.049,0.655,3.679,1.202
	C387.062,164.895,386.603,166.066,385.744,166.613z M410.329,169.819c-1.9-0.84-1.707-3.799-1.65-6.611
	C411.359,163.289,411.705,168.201,410.329,169.819z M460.552,163.208c-1.923-0.208-0.464-3.623,0-4.124
	C462.487,159.289,461.03,162.707,460.552,163.208z M538.787,404.465c1.215,0.709,1.768,2.078,1.635,4.139
	C537.66,409.453,539.148,406.035,538.787,404.465z M541.246,434.217c-0.545,0-1.098,0-1.65,0c0-0.56,0-1.104,0-1.648
	c0.553,0,1.105,0,1.65,0C541.246,433.113,541.246,433.657,541.246,434.217z M498.439,84.722c1.193-2.298,5.848-1.914,9.051-0.825
	C504.575,85.781,502.165,83.345,498.439,84.722z M508.314,82.238c2.033-0.109,3.971-0.124,4.936,0.828
	C513.242,84.331,507.15,84.885,508.314,82.238z M558.545,430.918c-1.326-3.254,3.557-0.295,3.291-2.482
	C564.215,429.578,560.453,431.359,558.545,430.918z M571.727,449.917c0.521-3.005,3.842,1.914,4.109-0.833
	C578.404,450.344,572.463,451.699,571.727,449.917z M578.311,449.084c2.34-1.898,4.963-1.361,7.414,0
	C584.674,451.611,580.859,450.684,578.311,449.084z M612.883,331.77c-4.389,0.729-6.715,1.324-9.049-0.84
	c0.154-0.928,0.824-0.456,0.824,0c1.59-1.423,2.975-3.057,3.291-5.773c2.41,0.051,1.805,3.145,4.934,2.476
	C612.883,329.006,612.883,330.386,612.883,331.77z M603.834,254.102C604.002,251.629,607.25,254.888,603.834,254.102
	L603.834,254.102z M624.635,336.721c-0.668-1.947-1.527-3.857-1.957-5.857c-0.617-2.893-1.078-5.84-1.322-8.788
	c-0.379-4.601-0.285-9.249-0.816-13.828c-0.779-6.758-1.838-13.489-2.943-20.202c-1.27-7.715-2.592-15.426-4.146-23.086
	c-0.699-3.447-1.914-6.803-3.08-10.137c-2.305-6.596-4.428-13.281-7.186-19.688c-4.234-9.838-8.84-19.524-13.525-29.16
	c-1.074-2.21-3.264-3.847-4.68-5.924c-2.613-3.84-4.723-8.057-7.605-11.667c-4.354-5.449-9.182-10.519-13.818-15.739
	c-4.092-4.605-8.125-9.27-12.328-13.771c-2.418-2.592-5.088-4.955-7.709-7.352c-4.605-4.212-9.279-8.343-13.883-12.555
	c-5.582-5.104-11.137-10.24-16.66-15.406c-1.054-0.983-1.915-2.172-3.114-3.551c4.067-0.764,7.376-0.694,10.737,1.196
	c8.76,4.929,17.115,10.349,24.559,17.182c2.588,2.376,5.908,3.938,8.752,6.063c1.615,1.203,3.033,2.715,4.389,4.225
	c7.297,8.127,14.613,16.244,21.795,24.475c6.791,7.783,12.6,16.236,17.113,25.578c2.068,4.279,4.766,8.252,6.885,12.512
	c5.521,11.099,10.424,22.441,14.834,34.067c3.967,10.465,5.799,21.314,8.061,32.09c1.234,5.866,0.916,12.06,1.289,18.104
	c0.279,4.493,0.766,8.982,0.77,13.477c0.01,6.887-0.078,13.793-0.621,20.654c-0.191,2.412-1.84,4.708-2.824,7.057
	C625.277,336.7,624.957,336.711,624.635,336.721z M628.531,354.082c-2.039-0.132-0.234-2.798,0-3.312
	c0.672,0.439,1.342,0.854,2.475,0.822C631.33,353.574,627.252,351.135,628.531,354.082z"/>
</svg>
