<?xml version="1.0" encoding="utf-8"?>
<!-- Generator: Adobe Illustrator 16.0.0, SVG Export Plug-In . SVG Version: 6.00 Build 0)  -->
<!DOCTYPE svg PUBLIC "-//W3C//DTD SVG 1.1//EN" "http://www.w3.org/Graphics/SVG/1.1/DTD/svg11.dtd">
<svg version="1.1" id="Layer_1" xmlns="http://www.w3.org/2000/svg" xmlns:xlink="http://www.w3.org/1999/xlink" x="0px" y="0px"
	 width="800px" height="600px" viewBox="0 0 800 600" enable-background="new 0 0 800 600" xml:space="preserve">
<path fill-rule="evenodd" clip-rule="evenodd" fill="#444444" d="M615.984,289.218c-0.388-2.739-0.814-5.483-1.41-8.183
	c-1.26-5.688-2.461-11.399-4.026-17.005c-1.629-5.831-3.449-11.628-5.574-17.294c-2.075-5.529-4.577-10.904-7.007-16.294
	c-2.73-6.055-5.457-12.121-8.442-18.054c-2.079-4.129-4.687-7.989-6.891-12.061c-3.347-6.188-6.883-12.245-11.364-17.69
	c-3.178-3.863-6.461-7.64-9.697-11.454c-4.355-5.138-8.631-10.346-13.1-15.385c-2.172-2.45-4.701-4.583-7.064-6.862
	c-2.682-2.586-5.203-5.367-8.083-7.706c-2.817-2.286-5.978-4.154-9.026-6.147c-3.887-2.539-7.904-4.888-11.674-7.585
	c-1.629-1.165-4.57-1.386-4.167-4.532c0.026-0.211-0.263-0.566-0.493-0.689c-2.452-1.314-4.852-2.759-7.4-3.854
	c-5.078-2.182-10.211-4.247-15.383-6.199c-2.639-0.995-5.388-1.721-8.126-2.418c-2.733-0.696-5.51-1.235-8.278-1.791
	c-3.641-0.73-7.283-1.459-10.943-2.086c-1.386-0.236-3.033,0.519-3.917-1.299c-0.126-0.259-0.663-0.481-0.986-0.454
	c-2.288,0.19-4.433,1.03-6.884,0.689c-1.701-0.235-2.24,1.709-2.218,3.315c0.023,1.747,0.464,3.334,2.575,3.517
	c1.859,0.16,2.902,1.193,3.734,2.914c-1.703,0.614-3.209,1.43-4.805,1.685c-5.223,0.834-10.464,1.597-15.725,2.137
	c-5.648,0.582-11.323,0.886-16.988,1.305c-5.21,0.386-10.484,0.375-15.615,1.23c-8.416,1.403-16.761,3.264-25.092,5.125
	c-6.757,1.512-13.615,2.833-20.13,5.098c-8.472,2.947-16.728,6.568-24.921,10.245c-4.97,2.231-9.612,5.181-14.461,7.692
	c-5.713,2.961-11.463,5.855-17.248,8.674c-5.422,2.64-10.861,5.26-16.392,7.659c-2.728,1.185-5.678,1.954-9.157,0.111
	c1.995-3.018,3.6-6.167,5.892-8.69c1.974-2.173,4.857-3.487,7.121-5.436c4.579-3.94,9.692-7.124,15.215-9.312
	c6.521-2.583,12.337-6.381,18.554-9.46c3.26-1.616,6.607-3.153,10.068-4.247c5.353-1.692,10.829-3.002,16.268-4.418
	c2.974-0.774,6.025-1.279,8.957-2.18c5.307-1.627,10.539-3.499,16.234-2.963c0.504,0.047,1.033-0.155,1.547-0.259
	c3.746-0.763,7.466-1.706,11.244-2.24c3.315-0.469,6.729-0.251,10.037-0.746c5.547-0.828,11.029-2.08,16.572-2.956
	c2.662-0.422,5.286-0.753,7.666-2.147c2.672-1.567,3.729-4.812,1.904-6.311c-0.969-0.795-2.108-1.633-3.289-1.872
	c-3.523-0.712-7.133-0.998-10.658-1.704c-7.432-1.487-14.82,0.096-22.217,0.263c-5.438,0.123-10.885,1.053-16.271,1.96
	c-6.926,1.166-13.822,2.547-20.68,4.072c-4.588,1.021-9.162,2.223-13.602,3.752c-6.543,2.255-13.068,4.631-19.398,7.415
	c-4.875,2.144-9.52,4.858-14.123,7.563c-9.035,5.309-17.992,10.754-26.934,16.221c-2.093,1.28-4.008,2.857-5.978,4.333
	c-4.164,3.117-8.479,6.062-12.419,9.441c-4.635,3.979-8.957,8.326-13.378,12.55c-6.917,6.606-12.337,14.444-17.845,22.174
	c-3.267,4.583-5.734,9.731-8.951,14.355c-3.462,4.976-5.713,10.509-8.196,15.944c-2.087,4.564-4.03,9.187-5.839,13.886
	c-1.877,4.885-2.359,9.94-3.541,14.902c-1.086,4.571-2.645,9.03-3.723,13.604c-0.938,3.975-1.588,8.026-2.197,12.07
	c-1.09,7.227-2.026,14.477-3.109,21.705c-0.119,0.79-0.676,1.584-1.211,2.225c-0.78,0.938-2.211,1.583-0.903,3.124
	c0.123,0.144,0.062,0.65-0.092,0.788c-1.481,1.336-1.372,3.003-1.146,4.754c0.172,1.325,0.229,2.668,0.284,4.007
	c0.156,3.798,0.301,7.596,0.416,11.396c0.05,1.621-0.049,3.248,0.037,4.866c0.215,4.096,0.528,8.188,0.746,12.283
	c0.195,3.737-0.051,7.541,0.547,11.208c1.472,9.059,3.594,17.969,6.887,26.59c2.896,7.581,5.215,15.389,8.294,22.89
	c2.729,6.647,5.801,13.212,9.365,19.444c3.816,6.675,8.288,12.986,12.661,19.327c3.008,4.36,6.211,8.601,9.556,12.708
	c2.911,3.576,5.974,7.065,9.276,10.276c4.545,4.423,9.365,8.565,14.098,12.794c3.502,3.13,6.923,6.372,10.625,9.251
	c2.744,2.135,5.766,3.991,8.873,5.556c3.041,1.53,6.328,2.588,9.541,3.757c3.159,1.149,6.536,1.836,9.512,3.33
	c6.389,3.205,12.68,3.493,19.142,0.496c1.761-0.816,2.406-2.082,1.579-3.955c-0.592-1.343-1.139-2.706-1.77-4.216
	c0.581-0.086,0.884-0.218,1.137-0.154c7.104,1.772,13.996,4.42,21.348,5.166c3.927,0.398,7.848,1.066,11.779,1.123
	c4.025,0.059,7.543-2.961,7.406-6.086c-0.093-2.129-0.629-4.275-1.232-6.338c-0.648-2.208-1.607-4.324-2.43-6.481
	c0.136-0.128,0.272-0.256,0.408-0.386c1.742,2.346,4.163,3.141,6.84,3.346c4.011,0.307,8.714-2.231,8.803-5.362
	c0.076-2.734-0.746-5.593-1.659-8.228c-0.989-2.853-2.542-5.51-3.849-8.252c0.133-0.188,0.265-0.377,0.396-0.564
	c1.768,0.443,3.516,1.016,5.307,1.295c1.814,0.283,3.76,0.679,5.494,0.308c3.224-0.692,4.947-2.928,3.65-6.245
	c-0.904-2.315-1.26-4.846-1.895-7.424c0.543-0.104,1.037-0.186,1.525-0.292c2.139-0.467,4.127-1.315,4.685-3.621
	c0.396-1.641,0.622-3.481,0.298-5.107c-1.25-6.258-3.891-11.875-8.354-16.555c-1.077-1.13-1.997-2.41-2.979-3.629
	c-1.725-2.144-3.192-4.572-5.213-6.385c-4.66-4.176-9.514-8.149-14.431-12.023c-4.397-3.466-9.062-6.594-13.472-10.048
	c-5.338-4.181-10.906-8.178-14.859-13.822c-3.043-4.344-5.858-8.847-8.73-13.307c-1.379-2.139-2.92-4.228-3.916-6.541
	c-1.627-3.771-3.185-7.627-4.201-11.593c-1.795-7.007-3.346-14.09-4.621-21.208c-0.53-2.958-0.305-6.107-0.055-9.139
	c0.634-7.681,1.249-15.377,2.363-22.994c0.363-2.488,2.16-4.803,3.461-7.107c1.062-1.883,2.861-3.481,3.455-5.469
	c1.482-4.953,4.535-8.899,7.475-12.923c2.556-3.497,5.312-6.862,8.165-10.124c2.287-2.615,4.665-5.211,7.334-7.415
	c3.425-2.832,7.35-5.057,10.757-7.904c7.75-6.479,16.289-11.468,26.176-13.613c7.814-1.696,15.756-2.85,23.682-3.947
	c4.043-0.562,8.183-0.37,12.266-0.691c6.506-0.511,12.998-1.148,19.344,1.104c1.682,0.597,3.365,1.233,5.099,1.625
	c5.509,1.243,10.75,3.136,15.809,5.672c5.8,2.907,11.872,5.291,17.574,8.368c3.515,1.896,7.251,3.604,9.912,6.919
	c3.476,4.329,6.914,8.761,10.927,12.558c3.891,3.682,6.701,7.94,9.138,12.572c1.174,2.23,2.235,4.53,3.55,6.674
	c1.184,1.927,2.928,1.357,4.584,0.587c1.695-0.788,2.258-2.174,1.848-3.898c-0.483-2.036-1.002-4.077-1.709-6.042
	c-1.841-5.116-3.338-10.428-5.829-15.217c-2.566-4.932-6.149-9.333-9.276-13.974c-1.045-1.552-1.863-3.302-3.113-4.659
	c-3.344-3.629-6.696-7.282-10.361-10.575c-4.668-4.195-9.686-8-14.479-12.063c-2.453-2.08-4.889-4.217-5.795-7.545
	c-0.418-1.53,0.102-2.372,1.569-2.559c1.937-0.245,3.722-0.55,5.858-0.014c7.934,1.993,13.586,7.293,18.824,12.845
	c5.17,5.48,9.633,11.672,14.038,17.816c6.214,8.67,11.644,17.766,14.16,28.357c1.759,7.404,4.072,14.674,5.956,22.051
	c0.867,3.395,1.74,6.887,1.842,10.356c0.27,9.144-0.799,18.222-1.96,27.292c-0.896,7.011-2.393,13.728-6.396,19.709
	c-1.01,1.508-2.686,3.018-1.118,5.206c0.183,0.255-0.194,0.985-0.419,1.443c-0.492,1.002-1.114,1.942-1.574,2.958
	c-1.109,2.451-2.014,5.007-3.261,7.384c-2.29,4.368-4.669,8.699-7.198,12.934c-2.803,4.691-5.715,9.327-8.771,13.856
	c-2.122,3.146-4.691,5.988-6.851,9.11c-3.619,5.238-8.059,9.529-13.463,12.916c-2.063,1.293-3.873,3.035-5.623,4.753
	c-0.498,0.489-0.75,1.765-0.479,2.41c1.23,2.924,4.146,4.313,6.741,4.965c1.852,0.464,4.512-0.835,6.351-2.047
	c5.912-3.898,11.393-8.483,17.449-12.126c7.049-4.244,11.334-11.027,16.695-16.802c2.206-2.376,3.242-5.802,5.094-8.56
	c1.688-2.515,3.759-4.771,5.66-7.14c0.279,0.185,0.558,0.371,0.837,0.556c-0.894,2.016-1.613,4.133-2.718,6.025
	c-1.94,3.324-3.982,6.606-6.225,9.732c-2.739,3.817-5.486,7.68-8.675,11.11c-3.498,3.764-7.441,7.127-11.302,10.538
	c-3.358,2.967-6.668,6.064-10.381,8.528c-3.073,2.039-6.083,4.023-8.546,6.787c-0.421,0.475-1.062,0.782-1.646,1.081
	c-1.654,0.843-3.459,1.457-4.978,2.492c-5.276,3.597-10.457,7.338-15.681,11.017c-2.791,1.965-2.561,7.761,0.533,9.163
	c3.332,1.511,6.947,1.921,10.23,0.012c6.838-3.976,13.664-8,20.258-12.363c6.004-3.974,11.684-8.432,17.523-12.655
	c1.365-0.987,2.794-1.888,4.738-3.196c-0.371,1.09-0.391,1.608-0.658,1.863c-2.109,2.005-4.279,3.947-6.408,5.931
	c-3.203,2.984-6.407,5.97-9.573,8.993c-1.192,1.137-2.145,2.562-3.444,3.539c-3.602,2.708-7.235,5.392-11.023,7.826
	c-7.074,4.546-14.307,8.843-21.383,13.384c-2.096,1.344-4.221,2.892-5.752,4.811c-2.545,3.19-2.852,6.696,1.476,9.1
	c2.866,1.592,6.091,1.398,8.728,0.227c2.622-1.166,5.232-2.364,7.834-3.578c0.527-0.505,1.092-0.812,1.682-0.795
	c5.652-2.665,11.259-5.431,16.793-8.324c3.634-1.897,6.818-4.687,10.116-7.188c3.774-2.862,7.502-5.796,11.153-8.814
	c2.703-2.236,5.155-4.778,7.893-6.967c3.205-2.562,6.602-4.886,9.912-7.32c1.34-0.986,2.669-1.99,4.004-2.987
	c0.214,0.188,0.428,0.379,0.642,0.568c-2.716,3.692-5.143,7.649-8.226,11.005c-3.273,3.561-7.058,6.685-10.824,9.747
	c-3.812,3.101-7.89,5.875-11.827,8.824c-3.094,2.315-5.97,4.983-9.269,6.947c-4.617,2.748-7.458,7.046-10.678,11.031
	c-1.113,1.378-1.021,2.995,0.062,4.558c2.148,3.099,7.318,4.09,10.974,1.727c3.561-2.302,7.015-4.623,10.938-6.429
	c5.172-2.382,9.869-5.825,14.684-8.947c4.086-2.649,8.018-5.532,12.078-8.223c1.456-0.964,3.209-1.5,4.604-2.534
	c1.846-1.371,3.531-2.979,5.184-4.589c4.738-4.618,9.551-9.17,14.084-13.983c2.645-2.808,4.785-6.088,7.195-9.12
	c3.191-4.016,6.783-7.767,9.551-12.052c3.959-6.128,7.375-12.61,10.926-18.994c1.548-2.78,2.701-5.786,4.322-8.52
	c1.505-2.538,3.393-4.85,5.11-7.261c0.188-0.061,0.374-0.121,0.56-0.182c-0.17,1.926-0.073,3.926-0.567,5.766
	c-1.187,4.411-2.552,8.783-4.044,13.103c-0.875,2.528-2.057,4.963-3.24,7.37c-1.188,2.416-2.584,4.73-3.831,7.118
	c-1.489,2.847-2.776,5.809-4.407,8.569c-2.264,3.833-4.564,7.674-7.223,11.234c-2.475,3.313-4.064,7.31-7.592,9.851
	c-1.457,1.05-2.66,2.453-3.963,3.709c-0.213,0.206-0.355,0.483-0.521,0.733c-1.254,1.892-2.25,4.047-3.834,5.599
	c-1.538,1.507-1.91,3.021-2.03,5.028c-0.234,3.925,1.86,5.576,5.651,4.662c6.674-1.61,11.33-6.153,15.602-10.896
	c3.93-4.364,7.013-9.494,10.424-14.317c1.234-1.744,2.172-3.722,3.539-5.343c2.87-3.407,5.744-6.784,7.585-10.894
	c0.55-1.226,1.062-2.468,1.618-3.691c2.064-4.543,4.362-8.996,6.152-13.646c1.938-5.031,3.428-10.236,5.077-15.376
	c1.429-4.45,3.032-8.86,4.147-13.389c1.176-4.775,1.824-9.681,2.783-14.513c0.768-3.865,1.625-7.715,2.503-11.557
	c0.339-1.481,0.843-2.924,1.272-4.385c0.254-0.012,0.507-0.025,0.76-0.036c0.244,0.852,0.715,1.709,0.697,2.554
	c-0.102,4.692-0.121,9.4-0.55,14.067c-0.528,5.745-1.64,11.362-3.741,16.832c-2.199,5.72-3.727,11.696-5.609,17.54
	c-0.547,1.696,0.557,4.111,2.438,4.716c1.926,0.619,2.908-0.473,3.605-2.121c1.766-4.182,3.592-8.336,5.389-12.506
	c0.55-1.273,1.238-2.516,1.586-3.843c1.42-5.417,2.78-10.85,4.076-16.298c2.042-8.599,3.619-17.269,4.109-26.122
	c0.387-6.978,0.958-13.944,1.465-20.914c0.216-2.971,0.92-5.981,0.631-8.898C618.154,303.735,617.011,296.48,615.984,289.218z
	 M207.35,269.225c0.948,0.154,0.23,1.975,1.32,1.984C208.387,272.867,206.784,270.58,207.35,269.225z M215.251,270.545
	C213.454,268.541,217.259,272.354,215.251,270.545L215.251,270.545z M211.303,397.465c-0.088-5.867,7.27-2.279,10.54-1.992
	C219.61,399.857,216.11,397.865,211.303,397.465z M221.843,425.883c0.524-1.4,2.716-2.58,3.947-1.33
	C225.43,426.125,223.245,427.297,221.843,425.883z M228.429,402.082c-2.839,0.648-1.921-2.479-3.946-2.639
	c0.554-0.99,2.114-0.959,3.287-1.32C227.581,400.127,229.885,400.693,228.429,402.082z M221.843,316.814
	c1.933-2.191,6.062-0.867,8.56,0C228.488,318.994,222.891,319.018,221.843,316.814z M260.707,335.324
	c-3.629-0.602-6.881,0.283-12.52,0.66C247.875,330.506,263.175,323.254,260.707,335.324z M364.127,474.133
	c0.307,2.074-0.578,2.945-2.634,2.639C361.569,475.092,362.454,474.215,364.127,474.133z M361.493,415.309
	c1.531,2.881-4.065,4.271-5.267,6.604c-1.732,0.195-0.519-2.555-2.64-1.979C354.589,415.314,358.358,414.75,361.493,415.309z
	 M323.289,396.133c-1.809-2.156-5.319-2.592-6.592-5.277C319.471,389.641,323.124,392.586,323.289,396.133z M315.377,389.523
	C315.76,386.873,314.824,393.436,315.377,389.523L315.377,389.523z M281.785,480.742c2.928-2.557,8.26,1.791,12.513,0.66
	C291.735,486.457,284.791,483.223,281.785,480.742z M291.67,412.658c0.172-2.904,4.514-1.633,5.928-3.299
	C298.988,411.232,293.821,412.156,291.67,412.658z M388.596,193.291c-4.839,3.097-10.285,4.247-15.91,4.94
	c-2.307,0.284-4.557,1.121-6.802,1.806c-7.638,2.328-14.876,5.607-22.194,8.782c-5.775,2.506-10.955,5.764-16.211,9.031
	c-3.601,2.238-7.32,4.313-10.754,6.782c-3.317,2.387-6.5,5.018-9.446,7.849c-3.427,3.293-6.727,6.76-9.706,10.452
	c-2.229,2.761-4.015,5.916-5.728,9.045c-2.501,4.571-5.085,9.146-7.026,13.963c-1.688,4.189-2.74,8.673-3.688,13.108
	c-1.001,4.68-1.763,9.436-2.231,14.198c-0.59,5.996-0.822,12.028-1.123,18.049c-0.191,3.814-0.5,7.65-0.271,11.447
	c0.363,6.021,0.737,12.069,3.06,17.799c1.23,3.03,2.354,6.155,3.045,9.341c0.798,3.677,1.164,7.459,1.502,11.215
	c0.095,1.058-0.568,2.183-1.076,3.947c-2.027-2.868-3.92-5.217-5.439-7.787c-1.539-2.603-2.773-5.395-4.018-8.16
	c-0.754-1.674-1.352-3.431-1.881-5.191c-2.89-9.596-4.676-19.417-3.934-29.421c0.764-10.296,2.193-20.544,3.457-30.797
	c1.2-9.725,4.348-18.904,8.167-27.875c1.014-2.381,1.782-4.917,3.121-7.102c4.737-7.724,9.721-15.271,16.52-21.441
	c4.657-4.229,8.866-8.993,13.766-12.903c4.292-3.424,9.218-6.072,13.957-8.907c3.378-2.021,6.882-3.843,10.394-5.631
	c1.168-0.595,2.557-0.739,3.801-1.206c2.868-1.079,5.647-2.441,8.576-3.311c6.875-2.04,13.736-4.111,21.031-4.312
	c2.735-0.075,5.531-0.83,8.146-1.728c2.785-0.956,5.098,0.454,7.611,0.854c0.84,0.132,1.639,0.524,2.942,0.962
	C389.65,191.916,389.282,192.854,388.596,193.291z M408.264,195.855c-1.521-0.672-1.366-3.039-1.32-5.289
	C409.088,190.631,409.364,194.561,408.264,195.855z M448.441,190.566c-1.538-0.166-0.371-2.898,0-3.299
	C449.99,187.432,448.824,190.166,448.441,190.566z M511.029,383.572c0.973,0.566,1.414,1.662,1.309,3.311
	C510.128,387.562,511.318,384.828,511.029,383.572z M512.997,407.373c-0.437,0-0.878,0-1.32,0c0-0.447,0-0.883,0-1.318
	c0.442,0,0.884,0,1.32,0C512.997,406.49,512.997,406.926,512.997,407.373z M478.752,127.777c0.954-1.838,4.678-1.531,7.24-0.66
	C483.66,128.625,481.732,126.676,478.752,127.777z M486.651,125.791c1.627-0.088,3.176-0.1,3.948,0.662
	C490.593,127.465,485.721,127.908,486.651,125.791z M526.835,404.734c-1.06-2.604,2.846-0.236,2.634-1.986
	C531.371,403.662,528.362,405.088,526.835,404.734z M537.381,419.934c0.418-2.404,3.074,1.531,3.287-0.666
	C542.724,420.275,537.971,421.359,537.381,419.934z M542.647,419.268c1.873-1.52,3.971-1.09,5.933,0
	C547.738,421.289,544.687,420.547,542.647,419.268z M570.307,325.416c-3.512,0.582-5.372,1.059-7.24-0.672
	c0.124-0.742,0.659-0.365,0.659,0c1.272-1.139,2.38-2.445,2.634-4.619c1.928,0.041,1.443,2.516,3.947,1.98
	C570.307,323.205,570.307,324.309,570.307,325.416z M563.066,263.281C563.201,261.303,565.8,263.91,563.066,263.281L563.066,263.281
	z M579.708,329.377c-0.534-1.559-1.223-3.086-1.565-4.687c-0.494-2.313-0.863-4.672-1.059-7.03
	c-0.303-3.681-0.229-7.399-0.652-11.062c-0.624-5.406-1.471-10.791-2.355-16.162c-1.016-6.172-2.073-12.34-3.316-18.468
	c-0.561-2.758-1.532-5.442-2.465-8.11c-1.844-5.276-3.542-10.624-5.748-15.75c-3.388-7.87-7.072-15.619-10.82-23.328
	c-0.859-1.768-2.611-3.077-3.744-4.739c-2.09-3.071-3.777-6.445-6.084-9.333c-3.482-4.359-7.346-8.415-11.056-12.592
	c-3.273-3.685-6.499-7.415-9.861-11.017c-1.936-2.073-4.071-3.965-6.168-5.882c-3.684-3.369-7.423-6.674-11.105-10.043
	c-4.466-4.084-8.909-8.192-13.329-12.325c-0.842-0.787-1.531-1.737-2.49-2.841c3.254-0.611,5.9-0.556,8.589,0.957
	c7.009,3.943,13.692,8.279,19.646,13.745c2.071,1.901,4.728,3.15,7.003,4.851c1.292,0.963,2.426,2.172,3.51,3.38
	c5.838,6.502,11.691,12.995,17.437,19.58c5.433,6.227,10.08,12.988,13.69,20.462c1.655,3.424,3.812,6.602,5.508,10.01
	c4.418,8.879,8.34,17.953,11.867,27.254c3.174,8.372,4.639,17.052,6.449,25.672c0.986,4.693,0.732,9.647,1.031,14.483
	c0.223,3.595,0.611,7.187,0.615,10.781c0.008,5.51-0.062,11.035-0.497,16.523c-0.153,1.93-1.473,3.767-2.26,5.646
	C580.222,329.36,579.965,329.369,579.708,329.377z M582.825,343.266c-1.632-0.105-0.188-2.238,0-2.65
	c0.537,0.352,1.072,0.684,1.979,0.658C585.064,342.859,581.801,340.908,582.825,343.266z"/>
</svg>
