<?xml version="1.0" encoding="utf-8"?>
<!-- Generator: Adobe Illustrator 16.0.0, SVG Export Plug-In . SVG Version: 6.00 Build 0)  -->
<!DOCTYPE svg PUBLIC "-//W3C//DTD SVG 1.1//EN" "http://www.w3.org/Graphics/SVG/1.1/DTD/svg11.dtd">
<svg version="1.1" id="Layer_1" xmlns="http://www.w3.org/2000/svg" xmlns:xlink="http://www.w3.org/1999/xlink" x="0px" y="0px"
	 width="800px" height="50px" viewBox="-380 0 800 50" enable-background="new -380 0 800 50" xml:space="preserve">
<g>
	<path fill="#FFFFFF" d="M34.294,39.154l-0.022-0.021c0,0.007,0,0.015,0,0.021C34.279,39.154,34.287,39.154,34.294,39.154z"/>
	<path fill="#FFFFFF" d="M2.195,21.295c0,3.56,0,7.084,0,10.691c1.166,0,2.337,0,3.508,0c0-3.563,0-7.128,0-10.691
		C4.549,21.295,3.397,21.295,2.195,21.295z"/>
	<path fill="#FFFFFF" d="M5.703,31.986c0,0.008,0,0.016,0,0.023l0.002-0.002c0.006,0,0.013,0,0.02,0c0-0.007,0-0.015,0-0.021
		C5.717,31.986,5.71,31.986,5.703,31.986z"/>
	<path fill="#FFFFFF" d="M34.294,39.152c0-0.007,0-0.013,0-0.02c-0.007,0-0.015,0-0.022,0L34.294,39.152z"/>
	<path fill="#FFFFFF" d="M34.294,17.725c0,7.136,0,14.273,0,21.408c1.155,0,2.31,0,3.511,0c0-7.131,0-14.227,0-21.408
		C36.637,17.725,35.467,17.725,34.294,17.725z"/>
	<path fill="#FFFFFF" d="M34.271,33.35V17.725c0.008,0,0.016,0,0.022,0c0-0.007,0-0.015,0-0.021c-0.007,0-0.015,0-0.022,0
		c0-0.236,0-0.475,0-0.711c0-0.921,0-1.847,0-2.822c-2.367,0-4.705,0-7.11,0c0-3.598,0-7.123,0-10.731c-1.239,0-2.41,0-3.58,0V3.417
		c-0.007,0-0.015,0-0.022,0C23.562,2.277,23.566,1.139,23.57,0c-2.381,0-4.762,0-7.144,0c0.005,4.71,0.009,9.421,0.014,14.131
		c-0.007,0-0.015,0-0.022,0c0,0.007,0,0.015,0,0.021c0.007,0,0.015,0,0.022,0v2.84h-0.022c0-0.97,0-1.909,0-2.84
		c-2.341,0-4.68,0-7.095,0c0,1.167,0,2.314,0,3.538c-1.221,0-2.37,0-3.597,0c0,1.242,0,2.414,0,3.583c-0.008,0-0.016,0-0.023,0
		l0.017,0.016l-0.017-0.014c0,0.007,0,0.013,0,0.02c0.008,0,0.016,0,0.023,0v10.691h3.012v0.021c-1.036,0-2.03,0-3.014,0
		c0,1.155,0,2.311,0,3.553c1.025,0,2.019,0,3.014,0v0.021h0.537c0.007,0,0.014,0,0.021,0c0,2.347,0,4.691,0,7.123
		c1.205,0,2.378,0,3.55,0c0-2.103,0-4.209,0-6.338h0.021v6.338c-0.007,0-0.015,0-0.021,0c0,0.007,0,0.014,0,0.021l-0.001,0.001
		c0.007,0,0.015,0,0.022,0c-0.004,2.425-0.009,4.849-0.013,7.273c7.144,0,14.287,0,21.43,0c-0.004-3.616-0.008-7.231-0.014-10.846
		c-0.829,0-1.667,0-2.521,0c-0.248,0-0.496,0-0.75,0v-0.021h3.271v-2.766V33.35z"/>
</g>
<g>
	<path d="M34.285,50c-0.004-3.623-0.008-7.246-0.014-10.867l0.022,0.021c-1.181,0-2.358,0-3.614,0c0,2.43,0,4.77,0,7.098
		c-4.783,0-9.486,0-14.269,0c0-1.188,0-2.34,0-3.525c-1.241,0-2.403,0-3.565,0l0.022-0.021c-0.004,2.432-0.009,4.863-0.013,7.295
		C19.999,50,27.143,50,34.285,50z"/>
	<path d="M23.559,3.438C23.562,2.292,23.566,1.146,23.57,0c-2.381,0-4.762,0-7.144,0c0.005,4.718,0.009,9.436,0.014,14.152
		l-0.022-0.021c1.179,0,2.356,0,3.606,0c0-3.613,0-7.141,0-10.715c1.233,0,2.396,0,3.557,0L23.559,3.438z"/>
	<path d="M16.44,14.152c-2.349,0-4.694,0-7.117,0c0,1.167,0,2.315,0,3.538c-1.221,0-2.37,0-3.597,0c0,1.25,0,2.429,0,3.604
		l-0.023-0.021c1.18,0,2.358,0,3.612,0c0,2.438,0,4.777,0,7.115c1.208,0,2.339,0,3.544,0c0-3.562,0-7.092,0-10.696
		c1.223,0,2.374,0,3.559,0c0-1.238,0-2.399,0-3.562L16.44,14.152z"/>
	<path d="M5.728,21.296c-1.162,0-2.322,0-3.532,0c0,3.559,0,7.083,0,10.69c1.173,0,2.352,0,3.529,0L5.703,32.01
		c0-3.578,0-7.156,0-10.734L5.728,21.296z"/>
	<path d="M9.297,35.561c0,2.354,0,4.705,0,7.145c1.213,0,2.394,0,3.572,0l-0.022,0.021c0-2.369,0-4.738,0-7.145
		c-1.247,0-2.409,0-3.571,0L9.297,35.561z"/>
	<path d="M5.725,31.986c0,1.162,0,2.324,0,3.574c1.215,0,2.395,0,3.572,0l-0.021,0.02c0-1.18,0-2.355,0-3.572
		c-1.248,0-2.409,0-3.571,0L5.725,31.986z"/>
	<path d="M34.271,17.725c0-1.161,0-2.321,0-3.555c-2.367,0-4.705,0-7.11,0c0-3.598,0-7.123,0-10.731c-1.247,0-2.425,0-3.603,0
		l0.021-0.021c0,4.75,0,9.5,0,14.286c3.629,0,7.172,0,10.714,0L34.271,17.725z"/>
	<path d="M34.271,39.133c1.162,0,2.324,0,3.533,0c0-7.131,0-14.227,0-21.408c-1.175,0-2.354,0-3.533,0l0.022-0.021
		c0,7.148,0,14.3,0,21.448L34.271,39.133z"/>
</g>
</svg>
