<?xml version="1.0" encoding="utf-8"?>
<!-- Generator: Adobe Illustrator 16.0.0, SVG Export Plug-In . SVG Version: 6.00 Build 0)  -->
<!DOCTYPE svg PUBLIC "-//W3C//DTD SVG 1.1//EN" "http://www.w3.org/Graphics/SVG/1.1/DTD/svg11.dtd">
<svg version="1.1" id="Layer_1" xmlns="http://www.w3.org/2000/svg" xmlns:xlink="http://www.w3.org/1999/xlink" x="0px" y="0px"
	 width="800px" height="50px" viewBox="0 0 800 50" enable-background="new 0 0 800 50" xml:space="preserve">
<path fill="#FFFFFF" d="M417.805,39.133c0-7.131,0-14.227,0-21.407c-1.168,0-2.34,0-3.512,0c0-0.008,0-0.016,0-0.021
	c-0.007,0-0.016,0-0.021,0c0-0.236,0-0.475,0-0.711c0-0.921,0-1.847,0-2.822c-2.367,0-4.705,0-7.11,0c0-3.598,0-7.123,0-10.73
	c-1.239,0-2.41,0-3.58,0V3.417c-0.007,0-0.015,0-0.022,0c0.004-1.14,0.008-2.277,0.012-3.417c-1.191,0-2.382,0-3.572,0v3.572h-3.568
	c0.004,3.52,0.007,7.039,0.011,10.559c-0.007,0-0.016,0-0.022,0c0,0.008,0,0.016,0,0.021c0.007,0,0.016,0,0.022,0v2.84h-0.022
	c0-0.97,0-1.909,0-2.84c-2.341,0-4.68,0-7.095,0c0,1.167,0,2.313,0,3.538c-1.221,0-2.37,0-3.597,0c0,1.242,0,2.414,0,3.583
	c-0.009,0-0.017,0-0.023,0l0.018,0.016l-0.018-0.014c0,0.007,0,0.013,0,0.02c-1.152,0-2.31,0-3.508,0c0,3.561,0,7.084,0,10.691
	c1.166,0,2.337,0,3.508,0c0,0.008,0,0.016,0,0.023l0.002-0.002c0.006,0,0.013,0,0.02,0c0,1.154,0,2.311,0,3.553
	c1.024,0,2.019,0,3.014,0v0.021h0.537c0.007,0,0.014,0,0.021,0c0,2.346,0,4.689,0,7.123c1.205,0,2.378,0,3.551,0
	c0-2.104,0-4.209,0-6.338h0.021v6.338c-0.007,0-0.015,0-0.021,0c0,0.006,0,0.014,0,0.02l-0.001,0.002c0.007,0,0.015,0,0.021,0
	c-0.004,2.424-0.009,4.85-0.013,7.273c7.144,0,14.286,0,21.43,0c-0.005-3.617-0.009-7.232-0.015-10.848c-0.496,0-1.005,0-1.51,0
	c-0.338,0-0.668,0-1.011,0c-0.248,0-0.496,0-0.75,0v-0.02h1.729l0.031,0.02c0-0.008,0-0.012,0-0.02
	C414.42,39.133,416.079,39.133,417.805,39.133z M388.738,32.008c-1.035,0-2.029,0-3.013,0c0-0.008,0-0.016,0-0.021c0,0,0,0,0.001,0
	c0.369,0,0.738,0,1.107,0h1.904V32.008z"/>
<path d="M399.989,25.011c0.007,0,0.015,0,0.021,0l-0.021-0.021C399.989,24.997,399.989,25.005,399.989,25.011z"/>
<g>
	<path d="M414.285,50c-0.004-3.623-0.008-7.246-0.014-10.867l0.021,0.021c-1.182,0-2.357,0-3.613,0c0,2.43,0,4.77,0,7.098
		c-4.783,0-9.486,0-14.27,0c0-1.188,0-2.34,0-3.525c-1.241,0-2.403,0-3.565,0l0.022-0.021c-0.005,2.434-0.01,4.863-0.014,7.295
		C399.999,50,407.143,50,414.285,50z"/>
	<path d="M403.559,3.438c0.004-1.146,0.008-2.292,0.012-3.438c-1.183,0-3.547,0-3.547,0v3.416h-3.594c0,0,0.006,7.158,0.01,10.735
		l-0.021-0.021c1.179,0,2.355,0,3.605,0c0-3.613,0-7.141,0-10.715c1.233,0,2.396,0,3.558,0L403.559,3.438z"/>
	<path d="M396.439,14.151c-2.349,0-4.693,0-7.116,0c0,1.167,0,2.315,0,3.538c-1.222,0-2.37,0-3.598,0c0,1.25,0,2.43,0,3.604
		l-0.022-0.021c1.18,0,2.357,0,3.611,0c0,2.438,0,4.776,0,7.116c1.208,0,2.339,0,3.544,0c0-3.562,0-7.093,0-10.697
		c1.224,0,2.374,0,3.56,0c0-1.237,0-2.398,0-3.562L396.439,14.151z"/>
	<path d="M385.728,21.296c-1.162,0-2.321,0-3.532,0c0,3.559,0,7.083,0,10.69c1.174,0,2.353,0,3.529,0l-0.021,0.023
		c0-3.578,0-7.156,0-10.734L385.728,21.296z"/>
	<path d="M389.297,35.561c0,2.354,0,4.705,0,7.145c1.213,0,2.394,0,3.572,0l-0.022,0.021c0-2.369,0-4.738,0-7.145
		c-1.247,0-2.409,0-3.571,0L389.297,35.561z"/>
	<path d="M385.725,31.986c0,1.162,0,2.324,0,3.574c1.215,0,2.396,0,3.572,0l-0.021,0.02c0-1.18,0-2.355,0-3.572
		c-1.248,0-2.408,0-3.57,0L385.725,31.986z"/>
	<path d="M414.271,17.725c0-1.161,0-2.321,0-3.555c-2.367,0-4.705,0-7.11,0c0-3.598,0-7.123,0-10.731c-1.247,0-2.425,0-3.603,0
		l0.021-0.021c0,4.75,0,9.5,0,14.286c3.629,0,7.172,0,10.714,0L414.271,17.725z"/>
	<path d="M414.271,39.133c1.162,0,2.324,0,3.533,0c0-7.131,0-14.227,0-21.408c-1.176,0-2.354,0-3.533,0l0.021-0.021
		c0,7.147,0,14.3,0,21.448L414.271,39.133z"/>
</g>
</svg>
