<?xml version="1.0" encoding="utf-8"?>
<!-- Generator: Adobe Illustrator 16.0.0, SVG Export Plug-In . SVG Version: 6.00 Build 0)  -->
<!DOCTYPE svg PUBLIC "-//W3C//DTD SVG 1.1//EN" "http://www.w3.org/Graphics/SVG/1.1/DTD/svg11.dtd">
<svg version="1.1" id="Layer_1" xmlns="http://www.w3.org/2000/svg" xmlns:xlink="http://www.w3.org/1999/xlink" x="0px" y="0px"
	 width="800px" height="600px" viewBox="0 0 800 600" enable-background="new 0 0 800 600" xml:space="preserve">
<g>
	<path fill-rule="evenodd" clip-rule="evenodd" fill="#444444" d="M573.511,363.072c0.443,8.613,0.87,16.942,1.297,25.229
		c0.169,0.073,0.244,0.141,0.312,0.132c3.235-0.433,6.473-0.851,9.702-1.327c0.751-0.111,0.778-0.715,0.756-1.408
		c-0.092-2.713-0.113-5.428-0.124-8.144c-0.004-1.08,0.129-2.161,0.129-3.241c0-3.292-0.011-6.586-0.084-9.879
		c-0.008-0.412-0.344-1.102-0.641-1.168c-0.846-0.189-1.751-0.179-2.63-0.148c-1.314,0.044-2.627,0.251-3.94,0.246
		C576.806,363.357,575.322,363.19,573.511,363.072z"/>
	<path fill-rule="evenodd" clip-rule="evenodd" fill="#444444" d="M640.149,387.8c0-0.772,0.039-1.566-0.007-2.354
		c-0.172-2.883-0.361-5.766-0.569-8.646c-0.108-1.477-0.368-2.949-0.379-4.426c-0.016-2.363,0.103-4.729,0.195-7.095
		c0.042-1.052-0.354-1.492-1.459-1.507c-1.809-0.022-3.615-0.207-5.424-0.297c-0.843-0.041-1.713-0.149-2.528,0
		c-1.68,0.308-2.243,0.818-2.303,2.497c-0.073,2.109,0.106,4.228,0.23,6.34c0.16,2.719,0.358,5.436,0.564,8.152
		c0.062,0.806,0.272,1.604,0.291,2.407c0.045,1.847,0.015,3.693,0.015,5.433C632.77,388.04,636.375,386.597,640.149,387.8z"/>
	<path fill-rule="evenodd" clip-rule="evenodd" fill="#444444" d="M598.539,265.395c-0.088,1.113-0.285,2.385-0.271,3.651
		c0.039,3.102,0.161,6.201,0.28,9.302c0.049,1.266,0.452,1.538,1.762,1.513c4.113-0.075,8.228-0.146,12.341-0.151
		c0.782-0.001,1.151-0.216,1.163-0.982c0.025-1.593,0.082-3.186,0.055-4.777c-0.038-2.32-0.712-4.626-0.127-6.97
		c0.104-0.408-0.078-0.882-0.069-1.323c0.014-0.659-0.309-0.813-0.907-0.789C608.065,265.053,603.364,265.218,598.539,265.395z"/>
	<path fill-rule="evenodd" clip-rule="evenodd" fill="#444444" d="M619.827,239.757c0-0.684,0.021-1.368-0.006-2.05
		c-0.053-1.459,0.507-2.162,1.947-2.147c1.486,0.017,2.97,0.21,4.458,0.28c0.378,0.017,0.796-0.066,1.143-0.223
		c1.331-0.603,2.827,0.223,2.813,1.707c-0.013,1.438-0.242,2.871-0.382,4.307c-0.068,0.716-0.116,1.435-0.223,2.145
		c-0.111,0.747-0.525,1.089-1.338,1.042c-2.108-0.12-4.232-0.074-6.325-0.312c-0.643-0.072-1.522-0.725-1.735-1.313
		c-0.385-1.062-0.35-2.273-0.49-3.423C619.736,239.765,619.782,239.76,619.827,239.757z"/>
	<path fill-rule="evenodd" clip-rule="evenodd" fill="#444444" d="M587.901,239.412c0,1.156,0.057,2.404-0.033,3.641
		c-0.027,0.39-0.391,1.014-0.702,1.083c-2.75,0.613-5.48,1.676-8.367,0.774c-0.385-0.119-0.955-0.396-1.012-0.685
		c-0.249-1.289-0.988-2.452-0.778-3.882c0.176-1.175-0.077-2.405-0.021-3.606c0.092-1.955,0.497-2.103,2.41-1.7
		c1.365,0.287,2.812,0.168,4.215,0.304c1.187,0.114,2.422,0.17,3.511,0.58c0.452,0.172,0.663,1.181,0.826,1.848
		C588.069,238.253,587.929,238.801,587.901,239.412z"/>
	<path fill-rule="evenodd" clip-rule="evenodd" fill="#444444" d="M698.407,347.5c-1.264-2.283-2.571-4.357-4.726-5.537
		c-0.158,0.415-0.012,0.192-0.407,0.589c0.255-0.583,0.188-0.554,0.285-0.647c-0.613-0.322-1.279-0.586-2.047-0.748
		c-3.041-0.644-6.079-0.723-9.086,0.209c-1.117,0.347-2.244,0.681-3.318,1.133c-1.144,0.479-2.533,0.833-3.274,1.702
		c-1.416,1.663-2.705,3.541-3.573,5.535c-1.013,2.328-1.422,4.845-0.448,7.425c0.969,2.575,2.038,5.054,4.078,6.987
		c1.155,1.091,1.661,1,2.24-0.507c0.36-0.937,0.496-1.967,0.901-2.877c0.868-1.944,1.827-3.85,2.788-5.75
		c0.54-1.065,1.324-2.036,1.694-3.151c0.343-1.032,0.739-1.72,1.802-2.191c1.536-0.68,2.494-0.351,2.966,1.314
		c0.106,0.374,0.295,0.752,0.536,1.054c1.61,2.012,3.256,3.992,4.865,6.004c0.826,1.032,1.6,2.106,2.612,3.445
		c0.632-1.181,1.24-2.074,1.614-3.057C699.263,354.86,700.543,351.365,698.407,347.5z M691.236,345.176
		c-0.309-0.022-0.615-0.045-0.921-0.067c0.012-0.152,0.022-0.306,0.033-0.46c0.307,0.022,0.613,0.045,0.921,0.067
		C691.259,344.87,691.247,345.023,691.236,345.176z"/>
	<path fill-rule="evenodd" clip-rule="evenodd" fill="#444444" d="M685.807,334.411c-1.091-3.493-2.635-6.787-4.528-9.897
		c-1.17-1.924-2.517-3.761-3.958-5.491c-0.907-1.09-2.109-1.948-3.235-2.84c-0.522-0.413-1.193-0.639-1.78-0.979
		c-1.566-0.903-3.086-1.897-4.698-2.707c-0.771-0.387-1.702-0.487-2.574-0.62c-0.61-0.09-0.997,0.186-0.9,0.924
		c0.212,1.631,0.438,3.263,0.554,4.902c0.12,1.648,0.093,3.306,0.179,4.957c0.015,0.274,0.226,0.672,0.454,0.778
		c0.648,0.302,1.387,0.411,2.029,0.722c1.371,0.663,2.804,1.272,4.027,2.157c1.088,0.786,1.96,1.885,2.871,2.896
		c1.034,1.152,2.178,2.259,2.965,3.572c1.17,1.954,2.067,4.072,2.945,5.846c2.447-0.438,4.532-0.81,6.724-1.201
		C686.455,336.244,686.096,335.339,685.807,334.411z M685.041,335.013c-0.613-0.045-1.226-0.09-1.841-0.135
		c0.012-0.154,0.022-0.307,0.034-0.461c1.147-0.221,0.741-0.24,1.841,0.135C685.063,334.706,685.053,334.858,685.041,335.013z"/>
	<path fill-rule="evenodd" clip-rule="evenodd" fill="#444444" d="M651.914,403.75c-0.174-0.777-0.191-1.637-0.55-2.315
		c-0.931-1.764-2.019-3.446-3.034-5.168c-0.253-0.428-0.355-1.036-0.718-1.294c-1.424-1.013-2.909-1.941-4.4-2.853
		c-0.679-0.415-1.4-0.788-2.147-1.058c-1.042-0.376-2.163-0.992-3.186-0.885c-2.944,0.311-5.965,0.6-8.755,1.51
		c-3.646,1.189-7.147,2.825-9.396,6.152c0.107,0.518,0.257,1,0.492,1.341c-0.033,0.46-0.066,0.918-0.101,1.377
		c-0.533,0.378-0.049-0.049-0.495,0.428c-0.74-0.135-1.27-0.291-1.692-0.436c-0.166,0.552-0.323,1.106-0.473,1.664
		c0.229,0.017,0.457,0.033,0.687,0.05c-0.36,0.828-0.063,0.418-0.528,0.889c0.012-0.154,0.022-0.308,0.034-0.461
		c-0.315-0.298-0.238-0.186-0.259-0.232c-0.241,0.905-0.475,1.812-0.74,2.71c-0.224,0.754,0.13,0.828,0.716,0.831
		c2.071,0.009,4.14,0.034,6.208,0.047c-0.049-0.057-0.098-0.098-0.147-0.159c-0.155-0.012-0.307-0.022-0.46-0.033
		c0.593-0.399,4.888-1.37,5.656-1.435c-0.004,0.942-0.035,1.323,0.105,1.634c2.364-0.004,4.729-0.006,7.091,0.021
		c1.524,0.017,3.047,0.294,4.566,0.261c3.421-0.073,6.838-0.298,10.261-0.381c0.76-0.019,1.03-0.307,1.08-0.96
		c0.031-0.402,0.006-0.811,0.006-1.214C651.793,403.771,651.854,403.761,651.914,403.75z M619.749,405.618
		c-0.827-0.358-0.417-0.06-0.887-0.528c-0.153-0.011-0.307-0.022-0.46-0.033c0.686-1.12-0.046-0.612,1.447-0.816
		C619.816,404.701,619.782,405.157,619.749,405.618z M640.753,402.992c-0.152-0.011-0.307-0.022-0.46-0.033
		c0.022-0.307,0.044-0.61,0.067-0.92c0.308,0.022,0.615,0.045,0.922,0.067C641.105,402.405,640.931,402.698,640.753,402.992z"/>
	<path fill-rule="evenodd" clip-rule="evenodd" fill="#444444" d="M584.548,406.279c0.001,0.067,0.004,0.126,0.006,0.189
		c2.3-0.069,4.612-0.259,6.953-0.451c0.003-0.051,0.007-0.102,0.011-0.152c0.102,0.043,0.203,0.085,0.304,0.127
		c1.22-0.1,2.445-0.196,3.683-0.272c-0.153-1.271-0.24-2.627-0.499-3.949c-0.199-1.019-0.565-2.018-0.954-2.984
		c-0.368-0.916-0.764-1.854-1.334-2.647c-0.617-0.857-1.509-1.513-2.179-2.338c-2.004-2.473-4.217-4.318-7.739-3.431
		c-1.243,0.312-2.566,0.305-3.85,0.456c-1.02,0.121-2.045,0.207-3.045,0.412c-0.659,0.136-1.286,0.434-1.914,0.695
		c-1.584,0.657-3.281,1.147-4.708,2.06c-1.243,0.797-2.129,2.129-3.257,3.13c-2.326,2.063-2.766,4.913-3.32,7.714
		c-0.168,0.839,0.123,1.396,1.15,1.365c1.896-0.058,3.817-0.239,5.688-0.026c4.031,0.455,8.076,0.203,12.106,0.309
		c0.567,0.015,1.135,0.019,1.703,0.014C583.662,406.304,583.717,406.347,584.548,406.279z M585.986,392.974
		c-0.358,0.826-0.061,0.414-0.529,0.886C585.82,393.033,585.521,393.443,585.986,392.974z M576.326,392.267
		c0.99-0.097,0.872,0.002,1.415-0.361c0.304,0.022,0.609,0.045,0.92,0.067c0.234,0.872,0,0.422,0.392,0.956
		c-0.033,0.459-0.067,0.919-0.101,1.377c-0.91-0.219-1.817-0.438-2.727-0.66C576.259,393.186,576.293,392.727,576.326,392.267z
		 M579.4,400.817c-0.021,0.305-0.044,0.611-0.067,0.92c-1.233-0.49-1.281-0.898-2.198-1.548c0.022-0.309,0.045-0.615,0.067-0.923
		c0.533-0.374,0.045,0.049,0.492-0.427c0.613,0.045,1.228,0.09,1.842,0.135C579.49,400.368,579.743,400.273,579.4,400.817z
		 M582.06,402.396c0.358-0.824,0.062-0.414,0.526-0.884C582.228,402.338,582.525,401.926,582.06,402.396z"/>
	<path fill-rule="evenodd" clip-rule="evenodd" fill="#444444" d="M649.548,242.602c-0.293-1.828-0.071-3.733-0.158-5.601
		c-0.028-0.63-0.281-1.26-0.496-1.868c-0.409-1.165-1-2.281-1.274-3.475c-0.62-2.675-2.418-4.723-4.483-5.949
		c-2.856-1.696-5.569-4.025-9.176-4.203c-0.235-0.012-0.462-0.146-0.698-0.195c-0.643-0.135-1.288-0.37-1.93-0.362
		c-2.807,0.029-5.612,0.22-8.416,0.184c-3.305-0.044-6.607-0.235-9.908-0.412c-2.049-0.108-4.092-0.445-6.137-0.433
		c-2.848,0.017-5.693,0.291-8.541,0.408c-5.396,0.221-10.792,0.407-16.186,0.607c-0.013-0.062-0.026-0.123-0.039-0.184
		c-1.623,0.279-3.247,0.546-4.866,0.836c-1.471,0.263-2.932,0.586-4.409,0.817c-3.023,0.473-6.136,0.668-8.777,2.438
		c-2.014,1.35-4.459,2.084-5.669,4.575c-1.018,2.093-1.743,4.241-2.133,6.455c0.275-0.305,0.86-0.366,1.454-0.277
		c-0.034,0.462-0.067,0.921-0.102,1.383c-0.533,0.374-0.047-0.051-0.492,0.425c-0.829-0.358-0.416-0.062-0.888-0.526
		c-0.043-0.097-0.061-0.178-0.083-0.262c-0.162,1.154-0.242,2.324-0.212,3.517c0.045,1.748,0.78,3.467,0.93,5.223
		c0.224,2.641,1.292,4.887,3.119,6.644c0.58,0.558,1.269,1.01,1.993,1.419c0.637-0.053,0.798-0.126,1.39-0.295
		c0.104,0.481,0.075,0.793,0.073,1.065c0.258,0.131,0.517,0.261,0.769,0.394c1.453,0.763,2.992,1.362,4.479,2.063
		c0.832,0.393,1.593,1.044,2.46,1.232c2.279,0.496,4.601,0.793,6.902,1.189c1.564,0.271,3.112,0.642,4.684,0.836
		c1.118,0.139,2.269-0.009,3.396,0.087c2.568,0.219,5.129,0.51,7.695,0.766c0.199,0.021,0.405-0.019,0.605-0.002
		c1.537,0.131,3.074,0.258,4.611,0.409c1.073,0.106,2.142,0.33,3.214,0.35c1.158,0.021,2.315-0.189,3.476-0.205
		c2.487-0.033,4.992,0.183,7.46-0.043c5.815-0.532,11.695-0.24,17.462-1.38c0.862-0.171,1.76-0.203,2.603-0.439
		c2.071-0.578,4.191-1.07,6.163-1.907c2.594-1.102,4.14-3.529,5.878-5.578c1.328-1.567,2.737-3.195,3.143-5.476
		C648.681,245.449,649.819,244.307,649.548,242.602z M567.467,254.255c-1.389-0.537-1.621-1.135-3.119-1.615
		c0.045-0.614,0.089-1.227,0.135-1.842c-0.968-0.238-0.862-0.124-1.347-0.562c-0.153-0.011-0.307-0.022-0.461-0.033
		c-0.359-0.387,0.908-0.793,0.988-0.852c0.961-0.392,0.475,1.04,1.805,0.595c0.022-0.307,0.045-0.612,0.067-0.92
		c0.626-0.108,1.251-0.217,1.875-0.324c0.195,1.555,0.388,3.11,0.584,4.666C567.53,253.841,567.816,253.418,567.467,254.255z
		 M598.321,246.173c-1.243,1.847-2.459,3.715-3.761,5.52c-0.331,0.461-0.893,0.888-1.431,1.044c-2.67,0.776-5.347,1.544-8.06,2.144
		c-2.276,0.504-4.588,0.404-6.814-0.39c-4.01-1.434-8.089-2.798-10.519-6.685c-0.522-0.836-0.803-1.838-1.12-2.786
		c-1.317-3.949-0.785-7.532,2.03-10.736c1.313-1.495,2.269-3.298,4.142-4.272c3.504-1.823,6.922-3.832,11.17-2.791
		c1.137,0.279,2.396,0.03,3.562,0.233c3.502,0.607,6.174,2.57,8.624,5.1c1.581,1.632,2.508,3.489,3.227,5.527
		c0.221,0.626,0.19,1.341,0.273,2.012C599.446,242.185,599.565,244.32,598.321,246.173z M640.984,244.152
		c-0.597,2.259-1.579,4.337-2.928,6.39c-2.656,4.037-6.586,4.767-10.729,5.365c-0.645,0.094-1.353-0.354-2.046-0.446
		c-0.64-0.085-1.348-0.186-1.94-0.007c-1.78,0.534-3.259-0.301-4.754-0.946c-1.623-0.701-3.244-1.459-4.741-2.397
		c-2.458-1.537-3.954-3.695-4.441-6.699c-0.341-2.103-0.657-4.156-0.203-6.225c0.602-2.752,1.567-5.342,3.412-7.594
		c2.753-3.359,6.4-4.619,10.526-4.905c1.262-0.089,2.535-0.079,3.797-0.004c0.812,0.048,1.585,0.283,1.838,1.285
		c0.051,0.202,0.577,0.283,0.884,0.417c0.905,0.396,1.812,0.783,2.712,1.191c0.217,0.098,0.402,0.368,0.609,0.376
		c2.576,0.109,4.032,2.399,6.26,3.223c0.629,0.232,1.154,1.156,1.421,1.877c0.435,1.184,0.618,2.459,0.839,3.396
		C641.33,240.595,641.435,242.446,640.984,244.152z"/>
	<path fill-rule="evenodd" clip-rule="evenodd" fill="#444444" d="M663.028,357.384c-0.213-2.55-0.539-5.092-0.67-7.645
		c-0.069-1.386,0.28-2.788,0.258-4.18c-0.067-4.453-0.226-8.904-0.337-13.357c-0.109-4.374-0.133-8.751-0.329-13.12
		c-0.16-3.558-0.519-7.104-0.79-10.658c0.09-0.004,0.18-0.008,0.269-0.013c0-1.331,0.034-2.663-0.007-3.992
		c-0.067-2.17-0.188-4.337-0.276-6.505c-0.053-1.322-0.073-2.646-0.139-3.965c-0.056-1.115-0.215-2.226-0.226-3.34
		c-0.015-1.883,0.059-3.767,0.084-5.65c0.021-1.33,0.289-2.642-1.979-2.283c-1.728,0.273-3.562-0.194-5.35-0.198
		c-3.637-0.009-7.276,0.081-10.915,0.112c-1.767,0.016-3.535,0.007-5.303-0.018c-1.519-0.021-3.038-0.091-4.558-0.122
		c-2.094-0.042-4.187-0.072-6.279-0.104c-2.458-0.039-4.917-0.074-7.376-0.105c-1.285-0.017-2.57-0.031-3.854-0.027
		c-0.882,0.005-1.762,0.068-2.643,0.063c-2.986-0.018-5.975-0.146-8.957-0.055c-2.704,0.082-5.401,0.408-8.104,0.603
		c-0.682,0.05-1.37-0.015-2.056,0.004c-2.4,0.069-4.799,0.178-7.199,0.224c-1.905,0.035-3.83-0.168-5.713,0.045
		c-1.988,0.225-3.904,0.004-5.842-0.272c-1.113-0.16-2.23-0.421-3.345-0.429c-2.201-0.018-4.401,0.112-6.603,0.173
		c-2.229,0.062-4.459,0.106-6.688,0.17c-2.443,0.069-4.886,0.187-7.33,0.214c-1.645,0.02-2.133,0.537-2.035,2.227
		c0.015,0.253,0.024,0.506,0.039,0.759c0.219-0.056,0.438-0.111,0.656-0.167c-0.36,0.829-0.063,0.418-0.528,0.889
		c-0.012,0.154-0.022,0.307-0.033,0.458c-0.016-0.015-0.023-0.021-0.037-0.034c0.094,1.85,0.174,3.699,0.243,5.549
		c0.055,1.51,0.035,3.021,0.089,4.532c0.088,2.486,0.197,4.974,0.318,7.459c0.028,0.595,0.155,1.184,0.211,1.778
		c0.106,1.189,0.26,2.38,0.277,3.571c0.05,3.156,0.032,6.311,0.054,9.466c0.013,1.799,0.084,3.599,0.061,5.396
		c-0.019,1.522-0.252,3.05-0.185,4.563c0.137,3.091,0.47,6.171,0.616,9.26c0.227,4.787,0.391,9.578,0.53,14.369
		c0.063,2.196,0.006,4.396-0.007,6.595c-0.005,0.701,0.31,1.042,1.02,1.045c2.818,0.006,5.639,0.054,8.459,0.025
		c2.743-0.029,5.484-0.182,8.227-0.193c4.027-0.018,8.056,0.057,12.083,0.062c1.159,0.002,2.323-0.161,3.48-0.136
		c3.026,0.066,6.05,0.235,9.074,0.285c3.023,0.048,6.046-0.011,9.068,0c1.332,0.005,2.665,0.096,3.997,0.098
		c2.978,0.007,5.957-0.008,8.935-0.032c4.764-0.038,9.529-0.101,14.292-0.128c1.091-0.007,2.18,0.086,3.269,0.142
		c2.277,0.115,4.554,0.316,6.834,0.334c2.165,0.017,4.334-0.145,6.501-0.25c5.315-0.26,10.629-0.524,15.941-0.819
		c0.281-0.017,0.754-0.305,0.78-0.515C663.103,358.832,663.088,358.1,663.028,357.384z M551.722,292.415
		c-0.459-0.033-0.921-0.067-1.379-0.101c0.688-1.121-0.047-0.614,1.447-0.819C551.767,291.803,551.745,292.109,551.722,292.415z
		 M569.797,291.89c-0.356,0.826-0.06,0.415-0.524,0.885C569.631,291.949,569.334,292.36,569.797,291.89z M566.69,283.799
		c1.061,0.401,0.985,0.552,1.773,1.054c-0.788,0.407-0.656,0.442-1.383-0.101c-0.151-0.012-0.306-0.022-0.458-0.034
		C566.646,284.412,566.668,284.104,566.69,283.799z M563.526,289.117c0.942-0.465,0.353-0.112,1.382,0.101
		c-0.177,0.296-0.353,0.593-0.528,0.886c-0.46-0.033-0.92-0.067-1.382-0.101C563.357,289.177,563.063,289.589,563.526,289.117z
		 M564.009,295.165c-0.802,0.33-0.187,0.333-0.92-0.067c-0.154-0.011-0.307-0.021-0.462-0.033
		C563.365,293.892,562.794,294.583,564.009,295.165z M561.148,296.345c-0.022,0.304-0.045,0.609-0.067,0.918
		c-0.309-0.022-0.614-0.045-0.92-0.067C560.529,295.943,559.96,296.344,561.148,296.345z M557.08,304.69
		c0.309-0.948,0.379-1.985,0.762-2.896c0.242-0.579,0.783-1.268,1.335-1.44c2.03-0.637,4.122-1.077,5.563-1.436
		c3.384,0.006,5.036,2.232,4.859,4.949c-0.146,2.217-1.24,3.621-2.905,4.645c-0.792,0.487-1.919,0.512-2.905,0.579
		c-1.21,0.084-2.438,0.062-3.644-0.056c-0.523-0.052-1.104-0.36-1.496-0.725c-0.597-0.555-1.038-1.275-1.576-1.897
		C556.555,305.815,556.884,305.293,557.08,304.69z M568.248,313.05c-0.011,0.152-0.022,0.306-0.033,0.461
		c-0.594,0.357-0.55,0.31-0.986,0.853c-0.967-0.239-0.862-0.125-1.346-0.563c-0.308-0.022-0.613-0.044-0.923-0.067
		c0.033-0.457,0.067-0.918,0.102-1.379c1.165,0.119,1.714,0.136,2.269,0.629C567.636,313.005,567.943,313.027,568.248,313.05z
		 M556.704,338.106c-0.921-0.067-1.842-0.135-2.762-0.202c0.693-1.223,1.528-1.25,3.323-1.145
		C557.079,337.209,556.892,337.656,556.704,338.106z M563.997,339.562c-0.829-0.357-0.418-0.062-0.889-0.526
		c-0.152-0.011-0.307-0.022-0.459-0.033c0.022-0.308,0.045-0.614,0.067-0.92c0.447,0.185,0.898,0.373,1.347,0.562
		C564.041,338.951,564.02,339.256,563.997,339.562z M569.933,331.15c-1.121,2.076-3.291,2.672-6.261,2.809
		c-0.835-0.15-2.338-0.394-3.827-0.7c-0.991-0.204-1.57-0.874-1.948-1.816c-1.215-3.032-0.293-5.743,1.423-8.189
		c0.467-0.663,1.721-0.861,2.658-1.095c2.554-0.641,6.849,0.951,8.294,2.994c0.135,0.192,0.344,0.397,0.355,0.606
		C570.736,327.601,570.799,329.552,569.933,331.15z M570.921,289.195c-0.532,0.378-0.049-0.049-0.494,0.427
		c-0.154-0.011-0.31-0.022-0.461-0.034c0.335-1.4,0.146-1.163,1.056-1.771C570.987,288.276,570.954,288.734,570.921,289.195z
		 M571.783,321.634c0.613,0.045,1.228,0.09,1.842,0.135c-0.034,0.461-0.067,0.921-0.101,1.38c-0.969-0.239-0.865-0.125-1.348-0.56
		c-0.155-0.012-0.307-0.022-0.461-0.034C571.738,322.247,571.761,321.94,571.783,321.634z M573.042,336.062
		c-0.438-0.338-0.878-0.679-1.314-1.021c0.021-0.304,0.045-0.61,0.066-0.917c1.197,0.164,1.549,0.306,2.269,0.629
		C573.721,335.187,573.38,335.625,573.042,336.062z M574.084,302.841c-0.767-0.057-1.532-0.112-2.3-0.169
		c0.033-0.46,0.067-0.921,0.101-1.382c1.074,0.165,1.29,0.138,1.808,0.596c0.152,0.011,0.306,0.022,0.459,0.033
		C574.13,302.225,574.106,302.532,574.084,302.841z M630.052,283.812c0.92,0.067,1.841,0.135,2.761,0.201
		c-0.176,0.295-0.354,0.591-0.528,0.887c-0.766-0.056-1.53-0.111-2.3-0.168C630.007,284.425,630.029,284.118,630.052,283.812z
		 M589.984,287.817c-0.359,0.825-0.062,0.415-0.529,0.884C589.815,287.876,589.52,288.287,589.984,287.817z M647.766,346.365
		c-3.624,0.151-7.248,0.299-10.87,0.518c-2.802,0.17-5.597,0.497-8.402,0.646c-1.467,0.079-2.948-0.12-4.424-0.108
		c-2.323,0.016-4.646,0.169-6.968,0.142c-3.145-0.038-6.288-0.242-9.433-0.282c-2.951-0.036-5.907,0.148-8.855,0.05
		c-3.217-0.109-6.425-0.442-9.639-0.655c-1.85-0.122-3.7-0.195-5.551-0.304c-0.351-0.019-0.7-0.092-0.989-0.131
		c-0.188-2.693-0.416-5.169-0.52-7.65c-0.173-4.064-0.288-8.135-0.38-12.202c-0.086-3.868-0.056-7.736-0.185-11.602
		c-0.126-3.889-0.416-7.772-0.563-11.66c-0.046-1.234,0.14-2.476,0.222-3.715c0.079-1.202,0.161-2.405,0.255-3.788
		c0.368-0.029,0.869-0.21,1.28-0.086c2.173,0.653,4.33,0.242,6.517,0.132c2.807-0.14,5.631,0.114,8.448,0.16
		c2.066,0.034,4.135-0.038,6.2,0.029c0.999,0.032,1.988,0.378,2.988,0.402c1.529,0.037,3.062-0.091,4.596-0.132
		c2.479-0.064,4.96-0.08,7.438-0.184c1.401-0.06,2.798-0.251,4.195-0.388c1.401-0.136,2.8-0.342,4.206-0.396
		c0.83-0.032,1.67,0.235,2.508,0.249c2.888,0.045,5.781-0.05,8.665,0.077c2.598,0.114,5.185,0.449,7.932,0.702
		c0,1.813-0.109,3.658,0.028,5.484c0.156,2.072,0.599,4.124,0.794,6.197c0.13,1.391-0.008,2.805,0.077,4.201
		c0.05,0.82,0.403,1.623,0.441,2.44c0.163,3.638,0.496,7.263,0.106,10.926c-0.189,1.795,0.341,3.656,0.432,5.493
		c0.122,2.488,0.118,4.983,0.201,7.473c0.075,2.244,0.12,4.496,0.335,6.73C648.945,346.124,648.606,346.328,647.766,346.365z"/>
	<path fill-rule="evenodd" clip-rule="evenodd" fill="#444444" d="M547.154,315.503c-0.01-1.275-0.41-1.493-1.583-0.948
		c-1.135,0.527-2.298,1.009-3.378,1.627c-2.215,1.266-4.497,2.458-6.522,3.982c-1.165,0.879-1.917,2.327-2.788,3.565
		c-0.531,0.756-0.995,1.573-1.389,2.411c-1.035,2.202-2.171,4.379-2.965,6.67c-0.248,0.715-0.41,1.462-0.544,2.217
		c0.075,0.024,0.155,0.049,0.262,0.071c-0.121,0.099-0.227,0.183-0.325,0.259c-0.149,0.916-0.254,1.847-0.378,2.763
		c-0.091,0.68,0.096,1.232,1.115,1.31c2.108,0.158,4.202,0.519,6.289,0.874c0.729,0.124,1.421,0.477,2.268,0.772
		c0.115-0.464,0.155-0.7,0.233-0.922c0.235-0.672,0.45-1.354,0.664-2.039c-0.863-0.206-0.791-0.117-1.259-0.54
		c-0.154-0.011-0.308-0.022-0.461-0.033c0.022-0.307,0.045-0.611,0.067-0.918c1.062,0.214,1.125,0.286,1.808,0.594
		c-0.012,0.173-0.024,0.346-0.037,0.519c0.556-1.788,1.117-3.573,1.985-5.194c1.232-2.303,3.381-3.955,5.72-5.259
		c0.493-0.276,1.165-0.838,1.177-1.284C547.209,322.502,547.18,319.002,547.154,315.503z M529.202,334.705
		c0.357-0.828,0.063-0.418,0.527-0.889C529.37,334.646,529.669,334.235,529.202,334.705z M532.747,336.813
		c-0.307-0.022-0.613-0.045-0.919-0.067c0.438-0.636,0.921-1.275,1.514-1.737C533.145,335.61,532.945,336.211,532.747,336.813z"/>
	<path fill-rule="evenodd" clip-rule="evenodd" fill="#444444" d="M542.794,354.134c-0.444-2.688-1.356-5.293-3.046-7.507
		c-1.099-1.437-2.29-2.87-4.206-3.202c-2.544-0.44-5.112-0.729-7.664-1.129c-1.892-0.297-3.603-0.024-5.106,1.259
		c-0.581,0.494-1.26,0.872-1.902,1.292c-3.114,2.035-4.549,5.083-4.411,8.625c0.095,2.402,1.003,4.776,1.583,7.154
		c0.155,0.636,0.523,0.769,1.038,0.244c0.509-0.519,1.071-0.981,1.593-1.487c2.34-2.268,4.649-4.564,7.018-6.801
		c0.777-0.734,1.622-1.467,2.567-1.936c1.701-0.846,3.029-0.281,3.523,1.499c0.718,2.588,1.267,5.222,1.899,7.831
		c0.392,1.616,0.807,3.227,1.298,5.184c0.945-0.755,1.75-1.155,2.198-1.803c1.141-1.641,2.315-3.308,3.1-5.128
		C542.803,357.005,543.014,355.446,542.794,354.134z M525.86,348.796c-0.308-0.022-0.613-0.045-0.922-0.067
		c0.688-1.514,0.255-0.972,1.447-0.818C526.21,348.206,526.034,348.501,525.86,348.796z M532.692,350.224
		c-0.462-0.034-0.922-0.067-1.382-0.102c0.688-1.122-0.045-0.616,1.449-0.821C532.737,349.607,532.715,349.916,532.692,350.224z"/>
</g>
<g>
	<path fill-rule="evenodd" clip-rule="evenodd" fill="#444444" d="M410.319,198.209c-0.616,0.931-1.085,1.475-1.372,2.104
		c-0.91,1.994-1.745,4.022-2.625,6.029c-0.211,0.477-0.418,0.983-0.747,1.376c-0.771,0.921-1.692,0.832-2.413-0.133
		c-1.711-2.293-3.435-4.577-5.163-6.858c-0.087-0.113-0.258-0.164-0.56-0.349c-0.265,1.38-0.482,2.654-0.757,3.917
		c-0.368,1.689-0.621,3.429-1.214,5.04c-0.602,1.636-1.755,1.818-3.063,0.633c-0.925-0.837-1.702-1.833-2.563-2.739
		c-1.1-1.155-2.219-2.291-3.592-3.706c0,0.659-0.051,0.96,0.009,1.241c0.512,2.38,1.094,4.744,1.535,7.138
		c0.109,0.596-0.006,1.565-0.392,1.844c-0.564,0.407-1.57,0.643-2.208,0.425c-1.774-0.607-3.463-1.472-5.171-2.266
		c-0.666-0.31-0.981-1.514-0.613-2.125c0.443-0.737,1.303-0.87,2.065-0.331c0.614,0.435,1.191,0.961,1.869,1.258
		c0.752,0.33,1.328-0.006,1.15-0.899c-0.131-0.656-0.516-1.257-0.74-1.901c-0.167-0.475-0.503-1.084-0.342-1.446
		c0.762-1.723,0.056-3.319-0.291-4.93c-0.149-0.688-0.524-1.393,0.184-1.84c0.521-0.329,1.231-0.464,1.864-0.482
		c1.152-0.036,1.689,0.699,2.339,1.653c1.026,1.507,2.493,2.719,3.797,4.032c0.438,0.442,0.947,0.813,1.534,1.312
		c0.394-1.095,1.009-1.908,0.334-3.052c-0.221-0.372,0.21-1.174,0.422-1.75c0.297-0.799,0.771-1.545,0.974-2.362
		c0.2-0.81,0.003-1.732,0.271-2.505c0.191-0.552,0.876-1.32,1.317-1.306c0.669,0.021,1.519,0.491,1.936,1.039
		c0.818,1.077,1.289,2.417,2.091,3.511c1.142,1.559,2.451,2.991,3.884,4.712c0.581-1.422,1.022-2.615,1.56-3.763
		c0.286-0.615,0.765-1.136,1.113-1.727c0.67-1.137,1.32-2.286,1.955-3.444c0.283-0.517,0.416-1.136,0.773-1.583
		c0.621-0.779,1.852-0.579,2.296,0.454c0.521,1.21,0.804,2.518,1.222,3.772c0.123,0.371,0.27,0.807,0.549,1.039
		c0.751,0.627,0.912,1.423,1.092,2.331c0.146,0.746,0.735,1.405,1.218,2.263c0.678-0.812,1.241-1.473,1.791-2.147
		c0.908-1.117,1.784-2.264,2.722-3.36c0.649-0.762,1.359-1.476,2.068-2.185c0.484-0.484,1.117-0.854,1.494-1.404
		c0.465-0.678,1.075-1.264,1.763-0.867c0.614,0.355,1.194,1.154,1.338,1.852c0.222,1.076,0.009,2.235,0.08,3.353
		c0.029,0.46,0.216,0.992,0.512,1.337c0.883,1.032,1.794,1.976,1.053,3.518c-0.229,0.477-0.17,1.092-0.01,1.896
		c0.59-0.513,1.196-1.007,1.767-1.543c1.02-0.962,2.021-1.943,3.021-2.927c0.37-0.365,0.829-0.707,1.037-1.156
		c0.253-0.549,0.36-1.066,1.147-0.927c0.798,0.139,1.596,0.334,1.733,1.249c0.3,1.992,0.538,3.993,0.731,5.998
		c0.09,0.937,0.014,1.889,0.014,2.826c0.765,0.064,1.522,0.108,2.273,0.199c0.762,0.091,1.387,0.403,1.197,1.315
		c-0.174,0.834-0.491,1.542-1.638,1.295c-0.61-0.131-1.316-0.158-1.901,0.019c-1.91,0.579-3.138-0.443-3.132-2.49
		c0.005-1.824-0.239-3.648-0.486-5.547c-0.337,2.08-2.264,2.526-3.513,3.66c-0.555,0.504-0.93,1.202-1.404,1.799
		c-0.42,0.527-0.897,0.608-1.479,0.2c-0.286-0.199-0.73-0.207-0.962-0.441c-0.364-0.366-0.8-0.822-0.871-1.29
		c-0.489-3.235-0.892-6.485-1.328-9.73c-0.004-0.03-0.055-0.054-0.274-0.258c-0.903,0.972-1.83,1.933-2.714,2.932
		c-0.496,0.56-0.926,1.178-1.373,1.779c-1.065,1.435-2.691,2.404-3.2,4.317c-0.311,1.167-1.966,1.216-2.613,0.072
		c-0.824-1.464-1.438-3.049-2.17-4.566C411.859,201.243,411.164,199.896,410.319,198.209z"/>
	<path fill="#444444" d="M390.289,373.602c-2.159,0.142-4.325,0.212-6.486,0.312c-1.312,0.062-2.628,0.221-3.935,0.167
		c-2.47-0.103-4.936-0.327-7.398-0.502c-1.15,3.064-0.448,5.911-0.306,8.731c0.079,1.567,0.335,3.124,0.433,4.691
		c0.12,1.922,0.111,3.852,0.287,5.767c0.023,0.256,0.87,0.701,1.225,0.613c1.079-0.269,2.073-0.907,3.154-1.123
		c2.127-0.429,4.285-0.882,6.441-0.932c2.547-0.062,5.105,0.292,7.837,0.479c0.018-0.387,0.085-0.829,0.052-1.264
		c-0.109-1.448-0.355-2.891-0.368-4.337c-0.032-3.871-0.003-7.742,0.081-11.612C391.324,373.729,391.086,373.55,390.289,373.602z"/>
	<path fill="#444444" d="M373.714,219.349c-1.36,0.558-2.678,1.218-4.094,1.881c0.064,2.642,1.761,4.857,2.751,7.329
		c0.404,1.004,0.734,2.042,1.186,3.023c0.904,1.966,1.919,3.882,2.791,5.861c0.608,1.381,1.309,1.676,2.544,0.797
		c0.69-0.488,1.33-1.048,1.98-1.592c0.558-0.468,1.095-0.958,1.829-1.604c-0.522-1.035-1.084-2.16-1.657-3.277
		c-1.249-2.436-2.497-4.868-3.759-7.295c-0.839-1.61-1.671-3.226-2.576-4.797C374.573,219.44,373.97,219.244,373.714,219.349z"/>
	<path fill="#444444" d="M437.668,235.652c1.894,1.063,3.771,2.149,5.827,3.322c0.26-0.622,0.438-0.979,0.565-1.356
		c0.905-2.662,1.744-5.348,2.708-7.987c1.037-2.846,2.217-5.639,3.252-8.483c0.115-0.32-0.188-1.059-0.495-1.22
		c-1.724-0.899-3.509-1.679-5.426-2.572c-0.185,0.337-0.517,0.823-0.73,1.358c-0.889,2.225-1.712,4.477-2.621,6.693
		c-0.453,1.106-1.077,2.142-1.555,3.24c-0.744,1.709-1.436,3.442-2.134,5.171C436.749,234.587,436.886,235.214,437.668,235.652z"/>
	<path fill="#444444" d="M352.06,278.18c-2.566-1.248-4.351-3.369-5.625-5.787c-1.471-2.791-2.557-5.785-3.894-8.885
		c-0.338,0.146-0.838,0.392-1.359,0.583c-1.512,0.556-2.999,1.224-4.556,1.6c-1.86,0.449-3.776,0.693-5.681,0.921
		c-0.825,0.101-1.086,0.434-0.913,1.176c0.68,2.938,1.305,5.894,2.088,8.805c0.527,1.962,1.087,3.959,1.988,5.763
		c1.217,2.435,2.765,4.705,4.194,7.031c0.546,0.888,1.097,1.786,1.753,2.589c1.643,2.01,3.785,3.413,6.05,4.589
		c1.522,0.791,3.192,1.29,4.76,2.002c0.893,0.407,1.23,0.26,1.307-0.748c0.255-3.336,0.58-6.665,0.85-10
		c0.076-0.939,0.006-1.893,0.096-2.829c0.134-1.363,0.289-2.729,0.551-4.071C353.947,279.476,353.218,278.744,352.06,278.18z"/>
	<path fill="#444444" d="M338.737,262.625c1.574-0.572,3.098-1.362,4.514-2.263c1.197-0.761,2.415-1.666,3.239-2.789
		c0.984-1.34,1.751-2.92,2.266-4.508c0.758-2.341,1.129-4.796,0.61-7.269c-0.462-2.204-0.782-4.477-1.571-6.566
		c-0.715-1.889-1.938-3.595-3.04-5.317c-0.184-0.286-1.033-0.492-1.319-0.317c-2.162,1.323-4.272,2.733-6.374,4.15
		c-0.764,0.515-1.81,0.998-2.087,1.735c-0.242,0.642,0.421,1.621,0.681,2.453c0.024,0.076,0.011,0.165,0.04,0.239
		c0.732,1.857,0.75,3.768,0.497,5.716c-0.18,1.379-0.525,2.719-1.862,3.325c-1.04,0.47-2.228,0.77-3.366,0.834
		c-3.519,0.2-6.43-2.32-7.124-6.061c-0.167-0.899-0.293-1.613-1.504-1.188c-0.333,0.115-0.785-0.097-1.18-0.169
		c-3.204-0.598-6.409-1.197-9.821-1.835c0.134,1.542,0.062,2.948,0.414,4.239c0.537,1.972,1.354,3.87,2.081,5.789
		c0.123,0.325,0.396,0.593,0.587,0.896c0.287,0.457,0.56,0.921,0.842,1.382c0.25,0.406,0.424,0.906,0.772,1.197
		c1.266,1.059,2.602,2.033,3.89,3.065c0.68,0.545,1.427,1.062,1.946,1.741c1.084,1.42,2.263,2.675,4.111,2.931
		c1.017,0.141,2.075-0.039,3.099,0.073C332.438,264.481,335.634,263.754,338.737,262.625z"/>
	<path fill="#444444" d="M369.449,218.233c2.124-0.274,3.789-2.04,5.464-3.787c0.075-0.079,0.103-0.215,0.132-0.331
		c0.277-1.131,0.705-2.256,0.771-3.398c0.044-0.761-0.2-1.822-0.724-2.271c-1.324-1.137-2.825-1.843-4.752-1.974
		c-4.443-0.305-7.487,3.138-7.033,7.062C363.74,217.276,365.41,218.218,369.449,218.233z"/>
	<path fill-rule="evenodd" clip-rule="evenodd" fill="#444444" d="M394.667,274.985c-0.009,1.571-1.633,3.223-3.113,3.164
		c-0.956-0.036-1.669-1.353-1.689-3.121c-0.016-1.333,0.795-2.638,1.637-2.635C393.091,272.398,394.676,273.693,394.667,274.985z"/>
	<path fill-rule="evenodd" clip-rule="evenodd" fill="#444444" d="M424.044,276.742c0.196-0.632,0.243-1.381,0.624-1.867
		c0.504-0.645,1.023-1.595,2.142-1.178c1.082,0.401,2.677,2.504,2.409,3.345c-0.194,0.601-0.71,1.193-1.238,1.566
		c-0.644,0.456-1.425,0.797-2.193,0.968c-0.978,0.218-1.285-0.645-1.526-1.349c-0.15-0.438-0.073-0.952-0.099-1.432
		C424.123,276.778,424.083,276.761,424.044,276.742z"/>
	<path fill="#444444" d="M484.952,269.294c-1.123,0.071-2.261,0.104-3.38,0.01c-0.742-0.062-1.465-0.368-2.189-0.583
		c-1.149-0.336-2.319-0.623-3.433-1.052c-0.917-0.352-1.766-0.879-2.651-1.33c-1.221,5.723-3.893,10.277-8.866,13.643
		c0.654,1.906,1.039,3.872,1.296,5.878c0.117,0.086,0.249,0.18,0.427,0.293c-0.022,0.308-0.045,0.612-0.067,0.919
		c-0.074-0.006-0.148-0.011-0.223-0.017c0.443,4.282,0.415,8.731,1.184,13.183c0.933-0.48,1.823-0.788,2.53-1.332
		c2.209-1.694,4.362-3.461,6.509-5.235c1.023-0.847,2.136-1.652,2.937-2.688c2.264-2.916,4.027-6.132,5.169-9.664
		c0.247-0.763,0.371-1.576,0.694-2.302c1.212-2.729,0.914-5.693,1.385-8.536C486.432,269.522,485.867,269.233,484.952,269.294z
		 M465.506,282.406c0,0,0.192-1.784,0.527-0.889c-0.011,0.153-0.022,0.308-0.033,0.461c0.153,0.011,0.308,0.022,0.458,0.033
		C465.926,282.402,466.386,282.181,465.506,282.406z M470.251,293.39c-0.152-0.012-0.306-0.022-0.461-0.034
		c0.012-0.154,0.022-0.306,0.034-0.462c0.604,0.201,1.206,0.398,1.809,0.597C470.844,293.896,470.976,293.931,470.251,293.39z"/>
	<path fill="#444444" d="M504.534,243.897c-2.236,0.348-4.355,0.777-6.496,0.983c-2.177,0.21-4.376,0.199-6.616,0.286
		c-0.103,2.562-1.175,4.697-2.633,6.655c-0.389,0.523-0.896,1.119-1.471,1.3c-0.821,0.257-1.757,0.125-2.636,0.23
		c-2.084,0.249-4.702-1.771-5.25-3.505c-0.707-2.232-1.086-4.639,0.271-6.804c0.688-1.097,0.232-1.688-0.529-2.308
		c-1.474-1.196-2.972-2.361-4.445-3.556c-1.557-1.265-3.101-2.547-4.703-3.865c-0.249,0.461-0.428,0.867-0.67,1.229
		c-0.697,1.038-1.218,2.138-1.63,3.274c0.338,0.141,0.676,0.28,1.013,0.421c-0.022,0.31-0.045,0.614-0.067,0.922
		c-0.884-0.422-0.699-0.445-1.116-0.847c-0.278,0.84-0.505,1.695-0.692,2.563c0.099,0.007,0.196,0.015,0.295,0.021
		c-0.045,0.614-0.09,1.229-0.135,1.841c-0.155-0.012-0.308-0.022-0.461-0.034c-0.011-0.037-0.02-0.065-0.029-0.099
		c-0.025,0.144-0.053,0.287-0.076,0.432c-0.239,1.452-0.094,2.961-0.243,4.432c-0.414,4.073,0.272,7.824,2.986,11.042
		c1.67,1.979,2.914,4.263,5.182,5.801c2.715,1.839,5.6,2.883,8.809,2.955c1.896,0.043,3.76-0.823,5.716-0.348
		c0.306,0.073,0.741-0.095,1.026-0.287c1.089-0.743,2.127-1.562,3.213-2.312c1.589-1.099,3.375-1.982,4.76-3.291
		c1.594-1.506,3.016-3.266,4.175-5.123c0.873-1.397,1.15-3.153,1.806-4.703C504.851,248.919,504.718,246.57,504.534,243.897z
		 M468.872,255.363c-0.154-0.012-0.307-0.022-0.461-0.034c0.28-2.185,0.223-1.957,1.517-1.739
		C469.576,254.181,469.224,254.771,468.872,255.363z M474.113,246.957c0.768,0.057,1.534,0.112,2.3,0.169
		c-0.649,0.714-0.313,0.552-1.446,0.821c-0.451,0.474,0.04,0.054-0.494,0.426c-0.375-0.533,0.05-0.047-0.427-0.493
		C474.068,247.574,474.091,247.266,474.113,246.957z M473.35,251.066c0.213-1.062,0.288-1.126,0.595-1.809
		c2.161,0.539,1.771,1.421,3.051,2.537c-0.356,0.827-0.062,0.415-0.526,0.887c-0.011,0.151-0.022,0.306-0.033,0.461
		C475.401,252.399,474.649,251.71,473.35,251.066z M477.445,258.305c-0.461-0.034-0.922-0.068-1.381-0.102
		c0.012-0.154,0.023-0.31,0.034-0.463c0.47-0.118,0.941-0.237,1.414-0.357C477.49,257.689,477.468,257.994,477.445,258.305z
		 M479.98,255.251c-0.359-0.54-0.274-0.418-0.359-1.413c0.46,0.033,0.92,0.067,1.381,0.101
		C480.66,254.375,480.321,254.812,479.98,255.251z"/>
	<path fill="#444444" d="M453.816,205.496c-0.554-0.261-1.301-0.178-1.954-0.136c-2.486,0.166-3.766,2.413-5.775,3.432
		c-1.279,0.649-1.798,4.723-0.395,5.967c1.948,1.725,3.963,2.421,6.591,1.547c2.724-0.905,4.969-2.391,4.607-5.257
		C457.007,209.247,455.435,206.255,453.816,205.496z M454.716,215.014c-1.253-0.534-0.958-0.74-1.741-1.514
		c0.022-0.306,0.045-0.615,0.067-0.922c0.307,0.022,0.614,0.045,0.921,0.067c0.207,0.601,0.427,1.437,0.786,1.909
		C454.738,214.708,454.727,214.861,454.716,215.014z"/>
	<path fill="#444444" d="M440.106,372.996c-4.183,0.011-8.366-0.045-12.549-0.07c-1.188-0.007-2.379,0-3.589,0
		c0,6.889,0,13.672,0,20.672c6.086-2.765,12.082-3.648,18.447-2.048c0.244-2.972,0.685-5.861,0.653-8.746
		c-0.03-2.718-0.532-5.435-0.874-8.146C441.978,372.928,441.939,372.992,440.106,372.996z M430.317,390.366
		c-0.46-0.033-0.921-0.067-1.383-0.101c0.012-0.155,0.022-0.307,0.034-0.46c0.473-0.12,0.944-0.24,1.416-0.358
		C430.362,389.753,430.34,390.06,430.317,390.366z M436.857,389.458c-0.011,0.152-0.022,0.306-0.033,0.46
		c-0.474-0.45-0.057,0.04-0.429-0.494c-0.47-0.448-0.053,0.04-0.426-0.495c0.472-0.12,0.944-0.238,1.416-0.359
		C437.025,389.397,437.321,388.987,436.857,389.458z"/>
	<path fill="#444444" d="M449.741,402.944c-0.465-3.375-2.485-5.743-5.113-7.631c-0.688-0.492-1.748-0.43-2.595-0.738
		c-3.739-1.357-7.495-1.101-11.275-0.218c-3.61,0.842-6.979,2.041-9.697,4.792c-0.898,0.909-1.442,1.944-1.905,3.046
		c0.649,0.222,0.739,0.424,1.443,0.871c-0.022,0.307-0.045,0.615-0.067,0.922c-0.676-0.05-1.351-0.099-2.026-0.148
		c-0.181,0.467-0.366,0.939-0.58,1.416c0.95-0.104,1.659-0.281,2.356-0.234c1.182,0.076,2.358,0.262,3.526,0.467
		c0.648,0.113,1.265,0.426,1.915,0.525c0.788,0.119,1.598,0.128,2.396,0.148c1,0.025,2.005,0.063,3.002,0.009
		c1.03-0.057,2.061-0.363,3.076-0.304c2.404,0.144,4.794,0.587,7.197,0.631c2.074,0.035,4.156-0.307,6.234-0.496
		c0.827-0.075,1.649-0.188,2.57-0.296C450.024,404.667,449.861,403.81,449.741,402.944z M449.582,405.188
		c-0.968-0.239-0.862-0.124-1.347-0.562c-0.153-0.012-0.307-0.022-0.46-0.034c0.011-0.152,0.022-0.306,0.033-0.459
		c0.614,0.046,1.227,0.09,1.841,0.135C449.627,404.574,449.604,404.882,449.582,405.188z"/>
	<path fill="#444444" d="M465.265,343.399c-0.052-2.223-0.047-4.448-0.19-6.664c-0.174-2.687-0.62-5.362-0.685-8.048
		c-0.061-2.526,0.319-5.06,0.33-7.59c0.019-4.156-0.06-8.312-0.176-12.467c-0.12-4.39-0.283-8.779-0.522-13.165
		c-0.189-3.454-0.338-6.928-0.845-10.342c-0.663-4.462-1.539-8.901-2.56-13.296c-0.598-2.577-1.585-5.075-2.532-7.558
		c-0.527-1.386-1.486-2.61-1.982-4.004c-1.226-3.449-3.169-6.467-5.278-9.404c-0.49-0.683-0.936-1.404-1.466-2.055
		c-0.957-1.175-2.127-2.208-2.912-3.483c-1.215-1.971-2.96-3.252-4.871-4.38c-1.348-0.792-2.89-1.32-4.094-2.281
		c-2.18-1.737-4.657-2.732-7.266-3.488c-0.751-0.218-1.589-0.117-2.368-0.266c-0.864-0.168-1.694-0.579-2.557-0.65
		c-0.771-0.062-1.582,0.359-2.348,0.284c-2.195-0.213-4.374-0.583-6.563-0.863c-1.394-0.178-2.794-0.432-4.189-0.425
		c-2.488,0.013-4.977,0.199-7.464,0.312c-0.019-0.147-0.037-0.295-0.058-0.443c-3.052,0.5-6.137,0.863-9.153,1.533
		c-3.344,0.743-6.629,1.752-9.933,2.671c-1.188,0.33-2.459,0.493-3.334,1.534c-0.381,0.454-0.753,0.962-1.242,1.265
		c-1.224,0.757-2.51,1.169-3.514,2.52c-1.013,1.363-2.999,2.002-4.556,2.96c-0.404,0.249-0.868,0.442-1.191,0.774
		c-1.174,1.204-2.344,2.419-3.431,3.701c-1.501,1.768-3.05,3.513-4.345,5.425c-1.234,1.822-2.104,3.887-3.248,5.775
		c-1.628,2.688-2.542,5.632-3.223,8.647c-0.386,1.71-0.463,3.492-0.675,5.241c-0.257,2.114-0.565,4.225-0.749,6.346
		c-0.23,2.667-0.34,5.346-0.533,8.016c-0.275,3.825-0.654,7.644-0.853,11.474c-0.229,4.419-0.31,8.847-0.459,13.27
		c-0.018,0.523-0.085,1.045-0.091,1.567c-0.022,2.213-0.036,4.428-0.042,6.641c-0.009,2.443-0.06,4.89,0.006,7.329
		c0.08,3.002,0.344,6.001,0.376,9.003c0.028,2.8-0.142,5.602-0.222,8.401c-0.018,0.574-0.108,1.2,0.772,1.197
		c2.233-0.011,4.466-0.012,6.699-0.033c1.492-0.014,2.985-0.09,4.478-0.08c2.41,0.017,4.821,0.12,7.232,0.113
		c1.896-0.007,3.792-0.185,5.687-0.185c4.887-0.001,9.773,0.052,14.659,0.083c3.011,0.021,6.021,0.031,9.033,0.062
		c2.135,0.022,4.271,0.113,6.404,0.089c1.014-0.013,2.022-0.291,3.038-0.33c1.692-0.064,3.401-0.164,5.084-0.012
		c2.727,0.248,5.419-0.743,8.143-0.114c0.583,0.135,1.189,0.207,1.788,0.22c3.63,0.077,7.261,0.198,10.89,0.173
		c4.844-0.036,9.687-0.189,14.531-0.308c1.009-0.026,2.019-0.211,3.022-0.18c1.507,0.047,3.011,0.12,4.515,0.195
		c0.021-0.291,0.043-0.581,0.064-0.873c0.613,0.045,1.227,0.09,1.839,0.135c-0.119,0.354-0.206,0.606-0.295,0.813
		c0.655,0.032,1.312,0.067,1.968,0.093c0.904,0.036,1.591-0.213,1.519-1.368C465.255,345.741,465.292,344.568,465.265,343.399z
		 M444.512,278.556c0.309,0.022,0.614,0.045,0.922,0.067c-0.033,0.461-0.067,0.918-0.101,1.379
		c-0.154-0.011-0.308-0.022-0.461-0.033c-0.375-0.533,0.049-0.047-0.428-0.495C444.467,279.17,444.489,278.862,444.512,278.556z
		 M383.623,311.099c-1.462,0-2.807,0.02-4.15-0.006c-1.587-0.03-3.171-0.117-4.758-0.146c-0.842-0.017-1.111-0.423-1.086-1.229
		c0.092-2.705,0.141-5.411,0.212-8.117c0.073-2.842,0.152-5.683,0.235-8.524c0.005-0.15,0.059-0.3,0.116-0.592
		c0.78,0.053,1.547,0.029,2.282,0.168c1.312,0.244,2.556,0.485,3.932,0.062c0.764-0.234,1.733,0.169,2.6,0.344
		c0.158,0.031,0.41,0.436,0.363,0.514c-0.671,1.112,0.035,2.196,0.044,3.287c0.03,4.263,0.134,8.527,0.21,12.791
		C383.631,310.128,383.623,310.606,383.623,311.099z M396.04,310.784c-2.092,0.052-4.183,0.132-6.271,0.263
		c-0.874,0.054-1.739,0.26-2.608,0.398c-0.663,0.106-0.843-0.164-0.985-0.838c-0.756-3.566-0.291-7.142-0.215-10.716
		c0.041-1.916,0.022-3.838-0.09-5.75c-0.044-0.771,0.241-1.072,0.886-1.137c0.842-0.086,1.691-0.094,2.539-0.136
		c0.014,0.094,0.028,0.188,0.043,0.283c1.002-0.196,1.996-0.462,3.007-0.567c0.931-0.101,1.887-0.088,2.817,0.009
		c0.234,0.025,0.574,0.548,0.598,0.862c0.258,3.33,0.454,6.666,0.68,9.997c0.144,2.122,0.295,4.245,0.467,6.365
		C396.961,310.485,396.746,310.767,396.04,310.784z M406.994,310.802c-0.296-0.104-0.613-0.206-0.921-0.206
		c-1.907,0.001-3.815,0.075-5.719,0.006c-0.3-0.012-0.766-0.592-0.826-0.965c-0.112-0.701,0.092-1.447,0.029-2.163
		c-0.226-2.552-0.531-5.096-0.762-7.647c-0.191-2.125-0.328-4.253-0.471-6.382c-0.059-0.874,0.564-0.943,1.214-0.949
		c1.377-0.015,2.754-0.024,4.13-0.051c1.28-0.026,2.562-0.114,3.842-0.076c0.23,0.006,0.621,0.479,0.644,0.759
		c0.271,3.373,0.485,6.748,0.716,10.123c-0.039,0.002-0.077,0.005-0.115,0.008c0.095,2.048,0.212,4.096,0.279,6.144
		C409.08,310.769,408.313,311.267,406.994,310.802z M418.188,315.942c-0.012,0.152-0.022,0.304-0.034,0.459
		c-0.296-0.178-0.59-0.352-0.886-0.526c0.046-0.615,0.09-1.228,0.136-1.843c0.436,0.343,0.874,0.683,1.311,1.021
		C418.356,315.881,418.653,315.471,418.188,315.942z M422.515,311.203c-1.919,0-3.843,0.028-5.765-0.016
		c-0.731-0.018-1.882,0.034-2.1-0.356c-0.414-0.744-0.35-1.783-0.38-2.702c-0.079-2.47-0.09-4.941-0.152-7.411
		c-0.05-1.99-0.134-3.978-0.203-5.966c-0.001-0.081,0.012-0.162,0.003-0.242c-0.241-2.67,0.459-3.171,3.071-2.599
		c1.5,0.328,3.089,0.251,4.639,0.361c0.235,0.016,0.468,0.054,0.887,0.105C422.515,298.702,422.515,304.903,422.515,311.203z
		 M421.946,289.651c-2.127-0.061-4.245-0.36-6.37-0.507c-2.833-0.196-5.615,0.346-8.421,0.587c-2.521,0.218-5.072,0.044-7.611,0.076
		c-1.181,0.015-2.36,0.094-3.539,0.169c-1.721,0.107-3.438,0.281-5.159,0.346c-1.157,0.044-2.321-0.078-3.481-0.079
		c-0.874,0-1.745,0.102-2.619,0.111c-2.088,0.023-4.181,0.092-6.265-0.002c-1.355-0.061-2.707-0.341-4.04-0.618
		c-0.166-0.034-0.355-0.69-0.284-0.997c0.266-1.109,0.658-2.188,0.965-3.29c0.515-1.851,0.941-3.719,1.895-5.43
		c1.441-2.593,2.678-5.304,4.222-7.83c0.941-1.539,2.218-2.901,3.488-4.202c1.028-1.053,2.218-1.971,3.434-2.809
		c1.491-1.029,3.032-2.008,4.645-2.828c1.352-0.688,2.813-1.198,4.271-1.64c1.451-0.438,3.086-0.438,4.411-1.092
		c2.111-1.042,4.448-0.634,6.582-1.427c0.8-0.297,1.822-0.017,2.741,0.034c2.733,0.155,5.478,0.228,8.195,0.541
		c1.104,0.127,2.148,0.784,3.218,1.213c2.493,0.999,4.982,2.008,7.476,3.007c0.706,0.28,1.419,0.536,2.128,0.803
		c2.512,0.946,3.93,2.984,5.31,5.133c1.615,2.516,3.356,4.966,4.051,7.922c0.824,3.513,1.503,7.059,2.248,10.592
		c0.122,0.58,0.262,1.16,0.442,1.958c-4.556,0.082-8.924,0.176-13.292,0.236C427.704,289.669,424.823,289.731,421.946,289.651z
		 M426.221,311.229c-0.268-0.006-0.723-0.593-0.744-0.935c-0.15-2.283-0.213-4.572-0.295-6.859
		c-0.085-2.368-0.174-4.737-0.231-7.107c-0.032-1.271-0.007-2.541-0.007-3.822c3.182,0,6.027,0.009,8.871-0.006
		c0.829-0.004,0.93,0.362,0.914,1.136c-0.057,2.74-0.01,5.483,0.032,8.224c0.047,3.077,0.132,6.156,0.204,9.413
		C432.08,311.271,429.148,311.296,426.221,311.229z M445.914,306.321c-0.051,0.941-0.082,2.065-0.195,3.181
		c-0.029,0.287-0.255,0.678-0.499,0.794c-0.531,0.259-1.124,0.438-1.709,0.528c-1.52,0.234-3.016,0.535-4.6,0.127
		c-1.135-0.291-1.396-0.985-1.43-1.907c-0.078-2.132-0.07-4.267-0.142-6.398c-0.068-2.011-0.245-4.021-0.272-6.032
		c-0.017-1.236,0.123-2.479,0.274-3.708c0.026-0.215,0.471-0.535,0.727-0.538c1.805-0.028,3.611,0.02,5.418,0.03
		c0.78,0.005,1.042,0.479,1.133,1.156c0.428,3.229,0.892,6.451,1.277,9.684C446.011,304.193,445.914,305.173,445.914,306.321z
		 M453.926,345.845c-0.462-0.034-0.922-0.068-1.38-0.102c0.033-0.46,0.067-0.918,0.101-1.379c0.458,0.033,0.919,0.067,1.381,0.101
		C453.993,344.926,453.96,345.385,453.926,345.845z"/>
	<path fill="#444444" d="M465.26,351.687c-2.051-0.249-3.872-0.511-5.701-0.68c-1.789-0.166-3.616-0.493-5.375-0.291
		c-2.592,0.298-5.153,0.689-7.771,0.394c-1.1-0.125-2.242-0.316-3.312-0.146c-2.103,0.336-4.156,0.435-6.302,0.257
		c-3.879-0.32-7.786-0.299-11.684-0.381c-1.822-0.037-3.648-0.011-5.471,0.037c-1.658,0.045-3.313,0.183-4.971,0.243
		c-2.359,0.085-4.718,0.156-7.078,0.197c-1.148,0.02-2.302-0.01-3.449-0.078c-0.617-0.037-1.226-0.29-1.839-0.298
		c-3.381-0.044-6.759-0.04-10.138-0.06c-2.015-0.012-4.031-0.064-6.045-0.041c-1.505,0.02-3.009,0.137-4.513,0.201
		c-2.373,0.101-4.746,0.276-7.119,0.271c-3.909-0.009-7.818-0.164-11.729-0.203c-2.453-0.024-4.906,0.056-7.361,0.077
		c-1.038,0.01-1.269,0.597-1.19,1.506c0.161,1.878,0.274,3.758,0.424,5.637c0.081,1.001,0.203,1.997,0.297,2.998
		c0.212,2.286,0.529,4.569,0.593,6.86c0.053,1.921,0.086,2.122,2.006,2.321c0.281,0.028,0.568,0.03,0.85,0.009
		c2.13-0.16,4.256-0.347,6.385-0.49c1.444-0.096,2.891-0.146,4.338-0.192c0.231-0.009,0.466,0.114,0.7,0.165
		c1.412,0.312,2.821,0.871,4.235,0.883c4.428,0.038,8.858-0.107,13.285-0.231c2.622-0.072,5.24-0.272,7.862-0.354
		c2.926-0.089,5.856-0.064,8.779-0.183c1.364-0.054,2.72-0.482,4.078-0.471c2.739,0.023,5.479,0.295,8.218,0.347
		c4.222,0.08,8.442,0.082,12.664,0.08c4.717-0.003,9.436-0.022,14.153-0.089c1.596-0.023,3.188-0.227,4.784-0.316
		c1.369-0.077,2.741-0.143,4.113-0.152c3.215-0.022,6.436-0.131,9.643,0.034c2.365,0.12,3.287-0.468,3.398-2.811
		c0.087-1.841,0.209-3.682,0.231-5.523C465.289,358.009,465.26,354.802,465.26,351.687z M406.697,365.511
		c-0.308-0.022-0.613-0.045-0.92-0.067c0.012-0.153,0.022-0.304,0.034-0.458c0.306,0.022,0.611,0.045,0.919,0.067
		C406.72,365.206,406.708,365.357,406.697,365.511z M409.301,361.541c-0.307-0.022-0.614-0.045-0.919-0.066
		c0.687-1.12-0.048-0.619,1.446-0.821C409.652,360.949,409.476,361.245,409.301,361.541z M422.517,357.883
		c-0.305-0.021-0.611-0.044-0.918-0.066c0.011-0.155,0.022-0.309,0.033-0.461c0.308,0.022,0.614,0.045,0.919,0.067
		C422.539,357.575,422.528,357.729,422.517,357.883z M423.326,365.805c-0.153-0.012-0.308-0.023-0.46-0.034
		c0.011-0.152,0.022-0.306,0.033-0.461c0.449,0.188,0.898,0.376,1.348,0.562C423.444,366.202,424.06,366.205,423.326,365.805z"/>
	<path fill="#444444" d="M397.248,401.633c-0.61-1.24-1.559-2.308-2.291-3.494c-0.977-1.579-2.351-2.709-4.082-3.206
		c-2.583-0.739-5.253-0.656-7.938-0.609c-3.577,0.063-6.646,1.708-9.931,2.682c-3.581,1.064-5.02,4.053-6.275,7.177
		c-0.144,0.356-0.236,0.733-0.395,1.236c2.325,0.109,4.401,0.252,6.478,0.292c2.373,0.044,4.747,0.013,7.12-0.015
		c3.912-0.046,7.822-0.13,11.734-0.165c1.284-0.01,2.568,0.107,3.854,0.124c0.953,0.012,2.182,0.179,2.316-1.113
		C397.938,403.594,397.676,402.5,397.248,401.633z M386.455,401.956c-1.069-0.794,0.49-1.391,1.055-1.775
		C387.417,400.751,387.205,402.512,386.455,401.956z M390.595,402.259c-0.306-0.022-0.612-0.045-0.919-0.067
		c0.022-0.308,0.045-0.614,0.067-0.921c0.307,0.022,0.613,0.045,0.919,0.067C390.64,401.645,390.617,401.951,390.595,402.259z"/>
</g>
<g>
	<path fill-rule="evenodd" clip-rule="evenodd" fill="#444444" d="M298.611,406.447c-0.266-1.08-0.363-1.853-0.646-2.551
		c-0.994-2.455-1.805-5.033-3.154-7.285c-1.639-2.735-3.752-5.186-5.656-7.761c-0.168-0.227-0.297-0.488-0.488-0.69
		c-0.814-0.866-1.533-1.882-2.494-2.536c-1.758-1.193-3.646-2.197-5.506-3.232c-2.713-1.509-5.369-3.172-8.748-2.136
		c-1.256,0.385-2.609,0.529-3.932,0.615c-2.229,0.146-4.373,0.501-6.426,1.459c-1.533,0.717-3.178,1.19-4.727,1.882
		c-0.717,0.32-1.361,0.853-1.959,1.376c-0.859,0.749-1.623,1.604-2.471,2.367c-1.104,0.994-2.469,1.779-3.336,2.94
		c-3.133,4.185-4.307,9.21-5.709,14.123c-0.027,0.096,0.057,0.222,0.182,0.653c1.965,0,4.006-0.029,6.043,0.006
		c3.789,0.066,7.576,0.161,11.363,0.263c0.791,0.021,1.578,0.146,2.371,0.182c1.443,0.069,2.889,0.097,4.336,0.158
		c1.697,0.07,3.396,0.24,5.092,0.218c3.82-0.052,7.637-0.269,11.457-0.281c3.709-0.012,7.42,0.152,11.129,0.227
		C296.369,406.465,297.408,406.447,298.611,406.447z"/>
	<path fill-rule="evenodd" clip-rule="evenodd" fill="#444444" d="M276.562,378.031c0.162-0.391,0.256-0.506,0.244-0.608
		c-0.336-3.167-0.652-6.336-1.041-9.497c-0.189-1.556-0.588-3.088-0.764-4.644c-0.338-2.96-0.561-5.933-0.875-8.896
		c-0.453-4.275-0.973-8.545-1.41-12.823c-0.326-3.202-0.547-6.414-0.854-9.619c-0.479-4.987-1.543-9.909-1.758-14.93
		c-0.012-0.288-0.168-0.69-0.383-0.809c-0.186-0.103-0.58,0.078-0.834,0.218c-0.973,0.537-1.898,1.162-2.891,1.654
		c-2.152,1.066-4.348,2.051-6.492,3.133c-0.221,0.11-0.342,0.664-0.312,0.994c0.105,1.198,0.324,2.386,0.445,3.583
		c0.105,1.044,0.07,2.104,0.219,3.143c0.182,1.262,0.588,2.495,0.729,3.759c0.275,2.49,0.414,4.996,0.652,7.49
		c0.283,2.956,0.695,5.899,0.896,8.858c0.174,2.567,0.039,5.156,0.207,7.725c0.221,3.357,0.594,6.706,0.922,10.056
		c0.357,3.663,0.746,7.323,1.107,10.985c0.062,0.657,0.387,0.938,1.035,0.854c1.594-0.207,3.189-0.386,4.779-0.626
		C272.303,377.711,274.385,376.6,276.562,378.031z"/>
	<path fill-rule="evenodd" clip-rule="evenodd" fill="#444444" d="M220.469,233.869c0.084-0.851,0.004-1.828,0.305-2.67
		c0.477-1.332,0.082-2.479-0.395-3.638c-0.256-0.625-0.723-1.161-1.029-1.77c-1.367-2.717-3.781-4.408-6.209-5.943
		c-1.484-0.938-3.391-1.19-5.08-1.82c-3.812-1.42-7.639-0.585-11.387,0.116c-2.367,0.444-4.615,1.559-6.9,2.417
		c-1.492,0.561-3.037,1.061-4.41,1.843c-2.055,1.175-3.988,2.562-5.951,3.892c-0.279,0.188-0.455,0.553-0.643,0.856
		c-0.445,0.713-0.893,1.426-1.299,2.161c-0.547,0.987-1.1,1.976-1.562,3.004c-0.416,0.921-0.086,1.412,0.939,1.486
		c0.963,0.068,1.93,0.065,2.896,0.092c2.822,0.074,5.646,0.131,8.469,0.232c1.471,0.052,2.939,0.175,4.41,0.282
		c1.248,0.091,2.549,0.481,3.729,0.249c1.953-0.385,3.828,0.037,5.732,0.057c2.898,0.029,5.801,0.03,8.695-0.109
		C213.969,234.453,217.15,234.128,220.469,233.869z"/>
	<path fill-rule="evenodd" clip-rule="evenodd" fill="#444444" d="M247.004,219.904c-2.713,0-5.045,0.023-7.379-0.013
		c-0.812-0.012-1.236,0.294-1.25,1.098c-0.027,1.487-0.021,2.976-0.043,4.463c-0.033,2.256-0.016,4.515-0.146,6.764
		c-0.088,1.493,0,1.896,1.475,1.955c2.402,0.095,4.818-0.009,7.227-0.078c0.193-0.004,0.504-0.374,0.539-0.609
		c0.109-0.711,0.168-1.439,0.139-2.157c-0.07-1.559-0.236-3.114-0.311-4.674C247.148,224.492,247.09,222.33,247.004,219.904z"/>
	<path fill-rule="evenodd" clip-rule="evenodd" fill="#444444" d="M151.303,234.184c2.469,0,4.707,0.029,6.943-0.019
		c0.727-0.017,0.832-0.59,0.797-1.237c-0.176-3.181-0.357-6.363-0.459-9.548c-0.029-0.899-0.322-1.235-1.209-1.205
		c-0.633,0.021-1.27-0.102-1.906-0.143c-1.621-0.105-3.244-0.202-5.225-0.325C150.609,226.005,150.959,230.135,151.303,234.184z"/>
	<path fill-rule="evenodd" clip-rule="evenodd" fill="#444444" d="M220.053,268.756c3.709-0.25,5.174-1.457,5.709-4.697
		c0.201-1.222-0.857-2.605-2.146-2.782c-2.219-0.306-4.422-0.211-6.506,0.657c-1.195,0.498-2.244,1.222-2.422,2.707
		c-0.182,1.489,0.576,2.392,1.711,3.197C217.527,268.64,218.725,268.893,220.053,268.756z"/>
	<path fill-rule="evenodd" clip-rule="evenodd" fill="#444444" d="M176.975,268.204c0.943-0.278,1.898-0.522,2.824-0.843
		c1.186-0.408,1.906-1.24,1.875-2.531c-0.02-0.851-2.17-3.642-2.826-3.758c-0.225-0.04-0.475,0.028-0.709,0.069
		c-1.27,0.221-2.531,0.607-3.801,0.622c-0.926,0.012-1.281,0.494-1.85,1.018c-0.818,0.755-0.398,1.242-0.098,2.036
		C173.479,267.686,173.986,268.117,176.975,268.204z"/>
	<path fill-rule="evenodd" clip-rule="evenodd" fill="#444444" d="M278.189,290.59c-0.18-0.93-0.369-1.858-0.5-2.796
		c-0.125-0.899,0.008-1.878-0.301-2.7c-0.846-2.258-1.809-4.474-2.828-6.66c-1.043-2.233-2.678-4.087-4.605-5.539
		c-1.738-1.311-3.721-2.348-5.709-3.257c-1.529-0.699-3.232-1.016-4.654-1.44c-1.707-0.008-1.746,0.127-1.322,1.633
		c0.221,0.793,0.254,1.661,0.242,2.492c-0.037,2.479-0.135,4.957-0.211,7.435c-0.025,0.8-0.115,1.604-0.07,2.4
		c0.154,2.664,0.461,5.324,0.514,7.987c0.047,2.404-0.283,4.815-0.236,7.22c0.078,3.947,0.303,7.882-0.197,11.831
		c-0.287,2.26-0.17,4.57-0.27,6.856c-0.057,1.272,0.775,1.991,1.996,1.576c0.596-0.203,1.104-0.648,1.689-0.894
		c3.781-1.594,7.334-3.502,10.291-6.451c2.064-2.059,3.691-4.336,4.564-7.104c0.445-1.413,0.721-2.88,1.055-4.327
		C278.268,296.129,278.734,293.394,278.189,290.59z M269.88,275.947c-0.95-0.285-1.664-0.515-2.232-1.087
		c-0.36-0.541-0.277-0.418-0.358-1.415c0.459,0.034,0.918,0.067,1.378,0.102c0.459,0.974,0.214,0.94,1.279,1.481
		C269.925,275.333,269.902,275.639,269.88,275.947z"/>
	<path fill-rule="evenodd" clip-rule="evenodd" fill="#444444" d="M256.029,295.376c0.021-2.05,0.281-4.102,0.236-6.147
		c-0.096-4.315-0.359-8.625-0.473-12.939c-0.043-1.688,0.184-3.382,0.186-5.073c0-1.89-0.154-3.778-0.168-5.669
		c-0.02-2.541,0.094-5.083,0.037-7.621c-0.113-5.06-0.305-10.117-0.463-15.176c-0.035-0.002-0.07-0.002-0.105-0.003
		c0-1.494,0.027-2.989-0.031-4.481c-0.008-0.219-0.408-0.578-0.656-0.604c-2.242-0.235-4.488-0.416-6.738-0.604
		c-1.807-0.148-3.617-0.404-5.422-0.392c-1.924,0.015-3.844,0.326-5.768,0.441c-1.721,0.105-3.451,0.19-5.174,0.153
		c-1.885-0.042-3.777-0.42-5.648-0.315c-2.924,0.166-5.852-0.103-8.77,0.172c-0.195,0.02-0.398-0.075-0.598-0.077
		c-0.598-0.001-1.197-0.009-1.791,0.033c-0.801,0.059-1.6,0.22-2.398,0.234c-1.846,0.034-3.691,0.003-5.537,0.005
		c-1.541,0.001-3.082,0.03-4.621,0.011c-1.531-0.019-3.062-0.123-4.592-0.119c-1.797,0.007-3.596,0.173-5.391,0.119
		c-1.986-0.061-3.963-0.363-5.949-0.429c-3.664-0.119-7.328-0.154-10.994-0.199c-1.082-0.015-2.166,0.018-3.248,0.081
		c-2.045,0.12-4.086,0.375-6.129,0.396c-1.965,0.021-3.934-0.326-5.893-0.261c-2.562,0.084-5.113,0.591-7.67,0.593
		c-2.994,0.001-5.992-0.313-8.98-0.556c-1.332-0.107-2.105,0.439-2.156,1.835c-0.08,2.337-0.133,4.677-0.137,7.017
		c-0.004,2.556,0.037,5.114,0.102,7.671c0.053,2.19,0.152,4.381,0.256,6.569c0.074,1.605,0.309,3.212,0.258,4.811
		c-0.092,2.811-0.316,5.616-0.545,8.418c-0.234,2.843,0.816,5.601,0.201,8.532c-0.434,2.072,0.129,4.34,0.121,6.521
		c-0.018,4.21-0.193,8.419-0.178,12.629c0.014,3.945,0.262,7.892,0.27,11.836c0.008,2.971,0.955,5.935,0.07,8.91
		c-0.031,0.107,0.021,0.239,0.029,0.359c0.113,1.933,0.318,3.865,0.318,5.798c0.002,3.194-0.229,6.393-0.178,9.586
		c0.051,3.077,0.33,6.15,0.523,9.225c0.053,0.86,0.32,1.519,1.383,1.562c1.521,0.062,3.037,0.25,4.559,0.315
		c1.205,0.053,2.42-0.048,3.625,0.012c2.779,0.135,5.553,0.397,8.332,0.469c1.756,0.044,3.518-0.239,5.277-0.243
		c2.449-0.007,4.898,0.148,7.35,0.16c1.236,0.005,2.537-0.444,3.701-0.191c3.783,0.82,7.576,0.374,11.365,0.4
		c3.547,0.023,7.098-0.006,10.648,0c0.686,0.002,1.371,0.059,2.057,0.092c6.564,0.309,13.094-1.026,19.674-0.343
		c2.764,0.288,5.564,0.249,8.348,0.301c2.307,0.042,4.613,0.033,6.918-0.012c1.736-0.033,3.467-0.225,5.199-0.23
		c3.611-0.014,7.223,0.053,10.834,0.078c0.973,0.007,1.959,0.077,2.908-0.072c0.334-0.052,0.771-0.652,0.824-1.046
		c0.119-0.912,0.02-1.853,0.035-2.781c0.094-4.883,0.199-9.767,0.285-14.649c0.008-0.506-0.152-1.016-0.137-1.521
		c0.076-2.695,0.244-5.393,0.262-8.088c0.021-3.263-0.15-6.526-0.1-9.788c0.029-2.094,0.402-4.18,0.451-6.274
		C256.109,301.67,255.996,298.522,256.029,295.376z M143.896,341.65c0.465-0.921-0.078-0.372,0.952-0.394
		C144.315,341.648,144.777,341.426,143.896,341.65z M165.295,258.979c0.984-1.601,2.029-3.076,3.52-4.223
		c0.191-0.148,0.361-0.395,0.572-0.439c2.412-0.507,4.6-2.187,7.182-1.678c3.18,0.626,6.42,1.154,9.244,2.946
		c0.904,0.575,1.834,1.112,2.744,1.681c1.844,1.151,1.762,3.018,1.807,4.265c-0.199,3.417-0.691,6.186-2.15,8.676
		c-0.549,0.934-1.232,1.796-1.928,2.631c-3.791,4.558-9.84,4.994-14.406,3.044c-2.82-1.205-5.098-3.357-6.803-5.885
		c-0.699-1.036-0.613-2.619-0.826-3.962c-0.129-0.789-0.135-1.595-0.207-2.392C163.885,261.932,164.381,260.464,165.295,258.979z
		 M154.051,341.931c-0.613-0.045-1.228-0.09-1.842-0.135c0.827-1.712,0.542-0.983,1.876-0.325
		C154.073,341.624,154.062,341.776,154.051,341.931z M158.92,338.588c-0.306-0.022-0.613-0.045-0.92-0.067
		c-0.472-0.463-0.049-0.177-0.887-0.528c0.022-0.307,0.045-0.614,0.067-0.921c1.061,0.215,1.125,0.289,1.807,0.596
		C158.965,337.974,158.942,338.28,158.92,338.588z M162.129,345.297c-0.828-0.359-0.416-0.063-0.886-0.527
		c-0.154-0.012-0.307-0.022-0.461-0.034c0.687-1.122-0.045-0.613,1.447-0.818C162.196,344.378,162.162,344.837,162.129,345.297z
		 M172.482,282.292c0.154,4.269,0.355,8.535,0.457,12.803c0.107,4.521,0.102,9.043,0.186,13.562
		c0.053,2.853,0.168,5.706,0.273,8.556c0.057,1.563,0.104,3.131,0.254,4.686c0.078,0.801-0.193,0.999-0.924,0.978
		c-1.855-0.058-3.715-0.127-5.568-0.085c-2.137,0.048-4.271,0.256-6.406,0.309c-1.283,0.033-2.568-0.101-3.709-0.151
		c-0.123-3.357-0.242-6.628-0.361-9.898c-0.021-0.601-0.053-1.2-0.07-1.802c-0.057-2.01-0.111-4.019-0.158-6.028
		c-0.043-1.955-0.072-3.909-0.107-5.862c-0.078-4.109-0.062-8.222-0.262-12.324c-0.178-3.718-0.594-7.424-0.902-11.135
		c-0.08-0.944,0.195-1.455,1.262-1.794c2.779-0.889,5.533,0.04,8.289-0.139c0.139-0.009,0.301,0.1,0.426,0.191
		c1.906,1.394,3.76,2.865,5.729,4.161c0.941,0.619,2.1,0.908,3.393,1.442C172.615,280.027,172.439,281.099,172.482,282.292z
		 M195.76,323.775c-0.734,0.067-1.537,0.242-2.326,0.197c-4.266-0.237-8.525-0.553-12.787-0.789
		c-1.123-0.063-2.256,0.097-3.383,0.067c-0.271-0.007-0.742-0.338-0.766-0.56c-0.225-1.947-0.539-3.907-0.484-5.854
		c0.045-1.594-0.311-3.142-0.191-4.746c0.117-1.619-0.24-3.267-0.268-4.902c-0.033-1.851,0.135-3.706,0.104-5.558
		c-0.061-3.621-0.42-7.253-0.242-10.861c0.158-3.245-0.701-6.516,0.271-9.743c0.1-0.333-0.391-0.844-0.562-1.183
		c1.363-0.088,2.793-0.165,4.223-0.282c0.52-0.044,1.045-0.138,1.545-0.287c1.145-0.34,2.266-0.76,3.416-1.088
		c1.555-0.446,2.111-1.931,2.982-3.004c1.094-1.349,2.352-1.83,3.957-1.76c1.473,0.064,2.945,0.154,4.512,0.239
		C195.76,290.275,195.76,306.899,195.76,323.775z M218.545,323.185c-0.01,0.391-0.562,1.005-0.963,1.1
		c-1.012,0.238-2.084,0.361-3.125,0.313c-3.305-0.155-6.605-0.423-9.908-0.621c-1.371-0.081-2.748-0.18-4.113-0.109
		c-1.027,0.054-1.471-0.56-1.586-1.29c-0.203-1.309-0.17-2.652-0.246-3.979c-0.053-0.924-0.154-1.848-0.184-2.773
		c-0.119-3.723-0.383-7.448-0.279-11.164c0.1-3.457,0.18-6.882-0.1-10.346c-0.229-2.799,0.174-5.646,0.277-8.474
		c0.102-2.77,0.193-5.54,0.258-8.31c0.023-0.965-0.053-1.931-0.082-2.896c-0.021-0.72,0.229-1.18,1.049-1.128
		c1.525,0.097,3.072,0.362,4.576,0.224c1.803-0.165,2.869,0.447,3.951,1.905c2.115,2.85,5.375,3.742,8.711,4.346
		c0.342,0.062,0.85,0.498,0.879,0.801c0.211,2.124,0.318,4.258,0.457,6.388c-0.066,0.005-0.135,0.009-0.201,0.012
		c0.113,2.614,0.277,5.229,0.33,7.845c0.041,2.047-0.068,4.095-0.082,6.143c-0.008,0.925,0.055,1.85,0.082,2.773
		c0.105,3.853,0.23,7.704,0.305,11.558C218.602,318.062,218.621,320.626,218.545,323.185z M216.562,276.929
		c-2.395-0.64-4.619-1.368-6.545-2.912c-0.465-0.371-0.9-0.817-1.227-1.311c-1.529-2.318-3.113-4.675-3.129-7.562
		c-0.023-4.092,1.359-7.594,4.969-9.898c1.27-0.811,2.537-1.704,3.932-2.214c1.242-0.455,2.658-0.437,3.998-0.626
		c2.715,0.057,5.289,0.532,7.74,1.698c0.869,0.416,1.936,0.509,2.686,1.059c1.139,0.836,2.094,1.932,3.109,2.936
		c0.979,0.969,1.096,2.25,1.037,3.495c-0.074,1.558-0.084,3.197-0.594,4.635c-0.549,1.549-1.58,2.949-2.52,4.334
		c-0.879,1.297-1.818,2.585-2.916,3.697c-0.85,0.863-1.887,1.754-3.004,2.099C221.674,277.105,219.26,277.649,216.562,276.929z
		 M240.455,322.688c-0.053,0.765-0.555,0.914-1.168,0.932c-3.74,0.104-7.482,0.194-11.223,0.302
		c-1.77,0.049-3.539,0.136-5.307,0.182c-0.381,0.011-0.762-0.084-0.805-0.09c-0.254-0.687-0.424-1.095-0.553-1.517
		c-0.08-0.267-0.133-0.554-0.145-0.831c-0.121-3.133-0.279-6.263-0.33-9.396c-0.039-2.315,0.123-4.634,0.096-6.948
		c-0.047-3.881-0.182-7.759-0.268-11.641c-0.066-3.09-0.109-6.181-0.17-9.271c-0.02-0.915-0.143-1.836-0.072-2.742
		c0.061-0.761,0.467-1.33,1.35-1.473c3.352-0.536,5.938-2.23,7.875-5.048c0.742-1.081,1.465-2.473,3.043-2.534
		c2.047-0.08,4.105-0.025,6.154,0.047c0.861,0.03,1.076,0.669,1.053,1.467c-0.082,2.779-0.205,5.559-0.168,8.337
		c0.055,4.023,0.244,8.048,0.367,12.07c0.117,3.834,0.232,7.666,0.336,11.501c0.109,3.996,0.242,7.994,0.273,11.992
		C240.809,319.578,240.561,321.133,240.455,322.688z M245.274,270.908c0.359-0.826,0.062-0.414,0.524-0.886
		C245.442,270.849,245.739,270.438,245.274,270.908z"/>
	<path fill-rule="evenodd" clip-rule="evenodd" fill="#444444" d="M135.691,353.101c0.354-5.436,0.768-10.869,1.023-16.309
		c0.006-0.133,0.009-0.266,0.015-0.398c-0.372,0.013-0.786,0.017-1.237,0.017c0.057-0.767,0.112-1.535,0.169-2.302
		c0.438,0.124,0.787,0.236,1.142,0.335c0.111-3.415,0.131-6.834,0.139-10.252c0-0.349-0.621-0.84-1.055-1.014
		c-0.662-0.27-1.422-0.284-2.123-0.472c-0.186-0.05-0.371-0.102-0.557-0.152c-0.233,0.57-0.028,0.275-0.452,0.704
		c0.306-0.698,0.142-0.514,0.367-0.728c-2.435-0.659-4.86-1.349-7.306-1.966c-0.346-0.088-1.09,0.143-1.145,0.354
		c-0.312,1.235-0.564,2.499-0.666,3.767c-0.143,1.751-0.104,3.517-0.197,5.271c-0.09,1.64-0.27,3.273-0.381,4.91
		c-0.189,2.798-0.355,5.597-0.533,8.396c-0.252,3.973-0.506,7.946-0.76,11.921c-0.158,2.462-0.285,4.925-0.484,7.382
		c-0.145,1.797-0.453,3.584-0.564,5.382c-0.205,3.364-0.328,6.733-0.469,10.103c-0.023,0.504,0.084,1.142,0.783,0.845
		c1.92-0.819,3.857-0.572,5.83-0.36c0.732,0.079,1.494-0.162,2.242-0.179c1.426-0.033,2.854-0.01,4.344-0.01
		c0.307-2.565,0.645-4.797,0.818-7.044c0.193-2.48,0.201-4.975,0.348-7.459C135.191,360.26,135.459,356.68,135.691,353.101z
		 M121.926,370.104c-0.474-0.448-0.054,0.041-0.426-0.494c-0.152-0.012-0.307-0.022-0.46-0.034c0.538-0.359,0.417-0.275,1.412-0.359
		C122.277,369.514,122.102,369.809,121.926,370.104z M125.977,327.389c-0.965-0.241-0.862-0.124-1.345-0.562
		c-0.475-0.45-0.055,0.043-0.427-0.495c1.146-0.221,0.739-0.237,1.839,0.135C126.021,326.773,125.999,327.08,125.977,327.389z
		 M130.914,361.049c-1.421-0.543-1.825-0.966-2.133-2.467c-0.153-0.012-0.307-0.022-0.46-0.034c0.758-1.425,1.561,0.712,2.66,1.582
		C130.959,360.438,130.937,360.743,130.914,361.049z M130.545,347.146c-0.154-0.011-0.308-0.022-0.461-0.033
		c0.022-0.306,0.046-0.615,0.067-0.921c0.588-0.457,1.089-1.099,1.514-1.737c0.767,0.056,1.532,0.112,2.302,0.168
		C132.973,345.968,131.817,346.175,130.545,347.146z M131.454,334.725c-0.154-0.011-0.308-0.022-0.46-0.033
		c0.113-1.84,0.098-2.446,1.154-3.152c0.849-0.419,2.108,0.896,3.119,1.617C133.938,334.002,132.511,333.544,131.454,334.725z"/>
	<path fill-rule="evenodd" clip-rule="evenodd" fill="#444444" d="M152.006,395.642c-0.826-2.702-2.305-5.141-4.318-7.137
		c-1.566-1.552-3.258-3.033-5.098-4.233c-1.498-0.979-3.289-1.518-4.969-2.206c-1.033-0.424-2.084-1.021-3.156-1.085
		c-1.664-0.1-3.333-0.102-5.002-0.104c-0.01,0.138-0.021,0.275-0.03,0.413c-0.596,0.359-0.552,0.312-0.988,0.854
		c-0.306-0.022-0.613-0.045-0.919-0.067c0.246-0.667,0.425-0.912,0.608-1.205c-0.79-0.006-1.579-0.018-2.368-0.048
		c-1.234-0.047-2.357,0.077-3.537,0.491c-0.939,0.326-2.047,0.132-3.055,0.302c-1.166,0.196-2.414,0.334-3.434,0.864
		c-1.508,0.787-2.857,1.889-4.256,2.881c-0.283,0.2-0.467,0.537-0.736,0.764c-0.596,0.499-1.217,0.971-1.832,1.448
		c-0.561,0.435-1.195,0.796-1.666,1.309c-0.623,0.679-1.096,1.493-1.676,2.213c-0.74,0.92-1.697,1.708-2.256,2.719
		c-1.971,3.552-3.521,7.272-3.93,11.542c1.494-0.125,2.91-0.48,4.256-0.302c2.166,0.284,4.275,0.467,6.484,0.404
		c5.49-0.157,10.994,0.056,16.494,0.1c0.553,0.004,1.111-0.194,1.662-0.178c1.354,0.038,2.705,0.156,4.057,0.229
		c0.803,0.044,1.605,0.073,2.406,0.098c2.617,0.08,5.256-0.027,7.842,0.29c2.232,0.272,4.377,0.205,6.576-0.162
		c1.047-0.176,2.188-0.058,3.246,0.147c1.01,0.196,1.418,0.024,1.404-1.062c-0.01-0.642-0.062-1.292-0.189-1.921
		C153.121,400.539,152.74,398.036,152.006,395.642z M126.503,383.389c-0.826-0.36-0.416-0.063-0.888-0.526
		c-0.471-0.45-0.052,0.042-0.426-0.493c0.722-0.211,0.786-0.286,1.874-0.327C126.877,382.493,126.69,382.941,126.503,383.389z
		 M136.691,383.211c-0.36,0.825-0.062,0.414-0.527,0.885C136.522,383.27,136.226,383.682,136.691,383.211z M135.601,404.404
		c0.011-0.154,0.022-0.306,0.033-0.458c-0.304-0.022-0.611-0.045-0.918-0.067c0.023-0.308,0.046-0.616,0.067-0.92
		c0.449,0.187,0.896,0.371,1.346,0.56C136.129,403.519,135.876,405.319,135.601,404.404z M136.038,398.425
		c0.011-0.155,0.022-0.307,0.033-0.461c-0.15-0.011-0.304-0.021-0.457-0.033c0.237-0.966,0.125-0.863,0.559-1.348
		c0.63-0.29,0.642-0.143,1.349,0.56c0.358,0.542,0.277,0.42,0.359,1.417C137.266,398.515,136.652,398.47,136.038,398.425z
		 M140.234,404.283c-0.011,0.151-0.021,0.304-0.033,0.458c-0.472-0.449-0.054,0.043-0.426-0.492
		c-0.391-1.247-0.131-1.054,0.988-0.853C140.404,404.221,140.701,403.808,140.234,404.283z M140.819,389.986
		c-0.756-0.211-1.509-0.42-2.265-0.629c0.555-2.285,0.983-1.213,2.332-0.29C140.864,389.372,140.842,389.679,140.819,389.986z"/>
	<path fill-rule="evenodd" clip-rule="evenodd" fill="#444444" d="M139.348,318.43c-0.1-1.245-0.215-2.493-0.227-3.74
		c-0.049-4.017-0.047-8.033-0.072-12.05c-0.018-2.735-0.076-5.471-0.07-8.206c0.006-4.663,0.051-9.327,0.07-13.99
		c0.012-2.567,0.002-5.133,0.002-7.699c-0.07-0.002-0.137-0.002-0.207-0.002c0.014-0.242,0.027-0.484,0.039-0.727
		c0.062-1.35-0.055-1.523-1.424-1.295c-1.076,0.179-2.113,0.589-3.17,0.893c-1.295,0.372-2.662,0.584-3.869,1.141
		c-3.057,1.405-6.002,3.026-8.482,5.357c-0.373,0.352-0.732,0.743-1.002,1.177c-1.268,2.034-2.529,4.073-3.74,6.142
		c-0.621,1.062-1.357,2.134-1.65,3.299c-0.351,1.385-0.643,2.773-0.856,4.167c0.278-0.048,0.562-0.071,0.867-0.033
		c-0.033,0.462-0.067,0.923-0.101,1.382c-0.594,0.355-0.553,0.31-0.988,0.851c-0.012,0.001-0.023,0.001-0.035,0.002
		c-0.192,2.488-0.042,4.99,0.717,7.503c0.24,0.799,0.617,1.581,0.709,2.396c0.299,2.688,1.385,4.996,3.18,6.979
		c0.975,1.075,2.143,1.997,2.99,3.157c1.016,1.388,2.381,2.186,3.895,2.707c2.117,0.726,4.297,1.275,6.459,1.856
		c1.479,0.398,2.959,0.909,4.469,1.038C139.123,320.928,139.518,320.606,139.348,318.43z M119.818,297.802
		c-0.827-0.359-0.417-0.065-0.887-0.528c-0.574-0.82-0.461-1.697-1.213-2.401c0.012-0.154,0.022-0.309,0.034-0.46
		c1.147,0.588,1.217,1.276,2.166,2.006C119.886,296.879,119.852,297.341,119.818,297.802z M120.525,288.138
		c0.238-0.964,0.126-0.861,0.561-1.347c0.536-0.387,0.075-0.165,0.953-0.391c-0.011,0.154-0.022,0.307-0.033,0.458
		c0.39,0.538,0.168,0.076,0.395,0.954C121.678,288.022,121.614,288.098,120.525,288.138z M123.31,294.357
		c-0.306-0.022-0.615-0.045-0.922-0.067c-0.315-0.449-0.537-0.543-0.854-0.989c1.147-0.221,0.74-0.24,1.843,0.135
		C123.354,293.742,123.332,294.051,123.31,294.357z M135.157,303.084c0.359-0.825,0.062-0.414,0.525-0.884
		C135.326,303.026,135.622,302.614,135.157,303.084z"/>
</g>
</svg>
