<?xml version="1.0" encoding="utf-8"?>
<!-- Generator: Adobe Illustrator 16.0.0, SVG Export Plug-In . SVG Version: 6.00 Build 0)  -->
<!DOCTYPE svg PUBLIC "-//W3C//DTD SVG 1.1//EN" "http://www.w3.org/Graphics/SVG/1.1/DTD/svg11.dtd">
<svg version="1.1" id="Layer_1" xmlns="http://www.w3.org/2000/svg" xmlns:xlink="http://www.w3.org/1999/xlink" x="0px" y="0px"
	 width="800px" height="325px" viewBox="0 0 800 325" enable-background="new 0 0 800 325" xml:space="preserve">
<g>
	<g>
		<path fill-rule="evenodd" clip-rule="evenodd" fill="#444444" d="M583.848,229.122c0.469,9.103,0.92,17.899,1.369,26.651
			c0.178,0.08,0.256,0.147,0.33,0.14c3.416-0.457,6.838-0.898,10.246-1.399c0.797-0.12,0.826-0.759,0.801-1.489
			c-0.098-2.866-0.121-5.732-0.133-8.601c-0.004-1.142,0.139-2.286,0.139-3.429c0-3.473-0.012-6.951-0.09-10.43
			c-0.008-0.436-0.361-1.168-0.676-1.236c-0.893-0.203-1.85-0.188-2.777-0.156c-1.391,0.047-2.777,0.265-4.164,0.261
			C587.33,229.428,585.762,229.251,583.848,229.122z"/>
		<path fill-rule="evenodd" clip-rule="evenodd" fill="#444444" d="M654.238,255.245c0-0.816,0.043-1.653-0.006-2.485
			c-0.182-3.045-0.381-6.091-0.602-9.136c-0.115-1.557-0.389-3.113-0.4-4.672c-0.016-2.495,0.109-4.998,0.207-7.494
			c0.043-1.11-0.373-1.577-1.541-1.591c-1.91-0.026-3.82-0.218-5.73-0.317c-0.891-0.042-1.811-0.156-2.67,0
			c-1.777,0.327-2.369,0.865-2.434,2.639c-0.076,2.23,0.113,4.468,0.244,6.699c0.17,2.87,0.379,5.742,0.598,8.612
			c0.064,0.85,0.285,1.693,0.307,2.54c0.047,1.949,0.016,3.902,0.016,5.741C646.443,255.497,650.254,253.972,654.238,255.245z"/>
		<path fill-rule="evenodd" clip-rule="evenodd" fill="#444444" d="M610.285,125.948c-0.092,1.174-0.301,2.516-0.285,3.854
			c0.041,3.276,0.17,6.552,0.295,9.828c0.055,1.336,0.479,1.623,1.861,1.596c4.348-0.079,8.689-0.156,13.037-0.162
			c0.826-0.002,1.217-0.227,1.229-1.033c0.025-1.685,0.088-3.371,0.059-5.048c-0.043-2.448-0.752-4.887-0.139-7.362
			c0.113-0.432-0.08-0.932-0.07-1.397c0.016-0.696-0.326-0.859-0.957-0.835C620.35,125.585,615.381,125.76,610.285,125.948z"/>
		<path fill-rule="evenodd" clip-rule="evenodd" fill="#444444" d="M632.773,98.86c0-0.72,0.021-1.439-0.006-2.163
			c-0.059-1.541,0.533-2.284,2.057-2.269c1.57,0.016,3.137,0.221,4.709,0.298c0.398,0.019,0.84-0.071,1.207-0.239
			c1.404-0.632,2.986,0.239,2.973,1.807c-0.016,1.521-0.258,3.03-0.402,4.549c-0.074,0.757-0.125,1.514-0.238,2.27
			c-0.117,0.785-0.555,1.147-1.414,1.099c-2.225-0.13-4.469-0.083-6.68-0.333c-0.68-0.073-1.611-0.76-1.834-1.384
			c-0.406-1.12-0.367-2.402-0.516-3.62C632.678,98.87,632.727,98.862,632.773,98.86z"/>
		<path fill-rule="evenodd" clip-rule="evenodd" fill="#444444" d="M599.049,98.5c0,1.218,0.059,2.536-0.035,3.843
			c-0.027,0.413-0.412,1.072-0.742,1.145c-2.906,0.646-5.791,1.771-8.838,0.818c-0.406-0.124-1.008-0.418-1.068-0.721
			c-0.266-1.361-1.043-2.592-0.82-4.104c0.182-1.239-0.086-2.537-0.023-3.807c0.096-2.068,0.523-2.219,2.543-1.793
			c1.445,0.299,2.971,0.171,4.453,0.315c1.254,0.126,2.559,0.182,3.709,0.615c0.477,0.182,0.703,1.249,0.871,1.951
			C599.227,97.273,599.076,97.856,599.049,98.5z"/>
		<path fill-rule="evenodd" clip-rule="evenodd" fill="#444444" d="M715.779,212.673c-1.336-2.41-2.715-4.602-4.99-5.844
			c-0.17,0.438-0.012,0.2-0.432,0.619c0.27-0.613,0.199-0.584,0.301-0.684c-0.648-0.34-1.35-0.618-2.162-0.789
			c-3.211-0.679-6.42-0.768-9.598,0.22c-1.182,0.365-2.371,0.718-3.504,1.194c-1.209,0.509-2.678,0.881-3.459,1.8
			c-1.498,1.757-2.859,3.742-3.775,5.847c-1.068,2.459-1.502,5.115-0.473,7.845c1.021,2.718,2.15,5.337,4.307,7.378
			c1.221,1.156,1.754,1.057,2.365-0.533c0.383-0.988,0.523-2.08,0.953-3.039c0.918-2.052,1.932-4.064,2.945-6.076
			c0.57-1.123,1.398-2.149,1.789-3.326c0.365-1.094,0.781-1.819,1.904-2.313c1.621-0.718,2.635-0.374,3.133,1.386
			c0.111,0.396,0.312,0.798,0.564,1.113c1.703,2.127,3.441,4.217,5.143,6.341c0.873,1.091,1.688,2.226,2.756,3.644
			c0.67-1.25,1.311-2.191,1.707-3.231C716.684,220.452,718.035,216.758,715.779,212.673z M708.205,210.218
			c-0.324-0.021-0.65-0.046-0.973-0.067c0.012-0.163,0.025-0.325,0.035-0.486c0.324,0.025,0.648,0.047,0.973,0.07
			C708.229,209.899,708.215,210.058,708.205,210.218z"/>
		<path fill-rule="evenodd" clip-rule="evenodd" fill="#444444" d="M702.471,198.851c-1.154-3.69-2.785-7.169-4.785-10.455
			c-1.234-2.033-2.658-3.973-4.182-5.801c-0.957-1.152-2.229-2.059-3.416-3c-0.553-0.436-1.262-0.673-1.883-1.034
			c-1.652-0.953-3.258-2.005-4.963-2.86c-0.812-0.408-1.797-0.512-2.719-0.654c-0.645-0.093-1.053,0.195-0.949,0.978
			c0.223,1.72,0.463,3.444,0.584,5.177c0.127,1.739,0.098,3.491,0.189,5.235c0.014,0.29,0.238,0.71,0.477,0.826
			c0.688,0.315,1.469,0.432,2.145,0.759c1.451,0.701,2.963,1.344,4.256,2.278c1.15,0.829,2.07,1.993,3.031,3.06
			c1.094,1.217,2.301,2.387,3.135,3.775c1.234,2.062,2.184,4.301,3.109,6.176c2.586-0.463,4.789-0.855,7.104-1.271
			C703.154,200.784,702.773,199.829,702.471,198.851z M701.66,199.483c-0.648-0.047-1.297-0.094-1.945-0.141
			c0.014-0.163,0.023-0.324,0.037-0.486c1.213-0.236,0.783-0.256,1.943,0.141C701.682,199.162,701.672,199.323,701.66,199.483z"/>
		<path fill-rule="evenodd" clip-rule="evenodd" fill="#444444" d="M666.666,272.096c-0.182-0.823-0.199-1.73-0.58-2.446
			c-0.982-1.865-2.131-3.643-3.203-5.46c-0.268-0.453-0.375-1.093-0.76-1.365c-1.504-1.071-3.072-2.056-4.648-3.014
			c-0.717-0.439-1.48-0.835-2.268-1.116c-1.102-0.4-2.287-1.051-3.365-0.934c-3.111,0.324-6.301,0.629-9.25,1.593
			c-3.85,1.256-7.549,2.979-9.924,6.495c0.113,0.55,0.268,1.057,0.52,1.419c-0.037,0.485-0.07,0.968-0.105,1.454
			c-0.564,0.396-0.053-0.053-0.523,0.455c-0.781-0.144-1.342-0.311-1.789-0.463c-0.174,0.584-0.34,1.169-0.5,1.758
			c0.242,0.018,0.484,0.037,0.727,0.055c-0.381,0.875-0.066,0.441-0.557,0.938c0.012-0.166,0.023-0.328,0.035-0.486
			c-0.332-0.318-0.252-0.196-0.273-0.245c-0.256,0.955-0.5,1.909-0.785,2.862c-0.234,0.793,0.141,0.875,0.76,0.879
			c2.188,0.008,4.373,0.033,6.559,0.049c-0.053-0.059-0.104-0.107-0.158-0.17c-0.164-0.012-0.322-0.024-0.484-0.034
			c0.627-0.424,5.162-1.45,5.975-1.515c-0.004,0.995-0.037,1.393,0.111,1.725c2.498-0.004,4.996-0.006,7.49,0.021
			c1.609,0.02,3.219,0.309,4.822,0.273c3.615-0.073,7.223-0.311,10.84-0.4c0.803-0.021,1.088-0.322,1.143-1.015
			c0.033-0.422,0.006-0.854,0.006-1.281C666.539,272.117,666.605,272.107,666.666,272.096z M632.689,274.067
			c-0.873-0.377-0.439-0.062-0.936-0.561c-0.164-0.01-0.324-0.021-0.486-0.033c0.723-1.182-0.049-0.646,1.529-0.863
			C632.764,273.097,632.727,273.583,632.689,274.067z M654.877,271.292c-0.16-0.01-0.324-0.021-0.486-0.034
			c0.025-0.321,0.047-0.644,0.07-0.969c0.326,0.021,0.65,0.045,0.975,0.07C655.25,270.671,655.064,270.983,654.877,271.292z"/>
		<path fill-rule="evenodd" clip-rule="evenodd" fill="#444444" d="M595.506,274.766c0,0.069,0.004,0.136,0.006,0.202
			c2.432-0.072,4.871-0.274,7.346-0.477c0.004-0.055,0.008-0.111,0.012-0.163c0.105,0.044,0.213,0.089,0.32,0.138
			c1.291-0.109,2.582-0.21,3.891-0.293c-0.162-1.34-0.254-2.771-0.529-4.172c-0.211-1.076-0.594-2.127-1.006-3.149
			c-0.389-0.967-0.809-1.96-1.41-2.798c-0.654-0.904-1.594-1.597-2.301-2.47c-2.117-2.612-4.455-4.562-8.174-3.624
			c-1.312,0.33-2.713,0.322-4.066,0.483c-1.08,0.124-2.162,0.22-3.219,0.436c-0.697,0.14-1.359,0.457-2.021,0.733
			c-1.672,0.693-3.465,1.213-4.975,2.176c-1.311,0.842-2.248,2.248-3.438,3.306c-2.457,2.182-2.922,5.191-3.508,8.149
			c-0.178,0.887,0.131,1.474,1.215,1.442c2.004-0.063,4.033-0.253,6.01-0.03c4.256,0.483,8.529,0.217,12.787,0.328
			c0.602,0.014,1.199,0.02,1.797,0.014C594.57,274.792,594.627,274.835,595.506,274.766z M597.027,260.711
			c-0.381,0.873-0.066,0.438-0.561,0.933C596.85,260.771,596.535,261.204,597.027,260.711z M586.82,259.966
			c1.047-0.105,0.922,0.002,1.494-0.383c0.322,0.023,0.645,0.047,0.975,0.07c0.248,0.918,0,0.445,0.414,1.009
			c-0.037,0.486-0.074,0.97-0.107,1.454c-0.963-0.232-1.92-0.463-2.881-0.697C586.75,260.935,586.785,260.452,586.82,259.966z
			 M590.068,268.996c-0.021,0.321-0.045,0.647-0.07,0.972c-1.303-0.519-1.352-0.948-2.322-1.633c0.021-0.328,0.047-0.651,0.07-0.979
			c0.562-0.393,0.049,0.055,0.521-0.451c0.646,0.051,1.297,0.1,1.945,0.146C590.164,268.523,590.432,268.423,590.068,268.996z
			 M592.879,270.663c0.377-0.871,0.062-0.438,0.555-0.932C593.057,270.603,593.369,270.169,592.879,270.663z"/>
		<path fill-rule="evenodd" clip-rule="evenodd" fill="#444444" d="M664.168,101.868c-0.311-1.932-0.076-3.944-0.168-5.917
			c-0.029-0.665-0.297-1.33-0.523-1.974c-0.432-1.228-1.057-2.41-1.346-3.67c-0.656-2.823-2.553-4.987-4.736-6.282
			c-3.018-1.792-5.883-4.254-9.691-4.44c-0.25-0.013-0.49-0.153-0.74-0.203c-0.676-0.146-1.359-0.394-2.037-0.386
			c-2.965,0.029-5.928,0.231-8.891,0.193c-3.49-0.046-6.979-0.245-10.467-0.436c-2.162-0.118-4.32-0.47-6.482-0.455
			c-3.006,0.016-6.014,0.304-9.023,0.429c-5.701,0.236-11.398,0.432-17.096,0.646c-0.014-0.07-0.029-0.135-0.043-0.196
			c-1.713,0.292-3.428,0.573-5.137,0.883c-1.553,0.275-3.096,0.622-4.658,0.862c-3.193,0.499-6.482,0.706-9.271,2.572
			c-2.127,1.43-4.711,2.201-5.99,4.834c-1.076,2.21-1.84,4.483-2.252,6.819c0.289-0.32,0.908-0.382,1.537-0.293
			c-0.035,0.485-0.072,0.975-0.109,1.463c-0.562,0.396-0.049-0.055-0.52,0.449c-0.875-0.381-0.439-0.066-0.936-0.56
			c-0.045-0.098-0.064-0.188-0.09-0.274c-0.168,1.222-0.256,2.454-0.225,3.716c0.049,1.842,0.826,3.662,0.984,5.516
			c0.234,2.793,1.365,5.161,3.295,7.019c0.611,0.591,1.34,1.067,2.105,1.501c0.672-0.058,0.84-0.137,1.467-0.318
			c0.111,0.515,0.08,0.84,0.078,1.13c0.273,0.137,0.545,0.275,0.811,0.415c1.535,0.806,3.16,1.44,4.732,2.18
			c0.879,0.416,1.68,1.1,2.6,1.303c2.406,0.525,4.859,0.837,7.289,1.257c1.652,0.282,3.289,0.677,4.947,0.883
			c1.182,0.147,2.396-0.01,3.592,0.091c2.711,0.229,5.414,0.541,8.125,0.809c0.211,0.021,0.43-0.019,0.641-0.002
			c1.625,0.141,3.246,0.27,4.873,0.433c1.133,0.113,2.26,0.351,3.395,0.371c1.223,0.02,2.443-0.2,3.67-0.218
			c2.627-0.033,5.273,0.193,7.881-0.046c6.143-0.562,12.354-0.257,18.445-1.457c0.91-0.182,1.859-0.214,2.748-0.465
			c2.189-0.61,4.426-1.128,6.512-2.013c2.738-1.168,4.373-3.729,6.207-5.894c1.404-1.657,2.893-3.378,3.322-5.787
			C663.25,104.88,664.455,103.667,664.168,101.868z M577.463,114.178c-1.467-0.568-1.713-1.196-3.293-1.708
			c0.047-0.648,0.09-1.295,0.141-1.945c-1.021-0.252-0.914-0.128-1.422-0.591c-0.164-0.01-0.322-0.022-0.486-0.034
			c-0.381-0.409,0.957-0.839,1.045-0.903c1.012-0.409,0.5,1.1,1.902,0.63c0.025-0.322,0.049-0.648,0.072-0.97
			c0.664-0.118,1.32-0.229,1.982-0.345c0.205,1.646,0.408,3.283,0.615,4.932C577.529,113.74,577.834,113.294,577.463,114.178z
			 M610.055,105.642c-1.314,1.949-2.598,3.923-3.973,5.832c-0.35,0.485-0.941,0.936-1.512,1.101c-2.82,0.82-5.645,1.63-8.512,2.264
			c-2.402,0.531-4.848,0.428-7.199-0.413c-4.236-1.516-8.543-2.951-11.111-7.06c-0.551-0.883-0.85-1.942-1.182-2.94
			c-1.393-4.174-0.83-7.961,2.146-11.344c1.385-1.577,2.393-3.484,4.373-4.515c3.699-1.924,7.311-4.047,11.799-2.947
			c1.201,0.294,2.529,0.03,3.76,0.246c3.703,0.642,6.523,2.72,9.113,5.392c1.668,1.723,2.65,3.683,3.406,5.832
			c0.232,0.664,0.201,1.421,0.289,2.129C611.246,101.428,611.369,103.681,610.055,105.642z M655.121,103.506
			c-0.631,2.384-1.668,4.579-3.092,6.749c-2.807,4.268-6.955,5.035-11.332,5.669c-0.682,0.097-1.43-0.376-2.162-0.47
			c-0.676-0.094-1.426-0.197-2.049-0.008c-1.881,0.559-3.445-0.322-5.021-1.002c-1.715-0.738-3.43-1.543-5.01-2.529
			c-2.596-1.629-4.176-3.905-4.691-7.079c-0.359-2.222-0.697-4.389-0.215-6.573c0.637-2.91,1.656-5.644,3.605-8.024
			c2.906-3.547,6.762-4.877,11.121-5.178c1.332-0.098,2.676-0.088,4.008-0.008c0.859,0.054,1.676,0.302,1.943,1.362
			c0.053,0.211,0.609,0.295,0.932,0.439c0.957,0.42,1.916,0.823,2.865,1.254c0.23,0.106,0.424,0.39,0.643,0.398
			c2.723,0.119,4.26,2.536,6.615,3.405c0.662,0.247,1.217,1.218,1.5,1.985c0.457,1.246,0.652,2.598,0.885,3.583
			C655.488,99.747,655.598,101.704,655.121,103.506z"/>
		<path fill-rule="evenodd" clip-rule="evenodd" fill="#444444" d="M678.406,223.116c-0.225-2.691-0.568-5.379-0.707-8.076
			c-0.072-1.465,0.297-2.941,0.271-4.415c-0.068-4.702-0.238-9.405-0.354-14.107c-0.115-4.62-0.141-9.244-0.348-13.858
			c-0.17-3.759-0.549-7.506-0.838-11.261c0.098-0.005,0.193-0.013,0.287-0.017c0-1.402,0.035-2.809-0.008-4.213
			c-0.072-2.292-0.197-4.586-0.293-6.871c-0.055-1.396-0.078-2.797-0.145-4.19c-0.061-1.176-0.229-2.351-0.24-3.527
			c-0.016-1.987,0.062-3.977,0.09-5.966c0.021-1.408,0.303-2.792-2.09-2.413c-1.826,0.288-3.764-0.206-5.65-0.21
			c-3.844-0.008-7.688,0.084-11.531,0.115c-1.865,0.016-3.734,0.008-5.602-0.018c-1.604-0.021-3.207-0.094-4.814-0.125
			c-2.211-0.049-4.422-0.078-6.631-0.112c-2.598-0.039-5.195-0.076-7.793-0.108c-1.357-0.021-2.715-0.039-4.07-0.03
			c-0.934,0.004-1.861,0.072-2.793,0.066c-3.154-0.018-6.311-0.155-9.459-0.059c-2.857,0.088-5.707,0.432-8.561,0.636
			c-0.719,0.057-1.451-0.016-2.172,0.004c-2.535,0.076-5.07,0.188-7.605,0.237c-2.014,0.039-4.047-0.175-6.033,0.049
			c-2.104,0.237-4.127,0.004-6.17-0.29c-1.178-0.165-2.359-0.445-3.533-0.453c-2.328-0.018-4.65,0.121-6.975,0.184
			c-2.357,0.065-4.711,0.114-7.064,0.181c-2.582,0.071-5.166,0.198-7.744,0.226c-1.736,0.02-2.256,0.568-2.15,2.353
			c0.016,0.267,0.025,0.532,0.041,0.798c0.232-0.057,0.463-0.115,0.693-0.172c-0.381,0.875-0.066,0.441-0.557,0.938
			c-0.016,0.162-0.025,0.322-0.037,0.483c-0.018-0.015-0.025-0.021-0.041-0.034c0.104,1.952,0.186,3.908,0.26,5.859
			c0.059,1.596,0.037,3.191,0.094,4.785c0.09,2.627,0.209,5.254,0.336,7.881c0.031,0.629,0.164,1.25,0.221,1.88
			c0.115,1.256,0.279,2.513,0.297,3.771c0.051,3.336,0.033,6.666,0.055,10c0.014,1.9,0.088,3.804,0.062,5.699
			c-0.02,1.612-0.264,3.221-0.193,4.822c0.145,3.264,0.498,6.517,0.65,9.781c0.24,5.058,0.412,10.117,0.562,15.179
			c0.064,2.32,0.006,4.644-0.008,6.967c-0.006,0.739,0.324,1.101,1.076,1.104c2.975,0.006,5.957,0.055,8.936,0.027
			c2.898-0.031,5.795-0.194,8.689-0.206c4.254-0.018,8.512,0.058,12.764,0.063c1.225,0.002,2.453-0.172,3.678-0.145
			c3.197,0.073,6.389,0.252,9.582,0.305c3.195,0.049,6.391-0.012,9.582,0c1.404,0.004,2.816,0.098,4.221,0.1
			c3.146,0.008,6.293-0.008,9.438-0.033c5.033-0.039,10.068-0.104,15.1-0.131c1.15-0.008,2.301,0.088,3.451,0.145
			c2.406,0.126,4.811,0.338,7.219,0.355c2.287,0.018,4.578-0.154,6.867-0.265c5.615-0.274,11.227-0.554,16.84-0.865
			c0.297-0.018,0.797-0.323,0.824-0.546C678.486,224.646,678.471,223.872,678.406,223.116z M560.83,154.488
			c-0.484-0.036-0.971-0.073-1.455-0.106c0.727-1.182-0.053-0.649,1.527-0.866C560.877,153.841,560.854,154.165,560.83,154.488z
			 M579.926,153.934c-0.381,0.873-0.062,0.438-0.557,0.935C579.748,153.995,579.438,154.431,579.926,153.934z M576.643,145.386
			c1.119,0.425,1.043,0.585,1.873,1.113c-0.83,0.43-0.691,0.467-1.461-0.104c-0.16-0.013-0.322-0.024-0.482-0.037
			C576.596,146.034,576.619,145.71,576.643,145.386z M573.301,151.007c0.996-0.496,0.373-0.121,1.461,0.104
			c-0.188,0.314-0.373,0.626-0.559,0.932c-0.484-0.033-0.975-0.067-1.461-0.102C573.121,151.067,572.812,151.503,573.301,151.007z
			 M573.809,157.395c-0.848,0.345-0.195,0.347-0.969-0.077c-0.164-0.01-0.328-0.021-0.49-0.033
			C573.129,156.051,572.523,156.778,573.809,157.395z M570.789,158.636c-0.027,0.324-0.049,0.646-0.072,0.974
			c-0.324-0.023-0.648-0.048-0.969-0.072C570.135,158.215,569.535,158.634,570.789,158.636z M566.49,167.453
			c0.326-0.999,0.402-2.096,0.807-3.058c0.258-0.611,0.824-1.341,1.41-1.52c2.145-0.675,4.354-1.142,5.879-1.519
			c3.572,0.006,5.316,2.359,5.129,5.228c-0.154,2.34-1.311,3.826-3.068,4.905c-0.836,0.517-2.025,0.54-3.068,0.614
			c-1.279,0.087-2.574,0.062-3.848-0.062c-0.555-0.053-1.17-0.377-1.58-0.764c-0.631-0.586-1.098-1.346-1.666-2.003
			C565.934,168.642,566.285,168.089,566.49,167.453z M578.289,176.287c-0.01,0.159-0.023,0.319-0.035,0.484
			c-0.629,0.381-0.58,0.323-1.039,0.9c-1.025-0.253-0.916-0.136-1.426-0.597c-0.322-0.023-0.648-0.045-0.973-0.07
			c0.033-0.48,0.068-0.967,0.104-1.457c1.232,0.127,1.812,0.145,2.398,0.662C577.641,176.236,577.965,176.262,578.289,176.287z
			 M566.094,202.753c-0.973-0.071-1.947-0.143-2.916-0.215c0.73-1.293,1.613-1.32,3.512-1.206
			C566.49,201.805,566.293,202.275,566.094,202.753z M573.797,204.29c-0.875-0.379-0.441-0.064-0.938-0.555
			c-0.162-0.01-0.326-0.021-0.484-0.034c0.025-0.327,0.047-0.649,0.072-0.975c0.471,0.196,0.945,0.396,1.422,0.597
			C573.842,203.644,573.82,203.969,573.797,204.29z M580.068,195.407c-1.188,2.193-3.477,2.821-6.613,2.963
			c-0.881-0.157-2.471-0.414-4.045-0.738c-1.047-0.216-1.656-0.92-2.057-1.918c-1.283-3.203-0.311-6.064,1.504-8.65
			c0.492-0.701,1.818-0.91,2.809-1.157c2.697-0.679,7.232,1.005,8.758,3.162c0.145,0.204,0.365,0.422,0.379,0.642
			C580.918,191.658,580.982,193.714,580.068,195.407z M581.109,151.087c-0.561,0.398-0.051-0.051-0.52,0.45
			c-0.166-0.011-0.328-0.022-0.486-0.034c0.354-1.482,0.152-1.232,1.115-1.875C581.184,150.118,581.146,150.601,581.109,151.087z
			 M582.021,185.351c0.65,0.049,1.297,0.094,1.947,0.146c-0.039,0.486-0.072,0.971-0.107,1.456c-1.025-0.252-0.912-0.13-1.424-0.592
			c-0.162-0.013-0.322-0.022-0.488-0.039C581.975,186,581.998,185.677,582.021,185.351z M583.352,200.593
			c-0.463-0.355-0.928-0.717-1.389-1.08c0.021-0.321,0.047-0.642,0.07-0.969c1.264,0.175,1.637,0.325,2.398,0.663
			C584.068,199.669,583.707,200.132,583.352,200.593z M584.453,165.503c-0.811-0.062-1.621-0.121-2.432-0.181
			c0.039-0.484,0.074-0.976,0.109-1.46c1.133,0.175,1.359,0.146,1.91,0.63c0.158,0.011,0.32,0.022,0.482,0.034
			C584.502,164.852,584.479,165.175,584.453,165.503z M643.572,145.399c0.973,0.073,1.947,0.144,2.916,0.213
			c-0.184,0.312-0.375,0.625-0.557,0.936c-0.809-0.057-1.617-0.116-2.43-0.176C643.525,146.047,643.551,145.726,643.572,145.399z
			 M601.248,149.63c-0.379,0.871-0.064,0.438-0.557,0.938C601.068,149.694,600.758,150.13,601.248,149.63z M662.285,211.477
			c-3.828,0.161-7.654,0.313-11.482,0.546c-2.961,0.18-5.912,0.527-8.877,0.685c-1.549,0.084-3.111-0.128-4.672-0.116
			c-2.455,0.016-4.908,0.181-7.361,0.151c-3.32-0.042-6.643-0.254-9.963-0.298c-3.117-0.041-6.24,0.154-9.355,0.055
			c-3.396-0.12-6.785-0.471-10.182-0.697c-1.955-0.125-3.908-0.203-5.859-0.319c-0.373-0.018-0.744-0.097-1.045-0.14
			c-0.201-2.844-0.439-5.457-0.553-8.077c-0.182-4.296-0.303-8.599-0.402-12.891c-0.088-4.089-0.059-8.171-0.191-12.256
			c-0.135-4.11-0.439-8.208-0.596-12.316c-0.049-1.305,0.148-2.616,0.232-3.925c0.082-1.271,0.17-2.539,0.27-4.001
			c0.391-0.031,0.916-0.222,1.352-0.092c2.299,0.692,4.574,0.259,6.885,0.14c2.965-0.147,5.949,0.123,8.924,0.17
			c2.184,0.035,4.369-0.039,6.551,0.03c1.055,0.032,2.1,0.399,3.156,0.425c1.613,0.039,3.234-0.094,4.855-0.141
			c2.619-0.066,5.238-0.083,7.854-0.192c1.48-0.063,2.957-0.265,4.434-0.406c1.479-0.146,2.957-0.363,4.443-0.42
			c0.877-0.036,1.764,0.247,2.648,0.261c3.051,0.047,6.107-0.051,9.154,0.08c2.744,0.122,5.473,0.473,8.377,0.746
			c0,1.91-0.115,3.861,0.031,5.791c0.164,2.189,0.631,4.355,0.838,6.547c0.137,1.468-0.008,2.961,0.08,4.438
			c0.055,0.865,0.428,1.715,0.467,2.578c0.172,3.842,0.525,7.673,0.113,11.539c-0.199,1.897,0.359,3.863,0.455,5.806
			c0.131,2.627,0.127,5.262,0.213,7.893c0.078,2.368,0.127,4.747,0.355,7.107C663.531,211.224,663.174,211.439,662.285,211.477z"/>
		<path fill-rule="evenodd" clip-rule="evenodd" fill="#444444" d="M556.006,178.875c-0.01-1.349-0.434-1.577-1.67-1.001
			c-1.201,0.558-2.43,1.067-3.57,1.721c-2.338,1.336-4.748,2.596-6.889,4.204c-1.234,0.929-2.025,2.46-2.945,3.765
			c-0.561,0.803-1.051,1.666-1.467,2.553c-1.094,2.322-2.295,4.624-3.129,7.045c-0.268,0.752-0.434,1.544-0.578,2.336
			c0.078,0.028,0.166,0.056,0.273,0.081c-0.123,0.101-0.238,0.192-0.34,0.271c-0.158,0.965-0.27,1.952-0.4,2.92
			c-0.096,0.716,0.1,1.301,1.176,1.385c2.229,0.162,4.441,0.543,6.646,0.922c0.771,0.127,1.5,0.5,2.393,0.814
			c0.125-0.49,0.166-0.74,0.248-0.976c0.252-0.706,0.479-1.43,0.705-2.153c-0.912-0.217-0.838-0.122-1.33-0.569
			c-0.166-0.01-0.328-0.022-0.49-0.036c0.027-0.323,0.051-0.643,0.074-0.971c1.119,0.227,1.186,0.305,1.908,0.63
			c-0.014,0.185-0.029,0.365-0.043,0.546c0.59-1.886,1.186-3.773,2.102-5.486c1.303-2.432,3.57-4.178,6.039-5.555
			c0.525-0.291,1.232-0.885,1.244-1.356C556.064,186.269,556.033,182.571,556.006,178.875z M537.043,199.16
			c0.379-0.875,0.066-0.441,0.555-0.938C537.223,199.097,537.535,198.663,537.043,199.16z M540.789,201.387
			c-0.326-0.023-0.648-0.045-0.973-0.07c0.465-0.671,0.975-1.348,1.6-1.837C541.209,200.116,540.996,200.751,540.789,201.387z"/>
		<path fill-rule="evenodd" clip-rule="evenodd" fill="#444444" d="M551.398,219.683c-0.467-2.84-1.428-5.589-3.213-7.93
			c-1.166-1.518-2.42-3.033-4.447-3.38c-2.686-0.467-5.398-0.772-8.094-1.194c-1.998-0.314-3.807-0.027-5.393,1.328
			c-0.617,0.525-1.332,0.924-2.012,1.367c-3.289,2.148-4.805,5.367-4.658,9.109c0.1,2.538,1.057,5.045,1.67,7.559
			c0.166,0.671,0.557,0.809,1.096,0.257c0.541-0.548,1.133-1.036,1.686-1.571c2.471-2.394,4.908-4.818,7.414-7.183
			c0.818-0.778,1.709-1.548,2.711-2.046c1.795-0.895,3.199-0.297,3.721,1.583c0.756,2.733,1.338,5.519,2.008,8.271
			c0.412,1.709,0.852,3.412,1.367,5.475c1.002-0.793,1.854-1.217,2.324-1.899c1.203-1.734,2.447-3.496,3.277-5.419
			C551.408,222.714,551.631,221.07,551.398,219.683z M533.514,214.045c-0.326-0.026-0.648-0.05-0.977-0.073
			c0.73-1.599,0.273-1.023,1.529-0.865C533.883,213.423,533.699,213.731,533.514,214.045z M540.732,215.554
			c-0.49-0.037-0.979-0.074-1.461-0.108c0.723-1.183-0.049-0.651,1.531-0.869C540.777,214.899,540.756,215.228,540.732,215.554z"/>
	</g>
	<g>
		<path fill-rule="evenodd" clip-rule="evenodd" fill="#444444" d="M411.462,54.975c-0.649,0.982-1.146,1.562-1.446,2.226
			c-0.965,2.1-1.846,4.245-2.775,6.369c-0.223,0.5-0.441,1.033-0.789,1.447c-0.814,0.978-1.785,0.879-2.547-0.135
			c-1.807-2.423-3.629-4.834-5.455-7.244c-0.091-0.125-0.273-0.176-0.591-0.372c-0.28,1.462-0.511,2.807-0.8,4.14
			c-0.389,1.783-0.656,3.617-1.281,5.321c-0.637,1.729-1.856,1.924-3.24,0.668c-0.973-0.884-1.795-1.938-2.705-2.892
			c-1.161-1.223-2.346-2.42-3.794-3.917c0,0.696-0.053,1.019,0.009,1.312c0.541,2.519,1.154,5.014,1.621,7.539
			c0.116,0.631-0.006,1.656-0.414,1.949c-0.594,0.432-1.657,0.678-2.332,0.449c-1.873-0.645-3.656-1.557-5.461-2.396
			c-0.703-0.324-1.037-1.598-0.646-2.245c0.467-0.775,1.375-0.917,2.179-0.346c0.65,0.46,1.261,1.014,1.976,1.328
			c0.794,0.346,1.404-0.006,1.213-0.953c-0.137-0.69-0.543-1.328-0.78-2.007c-0.175-0.5-0.532-1.145-0.358-1.53
			c0.802-1.816,0.055-3.506-0.311-5.204c-0.156-0.73-0.553-1.47,0.194-1.94c0.554-0.353,1.303-0.488,1.972-0.512
			c1.217-0.042,1.783,0.74,2.469,1.746c1.084,1.591,2.635,2.867,4.014,4.262c0.461,0.466,0.998,0.857,1.618,1.382
			c0.413-1.153,1.065-2.014,0.353-3.228c-0.232-0.388,0.223-1.232,0.447-1.844c0.314-0.846,0.812-1.637,1.026-2.495
			c0.212-0.853,0.005-1.833,0.286-2.646c0.203-0.582,0.924-1.397,1.389-1.382c0.711,0.021,1.607,0.522,2.047,1.097
			c0.865,1.136,1.363,2.558,2.209,3.71c1.207,1.652,2.592,3.16,4.101,4.981c0.616-1.504,1.081-2.767,1.651-3.974
			c0.301-0.65,0.807-1.206,1.174-1.832c0.708-1.195,1.396-2.408,2.067-3.632c0.298-0.546,0.439-1.206,0.813-1.677
			c0.656-0.824,1.957-0.604,2.426,0.479c0.553,1.279,0.85,2.662,1.291,3.989c0.133,0.388,0.286,0.847,0.582,1.103
			c0.793,0.657,0.961,1.494,1.152,2.46c0.156,0.782,0.776,1.487,1.287,2.392c0.713-0.859,1.311-1.56,1.891-2.273
			c0.959-1.179,1.885-2.395,2.877-3.551c0.686-0.797,1.434-1.558,2.185-2.304c0.511-0.517,1.179-0.904,1.579-1.484
			c0.49-0.715,1.133-1.334,1.857-0.914c0.65,0.376,1.266,1.215,1.416,1.955c0.236,1.137,0.011,2.36,0.086,3.542
			c0.029,0.483,0.227,1.051,0.539,1.407c0.934,1.091,1.895,2.092,1.112,3.717c-0.243,0.501-0.179,1.155-0.01,2.004
			c0.622-0.539,1.261-1.067,1.866-1.628c1.076-1.021,2.136-2.061,3.191-3.091c0.389-0.389,0.875-0.753,1.097-1.227
			c0.267-0.573,0.376-1.125,1.21-0.974c0.844,0.139,1.688,0.35,1.831,1.319c0.317,2.098,0.569,4.216,0.772,6.334
			c0.093,0.987,0.016,1.997,0.016,2.982c0.808,0.068,1.605,0.116,2.4,0.211c0.806,0.102,1.465,0.427,1.266,1.39
			c-0.184,0.881-0.521,1.632-1.729,1.373c-0.646-0.143-1.392-0.17-2.01,0.018c-2.019,0.61-3.312-0.467-3.307-2.631
			c0.004-1.929-0.255-3.857-0.517-5.862c-0.354,2.197-2.393,2.671-3.711,3.868c-0.584,0.53-0.98,1.267-1.481,1.898
			c-0.443,0.56-0.95,0.641-1.562,0.209c-0.303-0.207-0.771-0.215-1.016-0.465c-0.385-0.387-0.844-0.869-0.92-1.36
			c-0.521-3.423-0.944-6.849-1.406-10.281c-0.004-0.03-0.055-0.054-0.287-0.27c-0.953,1.027-1.936,2.039-2.867,3.096
			c-0.523,0.595-0.977,1.248-1.453,1.883c-1.125,1.519-2.841,2.535-3.379,4.558c-0.327,1.233-2.075,1.284-2.76,0.08
			c-0.869-1.549-1.519-3.225-2.291-4.824C413.092,58.178,412.356,56.76,411.462,54.975z"/>
		<path fill="#444444" d="M390.305,240.249c-2.282,0.148-4.57,0.224-6.852,0.328c-1.386,0.066-2.779,0.232-4.156,0.176
			c-2.609-0.107-5.215-0.345-7.815-0.529c-1.214,3.234-0.474,6.242-0.323,9.223c0.084,1.652,0.353,3.3,0.459,4.953
			c0.125,2.035,0.115,4.071,0.302,6.094c0.023,0.268,0.92,0.738,1.292,0.647c1.143-0.282,2.191-0.957,3.334-1.183
			c2.244-0.455,4.525-0.938,6.804-0.988c2.689-0.065,5.396,0.309,8.278,0.506c0.018-0.404,0.089-0.875,0.054-1.336
			c-0.114-1.529-0.375-3.053-0.387-4.58c-0.035-4.086-0.004-8.18,0.087-12.265C391.398,240.38,391.146,240.194,390.305,240.249z"/>
		<path fill="#444444" d="M372.796,77.304c-1.437,0.592-2.829,1.287-4.325,1.988c0.07,2.791,1.859,5.133,2.906,7.741
			c0.428,1.062,0.777,2.155,1.252,3.194c0.957,2.077,2.029,4.104,2.949,6.191c0.643,1.461,1.383,1.77,2.686,0.842
			c0.731-0.515,1.404-1.106,2.096-1.682c0.588-0.495,1.154-1.011,1.93-1.689c-0.551-1.097-1.144-2.285-1.752-3.465
			c-1.318-2.576-2.637-5.142-3.969-7.705c-0.887-1.704-1.766-3.41-2.723-5.066C373.702,77.403,373.064,77.198,372.796,77.304z"/>
		<path fill="#444444" d="M440.354,94.528c1.998,1.125,3.984,2.271,6.154,3.51c0.275-0.656,0.465-1.035,0.599-1.435
			c0.954-2.812,1.843-5.651,2.859-8.433c1.097-3.01,2.339-5.96,3.435-8.964c0.123-0.341-0.2-1.118-0.521-1.29
			c-1.821-0.949-3.707-1.772-5.731-2.717c-0.196,0.354-0.55,0.871-0.774,1.433c-0.936,2.354-1.807,4.731-2.766,7.071
			c-0.479,1.17-1.139,2.268-1.645,3.425c-0.784,1.803-1.518,3.635-2.254,5.464C439.381,93.4,439.525,94.064,440.354,94.528z"/>
		<path fill="#444444" d="M349.92,139.45c-2.711-1.318-4.592-3.558-5.941-6.113c-1.553-2.945-2.699-6.111-4.112-9.386
			c-0.356,0.155-0.885,0.413-1.435,0.616c-1.599,0.588-3.17,1.293-4.812,1.69c-1.967,0.474-3.99,0.729-6,0.973
			c-0.871,0.106-1.148,0.459-0.966,1.241c0.718,3.104,1.379,6.225,2.205,9.301c0.558,2.075,1.147,4.183,2.101,6.088
			c1.285,2.571,2.92,4.971,4.432,7.429c0.578,0.935,1.158,1.888,1.851,2.731c1.734,2.125,4,3.607,6.39,4.851
			c1.611,0.835,3.375,1.364,5.028,2.113c0.944,0.431,1.301,0.272,1.382-0.789c0.268-3.526,0.611-7.042,0.896-10.565
			c0.08-0.989,0.006-2,0.104-2.986c0.139-1.441,0.304-2.882,0.58-4.303C351.918,140.819,351.145,140.048,349.92,139.45z"/>
		<path fill="#444444" d="M335.848,123.017c1.664-0.601,3.273-1.436,4.768-2.389c1.266-0.799,2.553-1.76,3.424-2.944
			c1.039-1.413,1.848-3.084,2.394-4.765c0.8-2.471,1.192-5.064,0.646-7.676c-0.49-2.327-0.828-4.727-1.66-6.934
			c-0.755-1.997-2.05-3.798-3.213-5.621c-0.195-0.299-1.092-0.517-1.393-0.333c-2.284,1.396-4.515,2.888-6.734,4.384
			c-0.808,0.542-1.91,1.054-2.203,1.833c-0.256,0.677,0.443,1.713,0.719,2.592c0.025,0.081,0.012,0.177,0.041,0.253
			c0.773,1.963,0.793,3.979,0.525,6.036c-0.189,1.457-0.555,2.873-1.967,3.513c-1.098,0.498-2.353,0.812-3.555,0.882
			c-3.719,0.21-6.795-2.454-7.526-6.405c-0.177-0.946-0.31-1.7-1.587-1.25c-0.354,0.118-0.832-0.105-1.248-0.178
			c-3.384-0.633-6.77-1.268-10.374-1.94c0.142,1.624,0.067,3.112,0.438,4.478c0.567,2.083,1.431,4.089,2.197,6.113
			c0.13,0.347,0.42,0.628,0.622,0.95c0.302,0.483,0.592,0.972,0.889,1.457c0.263,0.43,0.447,0.959,0.814,1.267
			c1.338,1.118,2.748,2.148,4.109,3.238c0.719,0.574,1.507,1.123,2.057,1.839c1.146,1.501,2.391,2.827,4.342,3.095
			c1.074,0.152,2.193-0.04,3.273,0.076C329.193,124.981,332.572,124.214,335.848,123.017z"/>
		<path fill="#444444" d="M368.291,76.129c2.242-0.286,4.002-2.157,5.77-4.001c0.081-0.088,0.11-0.225,0.143-0.352
			c0.291-1.189,0.742-2.385,0.812-3.587c0.048-0.807-0.21-1.927-0.763-2.399c-1.399-1.207-2.984-1.948-5.021-2.09
			c-4.691-0.317-7.908,3.316-7.427,7.459C362.261,75.114,364.024,76.111,368.291,76.129z"/>
		<path fill-rule="evenodd" clip-rule="evenodd" fill="#444444" d="M394.93,136.077c-0.01,1.658-1.727,3.404-3.291,3.343
			c-1.008-0.039-1.762-1.433-1.783-3.298c-0.018-1.407,0.84-2.787,1.729-2.783C393.264,133.343,394.938,134.713,394.93,136.077z"/>
		<path fill-rule="evenodd" clip-rule="evenodd" fill="#444444" d="M425.958,137.931c0.208-0.667,0.261-1.456,0.659-1.973
			c0.537-0.68,1.082-1.683,2.265-1.241c1.144,0.421,2.83,2.646,2.544,3.534c-0.207,0.632-0.748,1.258-1.309,1.652
			c-0.68,0.48-1.505,0.843-2.313,1.023c-1.034,0.231-1.357-0.681-1.614-1.426c-0.158-0.463-0.076-1.005-0.104-1.516
			C426.046,137.968,426.003,137.95,425.958,137.931z"/>
		<path fill="#444444" d="M490.299,130.062c-1.184,0.079-2.389,0.114-3.568,0.01c-0.787-0.063-1.547-0.385-2.313-0.609
			c-1.214-0.357-2.45-0.66-3.626-1.114c-0.971-0.369-1.865-0.931-2.801-1.405c-1.291,6.047-4.112,10.857-9.366,14.412
			c0.693,2.015,1.099,4.086,1.371,6.209c0.12,0.086,0.261,0.188,0.449,0.307c-0.021,0.329-0.048,0.646-0.071,0.973
			c-0.078-0.006-0.154-0.01-0.236-0.016c0.469,4.52,0.439,9.223,1.252,13.924c0.985-0.507,1.926-0.834,2.672-1.405
			c2.334-1.792,4.607-3.658,6.877-5.53c1.078-0.896,2.256-1.746,3.103-2.839c2.391-3.081,4.253-6.479,5.457-10.212
			c0.264-0.804,0.392-1.664,0.735-2.431c1.282-2.882,0.965-6.013,1.462-9.017C491.861,130.304,491.267,130,490.299,130.062z
			 M469.762,143.913c0,0,0.199-1.882,0.553-0.938c-0.012,0.164-0.023,0.328-0.033,0.486c0.161,0.012,0.324,0.023,0.48,0.038
			C470.205,143.909,470.688,143.675,469.762,143.913z M474.77,155.517c-0.158-0.012-0.32-0.023-0.488-0.035
			c0.013-0.164,0.026-0.322,0.038-0.488c0.636,0.214,1.272,0.422,1.911,0.632C475.395,156.055,475.537,156.09,474.77,155.517z"/>
		<path fill="#444444" d="M510.984,103.235c-2.362,0.37-4.603,0.823-6.861,1.041c-2.3,0.222-4.621,0.211-6.99,0.299
			c-0.105,2.712-1.24,4.966-2.78,7.029c-0.409,0.558-0.948,1.189-1.553,1.379c-0.868,0.271-1.856,0.131-2.784,0.244
			c-2.201,0.261-4.969-1.873-5.547-3.704c-0.746-2.36-1.146-4.899,0.287-7.189c0.727-1.156,0.246-1.782-0.559-2.437
			c-1.559-1.264-3.139-2.49-4.695-3.755c-1.646-1.335-3.275-2.688-4.969-4.085c-0.264,0.49-0.453,0.919-0.709,1.299
			c-0.734,1.094-1.286,2.262-1.722,3.459c0.36,0.152,0.715,0.295,1.071,0.444c-0.023,0.328-0.047,0.649-0.07,0.973
			c-0.934-0.445-0.74-0.47-1.18-0.894c-0.295,0.888-0.533,1.795-0.732,2.711c0.106,0.008,0.209,0.016,0.312,0.021
			c-0.048,0.647-0.095,1.299-0.14,1.944c-0.168-0.013-0.327-0.022-0.487-0.037c-0.012-0.042-0.021-0.071-0.032-0.104
			c-0.027,0.153-0.058,0.303-0.082,0.455c-0.252,1.534-0.096,3.125-0.256,4.682c-0.438,4.304,0.288,8.266,3.154,11.665
			c1.764,2.091,3.078,4.503,5.472,6.126c2.87,1.943,5.917,3.045,9.309,3.125c2.003,0.046,3.971-0.87,6.036-0.368
			c0.325,0.075,0.785-0.102,1.084-0.304c1.149-0.785,2.246-1.65,3.394-2.445c1.679-1.158,3.566-2.091,5.028-3.473
			c1.684-1.592,3.186-3.449,4.408-5.412c0.926-1.477,1.219-3.329,1.908-4.969C511.32,108.54,511.178,106.06,510.984,103.235z
			 M473.314,115.349c-0.164-0.014-0.325-0.023-0.487-0.035c0.298-2.308,0.236-2.066,1.603-1.837
			C474.057,114.101,473.686,114.723,473.314,115.349z M478.852,106.47c0.812,0.059,1.618,0.118,2.428,0.18
			c-0.684,0.752-0.33,0.578-1.527,0.869c-0.475,0.497,0.041,0.054-0.521,0.449c-0.396-0.566,0.052-0.049-0.451-0.525
			C478.805,107.122,478.826,106.792,478.852,106.47z M478.041,110.811c0.228-1.12,0.308-1.19,0.629-1.911
			c2.285,0.57,1.874,1.503,3.225,2.678c-0.377,0.875-0.064,0.439-0.558,0.938c-0.012,0.161-0.024,0.324-0.034,0.488
			C480.211,112.217,479.417,111.491,478.041,110.811z M482.371,118.457c-0.486-0.038-0.973-0.075-1.46-0.108
			c0.013-0.166,0.026-0.327,0.036-0.489c0.498-0.126,0.994-0.249,1.494-0.378C482.416,117.808,482.395,118.128,482.371,118.457z
			 M485.047,115.232c-0.38-0.575-0.289-0.441-0.38-1.495c0.489,0.033,0.976,0.068,1.46,0.106
			C485.766,114.306,485.408,114.768,485.047,115.232z"/>
		<path fill="#444444" d="M457.409,62.677c-0.583-0.283-1.374-0.189-2.063-0.147c-2.627,0.177-3.977,2.55-6.103,3.625
			c-1.351,0.687-1.894,4.987-0.416,6.302c2.062,1.821,4.188,2.561,6.964,1.639c2.877-0.959,5.25-2.53,4.865-5.561
			C460.781,66.638,459.119,63.474,457.409,62.677z M458.361,72.726c-1.322-0.563-1.014-0.779-1.842-1.6
			c0.025-0.32,0.05-0.65,0.074-0.969c0.322,0.021,0.649,0.045,0.971,0.067c0.219,0.636,0.449,1.519,0.832,2.016
			C458.385,72.404,458.373,72.565,458.361,72.726z"/>
		<path fill="#444444" d="M442.928,239.607c-4.418,0.012-8.84-0.047-13.256-0.072c-1.254-0.008-2.512,0-3.789,0
			c0,7.276,0,14.438,0,21.835c6.426-2.921,12.762-3.855,19.486-2.164c0.258-3.137,0.723-6.191,0.689-9.238
			c-0.032-2.872-0.564-5.74-0.923-8.604C444.905,239.537,444.864,239.604,442.928,239.607z M432.587,257.956
			c-0.487-0.037-0.972-0.07-1.46-0.105c0.012-0.166,0.025-0.326,0.037-0.486c0.496-0.129,0.997-0.253,1.496-0.377
			C432.636,257.31,432.613,257.633,432.587,257.956z M439.498,256.997c-0.014,0.161-0.025,0.326-0.035,0.484
			c-0.502-0.475-0.062,0.043-0.453-0.52c-0.498-0.475-0.057,0.041-0.452-0.521c0.501-0.13,0.997-0.258,1.496-0.381
			C439.675,256.935,439.984,256.501,439.498,256.997z"/>
		<path fill="#444444" d="M453.105,271.244c-0.491-3.566-2.625-6.071-5.402-8.063c-0.725-0.518-1.846-0.453-2.738-0.778
			c-3.951-1.435-7.918-1.161-11.91-0.228c-3.816,0.889-7.373,2.154-10.244,5.06c-0.95,0.96-1.523,2.056-2.014,3.214
			c0.688,0.234,0.78,0.449,1.525,0.926c-0.024,0.321-0.049,0.646-0.072,0.973c-0.715-0.053-1.424-0.105-2.139-0.16
			c-0.191,0.496-0.387,0.996-0.615,1.5c1.006-0.109,1.754-0.298,2.488-0.249c1.25,0.077,2.492,0.276,3.727,0.491
			c0.683,0.123,1.334,0.449,2.022,0.559c0.831,0.123,1.688,0.131,2.532,0.154c1.058,0.027,2.117,0.067,3.171,0.008
			c1.087-0.059,2.175-0.382,3.249-0.319c2.542,0.153,5.062,0.622,7.605,0.667c2.191,0.037,4.391-0.323,6.586-0.521
			c0.873-0.084,1.739-0.2,2.713-0.316C453.404,273.062,453.232,272.157,453.105,271.244z M452.938,273.614
			c-1.023-0.253-0.91-0.133-1.422-0.594c-0.162-0.013-0.324-0.024-0.487-0.036c0.012-0.161,0.023-0.325,0.038-0.484
			c0.646,0.049,1.294,0.093,1.941,0.138C452.982,272.965,452.961,273.288,452.938,273.614z"/>
		<path fill="#444444" d="M469.503,208.344c-0.056-2.349-0.052-4.7-0.201-7.039c-0.182-2.835-0.653-5.664-0.726-8.501
			c-0.061-2.668,0.342-5.344,0.352-8.02c0.021-4.391-0.063-8.777-0.186-13.165c-0.127-4.642-0.297-9.276-0.552-13.909
			c-0.199-3.646-0.356-7.317-0.894-10.926c-0.701-4.711-1.625-9.398-2.703-14.044c-0.633-2.722-1.675-5.36-2.674-7.983
			c-0.558-1.462-1.57-2.754-2.096-4.228c-1.293-3.647-3.348-6.831-5.574-9.933c-0.517-0.726-0.986-1.485-1.549-2.172
			c-1.012-1.244-2.246-2.334-3.076-3.682c-1.285-2.078-3.125-3.435-5.145-4.626c-1.426-0.839-3.052-1.392-4.326-2.41
			c-2.302-1.834-4.917-2.885-7.674-3.687c-0.794-0.229-1.679-0.119-2.5-0.278c-0.915-0.179-1.792-0.614-2.704-0.686
			c-0.812-0.062-1.668,0.382-2.478,0.298c-2.319-0.227-4.621-0.616-6.934-0.912c-1.471-0.189-2.951-0.455-4.426-0.448
			c-2.627,0.013-5.256,0.211-7.883,0.331c-0.021-0.155-0.043-0.314-0.062-0.472c-3.224,0.531-6.483,0.915-9.67,1.624
			c-3.531,0.781-7.002,1.846-10.49,2.82c-1.256,0.346-2.6,0.52-3.521,1.619c-0.404,0.479-0.795,1.018-1.312,1.335
			c-1.293,0.804-2.65,1.239-3.714,2.661c-1.069,1.442-3.167,2.117-4.811,3.126c-0.427,0.267-0.918,0.472-1.259,0.819
			c-1.242,1.273-2.477,2.559-3.624,3.911c-1.587,1.867-3.222,3.711-4.589,5.729c-1.305,1.925-2.221,4.106-3.432,6.104
			c-1.721,2.837-2.686,5.948-3.403,9.131c-0.41,1.811-0.489,3.689-0.714,5.539c-0.271,2.233-0.597,4.462-0.791,6.701
			c-0.243,2.818-0.359,5.647-0.562,8.471c-0.293,4.038-0.691,8.068-0.9,12.118c-0.242,4.667-0.326,9.343-0.486,14.018
			c-0.019,0.552-0.089,1.103-0.095,1.653c-0.024,2.339-0.04,4.676-0.046,7.016c-0.008,2.582-0.061,5.166,0.006,7.742
			c0.085,3.172,0.365,6.338,0.398,9.511c0.029,2.954-0.15,5.919-0.232,8.873c-0.019,0.608-0.114,1.27,0.813,1.268
			c2.36-0.014,4.718-0.016,7.078-0.037c1.575-0.016,3.153-0.097,4.729-0.087c2.546,0.018,5.095,0.13,7.642,0.124
			c2-0.008,4.002-0.196,6.007-0.196c5.161-0.002,10.325,0.053,15.485,0.086c3.178,0.02,6.359,0.031,9.538,0.066
			c2.258,0.024,4.515,0.119,6.769,0.093c1.07-0.012,2.137-0.304,3.208-0.349c1.788-0.068,3.593-0.171,5.37-0.012
			c2.879,0.264,5.723-0.783,8.6-0.118c0.617,0.142,1.26,0.218,1.891,0.231c3.832,0.08,7.672,0.21,11.502,0.181
			c5.117-0.037,10.234-0.198,15.352-0.325c1.066-0.027,2.133-0.223,3.193-0.191c1.592,0.053,3.18,0.13,4.767,0.209
			c0.023-0.307,0.047-0.615,0.069-0.924c0.647,0.049,1.296,0.099,1.942,0.146c-0.126,0.371-0.218,0.638-0.312,0.857
			c0.691,0.035,1.384,0.07,2.078,0.098c0.957,0.037,1.682-0.228,1.605-1.444C469.491,210.817,469.533,209.577,469.503,208.344z
			 M447.583,139.85c0.323,0.022,0.649,0.045,0.972,0.067c-0.033,0.488-0.07,0.975-0.104,1.459c-0.163-0.012-0.327-0.023-0.488-0.033
			c-0.396-0.566,0.053-0.053-0.453-0.525C447.534,140.499,447.559,140.169,447.583,139.85z M383.264,174.224
			c-1.543,0-2.966,0.02-4.385-0.006c-1.677-0.033-3.348-0.122-5.027-0.153c-0.889-0.02-1.172-0.446-1.145-1.297
			c0.097-2.856,0.147-5.715,0.225-8.573c0.078-3.004,0.16-6.008,0.246-9.005c0.004-0.161,0.063-0.319,0.122-0.628
			c0.826,0.056,1.634,0.031,2.411,0.181c1.389,0.255,2.699,0.51,4.155,0.064c0.804-0.249,1.831,0.179,2.745,0.365
			c0.168,0.031,0.434,0.459,0.385,0.539c-0.711,1.171,0.037,2.323,0.047,3.473c0.029,4.501,0.139,9.007,0.221,13.509
			C383.271,173.201,383.264,173.703,383.264,174.224z M396.378,173.892c-2.21,0.055-4.417,0.139-6.624,0.277
			c-0.92,0.057-1.838,0.271-2.754,0.421c-0.701,0.113-0.889-0.175-1.042-0.887c-0.799-3.765-0.306-7.539-0.228-11.316
			c0.045-2.026,0.027-4.055-0.092-6.075c-0.048-0.814,0.254-1.13,0.934-1.203c0.889-0.088,1.785-0.098,2.68-0.139
			c0.018,0.096,0.033,0.195,0.049,0.297c1.058-0.207,2.107-0.487,3.174-0.602c0.985-0.104,1.996-0.09,2.979,0.008
			c0.247,0.03,0.604,0.583,0.63,0.915c0.272,3.518,0.48,7.042,0.718,10.56c0.149,2.243,0.312,4.485,0.494,6.723
			C397.352,173.573,397.125,173.874,396.378,173.892z M407.95,173.909c-0.31-0.109-0.646-0.218-0.974-0.218
			c-2.013,0.002-4.029,0.081-6.04,0.006c-0.315-0.012-0.809-0.624-0.873-1.021c-0.118-0.739,0.099-1.527,0.031-2.283
			c-0.237-2.691-0.562-5.383-0.802-8.078c-0.205-2.245-0.348-4.489-0.5-6.742c-0.062-0.924,0.598-0.994,1.284-1.002
			c1.452-0.014,2.909-0.023,4.361-0.051c1.354-0.028,2.707-0.123,4.058-0.082c0.244,0.006,0.656,0.506,0.682,0.802
			c0.283,3.562,0.508,7.126,0.756,10.694c-0.043,0.002-0.082,0.006-0.123,0.01c0.098,2.161,0.225,4.322,0.293,6.486
			C410.155,173.876,409.345,174.401,407.95,173.909z M419.773,179.342c-0.012,0.159-0.021,0.319-0.033,0.484
			c-0.313-0.19-0.625-0.372-0.936-0.56c0.049-0.648,0.092-1.297,0.144-1.943c0.461,0.361,0.923,0.722,1.385,1.076
			C419.955,179.272,420.267,178.839,419.773,179.342z M424.348,174.335c-2.027,0-4.06,0.027-6.094-0.016
			c-0.77-0.018-1.988,0.033-2.217-0.379c-0.438-0.786-0.367-1.882-0.4-2.854c-0.082-2.609-0.094-5.221-0.161-7.83
			c-0.053-2.102-0.14-4.203-0.215-6.3c0-0.089,0.013-0.171,0.004-0.255c-0.256-2.821,0.485-3.354,3.244-2.747
			c1.584,0.35,3.261,0.263,4.9,0.383c0.249,0.018,0.495,0.056,0.938,0.11C424.348,161.13,424.348,167.681,424.348,174.335z
			 M423.742,151.567c-2.244-0.062-4.48-0.38-6.726-0.533c-2.993-0.208-5.931,0.366-8.896,0.621c-2.662,0.23-5.358,0.044-8.04,0.079
			c-1.247,0.015-2.495,0.097-3.739,0.179c-1.818,0.109-3.629,0.295-5.448,0.366c-1.224,0.046-2.454-0.085-3.679-0.086
			c-0.922,0-1.844,0.108-2.766,0.12c-2.205,0.023-4.42,0.095-6.621-0.004c-1.428-0.064-2.856-0.359-4.266-0.651
			c-0.174-0.04-0.377-0.731-0.3-1.056c0.282-1.171,0.694-2.311,1.019-3.475c0.543-1.956,0.994-3.93,2.002-5.734
			c1.521-2.742,2.828-5.607,4.458-8.275c0.997-1.622,2.343-3.064,3.687-4.437c1.084-1.111,2.344-2.079,3.627-2.966
			c1.576-1.086,3.204-2.12,4.904-2.987c1.429-0.726,2.974-1.267,4.514-1.733c1.532-0.462,3.26-0.461,4.658-1.15
			c2.23-1.103,4.697-0.671,6.953-1.509c0.844-0.314,1.922-0.018,2.897,0.034c2.886,0.166,5.786,0.24,8.655,0.576
			c1.166,0.127,2.271,0.825,3.398,1.281c2.635,1.049,5.264,2.117,7.898,3.173c0.744,0.294,1.495,0.567,2.248,0.849
			c2.652,0.996,4.15,3.15,5.605,5.422c1.709,2.659,3.547,5.242,4.282,8.37c0.871,3.709,1.587,7.454,2.374,11.187
			c0.127,0.609,0.277,1.225,0.469,2.067c-4.812,0.085-9.429,0.187-14.041,0.249C429.826,151.585,426.783,151.655,423.742,151.567z
			 M428.262,174.36c-0.283-0.006-0.768-0.625-0.789-0.985c-0.155-2.414-0.225-4.83-0.309-7.248
			c-0.092-2.501-0.184-5.001-0.245-7.509c-0.033-1.342-0.007-2.683-0.007-4.035c3.361,0,6.366,0.01,9.367-0.006
			c0.877-0.006,0.986,0.385,0.971,1.197c-0.063,2.896-0.013,5.795,0.031,8.688c0.049,3.253,0.14,6.502,0.217,9.942
			C434.451,174.405,431.354,174.431,428.262,174.36z M449.062,169.175c-0.055,0.997-0.086,2.182-0.206,3.365
			c-0.031,0.3-0.271,0.712-0.528,0.837c-0.56,0.273-1.185,0.464-1.805,0.558c-1.604,0.246-3.186,0.564-4.857,0.134
			c-1.2-0.31-1.475-1.042-1.512-2.014c-0.081-2.255-0.072-4.51-0.15-6.758c-0.07-2.126-0.256-4.251-0.285-6.372
			c-0.018-1.307,0.129-2.621,0.287-3.92c0.028-0.226,0.501-0.564,0.771-0.568c1.904-0.029,3.812,0.02,5.723,0.031
			c0.822,0.009,1.1,0.51,1.193,1.224c0.451,3.408,0.943,6.813,1.35,10.229C449.166,166.929,449.062,167.965,449.062,169.175z
			 M457.527,210.925c-0.488-0.035-0.974-0.072-1.459-0.105c0.035-0.482,0.074-0.968,0.107-1.455
			c0.482,0.035,0.967,0.072,1.458,0.107C457.595,209.956,457.561,210.44,457.527,210.925z"/>
		<path fill="#444444" d="M469.498,217.097c-2.166-0.262-4.09-0.539-6.021-0.717c-1.891-0.176-3.818-0.521-5.68-0.307
			c-2.735,0.312-5.443,0.727-8.207,0.418c-1.16-0.137-2.367-0.338-3.498-0.157c-2.221,0.355-4.391,0.458-6.657,0.271
			c-4.097-0.337-8.228-0.313-12.341-0.404c-1.925-0.037-3.854-0.01-5.781,0.044c-1.752,0.047-3.5,0.192-5.252,0.257
			c-2.488,0.088-4.981,0.163-7.477,0.206c-1.209,0.023-2.432-0.01-3.641-0.083c-0.652-0.039-1.295-0.306-1.943-0.313
			c-3.572-0.047-7.141-0.043-10.709-0.062c-2.127-0.013-4.258-0.069-6.385-0.044c-1.588,0.021-3.18,0.145-4.769,0.213
			c-2.505,0.107-5.013,0.294-7.521,0.286c-4.127-0.008-8.259-0.173-12.387-0.212c-2.594-0.025-5.184,0.057-7.776,0.08
			c-1.095,0.01-1.341,0.63-1.258,1.59c0.171,1.982,0.288,3.969,0.447,5.953c0.087,1.057,0.214,2.109,0.313,3.169
			c0.225,2.415,0.56,4.828,0.627,7.247c0.055,2.027,0.092,2.24,2.118,2.45c0.296,0.03,0.601,0.032,0.896,0.01
			c2.251-0.171,4.497-0.366,6.747-0.518c1.524-0.103,3.051-0.155,4.58-0.2c0.246-0.012,0.493,0.115,0.74,0.172
			c1.493,0.328,2.98,0.919,4.473,0.933c4.678,0.039,9.358-0.116,14.035-0.243c2.771-0.078,5.537-0.291,8.305-0.377
			c3.091-0.09,6.188-0.066,9.275-0.193c1.438-0.054,2.873-0.507,4.309-0.495c2.892,0.023,5.787,0.31,8.68,0.364
			c4.457,0.087,8.918,0.089,13.377,0.087c4.981-0.004,9.967-0.023,14.951-0.097c1.684-0.025,3.365-0.238,5.053-0.333
			c1.445-0.08,2.896-0.151,4.346-0.161c3.395-0.023,6.798-0.135,10.186,0.035c2.495,0.128,3.472-0.492,3.588-2.966
			c0.096-1.946,0.22-3.892,0.245-5.837C469.529,223.777,469.498,220.39,469.498,217.097z M407.637,231.701
			c-0.324-0.023-0.646-0.049-0.972-0.07c0.014-0.163,0.023-0.323,0.036-0.485c0.322,0.025,0.645,0.048,0.971,0.073
			C407.662,231.38,407.65,231.538,407.637,231.701z M410.389,227.509c-0.324-0.023-0.651-0.047-0.971-0.068
			c0.724-1.188-0.051-0.655,1.527-0.869C410.758,226.881,410.569,227.194,410.389,227.509z M424.35,223.642
			c-0.324-0.021-0.648-0.045-0.972-0.068c0.013-0.166,0.025-0.328,0.035-0.484c0.323,0.021,0.651,0.045,0.97,0.068
			C424.371,223.32,424.361,223.483,424.35,223.642z M425.203,232.009c-0.164-0.012-0.325-0.023-0.486-0.035
			c0.013-0.158,0.025-0.321,0.035-0.486c0.477,0.2,0.949,0.4,1.422,0.595C425.328,232.429,425.977,232.433,425.203,232.009z"/>
		<path fill="#444444" d="M397.656,269.859c-0.646-1.311-1.646-2.437-2.421-3.69c-1.03-1.672-2.483-2.862-4.312-3.391
			c-2.729-0.778-5.551-0.693-8.387-0.641c-3.777,0.068-7.019,1.805-10.488,2.828c-3.783,1.129-5.303,4.285-6.629,7.585
			c-0.154,0.377-0.252,0.772-0.418,1.307c2.455,0.112,4.648,0.267,6.842,0.306c2.508,0.047,5.016,0.014,7.522-0.014
			c4.132-0.049,8.263-0.135,12.396-0.176c1.357-0.012,2.713,0.115,4.07,0.133c1.008,0.012,2.304,0.188,2.446-1.175
			C398.387,271.931,398.107,270.773,397.656,269.859z M386.254,270.198c-1.13-0.84,0.52-1.467,1.115-1.873
			C387.268,268.923,387.045,270.787,386.254,270.198z M390.627,270.521c-0.322-0.023-0.646-0.049-0.971-0.076
			c0.023-0.32,0.047-0.648,0.072-0.968c0.324,0.021,0.647,0.046,0.971,0.067C390.676,269.871,390.65,270.194,390.627,270.521z"/>
	</g>
	<g>
		<path fill-rule="evenodd" clip-rule="evenodd" fill="#444444" d="M293.465,274.944c-0.281-1.14-0.387-1.956-0.686-2.695
			c-1.049-2.592-1.906-5.32-3.33-7.697c-1.732-2.889-3.963-5.473-5.975-8.197c-0.178-0.238-0.315-0.515-0.518-0.727
			c-0.861-0.916-1.619-1.989-2.635-2.68c-1.855-1.262-3.85-2.322-5.814-3.416c-2.865-1.593-5.67-3.349-9.24-2.254
			c-1.328,0.406-2.759,0.555-4.154,0.649c-2.354,0.153-4.619,0.526-6.789,1.542c-1.621,0.752-3.355,1.258-4.993,1.987
			c-0.755,0.337-1.437,0.898-2.067,1.452c-0.908,0.791-1.713,1.693-2.611,2.501c-1.166,1.052-2.605,1.88-3.523,3.105
			c-3.309,4.419-4.55,9.726-6.031,14.92c-0.027,0.099,0.061,0.233,0.191,0.69c2.078,0,4.23-0.031,6.385,0.006
			c4,0.068,8.004,0.171,12.005,0.275c0.835,0.023,1.663,0.156,2.502,0.191c1.523,0.075,3.052,0.104,4.58,0.169
			c1.792,0.071,3.587,0.253,5.38,0.229c4.037-0.055,8.066-0.284,12.104-0.296c3.918-0.012,7.836,0.157,11.754,0.239
			C291.093,274.964,292.191,274.944,293.465,274.944z"/>
		<path fill-rule="evenodd" clip-rule="evenodd" fill="#444444" d="M270.174,244.925c0.17-0.414,0.267-0.532,0.255-0.643
			c-0.354-3.345-0.687-6.689-1.099-10.028c-0.202-1.646-0.622-3.263-0.809-4.909c-0.355-3.125-0.59-6.264-0.924-9.395
			c-0.477-4.517-1.027-9.029-1.49-13.545c-0.34-3.387-0.576-6.778-0.901-10.16c-0.504-5.27-1.626-10.471-1.854-15.771
			c-0.013-0.309-0.179-0.732-0.406-0.855c-0.196-0.109-0.613,0.08-0.881,0.229c-1.028,0.568-2.003,1.227-3.055,1.748
			c-2.272,1.124-4.592,2.168-6.854,3.308c-0.233,0.118-0.363,0.703-0.334,1.054c0.114,1.264,0.346,2.517,0.473,3.782
			c0.11,1.103,0.075,2.221,0.232,3.317c0.189,1.335,0.617,2.637,0.767,3.974c0.29,2.629,0.438,5.277,0.689,7.912
			c0.302,3.121,0.737,6.234,0.948,9.359c0.182,2.709,0.041,5.445,0.219,8.157c0.234,3.545,0.625,7.083,0.975,10.62
			c0.377,3.872,0.787,7.736,1.167,11.607c0.069,0.691,0.408,0.991,1.095,0.9c1.686-0.221,3.371-0.41,5.048-0.662
			C265.672,244.591,267.871,243.413,270.174,244.925z"/>
		<path fill-rule="evenodd" clip-rule="evenodd" fill="#444444" d="M210.918,92.644c0.09-0.897,0.004-1.932,0.322-2.82
			c0.504-1.405,0.088-2.619-0.414-3.84c-0.271-0.661-0.768-1.23-1.089-1.871c-1.446-2.872-3.995-4.657-6.561-6.277
			c-1.565-0.993-3.581-1.258-5.364-1.923c-4.029-1.502-8.068-0.62-12.027,0.119c-2.506,0.474-4.875,1.649-7.297,2.555
			c-1.572,0.594-3.201,1.119-4.654,1.948c-2.168,1.242-4.213,2.705-6.284,4.113c-0.296,0.196-0.487,0.578-0.677,0.904
			c-0.471,0.749-0.947,1.504-1.375,2.278c-0.576,1.046-1.162,2.093-1.648,3.177c-0.439,0.971-0.092,1.488,0.986,1.57
			c1.021,0.069,2.045,0.066,3.061,0.093c2.986,0.082,5.969,0.141,8.949,0.247c1.553,0.058,3.104,0.184,4.656,0.299
			c1.318,0.095,2.689,0.509,3.939,0.264c2.068-0.407,4.043,0.038,6.059,0.058c3.062,0.03,6.127,0.03,9.184-0.112
			C204.052,93.262,207.412,92.917,210.918,92.644z"/>
		<path fill-rule="evenodd" clip-rule="evenodd" fill="#444444" d="M238.951,77.894c-2.867,0-5.332,0.023-7.799-0.013
			c-0.859-0.014-1.307,0.306-1.32,1.156c-0.027,1.573-0.021,3.142-0.045,4.72c-0.033,2.377-0.016,4.766-0.156,7.14
			c-0.091,1.577,0,2.003,1.561,2.064c2.537,0.103,5.09-0.008,7.631-0.082c0.207-0.004,0.535-0.394,0.574-0.644
			c0.111-0.749,0.176-1.52,0.145-2.275c-0.075-1.652-0.252-3.29-0.329-4.939C239.102,82.739,239.039,80.456,238.951,77.894z"/>
		<path fill-rule="evenodd" clip-rule="evenodd" fill="#444444" d="M137.859,92.979c2.607,0,4.967,0.031,7.332-0.024
			c0.762-0.017,0.879-0.62,0.842-1.303c-0.186-3.364-0.379-6.724-0.485-10.085c-0.036-0.953-0.341-1.305-1.276-1.275
			c-0.666,0.022-1.341-0.109-2.012-0.153c-1.713-0.108-3.43-0.214-5.527-0.337C137.121,84.335,137.494,88.698,137.859,92.979z"/>
		<path fill-rule="evenodd" clip-rule="evenodd" fill="#444444" d="M210.479,129.497c3.92-0.266,5.464-1.54,6.031-4.965
			c0.213-1.289-0.906-2.75-2.27-2.936c-2.342-0.328-4.668-0.224-6.869,0.693c-1.266,0.523-2.375,1.292-2.562,2.859
			c-0.189,1.572,0.609,2.526,1.811,3.375C207.812,129.374,209.078,129.638,210.479,129.497z"/>
		<path fill-rule="evenodd" clip-rule="evenodd" fill="#444444" d="M164.975,128.912c1-0.29,2.004-0.55,2.983-0.89
			c1.249-0.432,2.015-1.311,1.983-2.673c-0.02-0.898-2.297-3.849-2.988-3.971c-0.238-0.04-0.5,0.031-0.749,0.073
			c-1.347,0.232-2.679,0.642-4.019,0.656c-0.973,0.012-1.352,0.522-1.949,1.076c-0.861,0.8-0.418,1.312-0.104,2.153
			C161.279,128.366,161.817,128.822,164.975,128.912z"/>
		<path fill-rule="evenodd" clip-rule="evenodd" fill="#444444" d="M271.891,152.561c-0.188-0.985-0.389-1.964-0.53-2.954
			c-0.13-0.95,0.009-1.986-0.313-2.855c-0.895-2.38-1.915-4.722-2.99-7.035c-1.103-2.355-2.83-4.312-4.865-5.846
			c-1.836-1.389-3.93-2.486-6.029-3.442c-1.618-0.736-3.417-1.074-4.918-1.522c-1.803-0.008-1.842,0.137-1.395,1.726
			c0.231,0.838,0.266,1.756,0.253,2.633c-0.037,2.621-0.14,5.236-0.222,7.855c-0.025,0.842-0.121,1.688-0.074,2.532
			c0.164,2.815,0.488,5.625,0.543,8.438c0.049,2.539-0.298,5.088-0.251,7.627c0.085,4.168,0.323,8.324-0.208,12.496
			c-0.301,2.388-0.181,4.828-0.282,7.244c-0.06,1.344,0.819,2.104,2.106,1.667c0.628-0.216,1.166-0.687,1.787-0.95
			c3.992-1.679,7.748-3.693,10.869-6.812c2.182-2.171,3.898-4.578,4.822-7.502c0.469-1.493,0.76-3.045,1.112-4.572
			C271.973,158.409,272.465,155.521,271.891,152.561z M263.111,137.089c-1.004-0.297-1.756-0.539-2.356-1.146
			c-0.383-0.57-0.294-0.441-0.381-1.497c0.487,0.04,0.972,0.076,1.458,0.11c0.482,1.029,0.226,0.993,1.35,1.565
			C263.16,136.442,263.139,136.768,263.111,137.089z"/>
		<path fill-rule="evenodd" clip-rule="evenodd" fill="#444444" d="M248.48,157.616c0.022-2.166,0.299-4.333,0.25-6.496
			c-0.098-4.559-0.377-9.108-0.498-13.666c-0.043-1.781,0.194-3.572,0.196-5.357c0-1.999-0.164-3.994-0.179-5.994
			c-0.02-2.682,0.102-5.365,0.039-8.045c-0.119-5.348-0.319-10.689-0.488-16.032c-0.035-0.002-0.074-0.002-0.109-0.002
			c0-1.578,0.027-3.163-0.037-4.737c-0.008-0.23-0.428-0.611-0.691-0.639c-2.367-0.248-4.74-0.439-7.115-0.637
			c-1.912-0.154-3.822-0.428-5.727-0.413c-2.033,0.019-4.065,0.345-6.096,0.47c-1.814,0.107-3.645,0.2-5.467,0.156
			c-1.988-0.043-3.989-0.443-5.963-0.329c-3.09,0.179-6.182-0.112-9.264,0.185c-0.208,0.02-0.422-0.084-0.634-0.086
			c-0.63-0.002-1.267-0.01-1.894,0.034c-0.842,0.065-1.686,0.232-2.53,0.251c-1.948,0.034-3.901,0.002-5.851,0.004
			c-1.626,0.002-3.256,0.032-4.88,0.012c-1.62-0.02-3.237-0.132-4.85-0.128c-1.901,0.007-3.802,0.185-5.694,0.128
			c-2.104-0.068-4.188-0.384-6.287-0.453c-3.867-0.127-7.74-0.162-11.617-0.207c-1.141-0.018-2.283,0.018-3.426,0.081
			c-2.16,0.128-4.318,0.397-6.475,0.419c-2.074,0.021-4.16-0.35-6.225-0.275c-2.705,0.087-5.406,0.624-8.104,0.626
			c-3.158,0-6.328-0.332-9.484-0.586c-1.407-0.118-2.223,0.463-2.276,1.94c-0.089,2.466-0.142,4.935-0.146,7.406
			c-0.004,2.705,0.037,5.404,0.102,8.102c0.062,2.317,0.164,4.629,0.279,6.943c0.074,1.697,0.32,3.391,0.27,5.081
			c-0.104,2.969-0.332,5.933-0.58,8.891c-0.246,3.003,0.863,5.913,0.213,9.014c-0.457,2.187,0.141,4.583,0.133,6.89
			c-0.018,4.446-0.205,8.891-0.189,13.34c0.014,4.169,0.273,8.335,0.281,12.505c0.008,3.138,1.014,6.265,0.079,9.407
			c-0.04,0.116,0.022,0.256,0.03,0.381c0.117,2.043,0.332,4.085,0.332,6.125c0.002,3.375-0.24,6.753-0.18,10.125
			c0.053,3.253,0.344,6.5,0.549,9.744c0.053,0.908,0.342,1.607,1.462,1.652c1.606,0.064,3.204,0.263,4.808,0.332
			c1.275,0.059,2.561-0.051,3.836,0.014c2.936,0.143,5.866,0.42,8.801,0.496c1.85,0.045,3.717-0.255,5.574-0.259
			c2.586-0.009,5.176,0.157,7.766,0.171c1.306,0.004,2.68-0.473,3.902-0.205c4.003,0.867,8.008,0.396,12.01,0.424
			c3.746,0.023,7.498-0.006,11.246,0c0.73,0.002,1.451,0.063,2.174,0.101c6.938,0.321,13.834-1.085,20.784-0.366
			c2.919,0.305,5.878,0.264,8.816,0.319c2.438,0.047,4.873,0.035,7.308-0.015c1.836-0.035,3.663-0.236,5.492-0.242
			c3.816-0.014,7.631,0.059,11.443,0.086c1.029,0.006,2.073,0.078,3.072-0.08c0.354-0.055,0.815-0.689,0.871-1.105
			c0.129-0.963,0.023-1.955,0.039-2.937c0.1-5.156,0.211-10.317,0.302-15.474c0.008-0.535-0.162-1.07-0.146-1.609
			c0.082-2.848,0.258-5.695,0.277-8.545c0.023-3.44-0.158-6.892-0.106-10.336c0.03-2.213,0.426-4.416,0.476-6.629
			C248.568,164.265,248.446,160.939,248.48,157.616z M130.033,206.495c0.488-0.971-0.08-0.393,1-0.416
			C130.476,206.493,130.961,206.257,130.033,206.495z M152.637,119.17c1.043-1.692,2.144-3.25,3.72-4.463
			c0.201-0.153,0.384-0.413,0.597-0.466c2.553-0.531,4.864-2.305,7.592-1.771c3.355,0.662,6.783,1.223,9.768,3.111
			c0.954,0.611,1.932,1.18,2.897,1.778c1.95,1.216,1.858,3.188,1.907,4.505c-0.215,3.608-0.73,6.534-2.271,9.165
			c-0.584,0.985-1.303,1.896-2.035,2.776c-4.002,4.816-10.4,5.275-15.225,3.218c-2.973-1.274-5.379-3.546-7.178-6.216
			c-0.746-1.095-0.65-2.768-0.873-4.185c-0.141-0.834-0.146-1.686-0.221-2.528C151.146,122.288,151.666,120.737,152.637,119.17z
			 M140.76,206.794c-0.646-0.049-1.297-0.098-1.945-0.144c0.873-1.807,0.566-1.04,1.981-0.345
			C140.783,206.468,140.771,206.631,140.76,206.794z M145.9,203.264c-0.318-0.026-0.648-0.05-0.967-0.073
			c-0.498-0.489-0.051-0.189-0.936-0.558c0.021-0.325,0.047-0.647,0.068-0.974c1.119,0.227,1.185,0.307,1.902,0.628
			C145.945,202.612,145.923,202.935,145.9,203.264z M149.295,210.351c-0.875-0.383-0.439-0.068-0.938-0.561
			c-0.163-0.014-0.324-0.023-0.489-0.036c0.722-1.183-0.046-0.647,1.529-0.864C149.363,209.378,149.33,209.864,149.295,210.351z
			 M160.229,143.795c0.162,4.507,0.375,9.015,0.486,13.521c0.109,4.777,0.104,9.555,0.188,14.33c0.062,3.012,0.18,6.026,0.297,9.038
			c0.057,1.649,0.104,3.308,0.266,4.948c0.082,0.846-0.205,1.055-0.976,1.031c-1.958-0.057-3.924-0.133-5.88-0.086
			c-2.256,0.049-4.518,0.269-6.77,0.321c-1.355,0.036-2.712-0.104-3.92-0.159c-0.128-3.545-0.254-7.002-0.379-10.452
			c-0.023-0.636-0.059-1.271-0.076-1.905c-0.059-2.127-0.123-4.243-0.17-6.368c-0.043-2.063-0.072-4.132-0.107-6.193
			c-0.082-4.341-0.064-8.685-0.285-13.015c-0.178-3.93-0.617-7.844-0.949-11.766c-0.08-0.996,0.207-1.537,1.332-1.894
			c2.941-0.938,5.85,0.044,8.758-0.146c0.148-0.01,0.322,0.104,0.449,0.202c2.016,1.469,3.971,3.026,6.056,4.396
			c0.989,0.653,2.218,0.957,3.581,1.524C160.369,141.403,160.182,142.533,160.229,143.795z M184.816,187.612
			c-0.772,0.075-1.621,0.258-2.457,0.209c-4.502-0.25-9.006-0.582-13.507-0.832c-1.188-0.066-2.381,0.102-3.577,0.072
			c-0.283-0.006-0.779-0.357-0.804-0.593c-0.235-2.054-0.571-4.128-0.517-6.184c0.052-1.683-0.324-3.317-0.197-5.013
			c0.123-1.713-0.258-3.455-0.285-5.18c-0.033-1.951,0.145-3.913,0.112-5.869c-0.069-3.83-0.445-7.661-0.253-11.471
			c0.16-3.431-0.746-6.889,0.283-10.294c0.102-0.354-0.414-0.891-0.596-1.251c1.44-0.091,2.955-0.176,4.457-0.297
			c0.553-0.046,1.109-0.146,1.639-0.307c1.205-0.354,2.392-0.798,3.604-1.147c1.646-0.471,2.229-2.036,3.153-3.17
			c1.156-1.429,2.485-1.935,4.183-1.862c1.554,0.069,3.11,0.165,4.762,0.252C184.816,152.228,184.816,169.788,184.816,187.612z
			 M208.886,186.991c-0.01,0.412-0.595,1.059-1.019,1.163c-1.068,0.249-2.201,0.378-3.299,0.327
			c-3.492-0.161-6.979-0.445-10.465-0.654c-1.451-0.085-2.908-0.193-4.346-0.114c-1.086,0.055-1.554-0.595-1.678-1.365
			c-0.215-1.382-0.18-2.8-0.26-4.204c-0.054-0.976-0.164-1.95-0.193-2.928c-0.123-3.934-0.406-7.869-0.294-11.797
			c0.103-3.646,0.192-7.266-0.108-10.923c-0.24-2.96,0.186-5.965,0.299-8.952c0.104-2.924,0.199-5.854,0.27-8.777
			c0.023-1.021-0.056-2.038-0.092-3.061c-0.021-0.76,0.25-1.25,1.115-1.189c1.609,0.1,3.24,0.377,4.832,0.236
			c1.902-0.175,3.029,0.473,4.174,2.013c2.234,3.009,5.674,3.953,9.199,4.589c0.363,0.065,0.9,0.525,0.932,0.846
			c0.223,2.244,0.334,4.497,0.481,6.744c-0.069,0.006-0.144,0.01-0.212,0.012c0.117,2.767,0.29,5.528,0.348,8.29
			c0.045,2.161-0.074,4.327-0.088,6.489c-0.008,0.977,0.059,1.952,0.088,2.929c0.113,4.072,0.244,8.138,0.321,12.209
			C208.943,181.58,208.967,184.288,208.886,186.991z M206.791,138.129c-2.527-0.675-4.881-1.445-6.91-3.076
			c-0.492-0.392-0.953-0.864-1.297-1.383c-1.615-2.448-3.291-4.942-3.308-7.991c-0.023-4.319,1.438-8.02,5.25-10.454
			c1.34-0.855,2.679-1.8,4.155-2.341c1.312-0.479,2.807-0.46,4.22-0.66c2.87,0.059,5.585,0.566,8.177,1.793
			c0.916,0.439,2.047,0.541,2.836,1.117c1.205,0.883,2.211,2.045,3.287,3.103c1.034,1.022,1.156,2.376,1.093,3.692
			c-0.075,1.646-0.087,3.38-0.626,4.898c-0.578,1.634-1.668,3.115-2.66,4.574c-0.928,1.374-1.922,2.733-3.08,3.906
			c-0.898,0.91-1.995,1.856-3.174,2.215C212.191,138.317,209.639,138.891,206.791,138.129z M232.029,186.463
			c-0.055,0.812-0.584,0.968-1.232,0.989c-3.951,0.105-7.904,0.201-11.854,0.315c-1.871,0.052-3.74,0.146-5.609,0.192
			c-0.4,0.012-0.801-0.088-0.848-0.096c-0.268-0.725-0.45-1.156-0.584-1.602c-0.086-0.28-0.139-0.583-0.152-0.877
			c-0.129-3.31-0.295-6.615-0.352-9.927c-0.039-2.444,0.132-4.891,0.104-7.337c-0.05-4.101-0.192-8.199-0.282-12.297
			c-0.074-3.263-0.118-6.527-0.18-9.794c-0.021-0.966-0.15-1.94-0.08-2.897c0.068-0.805,0.496-1.406,1.429-1.554
			c3.539-0.569,6.271-2.357,8.319-5.334c0.781-1.142,1.549-2.61,3.213-2.679c2.16-0.082,4.336-0.025,6.501,0.052
			c0.909,0.033,1.138,0.708,1.112,1.552c-0.086,2.935-0.218,5.867-0.18,8.807c0.061,4.248,0.258,8.496,0.39,12.75
			c0.126,4.047,0.247,8.096,0.356,12.147c0.113,4.22,0.258,8.442,0.289,12.67C232.404,183.181,232.143,184.825,232.029,186.463z
			 M237.121,131.769c0.379-0.873,0.066-0.438,0.555-0.934C237.297,131.708,237.613,131.274,237.121,131.769z"/>
		<path fill-rule="evenodd" clip-rule="evenodd" fill="#444444" d="M121.359,218.593c0.377-5.744,0.814-11.483,1.09-17.228
			c0.008-0.142,0.01-0.28,0.016-0.422c-0.393,0.012-0.83,0.016-1.307,0.016c0.059-0.808,0.114-1.618,0.172-2.431
			c0.461,0.133,0.833,0.25,1.211,0.357c0.111-3.609,0.131-7.22,0.139-10.834c0-0.364-0.646-0.887-1.104-1.07
			c-0.707-0.283-1.505-0.301-2.25-0.496c-0.197-0.054-0.385-0.104-0.591-0.164c-0.237,0.605-0.028,0.295-0.476,0.748
			c0.328-0.74,0.152-0.545,0.39-0.771c-2.575-0.695-5.13-1.422-7.716-2.075c-0.363-0.097-1.148,0.153-1.203,0.374
			c-0.336,1.306-0.6,2.641-0.713,3.981c-0.143,1.849-0.104,3.714-0.203,5.563c-0.096,1.734-0.287,3.461-0.398,5.189
			c-0.204,2.952-0.379,5.911-0.568,8.867c-0.264,4.195-0.541,8.393-0.805,12.594c-0.169,2.598-0.299,5.2-0.51,7.798
			c-0.156,1.897-0.477,3.784-0.6,5.684c-0.217,3.555-0.342,7.111-0.492,10.669c-0.023,0.537,0.084,1.208,0.83,0.893
			c2.025-0.863,4.068-0.601,6.158-0.375c0.771,0.08,1.576-0.173,2.368-0.192c1.509-0.033,3.009-0.01,4.591-0.01
			c0.32-2.712,0.677-5.065,0.865-7.439c0.195-2.621,0.203-5.256,0.361-7.881C120.836,226.155,121.121,222.37,121.359,218.593z
			 M106.82,236.553c-0.497-0.473-0.054,0.042-0.449-0.521c-0.152-0.012-0.318-0.021-0.483-0.038c0.57-0.376,0.44-0.291,1.494-0.376
			C107.195,235.929,107.008,236.243,106.82,236.553z M111.105,191.435c-1.023-0.259-0.91-0.136-1.424-0.597
			c-0.501-0.475-0.058,0.046-0.453-0.522c1.217-0.231,0.786-0.25,1.944,0.141C111.15,190.783,111.128,191.104,111.105,191.435z
			 M116.322,226.988c-1.502-0.574-1.93-1.02-2.26-2.604c-0.164-0.012-0.318-0.023-0.483-0.037c0.804-1.505,1.646,0.751,2.812,1.67
			C116.369,226.344,116.346,226.663,116.322,226.988z M115.932,212.303c-0.166-0.012-0.331-0.024-0.486-0.035
			c0.023-0.324,0.047-0.647,0.069-0.976c0.622-0.48,1.147-1.157,1.596-1.83c0.813,0.055,1.614,0.115,2.431,0.175
			C118.498,211.057,117.274,211.274,115.932,212.303z M116.888,199.18c-0.159-0.01-0.322-0.021-0.483-0.033
			c0.113-1.944,0.098-2.586,1.223-3.329c0.895-0.443,2.227,0.943,3.285,1.705C119.513,198.417,118.003,197.935,116.888,199.18z"/>
		<path fill-rule="evenodd" clip-rule="evenodd" fill="#444444" d="M138.6,263.53c-0.873-2.854-2.434-5.432-4.564-7.539
			c-1.651-1.639-3.445-3.204-5.379-4.475c-1.592-1.033-3.477-1.6-5.25-2.327c-1.092-0.45-2.201-1.079-3.335-1.149
			c-1.758-0.103-3.521-0.104-5.291-0.108c-0.011,0.146-0.021,0.29-0.03,0.438c-0.623,0.381-0.576,0.325-1.037,0.902
			c-0.328-0.023-0.648-0.049-0.977-0.07c0.258-0.706,0.448-0.966,0.644-1.273c-0.837-0.006-1.67-0.02-2.497-0.051
			c-1.305-0.054-2.488,0.08-3.736,0.518c-0.998,0.343-2.164,0.142-3.23,0.317c-1.227,0.207-2.543,0.354-3.628,0.917
			c-1.593,0.827-3.015,1.995-4.495,3.038c-0.295,0.213-0.49,0.569-0.778,0.811c-0.624,0.525-1.28,1.024-1.931,1.528
			c-0.596,0.458-1.266,0.842-1.76,1.382c-0.658,0.72-1.166,1.576-1.77,2.338c-0.787,0.969-1.791,1.805-2.385,2.873
			c-2.082,3.752-3.721,7.682-4.152,12.192c1.576-0.132,3.074-0.509,4.49-0.319c2.295,0.299,4.521,0.49,6.859,0.428
			c5.795-0.168,11.604,0.055,17.42,0.104c0.588,0.007,1.17-0.202,1.756-0.187c1.432,0.041,2.857,0.163,4.279,0.243
			c0.85,0.045,1.699,0.076,2.547,0.102c2.758,0.087,5.549-0.027,8.287,0.309c2.35,0.286,4.621,0.216,6.939-0.173
			c1.105-0.187,2.316-0.061,3.434,0.157c1.068,0.203,1.5,0.025,1.484-1.125c-0.01-0.678-0.068-1.363-0.201-2.029
			C139.773,268.7,139.369,266.058,138.6,263.53z M111.656,250.586c-0.873-0.382-0.439-0.066-0.936-0.56
			c-0.494-0.473-0.052,0.05-0.449-0.518c0.766-0.224,0.833-0.302,1.979-0.346C112.053,249.641,111.854,250.113,111.656,250.586z
			 M122.418,250.399c-0.375,0.869-0.062,0.438-0.551,0.932C122.238,250.458,121.929,250.894,122.418,250.399z M121.269,272.786
			c0.011-0.166,0.022-0.326,0.033-0.484c-0.317-0.021-0.646-0.045-0.966-0.07c0.024-0.326,0.047-0.654,0.068-0.974
			c0.473,0.198,0.943,0.393,1.425,0.593C121.829,271.851,121.562,273.749,121.269,272.786z M121.729,266.468
			c0.011-0.164,0.022-0.322,0.034-0.485c-0.152-0.012-0.316-0.021-0.481-0.035c0.249-1.021,0.136-0.912,0.593-1.427
			c0.666-0.304,0.678-0.146,1.42,0.594c0.382,0.574,0.298,0.443,0.383,1.498C123.027,266.565,122.379,266.517,121.729,266.468z
			 M126.16,272.655c-0.011,0.162-0.021,0.323-0.033,0.488c-0.495-0.477-0.054,0.043-0.449-0.523c-0.414-1.318-0.133-1.111,1.047-0.9
			C126.342,272.591,126.657,272.155,126.16,272.655z M126.78,257.557c-0.794-0.222-1.591-0.443-2.394-0.663
			c0.59-2.415,1.042-1.281,2.471-0.311C126.83,256.907,126.803,257.229,126.78,257.557z"/>
		<path fill-rule="evenodd" clip-rule="evenodd" fill="#444444" d="M125.227,181.968c-0.1-1.313-0.227-2.632-0.238-3.95
			c-0.051-4.243-0.049-8.485-0.075-12.727c-0.025-2.891-0.085-5.784-0.079-8.673c0.006-4.923,0.051-9.854,0.079-14.775
			c0.013-2.711,0.002-5.424,0.002-8.134c-0.079-0.002-0.146-0.002-0.216-0.002c0.014-0.255,0.027-0.511,0.039-0.769
			c0.062-1.425-0.057-1.609-1.506-1.367c-1.135,0.188-2.23,0.622-3.346,0.944c-1.367,0.392-2.814,0.612-4.092,1.204
			c-3.232,1.484-6.342,3.196-8.963,5.659c-0.392,0.368-0.768,0.782-1.049,1.239c-1.34,2.15-2.676,4.307-3.951,6.492
			c-0.663,1.121-1.439,2.252-1.744,3.484c-0.374,1.459-0.687,2.928-0.904,4.4c0.291-0.049,0.586-0.073,0.914-0.033
			c-0.033,0.486-0.072,0.973-0.111,1.455c-0.629,0.379-0.585,0.33-1.047,0.898c-0.012,0-0.023,0-0.035,0.002
			c-0.197,2.629-0.042,5.271,0.764,7.929c0.252,0.841,0.652,1.67,0.744,2.532c0.315,2.837,1.467,5.277,3.355,7.373
			c1.033,1.136,2.271,2.107,3.166,3.335c1.074,1.462,2.51,2.308,4.117,2.858c2.234,0.764,4.531,1.346,6.817,1.962
			c1.565,0.419,3.128,0.957,4.72,1.097C124.99,184.607,125.408,184.268,125.227,181.968z M104.596,160.177
			c-0.874-0.377-0.44-0.068-0.934-0.558c-0.609-0.865-0.484-1.791-1.283-2.536c0.012-0.162,0.022-0.326,0.034-0.486
			c1.218,0.623,1.287,1.35,2.294,2.12C104.664,159.203,104.629,159.69,104.596,160.177z M105.35,149.971
			c0.25-1.022,0.126-0.91,0.584-1.424c0.571-0.407,0.085-0.173,1.012-0.413c-0.011,0.162-0.023,0.324-0.035,0.485
			c0.409,0.565,0.182,0.079,0.417,1.005C106.561,149.845,106.497,149.928,105.35,149.971z M108.286,156.539
			c-0.319-0.021-0.65-0.045-0.979-0.07c-0.328-0.478-0.562-0.573-0.9-1.044c1.217-0.233,0.786-0.253,1.947,0.137
			C108.331,155.89,108.309,156.214,108.286,156.539z M120.802,165.758c0.382-0.871,0.062-0.438,0.55-0.933
			C120.98,165.695,121.29,165.263,120.802,165.758z"/>
	</g>
</g>
</svg>
