<?xml version="1.0" encoding="utf-8"?>
<!-- Generator: Adobe Illustrator 16.0.0, SVG Export Plug-In . SVG Version: 6.00 Build 0)  -->
<!DOCTYPE svg PUBLIC "-//W3C//DTD SVG 1.1//EN" "http://www.w3.org/Graphics/SVG/1.1/DTD/svg11.dtd">
<svg version="1.1" id="Layer_1" xmlns="http://www.w3.org/2000/svg" xmlns:xlink="http://www.w3.org/1999/xlink" x="0px" y="0px"
	 width="800px" height="600px" viewBox="0 0 800 600" enable-background="new 0 0 800 600" xml:space="preserve">
<path fill-rule="evenodd" clip-rule="evenodd" fill="#444444" d="M640.143,361.538c0.038-0.901,0.213-1.805,0.171-2.699
	c-0.183-3.919-0.499-7.833-0.618-11.753c-0.133-4.312-0.476-8.662-0.064-12.933c0.7-7.289,0.055-14.477-0.591-21.704
	c-0.269-3.013-0.175-6.06-0.2-9.093c-0.014-1.551,0.099-3.103,0.104-4.653c0.003-0.729-0.155-1.458-0.166-2.188
	c-0.077-5.054-0.117-10.108-0.202-15.163c-0.068-4.014-0.309-8.029-0.246-12.041c0.059-3.708,0.57-7.41,0.611-11.118
	c0.061-5.529-0.12-11.061-0.192-16.592c-0.057-4.243-0.135-8.486-0.147-12.729c-0.01-3.229,0.039-6.459,0.119-9.688
	c0.056-2.25,0.319-4.499,0.297-6.745c-0.066-6.529-0.26-13.057-0.345-19.585c-0.054-4.072,0.007-8.146,0-12.218
	c-0.003-1.641-0.124-3.284-0.057-4.921c0.136-3.315,0.378-6.626,0.544-9.94c0.065-1.331,0.028-2.666,0.068-3.999
	c0.057-1.864,0.253-3.732,0.181-5.592c-0.063-1.59-0.578-3.165-0.608-4.752c-0.039-2.128,0.21-4.26,0.307-6.392
	c0.057-1.215,0.137-2.437,0.063-3.647c-0.111-1.871-0.464-3.732-0.493-5.602c-0.029-1.802,0.504-3.642,0.299-5.408
	c-0.82-7.087-3.293-13.596-7.67-19.259c-1.104-1.429-2.693-2.564-4.244-3.543c-1.25-0.789-2.789-1.11-4.18-1.688
	c-2.284-0.949-4.499-2.104-6.844-2.856c-1.711-0.55-3.576-0.684-5.387-0.847c-6.668-0.602-13.335-1.277-20.017-1.651
	c-5.04-0.282-10.104-0.114-15.156-0.208c-2.552-0.048-5.104-0.381-7.651-0.324c-6.072,0.136-12.14,0.473-18.213,0.634
	c-2.616,0.069-5.242-0.206-7.857-0.122c-3.445,0.11-6.882,0.458-10.326,0.63c-1.627,0.081-3.268-0.088-4.895-0.006
	c-4.127,0.209-8.247,0.653-12.375,0.707c-3.025,0.039-6.052-0.162-9.08-0.289c-0.119,0.202-0.313,0.382-0.479,0.568
	c-0.142-0.133-0.423-0.287-0.399-0.398c0.015-0.066,0.041-0.131,0.074-0.195c-0.816-0.03-1.634-0.06-2.451-0.068
	c-5.63-0.059-11.264-0.059-16.892,0.082c-3.158,0.078-6.316,0.419-9.458,0.779c-2.346,0.269-4.834,0.354-6.957,1.241
	c-3.11,1.299-6.118,3.007-8.868,4.966c-4.354,3.103-6.14,8.138-8.215,12.74c-1.163,2.581-1.119,5.765-1.34,8.697
	c-0.368,4.881-0.572,9.776-0.729,14.67c-0.097,3.007,0.12,6.024,0.026,9.032c-0.137,4.369-0.544,8.73-0.624,13.1
	c-0.13,6.99-0.167,13.983-0.088,20.975c0.063,5.562,0.322,11.124,0.563,16.684c0.122,2.824,0.457,5.64,0.589,8.464
	c0.141,3.017,0.112,6.04,0.236,9.058c0.212,5.17,0.588,10.336,0.691,15.508c0.053,2.556-0.374,5.118-0.528,7.682
	c-0.026,0.436-0.006,0.879,0.035,1.321c2.77,0.219,5.547-0.038,8.325-0.136c0.021-2.692,0.05-5.386,0.06-8.078
	c0.011-2.78-0.256-5.561-0.266-8.34c-0.021-6.126,0.036-12.252,0.07-18.376c0.035-6.204,0.04-12.409,0.146-18.612
	c0.046-2.67,0.355-5.334,0.467-8.005c0.049-1.169-0.111-2.347-0.155-3.521c-0.114-3.077-0.154-6.159-0.349-9.232
	c-0.115-1.798-0.648-3.579-0.674-5.372c-0.053-3.688,0.407-7.405,0.082-11.06c-0.248-2.789,0.331-5.342,0.912-7.946
	c0.114-0.517,0.792-1.188,1.302-1.278c1.242-0.223,2.614-0.44,3.798-0.135c3.017,0.78,5.935,0.222,8.901-0.128
	c1.562-0.184,3.155-0.147,4.733-0.119c5.058,0.092,10.113,0.227,15.17,0.345c0.244,0.005,0.501,0.05,0.73-0.01
	c5.309-1.383,10.643-0.634,16-0.377c4.189,0.199,8.41-0.34,12.611-0.278c5.702,0.082,11.398,0.526,17.101,0.626
	c6.197,0.106,12.397-0.013,18.597-0.018c7.311-0.007,14.621,0.014,21.931,0.002c4.313-0.007,8.626-0.075,12.938-0.078
	c4.568-0.002,9.135,0.055,13.703,0.059c3.774,0.003,7.55,0.003,11.322-0.064c2.673-0.048,5.345-0.289,8.016-0.285
	c1.186,0.001,2.049,0.627,2.643,1.878c1.762,3.708,0.597,7.558,0.809,11.335c0.062,1.084,0.066,2.174,0.063,3.26
	c-0.021,7.417,0,14.834-0.107,22.25c-0.038,2.663-0.528,5.318-0.575,7.982c-0.078,4.404,0.133,8.812,0.045,13.217
	c-0.101,5.075-0.559,10.146-0.562,15.221c-0.004,6.195,0.372,12.391,0.441,18.587c0.024,2.242-0.477,4.485-0.537,6.734
	c-0.138,5.021-0.078,10.045-0.239,15.063c-0.103,3.162-0.539,6.312-0.681,9.475s-0.103,6.332-0.142,9.498
	c-0.005,0.306,0.029,0.613,0.007,0.915c-0.184,2.335-0.273,4.683-0.584,7.001c-0.835,6.225-0.317,12.465-0.334,18.697
	c-0.014,4.764-0.046,9.529,0.047,14.291c0.078,4.006,0.386,8.006,0.482,12.012c0.109,4.508,0.169,9.021,0.109,13.53
	c-0.035,2.604-0.502,5.204-0.501,7.807c0.002,4.869,0.233,9.738,0.305,14.609c0.025,1.76-0.235,3.525-0.185,5.284
	c0.115,4.063,0.441,8.123,0.496,12.186c0.054,3.951-0.115,7.904-0.203,11.856c-0.078,3.529-0.229,7.058-0.246,10.587
	c-0.006,1.256,0.157,2.545,0.463,3.764c1.014,4.041-0.667,7.972-0.385,11.99c0.246,3.515,0.195,7.051,0.303,10.576
	c0.041,1.334,0.142,2.666,0.252,3.996c0.199,2.424,0.496,4.842,0.615,7.27c0.067,1.376-0.062,2.777-0.27,4.143
	c-0.06,0.397-0.633,0.896-1.067,1.028c-1.61,0.485-3.262,0.835-4.897,1.237c-0.027-0.156-0.055-0.312-0.082-0.469
	c-7.473,0-14.943-0.006-22.415,0.002c-6.927,0.008-13.835,0.306-20.726,1.074c-1.927,0.217-3.895,0.044-5.844,0.078
	c-2.011,0.035-4.021,0.104-6.031,0.162c-2.187,0.063-4.379,0.062-6.559,0.213c-3.311,0.23-6.61,0.603-9.92,0.841
	c-1.455,0.104-2.922,0.037-4.385,0.028c-7.015-0.04-14.03-0.082-21.045-0.141c-0.545-0.005-1.087-0.201-1.633-0.216
	c-1.674-0.046-3.35-0.036-5.023-0.063c-4.975-0.083-9.948-0.27-14.921-0.219c-2.694,0.026-5.383,0.48-8.077,0.691
	c-2.9,0.228-5.812,0.611-8.71,0.541c-4.552-0.111-9.093-0.619-13.645-0.812c-2.062-0.089-4.115-0.358-6.21,0.581
	c-0.991,0.444-2.555-0.249-3.806-0.613c-0.339-0.097-0.659-0.859-0.688-1.335c-0.25-4.213-0.395-8.434-0.645-12.647
	c-0.181-3.065-0.569-6.122-0.688-9.188c-0.103-2.655,0.114-5.321,0.06-7.979c-0.053-2.541-0.373-5.078-0.387-7.619
	c-0.014-2.466,0.604-4.99,0.254-7.387c-0.732-5,0.84-9.832,0.571-14.809c-0.304-5.625,0.03-11.288,0.159-16.934
	c0.074-3.333,0.332-6.662,0.418-9.994c0.033-1.27-0.237-2.543-0.277-3.817c-0.105-3.312-0.066-6.629-0.262-9.935
	c-0.182-3.072-0.654-6.128-0.889-9.199c-0.297-3.874-0.515-7.755-0.709-11.637c-0.319-6.361-0.742-12.722-0.836-19.088
	c-0.074-5.092,0.344-10.189,0.406-15.287c0.032-2.686-0.116-5.375-0.195-8.062h-6.593c0.194,3.81,0.428,7.619,0.554,11.432
	c0.12,3.573,0.026,7.154-0.037,10.73c-0.029,1.568-0.295,3.131-0.324,4.699c-0.052,2.723,0.111,5.452-0.022,8.168
	c-0.21,4.248-0.509,8.495-0.925,12.727c-0.376,3.822,1.188,7.836-1.414,11.582c2.553,0.057,1.404,1.729,1.469,2.739
	c0.21,3.276,0.498,6.575,0.329,9.843c-0.26,5.042-1.032,10.057-1.294,15.1c-0.317,6.104-0.411,12.223-0.444,18.337
	c-0.02,3.456,0.303,6.914,0.428,10.373c0.1,2.781,0.256,5.569,0.159,8.347c-0.08,2.303-0.701,4.592-0.714,6.89
	c-0.03,5.334,0.184,10.671,0.255,16.007c0.032,2.355-0.295,4.743-0.003,7.059c0.348,2.767-1.151,5.566,0.269,8.271
	c0.071,0.136-0.026,0.357-0.041,0.54c-0.349,3.959-0.771,7.914-1.014,11.881c-0.133,2.171,0.064,4.361,0.066,6.543
	c0.002,1.855-0.267,3.738-0.029,5.559c0.167,1.271,0.907,2.498,1.531,3.672c1.473,2.768,1.306,6.199,4.231,8.461
	c2.247,1.738,4.151,3.894,6.933,4.854c1.706,0.591,3.498,0.998,5.113,1.773c3.818,1.834,7.956,2.114,12.029,2.617
	c2.599,0.321,5.281-0.025,7.873,0.325c3.557,0.48,7.088,0.877,10.678,0.56c0.725-0.064,1.462-0.079,2.188-0.031
	c2.844,0.187,5.683,0.534,8.528,0.588c5.843,0.11,11.688,0.054,17.533,0.096c3.166,0.024,6.338,0.264,9.497,0.135
	c4.874-0.2,9.735-0.694,14.609-0.945c3.041-0.155,6.098-0.013,9.141-0.148c3.774-0.168,7.54-0.58,11.314-0.713
	c4.744-0.166,9.494-0.158,14.241-0.223c7.697-0.105,15.397-0.172,23.094-0.343c1.854-0.042,3.721-0.323,5.541-0.694
	c1.308-0.269,2.515-1.046,3.823-1.289c4.411-0.821,8.633-1.996,12.042-5.143c1.117-1.032,2.195-2.144,3.447-2.986
	c3.479-2.344,3.82-6.367,4.863-9.766c1.252-4.076,1.389-8.506,1.892-12.797c0.261-2.221,0.771-4.596,0.255-6.672
	c-0.539-2.164-0.492-4.156-0.349-6.285c0.218-3.205,0.33-6.428,0.261-9.639c-0.08-3.627-0.468-7.246-0.616-10.872
	c-0.216-5.267,1.229-10.426,0.597-15.795c-0.606-5.146-0.174-10.417-0.165-15.634c0.003-2.315,0.153-4.631,0.114-6.944
	c-0.043-2.66-0.338-5.317-0.314-7.975c0.028-3.281,0.282-6.561,0.42-9.841C639.782,370.686,639.952,366.111,640.143,361.538z
	 M514.965,126.534c-2.287-0.031-3.791-1.252-3.791-3.08c0.001-2.639,1.944-5.693,3.625-5.698c1.919-0.007,5.065,3.532,5.012,5.637
	C519.764,125.226,517.689,126.569,514.965,126.534z M547.937,105.479c1.823-0.009,3.739,2.67,3.701,5.175
	c-0.026,1.701-1.903,3.178-4.038,3.175c-1.926-0.002-3.412-1.24-3.409-2.839C544.196,107.301,545.426,105.491,547.937,105.479z
	 M524.78,112.293c0.583-1.744,1.722-2.477,4.34-2.225C527.445,110.928,526.221,111.557,524.78,112.293z M565.18,124.614
	c-1.113,0.256-2.289,0.242-3.437,0.349l-0.011-0.13c-5.51,0-11.02-0.042-16.528,0.016c-3.604,0.037-7.227,0.032-10.796,0.432
	c-1.327,0.148-2.447,0.282-3.63-0.328c-1.376-0.708-2.108-3.235-1.185-4.418c0.216-0.277,0.733-0.434,1.119-0.446
	c3.137-0.105,6.275-0.196,9.414-0.228c4.045-0.039,8.089-0.027,12.135-0.019c3.752,0.008,7.51-0.06,11.254,0.132
	c0.994,0.051,2.203,0.71,2.858,1.477C567.5,122.769,566.889,124.222,565.18,124.614z M582.761,117.111
	c-0.181,0.02-0.362,0.033-0.544,0.049c0.1-0.668,0.199-1.34,0.297-2.008c0.084,0,0.166,0,0.247,0.002
	C582.761,115.809,582.761,116.461,582.761,117.111z M601.694,110.158c-0.199-0.746-0.398-1.49-0.599-2.236
	c0.207-0.045,0.417-0.09,0.627-0.133c0.228,0.74,0.46,1.479,0.689,2.219C602.173,110.059,601.934,110.107,601.694,110.158z
	 M621.416,126.336c-0.125-0.119-0.387-0.27-0.357-0.344c0.078-0.227,0.274-0.42,0.421-0.625c0.219,0.17,0.497,0.342,0.475,0.373
	C621.812,125.955,621.603,126.139,621.416,126.336z M452.384,455.152c-0.239-0.191-0.48-0.383-0.721-0.574
	c0.534-0.479,1.066-0.957,1.603-1.434c0.188,0.191,0.378,0.383,0.566,0.574C453.352,454.195,452.869,454.676,452.384,455.152z
	 M518.917,492.918c-0.151-0.062-0.301-0.123-0.455-0.184c0.31-0.545,0.624-1.09,0.934-1.631c0.153,0.061,0.304,0.123,0.457,0.184
	C519.541,491.83,519.231,492.373,518.917,492.918z M561.434,475.593c-0.097,2.687-0.793,5.426-1.668,7.992
	c-1.088,3.19-3.756,5.01-6.861,5.953c-3.557,1.079-7.311,1.032-10.785-0.025c-4.445-1.353-8.28-3.783-9.46-8.83
	c-0.286-1.229-0.537-2.465-0.806-3.697c0.453-6.243,4.059-13.016,10.369-14.906c3.492-1.045,7.155-0.34,10.66,1.262
	c2.972,1.357,5.303,3.443,7.049,5.906C561.11,470.91,561.51,473.466,561.434,475.593z M630.849,393.82
	c-0.347,0.006-0.693,0.01-1.039,0.016c0-1.424,0-2.85,0-4.275C631.415,390.928,630.667,392.398,630.849,393.82z M636.643,163.564
	c0.134-0.15,0.264-0.299,0.398-0.449c0.522,0.33,1.047,0.666,1.57,1c-0.122,0.141-0.245,0.283-0.37,0.426
	C637.707,164.215,637.176,163.891,636.643,163.564z"/>
<path fill-rule="evenodd" clip-rule="evenodd" fill="#444444" d="M520.545,268.163c-0.944-1.919-1.299-4.221-3.454-5.357
	c-0.754-3.552-4.026-4.117-6.608-5.219c-3.686-1.574-7.602-2.497-11.672-2.712c-2.299-0.122-4.568-0.758-6.868-0.953
	c-4.544-0.387-9.099-0.647-13.652-0.925c-3.993-0.244-7.986-0.52-11.984-0.635c-4.097-0.117-8.202,0.037-12.297-0.105
	c-3.364-0.116-6.716-0.628-10.08-0.727c-6.733-0.197-13.471-0.282-20.206-0.318c-6.535-0.037-13.07,0.049-19.605,0.074
	c-3.039,0.014-6.082-0.085-9.116,0.043c-4.476,0.188-8.944,0.558-13.42,0.794c-0.944,0.05-1.912-0.269-2.852-0.197
	c-2.836,0.215-5.661,0.75-8.494,0.771c-4.458,0.034-8.93-0.497-13.378-0.332c-4.979,0.185-9.938,0.877-14.906,1.348
	c-0.011-0.048-0.022-0.097-0.033-0.146c-1.337,0-2.712-0.204-4.004,0.036c-5.16,0.96-9.548-1.81-14.291-2.832
	c-0.537-0.116-1.095-0.62-1.437-1.093c-2.717-3.77-1.969-7.462,2.111-9.768c3.683-2.082,7.816-1.688,11.757-2.069
	c5.913-0.572,11.879-0.578,17.82-0.88c3.33-0.17,6.689-0.226,9.975-0.732c5.072-0.78,9.994-2.08,14.36-5.061
	c2.755-1.879,5.662-3.591,6.321-7.137c0.342-1.836,0.137-3.798-0.004-5.688c-0.008-0.091-0.029-0.187-0.042-0.279
	c0.225-1.226-0.139-2.44-1.401-3.474c-2.044-1.672-5.139-2.24-7.711-2.271c-0.076-0.001-0.142,0.016-0.198,0.042h-13.427
	c-0.07-0.025-0.148-0.04-0.236-0.025c-2.661,0.434-5.359,0.425-8.035,0.135c-0.133-0.014-0.231,0.026-0.303,0.092
	c-0.231-0.007-0.474-0.002-0.737,0.026c-3.749,0.388-7.528,0.607-11.296,0.641c-5.076,0.044-10.153-0.208-15.229-0.212
	c-1.367-0.001-2.726,0.531-4.103,0.654c-3.748,0.338-7.513,0.515-11.256,0.897c-2.41,0.247-4.797,0.737-7.191,1.133
	c-5.266,0.87-10.561,1.602-15.78,2.686c-2.819,0.586-5.571,1.634-8.247,2.733c-4.489,1.848-9.017,3.672-13.299,5.938
	c-4.335,2.294-8.387,5.121-12.572,7.698c-4.145,2.552-8.314,5.067-12.449,7.638c-1.163,0.724-2.19,1.67-3.367,2.365
	c-4.181,2.471-8.372,4.928-12.613,7.291c-2.44,1.359-4.961,2.583-7.489,3.774c-2.729,1.285-5.475,2.552-8.278,3.661
	c-3.478,1.375-7.019,2.587-10.537,3.855c-2.001,0.723-4.019,1.397-6.016,2.125c-3.085,1.123-6.077,2.661-9.255,3.319
	c-5.159,1.068-10.429,1.616-15.667,2.27c-1.368,0.171-2.789-0.113-4.188-0.127c-3.83-0.037-3.938,0.063-3.923,4.044
	c0.021,5.337,0.383,10.672,0.522,16.011c0.223,8.641,0.337,17.283,0.587,25.923c0.154,5.292,0.478,10.579,0.724,15.869
	c0.328,6.986,0.584,13.977,1.002,20.956c0.411,6.87,0.959,13.732,1.506,20.594c0.213,2.655,0.997,3.2,3.705,2.86
	c0.361-0.045,0.712-0.202,1.073-0.234c3.217-0.289,6.438-0.826,9.65-0.785c6.359,0.079,12.714,0.462,19.068,0.75
	c6.466,0.294,12.753,1.645,19.038,3.11c5.764,1.345,10.385,4.934,15.498,7.524c4.96,2.514,9.6,5.658,14.376,8.531
	c0.777,0.466,1.488,1.075,2.312,1.422c1.676,0.704,3.392,1.326,5.12,1.888c3.529,1.145,7.02,2.512,10.634,3.27
	c6.064,1.271,12.213,2.147,18.329,3.169c3.36,0.562,6.711,1.355,10.096,1.553c3.881,0.225,7.793-0.113,11.692-0.168
	c1.51-0.021,3.025,0.158,4.528,0.074c1.607-0.089,3.202-0.543,4.804-0.55c3.469-0.016,6.938,0.214,10.407,0.215
	c1.277,0,2.551-0.401,3.835-0.547c1.55-0.178,3.108-0.399,4.66-0.382c1.918,0.021,3.831,0.377,5.749,0.4
	c5.224,0.066,10.45-0.049,15.672,0.063c4.924,0.105,9.842,0.457,14.766,0.613c5.411,0.173,10.825,0.283,16.239,0.341
	c1.39,0.015,2.781-0.301,4.177-0.408c4.051-0.312,8.137-0.373,12.15-0.945c5.409-0.77,9.704-3.823,13.396-7.676
	c1.184-1.236,2.282-2.78,2.791-4.383c0.655-2.061,1.004-4.126-0.465-6.401c-2.709-4.198-6.508-6.633-10.995-8.268
	c-5.865-2.138-11.924-3.445-18.141-4.031c-0.785-0.073-1.557-0.28-2.339-0.396c-1.96-0.293-3.918-0.764-5.885-0.806
	c-2.847-0.061-4.108-1.643-2.688-4.03c0.489-0.821,1.805-1.406,2.836-1.593c1.718-0.312,3.525-0.102,5.271-0.318
	c2.951-0.365,5.87-1.023,8.827-1.316c3.817-0.378,7.666-0.428,11.484-0.787c3.018-0.286,6.142-0.424,8.98-1.354
	c4.086-1.336,7.982-3.279,11.902-5.086c0.821-0.379,1.493-1.22,2.069-1.974c2.062-2.701,1.541-5.757,0.858-8.706
	c-0.632-2.724-2.414-4.811-4.248-6.912c-2.117-2.425-4.582-4.031-7.592-5.068c-3.755-1.292-8.004-1.23-11.227-4.025
	c-0.195-0.168-0.578-0.154-0.876-0.165c-2.824-0.106-5.665-0.051-8.472-0.329c-4.7-0.467-9.378-0.627-14.083-0.102
	c-0.613,0.068-1.798-0.473-1.87-0.88c-0.246-1.401-0.297-2.904-0.036-4.296c0.099-0.527,1.207-1.123,1.921-1.224
	c1.357-0.192,2.767,0.019,4.146-0.061c6.008-0.34,12.025-0.585,18.015-1.14c4.18-0.387,8.367-1.007,12.462-1.92
	c3.549-0.791,6.95-2.222,10.457-3.223c4.096-1.168,5.654-4.599,7.273-7.946c0.363-0.75,0.264-1.818,0.125-2.699
	c-1.076-6.84-6.135-10.353-11.821-12.483c-5.243-1.966-10.964-2.681-16.493-3.854c-1.952-0.415-3.958-0.6-5.947-0.819
	c-4.229-0.469-8.453-1.078-12.696-1.271c-3.08-0.142-6.187,0.285-9.28,0.468c-1.7,0.101-2.69-0.986-2.617-2.681
	c0.076-1.775,1.324-2.271,2.668-2.489c3.003-0.489,6.02-0.966,9.049-1.197c4.182-0.32,8.381-0.462,12.573-0.577
	c2.678-0.073,5.362,0.104,8.042,0.053c2.392-0.046,4.783-0.363,7.173-0.355c3.89,0.012,7.78,0.217,11.671,0.293
	c6.153,0.121,12.309,0.244,18.464,0.292c5.644,0.045,11.289-0.047,16.934-0.002c2.794,0.021,5.585,0.252,8.381,0.319
	c2.009,0.049,4.02-0.041,6.028-0.025c3.533,0.025,7.082,0.321,10.596,0.076c6.49-0.455,12.959-1.211,19.437-1.857
	c4.121-0.412,7.723-2.196,11.098-4.438c0.649-0.43,1.141-1.431,1.277-2.24c0.389-2.312,0.575-4.66,0.797-6.997
	C520.862,268.857,520.7,268.479,520.545,268.163z M163.968,315.078c-0.262,0.049-0.552,0.104-0.842,0.158
	c-0.004-0.188-0.096-0.465,0.012-0.541c0.219-0.152,0.546-0.195,0.83-0.287C163.968,314.594,163.968,314.779,163.968,315.078z
	 M207.934,299.221c0.225-0.555,0.352-0.863,0.477-1.17c0.153,0.24,0.33,0.477,0.431,0.73
	C208.854,298.816,208.486,298.957,207.934,299.221z M219.925,362.689c-0.021,0-0.064-0.482-0.041-0.488
	c0.484-0.07,0.978-0.107,1.469-0.152c0.009,0.203,0.021,0.404,0.03,0.607C220.896,362.674,220.409,362.699,219.925,362.689z
	 M242.473,382.359c-0.13,0.002-0.262,0.006-0.392,0.008c0-0.83,0-1.658,0-2.488c0.13-0.008,0.262-0.018,0.392-0.027
	C242.473,380.688,242.473,381.523,242.473,382.359z M260.719,308.457c-0.204,0.1-0.821-0.055-0.951-0.236
	c-0.72-1.01,0.061-1.604,1.106-2.35C261.795,307.059,261.926,307.861,260.719,308.457z M271.554,316.34
	c-0.127-0.096-0.254-0.188-0.38-0.279c0.5-0.549,0.999-1.094,1.498-1.643c0.187,0.15,0.37,0.299,0.557,0.449
	C272.669,315.359,272.11,315.85,271.554,316.34z M308.272,370.504c-0.927,0-1.854,0-2.779,0c-0.004-0.145-0.006-0.287-0.01-0.43
	c0.954,0,1.908,0,2.861,0C308.321,370.217,308.297,370.359,308.272,370.504z M334.445,404.254c-0.681-0.08-1.362-0.156-2.042-0.232
	c0.017-0.121,0.032-0.238,0.05-0.357c0.68,0.082,1.362,0.166,2.044,0.244C334.479,404.023,334.462,404.139,334.445,404.254z
	 M333.436,300.102c0.007-0.1,0.017-0.203,0.025-0.305c1.03,0,2.062,0,3.064,0c0.071,0.135,0.12,0.221,0.165,0.305
	C335.604,300.102,334.52,300.102,333.436,300.102z M420.258,356.24c0,0.572,0,1.143,0,1.715c-0.367,0.016-0.733,0.027-1.103,0.043
	c-0.042-0.576-0.088-1.152-0.134-1.732C419.433,356.256,419.844,356.248,420.258,356.24z M422.395,281.102
	c-0.11-0.109-0.221-0.221-0.331-0.33c0.328-0.232,0.657-0.461,0.988-0.691c0.122,0.131,0.244,0.264,0.368,0.393
	C423.077,280.684,422.736,280.893,422.395,281.102z"/>
</svg>
