<?xml version="1.0" encoding="utf-8"?>
<!-- Generator: Adobe Illustrator 16.0.0, SVG Export Plug-In . SVG Version: 6.00 Build 0)  -->
<!DOCTYPE svg PUBLIC "-//W3C//DTD SVG 1.1//EN" "http://www.w3.org/Graphics/SVG/1.1/DTD/svg11.dtd">
<svg version="1.1" id="Layer_1" xmlns="http://www.w3.org/2000/svg" xmlns:xlink="http://www.w3.org/1999/xlink" x="0px" y="0px"
	 width="800px" height="600px" viewBox="0 0 800 600" enable-background="new 0 0 800 600" xml:space="preserve">
<path fill-rule="evenodd" clip-rule="evenodd" fill="#FDD700" d="M351.343,117.388c3.134,0.055,6.268,0.108,9.402,0.166
	c1.336,0.024,2.673,0.084,4.01,0.082c3.838-0.008,7.677-0.083,11.513-0.046c3.474,0.034,6.945,0.245,10.42,0.269
	c8.718,0.058,17.439-0.096,26.152,0.115c8.905,0.217,17.801,0.79,26.705,1.16c5.217,0.219,10.439,0.291,15.656,0.53
	c3.907,0.18,7.82,0.403,11.707,0.834c1.953,0.217,3.121,1.471,4.239,3.34c3.03,5.071,2.179,10.572,2.355,15.912
	c0.168,5.072-0.38,10.167-0.619,15.252c-0.088,1.846-0.157,3.694-0.296,5.536c-0.192,2.588-0.546,2.876-3.22,2.963
	c-3.836,0.124-7.67,0.343-11.506,0.379c-3.337,0.033-6.675-0.201-10.012-0.186c-2.066,0.009-4.134,0.401-6.197,0.376
	c-2.546-0.032-5.1-0.237-7.632-0.514c-3.082-0.335-6.138-0.899-9.229-0.042c-0.521,0.145-1.156,0.004-1.713-0.12
	c-3.623-0.808-7.108,0.65-10.672,0.619c-2.638-0.022-5.274-0.254-7.91-0.393c-0.464-0.025-1.017-0.246-1.374-0.066
	c-2.171,1.091-4.192-0.084-6.285-0.261c-2.067-0.176-4.166,0.024-6.247-0.035c-4.265-0.125-8.527-0.407-12.792-0.445
	c-2.879-0.025-5.759,0.375-8.639,0.367c-3.733-0.008-7.468-0.229-11.2-0.364c-3.77-0.14-7.538-0.347-11.31-0.409
	c-3.324-0.054-6.651,0.112-9.975,0.057c-1.315-0.021-2.65-0.278-3.922-0.625c-0.476-0.13-1.076-0.775-1.152-1.258
	c-0.643-4.108-1.42-8.221-1.683-12.36c-0.357-5.602-0.317-11.229-0.398-16.846c-0.03-2.134-0.104-4.29,0.165-6.395
	c0.348-2.729,1.849-4.808,4.59-5.604C339.844,117.755,345.532,117.061,351.343,117.388z"/>
<path fill-rule="evenodd" clip-rule="evenodd" fill="#444444" d="M341.543,360.508c0.821-2.676,1.427-5.139,2.344-7.478
	c0.619-1.583,4.346-2.779,6.047-2.106c2.691,1.065,5.586,1.866,7.95,3.443c2.497,1.666,4.668,3.947,6.623,6.262
	c2.004,2.372,4.475,3.92,7.231,4.98c5.155,1.979,10.574,3.059,15.917,4.415c4.312,1.096,8.529-0.293,12.599,0.629
	c4.585,1.036,8.699-1.045,13.086-1.138c1.982-0.043,3.924-1.374,5.908-2.047c1.153-0.39,2.339-0.813,3.534-0.906
	c2.529-0.197,4.396-1.644,6.368-2.968c5.008-3.36,9.855-7.021,15.123-9.913c3.584-1.968,9.082-1.004,11.195,4.408
	c1.892,4.846-0.171,8.206-2.976,11.831c-2.78,3.595-6.51,5.918-10.018,8.529c-2.116,1.576-4.699,2.514-7.035,3.805
	c-5.144,2.842-10.73,4.397-16.438,5.469c-4.097,0.77-8.268,1.14-12.409,1.676c-1.492,0.193-2.987,0.459-4.487,0.505
	c-1.719,0.053-3.447-0.054-5.165-0.174c-3.352-0.235-6.742-0.273-10.035-0.854c-5.38-0.946-10.736-1.914-15.981-3.692
	c-5.367-1.817-10.303-4.215-14.933-7.385c-2.795-1.911-5.803-3.569-8.356-5.759c-1.718-1.472-3.045-3.553-4.115-5.587
	C342.553,364.618,342.17,362.473,341.543,360.508z"/>
<path fill-rule="evenodd" clip-rule="evenodd" fill="#444444" d="M346.714,309.598c-6.115-0.7-11.833-3.824-14.189-9.839
	c-1.472-3.752-2.684-7.753-1.807-11.967c1.26-6.052,3.9-11.139,9.751-13.964c0.715-0.345,1.557-0.43,2.342-0.628
	c1.106-0.279,2.215-0.775,3.324-0.78c1.987-0.009,3.981,0.245,5.966,0.46c1.07,0.115,2.212,0.185,3.172,0.611
	c2.03,0.899,4.317,1.65,5.858,3.129c2.811,2.699,4.552,6.084,4.325,10.252c-0.14,2.544,0.226,5.114,0.088,7.655
	c-0.295,5.533-3.573,9.181-7.865,12.266C354.277,309.236,350.433,309.371,346.714,309.598z"/>
<path fill-rule="evenodd" clip-rule="evenodd" fill="#444444" d="M469.944,293.013c-0.413,7.161-3.956,11.604-9.566,14.358
	c-2.581,1.265-5.58,2.421-8.367,2.369c-5.169-0.097-9.963-1.432-13.412-6.188c-2.381-3.283-2.366-6.924-3.245-10.464
	c-0.166-0.667-0.287-1.348-0.431-2.021c-0.068-0.331-0.27-0.698-0.192-0.987c0.533-1.952,1.067-3.907,1.705-5.827
	c0.84-2.522,2.529-4.46,4.685-5.913c1.812-1.223,3.669-2.607,5.716-3.188c2.317-0.659,4.909-0.881,7.307-0.616
	c3.709,0.412,7.293,1.673,10.109,4.252c1.281,1.176,2.304,2.775,3.038,4.37c0.875,1.898,1.377,3.982,1.919,6.018
	C469.594,290.617,469.778,292.113,469.944,293.013z"/>
<path fill-rule="evenodd" clip-rule="evenodd" fill="#FDD700" d="M491.597,468.133c-0.046-1.451-0.194-2.91-0.101-4.354
	c0.12-1.846-0.57-2.867-2.449-2.91c-4.532-0.103-9.066-0.183-13.6-0.151c-7.854,0.053-15.708,0.269-23.562,0.277
	c-6.336,0.007-12.673-0.188-19.008-0.304c-1.74-0.032-3.481-0.198-5.217-0.149c-3.768,0.105-7.533,0.467-11.299,0.444
	c-9.121-0.054-18.241-0.323-27.362-0.395c-5.181-0.041-10.362,0.127-15.543,0.223c-2.795,0.053-5.592,0.302-8.379,0.201
	c-5.446-0.195-10.882-0.687-16.327-0.833c-2.957-0.078-5.923,0.354-8.889,0.459c-5.35,0.191-10.702,0.31-16.053,0.465
	c-3.191,0.092-6.383,0.256-9.575,0.276c-3.246,0.021-6.492-0.099-9.703-0.155c-0.174,0.792-0.371,1.586-0.521,2.391
	c-0.117,0.621-0.228,1.251-0.247,1.881c-0.036,1.074,0.004,2.15,0.01,3.225c0.013,1.931,0.072,3.861,0.021,5.791
	c-0.035,1.343-0.141,2.696-0.367,4.02c-0.177,1.037-0.068,1.822,1.112,1.887c3.878,0.213,7.756,0.405,11.638,0.517
	c4.453,0.128,8.909,0.114,13.363,0.251c2.902,0.088,5.802,0.434,8.703,0.47c2.037,0.026,4.077-0.284,6.117-0.421
	c0.396-0.025,1.036-0.092,1.161,0.109c1.353,2.171,3.516,0.886,5.146,0.969c2.909,0.149,5.861-0.594,8.802-0.915
	c1.154-0.124,2.327-0.201,3.484-0.151c4.008,0.169,8.014,0.407,12.022,0.602c0.339,0.015,0.684-0.133,1.029-0.167
	c2.535-0.267,5.067-0.684,7.609-0.747c4.378-0.11,8.764-0.019,13.144,0.023c3.252,0.032,6.503,0.115,9.755,0.185
	c2.612,0.054,5.23,0.245,7.838,0.151c3.184-0.114,6.354-0.506,9.535-0.702c4.621-0.287,9.245-0.582,13.873-0.729
	c3.483-0.111,6.973,0.054,10.456,0.004c3.016-0.043,6.025-0.229,9.037-0.331c3.938-0.135,7.906-0.604,11.812-0.292
	c6.17,0.495,12.289,0.009,18.425-0.222c3-0.114,4.314-0.914,4.347-2.648C491.884,473.631,491.687,470.881,491.597,468.133z
	 M317.794,466.968c0.498,0,0.994,0,1.489,0c0,0.992,0,1.983,0,2.969C317.839,469.313,317.856,468.944,317.794,466.968z
	 M320.268,474.396c-0.655,0-1.313,0-1.976,0c0.079-2.009,0.243-1.923,0.991-2.97c0.329,0,0.656,0,0.984,0
	C320.268,472.418,320.268,473.406,320.268,474.396z M357.919,473.406c-1.255-0.03-1.845-0.01-2.475-0.491c-0.167,0-0.334,0-0.495,0
	c0-0.167,0-0.333,0-0.497c0.161,0,0.328,0,0.495,0c0-0.167,0-0.33,0-0.496c0.819,0.166,1.649,0.329,2.475,0.496
	C357.919,472.748,357.919,473.08,357.919,473.406z"/>
<path fill-rule="evenodd" clip-rule="evenodd" fill="#FDD700" d="M551.505,406.145c-0.136-0.274-0.051-0.703,0.034-1.035
	c0.945-3.663-0.106-7.378,0.345-11.093c0.341-2.824-0.363-5.761-0.441-8.652c-0.063-2.333,0.208-4.675,0.161-7.008
	c-0.076-3.977-0.34-7.948-0.426-11.926c-0.07-3.295,0.066-6.595-0.007-9.89c-0.143-6.492-0.507-12.982-0.515-19.472
	c-0.008-5.265,0.363-10.53,0.585-15.794c0.188-4.443,0.515-8.884,0.574-13.326c0.074-5.395-0.062-10.79-0.115-16.185
	c-0.035-3.577-0.153-7.155-0.1-10.73c0.057-3.888,0.395-7.775,0.377-11.661c-0.018-4.034-0.319-8.065-0.484-12.1
	c-0.025-0.639,0.015-1.281,0.021-1.92c0.029-3.773,0.06-7.547,0.086-11.319c0.012-1.698,0.138-3.406,0-5.094
	c-0.325-3.997-1.079-7.941-1.245-11.974c-0.132-3.225-0.851-6.432-1.411-9.63c-0.259-1.47-0.616-2.961-1.188-4.333
	c-1.51-3.634-3.139-7.222-4.765-10.808c-1.783-3.934-3.503-7.921-7.389-10.367c-0.332-0.209-0.569-0.574-0.842-0.874
	c-2.358-2.594-5.462-4.058-8.738-4.675c-1.977-0.372-3.876-0.609-5.778-1.431c-4.196-1.808-8.662-2.611-13.235-2.855
	c-2.839-0.151-5.669-0.552-8.509-0.637c-2.833-0.084-5.675,0.073-8.511,0.148c-0.755,0.02-1.506,0.154-2.259,0.19
	c-2.258,0.106-4.521,0.33-6.772,0.251c-3.055-0.107-6.1-0.576-9.154-0.666c-4.534-0.135-9.073-0.068-13.608-0.095
	c-1.807-0.011-3.612-0.048-5.42-0.063c-4.984-0.044-9.968-0.135-14.951-0.112c-5.388,0.021-10.772,0.21-16.158,0.217
	c-4.721,0.006-9.44-0.146-14.161-0.216c-5.931-0.088-11.862-0.143-17.791-0.253c-3.193-0.06-6.387-0.333-9.576-0.291
	c-9.301,0.128-18.6,0.473-27.898,0.52c-5.756,0.029-11.512-0.342-17.268-0.508c-4.58-0.133-9.162-0.295-13.744-0.323
	c-7.443-0.045-14.895-0.16-22.329,0.084c-4.604,0.152-9.189,0.899-13.779,1.412c-1.209,0.135-2.424,0.319-3.601,0.622
	c-1.194,0.307-2.386,0.695-3.499,1.215c-1.562,0.729-3.07,1.582-4.569,2.437c-2.814,1.603-5.704,3.1-8.372,4.918
	c-2.006,1.365-3.876,3.018-5.517,4.808c-2.138,2.336-4.235,4.785-5.886,7.472c-1.281,2.079-1.817,4.61-2.739,6.92
	c-1.679,4.2-3.115,8.47-3.793,12.961c-0.128,0.855-0.546,1.917-0.207,2.549c1.012,1.901,0.377,3.73,0.227,5.607
	c-0.21,2.635-1.519,5.359,0.566,7.842c0.119,0.144,0.066,0.451,0.057,0.682c-0.11,2.702-0.314,5.404-0.327,8.107
	c-0.031,6.101,0.012,12.201,0.06,18.299c0.027,3.565,0.187,7.13,0.164,10.692c-0.009,1.844-0.344,3.683-0.425,5.528
	c-0.113,2.519-0.066,5.045-0.199,7.562c-0.116,2.195-0.619,4.391-0.535,6.57c0.146,3.781,0.693,7.546,0.914,11.328
	c0.164,2.82,0.04,5.656,0.11,8.484c0.113,4.536,0.372,9.069,0.401,13.604c0.035,5.1-0.091,10.201-0.198,15.3
	c-0.049,2.315-0.287,4.628-0.329,6.943c-0.112,6.182-0.167,12.364-0.244,18.546c-0.028,2.268,0.058,4.544-0.105,6.8
	c-0.252,3.477-0.836,6.933-0.987,10.41c-0.262,6.011,0.367,11.967,1.785,17.823c0.395,1.628,0.719,3.323,1.435,4.815
	c2.005,4.177,4.08,8.33,6.354,12.364c1.826,3.237,4.131,6.138,7.432,8.098c2.35,1.396,4.594,2.972,6.956,4.346
	c2.224,1.292,4.431,2.743,6.838,3.554c3.917,1.319,7.961,2.321,12.178,2.245c0.604-0.013,1.215,0.352,1.825,0.538
	c1.793,0.549,3.564,1.459,5.384,1.569c3.771,0.228,7.567,0.068,11.351-0.007c3.723-0.073,7.443-0.369,11.162-0.326
	c4.267,0.049,8.53,0.4,12.797,0.547c1.964,0.066,3.933-0.045,5.898-0.066c3.29-0.037,6.578-0.055,9.868-0.104
	c1.62-0.024,3.355-0.501,4.839-0.076c3.857,1.106,7.803,0.81,11.69,1.043c7.068,0.424,14.162,0.416,21.247,0.562
	c1.074,0.021,2.151-0.175,3.227-0.151c2.029,0.047,4.082,0.427,6.08,0.228c4.135-0.41,8.211-1.063,12.419-0.64
	c3.552,0.358,7.157,0.141,10.736,0.249c3.842,0.116,7.658-0.047,11.487-0.41c3.517-0.337,7.071-0.523,10.597-0.412
	c4.115,0.132,8.214,0.697,12.324,0.996c1.491,0.109,3.002-0.031,4.502-0.027c3.934,0.013,7.911,0.429,11.789-0.024
	c6.5-0.76,12.985-0.316,19.476-0.479c3.6-0.09,7.129,0.76,10.83-0.228c3.771-1.004,7.814-0.987,11.739-1.418
	c0.002,0.034,0.004,0.067,0.005,0.102c0.792-0.066,1.609-0.027,2.371-0.214c1.797-0.441,3.579-0.952,5.346-1.504
	c2.896-0.902,5.837-1.705,8.64-2.845c2.133-0.865,4.164-2.062,6.092-3.335c2.79-1.841,5.822-3.53,8.076-5.92
	c3.888-4.123,8.023-8.232,9.319-14.133C550.792,411.824,553.071,409.298,551.505,406.145z M258.846,307.963c-0.329,0-0.653,0-0.99,0
	c0-0.329,0-0.662,0-0.992c0.337,0,0.661,0,0.99,0C258.846,307.301,258.846,307.634,258.846,307.963z M271.232,378.303
	c-0.329,0-0.657,0-0.993,0c0-0.33,0-0.66,0-0.992c0.336,0,0.664,0,0.993,0C271.232,377.643,271.232,377.973,271.232,378.303z
	 M295.504,196.512c-0.917-0.323-0.451-0.039-0.99-0.499c-0.167,0-0.329,0-0.494,0c0.19-0.249,0.652-0.365,1.484-0.989
	C295.504,195.52,295.504,196.013,295.504,196.512z M300.951,349.078c-0.164,0-0.329,0-0.493,0c0-0.166,0-0.332,0-0.498
	c-0.165,0-0.332,0-0.496,0c0-0.328,0-0.66,0-0.99c0.331,0,0.66,0,0.989,0C300.951,348.086,300.951,348.58,300.951,349.078z
	 M453.522,241.091c1.15,0.144,1.227,0.222,1.985,0.495c-0.17,0.33-0.331,0.656-0.501,0.986c-0.911-0.317-0.452-0.032-0.991-0.489
	c-0.162,0-0.332,0-0.493,0C453.522,241.754,453.522,241.42,453.522,241.091z M434.698,331.738c0.17,0,0.329,0,0.499,0
	c0,0,0.065-1.926,0.491-0.991c0.692,0.122-0.2,0.56,0.492,0.497c0,0.328,0,0.658,0,0.992c-0.492,0-0.983,0-1.482,0
	C434.698,332.068,434.698,331.902,434.698,331.738z M432.713,260.904c-0.159,0.495-0.329,0.988-0.49,1.488c-0.17,0-0.33,0-0.499,0
	C432.118,261.208,431.886,261.534,432.713,260.904z M425.779,278.242c0,0.33,0,0.66,0,0.993c-0.91-0.326-0.45-0.038-0.991-0.499
	c-0.159,0-0.329,0-0.489,0C424.846,278.307,424.723,278.406,425.779,278.242z M401.015,259.912c0,0.166,0,0.328,0,0.496
	c-0.493,0-0.99,0-1.485,0C400.076,259.979,399.959,260.078,401.015,259.912z M393.589,223.258c0.329,0,0.651,0,0.982,0
	c0,0.164,0,0.33,0,0.494c-0.331,0-0.653,0-0.982,0C393.589,223.588,393.589,223.422,393.589,223.258z M394.571,278.242
	c0,0.33,0,0.66,0,0.993C393.652,278.867,393.961,279.018,394.571,278.242z M334.639,242.083c0,0.326,0,0.656,0,0.989
	c-0.496,0-0.994,0-1.488,0C333.796,241.816,333.053,242.419,334.639,242.083z M325.226,238.116c0.329,0.164,0.661,0.33,0.991,0.494
	C326.175,238.636,324.661,239.059,325.226,238.116z M332.524,299.759c-1.472-3.752-2.684-7.753-1.807-11.967
	c1.26-6.052,3.9-11.139,9.751-13.964c0.715-0.345,1.557-0.43,2.342-0.628c1.106-0.279,2.215-0.775,3.324-0.78
	c1.987-0.009,3.981,0.245,5.966,0.46c1.07,0.115,2.212,0.185,3.172,0.611c2.03,0.899,4.317,1.65,5.858,3.129
	c2.811,2.699,4.552,6.084,4.325,10.252c-0.14,2.544,0.226,5.114,0.088,7.655c-0.295,5.533-3.573,9.181-7.865,12.266
	c-3.401,2.443-7.246,2.578-10.965,2.805C340.599,308.897,334.881,305.773,332.524,299.759z M393.091,393.161
	c-0.334,0-0.663,0-0.994,0c0-0.329,0-0.66,0-0.992c0.331,0,0.66,0,0.994,0C393.091,392.501,393.091,392.832,393.091,393.161z
	 M452.493,369.921c-2.78,3.595-6.51,5.918-10.018,8.529c-2.116,1.576-4.699,2.514-7.035,3.805
	c-5.144,2.842-10.73,4.397-16.438,5.469c-4.097,0.77-8.268,1.14-12.409,1.676c-1.492,0.193-2.987,0.459-4.487,0.505
	c-1.719,0.053-3.447-0.054-5.165-0.174c-3.352-0.235-6.742-0.273-10.035-0.854c-5.38-0.946-10.736-1.914-15.981-3.692
	c-5.367-1.817-10.303-4.215-14.933-7.385c-2.795-1.911-5.803-3.569-8.356-5.759c-1.718-1.472-3.045-3.553-4.115-5.587
	c-0.967-1.836-1.35-3.981-1.977-5.946c0.821-2.676,1.427-5.139,2.344-7.478c0.619-1.583,4.346-2.779,6.047-2.106
	c2.691,1.065,5.586,1.866,7.95,3.443c2.497,1.666,4.668,3.947,6.623,6.262c2.004,2.372,4.475,3.92,7.231,4.98
	c5.155,1.979,10.574,3.059,15.917,4.415c4.312,1.096,8.529-0.293,12.599,0.629c4.585,1.036,8.699-1.045,13.086-1.138
	c1.982-0.043,3.924-1.374,5.908-2.047c1.153-0.39,2.339-0.813,3.534-0.906c2.529-0.197,4.396-1.644,6.368-2.968
	c5.008-3.36,9.855-7.021,15.123-9.913c3.584-1.968,9.082-1.004,11.195,4.408C457.36,362.936,455.298,366.296,452.493,369.921z
	 M438.165,310.438c1.209-0.326,0.773-0.313,1.982,0c0,0.333,0,0.662,0,0.992c-1.057-0.179-0.937-0.07-1.484-0.496
	C438.116,310.489,438.609,310.981,438.165,310.438z M468.874,312.915c-0.329,0-0.654,0-0.983,0c0-0.499,0-0.989,0-1.485
	c0.329,0,0.654,0,0.983,0C468.874,311.926,468.874,312.416,468.874,312.915z M460.378,307.371c-2.581,1.265-5.58,2.421-8.367,2.369
	c-5.169-0.097-9.963-1.432-13.412-6.188c-2.381-3.283-2.366-6.924-3.245-10.464c-0.166-0.667-0.287-1.348-0.431-2.021
	c-0.068-0.331-0.27-0.698-0.192-0.987c0.533-1.952,1.067-3.907,1.705-5.827c0.84-2.522,2.529-4.46,4.685-5.913
	c1.812-1.223,3.669-2.607,5.716-3.188c2.317-0.659,4.909-0.881,7.307-0.616c3.709,0.412,7.293,1.673,10.109,4.252
	c1.281,1.176,2.304,2.775,3.038,4.37c0.875,1.898,1.377,3.982,1.919,6.018c0.385,1.443,0.569,2.939,0.735,3.839
	C469.531,300.174,465.988,304.616,460.378,307.371z M484.73,261.399c0,0.329,0,0.659,0,0.993c-2.103-0.391-1.667-1.021-2.975-1.984
	c0-0.33,0-0.66,0-0.992c0.543-0.441,0.06,0.051,0.495-0.494C483.731,259.697,483.078,260.423,484.73,261.399z M479.283,255.949
	c0.031-1.252,0.006-1.841,0.489-2.475c0-0.332,0-0.658,0-0.992c0.832,0,1.654,0,2.479,0c0.207,1.555,0.797,2.35,0,3.467
	c0,0.33,0,0.662,0,0.992c-1.153,0.144-1.227,0.221-1.978,0.496C479.943,256.811,479.757,256.408,479.283,255.949z M483.242,327.775
	c-0.462-0.543-0.185-0.066-0.493-0.99c-0.46,0.541-0.187,0.063-0.498,0.99c-0.43-0.553-0.323-0.424-0.495-1.486
	c0.495,0,0.993,0,1.486,0C483.242,326.785,483.242,327.281,483.242,327.775z M486.216,270.812c-0.917-0.321-0.45-0.036-0.993-0.494
	c-0.457-0.544-0.186-0.069-0.492-0.993c0.492-0.164,0.986-0.332,1.485-0.494C486.216,269.492,486.216,270.151,486.216,270.812z
	 M510.985,318.859c0,0.329,0,0.662,0,0.992c-0.504,0-0.994,0-1.487,0C510.113,318.174,509.693,318.785,510.985,318.859z
	 M510.985,421.893c-0.945-0.339-1.826-0.853-2.484-1.488c-0.164,0-0.325,0-0.495,0c0-0.163,0-0.33,0-0.497
	c1.419,0.077,0.718,0.411,1.492,0c1.566,0.313,1.04,0.326,1.976,0.993C511.314,421.229,511.145,421.561,510.985,421.893z
	 M511.474,337.185c-0.488-0.81-0.524-0.667,0-1.482C511.474,336.198,511.474,336.691,511.474,337.185z M512.466,258.43
	c-0.54,0.441-0.057-0.051-0.491,0.492c-1.26-0.646-0.653,0.097-0.989-1.484c0.488,0,0.989,0,1.48,0
	C512.466,257.767,512.466,258.097,512.466,258.43z M519.899,316.385c0.33-0.166,0.663-0.333,0.985-0.496
	c0.28,0.752,0.371,0.816,0.498,1.98c-1.056-0.186-0.932-0.066-1.483-0.498C519.359,316.543,519.852,317.371,519.899,316.385z
	 M522.865,418.424c-0.488-0.164-0.992-0.328-1.482-0.495c0-0.661,0-1.325,0-1.983c1.17,0.346,1.096,0.519,1.983,0.99
	C523.198,417.434,523.036,417.929,522.865,418.424z M526.831,289.631c-0.329,0-0.658,0-0.988,0c0.394-1.176,0.159-0.848,0.988-1.484
	C526.831,288.643,526.831,289.139,526.831,289.631z M541.693,294.094c-0.911,0.317-0.45,0.033-0.99,0.492c-0.331,0-0.665,0-0.994,0
	c0.377-1.312,0.638-1.154,0.994-2.477c0.329,0,0.656,0,0.99,0C541.693,292.77,541.693,293.432,541.693,294.094z M549.616,275.762
	c-1.169-0.349-1.104-0.511-1.981-0.988c0-0.33,0-0.66,0-0.992c1.177,0.486,1.056,0.857,1.981,1.485
	C549.616,275.433,549.616,275.6,549.616,275.762z"/>
<path fill-rule="evenodd" clip-rule="evenodd" fill="#444444" d="M571.478,381.101c-0.086-5.226-0.301-10.45-0.458-15.674
	c-0.15-4.987-0.429-9.976-0.411-14.961c0.021-6.792,0.28-13.583,0.415-20.375c0.04-2.094,0.117-4.194-0.012-6.279
	c-0.272-4.474-0.712-8.937-0.999-13.407c-0.267-4.178-0.479-8.36-0.616-12.545c-0.166-5-0.287-10.004-0.319-15.008
	c-0.031-4.999,0.159-10,0.083-14.999c-0.056-3.765-0.431-7.525-0.565-11.291c-0.098-2.688,0.113-5.394-0.073-8.072
	c-0.287-4.139-0.829-8.261-1.205-12.395c-0.271-3.003-0.47-6.014-0.655-9.022c-0.07-1.154,0.092-2.327-0.037-3.472
	c-0.48-4.303-0.909-8.585-2.148-12.801c-1.366-4.64-1.124-9.678-3.575-14.108c-1.588-2.871-2.559-6.09-4.218-8.911
	c-2.191-3.731-4.122-7.721-7.904-10.283c-2.92-1.979-5.718-4.139-8.65-6.102c-1.433-0.958-3.002-1.754-4.591-2.434
	c-2.424-1.041-4.864-2.11-7.396-2.813c-2.509-0.696-5.13-1.005-7.716-1.396c-3.952-0.596-7.904-1.234-11.88-1.627
	c-2.596-0.256-5.243,0.014-7.851-0.176c-4.254-0.308-8.495-0.798-12.954-1.232c-0.016-0.123-0.07-0.349-0.075-0.575
	c-0.173-6.795-0.336-13.59-0.509-20.384c-0.177-6.927-0.899-13.778-2.742-20.486c-0.799-2.903-2.118-5.466-4.188-7.672
	c-1.032-1.098-1.842-2.402-2.861-3.512c-1.103-1.197-2.218-2.434-3.527-3.377c-2.848-2.051-6.386-2.207-9.648-3.001
	c-2.324-0.565-4.848-0.324-7.283-0.413c-4.396-0.159-8.797-0.229-13.188-0.475c-1.851-0.103-3.679-0.771-5.524-0.812
	c-3.689-0.083-7.385,0.138-11.077,0.136c-2.892,0-5.784-0.112-8.673-0.237c-4.465-0.192-8.924-0.604-13.386-0.619
	c-5.903-0.022-11.807,0.262-17.711,0.38c-2.058,0.044-4.121-0.067-6.179-0.015c-3.48,0.09-6.935,0.81-10.443,0.368
	c-0.957-0.121-1.954,0.049-2.931,0.117c-3.811,0.269-7.62,0.771-11.43,0.771c-4.514-0.002-9.035-1.051-13.5,0.566
	c-1.294,0.468-2.717,0.655-4.099,0.792c-4.104,0.407-8.11,0.889-12.013,2.577c-3.25,1.408-6.054,3.343-8.876,5.344
	c-0.84,0.595-1.616,1.275-2.413,1.93c-2.919,2.398-3.162,5.983-3.798,9.259c-0.705,3.63-0.893,7.367-1.179,11.067
	c-0.157,2.066-0.063,4.152-0.073,6.229c-0.012,2.712-0.065,5.427-0.001,8.139c0.032,1.349,0.392,2.688,0.424,4.036
	c0.073,3.099,0.103,6.201-0.016,9.298c-0.022,0.621-0.655,1.395-1.223,1.771c-0.53,0.351-1.351,0.359-2.039,0.35
	c-2.201-0.026-4.403-0.238-6.6-0.177c-2.092,0.059-4.181,0.332-6.262,0.586c-2.13,0.26-4.384,0.257-6.33,1.018
	c-1.959,0.764-3.902,0.201-5.879,0.776c-4.241,1.234-8.7,1.685-12.833,3.438c-3.849,1.633-7.868,2.908-11.093,5.744
	c-0.432,0.379-0.93,0.719-1.451,0.952c-4.228,1.881-7.824,4.767-10.463,8.394c-2.404,3.305-5.784,6.123-6.582,10.475
	c-1.99,1.275-2.314,3.535-3.168,5.462c-0.768,1.739-1.518,3.517-1.973,5.353c-0.754,3.036-1.043,6.13-2.211,9.141
	c-1.133,2.918-1.457,6.223-1.704,9.393c-0.519,6.657-0.717,13.34-1.121,20.007c-0.147,2.426-0.688,4.835-0.727,7.256
	c-0.049,3.061,0.229,6.129,0.37,9.191c0.053,1.142,0.226,2.29,0.152,3.424c-0.291,4.565-0.78,9.124-0.965,13.695
	c-0.201,4.973-0.242,9.958-0.178,14.937c0.087,6.685,0.363,13.369,0.518,20.054c0.09,3.888,0.098,7.776,0.155,11.665
	c0.088,5.753,0.221,11.506,0.269,17.26c0.026,2.991-0.084,5.983-0.144,8.976c-0.105,5.266-0.229,10.532-0.332,15.799
	c-0.035,1.848-0.019,3.693-0.048,5.539c-0.074,4.646-0.359,9.299-0.185,13.935c0.146,3.878,0.669,7.763,1.301,11.599
	c1.036,6.293,2.218,12.565,3.489,18.814c0.896,4.408,3.372,8.114,5.738,11.847c1.202,1.899,2.229,3.928,3.585,5.71
	c2.462,3.235,4.986,6.443,7.73,9.438c1.41,1.536,3.519,2.419,5.007,3.901c2.474,2.465,5.479,3.991,8.521,5.509
	c3.369,1.683,6.741,3.36,10.111,5.037c0.759,0.377,1.484,0.863,2.284,1.09c0.984,0.279,2.028,0.345,3.048,0.493
	c1.254,0.186,2.505,0.484,3.765,0.516c2.823,0.071,3.595,0.727,3.725,3.568c0.148,3.309,0.199,6.62,0.392,9.925
	c0.429,7.312,0.883,14.621,1.405,21.929c0.144,2.004,1.28,2.654,3.303,2.211c0.504-0.11,1.034-0.157,1.553-0.155
	c3.911,0.017,7.829-0.06,11.735,0.115c3.886,0.174,7.755,0.66,11.64,0.909c3.88,0.25,7.767,0.383,11.65,0.551
	c4.05,0.176,8.103,0.332,12.153,0.501c1.917,0.079,3.833,0.223,5.75,0.244c3.748,0.043,7.363-1.028,11.203-0.854
	c6.008,0.271,12.048-0.135,18.035,0.814c0.329,0.053,0.687-0.083,1.031-0.115c2.136-0.196,4.274-0.58,6.405-0.538
	c3.364,0.064,6.721,0.479,10.086,0.622c2.5,0.104,5.088-0.38,7.493,0.102c3.889,0.777,7.612,0.164,11.412-0.299
	c3.34-0.409,6.701-0.641,10.058-0.875c3.008-0.21,6.021-0.326,9.033-0.469c0.683-0.032,1.372-0.05,2.052-0.001
	c2.03,0.147,4.065,0.535,6.086,0.459c4.879-0.181,9.745-0.614,14.622-0.852c1.559-0.075,3.131,0.199,4.697,0.215
	c4.165,0.049,8.332,0.059,12.499,0.051c0.746-0.002,1.49-0.204,2.238-0.242c2.478-0.129,4.956-0.323,7.434-0.308
	c2.614,0.018,5.228,0.272,7.844,0.367c0.745,0.026,1.504-0.234,2.252-0.21c3.533,0.118,7.075,0.535,10.495-0.868
	c0.561-0.23,1.27-0.074,1.899-0.154c2.051-0.261,4.13-0.417,6.125-0.906c0.613-0.149,1.371-1.212,1.42-1.902
	c0.257-3.658,0.458-7.331,0.4-10.994c-0.104-6.576-0.419-13.146-0.616-19.72c-0.057-1.87,0.587-2.436,2.37-2.703
	c3.955-0.589,7.92-1.148,11.832-1.967c5.311-1.109,9.916-3.942,14.65-6.429c2.4-1.262,4.758-2.601,7.14-3.898
	c2.315-1.261,4.841-2.248,6.9-3.839c2.182-1.688,4.144-3.781,5.806-5.994c2.524-3.358,5.008-6.818,6.932-10.533
	c1.307-2.525,1.8-5.53,2.338-8.378c0.186-0.979,0.356-1.961,0.517-2.945c-0.139,0-0.278,0-0.418,0c0-0.493,0-0.986,0-1.486
	c0.229-0.074,0.454-0.15,0.68-0.226c0.372-2.467,0.693-4.942,1.004-7.415c0.31-2.473,0.51-4.969,0.575-7.458
	c0.096-3.647-0.007-7.299,0.04-10.948C571.266,385.975,571.518,383.537,571.478,381.101z M466.398,112.3
	c0.501,0.163,0.993,0.33,1.492,0.497c0,0.329,0,0.658,0,0.99c-0.17,0-0.332,0-0.499,0c0-0.332,0-0.661,0-0.99
	c-0.333,0-0.662,0-0.993,0C466.398,112.63,466.398,112.463,466.398,112.3z M428.759,111.307c0,0.498,0,0.993,0,1.49
	c-0.544-0.442-0.06,0.047-0.505-0.497c-0.33,0-0.66,0-0.989,0C427.917,111.049,427.176,111.646,428.759,111.307z M408.938,110.318
	c0.493-0.166,0.991-0.326,1.491-0.493c-0.645,0.813-0.298,0.61-1.491,0.986C408.938,110.645,408.938,110.481,408.938,110.318z
	 M329.686,124.98c0.348-2.729,1.849-4.808,4.59-5.604c5.568-1.622,11.257-2.316,17.067-1.989c3.134,0.055,6.268,0.108,9.402,0.166
	c1.336,0.024,2.673,0.084,4.01,0.082c3.838-0.008,7.677-0.083,11.513-0.046c3.474,0.034,6.945,0.245,10.42,0.269
	c8.718,0.058,17.439-0.096,26.152,0.115c8.905,0.217,17.801,0.79,26.705,1.16c5.217,0.219,10.439,0.291,15.656,0.53
	c3.907,0.18,7.82,0.403,11.707,0.834c1.953,0.217,3.121,1.471,4.239,3.34c3.03,5.071,2.179,10.572,2.355,15.912
	c0.168,5.072-0.38,10.167-0.619,15.252c-0.088,1.846-0.157,3.694-0.296,5.536c-0.192,2.588-0.546,2.876-3.22,2.963
	c-3.836,0.124-7.67,0.343-11.506,0.379c-3.337,0.033-6.675-0.201-10.012-0.186c-2.066,0.009-4.134,0.401-6.197,0.376
	c-2.546-0.032-5.1-0.237-7.632-0.514c-3.082-0.335-6.138-0.899-9.229-0.042c-0.521,0.145-1.156,0.004-1.713-0.12
	c-3.623-0.808-7.108,0.65-10.672,0.619c-2.638-0.022-5.274-0.254-7.91-0.393c-0.464-0.025-1.017-0.246-1.374-0.066
	c-2.171,1.091-4.192-0.084-6.285-0.261c-2.067-0.176-4.166,0.024-6.247-0.035c-4.265-0.125-8.527-0.407-12.792-0.445
	c-2.879-0.025-5.759,0.375-8.639,0.367c-3.733-0.008-7.468-0.229-11.2-0.364c-3.77-0.14-7.538-0.347-11.31-0.409
	c-3.324-0.054-6.651,0.112-9.975,0.057c-1.315-0.021-2.65-0.278-3.922-0.625c-0.476-0.13-1.076-0.775-1.152-1.258
	c-0.643-4.108-1.42-8.221-1.683-12.36c-0.357-5.602-0.317-11.229-0.398-16.846C329.49,129.241,329.417,127.085,329.686,124.98z
	 M292.037,489.258c0.318-0.914,0.035-0.448,0.496-0.989C292.213,489.182,292.502,488.714,292.037,489.258z M311.854,484.803
	c0-0.496,0-0.992,0-1.488c0.488,0.162,0.985,0.329,1.482,0.496C312.688,485.065,313.436,484.463,311.854,484.803z M337.608,485.296
	c-0.329,0-0.66,0-0.984,0c0-0.326,0-0.66,0-0.989c0.324,0,0.655,0,0.984,0C337.608,484.636,337.608,484.97,337.608,485.296z
	 M340.082,498.668c-0.908-0.319-0.444-0.031-0.988-0.496c-0.163,0-0.326,0-0.494,0c0-0.164,0-0.326,0-0.49
	c0.494-0.165,0.994-0.332,1.482-0.497C340.082,497.682,340.082,498.172,340.082,498.668z M353.955,484.307
	c-0.607,0.426-0.569,0.374-0.991,0.989c-0.497,0-0.987,0-1.488,0c0.092-1.166,0.046-1.394,0.501-1.981c0-0.164,0-0.33,0-0.497
	c1.176,0.401,0.85,0.161,1.482,0.993c0.167,0,0.331,0,0.496,0C353.955,483.978,353.955,484.14,353.955,484.307z M367.327,485.787
	c-0.491,0-0.99,0-1.48,0c0.643-1.253-0.099-0.651,1.48-0.984C367.327,485.132,367.327,485.461,367.327,485.787z M377.729,495.202
	c0.323-0.914,0.041-0.448,0.499-0.992C377.908,495.126,378.196,494.661,377.729,495.202z M481.756,493.72
	c-0.911-0.326-0.45-0.038-0.99-0.498c-0.161,0-0.33,0-0.492,0c0.645-1.253-0.104-0.653,1.482-0.989
	C481.756,492.728,481.756,493.222,481.756,493.72z M487.487,479.023c-6.136,0.23-12.255,0.717-18.425,0.222
	c-3.905-0.312-7.873,0.157-11.812,0.292c-3.012,0.102-6.021,0.288-9.037,0.331c-3.483,0.05-6.973-0.115-10.456-0.004
	c-4.628,0.147-9.252,0.442-13.873,0.729c-3.182,0.196-6.352,0.588-9.535,0.702c-2.607,0.094-5.226-0.098-7.838-0.151
	c-3.252-0.069-6.503-0.152-9.755-0.185c-4.38-0.042-8.766-0.134-13.144-0.023c-2.542,0.063-5.074,0.48-7.609,0.747
	c-0.346,0.034-0.69,0.182-1.029,0.167c-4.009-0.194-8.015-0.433-12.022-0.602c-1.157-0.05-2.33,0.027-3.484,0.151
	c-2.94,0.321-5.893,1.064-8.802,0.915c-1.631-0.083-3.794,1.202-5.146-0.969c-0.125-0.201-0.766-0.135-1.161-0.109
	c-2.04,0.137-4.08,0.447-6.117,0.421c-2.901-0.036-5.801-0.382-8.703-0.47c-4.454-0.137-8.91-0.123-13.363-0.251
	c-3.882-0.111-7.76-0.304-11.638-0.517c-1.181-0.064-1.289-0.85-1.112-1.887c0.227-1.323,0.332-2.677,0.367-4.02
	c0.052-1.93-0.008-3.86-0.021-5.791c-0.006-1.074-0.046-2.15-0.01-3.225c0.02-0.63,0.13-1.26,0.247-1.881
	c0.15-0.805,0.348-1.599,0.521-2.391c3.211,0.057,6.457,0.176,9.703,0.155c3.192-0.021,6.384-0.185,9.575-0.276
	c5.351-0.155,10.703-0.273,16.053-0.465c2.966-0.105,5.932-0.537,8.889-0.459c5.445,0.146,10.881,0.638,16.327,0.833
	c2.787,0.101,5.584-0.148,8.379-0.201c5.181-0.096,10.362-0.264,15.543-0.223c9.121,0.071,18.241,0.341,27.362,0.395
	c3.766,0.022,7.531-0.339,11.299-0.444c1.735-0.049,3.477,0.117,5.217,0.149c6.335,0.116,12.672,0.311,19.008,0.304
	c7.854-0.009,15.708-0.225,23.562-0.277c4.533-0.031,9.067,0.049,13.6,0.151c1.879,0.043,2.569,1.064,2.449,2.91
	c-0.094,1.443,0.055,2.902,0.101,4.354c0.09,2.748,0.287,5.498,0.237,8.242C491.802,478.109,490.487,478.909,487.487,479.023z
	 M505.532,456.568c0-0.33,0-0.664,0-0.993c0.493,0.165,0.993,0.329,1.483,0.497C506.468,456.5,506.589,456.397,505.532,456.568z
	 M550.179,414.618c-1.296,5.9-5.432,10.01-9.319,14.133c-2.254,2.39-5.286,4.079-8.076,5.92c-1.928,1.273-3.959,2.47-6.092,3.335
	c-2.803,1.14-5.744,1.942-8.64,2.845c-1.767,0.552-3.549,1.062-5.346,1.504c-0.762,0.187-1.579,0.147-2.371,0.214
	c-0.001-0.034-0.003-0.067-0.005-0.102c-3.925,0.431-7.968,0.414-11.739,1.418c-3.701,0.987-7.23,0.138-10.83,0.228
	c-6.49,0.163-12.976-0.28-19.476,0.479c-3.878,0.453-7.855,0.037-11.789,0.024c-1.5-0.004-3.011,0.137-4.502,0.027
	c-4.11-0.299-8.209-0.864-12.324-0.996c-3.525-0.111-7.08,0.075-10.597,0.412c-3.829,0.363-7.646,0.526-11.487,0.41
	c-3.579-0.108-7.185,0.109-10.736-0.249c-4.208-0.424-8.284,0.229-12.419,0.64c-1.998,0.199-4.051-0.181-6.08-0.228
	c-1.075-0.023-2.152,0.172-3.227,0.151c-7.085-0.146-14.179-0.138-21.247-0.562c-3.888-0.233-7.833,0.063-11.69-1.043
	c-1.483-0.425-3.219,0.052-4.839,0.076c-3.29,0.049-6.578,0.066-9.868,0.104c-1.966,0.021-3.935,0.133-5.898,0.066
	c-4.267-0.146-8.53-0.498-12.797-0.547c-3.719-0.043-7.439,0.253-11.162,0.326c-3.783,0.075-7.58,0.234-11.351,0.007
	c-1.819-0.11-3.591-1.021-5.384-1.569c-0.61-0.187-1.221-0.551-1.825-0.538c-4.217,0.076-8.261-0.926-12.178-2.245
	c-2.407-0.811-4.614-2.262-6.838-3.554c-2.362-1.374-4.606-2.95-6.956-4.346c-3.301-1.96-5.605-4.86-7.432-8.098
	c-2.274-4.034-4.35-8.188-6.354-12.364c-0.716-1.492-1.04-3.188-1.435-4.815c-1.418-5.856-2.047-11.812-1.785-17.823
	c0.151-3.478,0.735-6.934,0.987-10.41c0.163-2.256,0.077-4.532,0.105-6.8c0.077-6.182,0.132-12.364,0.244-18.546
	c0.042-2.315,0.28-4.628,0.329-6.943c0.107-5.099,0.233-10.2,0.198-15.3c-0.029-4.535-0.288-9.068-0.401-13.604
	c-0.07-2.828,0.054-5.664-0.11-8.484c-0.221-3.782-0.769-7.547-0.914-11.328c-0.084-2.18,0.419-4.375,0.535-6.57
	c0.133-2.518,0.086-5.044,0.199-7.562c0.081-1.846,0.416-3.685,0.425-5.528c0.022-3.562-0.137-7.127-0.164-10.692
	c-0.048-6.098-0.091-12.198-0.06-18.299c0.013-2.703,0.217-5.405,0.327-8.107c0.01-0.23,0.062-0.538-0.057-0.682
	c-2.085-2.482-0.776-5.207-0.566-7.842c0.15-1.877,0.785-3.706-0.227-5.607c-0.339-0.632,0.079-1.693,0.207-2.549
	c0.678-4.491,2.114-8.761,3.793-12.961c0.922-2.31,1.458-4.841,2.739-6.92c1.65-2.687,3.748-5.136,5.886-7.472
	c1.641-1.79,3.511-3.442,5.517-4.808c2.668-1.818,5.558-3.315,8.372-4.918c1.499-0.854,3.007-1.707,4.569-2.437
	c1.113-0.52,2.305-0.908,3.499-1.215c1.177-0.303,2.392-0.487,3.601-0.622c4.59-0.513,9.175-1.26,13.779-1.412
	c7.435-0.244,14.886-0.129,22.329-0.084c4.582,0.028,9.164,0.19,13.744,0.323c5.756,0.166,11.512,0.537,17.268,0.508
	c9.299-0.047,18.598-0.392,27.898-0.52c3.189-0.042,6.383,0.231,9.576,0.291c5.929,0.11,11.86,0.165,17.791,0.253
	c4.721,0.07,9.44,0.222,14.161,0.216c5.386-0.007,10.771-0.195,16.158-0.217c4.983-0.022,9.967,0.068,14.951,0.112
	c1.808,0.016,3.613,0.053,5.42,0.063c4.535,0.026,9.074-0.04,13.608,0.095c3.055,0.09,6.1,0.559,9.154,0.666
	c2.251,0.079,4.515-0.145,6.772-0.251c0.753-0.036,1.504-0.171,2.259-0.19c2.836-0.075,5.678-0.232,8.511-0.148
	c2.84,0.085,5.67,0.485,8.509,0.637c4.573,0.244,9.039,1.048,13.235,2.855c1.902,0.821,3.802,1.059,5.778,1.431
	c3.276,0.617,6.38,2.081,8.738,4.675c0.272,0.3,0.51,0.665,0.842,0.874c3.886,2.446,5.605,6.434,7.389,10.367
	c1.626,3.586,3.255,7.174,4.765,10.808c0.571,1.372,0.929,2.863,1.188,4.333c0.561,3.198,1.279,6.405,1.411,9.63
	c0.166,4.032,0.92,7.977,1.245,11.974c0.138,1.688,0.012,3.396,0,5.094c-0.026,3.772-0.057,7.546-0.086,11.319
	c-0.006,0.639-0.046,1.281-0.021,1.92c0.165,4.034,0.467,8.065,0.484,12.1c0.018,3.886-0.32,7.773-0.377,11.661
	c-0.054,3.575,0.064,7.153,0.1,10.73c0.053,5.395,0.189,10.79,0.115,16.185c-0.06,4.442-0.387,8.883-0.574,13.326
	c-0.222,5.264-0.593,10.529-0.585,15.794c0.008,6.489,0.372,12.979,0.515,19.472c0.073,3.295-0.063,6.595,0.007,9.89
	c0.086,3.978,0.35,7.949,0.426,11.926c0.047,2.333-0.225,4.675-0.161,7.008c0.078,2.892,0.782,5.828,0.441,8.652
	c-0.451,3.715,0.601,7.43-0.345,11.093c-0.085,0.332-0.17,0.761-0.034,1.035C553.071,409.298,550.792,411.824,550.179,414.618z
	 M569.926,332.236c-0.488,0-0.99,0-1.482,0c0.612-1.678,0.192-1.062,1.482-0.992C569.926,331.572,569.926,331.902,569.926,332.236z"
	/>
</svg>
