<?xml version="1.0" encoding="utf-8"?>
<!-- Generator: Adobe Illustrator 16.0.0, SVG Export Plug-In . SVG Version: 6.00 Build 0)  -->
<!DOCTYPE svg PUBLIC "-//W3C//DTD SVG 1.1//EN" "http://www.w3.org/Graphics/SVG/1.1/DTD/svg11.dtd">
<svg version="1.1" id="Layer_1" xmlns="http://www.w3.org/2000/svg" xmlns:xlink="http://www.w3.org/1999/xlink" x="0px" y="0px"
	 width="800px" height="450px" viewBox="0 0 800 450" enable-background="new 0 0 800 450" xml:space="preserve">
<g>
	<path fill-rule="evenodd" clip-rule="evenodd" fill="#444444" d="M354.306,50.076c3.003,0.052,6.005,0.104,9.009,0.158
		c1.279,0.023,2.561,0.081,3.842,0.079c3.677-0.008,7.354-0.079,11.03-0.044c3.328,0.033,6.654,0.234,9.983,0.258
		c8.352,0.055,16.708-0.092,25.057,0.109c8.531,0.208,17.055,0.758,25.585,1.112c4.999,0.209,10.002,0.278,15.001,0.508
		c3.742,0.172,7.492,0.387,11.216,0.799c1.871,0.208,2.99,1.409,4.062,3.2c2.903,4.858,2.088,10.129,2.257,15.245
		c0.161,4.859-0.364,9.741-0.593,14.612c-0.084,1.769-0.15,3.54-0.284,5.305c-0.185,2.479-0.522,2.756-3.085,2.839
		c-3.675,0.118-7.348,0.328-11.023,0.362c-3.197,0.032-6.395-0.192-9.592-0.178c-1.98,0.009-3.961,0.385-5.938,0.36
		c-2.439-0.03-4.887-0.228-7.312-0.492c-2.953-0.32-5.881-0.861-8.842-0.04c-0.5,0.139-1.108,0.004-1.642-0.115
		c-3.472-0.773-6.811,0.623-10.225,0.594c-2.527-0.021-5.054-0.243-7.579-0.377c-0.444-0.023-0.974-0.235-1.316-0.062
		c-2.08,1.045-4.017-0.081-6.021-0.25c-1.98-0.169-3.991,0.023-5.985-0.034c-4.086-0.12-8.17-0.39-12.256-0.427
		c-2.759-0.024-5.518,0.359-8.276,0.352c-3.577-0.007-7.155-0.219-10.73-0.349c-3.612-0.134-7.223-0.332-10.836-0.392
		c-3.186-0.052-6.373,0.107-9.557,0.054c-1.261-0.02-2.539-0.267-3.758-0.599c-0.455-0.124-1.031-0.743-1.104-1.205
		c-0.616-3.937-1.361-7.876-1.612-11.842c-0.343-5.367-0.304-10.76-0.382-16.141c-0.029-2.044-0.1-4.109,0.158-6.126
		c0.333-2.615,1.771-4.606,4.397-5.369C343.289,50.428,348.739,49.763,354.306,50.076z"/>
	<path fill-rule="evenodd" clip-rule="evenodd" fill="#444444" d="M488.682,386.121c-0.043-1.39-0.186-2.787-0.096-4.17
		c0.115-1.77-0.547-2.748-2.347-2.789c-4.343-0.098-8.687-0.175-13.03-0.145c-7.525,0.051-15.049,0.258-22.574,0.266
		c-6.07,0.006-12.143-0.18-18.211-0.291c-1.668-0.031-3.336-0.189-4.998-0.143c-3.61,0.101-7.219,0.447-10.826,0.426
		c-8.738-0.053-17.477-0.311-26.215-0.379c-4.964-0.039-9.929,0.122-14.893,0.213c-2.678,0.051-5.357,0.29-8.027,0.193
		c-5.218-0.188-10.426-0.658-15.643-0.798c-2.834-0.075-5.675,0.339-8.517,0.439c-5.125,0.184-10.254,0.297-15.38,0.445
		c-3.058,0.089-6.115,0.245-9.174,0.265c-3.11,0.02-6.221-0.094-9.297-0.148c-0.166,0.759-0.355,1.52-0.499,2.291
		c-0.112,0.595-0.218,1.197-0.237,1.801c-0.034,1.029,0.004,2.061,0.01,3.09c0.012,1.85,0.069,3.699,0.02,5.549
		c-0.033,1.286-0.135,2.583-0.352,3.852c-0.17,0.993-0.065,1.745,1.065,1.807c3.716,0.204,7.431,0.389,11.149,0.495
		c4.268,0.122,8.536,0.11,12.804,0.241c2.78,0.084,5.559,0.415,8.339,0.449c1.951,0.025,3.906-0.271,5.86-0.402
		c0.379-0.025,0.993-0.089,1.112,0.104c1.296,2.08,3.369,0.85,4.932,0.929c2.787,0.144,5.615-0.569,8.433-0.876
		c1.105-0.119,2.229-0.193,3.338-0.146c3.84,0.161,7.678,0.39,11.519,0.576c0.325,0.015,0.655-0.128,0.986-0.16
		c2.429-0.255,4.855-0.655,7.291-0.716c4.194-0.105,8.396-0.018,12.592,0.022c3.116,0.031,6.23,0.11,9.347,0.177
		c2.503,0.052,5.011,0.235,7.509,0.146c3.051-0.11,6.088-0.485,9.137-0.673c4.427-0.275,8.857-0.558,13.291-0.699
		c3.338-0.106,6.68,0.052,10.018,0.004c2.89-0.041,5.773-0.22,8.658-0.316c3.773-0.13,7.575-0.579,11.316-0.28
		c5.912,0.474,11.774,0.009,17.653-0.212c2.874-0.11,4.134-0.877,4.165-2.538C488.957,391.389,488.768,388.754,488.682,386.121z
		 M322.163,385.006c0.478,0,0.952,0,1.427,0c0,0.95,0,1.9,0,2.844C322.206,387.253,322.223,386.899,322.163,385.006z
		 M324.533,392.122c-0.628,0-1.259,0-1.893,0c0.075-1.925,0.232-1.843,0.949-2.845c0.315,0,0.629,0,0.943,0
		C324.533,390.228,324.533,391.174,324.533,392.122z M360.606,391.174c-1.202-0.029-1.768-0.009-2.371-0.471
		c-0.159,0-0.319,0-0.474,0c0-0.16,0-0.318,0-0.476c0.154,0,0.314,0,0.474,0c0-0.16,0-0.316,0-0.476
		c0.785,0.159,1.581,0.315,2.371,0.476C360.606,390.543,360.606,390.861,360.606,391.174z"/>
	<path fill-rule="evenodd" clip-rule="evenodd" fill="#444444" d="M546.08,326.731c-0.131-0.263-0.049-0.674,0.032-0.991
		c0.905-3.51-0.103-7.069,0.331-10.629c0.326-2.705-0.349-5.52-0.424-8.289c-0.061-2.235,0.199-4.479,0.154-6.715
		c-0.072-3.81-0.325-7.615-0.408-11.426c-0.066-3.156,0.064-6.318-0.006-9.475c-0.137-6.221-0.486-12.438-0.493-18.656
		c-0.007-5.044,0.349-10.089,0.561-15.132c0.18-4.257,0.493-8.512,0.55-12.768c0.071-5.169-0.06-10.338-0.11-15.507
		c-0.034-3.427-0.147-6.855-0.095-10.28c0.054-3.725,0.377-7.45,0.361-11.173c-0.018-3.865-0.307-7.727-0.465-11.592
		c-0.024-0.612,0.014-1.229,0.02-1.84c0.028-3.615,0.057-7.23,0.082-10.845c0.012-1.628,0.133-3.264,0-4.881
		c-0.311-3.829-1.033-7.608-1.192-11.472c-0.126-3.09-0.815-6.162-1.353-9.227c-0.248-1.408-0.59-2.836-1.137-4.151
		c-1.447-3.481-3.008-6.919-4.565-10.354c-1.708-3.769-3.356-7.589-7.079-9.933c-0.318-0.2-0.545-0.55-0.807-0.837
		c-2.26-2.485-5.232-3.888-8.372-4.479c-1.894-0.356-3.714-0.584-5.536-1.37c-4.021-1.732-8.299-2.502-12.681-2.736
		c-2.72-0.145-5.431-0.528-8.152-0.609c-2.714-0.081-5.437,0.069-8.153,0.142c-0.724,0.019-1.443,0.147-2.164,0.183
		c-2.164,0.102-4.332,0.316-6.489,0.24c-2.927-0.103-5.844-0.552-8.771-0.638c-4.344-0.13-8.693-0.065-13.038-0.091
		c-1.731-0.011-3.461-0.046-5.192-0.061c-4.775-0.043-9.551-0.13-14.325-0.108c-5.161,0.021-10.321,0.201-15.481,0.208
		c-4.522,0.006-9.045-0.14-13.567-0.207c-5.682-0.084-11.365-0.137-17.045-0.242c-3.06-0.057-6.119-0.318-9.175-0.279
		c-8.911,0.123-17.82,0.453-26.729,0.498c-5.515,0.028-11.029-0.327-16.544-0.486c-4.389-0.127-8.778-0.282-13.168-0.31
		c-7.132-0.043-14.271-0.153-21.394,0.081c-4.411,0.146-8.805,0.861-13.202,1.353c-1.158,0.129-2.322,0.306-3.449,0.596
		c-1.145,0.294-2.286,0.666-3.353,1.164c-1.497,0.699-2.941,1.516-4.378,2.335c-2.696,1.535-5.465,2.969-8.021,4.711
		c-1.922,1.309-3.713,2.892-5.285,4.606c-2.048,2.238-4.058,4.585-5.639,7.159c-1.228,1.991-1.741,4.416-2.625,6.629
		c-1.608,4.024-2.984,8.115-3.634,12.418c-0.122,0.82-0.522,1.837-0.198,2.442c0.969,1.821,0.361,3.574,0.217,5.372
		c-0.201,2.524-1.455,5.135,0.543,7.514c0.114,0.137,0.063,0.432,0.055,0.652c-0.106,2.59-0.302,5.178-0.314,7.768
		c-0.029,5.846,0.012,11.69,0.058,17.532c0.026,3.416,0.179,6.831,0.157,10.244c-0.009,1.767-0.329,3.528-0.407,5.297
		c-0.108,2.413-0.063,4.833-0.19,7.245c-0.111,2.104-0.594,4.207-0.513,6.295c0.14,3.623,0.664,7.23,0.876,10.854
		c0.156,2.703,0.038,5.42,0.105,8.129c0.108,4.347,0.356,8.689,0.385,13.035c0.033,4.886-0.088,9.773-0.19,14.658
		c-0.047,2.219-0.275,4.434-0.315,6.652c-0.107,5.923-0.16,11.846-0.234,17.769c-0.026,2.173,0.056,4.354-0.101,6.515
		c-0.241,3.331-0.801,6.643-0.946,9.975c-0.25,5.758,0.353,11.465,1.711,17.076c0.378,1.56,0.688,3.184,1.374,4.613
		c1.921,4.002,3.909,7.98,6.089,11.846c1.749,3.102,3.957,5.881,7.12,7.759c2.251,1.337,4.401,2.847,6.664,4.163
		c2.131,1.238,4.245,2.629,6.552,3.405c3.752,1.265,7.627,2.224,11.667,2.151c0.579-0.013,1.164,0.336,1.749,0.516
		c1.718,0.525,3.415,1.397,5.158,1.503c3.612,0.218,7.25,0.065,10.875-0.007c3.566-0.07,7.131-0.354,10.693-0.312
		c4.088,0.047,8.174,0.384,12.262,0.524c1.881,0.063,3.768-0.043,5.65-0.063c3.152-0.035,6.303-0.053,9.455-0.1
		c1.552-0.023,3.215-0.48,4.636-0.072c3.696,1.06,7.476,0.775,11.2,0.999c6.772,0.405,13.569,0.398,20.357,0.538
		c1.029,0.02,2.061-0.168,3.091-0.146c1.944,0.045,3.911,0.409,5.825,0.218c3.962-0.393,7.867-1.019,11.898-0.612
		c3.403,0.343,6.857,0.135,10.287,0.238c3.68,0.111,7.337-0.045,11.006-0.393c3.369-0.323,6.774-0.502,10.152-0.396
		c3.943,0.127,7.869,0.668,11.808,0.955c1.429,0.104,2.876-0.03,4.313-0.026c3.769,0.013,7.58,0.411,11.295-0.023
		c6.228-0.728,12.441-0.304,18.659-0.46c3.448-0.086,6.83,0.729,10.376-0.217c3.613-0.963,7.487-0.947,11.248-1.359
		c0.002,0.033,0.004,0.064,0.004,0.098c0.76-0.064,1.543-0.026,2.271-0.205c1.723-0.423,3.43-0.912,5.122-1.441
		c2.774-0.864,5.593-1.633,8.278-2.725c2.043-0.83,3.988-1.976,5.836-3.195c2.673-1.764,5.578-3.383,7.738-5.672
		c3.725-3.951,7.687-7.888,8.928-13.541C545.396,332.173,547.58,329.752,546.08,326.731z M265.686,232.664c-0.315,0-0.626,0-0.949,0
		c0-0.315,0-0.634,0-0.95c0.323,0,0.634,0,0.949,0C265.686,232.03,265.686,232.349,265.686,232.664z M277.553,300.057
		c-0.314,0-0.629,0-0.951,0c0-0.316,0-0.633,0-0.951c0.322,0,0.637,0,0.951,0C277.553,299.424,277.553,299.74,277.553,300.057z
		 M300.808,125.884c-0.879-0.31-0.433-0.037-0.949-0.478c-0.16,0-0.315,0-0.474,0c0.183-0.239,0.625-0.351,1.423-0.948
		C300.808,124.934,300.808,125.406,300.808,125.884z M306.026,272.057c-0.157,0-0.315,0-0.473,0c0-0.159,0-0.318,0-0.478
		c-0.158,0-0.318,0-0.476,0c0-0.314,0-0.632,0-0.948c0.317,0,0.633,0,0.948,0C306.026,271.105,306.026,271.579,306.026,272.057z
		 M452.203,168.595c1.103,0.138,1.176,0.212,1.902,0.475c-0.162,0.315-0.316,0.628-0.48,0.944c-0.872-0.304-0.433-0.03-0.949-0.469
		c-0.155,0-0.318,0-0.473,0C452.203,169.23,452.203,168.91,452.203,168.595z M434.168,255.443c0.163,0,0.315,0,0.479,0
		c0,0,0.062-1.846,0.471-0.949c0.663,0.116-0.191,0.535,0.471,0.476c0,0.314,0,0.631,0,0.95c-0.471,0-0.941,0-1.42,0
		C434.168,255.76,434.168,255.601,434.168,255.443z M432.266,187.578c-0.152,0.475-0.314,0.946-0.469,1.426
		c-0.163,0-0.316,0-0.479,0C431.696,187.869,431.474,188.182,432.266,187.578z M425.623,204.189c0,0.316,0,0.632,0,0.951
		c-0.872-0.312-0.432-0.036-0.949-0.479c-0.152,0-0.316,0-0.469,0C424.729,204.251,424.611,204.347,425.623,204.189z
		 M401.896,186.627c0,0.159,0,0.314,0,0.476c-0.473,0-0.949,0-1.424,0C400.997,186.691,400.885,186.786,401.896,186.627z
		 M394.781,151.509c0.315,0,0.625,0,0.941,0c0,0.157,0,0.316,0,0.474c-0.316,0-0.626,0-0.941,0
		C394.781,151.825,394.781,151.666,394.781,151.509z M395.723,204.189c0,0.316,0,0.632,0,0.951
		C394.843,204.788,395.139,204.932,395.723,204.189z M338.302,169.545c0,0.312,0,0.629,0,0.948c-0.476,0-0.952,0-1.426,0
		C337.494,169.29,336.782,169.867,338.302,169.545z M329.283,165.745c0.315,0.157,0.634,0.315,0.95,0.474
		C330.193,166.242,328.742,166.647,329.283,165.745z M336.276,224.804c-1.41-3.595-2.571-7.428-1.731-11.465
		c1.207-5.798,3.737-10.672,9.343-13.379c0.685-0.33,1.491-0.411,2.243-0.602c1.061-0.268,2.123-0.743,3.186-0.747
		c1.904-0.009,3.814,0.234,5.716,0.44c1.025,0.11,2.119,0.177,3.039,0.585c1.944,0.862,4.136,1.582,5.612,2.998
		c2.693,2.586,4.361,5.829,4.145,9.822c-0.134,2.438,0.216,4.9,0.084,7.335c-0.283,5.301-3.424,8.796-7.535,11.751
		c-3.26,2.342-6.943,2.471-10.506,2.688C344.012,233.56,338.534,230.566,336.276,224.804z M394.305,314.292c-0.32,0-0.636,0-0.953,0
		c0-0.315,0-0.633,0-0.95c0.317,0,0.633,0,0.953,0C394.305,313.659,394.305,313.977,394.305,314.292z M451.217,292.025
		c-2.663,3.444-6.236,5.67-9.598,8.172c-2.027,1.511-4.502,2.408-6.74,3.646c-4.928,2.723-10.28,4.213-15.749,5.239
		c-3.925,0.737-7.921,1.092-11.89,1.605c-1.43,0.186-2.861,0.44-4.299,0.484c-1.646,0.051-3.303-0.052-4.949-0.167
		c-3.211-0.226-6.459-0.262-9.614-0.817c-5.154-0.906-10.286-1.834-15.312-3.538c-5.143-1.741-9.871-4.038-14.307-7.075
		c-2.678-1.831-5.56-3.42-8.006-5.518c-1.646-1.41-2.918-3.403-3.943-5.353c-0.926-1.759-1.293-3.814-1.894-5.697
		c0.787-2.563,1.367-4.923,2.245-7.164c0.594-1.517,4.164-2.663,5.794-2.019c2.578,1.021,5.352,1.789,7.617,3.3
		c2.392,1.596,4.472,3.782,6.345,5.999c1.92,2.272,4.287,3.756,6.929,4.771c4.939,1.896,10.131,2.931,15.25,4.23
		c4.131,1.05,8.172-0.281,12.071,0.603c4.393,0.993,8.334-1.001,12.537-1.09c1.898-0.042,3.76-1.316,5.66-1.962
		c1.105-0.373,2.241-0.779,3.387-0.867c2.423-0.189,4.211-1.575,6.102-2.844c4.797-3.22,9.441-6.727,14.488-9.498
		c3.434-1.885,8.701-0.962,10.727,4.224C455.881,285.333,453.904,288.553,451.217,292.025z M437.49,235.035
		c1.158-0.312,0.74-0.301,1.898,0c0,0.319,0,0.635,0,0.951c-1.012-0.172-0.896-0.068-1.422-0.476
		C437.443,235.085,437.916,235.557,437.49,235.035z M466.912,237.409c-0.316,0-0.627,0-0.942,0c0-0.479,0-0.948,0-1.423
		c0.315,0,0.626,0,0.942,0C466.912,236.461,466.912,236.931,466.912,237.409z M458.771,232.098c-2.473,1.211-5.346,2.319-8.016,2.27
		c-4.953-0.093-9.546-1.371-12.851-5.93c-2.281-3.145-2.267-6.633-3.109-10.025c-0.159-0.639-0.274-1.291-0.413-1.937
		c-0.064-0.317-0.258-0.669-0.184-0.945c0.511-1.87,1.022-3.743,1.633-5.583c0.805-2.417,2.424-4.273,4.488-5.666
		c1.736-1.171,3.516-2.498,5.477-3.055c2.221-0.631,4.703-0.844,7.001-0.59c3.554,0.395,6.987,1.603,9.686,4.073
		c1.228,1.127,2.207,2.659,2.911,4.188c0.838,1.818,1.318,3.815,1.838,5.765c0.369,1.384,0.546,2.816,0.705,3.679
		C467.541,225.201,464.146,229.458,458.771,232.098z M482.104,188.053c0,0.314,0,0.631,0,0.951c-2.014-0.374-1.598-0.978-2.85-1.901
		c0-0.316,0-0.633,0-0.95c0.52-0.424,0.057,0.049,0.475-0.474C481.146,186.422,480.521,187.117,482.104,188.053z M476.885,182.83
		c0.029-1.199,0.006-1.764,0.469-2.371c0-0.317,0-0.63,0-0.95c0.797,0,1.585,0,2.375,0c0.197,1.489,0.764,2.251,0,3.321
		c0,0.316,0,0.635,0,0.951c-1.105,0.138-1.176,0.211-1.895,0.475C477.518,183.656,477.338,183.271,476.885,182.83z M480.678,251.646
		c-0.442-0.521-0.177-0.063-0.473-0.949c-0.44,0.519-0.179,0.062-0.477,0.949c-0.412-0.529-0.311-0.406-0.475-1.424
		c0.475,0,0.951,0,1.424,0C480.678,250.697,480.678,251.173,480.678,251.646z M483.527,197.07c-0.879-0.309-0.432-0.035-0.952-0.474
		c-0.438-0.521-0.178-0.066-0.472-0.952c0.472-0.156,0.945-0.317,1.424-0.473C483.527,195.806,483.527,196.438,483.527,197.07z
		 M507.258,243.104c0,0.315,0,0.634,0,0.95c-0.482,0-0.952,0-1.425,0C506.423,242.447,506.021,243.033,507.258,243.104z
		 M507.258,341.819c-0.905-0.325-1.749-0.817-2.38-1.426c-0.157,0-0.312,0-0.474,0c0-0.156,0-0.316,0-0.477
		c1.359,0.074,0.688,0.394,1.429,0c1.501,0.301,0.997,0.312,1.894,0.952C507.574,341.184,507.41,341.502,507.258,341.819z
		 M507.727,260.661c-0.469-0.775-0.503-0.639,0-1.42C507.727,259.717,507.727,260.189,507.727,260.661z M508.677,185.207
		c-0.518,0.423-0.054-0.049-0.471,0.472c-1.207-0.62-0.626,0.093-0.948-1.423c0.469,0,0.948,0,1.419,0
		C508.677,184.572,508.677,184.888,508.677,185.207z M515.799,240.733c0.316-0.159,0.635-0.319,0.943-0.476
		c0.27,0.721,0.355,0.782,0.478,1.897c-1.011-0.178-0.893-0.063-1.421-0.478C515.281,240.885,515.753,241.678,515.799,240.733z
		 M518.641,338.496c-0.469-0.157-0.951-0.314-1.421-0.475c0-0.633,0-1.27,0-1.9c1.121,0.332,1.05,0.497,1.9,0.949
		C518.959,337.547,518.805,338.021,518.641,338.496z M522.439,215.101c-0.314,0-0.631,0-0.946,0
		c0.377-1.126,0.152-0.812,0.946-1.422C522.439,214.153,522.439,214.629,522.439,215.101z M536.68,219.377
		c-0.873,0.304-0.432,0.031-0.949,0.471c-0.316,0-0.637,0-0.952,0c0.36-1.257,0.61-1.105,0.952-2.373c0.315,0,0.629,0,0.949,0
		C536.68,218.107,536.68,218.742,536.68,219.377z M544.27,201.812c-1.119-0.334-1.057-0.489-1.898-0.947c0-0.315,0-0.632,0-0.95
		c1.128,0.466,1.012,0.821,1.898,1.423C544.27,201.497,544.27,201.657,544.27,201.812z"/>
</g>
</svg>
