<?xml version="1.0" encoding="utf-8"?>
<!-- Generator: Adobe Illustrator 16.0.0, SVG Export Plug-In . SVG Version: 6.00 Build 0)  -->
<!DOCTYPE svg PUBLIC "-//W3C//DTD SVG 1.1//EN" "http://www.w3.org/Graphics/SVG/1.1/DTD/svg11.dtd">
<svg version="1.1" id="Layer_1" xmlns="http://www.w3.org/2000/svg" xmlns:xlink="http://www.w3.org/1999/xlink" x="0px" y="0px"
	 width="800px" height="600px" viewBox="0 0 800 600" enable-background="new 0 0 800 600" xml:space="preserve">
<g>
	<path fill="#444444" d="M487.741,161.718c4.459,0.435,8.7,0.925,12.954,1.232c2.606,0.189,5.255-0.08,7.851,0.176
		c3.977,0.393,7.928,1.031,11.88,1.627c2.586,0.391,5.207,0.699,7.716,1.396c2.531,0.703,4.973,1.772,7.396,2.813
		c1.589,0.68,3.158,1.476,4.591,2.434c2.934,1.963,5.73,4.123,8.65,6.102c3.781,2.562,5.713,6.552,7.903,10.283
		c1.659,2.821,2.631,6.04,4.219,8.911c2.45,4.431,2.209,9.469,3.575,14.108c1.238,4.216,1.668,8.498,2.147,12.801
		c0.129,1.145-0.033,2.317,0.037,3.472c0.186,3.009,0.384,6.02,0.655,9.021c0.376,4.134,0.918,8.256,1.205,12.396
		c0.187,2.679-0.024,5.384,0.072,8.072c0.136,3.766,0.511,7.526,0.565,11.291c0.076,4.999-0.114,10-0.083,14.999
		c0.032,5.004,0.153,10.008,0.319,15.008c0.138,4.185,0.35,8.367,0.615,12.545c0.287,4.471,0.728,8.934,0.999,13.407
		c0.129,2.084,0.053,4.186,0.013,6.278c-0.136,6.792-0.395,13.583-0.415,20.375c-0.019,4.985,0.261,9.974,0.411,14.962
		c0.156,5.223,0.372,10.447,0.458,15.674c0.04,2.437-0.212,4.873-0.243,7.312c-0.047,3.649,0.056,7.301-0.04,10.948
		c-0.065,2.488-0.266,4.984-0.575,7.458c-0.506,4.034-1.024,8.079-1.782,12.071c-0.538,2.849-1.03,5.854-2.338,8.379
		c-1.924,3.715-4.407,7.175-6.932,10.532c-1.662,2.213-3.624,4.307-5.807,5.994c-2.06,1.591-4.585,2.578-6.899,3.839
		c-2.382,1.298-4.739,2.638-7.141,3.898c-4.733,2.485-9.34,5.318-14.649,6.429c-3.912,0.818-7.877,1.378-11.832,1.967
		c-1.783,0.269-2.427,0.833-2.37,2.703c0.197,6.573,0.512,13.145,0.616,19.72c0.058,3.663-0.145,7.337-0.4,10.994
		c-0.049,0.69-0.807,1.753-1.42,1.902c-1.995,0.489-4.074,0.646-6.125,0.906c-0.63,0.08-1.339-0.076-1.898,0.153
		c-3.421,1.403-6.963,0.986-10.495,0.868c-0.748-0.023-1.507,0.236-2.252,0.21c-2.616-0.095-5.229-0.35-7.845-0.367
		c-2.478-0.016-4.956,0.18-7.434,0.309c-0.748,0.038-1.492,0.24-2.238,0.242c-4.167,0.008-8.334-0.002-12.499-0.052
		c-1.565-0.016-3.139-0.289-4.696-0.215c-4.878,0.237-9.743,0.671-14.622,0.853c-2.021,0.076-4.057-0.312-6.086-0.459
		c-0.681-0.049-1.369-0.031-2.053,0.001c-3.013,0.143-6.024,0.259-9.032,0.469c-3.356,0.234-6.719,0.466-10.059,0.875
		c-3.8,0.463-7.522,1.076-11.412,0.299c-2.404-0.48-4.993,0.003-7.493-0.102c-3.364-0.145-6.722-0.559-10.086-0.622
		c-2.131-0.042-4.27,0.342-6.404,0.538c-0.346,0.031-0.702,0.168-1.031,0.114c-5.987-0.948-12.027-0.544-18.035-0.813
		c-3.84-0.174-7.455,0.896-11.203,0.854c-1.917-0.021-3.833-0.165-5.75-0.243c-4.051-0.169-8.104-0.325-12.153-0.501
		c-3.884-0.168-7.771-0.302-11.649-0.552c-3.885-0.249-7.754-0.734-11.64-0.908c-3.906-0.176-7.824-0.1-11.735-0.115
		c-0.519-0.002-1.049,0.045-1.553,0.155c-2.022,0.442-3.159-0.207-3.303-2.212c-0.522-7.308-0.977-14.615-1.405-21.929
		c-0.192-3.305-0.243-6.616-0.392-9.925c-0.13-2.842-0.901-3.497-3.725-3.568c-1.26-0.03-2.511-0.33-3.765-0.516
		c-1.02-0.148-2.063-0.214-3.048-0.493c-0.8-0.227-1.525-0.713-2.284-1.09c-3.37-1.677-6.742-3.354-10.111-5.037
		c-3.043-1.518-6.048-3.044-8.521-5.509c-1.488-1.482-3.597-2.365-5.007-3.901c-2.744-2.994-5.269-6.202-7.73-9.438
		c-1.355-1.782-2.383-3.812-3.585-5.71c-2.366-3.732-4.842-7.438-5.738-11.848c-1.271-6.249-2.453-12.521-3.489-18.813
		c-0.632-3.836-1.154-7.721-1.301-11.6c-0.175-4.636,0.11-9.287,0.185-13.935c0.029-1.847,0.013-3.69,0.048-5.539
		c0.103-5.267,0.227-10.532,0.332-15.799c0.06-2.992,0.17-5.983,0.144-8.976c-0.048-5.754-0.181-11.508-0.269-17.261
		c-0.058-3.889-0.065-7.776-0.155-11.665c-0.154-6.685-0.431-13.369-0.518-20.054c-0.064-4.979-0.023-9.964,0.178-14.937
		c0.185-4.571,0.674-9.13,0.965-13.695c0.073-1.134-0.1-2.282-0.152-3.424c-0.141-3.062-0.419-6.131-0.37-9.191
		c0.039-2.421,0.579-4.83,0.727-7.256c0.404-6.667,0.603-13.35,1.121-20.007c0.247-3.17,0.571-6.475,1.704-9.393
		c1.168-3.011,1.457-6.104,2.211-9.141c0.455-1.836,1.205-3.613,1.973-5.353c0.854-1.927,1.178-4.187,3.168-5.462
		c0.798-4.352,4.178-7.17,6.582-10.475c2.639-3.627,6.235-6.513,10.463-8.394c0.521-0.233,1.02-0.573,1.451-0.952
		c3.225-2.836,7.244-4.111,11.093-5.744c4.133-1.754,8.592-2.204,12.833-3.438c1.977-0.575,3.92-0.013,5.879-0.776
		c1.946-0.761,4.2-0.758,6.33-1.018c2.081-0.254,4.17-0.527,6.262-0.586c2.196-0.062,4.398,0.15,6.601,0.177
		c0.688,0.01,1.509,0.001,2.039-0.35c0.566-0.376,1.199-1.149,1.223-1.771c0.118-3.097,0.089-6.199,0.016-9.298
		c-0.031-1.349-0.392-2.688-0.424-4.036c-0.063-2.712-0.011-5.427,0.001-8.139c0.01-2.077-0.084-4.163,0.073-6.229
		c0.286-3.7,0.474-7.438,1.179-11.067c0.636-3.275,0.879-6.86,3.798-9.259c0.797-0.654,1.573-1.335,2.413-1.93
		c2.822-2.001,5.626-3.936,8.876-5.344c3.902-1.688,7.909-2.17,12.014-2.577c1.382-0.137,2.805-0.324,4.099-0.792
		c4.465-1.617,8.986-0.568,13.5-0.566c3.81,0.001,7.619-0.502,11.43-0.771c0.978-0.068,1.975-0.238,2.932-0.117
		c3.509,0.441,6.963-0.278,10.442-0.368c2.059-0.053,4.121,0.059,6.18,0.015c5.903-0.118,11.808-0.402,17.711-0.38
		c4.462,0.016,8.921,0.427,13.386,0.619c2.889,0.125,5.781,0.237,8.673,0.237c3.692,0.002,7.388-0.219,11.077-0.136
		c1.846,0.042,3.674,0.71,5.523,0.812c4.392,0.246,8.791,0.315,13.188,0.475c2.436,0.089,4.959-0.152,7.283,0.413
		c3.263,0.794,6.801,0.95,9.647,3.001c1.311,0.943,2.425,2.18,3.527,3.377c1.02,1.109,1.829,2.414,2.861,3.512
		c2.068,2.206,3.389,4.769,4.188,7.672c1.843,6.708,2.565,13.56,2.742,20.486c0.173,6.794,0.336,13.589,0.509,20.384
		C487.671,161.369,487.726,161.595,487.741,161.718z M510.33,442.467c0.002,0.034,0.004,0.067,0.005,0.103
		c0.792-0.066,1.609-0.027,2.371-0.214c1.797-0.441,3.579-0.952,5.346-1.505c2.896-0.901,5.837-1.704,8.641-2.845
		c2.133-0.865,4.164-2.062,6.092-3.335c2.79-1.841,5.822-3.53,8.076-5.92c3.888-4.123,8.022-8.232,9.318-14.133
		c0.613-2.794,2.894-5.32,1.326-8.475c-0.136-0.273-0.051-0.702,0.034-1.034c0.945-3.663-0.106-7.378,0.345-11.094
		c0.341-2.824-0.363-5.761-0.44-8.651c-0.063-2.333,0.208-4.675,0.16-7.009c-0.075-3.977-0.34-7.947-0.426-11.926
		c-0.07-3.295,0.066-6.595-0.007-9.89c-0.143-6.492-0.507-12.981-0.515-19.472c-0.009-5.266,0.362-10.53,0.585-15.795
		c0.188-4.442,0.515-8.883,0.573-13.325c0.074-5.396-0.062-10.79-0.114-16.185c-0.035-3.577-0.153-7.155-0.101-10.73
		c0.058-3.888,0.396-7.775,0.377-11.661c-0.018-4.034-0.318-8.065-0.483-12.1c-0.025-0.639,0.015-1.281,0.021-1.92
		c0.029-3.773,0.061-7.547,0.086-11.319c0.013-1.698,0.139-3.406,0-5.094c-0.324-3.997-1.079-7.941-1.245-11.974
		c-0.132-3.225-0.851-6.432-1.41-9.63c-0.26-1.47-0.616-2.961-1.188-4.333c-1.51-3.634-3.139-7.222-4.765-10.808
		c-1.783-3.934-3.503-7.921-7.39-10.367c-0.332-0.209-0.568-0.574-0.842-0.874c-2.357-2.594-5.462-4.058-8.738-4.675
		c-1.977-0.372-3.875-0.609-5.777-1.431c-4.196-1.808-8.662-2.611-13.235-2.855c-2.839-0.151-5.669-0.552-8.509-0.637
		c-2.833-0.084-5.675,0.073-8.511,0.148c-0.755,0.02-1.506,0.154-2.259,0.19c-2.259,0.106-4.521,0.33-6.772,0.251
		c-3.055-0.107-6.1-0.576-9.154-0.666c-4.534-0.135-9.072-0.068-13.607-0.095c-1.808-0.011-3.612-0.048-5.42-0.063
		c-4.984-0.044-9.969-0.135-14.951-0.112c-5.389,0.021-10.772,0.21-16.158,0.217c-4.721,0.006-9.44-0.146-14.161-0.216
		c-5.931-0.088-11.862-0.143-17.791-0.253c-3.193-0.06-6.387-0.333-9.576-0.291c-9.301,0.128-18.6,0.473-27.897,0.52
		c-5.756,0.029-11.513-0.342-17.269-0.508c-4.58-0.133-9.162-0.295-13.744-0.323c-7.442-0.045-14.895-0.16-22.329,0.084
		c-4.604,0.152-9.189,0.899-13.779,1.412c-1.209,0.135-2.424,0.319-3.601,0.622c-1.194,0.307-2.386,0.695-3.499,1.215
		c-1.562,0.729-3.07,1.582-4.569,2.437c-2.814,1.603-5.704,3.1-8.372,4.918c-2.006,1.365-3.876,3.018-5.517,4.808
		c-2.138,2.336-4.235,4.785-5.886,7.472c-1.281,2.079-1.817,4.61-2.739,6.92c-1.679,4.2-3.115,8.47-3.793,12.961
		c-0.128,0.855-0.546,1.917-0.207,2.549c1.012,1.901,0.377,3.73,0.227,5.607c-0.21,2.635-1.519,5.359,0.566,7.842
		c0.119,0.144,0.066,0.451,0.057,0.682c-0.11,2.702-0.314,5.404-0.327,8.107c-0.031,6.101,0.012,12.201,0.06,18.299
		c0.027,3.565,0.187,7.13,0.164,10.692c-0.009,1.844-0.344,3.683-0.425,5.528c-0.113,2.519-0.066,5.045-0.199,7.562
		c-0.116,2.195-0.619,4.391-0.535,6.57c0.146,3.781,0.693,7.545,0.914,11.329c0.164,2.819,0.04,5.655,0.11,8.483
		c0.113,4.536,0.372,9.069,0.401,13.604c0.035,5.1-0.091,10.201-0.198,15.3c-0.049,2.315-0.287,4.628-0.329,6.942
		c-0.112,6.183-0.167,12.364-0.244,18.547c-0.028,2.268,0.058,4.543-0.105,6.799c-0.252,3.478-0.836,6.934-0.987,10.41
		c-0.262,6.012,0.367,11.968,1.785,17.823c0.395,1.628,0.719,3.323,1.435,4.815c2.005,4.177,4.08,8.33,6.354,12.364
		c1.826,3.236,4.131,6.138,7.432,8.098c2.35,1.396,4.594,2.972,6.956,4.346c2.224,1.292,4.431,2.743,6.838,3.554
		c3.917,1.319,7.961,2.321,12.178,2.245c0.604-0.013,1.215,0.353,1.825,0.538c1.793,0.549,3.564,1.459,5.384,1.569
		c3.771,0.228,7.567,0.068,11.351-0.007c3.723-0.073,7.443-0.369,11.162-0.326c4.267,0.049,8.53,0.4,12.797,0.547
		c1.964,0.066,3.933-0.045,5.898-0.066c3.29-0.036,6.577-0.055,9.867-0.104c1.62-0.024,3.355-0.501,4.84-0.076
		c3.856,1.106,7.803,0.811,11.689,1.043c7.068,0.424,14.162,0.416,21.247,0.562c1.074,0.021,2.151-0.175,3.227-0.151
		c2.029,0.047,4.082,0.427,6.08,0.229c4.136-0.41,8.211-1.063,12.419-0.641c3.553,0.358,7.157,0.142,10.736,0.249
		c3.842,0.116,7.658-0.047,11.487-0.41c3.517-0.337,7.071-0.522,10.597-0.412c4.115,0.133,8.214,0.697,12.324,0.996
		c1.491,0.109,3.002-0.03,4.502-0.026c3.934,0.013,7.911,0.429,11.789-0.024c6.5-0.76,12.985-0.315,19.476-0.479
		c3.601-0.091,7.129,0.76,10.83-0.229C502.362,442.881,506.405,442.897,510.33,442.467z M351.343,117.388
		c-5.811-0.327-11.499,0.367-17.066,1.989c-2.741,0.796-4.242,2.874-4.591,5.604c-0.269,2.104-0.194,4.261-0.164,6.395
		c0.08,5.616,0.04,11.244,0.397,16.846c0.263,4.14,1.04,8.252,1.683,12.36c0.076,0.482,0.678,1.128,1.152,1.258
		c1.271,0.347,2.606,0.604,3.922,0.625c3.323,0.056,6.65-0.11,9.976-0.057c3.771,0.062,7.54,0.27,11.31,0.409
		c3.732,0.136,7.467,0.356,11.2,0.364c2.88,0.008,5.76-0.393,8.639-0.367c4.266,0.038,8.527,0.32,12.792,0.445
		c2.081,0.06,4.181-0.141,6.247,0.035c2.093,0.177,4.114,1.352,6.285,0.261c0.357-0.18,0.91,0.041,1.374,0.066
		c2.636,0.139,5.272,0.37,7.91,0.393c3.562,0.031,7.049-1.427,10.672-0.619c0.557,0.124,1.191,0.265,1.713,0.12
		c3.092-0.857,6.147-0.293,9.229,0.042c2.531,0.276,5.086,0.481,7.632,0.514c2.062,0.025,4.131-0.367,6.196-0.376
		c3.338-0.016,6.676,0.219,10.013,0.186c3.836-0.036,7.67-0.255,11.506-0.379c2.674-0.087,3.027-0.375,3.22-2.963
		c0.14-1.842,0.208-3.69,0.296-5.536c0.239-5.085,0.787-10.18,0.619-15.252c-0.177-5.34,0.675-10.841-2.354-15.912
		c-1.118-1.869-2.286-3.123-4.239-3.34c-3.887-0.431-7.8-0.654-11.707-0.834c-5.217-0.239-10.439-0.312-15.656-0.53
		c-8.904-0.37-17.8-0.943-26.705-1.16c-8.713-0.211-17.435-0.058-26.151-0.115c-3.476-0.023-6.946-0.234-10.421-0.269
		c-3.836-0.037-7.675,0.038-11.513,0.046c-1.337,0.002-2.674-0.058-4.01-0.082C357.61,117.496,354.477,117.442,351.343,117.388z
		 M304.53,461.228c-0.174,0.792-0.371,1.587-0.521,2.392c-0.117,0.621-0.228,1.251-0.247,1.881c-0.036,1.074,0.004,2.15,0.01,3.225
		c0.013,1.932,0.072,3.861,0.021,5.791c-0.035,1.344-0.141,2.696-0.367,4.021c-0.177,1.037-0.068,1.822,1.112,1.887
		c3.878,0.213,7.756,0.405,11.638,0.518c4.453,0.128,8.909,0.113,13.363,0.251c2.902,0.088,5.802,0.434,8.703,0.47
		c2.037,0.025,4.077-0.284,6.117-0.421c0.396-0.025,1.035-0.092,1.16,0.108c1.354,2.171,3.517,0.887,5.146,0.97
		c2.909,0.148,5.861-0.595,8.802-0.915c1.154-0.124,2.327-0.201,3.484-0.151c4.008,0.169,8.014,0.407,12.021,0.602
		c0.34,0.016,0.685-0.133,1.029-0.167c2.535-0.267,5.067-0.684,7.609-0.746c4.378-0.11,8.764-0.02,13.144,0.022
		c3.252,0.032,6.503,0.115,9.755,0.186c2.612,0.054,5.23,0.244,7.838,0.15c3.185-0.114,6.354-0.506,9.535-0.702
		c4.621-0.287,9.245-0.582,13.873-0.729c3.483-0.111,6.974,0.054,10.456,0.004c3.017-0.043,6.025-0.229,9.037-0.331
		c3.938-0.135,7.906-0.604,11.812-0.292c6.17,0.495,12.288,0.009,18.425-0.222c3-0.114,4.313-0.914,4.347-2.648
		c0.05-2.744-0.146-5.494-0.237-8.242c-0.046-1.451-0.193-2.91-0.101-4.354c0.12-1.847-0.57-2.867-2.449-2.91
		c-4.532-0.104-9.065-0.183-13.6-0.151c-7.854,0.054-15.708,0.27-23.562,0.277c-6.336,0.007-12.673-0.188-19.008-0.304
		c-1.74-0.032-3.48-0.198-5.217-0.149c-3.769,0.105-7.533,0.467-11.299,0.444c-9.121-0.055-18.241-0.323-27.362-0.396
		c-5.181-0.041-10.362,0.127-15.543,0.224c-2.795,0.053-5.592,0.302-8.379,0.2c-5.446-0.194-10.882-0.687-16.327-0.833
		c-2.957-0.077-5.923,0.354-8.889,0.459c-5.351,0.191-10.702,0.311-16.054,0.466c-3.19,0.092-6.383,0.256-9.574,0.275
		C310.987,461.403,307.741,461.284,304.53,461.228z"/>
	<path fill="#FDD700" d="M510.33,442.467c-3.925,0.432-7.968,0.414-11.739,1.418c-3.701,0.987-7.229,0.139-10.83,0.229
		c-6.489,0.163-12.976-0.28-19.476,0.479c-3.878,0.453-7.855,0.037-11.789,0.024c-1.5-0.004-3.011,0.137-4.502,0.026
		c-4.11-0.299-8.209-0.863-12.324-0.995c-3.525-0.111-7.08,0.074-10.597,0.411c-3.829,0.363-7.646,0.526-11.487,0.41
		c-3.579-0.107-7.185,0.109-10.736-0.249c-4.208-0.424-8.283,0.229-12.419,0.641c-1.998,0.198-4.051-0.182-6.08-0.229
		c-1.074-0.022-2.151,0.172-3.227,0.151c-7.085-0.146-14.179-0.139-21.247-0.562c-3.888-0.232-7.833,0.063-11.69-1.043
		c-1.482-0.425-3.219,0.053-4.839,0.076c-3.29,0.049-6.578,0.066-9.868,0.104c-1.966,0.021-3.935,0.133-5.897,0.065
		c-4.268-0.146-8.53-0.498-12.797-0.547c-3.719-0.043-7.439,0.253-11.162,0.326c-3.783,0.075-7.58,0.234-11.351,0.007
		c-1.819-0.11-3.591-1.021-5.384-1.569c-0.61-0.187-1.221-0.551-1.825-0.538c-4.217,0.076-8.261-0.926-12.178-2.244
		c-2.407-0.812-4.614-2.263-6.838-3.555c-2.362-1.374-4.606-2.95-6.956-4.346c-3.301-1.96-5.605-4.86-7.432-8.098
		c-2.274-4.034-4.35-8.188-6.354-12.364c-0.716-1.492-1.04-3.188-1.435-4.815c-1.418-5.855-2.047-11.812-1.785-17.823
		c0.151-3.478,0.735-6.934,0.987-10.409c0.163-2.257,0.077-4.532,0.105-6.8c0.077-6.183,0.132-12.364,0.244-18.547
		c0.042-2.314,0.28-4.627,0.329-6.942c0.107-5.099,0.233-10.2,0.198-15.3c-0.029-4.535-0.288-9.068-0.401-13.604
		c-0.07-2.827,0.054-5.664-0.11-8.483c-0.221-3.782-0.769-7.547-0.914-11.329c-0.084-2.18,0.419-4.375,0.535-6.57
		c0.133-2.518,0.086-5.044,0.199-7.562c0.081-1.846,0.416-3.685,0.425-5.528c0.022-3.562-0.137-7.127-0.164-10.692
		c-0.048-6.098-0.091-12.198-0.06-18.299c0.013-2.703,0.217-5.405,0.327-8.107c0.01-0.23,0.062-0.538-0.057-0.682
		c-2.085-2.482-0.776-5.207-0.566-7.842c0.15-1.877,0.785-3.706-0.227-5.607c-0.339-0.632,0.079-1.693,0.207-2.549
		c0.678-4.491,2.114-8.761,3.793-12.961c0.922-2.31,1.458-4.841,2.739-6.92c1.65-2.687,3.748-5.136,5.886-7.472
		c1.641-1.79,3.511-3.442,5.517-4.808c2.668-1.818,5.558-3.315,8.372-4.918c1.499-0.854,3.007-1.707,4.569-2.437
		c1.113-0.52,2.305-0.908,3.499-1.215c1.177-0.303,2.392-0.487,3.601-0.622c4.59-0.513,9.175-1.26,13.779-1.412
		c7.435-0.244,14.886-0.129,22.329-0.084c4.582,0.028,9.164,0.19,13.744,0.323c5.756,0.166,11.512,0.537,17.269,0.508
		c9.299-0.047,18.598-0.392,27.897-0.521c3.189-0.042,6.383,0.231,9.576,0.291c5.929,0.11,11.86,0.165,17.791,0.253
		c4.721,0.07,9.44,0.222,14.161,0.216c5.386-0.007,10.771-0.195,16.158-0.217c4.982-0.022,9.967,0.068,14.95,0.112
		c1.809,0.016,3.613,0.053,5.421,0.063c4.534,0.026,9.073-0.04,13.607,0.095c3.055,0.09,6.1,0.559,9.154,0.666
		c2.251,0.079,4.515-0.145,6.771-0.251c0.753-0.036,1.504-0.171,2.26-0.19c2.836-0.075,5.678-0.232,8.511-0.148
		c2.84,0.085,5.67,0.485,8.509,0.637c4.573,0.244,9.039,1.048,13.235,2.855c1.901,0.821,3.802,1.059,5.777,1.431
		c3.276,0.617,6.38,2.081,8.738,4.675c0.272,0.3,0.51,0.665,0.842,0.874c3.886,2.446,5.605,6.434,7.39,10.367
		c1.625,3.586,3.255,7.174,4.765,10.808c0.571,1.372,0.929,2.863,1.188,4.333c0.562,3.198,1.279,6.405,1.411,9.63
		c0.166,4.032,0.92,7.978,1.245,11.974c0.138,1.688,0.012,3.396,0,5.094c-0.026,3.772-0.057,7.546-0.086,11.319
		c-0.006,0.639-0.046,1.281-0.021,1.92c0.164,4.034,0.467,8.065,0.483,12.1c0.019,3.886-0.319,7.773-0.377,11.661
		c-0.054,3.575,0.064,7.153,0.101,10.73c0.053,5.395,0.188,10.79,0.114,16.185c-0.06,4.442-0.387,8.883-0.573,13.325
		c-0.223,5.265-0.594,10.529-0.586,15.795c0.009,6.488,0.372,12.979,0.516,19.472c0.073,3.295-0.063,6.595,0.007,9.89
		c0.086,3.979,0.35,7.949,0.426,11.926c0.047,2.334-0.225,4.676-0.161,7.009c0.078,2.892,0.782,5.828,0.441,8.651
		c-0.451,3.716,0.601,7.431-0.345,11.094c-0.085,0.332-0.17,0.761-0.034,1.035c1.565,3.152-0.713,5.68-1.326,8.474
		c-1.296,5.9-5.432,10.01-9.319,14.133c-2.254,2.391-5.286,4.079-8.075,5.92c-1.929,1.273-3.959,2.471-6.093,3.335
		c-2.803,1.141-5.743,1.942-8.64,2.846c-1.767,0.552-3.549,1.062-5.346,1.504c-0.763,0.187-1.579,0.146-2.371,0.214
		C510.334,442.534,510.332,442.501,510.33,442.467z M341.543,360.508c0.627,1.965,1.01,4.11,1.977,5.946
		c1.07,2.034,2.397,4.114,4.115,5.587c2.555,2.189,5.562,3.848,8.356,5.759c4.63,3.171,9.564,5.567,14.933,7.386
		c5.245,1.777,10.603,2.746,15.981,3.691c3.293,0.58,6.684,0.618,10.035,0.854c1.718,0.121,3.445,0.228,5.165,0.175
		c1.5-0.046,2.994-0.312,4.486-0.505c4.143-0.536,8.312-0.906,12.409-1.676c5.708-1.072,11.295-2.627,16.438-5.47
		c2.336-1.291,4.919-2.229,7.034-3.805c3.509-2.611,7.237-4.935,10.019-8.529c2.805-3.625,4.867-6.985,2.976-11.831
		c-2.112-5.412-7.61-6.376-11.194-4.408c-5.269,2.894-10.115,6.553-15.123,9.914c-1.974,1.323-3.84,2.771-6.368,2.967
		c-1.195,0.094-2.381,0.518-3.534,0.906c-1.984,0.674-3.926,2.004-5.908,2.047c-4.387,0.094-8.501,2.174-13.086,1.139
		c-4.069-0.922-8.287,0.467-12.599-0.629c-5.343-1.356-10.763-2.437-15.917-4.416c-2.757-1.061-5.229-2.607-7.231-4.979
		c-1.955-2.313-4.126-4.596-6.623-6.262c-2.364-1.577-5.259-2.378-7.95-3.443c-1.7-0.673-5.428,0.523-6.047,2.106
		C342.97,355.369,342.364,357.832,341.543,360.508z M346.714,309.598c3.719-0.227,7.563-0.361,10.965-2.805
		c4.292-3.085,7.57-6.732,7.865-12.266c0.138-2.541-0.228-5.111-0.088-7.655c0.227-4.168-1.515-7.553-4.325-10.252
		c-1.541-1.479-3.828-2.229-5.857-3.129c-0.961-0.427-2.103-0.496-3.173-0.611c-1.983-0.215-3.979-0.469-5.966-0.46
		c-1.108,0.005-2.218,0.501-3.324,0.78c-0.784,0.198-1.627,0.283-2.342,0.628c-5.851,2.825-8.491,7.912-9.751,13.964
		c-0.877,4.214,0.335,8.215,1.808,11.967C334.881,305.773,340.599,308.896,346.714,309.598z M469.944,293.013
		c-0.166-0.899-0.352-2.396-0.735-3.839c-0.542-2.035-1.044-4.119-1.919-6.018c-0.734-1.595-1.757-3.194-3.038-4.37
		c-2.816-2.579-6.4-3.84-10.109-4.252c-2.396-0.265-4.988-0.043-7.307,0.616c-2.047,0.581-3.904,1.966-5.716,3.188
		c-2.155,1.453-3.845,3.391-4.686,5.913c-0.638,1.92-1.172,3.875-1.704,5.827c-0.077,0.289,0.123,0.656,0.191,0.987
		c0.145,0.674,0.266,1.354,0.431,2.021c0.88,3.54,0.864,7.181,3.245,10.464c3.449,4.757,8.243,6.093,13.412,6.188
		c2.787,0.052,5.786-1.104,8.367-2.369C465.988,304.616,469.531,300.174,469.944,293.013z"/>
	<path fill="#FDD700" d="M351.343,117.388c3.134,0.055,6.269,0.108,9.402,0.166c1.336,0.024,2.673,0.084,4.01,0.082
		c3.838-0.008,7.677-0.083,11.513-0.046c3.475,0.034,6.945,0.245,10.421,0.269c8.718,0.058,17.438-0.096,26.151,0.115
		c8.905,0.217,17.801,0.79,26.705,1.16c5.217,0.219,10.439,0.291,15.656,0.53c3.907,0.18,7.82,0.403,11.707,0.834
		c1.953,0.217,3.121,1.471,4.239,3.34c3.029,5.071,2.179,10.572,2.354,15.912c0.168,5.072-0.38,10.167-0.619,15.252
		c-0.088,1.846-0.157,3.694-0.296,5.536c-0.191,2.588-0.546,2.876-3.22,2.963c-3.836,0.124-7.67,0.343-11.506,0.379
		c-3.337,0.033-6.675-0.201-10.013-0.186c-2.065,0.009-4.134,0.401-6.196,0.376c-2.546-0.032-5.101-0.237-7.632-0.514
		c-3.082-0.335-6.139-0.899-9.229-0.042c-0.521,0.145-1.156,0.004-1.713-0.12c-3.623-0.808-7.108,0.65-10.672,0.619
		c-2.639-0.022-5.274-0.254-7.91-0.393c-0.464-0.025-1.017-0.246-1.374-0.066c-2.171,1.091-4.192-0.084-6.285-0.261
		c-2.066-0.176-4.166,0.024-6.247-0.035c-4.265-0.125-8.526-0.407-12.792-0.445c-2.879-0.025-5.759,0.375-8.639,0.367
		c-3.733-0.008-7.468-0.229-11.2-0.364c-3.77-0.14-7.538-0.347-11.31-0.409c-3.324-0.054-6.651,0.112-9.976,0.057
		c-1.314-0.021-2.649-0.278-3.922-0.625c-0.476-0.13-1.076-0.775-1.152-1.258c-0.643-4.108-1.42-8.221-1.683-12.36
		c-0.357-5.602-0.317-11.229-0.398-16.846c-0.029-2.134-0.104-4.29,0.165-6.395c0.349-2.729,1.85-4.808,4.591-5.604
		C339.844,117.755,345.532,117.061,351.343,117.388z"/>
	<path fill="#FDD700" d="M304.53,461.228c3.211,0.058,6.458,0.177,9.704,0.155c3.191-0.021,6.384-0.185,9.574-0.275
		c5.352-0.155,10.703-0.273,16.054-0.466c2.966-0.104,5.932-0.536,8.889-0.459c5.445,0.146,10.881,0.639,16.327,0.833
		c2.787,0.102,5.584-0.147,8.379-0.2c5.181-0.097,10.362-0.265,15.543-0.224c9.121,0.071,18.241,0.341,27.362,0.396
		c3.766,0.021,7.53-0.339,11.299-0.444c1.734-0.049,3.477,0.117,5.217,0.149c6.335,0.115,12.672,0.311,19.008,0.304
		c7.854-0.009,15.708-0.226,23.562-0.277c4.533-0.031,9.066,0.049,13.6,0.151c1.879,0.043,2.569,1.063,2.449,2.91
		c-0.094,1.442,0.055,2.901,0.101,4.354c0.091,2.748,0.287,5.498,0.237,8.242c-0.032,1.734-1.347,2.534-4.347,2.648
		c-6.136,0.229-12.255,0.717-18.425,0.222c-3.905-0.312-7.873,0.157-11.812,0.292c-3.012,0.102-6.021,0.288-9.037,0.331
		c-3.482,0.05-6.973-0.115-10.456-0.004c-4.628,0.146-9.252,0.441-13.873,0.729c-3.182,0.196-6.352,0.588-9.535,0.702
		c-2.606,0.094-5.226-0.098-7.838-0.151c-3.252-0.068-6.503-0.151-9.755-0.185c-4.38-0.042-8.766-0.134-13.144-0.023
		c-2.542,0.063-5.074,0.48-7.609,0.747c-0.346,0.034-0.689,0.183-1.029,0.167c-4.009-0.193-8.015-0.433-12.021-0.602
		c-1.157-0.05-2.33,0.027-3.484,0.151c-2.939,0.32-5.893,1.063-8.802,0.915c-1.631-0.083-3.794,1.201-5.146-0.97
		c-0.125-0.201-0.767-0.135-1.161-0.108c-2.04,0.137-4.08,0.446-6.117,0.421c-2.901-0.036-5.801-0.382-8.703-0.471
		c-4.454-0.137-8.91-0.122-13.363-0.251c-3.882-0.11-7.76-0.304-11.638-0.517c-1.181-0.064-1.289-0.85-1.112-1.887
		c0.227-1.323,0.332-2.678,0.367-4.021c0.052-1.93-0.008-3.859-0.021-5.791c-0.006-1.073-0.046-2.149-0.01-3.225
		c0.02-0.63,0.13-1.26,0.247-1.881C304.159,462.812,304.356,462.02,304.53,461.228z"/>
	<path fill="#444444" d="M341.543,360.508c0.821-2.676,1.427-5.139,2.344-7.479c0.619-1.582,4.347-2.778,6.047-2.105
		c2.691,1.065,5.586,1.866,7.95,3.443c2.497,1.666,4.668,3.947,6.623,6.262c2.004,2.372,4.476,3.92,7.231,4.98
		c5.154,1.979,10.573,3.059,15.917,4.414c4.312,1.097,8.528-0.293,12.599,0.629c4.585,1.037,8.699-1.045,13.086-1.137
		c1.982-0.043,3.924-1.375,5.908-2.048c1.153-0.39,2.339-0.812,3.534-0.905c2.528-0.197,4.396-1.645,6.368-2.969
		c5.008-3.359,9.854-7.021,15.123-9.912c3.584-1.969,9.081-1.004,11.194,4.407c1.893,4.847-0.171,8.206-2.976,11.831
		c-2.78,3.596-6.51,5.918-10.019,8.529c-2.115,1.576-4.698,2.514-7.035,3.805c-5.144,2.842-10.729,4.396-16.438,5.469
		c-4.097,0.771-8.268,1.141-12.409,1.676c-1.492,0.193-2.987,0.459-4.487,0.506c-1.719,0.053-3.446-0.055-5.165-0.174
		c-3.352-0.235-6.741-0.273-10.034-0.854c-5.38-0.946-10.736-1.914-15.981-3.692c-5.367-1.816-10.303-4.215-14.933-7.385
		c-2.795-1.91-5.804-3.568-8.356-5.759c-1.718-1.472-3.045-3.554-4.115-5.587C342.553,364.618,342.17,362.473,341.543,360.508z"/>
	<path fill="#444444" d="M346.714,309.598c-6.115-0.699-11.833-3.824-14.188-9.839c-1.473-3.752-2.685-7.753-1.808-11.967
		c1.26-6.052,3.9-11.139,9.751-13.964c0.715-0.345,1.558-0.43,2.342-0.628c1.106-0.279,2.216-0.775,3.324-0.78
		c1.987-0.009,3.981,0.245,5.966,0.46c1.07,0.115,2.213,0.185,3.173,0.611c2.029,0.899,4.316,1.65,5.857,3.129
		c2.812,2.699,4.552,6.084,4.325,10.252c-0.14,2.544,0.226,5.114,0.088,7.655c-0.295,5.533-3.573,9.181-7.865,12.266
		C354.277,309.236,350.433,309.371,346.714,309.598z"/>
	<path fill="#444444" d="M469.944,293.013c-0.413,7.161-3.956,11.604-9.566,14.358c-2.581,1.266-5.58,2.421-8.367,2.369
		c-5.169-0.098-9.963-1.432-13.412-6.188c-2.381-3.283-2.365-6.924-3.245-10.464c-0.165-0.667-0.286-1.348-0.431-2.021
		c-0.067-0.331-0.27-0.698-0.191-0.987c0.532-1.952,1.066-3.907,1.704-5.827c0.841-2.522,2.529-4.46,4.686-5.913
		c1.812-1.223,3.669-2.607,5.716-3.188c2.317-0.659,4.909-0.881,7.307-0.616c3.71,0.412,7.294,1.673,10.109,4.252
		c1.281,1.176,2.304,2.775,3.038,4.37c0.875,1.898,1.377,3.982,1.919,6.018C469.594,290.617,469.778,292.113,469.944,293.013z"/>
</g>
</svg>
