<?xml version="1.0" encoding="utf-8"?>
<!-- Generator: Adobe Illustrator 16.0.0, SVG Export Plug-In . SVG Version: 6.00 Build 0)  -->
<!DOCTYPE svg PUBLIC "-//W3C//DTD SVG 1.1//EN" "http://www.w3.org/Graphics/SVG/1.1/DTD/svg11.dtd">
<svg version="1.1" id="Layer_1" xmlns="http://www.w3.org/2000/svg" xmlns:xlink="http://www.w3.org/1999/xlink" x="0px" y="0px"
	 width="800px" height="250px" viewBox="0 0 800 250" enable-background="new 0 0 800 250" xml:space="preserve">
<g>
	<path fill="#444444" d="M154.336,194.557c-1.375,0.009-2.75,0.053-4.125,0.089c-0.053,0.1-0.117,0.195-0.203,0.276
		c-0.221-0.03-0.372-0.131-0.494-0.262c-2.625,0.076-5.25,0.178-7.873,0.312c-1.924,0.099-3.836,0.427-5.754,0.651
		c-0.017-0.092-0.034-0.184-0.051-0.276c-1.773,0.466-3.574,0.851-5.309,1.435c-0.56,0.189-1.009,0.707-1.482,1.148
		c0.543,0.183,0.476,0.408,0.406,0.677c0.353,0.262,0.708,0.508,1.084,0.549c3.195,0.354,6.402,0.599,9.609,0.828
		c0.852,0.061,1.715-0.06,2.572-0.112c1.467-0.088,2.936-0.286,4.398-0.261c2.625,0.047,5.205,0.214,7.707-1.004
		c1.051-0.511,2.074-0.889,1.981-2.146C156.701,195.082,155.428,194.551,154.336,194.557z"/>
	<path fill="#444444" d="M121.915,169.159c2.972,0.031,5.946,0.041,8.919-0.026c-0.094-0.247,0.248-0.551,0.287-0.877
		c0.533,0.221,0.241,0.526,0.081,0.866c0.661-0.017,1.321-0.032,1.981-0.058c6.164-0.24,12.323-0.607,18.486-0.92
		c0.008,0.107,0.016,0.214,0.023,0.324c2.889-0.285,5.779-0.539,8.662-0.869c1.285-0.147,2.562-1.477,2.299-2.235
		c-0.6-1.719-1.721-2.468-3.639-2.539c-2.031-0.074-4.066-0.124-6.082-0.348c-2.871-0.316-5.721-1.086-8.586-1.113
		c-4.154-0.041-8.322,0.292-12.463,0.692c-2.764,0.27-5.48,1.01-8.238,1.383c-1.482,0.2-2.564,0.965-3.242,2.1
		c-0.48,0.799-0.635,1.943-0.51,2.877C119.941,168.76,121.204,169.154,121.915,169.159z M153.341,167.146
		c-0.162,0.455-0.473,0.761-1.111,0.74C152.058,167.098,152.759,167.182,153.341,167.146z"/>
	<path fill="#444444" d="M158.155,184.18c-0.262,0.047-0.485-0.261-0.499-0.566c-0.2-0.011-0.398-0.025-0.611-0.018
		c-2.326,0.086-4.668-0.413-7.008-0.597c-1.979-0.155-3.965-0.338-5.945-0.307c-2.233,0.033-4.471,0.502-6.691,0.413
		c-4.836-0.193-9.47,0.504-13.926,2.393c-1.213,0.514-2.254,1.18-1.955,2.71c0.314,1.593,1.758,2.538,3.318,2.453
		c1.32-0.07,2.651,0.046,3.976,0.016c0.763-0.018,1.528-0.265,2.284-0.226c1.066,0.057,2.122,0.389,3.186,0.409
		c1.004,0.018,2.008-0.266,3.018-0.329c4.432-0.281,8.869-0.488,13.299-0.813c2.229-0.163,4.463-0.414,6.655-0.831
		c2.019-0.386,4.411-0.112,5.644-2.679c-1.437-1.189-2.807-2.25-4.644-2.532C158.214,183.933,158.188,184.176,158.155,184.18z
		 M137.794,188.253c-0.056,0.095-1.188,1.62-1.488,0.372c-0.111-1.346,1.975-0.494,2.592-1.111
		C139.32,188.505,138.053,187.957,137.794,188.253z M155.193,185.293c-0.504-0.113-0.307-0.928-0.371-1.482
		C155.682,183.914,155.673,184.799,155.193,185.293z"/>
	<path fill="#444444" d="M184.098,81.123c-0.027-0.36-0.207-0.726-0.38-1.058c-1.238-2.403-3.021-4.679-3.606-7.23
		c-0.66-2.892-2.62-4.766-4.072-6.999c-1.533-2.358-3.613-4.371-5.529-6.467c-0.441-0.484-1.459-0.531-1.756-1.045
		c-1.729-2.984-4.299-4.671-7.602-5.402c-1.414-0.314-2.912-0.494-4.195-1.105c-2.545-1.209-5.107-1.691-7.938-1.566
		c-3.291,0.146-6.6-0.156-9.902-0.237c-3.615-0.089-7.188,0.27-10.625,1.418c-3.311,1.105-6.77,1.409-9.937,3.423
		c-4.726,3.002-8.558,6.741-11.952,11.059c-0.352,0.446-0.495,1.061-0.727,1.6c-0.586,1.377-0.979,2.881-1.789,4.107
		c-2.54,3.842-3.566,8.15-3.912,12.605c-0.246,3.187-0.25,6.438,0.098,9.611c0.403,3.676,0.318,7.527,2.032,10.924
		c2.743,5.439,5.599,10.826,8.581,16.138c1.551,2.763,3.492,5.333,3.809,8.601c0.309,3.18,0.77,6.389,0.611,9.559
		c-0.217,4.323-0.045,8.474,2.164,12.314c0.447,0.778,0.875,1.639,1.529,2.209c1.588,1.383,3.723,2.326,4.865,3.981
		c1.557,2.254,3.102,1.061,4.738,0.731c0.316-0.062,0.815-0.371,0.83-0.596c0.092-1.266,0.316-2.603,0.023-3.799
		c-0.846-3.466-2.127-6.832-2.849-10.319c-0.901-4.356-1.401-8.795-2.103-13.193c-0.398-2.493-0.867-4.977-1.281-7.468
		c-0.668-4.01-1.523-8.006-1.897-12.044c-0.208-2.251-0.226-4.807,2.243-6.279c0.182-0.107,0.291-0.382,0.473-0.431
		c0.91-0.231,1.839-0.603,2.75-0.578c2.27,0.066,3.145,1.827,4.023,3.578c0.349,0.693,0.951,1.26,1.764,2.303
		c0.898-3.141,1.387-5.88,4.676-6.672c3.561-0.857,4.843,1.525,6.289,4.418c1.277-2.241,2.232-4.42,4.877-4.573
		s4.197,1.577,5.652,3.246c0.981-0.649,1.895-1.279,2.832-1.869c1.699-1.066,4.881-0.134,5.73,1.679
		c0.746,1.595,1.025,3.229,0.574,4.99c-0.399,1.553-0.762,3.134-0.924,4.725c-0.192,1.901-0.029,3.841-0.238,5.739
		c-0.365,3.303-0.92,6.585-1.354,9.881c-0.463,3.507-0.979,7.011-1.289,10.532c-0.451,5.067-0.736,10.15-1.098,15.225
		c-0.07,1.006,0.203,1.792,1.371,1.684c1.38-0.128,2.75-0.377,4.113-0.635c0.331-0.063,0.781-0.297,0.895-0.568
		c0.721-1.725,1.593-3.433,1.979-5.238c0.719-3.349,1.01-6.789,1.708-10.144c1.157-5.558,2.493-11.078,3.755-16.616
		c0.061-0.256,0.074-0.549,0.208-0.762c1.437-2.272,2.878-4.542,4.353-6.791c0.874-1.334,1.838-2.607,2.709-3.94
		c1.746-2.675,4.178-5.017,4.666-8.339c0.538-3.663,0.811-7.367,1.235-11.049C185.82,89.881,184.423,85.552,184.098,81.123z
		 M119.271,91.229c-0.82,0.203-0.527-0.707-1.111-0.741C118.311,89.564,119.596,90.465,119.271,91.229z M138.528,83.82
		c0.089-0.954,0.637,0.51,1.481,0C139.676,85.061,139.181,84.145,138.528,83.82z M162.229,152.703
		c0.055-0.811,0.933-0.795,1.852-0.74C164.138,153.041,162.58,153.088,162.229,152.703z M167.044,106.781
		c0.597-0.104,0.637,0.351,1.111,0.371C168.301,107.871,166.468,107.693,167.044,106.781z M169.636,123.445
		C171.006,124.57,168.511,124.695,169.636,123.445L169.636,123.445z"/>
	<path fill="#444444" d="M134.883,157.753c5.236-1.417,10.473,0.268,15.713-0.026c0.422-0.024,0.871,0.359,1.303,0.561
		c1.283,0.598,2.004,0.249,2.121-1.124c0.133-1.55,0.169-3.106,0.229-4.66c0.08-2.092,0.018-4.197,0.236-6.272
		c0.643-6.077,1.393-12.145,2.105-18.213c0.387-3.318,0.744-6.642,1.191-9.951c0.351-2.607,0.867-5.19,1.211-7.798
		c0.09-0.684-0.187-1.415-0.295-2.124c-0.475,0.484-1.063,0.898-1.4,1.464c-1.293,2.167-2.795,3-4.91,1.872
		c-1.164-0.62-1.805-2.246-2.639-3.447c-0.262-0.376-0.387-0.846-0.727-1.619c-0.889,1.313-1.525,2.292-2.201,3.241
		c-0.926,1.298-2.024,2.062-3.804,1.833c-2.706-0.349-3.907-2.137-4.944-4.463c-0.333,0.65-0.283,1.367-0.549,1.936
		c-0.566,1.224-1.02,2.968-2.018,3.434c-2.361,1.104-7.102,0.299-8.324-2.821c-0.197-0.501-0.586-0.927-0.885-1.389
		c-0.186,0.035-0.371,0.069-0.557,0.104c0,1.491-0.121,2.995,0.027,4.472c0.261,2.6,0.607,5.196,1.059,7.771
		c0.978,5.576,1.996,11.145,3.09,16.699c0.898,4.567,1.869,9.123,2.926,13.657C133.37,153.15,134.16,155.357,134.883,157.753z
		 M157.415,120.114c-0.323,0.542-0.295,1.433-1.481,1.111C155.82,120.248,156.707,120.27,157.415,120.114z M149.268,138.631
		c-0.854,0.113-0.411-1.07-1.11-1.111C148.487,136.52,149.66,137.691,149.268,138.631z M148.157,133.816
		c0.455,0.161,0.76,0.474,0.74,1.11C147.613,135.252,147.627,134.357,148.157,133.816z M138.528,140.112c0,0.37,0,0.74,0,1.11
		c-0.526-0.031-1.049-0.061-1.111,0.371C136.304,141.041,137.689,139.934,138.528,140.112z"/>
	<path fill="#444444" d="M125.949,179.684c1.771-0.192,3.629-0.501,5.495-0.571c2.747-0.101,5.505,0.076,8.249-0.056
		c3.786-0.181,7.564-0.535,11.345-0.818c1.417-0.106,2.834-0.208,4.251-0.314c-0.037-0.254-0.065-0.517-0.096-0.777
		c0.349,0.15,0.589,0.409,0.771,0.727c1.503-0.114,3.005-0.232,4.506-0.369c0.705-0.064,1.715-0.195,1.359-1.28
		c-0.178-0.552-0.822-1.245-1.35-1.337c-2.908-0.508-5.832-1.015-8.771-1.203c-3.613-0.232-7.248-0.271-10.869-0.183
		c-6.471,0.161-12.959,0.365-19.23,2.194c-0.706,0.206-1.44,1.225-1.65,2.005c-0.328,1.21,0.762,1.469,1.717,1.573
		C123.057,179.427,124.441,179.542,125.949,179.684z"/>
</g>
<path fill-rule="evenodd" clip-rule="evenodd" fill="#444444" d="M698.969,118.812c-0.148-5.349-0.37-10.725-1.94-15.892
	c-0.749-2.485-1.979-4.829-2.743-7.312c-1.692-5.518-4.769-10.188-8.465-14.516c-1.637-1.922-2.537-1.939-4.406-0.275
	c-3.446,3.072-6.948,6.086-10.379,9.174c-2.016,1.816-3.955,3.73-5.958,5.629c0.472,0.65,0.786,1.107,1.124,1.545
	c1.628,2.098,3.795,3.975,4.771,6.343c1.845,4.472,3.287,9.159,4.372,13.876c1.53,6.652,1.085,13.366-0.653,19.961
	c-0.574,2.183-1.397,4.295-2.07,6.445c-0.596,1.918-0.93,3.942-1.756,5.75c-1.211,2.666-2.76,5.166-4.146,7.752
	c-0.682,1.269-1.174,2.658-1.994,3.824c-2.035,2.895-5.035,4.68-7.928,6.586c-5.468,3.605-11.219,6.38-17.912,6.818
	c-2.152,0.142-4.269,0.775-6.422,0.969c-2.15,0.197-4.5,0.688-6.463,0.079c-8.414-2.604-16.752-5.476-23.857-10.968
	c-1.934-1.498-4.136-2.779-5.703-4.601c-2.781-3.232-5.404-6.659-7.646-10.284c-1.523-2.461-2.471-5.34-3.342-8.134
	c-0.775-2.483-1.09-5.11-1.611-7.673c-0.607-2.996-1.516-5.957-0.982-9.071c0.291-1.693,0.553-3.396,0.956-5.069
	c0.747-3.122,1.322-6.32,2.459-9.303c1.106-2.896,3.003-5.485,4.243-8.346c2.206-5.096,6.145-8.553,10.523-11.611
	c2.596-1.814,5.334-3.428,7.984-5.167c2.979-1.956,6.237-3.234,9.707-3.964c1.658-0.346,3.924,1.575,3.269,2.766
	c-1.482,2.695-0.37,5.42-0.61,8.465c0.826-0.336,1.273-0.434,1.629-0.674c2.839-1.901,5.596-3.943,8.506-5.73
	c5.134-3.154,8.898-7.907,13.684-11.477c2.762-2.062,2.543-2.143,0.461-4.846c-4.042-5.256-9.304-9.172-14.35-13.328
	c-2.229-1.84-4.539-3.586-6.857-5.316c-0.706-0.527-1.53-0.932-2.359-1.229c-0.234-0.082-0.944,0.383-0.981,0.658
	c-0.155,1.209-0.454,2.529-0.128,3.642c0.462,1.577-0.326,2.716-0.824,3.944c-0.707,1.76-2.174,1.369-3.57,0.998
	c-0.209-0.059-0.456-0.028-0.668,0.023c-2.812,0.693-5.709,1.17-8.418,2.15c-5.779,2.088-11.4,4.553-16.123,8.64
	c-1.182,1.022-2.309,2.108-3.478,3.144c-2.858,2.543-5.915,4.885-8.532,7.646c-2.861,3.026-5.419,6.359-7.906,9.708
	c-1.658,2.229-3.111,4.64-4.381,7.116c-1.217,2.367-2.027,4.94-3.121,7.381c-3.037,6.791-5.168,13.871-5.584,21.284
	c-0.316,5.644,0.545,11.29,1.893,16.81c0.396,1.622,1.066,3.191,1.706,4.744c0.698,1.693,1.938,3.279,2.177,5.018
	c0.72,5.31,4.008,9.322,6.475,13.74c1.197,2.147,2.826,4.066,4.332,6.033c1.378,1.807,2.683,3.72,4.324,5.258
	c2.256,2.117,4.813,3.912,7.227,5.865c3.577,2.884,7.568,5.064,11.529,7.373c5.544,3.23,11.518,5.13,17.542,6.83
	c5.423,1.53,11.08,2.51,16.769,1.684c4.074-0.592,8.138-1.434,12.107-2.523c4.096-1.124,8.117-2.567,12.083-4.096
	c2.789-1.07,5.604-2.246,8.093-3.861c3.242-2.098,6.232-4.597,9.222-7.064c5.499-4.544,9.689-10.178,12.896-16.498
	c1.804-3.549,3.31-7.264,4.755-10.98c1.613-4.145,3.13-8.336,4.459-12.582c0.889-2.847,1.377-5.823,2.046-8.741
	c0.257-1.135,0.683-2.261,0.73-3.405C698.912,126.236,699.069,122.52,698.969,118.812z M568.485,158.258
	C570.09,158.412,568.095,160.408,568.485,158.258L568.485,158.258z M572.188,127.15c-0.806-0.775,0.186-1.057,0-2.222
	c1.183-0.317,1.146,0.582,1.853,0.74C573.563,126.303,573.273,127.125,572.188,127.15z M581.816,170.479
	c-0.203-0.821,0.708-0.526,0.74-1.111C583.48,169.52,582.58,170.805,581.816,170.479z M592.928,158.627
	c-0.774,0.159-0.98-0.253-1.482-0.369c-0.016-0.549,2.2-0.535,0.371-0.74c0.321-1.078,0.554-0.418,1.48-0.371
	C593.345,157.812,592.845,157.928,592.928,158.627z M600.704,185.664c-0.987-0.479-0.274-2.08-0.742-2.223
	c0.163-0.551,0.475,0.146,1.112,0C600.543,184.547,601.377,184.701,600.704,185.664z M610.702,190.848
	c0.058-0.059,0.468-0.592,0.741-0.371C612.301,191.178,609.453,192.096,610.702,190.848z M612.555,173.441
	c-0.892,0.152-0.805-0.676-1.853-0.371c-0.27-1.009,0.735-0.744,0.741-1.48C612.093,171.93,612.73,172.278,612.555,173.441z
	 M618.479,178.627c-0.852-0.292,0.638-1.295,0.74-1.852C620.378,177.373,618.46,177.947,618.479,178.627z M619.96,196.033
	c0.457,0.16,0.762,0.475,0.742,1.109C619.418,197.467,619.431,196.572,619.96,196.033z M658.105,187.885
	c0.009-1.016,1.747-0.879,2.222-0.371C660.113,188.736,658.93,188.045,658.105,187.885z M689.214,153.813
	c0.707,0.157,1.594,0.135,1.48,1.111C689.727,155.029,689.102,154.79,689.214,153.813z"/>
<g>
	<path fill="#444444" d="M382.958,147.146c-2.85-3.034-5.559-6.197-8.385-9.257c-1.051-1.139-1.996-1.021-3.094,0.072
		c-1.895,1.891-3.714,3.868-5.749,5.59c-5.253,4.447-9.577,9.757-14.228,14.781c-4.233,4.574-8.933,8.722-13.383,13.1
		c-0.8,0.787-1.389,1.79-2.286,2.972c8.735,0.632,13.067,5.527,14.692,13.882c12.1-12.754,23.844-25.135,36.111-38.066
		C385.308,149.125,384.005,148.261,382.958,147.146z M365.172,168.256c1.011,0.035,0.746-0.615,1.482,0
		C366.944,169.684,364.88,169.684,365.172,168.256z"/>
	<path fill="#444444" d="M424.954,99.578c-2.547-2.301-5.066-4.631-7.645-6.893c-0.252-0.22-0.943-0.214-1.26-0.025
		c-0.551,0.33-0.99,0.86-1.436,1.346c-2.207,2.419-4.322,4.928-6.617,7.258c-3.49,3.535-7.13,6.922-10.651,10.425
		c-2.33,2.321-2.29,2.364-0.163,4.825c0.035,0.039,0.064,0.088,0.104,0.128c3.504,3.62,6.992,7.253,10.541,10.826
		c0.271,0.276,1.188,0.346,1.461,0.114c2.152-1.849,4.279-3.73,6.297-5.719c3.436-3.385,6.766-6.877,10.178-10.281
		c1.811-1.805,3.707-3.523,6.105-5.793C429.491,103.656,427.216,101.623,424.954,99.578z M416.648,97.523
		c-0.048-0.664,0.453-0.781,0.369-1.48C417.787,96.414,418.034,97.68,416.648,97.523z M418.87,114.559
		c0.157,0.773-0.254,0.981-0.369,1.482c-1.322-0.314-0.046-0.913-0.371-2.223c0.633,0.016,0.958-0.275,1.111-0.74
		c0.485,0.131,0.582,0.652,1.11,0.74C420.107,114.314,419.561,114.508,418.87,114.559z"/>
	<path fill="#444444" d="M322.583,190.107c-0.54-0.031-0.437-0.707-0.364-1.35c-1.081-0.887-2.296-1.499-3.433-1.6
		c-1.201-0.105-2.271,0.041-2.591,1.738c-0.45,2.385-1.312,4.689-1.937,7.043c-0.232,0.873-0.297,1.787-0.524,3.197
		c0.48-0.133,0.937-0.258,1.405-0.386c0.195-0.186,0.3-0.45,0.037-0.866c0.593-0.05,0.944,0.142,1.066,0.562
		c2.976-0.815,5.742-1.571,8.477-2.405c0.396-0.122,0.793-0.999,0.795-1.524c0.003-1.56-0.939-3.36-2.269-4.792
		C322.904,189.732,322.627,189.803,322.583,190.107z"/>
	<path fill="#444444" d="M325.37,162.414c2.057,0.879,3.652,2.176,4.518,4.289c0.675,1.646,1.379,3.278,2.112,5.021
		c0.283-0.21,0.558-0.37,0.77-0.586c2.214-2.259,4.396-4.552,6.63-6.794c2.668-2.678,5.439-5.252,8.037-7.99
		c1.516-1.595,2.646-3.557,4.184-5.128c3.641-3.722,7.391-7.339,11.151-10.94c2.132-2.039,4.414-3.924,6.528-5.979
		c0.346-0.337,0.48-1.418,0.212-1.773c-1.954-2.571-3.964-5.111-6.108-7.523c-1.678-1.89-2.338-1.799-4.076-0.021
		c-1.689,1.728-3.375,3.46-5.07,5.182c0.644,0.261,0.59,1.217,1.657,1.055c0.177,1.164-0.528,1.446-0.741,2.221
		c-0.218-0.291-0.751-0.651-1.111-1.109c-0.262-0.335-0.663-0.729-0.72-1.24c-0.434,0.437-0.861,0.879-1.298,1.312
		c-3.343,3.312-6.752,6.559-10.102,9.865c-3.592,3.551-7.195,7.092-10.697,10.737c-2.197,2.288-4.18,4.777-6.305,7.137
		C323.729,161.493,323.7,161.699,325.37,162.414z M353.321,145.297c0.928,0,0.07,0.619-1.111,0
		C352.174,143.428,352.565,145.297,353.321,145.297z M342.211,156.777c0.808-0.067,1.179,0.304,1.112,1.111
		c-0.371,0-0.742,0-1.112,0C342.211,157.518,342.211,157.146,342.211,156.777z"/>
	<path fill="#444444" d="M416.083,85.279c3.143,3.039,6.113,6.256,9.227,9.324c2.291,2.264,4.586,4.553,7.107,6.536
		c0.766,0.604,1.781,2.513,3.236,1.026c3.414-3.484,6.688-7.102,10.053-10.629c0.881-0.922,0.768-1.74-0.009-2.559
		c-3.101-3.281-6.194-6.57-9.345-9.805c-3.592-3.686-7.24-7.32-10.87-10.973c-1.673-1.688-3.363-3.365-5.177-5.178
		c-4.883,4.514-9.494,8.775-14.234,13.16c0.791,0.725,1.266,1.162,1.744,1.598C410.577,80.275,413.409,82.695,416.083,85.279z
		 M440.35,85.673c-0.07,0.421-0.371,0.206-0.37,0c-0.314-0.067-0.349,0.146-0.371,0.37c-0.402-0.092-0.251-0.736-0.74-0.74
		C439.232,84.168,439.855,85.729,440.35,85.673z M428.129,85.303c0.37,0,0.741,0,1.11,0c0.174,0.791-0.529,0.705-1.11,0.74
		c0,0.371,0,0.74,0,1.111C427.262,87.06,427.915,85.527,428.129,85.303z"/>
	<path fill="#444444" d="M390.882,108.906c0.771,0.795,1.518,1.461,2.623,0.431c1.15-1.071,2.441-2.001,3.539-3.12
		c2.145-2.184,4.186-4.463,6.297-6.682c2.943-3.093,5.943-6.125,8.838-9.261c1.359-1.476,1.256-1.802-0.289-3.213
		c-2.344-2.14-4.688-4.282-7.062-6.388c-0.52-0.463-1.167-0.781-1.787-1.189c-0.785,0.565-1.569,0.996-2.179,1.602
		c-2.483,2.466-4.935,4.961-7.353,7.49c-3.213,3.359-6.428,6.715-9.541,10.16c-1.259,1.393-1.045,2.062,0.271,3.373
		C386.485,104.343,388.673,106.635,390.882,108.906z"/>
	<path fill="#444444" d="M336.507,178.857c-1.938-0.037-3.907-0.449-5.719,0.953c-0.463,0.363-1.896-0.098-2.613-0.584
		c-0.845-0.578-1.623-1.443-1.161-2.79c0.28-0.821,0.39-1.754,0.344-2.627c-0.049-0.906-0.489-1.787-0.56-2.696
		c-0.221-2.902-2.09-5.014-5.292-5.574c-0.007,0.031-0.015,0.062-0.021,0.094c0.04,0.337-0.055,0.809-0.012,1.143
		c-0.084-0.041-0.148-0.103-0.216-0.161c-1.197,5.168-2.394,10.332-3.531,15.241c2.009,0.881,3.801,1.443,5.357,2.391
		c3.289,2.008,6.221,4.389,6.494,8.697c0.006,0.109,0.031,0.218,0.061,0.324c0.232,0.881,0.62,1.197,1.664,0.961
		c2.774-0.635,5.591-1.069,8.391-1.588c2.184-0.406,4.366-0.818,7.009-1.312c-0.782-2.789-1.191-5.338-2.216-7.606
		C342.999,180.432,340.081,178.93,336.507,178.857z M323.323,171.221c-0.475-0.488-0.475-1.365,0-1.853
		C325.05,169.375,325.05,171.213,323.323,171.221z"/>
	<path fill="#444444" d="M457.13,169.704c-1.129-2.641-2.293-5.273-3.609-7.823c-0.951-1.845-2.016-3.672-3.299-5.297
		c-2.385-3.028-5.525-5.094-9.064-6.637c-4.33-1.887-8.477-2.051-12.502,0.706c-1.955,1.339-4.213,1.31-5.422-0.012
		c-1.959-2.132-3.951-4.226-5.928-6.341c-2.83-3.032-5.666-6.064-8.484-9.105c-2.604-2.805-5.143-5.671-7.805-8.418
		c-2.32-2.396-4.811-4.627-7.16-6.998c-0.963-0.967-1.744-2.115-2.609-3.182c-1.949-2.402-3.814-4.879-5.873-7.184
		c-1.786-1.998-3.893-3.711-5.684-5.705c-2.854-3.177-5.497-6.551-8.375-9.711c-1.402-1.541-3.041-2.92-4.735-4.141
		c-2.075-1.494-3.319-4.287-2.396-6.178c0.38-0.775,1.186-1.428,1.33-2.221c0.553-3.086,0.352-6.127-0.35-9.24
		c-1.398-6.23-4.359-11.513-8.643-16.162c-3.26-3.535-7.426-5.201-12.021-5.951c-1.332-0.215-2.729-0.035-4.093-0.035
		c2.31,3.559,4.458,6.963,6.709,10.303c1.983,2.949,1.71,6.321,1.327,9.439c-0.406,3.318-1.869,6.5-2.787,9.764
		c-0.438,1.549-1.529,2.393-2.887,2.895c-2.955,1.091-5.957,1.164-9.051,0.414c-1.891-0.459-3.939-0.938-5.813-0.672
		c-3.558,0.504-5.72-0.848-7.233-3.906c-0.721-1.463-1.627-2.859-2.607-4.166c-0.926-1.229-2.061-2.298-3.104-3.436
		c-0.224,0.064-0.447,0.131-0.67,0.195c-0.086,1.316-0.27,2.635-0.227,3.947c0.045,1.402,0.258,2.803,0.48,4.193
		c0.725,4.635,2.449,8.881,5.59,12.377c1.812,2.021,3.993,3.721,6.068,5.498c5.158,4.424,11.01,4.77,17.276,2.953
		c0.82-0.234,2.118-0.061,2.731,0.467c1.434,1.232,2.6,2.781,3.846,4.225c1.878,2.174,3.644,4.451,5.615,6.53
		c2.867,3.021,5.898,5.879,8.814,8.853c1.578,1.604,3.284,3.149,4.547,4.986c2.98,4.337,6.626,8.08,10.175,11.91
		c2.844,3.068,5.767,6.063,8.636,9.105c0.146-0.161,0.442-0.453,0.658-0.278c0.327,0.267,0.113,0.565-0.205,0.764
		c0.654,0.696,1.31,1.392,1.955,2.095c2.869,3.121,5.57,6.396,8.4,9.557c2.373,2.648,4.787,5.26,7.252,7.823
		c1.25,1.302,2.512,2.675,4.014,3.628c1.344,0.854,1.615,2.044,1.703,3.295c0.102,1.375-0.318,2.785-0.234,4.161
		c0.336,5.524,1.804,10.685,5.457,14.996c2.119,2.499,4.432,4.794,7.768,5.685c2.068,0.553,4.093,1.298,6.18,1.764
		c1.547,0.346,3.162,0.389,4.748,0.566c0.08-0.203,0.162-0.405,0.244-0.611c-2.342-2.352-4.82-4.586-6.977-7.096
		c-1.172-1.369-2.293-3.123-2.576-4.846c-0.684-4.105,0.018-8.234,0.777-12.309c0.297-1.598,1.066-2.918,1.916-4.334
		c1.129-1.877,2.592-1.758,4.18-1.987c0.377-0.054,0.736-0.233,1.111-0.293c3.463-0.544,6.916-1.193,10.4-1.542
		c1.096-0.109,2.561,0.273,3.361,0.988c2.33,2.07,4.422,4.41,6.588,6.66c0.967,1.006,1.885,2.055,2.824,3.086
		c0.211-0.118,0.42-0.236,0.629-0.354c-0.172-1.754-0.332-3.51-0.518-5.262C457.413,171.295,457.438,170.426,457.13,169.704z
		 M338.878,91.229c0.23-0.281,1.547-0.684,1.481,0.74C339.349,92.238,339.614,91.232,338.878,91.229z M349.618,60.861
		c0.836,0.246,1.854,1.112,1.11,1.852C349.429,62.549,349.159,61.932,349.618,60.861z M349.988,79.747
		c0.091-0.401,0.736-0.251,0.74-0.74c0.978-0.112,0.955,0.772,1.111,1.481C350.659,80.805,350.434,80.166,349.988,79.747z
		 M351.469,96.412c0.057-0.102,0.798-0.684,1.112-0.369C352.854,96.316,351.079,97.139,351.469,96.412z M363.321,83.82
		c1.299,0.23,0.328,1.549-0.741,1.482C362.309,84.292,363.315,84.558,363.321,83.82z M365.912,103.078c-0.494,0-0.987,0-1.481,0
		c-0.616-0.735,0.034-0.471,0-1.48c-0.859,0.117-1.421-0.061-1.851-0.371c0.456-1.125,1.272,0.402,2.222,0
		C364.917,102.101,366.088,101.916,365.912,103.078z M373.319,122.336C374.925,122.49,372.929,124.485,373.319,122.336
		L373.319,122.336z M384.8,130.854c-0.12-0.271,1.235-0.616,1.481-0.371C386.439,130.642,385.299,131.547,384.8,130.854z
		 M388.503,136.039c0.196-0.298,0.386-0.602,0.369-1.112c0.457,0.163,0.762,0.475,0.741,1.112
		C389.243,136.039,388.872,136.039,388.503,136.039z M395.169,125.299c-0.155,0.154-0.44-0.926-0.741-0.74
		C395.061,123.293,395.456,125.012,395.169,125.299z M395.91,136.408c0.807-0.066,1.178,0.304,1.109,1.111
		C396.213,137.586,395.842,137.217,395.91,136.408z M398.132,154.184c0.444,0.488,0.145,0.584,0,1.111
		C397.269,155.187,397.269,154.293,398.132,154.184c-0.158-0.705-1.059-0.669-0.741-1.852c0.36,0.012,0.288,0.454,0.37,0.742
		c0.922-0.041,1.146-0.694,1.852,0C399.509,153.835,398.624,153.813,398.132,154.184z M409.612,163.072
		c-1.19,0.326-0.508-1.221-1.482-1.111c0.035-1.381,1.447-0.024,1.482-0.739C410.438,161.276,409.131,162.154,409.612,163.072z
		 M411.463,166.775c-0.303-0.316-0.803-0.428-0.74-1.11c1.3-1.112,1.807,0.936,1.852,2.222
		C412.222,167.396,411.854,167.185,411.463,166.775z M414.796,184.922c-0.645-0.334-1.426-0.828-0.74-1.48
		C414.708,183.53,414.899,184.076,414.796,184.922z M418.87,150.481c0.371,0,0.74,0,1.111,0c-0.011,0.36-0.454,0.288-0.74,0.37
		c0.01,0.359,0.453,0.287,0.74,0.371c-0.196,0.297-0.386,0.602-0.371,1.109C418.802,152.279,418.815,151.399,418.87,150.481z
		 M418.87,179.367c0.227-0.909,2.369-1.804,2.222,0C420.317,180.174,420.035,179.182,418.87,179.367z M421.092,187.514
		c-0.976,0.111-1.214-0.512-1.11-1.48C420.979,186.059,421.762,186.879,421.092,187.514z M421.092,173.441
		c-0.113-0.448,1.07-1.276,1.111-0.371c-0.068,0.316,0.145,0.352,0.37,0.371C422.517,174.363,421.319,173.551,421.092,173.441z
		 M430.721,194.551c0.55,0.314,0.796,0.932,0.74,1.854C430.217,196.783,430.886,195.25,430.721,194.551z M441.09,156.777
		c0.402,0.091,0.252,0.736,0.742,0.74C441.672,158.543,440.666,157.537,441.09,156.777z M443.683,153.074c0.371,0,0.74,0,1.11,0
		c-0.032,0.525-0.062,1.047,0.37,1.109C444.734,155.174,443.198,154.217,443.683,153.074z"/>
	<path fill="#444444" d="M453.313,54.822c-0.617-0.354-1.264-0.666-1.859-1.055c-6.119-4.027-12.336-4.461-18.644-0.479
		c-1.062,0.675-1.987,1.568-2.989,2.34c-1.688,1.299-3.424,2.543-5.049,3.916c-0.275,0.23-0.326,1.148-0.092,1.479
		c0.654,0.936,1.486,1.756,2.291,2.578c0.927,0.946,1.857,1.888,2.784,2.834c0.016-0.048,0.074-0.068,0.224-0.02
		c-0.003-0.001,0.154,0.238,0.274,0.525c3.456,3.528,6.911,7.059,10.384,10.568c2.688,2.715,5.506,5.304,8.096,8.108
		c1.227,1.331,1.848,0.796,2.729-0.214c2.891-3.315,4.361-7.311,5.477-11.453c0.699-2.6,1.176-5.254,1.695-7.629
		c-0.254-1.26-0.402-2.234-0.66-3.18C457.126,59.98,456.526,56.666,453.313,54.822z"/>
</g>
</svg>
