<?xml version="1.0" encoding="utf-8"?>
<!-- Generator: Adobe Illustrator 16.0.0, SVG Export Plug-In . SVG Version: 6.00 Build 0)  -->
<!DOCTYPE svg PUBLIC "-//W3C//DTD SVG 1.1//EN" "http://www.w3.org/Graphics/SVG/1.1/DTD/svg11.dtd">
<svg version="1.1" id="Layer_1" xmlns="http://www.w3.org/2000/svg" xmlns:xlink="http://www.w3.org/1999/xlink" x="0px" y="0px"
	 width="800px" height="600px" viewBox="0 0 800 600" enable-background="new 0 0 800 600" xml:space="preserve">
<g>
	<path fill="#444444" d="M154.336,369.557c-1.375,0.01-2.75,0.053-4.125,0.09c-0.053,0.1-0.117,0.194-0.203,0.275
		c-0.221-0.029-0.372-0.131-0.494-0.262c-2.625,0.076-5.25,0.178-7.873,0.312c-1.924,0.098-3.836,0.426-5.754,0.65
		c-0.017-0.092-0.034-0.184-0.051-0.275c-1.773,0.465-3.574,0.851-5.309,1.435c-0.56,0.188-1.009,0.707-1.482,1.147
		c0.543,0.184,0.476,0.408,0.406,0.678c0.353,0.262,0.708,0.508,1.084,0.549c3.195,0.354,6.402,0.599,9.609,0.828
		c0.852,0.061,1.715-0.061,2.572-0.112c1.467-0.088,2.936-0.286,4.398-0.261c2.625,0.047,5.205,0.214,7.707-1.004
		c1.051-0.512,2.074-0.889,1.981-2.146C156.701,370.082,155.428,369.551,154.336,369.557z"/>
	<path fill="#444444" d="M121.915,344.159c2.972,0.03,5.946,0.041,8.919-0.026c-0.094-0.247,0.248-0.551,0.287-0.877
		c0.533,0.221,0.241,0.526,0.081,0.866c0.661-0.017,1.321-0.032,1.981-0.058c6.164-0.24,12.323-0.607,18.486-0.92
		c0.008,0.106,0.016,0.213,0.023,0.323c2.889-0.284,5.779-0.539,8.662-0.868c1.285-0.147,2.562-1.478,2.299-2.236
		c-0.6-1.719-1.721-2.467-3.639-2.538c-2.031-0.074-4.066-0.124-6.082-0.349c-2.871-0.315-5.721-1.086-8.586-1.113
		c-4.154-0.04-8.322,0.293-12.463,0.693c-2.764,0.27-5.48,1.01-8.238,1.383c-1.482,0.199-2.564,0.965-3.242,2.1
		c-0.48,0.799-0.635,1.943-0.51,2.877C119.941,343.76,121.204,344.154,121.915,344.159z M153.341,342.146
		c-0.162,0.455-0.473,0.761-1.111,0.739C152.058,342.098,152.759,342.182,153.341,342.146z"/>
	<path fill="#444444" d="M158.155,359.18c-0.262,0.047-0.485-0.261-0.499-0.566c-0.2-0.01-0.398-0.024-0.611-0.018
		c-2.326,0.086-4.668-0.412-7.008-0.597c-1.979-0.155-3.965-0.338-5.945-0.308c-2.233,0.033-4.471,0.502-6.691,0.414
		c-4.836-0.193-9.47,0.504-13.926,2.393c-1.213,0.514-2.254,1.18-1.955,2.71c0.314,1.593,1.758,2.538,3.318,2.453
		c1.32-0.07,2.651,0.046,3.976,0.016c0.763-0.018,1.528-0.265,2.284-0.226c1.066,0.057,2.122,0.389,3.186,0.408
		c1.004,0.019,2.008-0.266,3.018-0.328c4.432-0.281,8.869-0.488,13.299-0.813c2.229-0.163,4.463-0.414,6.655-0.831
		c2.019-0.386,4.411-0.111,5.644-2.679c-1.437-1.188-2.807-2.25-4.644-2.532C158.214,358.934,158.188,359.176,158.155,359.18z
		 M137.794,363.253c-0.056,0.095-1.188,1.62-1.488,0.372c-0.111-1.346,1.975-0.494,2.592-1.111
		C139.32,363.505,138.053,362.957,137.794,363.253z M155.193,360.293c-0.504-0.113-0.307-0.928-0.371-1.482
		C155.682,358.914,155.673,359.799,155.193,360.293z"/>
	<path fill="#444444" d="M184.098,256.123c-0.027-0.36-0.207-0.726-0.38-1.058c-1.238-2.403-3.021-4.679-3.606-7.23
		c-0.66-2.892-2.62-4.766-4.072-6.999c-1.533-2.358-3.613-4.371-5.529-6.467c-0.441-0.484-1.459-0.531-1.756-1.045
		c-1.729-2.984-4.299-4.671-7.602-5.402c-1.414-0.314-2.912-0.494-4.195-1.105c-2.545-1.209-5.107-1.691-7.938-1.566
		c-3.291,0.146-6.6-0.156-9.902-0.237c-3.615-0.089-7.188,0.27-10.625,1.418c-3.311,1.105-6.77,1.409-9.937,3.423
		c-4.726,3.002-8.558,6.741-11.952,11.059c-0.352,0.446-0.495,1.061-0.727,1.6c-0.586,1.377-0.979,2.881-1.789,4.107
		c-2.54,3.842-3.566,8.15-3.912,12.605c-0.246,3.187-0.25,6.438,0.098,9.611c0.403,3.676,0.318,7.527,2.032,10.924
		c2.743,5.439,5.599,10.826,8.581,16.138c1.551,2.763,3.492,5.333,3.809,8.601c0.309,3.18,0.77,6.389,0.611,9.559
		c-0.217,4.323-0.045,8.475,2.164,12.314c0.447,0.777,0.875,1.639,1.529,2.209c1.588,1.383,3.723,2.326,4.865,3.98
		c1.557,2.254,3.102,1.062,4.738,0.731c0.316-0.062,0.815-0.371,0.83-0.596c0.092-1.267,0.316-2.603,0.023-3.8
		c-0.846-3.465-2.127-6.832-2.849-10.318c-0.901-4.355-1.401-8.795-2.103-13.193c-0.398-2.492-0.867-4.977-1.281-7.468
		c-0.668-4.01-1.523-8.006-1.897-12.044c-0.208-2.251-0.226-4.807,2.243-6.279c0.182-0.107,0.291-0.382,0.473-0.431
		c0.91-0.231,1.839-0.603,2.75-0.578c2.27,0.066,3.145,1.827,4.023,3.578c0.349,0.693,0.951,1.26,1.764,2.303
		c0.898-3.141,1.387-5.88,4.676-6.672c3.561-0.857,4.843,1.525,6.289,4.418c1.277-2.241,2.232-4.42,4.877-4.573
		s4.197,1.577,5.652,3.246c0.981-0.649,1.895-1.279,2.832-1.869c1.699-1.066,4.881-0.134,5.73,1.679
		c0.746,1.595,1.025,3.229,0.574,4.99c-0.399,1.553-0.762,3.134-0.924,4.725c-0.192,1.901-0.029,3.841-0.238,5.739
		c-0.365,3.303-0.92,6.585-1.354,9.881c-0.463,3.507-0.979,7.011-1.289,10.532c-0.451,5.066-0.736,10.149-1.098,15.225
		c-0.07,1.006,0.203,1.792,1.371,1.684c1.38-0.127,2.75-0.377,4.113-0.635c0.331-0.062,0.781-0.297,0.895-0.568
		c0.721-1.725,1.593-3.433,1.979-5.237c0.719-3.349,1.01-6.789,1.708-10.144c1.157-5.559,2.493-11.078,3.755-16.617
		c0.061-0.256,0.074-0.549,0.208-0.762c1.437-2.272,2.878-4.542,4.353-6.791c0.874-1.334,1.838-2.607,2.709-3.94
		c1.746-2.675,4.178-5.017,4.666-8.339c0.538-3.663,0.811-7.367,1.235-11.049C185.82,264.881,184.423,260.552,184.098,256.123z
		 M119.271,266.229c-0.82,0.203-0.527-0.707-1.111-0.741C118.311,264.564,119.596,265.465,119.271,266.229z M138.528,258.82
		c0.089-0.954,0.637,0.51,1.481,0C139.676,260.061,139.181,259.145,138.528,258.82z M162.229,327.703
		c0.055-0.811,0.933-0.795,1.852-0.74C164.138,328.041,162.58,328.088,162.229,327.703z M167.044,281.781
		c0.597-0.104,0.637,0.351,1.111,0.371C168.301,282.871,166.468,282.693,167.044,281.781z M169.636,298.445
		C171.006,299.57,168.511,299.695,169.636,298.445L169.636,298.445z"/>
	<path fill="#444444" d="M134.883,332.753c5.236-1.417,10.473,0.269,15.713-0.026c0.422-0.023,0.871,0.359,1.303,0.562
		c1.283,0.598,2.004,0.249,2.121-1.124c0.133-1.55,0.169-3.105,0.229-4.66c0.08-2.092,0.018-4.197,0.236-6.271
		c0.643-6.078,1.393-12.146,2.105-18.213c0.387-3.318,0.744-6.643,1.191-9.952c0.351-2.607,0.867-5.19,1.211-7.798
		c0.09-0.684-0.187-1.415-0.295-2.124c-0.475,0.484-1.063,0.898-1.4,1.464c-1.293,2.167-2.795,3-4.91,1.872
		c-1.164-0.62-1.805-2.246-2.639-3.447c-0.262-0.376-0.387-0.846-0.727-1.619c-0.889,1.313-1.525,2.292-2.201,3.241
		c-0.926,1.298-2.024,2.062-3.804,1.833c-2.706-0.349-3.907-2.137-4.944-4.463c-0.333,0.65-0.283,1.367-0.549,1.936
		c-0.566,1.224-1.02,2.968-2.018,3.434c-2.361,1.104-7.102,0.299-8.324-2.821c-0.197-0.501-0.586-0.927-0.885-1.389
		c-0.186,0.035-0.371,0.069-0.557,0.104c0,1.491-0.121,2.995,0.027,4.472c0.261,2.6,0.607,5.196,1.059,7.771
		c0.978,5.575,1.996,11.146,3.09,16.698c0.898,4.567,1.869,9.123,2.926,13.658C133.37,328.15,134.16,330.357,134.883,332.753z
		 M157.415,295.114c-0.323,0.542-0.295,1.433-1.481,1.111C155.82,295.248,156.707,295.27,157.415,295.114z M149.268,313.631
		c-0.854,0.113-0.411-1.07-1.11-1.111C148.487,311.52,149.66,312.691,149.268,313.631z M148.157,308.816
		c0.455,0.16,0.76,0.474,0.74,1.109C147.613,310.252,147.627,309.357,148.157,308.816z M138.528,315.111c0,0.371,0,0.74,0,1.111
		c-0.526-0.031-1.049-0.062-1.111,0.37C136.304,316.041,137.689,314.934,138.528,315.111z"/>
	<path fill="#444444" d="M125.949,354.684c1.771-0.191,3.629-0.5,5.495-0.57c2.747-0.102,5.505,0.076,8.249-0.057
		c3.786-0.181,7.564-0.535,11.345-0.818c1.417-0.105,2.834-0.207,4.251-0.313c-0.037-0.254-0.065-0.517-0.096-0.776
		c0.349,0.149,0.589,0.408,0.771,0.727c1.503-0.114,3.005-0.232,4.506-0.369c0.705-0.064,1.715-0.195,1.359-1.279
		c-0.178-0.553-0.822-1.246-1.35-1.338c-2.908-0.508-5.832-1.015-8.771-1.203c-3.613-0.231-7.248-0.271-10.869-0.183
		c-6.471,0.161-12.959,0.365-19.23,2.194c-0.706,0.205-1.44,1.225-1.65,2.005c-0.328,1.21,0.762,1.469,1.717,1.573
		C123.057,354.427,124.441,354.542,125.949,354.684z"/>
</g>
<path fill="#444444" d="M698.969,293.812c-0.147-5.349-0.37-10.725-1.939-15.892c-0.749-2.485-1.979-4.829-2.743-7.312
	c-1.692-5.518-4.77-10.188-8.465-14.516c-1.638-1.922-2.537-1.939-4.406-0.275c-3.446,3.072-6.948,6.086-10.379,9.174
	c-2.017,1.816-3.955,3.73-5.958,5.629c0.472,0.65,0.786,1.107,1.124,1.545c1.628,2.098,3.795,3.975,4.771,6.343
	c1.846,4.472,3.287,9.159,4.372,13.876c1.53,6.652,1.085,13.366-0.652,19.962c-0.574,2.182-1.397,4.295-2.07,6.444
	c-0.596,1.918-0.93,3.942-1.756,5.75c-1.211,2.666-2.761,5.166-4.146,7.752c-0.682,1.269-1.174,2.658-1.994,3.824
	c-2.034,2.896-5.034,4.68-7.928,6.586c-5.468,3.604-11.219,6.38-17.912,6.817c-2.151,0.143-4.269,0.775-6.422,0.97
	c-2.149,0.196-4.5,0.688-6.463,0.079c-8.414-2.604-16.752-5.477-23.857-10.969c-1.934-1.498-4.136-2.778-5.702-4.601
	c-2.781-3.231-5.404-6.659-7.646-10.284c-1.523-2.461-2.471-5.34-3.342-8.134c-0.775-2.483-1.09-5.11-1.611-7.673
	c-0.606-2.996-1.516-5.957-0.981-9.071c0.291-1.693,0.553-3.396,0.956-5.069c0.746-3.122,1.321-6.32,2.459-9.303
	c1.105-2.896,3.003-5.485,4.242-8.346c2.206-5.096,6.146-8.553,10.523-11.611c2.596-1.814,5.334-3.428,7.984-5.167
	c2.979-1.956,6.236-3.234,9.707-3.964c1.657-0.346,3.924,1.575,3.269,2.766c-1.482,2.695-0.37,5.42-0.61,8.465
	c0.826-0.336,1.273-0.434,1.629-0.674c2.84-1.901,5.597-3.943,8.507-5.73c5.134-3.154,8.897-7.907,13.684-11.477
	c2.762-2.062,2.543-2.143,0.461-4.846c-4.042-5.256-9.304-9.172-14.35-13.328c-2.229-1.84-4.539-3.586-6.857-5.316
	c-0.706-0.527-1.53-0.932-2.358-1.229c-0.234-0.082-0.944,0.383-0.981,0.658c-0.155,1.209-0.454,2.529-0.128,3.642
	c0.462,1.577-0.326,2.716-0.824,3.944c-0.707,1.76-2.174,1.369-3.57,0.998c-0.209-0.059-0.455-0.028-0.668,0.023
	c-2.812,0.693-5.709,1.17-8.418,2.15c-5.778,2.088-11.399,4.553-16.123,8.64c-1.182,1.022-2.309,2.108-3.478,3.144
	c-2.858,2.543-5.915,4.885-8.532,7.646c-2.861,3.026-5.419,6.359-7.906,9.708c-1.657,2.229-3.11,4.64-4.381,7.116
	c-1.217,2.367-2.026,4.94-3.121,7.381c-3.037,6.791-5.168,13.871-5.584,21.284c-0.315,5.645,0.545,11.29,1.894,16.811
	c0.396,1.621,1.065,3.19,1.706,4.744c0.697,1.692,1.938,3.278,2.177,5.018c0.72,5.311,4.008,9.322,6.475,13.74
	c1.197,2.146,2.826,4.066,4.332,6.033c1.378,1.807,2.684,3.72,4.324,5.258c2.256,2.117,4.813,3.912,7.228,5.865
	c3.576,2.883,7.567,5.063,11.528,7.373c5.544,3.229,11.519,5.129,17.542,6.829c5.423,1.53,11.08,2.511,16.77,1.685
	c4.073-0.592,8.138-1.435,12.106-2.523c4.097-1.124,8.117-2.566,12.083-4.096c2.789-1.07,5.604-2.246,8.093-3.861
	c3.242-2.098,6.232-4.597,9.223-7.064c5.499-4.543,9.688-10.178,12.896-16.498c1.805-3.549,3.311-7.264,4.755-10.979
	c1.613-4.146,3.13-8.336,4.459-12.582c0.89-2.847,1.377-5.823,2.046-8.741c0.258-1.135,0.684-2.261,0.73-3.404
	C698.912,301.236,699.069,297.52,698.969,293.812z M568.485,333.258C570.09,333.412,568.095,335.408,568.485,333.258
	L568.485,333.258z M572.188,302.15c-0.806-0.775,0.187-1.058,0-2.222c1.184-0.317,1.146,0.582,1.854,0.74
	C573.562,301.303,573.273,302.125,572.188,302.15z M581.816,345.479c-0.203-0.82,0.708-0.525,0.739-1.11
	C583.48,344.52,582.58,345.805,581.816,345.479z M592.928,333.627c-0.773,0.159-0.979-0.253-1.481-0.369
	c-0.017-0.549,2.2-0.535,0.371-0.74c0.32-1.078,0.554-0.418,1.479-0.371C593.345,332.812,592.845,332.928,592.928,333.627z
	 M600.704,360.664c-0.987-0.479-0.274-2.08-0.742-2.223c0.163-0.551,0.475,0.146,1.112,0
	C600.543,359.547,601.377,359.701,600.704,360.664z M610.702,365.848c0.058-0.059,0.468-0.592,0.741-0.371
	C612.301,366.178,609.453,367.096,610.702,365.848z M612.555,348.441c-0.892,0.151-0.805-0.676-1.853-0.371
	c-0.271-1.01,0.734-0.744,0.741-1.48C612.093,346.93,612.73,347.277,612.555,348.441z M618.479,353.627
	c-0.852-0.292,0.639-1.295,0.74-1.852C620.378,352.373,618.46,352.947,618.479,353.627z M619.96,371.033
	c0.457,0.16,0.762,0.475,0.742,1.109C619.418,372.467,619.431,371.572,619.96,371.033z M658.105,362.885
	c0.009-1.016,1.746-0.879,2.222-0.371C660.113,363.736,658.93,363.045,658.105,362.885z M689.214,328.812
	c0.707,0.158,1.594,0.136,1.48,1.111C689.727,330.029,689.102,329.79,689.214,328.812z"/>
<g>
	<path fill="#444444" d="M382.958,322.146c-2.85-3.035-5.559-6.197-8.385-9.258c-1.051-1.139-1.996-1.021-3.095,0.072
		c-1.895,1.891-3.714,3.868-5.748,5.59c-5.254,4.447-9.577,9.758-14.229,14.781c-4.233,4.574-8.933,8.723-13.383,13.1
		c-0.8,0.787-1.389,1.791-2.286,2.973c8.735,0.632,13.067,5.527,14.692,13.882c12.1-12.754,23.844-25.136,36.11-38.066
		C385.308,324.125,384.005,323.261,382.958,322.146z M365.172,343.256c1.011,0.035,0.746-0.615,1.482,0
		C366.944,344.684,364.88,344.684,365.172,343.256z"/>
	<path fill="#444444" d="M424.954,274.578c-2.547-2.301-5.066-4.631-7.646-6.893c-0.252-0.22-0.942-0.214-1.26-0.025
		c-0.551,0.33-0.99,0.86-1.436,1.346c-2.207,2.419-4.322,4.928-6.617,7.258c-3.49,3.535-7.13,6.922-10.651,10.425
		c-2.33,2.321-2.29,2.364-0.163,4.825c0.035,0.039,0.064,0.088,0.104,0.128c3.504,3.62,6.992,7.253,10.541,10.826
		c0.271,0.276,1.188,0.347,1.461,0.114c2.152-1.85,4.279-3.73,6.297-5.719c3.437-3.385,6.766-6.877,10.178-10.281
		c1.812-1.805,3.707-3.523,6.105-5.793C429.491,278.656,427.216,276.623,424.954,274.578z M416.648,272.523
		c-0.049-0.664,0.452-0.781,0.368-1.48C417.787,271.414,418.034,272.68,416.648,272.523z M418.87,289.559
		c0.157,0.773-0.254,0.981-0.369,1.482c-1.322-0.314-0.046-0.913-0.371-2.223c0.633,0.016,0.958-0.275,1.111-0.74
		c0.484,0.131,0.582,0.652,1.109,0.74C420.107,289.314,419.561,289.508,418.87,289.559z"/>
	<path fill="#444444" d="M322.583,365.107c-0.54-0.031-0.437-0.707-0.364-1.351c-1.081-0.887-2.296-1.499-3.433-1.6
		c-1.201-0.105-2.271,0.04-2.591,1.737c-0.45,2.385-1.312,4.689-1.938,7.043c-0.231,0.873-0.297,1.787-0.523,3.197
		c0.479-0.133,0.937-0.258,1.404-0.386c0.195-0.187,0.301-0.45,0.037-0.866c0.593-0.05,0.944,0.143,1.066,0.562
		c2.976-0.815,5.742-1.571,8.477-2.405c0.396-0.122,0.793-0.999,0.795-1.524c0.003-1.56-0.938-3.359-2.269-4.791
		C322.904,364.732,322.627,364.803,322.583,365.107z"/>
	<path fill="#444444" d="M325.37,337.414c2.057,0.879,3.652,2.176,4.518,4.289c0.675,1.646,1.379,3.277,2.112,5.021
		c0.283-0.211,0.558-0.371,0.77-0.586c2.215-2.26,4.396-4.553,6.631-6.795c2.668-2.678,5.438-5.252,8.036-7.99
		c1.517-1.595,2.646-3.557,4.185-5.127c3.641-3.723,7.391-7.34,11.15-10.94c2.133-2.039,4.414-3.925,6.528-5.979
		c0.347-0.336,0.48-1.418,0.212-1.772c-1.954-2.571-3.964-5.111-6.107-7.523c-1.679-1.89-2.338-1.799-4.076-0.021
		c-1.689,1.728-3.375,3.46-5.07,5.182c0.645,0.262,0.59,1.217,1.657,1.055c0.177,1.164-0.528,1.446-0.741,2.222
		c-0.218-0.291-0.751-0.651-1.11-1.109c-0.263-0.335-0.663-0.729-0.721-1.239c-0.434,0.437-0.86,0.879-1.298,1.312
		c-3.343,3.312-6.752,6.56-10.102,9.864c-3.593,3.552-7.195,7.093-10.697,10.738c-2.197,2.287-4.18,4.776-6.305,7.137
		C323.729,336.493,323.7,336.699,325.37,337.414z M353.321,320.297c0.928,0,0.069,0.619-1.111,0
		C352.174,318.428,352.565,320.297,353.321,320.297z M342.211,331.777c0.808-0.067,1.179,0.304,1.112,1.111
		c-0.371,0-0.742,0-1.112,0C342.211,332.518,342.211,332.146,342.211,331.777z"/>
	<path fill="#444444" d="M416.083,260.279c3.143,3.039,6.113,6.256,9.227,9.324c2.291,2.264,4.587,4.553,7.107,6.536
		c0.766,0.604,1.781,2.513,3.236,1.026c3.414-3.484,6.688-7.102,10.053-10.629c0.881-0.922,0.768-1.74-0.009-2.559
		c-3.102-3.281-6.194-6.57-9.346-9.805c-3.592-3.686-7.239-7.32-10.869-10.973c-1.674-1.688-3.363-3.365-5.178-5.178
		c-4.883,4.514-9.494,8.775-14.233,13.16c0.791,0.725,1.266,1.162,1.744,1.598C410.577,255.275,413.409,257.695,416.083,260.279z
		 M440.35,260.673c-0.069,0.421-0.371,0.206-0.369,0c-0.314-0.067-0.35,0.146-0.371,0.37c-0.402-0.092-0.251-0.736-0.74-0.74
		C439.232,259.168,439.855,260.729,440.35,260.673z M428.129,260.303c0.37,0,0.741,0,1.11,0c0.174,0.791-0.529,0.705-1.11,0.74
		c0,0.371,0,0.74,0,1.111C427.262,262.06,427.915,260.527,428.129,260.303z"/>
	<path fill="#444444" d="M390.882,283.906c0.771,0.795,1.519,1.461,2.623,0.431c1.15-1.071,2.441-2.001,3.539-3.12
		c2.146-2.184,4.187-4.463,6.297-6.682c2.943-3.093,5.943-6.125,8.838-9.261c1.359-1.476,1.256-1.802-0.289-3.213
		c-2.344-2.14-4.688-4.282-7.062-6.388c-0.521-0.463-1.167-0.781-1.787-1.189c-0.785,0.565-1.569,0.996-2.179,1.602
		c-2.483,2.466-4.936,4.961-7.354,7.49c-3.213,3.359-6.428,6.715-9.541,10.16c-1.259,1.393-1.045,2.062,0.271,3.373
		C386.485,279.343,388.673,281.635,390.882,283.906z"/>
	<path fill="#444444" d="M336.507,353.857c-1.938-0.037-3.907-0.449-5.719,0.953c-0.463,0.362-1.896-0.099-2.613-0.584
		c-0.845-0.578-1.623-1.443-1.161-2.791c0.28-0.82,0.391-1.754,0.345-2.627c-0.05-0.906-0.489-1.787-0.561-2.695
		c-0.221-2.902-2.09-5.014-5.292-5.574c-0.007,0.031-0.015,0.062-0.021,0.094c0.04,0.337-0.056,0.809-0.013,1.143
		c-0.084-0.041-0.147-0.103-0.216-0.16c-1.197,5.168-2.394,10.332-3.531,15.24c2.01,0.881,3.802,1.443,5.357,2.392
		c3.289,2.008,6.221,4.389,6.494,8.696c0.006,0.109,0.031,0.219,0.061,0.324c0.232,0.881,0.62,1.197,1.664,0.961
		c2.774-0.635,5.591-1.068,8.392-1.588c2.184-0.406,4.365-0.818,7.009-1.312c-0.782-2.789-1.191-5.339-2.216-7.606
		C342.999,355.432,340.081,353.93,336.507,353.857z M323.323,346.221c-0.476-0.488-0.476-1.365,0-1.853
		C325.05,344.375,325.05,346.213,323.323,346.221z"/>
	<path fill="#444444" d="M457.13,344.704c-1.129-2.642-2.293-5.272-3.608-7.823c-0.951-1.845-2.017-3.672-3.3-5.297
		c-2.385-3.027-5.524-5.094-9.063-6.637c-4.33-1.887-8.478-2.051-12.502,0.705c-1.955,1.34-4.213,1.311-5.422-0.012
		c-1.959-2.132-3.951-4.226-5.929-6.341c-2.83-3.032-5.666-6.063-8.483-9.104c-2.604-2.805-5.144-5.672-7.806-8.418
		c-2.319-2.396-4.811-4.627-7.159-6.999c-0.964-0.967-1.744-2.115-2.609-3.182c-1.949-2.402-3.814-4.879-5.873-7.184
		c-1.786-1.998-3.893-3.711-5.684-5.705c-2.854-3.177-5.497-6.551-8.375-9.711c-1.402-1.541-3.041-2.92-4.735-4.141
		c-2.075-1.494-3.319-4.287-2.396-6.178c0.381-0.775,1.187-1.428,1.33-2.221c0.554-3.086,0.353-6.127-0.35-9.24
		c-1.398-6.229-4.359-11.513-8.644-16.162c-3.26-3.535-7.426-5.201-12.021-5.951c-1.332-0.215-2.729-0.035-4.093-0.035
		c2.31,3.559,4.458,6.963,6.709,10.303c1.982,2.949,1.71,6.321,1.327,9.439c-0.406,3.318-1.869,6.5-2.787,9.764
		c-0.438,1.549-1.529,2.393-2.888,2.895c-2.954,1.091-5.956,1.164-9.051,0.414c-1.891-0.459-3.938-0.938-5.812-0.672
		c-3.559,0.504-5.721-0.848-7.233-3.906c-0.721-1.463-1.627-2.859-2.606-4.166c-0.927-1.229-2.062-2.298-3.104-3.436
		c-0.224,0.064-0.447,0.131-0.67,0.195c-0.086,1.316-0.27,2.635-0.227,3.947c0.045,1.402,0.258,2.803,0.479,4.193
		c0.726,4.635,2.449,8.881,5.59,12.377c1.812,2.021,3.993,3.721,6.068,5.498c5.158,4.424,11.01,4.77,17.276,2.953
		c0.819-0.234,2.117-0.061,2.73,0.467c1.434,1.232,2.6,2.781,3.846,4.225c1.878,2.174,3.645,4.451,5.615,6.53
		c2.867,3.021,5.898,5.879,8.814,8.853c1.578,1.604,3.283,3.149,4.547,4.986c2.979,4.337,6.626,8.08,10.175,11.91
		c2.844,3.068,5.767,6.062,8.636,9.105c0.146-0.161,0.442-0.453,0.658-0.278c0.327,0.267,0.113,0.565-0.205,0.765
		c0.654,0.695,1.311,1.391,1.955,2.094c2.869,3.121,5.57,6.396,8.4,9.558c2.373,2.647,4.786,5.26,7.252,7.823
		c1.25,1.302,2.512,2.675,4.014,3.628c1.344,0.854,1.615,2.044,1.703,3.295c0.102,1.375-0.318,2.784-0.234,4.161
		c0.336,5.523,1.805,10.685,5.457,14.996c2.119,2.498,4.433,4.793,7.769,5.685c2.067,0.554,4.093,1.298,6.18,1.765
		c1.547,0.346,3.162,0.389,4.748,0.565c0.08-0.203,0.162-0.405,0.244-0.61c-2.342-2.353-4.82-4.586-6.978-7.097
		c-1.172-1.369-2.293-3.123-2.575-4.846c-0.685-4.105,0.018-8.234,0.776-12.31c0.297-1.598,1.066-2.918,1.916-4.334
		c1.129-1.877,2.592-1.758,4.18-1.986c0.378-0.055,0.736-0.233,1.111-0.293c3.463-0.545,6.916-1.193,10.4-1.543
		c1.096-0.108,2.561,0.273,3.36,0.988c2.33,2.07,4.422,4.41,6.588,6.66c0.968,1.006,1.886,2.055,2.824,3.086
		c0.211-0.117,0.42-0.236,0.629-0.354c-0.172-1.754-0.332-3.51-0.518-5.262C457.413,346.295,457.438,345.426,457.13,344.704z
		 M338.878,266.229c0.23-0.281,1.547-0.684,1.481,0.74C339.349,267.238,339.614,266.232,338.878,266.229z M349.618,235.861
		c0.836,0.246,1.854,1.112,1.109,1.852C349.429,237.549,349.159,236.932,349.618,235.861z M349.988,254.747
		c0.091-0.401,0.735-0.251,0.739-0.74c0.979-0.112,0.955,0.772,1.111,1.481C350.659,255.805,350.434,255.166,349.988,254.747z
		 M351.469,271.412c0.058-0.102,0.798-0.684,1.112-0.369C352.854,271.316,351.079,272.139,351.469,271.412z M363.321,258.82
		c1.299,0.23,0.328,1.549-0.741,1.482C362.309,259.292,363.315,259.558,363.321,258.82z M365.912,278.078c-0.494,0-0.987,0-1.481,0
		c-0.615-0.735,0.034-0.471,0-1.48c-0.858,0.117-1.421-0.061-1.851-0.371c0.456-1.125,1.271,0.402,2.222,0
		C364.917,277.101,366.088,276.916,365.912,278.078z M373.319,297.336C374.925,297.49,372.929,299.485,373.319,297.336
		L373.319,297.336z M384.8,305.854c-0.12-0.271,1.235-0.615,1.481-0.371C386.439,305.643,385.299,306.547,384.8,305.854z
		 M388.503,311.039c0.196-0.298,0.386-0.602,0.369-1.112c0.457,0.163,0.762,0.476,0.741,1.112
		C389.243,311.039,388.872,311.039,388.503,311.039z M395.169,300.299c-0.155,0.154-0.44-0.926-0.741-0.74
		C395.061,298.293,395.456,300.012,395.169,300.299z M395.91,311.408c0.807-0.066,1.178,0.304,1.108,1.111
		C396.213,312.586,395.842,312.217,395.91,311.408z M398.132,329.184c0.444,0.488,0.146,0.584,0,1.111
		C397.269,330.188,397.269,329.293,398.132,329.184c-0.158-0.705-1.059-0.668-0.741-1.852c0.36,0.012,0.288,0.454,0.37,0.742
		c0.922-0.041,1.146-0.694,1.853,0C399.509,328.835,398.624,328.812,398.132,329.184z M409.612,338.072
		c-1.19,0.326-0.509-1.221-1.482-1.111c0.035-1.381,1.447-0.023,1.482-0.738C410.438,336.275,409.131,337.154,409.612,338.072z
		 M411.463,341.775c-0.303-0.316-0.803-0.428-0.74-1.11c1.301-1.112,1.808,0.937,1.853,2.222
		C412.222,342.396,411.854,342.186,411.463,341.775z M414.796,359.922c-0.645-0.334-1.426-0.828-0.74-1.48
		C414.708,358.529,414.899,359.076,414.796,359.922z M418.87,325.48c0.371,0,0.74,0,1.111,0c-0.012,0.36-0.454,0.289-0.74,0.371
		c0.01,0.358,0.453,0.287,0.74,0.371c-0.196,0.297-0.387,0.602-0.371,1.108C418.802,327.279,418.815,326.398,418.87,325.48z
		 M418.87,354.367c0.227-0.909,2.369-1.805,2.222,0C420.317,355.174,420.035,354.182,418.87,354.367z M421.092,362.514
		c-0.976,0.111-1.214-0.512-1.109-1.479C420.979,361.059,421.762,361.879,421.092,362.514z M421.092,348.441
		c-0.113-0.448,1.07-1.276,1.111-0.371c-0.068,0.316,0.145,0.352,0.37,0.371C422.517,349.363,421.319,348.551,421.092,348.441z
		 M430.721,369.551c0.551,0.314,0.796,0.932,0.74,1.854C430.217,371.783,430.886,370.25,430.721,369.551z M441.09,331.777
		c0.402,0.091,0.252,0.736,0.742,0.74C441.672,333.543,440.666,332.537,441.09,331.777z M443.683,328.074c0.371,0,0.74,0,1.11,0
		c-0.032,0.525-0.062,1.047,0.37,1.109C444.734,330.174,443.198,329.217,443.683,328.074z"/>
	<path fill="#444444" d="M453.312,229.822c-0.616-0.354-1.264-0.666-1.858-1.055c-6.119-4.027-12.336-4.461-18.645-0.479
		c-1.062,0.675-1.986,1.568-2.988,2.34c-1.688,1.299-3.425,2.543-5.05,3.916c-0.274,0.23-0.325,1.148-0.092,1.479
		c0.654,0.936,1.486,1.756,2.291,2.578c0.927,0.946,1.857,1.888,2.784,2.834c0.016-0.048,0.074-0.068,0.224-0.02
		c-0.003-0.001,0.154,0.238,0.274,0.525c3.456,3.528,6.911,7.059,10.384,10.568c2.688,2.715,5.506,5.304,8.096,8.108
		c1.228,1.331,1.849,0.796,2.729-0.214c2.891-3.315,4.361-7.311,5.477-11.453c0.699-2.6,1.177-5.254,1.695-7.629
		c-0.254-1.26-0.402-2.234-0.66-3.18C457.126,234.98,456.526,231.666,453.312,229.822z"/>
</g>
</svg>
