<?xml version="1.0" encoding="utf-8"?>
<!-- Generator: Adobe Illustrator 16.0.0, SVG Export Plug-In . SVG Version: 6.00 Build 0)  -->
<!DOCTYPE svg PUBLIC "-//W3C//DTD SVG 1.1//EN" "http://www.w3.org/Graphics/SVG/1.1/DTD/svg11.dtd">
<svg version="1.1" id="Layer_1" xmlns="http://www.w3.org/2000/svg" xmlns:xlink="http://www.w3.org/1999/xlink" x="0px" y="0px"
	 width="800px" height="600px" viewBox="0 0 800 600" enable-background="new 0 0 800 600" xml:space="preserve">
<path fill-rule="evenodd" clip-rule="evenodd" fill="#444444" d="M398.828,150.038c-0.746,0.3-1.395,0.748-2.068,0.795
	c-1.504,0.104-3.029-0.105-4.532,0.012c-9.174,0.719-18.314-0.468-27.477-0.412c-6.235,0.038-12.472-0.044-18.707,0.011
	c-7.253,0.064-14.507,0.331-21.76,0.303c-6.052-0.024-12.102-0.452-18.155-0.508c-4.714-0.043-9.433,0.253-14.15,0.323
	c-4.032,0.061-8.065,0.015-12.098,0.018c-4.003,0.003-8.006,0.033-12.01,0.041c0.213,0.066,0.4,0.211,0.524,0.461
	c-0.119,0.764-1.579,0.186-1.589,1.055c-1.042-0.449-0.361-1.314,0.435-1.516c-2.682,0.003-5.362-0.003-8.043-0.044
	c-7.459-0.111-14.915-0.589-22.371-0.576c-7.574,0.012-15.149,0.633-22.724,0.614c-9.685-0.023-19.368-0.579-29.053-0.602
	c-5.936-0.013-11.873,0.533-17.808,0.848c-1.979,0.105-4.14,0.848-5.891,0.283c-2.863-0.925-5.53-0.249-8.212,0.131
	c-0.872,0.124-2.043,1.664-2.181,2.678c-0.237,1.755,0.341,3.603,0.372,5.414c0.112,6.489-0.035,12.988,0.242,19.471
	c0.382,8.929-2.264,17.654-1.401,26.634c0.575,5.978,0.27,12.036,0.682,18.036c0.117,1.695,0.322,4.331,2.756,4.491
	c5.533,0.363,11.092,0.378,16.643,0.426c5.242,0.045,10.487-0.128,15.729-0.053c4.013,0.056,8.021,0.357,12.031,0.528
	c0.542,0.022,1.092-0.107,1.639-0.129c2.453-0.096,4.906-0.192,7.359-0.262c3.867-0.108,7.737-0.178,11.604-0.297
	c5.437-0.166,10.874-0.348,16.309-0.558c1.33-0.052,1.821,0.496,1.852,1.814c0.012,0.485,0.031,0.971,0.047,1.457
	c0.756-0.626,1.609-1.156,3.038-1.111c0.058,1.694-1.542,1.729-3.014,1.892c0.141,4.099,0.362,8.196,0.386,12.296
	c0.055,9.856-0.095,19.714-0.036,29.571c0.047,7.857,0.276,15.714,0.425,23.57c0.144,7.594,0.349,15.187,0.405,22.78
	c0.039,5.247-0.243,10.497-0.176,15.743c0.103,7.769,0.437,15.536,0.586,23.305c0.195,10.096,0.34,20.191,0.438,30.289
	c0.035,3.54-0.126,7.082-0.219,10.623c-0.062,2.379-0.263,4.758-0.22,7.134c0.027,1.522,0.07,3.045,0.117,4.567
	c0.537-0.075,1.174-0.051,1.836-0.001c-0.714,0.411-1.144,1.105-1.784,1.589c0.106,3.256,0.223,6.512,0.271,9.768
	c0.02,1.409-0.772,2.894-0.534,4.226c0.867,4.831,0.29,9.622,0.052,14.435c-0.02,0.387-0.022,0.77-0.016,1.149
	c1.197-0.834,2.212-1.889,2.012-3.687c1.759,0,3.523,0,5.281,0c-1.389,1.648-4.198,0.417-2.11,3.171
	c-1.897,0.35-3.62,0.874-5.11,1.63c0.181,1.67,0.733,3.239,2.033,4.603c0.777,0.815,1.397,1.271,2.632,0.99
	c1.851-0.419,3.78-0.783,5.662-0.725c4.412,0.135,8.812,0.611,13.223,0.808c5.387,0.239,10.778,0.456,16.168,0.46
	c6.943,0.004,13.888-0.172,20.829-0.355c3.23-0.084,6.459-0.326,9.682-0.582c1.645-0.131,2.83-1.274,2.837-2.773
	c0.012-2.5-0.493-4.999-0.728-7.504c-0.172-1.824-0.406-3.659-0.354-5.483c0.2-6.968,0.53-13.933,0.756-20.901
	c0.062-1.897-0.249-3.817-0.081-5.699c0.343-3.847,0.854-7.654,1.027-11.505c-0.111,0.1-0.393,0.136-0.939,0.011
	c0.06-0.896,0.752-0.618,0.947-0.299c0.09-2.226,0.068-4.467-0.172-6.738c-0.68-6.425-0.281-12.968-0.266-19.459
	c0.013-5.215,0.247-10.43,0.188-15.644c-0.016-1.437-0.954-2.793,0.29-4.25c0.379-0.444-0.033-1.583-0.122-2.398
	c-0.043-0.396-0.269-0.786-0.252-1.172c0.126-3.058,0.383-6.112,0.418-9.17c0.033-2.871-0.263-5.746-0.227-8.619
	c0.08-6.537,0.255-13.073,0.445-19.608c0.031-1.061,0.493-2.111,0.497-3.167c0.019-5.651-0.045-11.304-0.08-16.955
	c-0.021-3.597,0.023-7.194-0.075-10.788c-0.104-3.789-0.38-7.574-0.515-11.363c-0.237-6.646,1.389-13.305-0.17-19.949
	c-0.292-1.245-0.453-2.555-0.433-3.832c0.029-1.769,0.371-3.531,0.426-5.303c0.079-2.543,0.021-5.09,0.021-7.543
	c1.389-0.346,2.553-0.846,3.734-0.887c2.703-0.096,5.414,0.11,8.119,0.056c7.229-0.148,14.458-0.36,21.685-0.575
	c1.146-0.034,2.292-0.353,3.426-0.301c3.466,0.16,6.922,0.557,10.387,0.64c5.582,0.136,11.173,0.229,16.754,0.098
	c7.722-0.182,15.442-0.546,23.156-0.955c0.801-0.043,2.082-0.794,2.239-1.438c0.521-2.141,0.834-4.381,0.845-6.585
	c0.011-2.283-0.477-4.562-0.645-6.853c-0.103-1.423-0.007-2.859-0.016-4.289c-0.015-2.099,0.019-4.2-0.082-6.295
	c-0.095-1.938-0.463-3.865-0.481-5.801c-0.019-1.834,0.322-3.668,0.395-5.508c0.142-3.564,0.233-7.13,0.358-10.693
	c-0.076,0.131-0.348,0.199-0.971,0.058c0.064-0.956,0.844-0.58,0.978-0.238c0.034-0.957,0.059-1.916,0.102-2.873
	c0.061-1.347,0.492-2.674,0.609-4.022c0.131-1.521,0.089-3.057,0.144-4.585c0.02-0.536,0.171-1.074,0.147-1.606
	c-0.12-2.762-0.438-5.525-0.385-8.281C402.684,154.665,402.623,151.519,398.828,150.038z M155.847,153.197c0.53,0,1.056,0,1.586,0
	c0.987,2.397-2.101,0.718-1.586,2.64C154.609,155.703,155.54,153.518,155.847,153.197z M153.207,219.248
	C153.309,217.666,155.4,219.749,153.207,219.248L153.207,219.248z M153.73,226.115C154.504,224.365,155.044,228.177,153.73,226.115
	L153.73,226.115z M154.789,224.004c-1.373,0.313-1.901-0.214-1.582-1.583c0.523,0,1.055,0,1.582,0
	C154.789,222.943,154.789,223.477,154.789,224.004z M154.789,190.187c0.232-0.652,0.676-1.088,1.588-1.062
	C156.623,190.256,155.619,190.136,154.789,190.187z M156.902,164.295C157.527,162.688,159.707,164.864,156.902,164.295
	L156.902,164.295z M164.3,181.201c0.126-0.928,0.907-1.206,2.116-1.058C166.944,181.737,165.24,181.08,164.3,181.201z
	 M167.472,157.953c0.231-0.649,0.677-1.085,1.584-1.056C168.824,157.544,168.379,157.979,167.472,157.953z M184.909,168.522
	c-0.127,0.927-0.909,1.205-2.112,1.056C182.264,167.986,183.969,168.642,184.909,168.522z M179.625,156.897
	c2.462,0.203-0.227,2.901-2.109,2.11C177.25,157.341,180.135,158.813,179.625,156.897z M171.172,180.671c0-0.527,0-1.05,0-1.582
	C172.708,178.31,172.708,181.456,171.172,180.671z M173.812,188.604c-0.528-1.594,1.175-0.939,2.116-1.061
	C175.801,188.474,175.018,188.746,173.812,188.604z M176.455,194.937c0.124-0.922,0.906-1.2,2.109-1.051
	C179.098,195.474,177.395,194.816,176.455,194.937z M175.928,163.233c-0.438-1.489,0.744-1.369,0.527-2.638
	c1.246-0.015,1.555,0.907,3.17,0.524C178.955,162.388,177.898,163.276,175.928,163.233z M180.681,214.492c-0.351,0-0.704,0-1.056,0
	c0-0.354,0-0.707,0-1.055c0.352,0,0.705,0,1.056,0C180.681,213.785,180.681,214.138,180.681,214.492z M181.209,175.39
	C182.098,173.522,182.863,177.115,181.209,175.39L181.209,175.39z M182.264,185.431c-1.359-0.686-1.222-2.565,1.061-2.114
	C182.639,184.557,183.594,184.496,182.264,185.431z M183.324,178.561c0.33-1.611,1.173-2.698,3.171-2.643
	C185.982,177.348,185.167,178.468,183.324,178.561z M191.251,191.241c1.001,0.228,1.324,1.141,2.64,1.055
	C193.649,193.336,190.187,193.248,191.251,191.241z M195.479,219.776c-0.356,0-0.707,0-1.061,0c0-0.352,0-0.707,0-1.056
	c0.354,0,0.704,0,1.061,0C195.479,219.069,195.479,219.425,195.479,219.776z M194.945,215.55
	C195.571,213.943,197.751,216.12,194.945,215.55L194.945,215.55z M215.026,167.989c1.478,1.177-1.778,2.065-3.694,1.589
	C211.975,168.467,214.508,169.235,215.026,167.989z M209.743,154.254c-0.13,0.931-0.907,1.203-2.11,1.059
	C207.758,154.379,208.54,154.109,209.743,154.254z M201.816,222.943C203.586,221.665,200.539,224.717,201.816,222.943
	L201.816,222.943z M204.984,215.022c-0.223-1.464,1.973-0.496,2.115-1.585C208.934,214.513,205.775,216.405,204.984,215.022z
	 M204.46,189.658c0.797-1.597,2.321,0.44,3.694,0C207.082,190.857,205.391,190.826,204.46,189.658z M208.683,210.791
	C211.78,211.498,206.775,213.286,208.683,210.791L208.683,210.791z M209.743,188.604c-0.81,0.324,1.158-0.47,1.533-0.615
	C211.129,188.047,210.68,188.229,209.743,188.604z M210.271,187.015c0-0.351,0-0.703,0-1.061c1.062-0.176,1.655,0.116,1.585,1.061
	C211.332,187.015,210.799,187.015,210.271,187.015z M212.914,182.26c0.076-0.038,0.12-0.061,0.178-0.089
	c-0.39,0.195-0.997,0.499-1.065,0.528C212.072,182.677,212.316,182.556,212.914,182.26z M212.914,188.07
	C213.023,186.491,215.109,188.58,212.914,188.07L212.914,188.07z M213.966,178.033C216.979,176.13,216.291,179.37,213.966,178.033
	L213.966,178.033z M220.312,162.706C221.629,160.647,221.083,164.458,220.312,162.706L220.312,162.706z M221.369,166.407
	c-0.355,0-0.703,0-1.057,0c0-0.352,0-0.703,0-1.056c0.354,0,0.701,0,1.057,0C221.369,165.704,221.369,166.056,221.369,166.407z
	 M223.485,191.241c0.224-0.647,0.673-1.082,1.579-1.055C225.314,191.316,224.309,191.19,223.485,191.241z M225.598,190.187
	C226.912,188.125,226.361,191.941,225.598,190.187L225.598,190.187z M226.119,219.248
	C226.225,217.666,228.32,219.749,226.119,219.248L226.119,219.248z M227.18,185.431c0.459-0.777,0.422-2.047,2.117-1.587
	C229.453,185.232,228.561,185.578,227.18,185.431z M229.297,154.785C229.398,153.197,231.49,155.29,229.297,154.785L229.297,154.785
	z M230.879,186.487C230.986,184.902,233.073,186.991,230.879,186.487L230.879,186.487z M231.936,181.731
	c-0.166,0.397-0.26,0.606-0.293,0.682c0.088-0.2,0.529-1.237,0.612-1.431C232.227,181.062,232.131,181.277,231.936,181.731z
	 M234.58,171.689C233.134,170.082,236.186,173.134,234.58,171.689L234.58,171.689z M279.49,401.018
	C281.098,399.577,278.051,402.625,279.49,401.018L279.49,401.018z M278.439,162.706
	C280.042,160.753,280.219,164.313,278.439,162.706L278.439,162.706z M275.268,227.171c-0.129,0.931-0.912,1.209-2.116,1.061
	C273.275,227.301,274.064,227.027,275.268,227.171z M272.623,349.759C274.91,349.982,272.063,352.83,272.623,349.759
	L272.623,349.759z M271.568,272.087C271.676,270.504,273.764,272.591,271.568,272.087L271.568,272.087z M268.396,368.257
	c0.691,0.186,0.831,0.931,1.585,1.061c0.098,0.443-0.205,0.495-0.527,0.522c-0.354,0-0.705,0-1.058,0
	C268.396,369.317,268.396,368.784,268.396,368.257z M267.18,364.932c-0.061,0.111-0.145,0.265-0.254,0.473
	C267.004,365.252,267.104,365.071,267.18,364.932z M266.807,365.613c0.021-0.028,0.034-0.057,0.049-0.084
	c-0.033,0.065-0.061,0.116-0.084,0.153C266.786,365.664,266.795,365.646,266.807,365.613z M265.225,367.729
	c0.292,1.171-1.01,0.748-1.055,1.588C262.854,369.1,264.137,367.263,265.225,367.729z M263.114,173.805
	c0.246,1.131-0.76,1.006-1.588,1.058C261.758,174.214,262.201,173.777,263.114,173.805z M260.998,386.225c0.355,0,0.704,0,1.056,0
	c0,0.699,0,1.403,0,2.112c-0.352,0-0.7,0-1.056,0C260.998,387.628,260.998,386.924,260.998,386.225z M260.471,186.487
	c-0.354,0.707-1.13,0.98-2.115,1.056C257.822,185.954,259.535,186.606,260.471,186.487z M252.016,178.561
	c-0.223,1.186-2.898-0.078-2.644,1.583C247.812,181.056,250.956,176.782,252.016,178.561z M246.205,159.008
	c0.768,0.292,2.731-0.615,2.639,0.533C249.238,161.55,245.427,160.679,246.205,159.008z M247.261,207.09
	c0.851-0.143,0.906,0.501,1.583,0.533C249.059,208.646,246.441,208.393,247.261,207.09z M246.732,412.64
	C246.839,411.062,248.928,413.149,246.732,412.64L246.732,412.64z M244.616,155.312C244.729,153.73,246.812,155.813,244.616,155.312
	L244.616,155.312z M243.562,157.953c0,0.703,0,1.411,0,2.115C241.967,160.042,241.252,157.805,243.562,157.953z M240.391,226.115
	c0.23-0.648,0.676-1.083,1.582-1.061C242.223,226.186,241.223,226.063,240.391,226.115z M240.391,281.603
	C240.497,280.018,242.584,282.105,240.391,281.603L240.391,281.603z M241.449,152.136c0.246,1.131-0.754,1.01-1.588,1.062
	C240.094,152.545,240.537,152.113,241.449,152.136z M239.861,295.865c0.366-1.046,1.412-1.406,2.645-1.582
	C242.141,295.32,241.094,295.69,239.861,295.865z M239.861,432.192c0.129-0.931,0.912-1.203,2.111-1.058
	C242.51,432.725,240.797,432.077,239.861,432.192z M241.449,436.42C242.074,434.812,244.25,436.994,241.449,436.42L241.449,436.42z
	 M242.506,162.706c-0.62-0.082-0.449-0.962-0.533-1.586C243.732,160.758,242.828,162.216,242.506,162.706z M243.033,242.497
	C244.348,240.436,243.802,244.246,243.033,242.497L243.033,242.497z M244.616,228.759c0.231-0.648,0.677-1.089,1.589-1.055
	C246.445,228.828,245.445,228.707,244.616,228.759z M247.261,435.363c-0.358,0-0.709,0-1.056,0c0.277-0.427,0.552-0.856,0.527-1.588
	c0.57,0.135,0.357,1.055,1.057,1.061C247.882,435.285,247.584,435.331,247.261,435.363z M247.261,379.878
	C247.363,378.299,249.455,380.386,247.261,379.878L247.261,379.878z M248.32,410.528
	C249.631,408.469,249.085,412.279,248.32,410.528L248.32,410.528z M249.9,211.321c-0.349,0-0.703,0-1.057,0c0-0.351,0-0.703,0-1.058
	c0.354,0,0.708,0,1.057,0C249.9,210.618,249.9,210.971,249.9,211.321z M251.488,416.866c0.273-0.776,0.782-1.328,1.057-2.109
	c1.697-0.464,0.727,1.739,2.109,1.588C254.354,418.084,252.663,417.099,251.488,416.866z M253.072,394.676
	C253.178,393.091,255.266,395.186,253.072,394.676L253.072,394.676z M254.654,364.028c-0.347,0-0.703,0-1.049,0
	c0-0.352,0-0.703,0-1.059c0.346,0,0.702,0,1.049,0C254.654,363.325,254.654,363.677,254.654,364.028z M252.545,302.204
	c0.346-0.708,1.124-0.981,2.109-1.055C255.188,302.742,253.484,302.09,252.545,302.204z M258.887,351.347
	c-0.232,0.649-0.676,1.084-1.583,1.056C257.053,351.274,258.053,351.398,258.887,351.347z M258.887,401.545c-0.352,0-0.71,0-1.062,0
	c0-0.351,0-0.707,0-1.055c0.352,0,0.71,0,1.062,0C258.887,400.838,258.887,401.194,258.887,401.545z M258.355,374.599
	C258.461,373.011,260.547,375.104,258.355,374.599L258.355,374.599z M259.938,389.92c0.236-0.648,0.676-1.083,1.589-1.055
	C261.775,389.995,260.775,389.874,259.938,389.92z M265.225,413.172C265.331,411.589,267.419,413.671,265.225,413.172
	L265.225,413.172z M264.697,401.018c-1.412-0.772,0.218-2.898,1.588-2.644C266.531,400.035,264.859,399.771,264.697,401.018z
	 M261.526,398.374c2.286-0.837,2.73-5.893,5.813-4.223C264.743,394.896,264.479,397.98,261.526,398.374z M267.868,371.955
	c-1.001-0.352,2.422-2.318,3.167-1.061C270.666,373.011,268.56,370.928,267.868,371.955z M269.98,417.924
	c-0.69,0.264-0.232-2.616,1.055-2.112C271.424,417.256,269.989,416.876,269.98,417.924z M273.151,410.001
	c-1.296-0.464-3.052-0.478-3.171-2.116c1.435-0.889,2.472,0.839,3.171-1.057C274.328,407.051,273.568,409.636,273.151,410.001z
	 M274.207,391.508c-0.615-0.087-0.443-0.967-0.528-1.588C275.438,389.559,274.531,391.014,274.207,391.508z M275.79,404.719
	c-0.353,0-0.704,0-1.056,0c0-0.352,0-0.709,0-1.062c0.352,0,0.703,0,1.056,0C275.79,404.01,275.79,404.367,275.79,404.719z
	 M275.79,370.373C275.901,368.79,277.984,370.877,275.79,370.373L275.79,370.373z M278.963,225.055c-0.079,1.32-1.787,0.163-2.111,0
	C277.323,223.29,278.031,224.597,278.963,225.055z M277.379,429.553c-0.514-2.097,1.527-1.644,2.64-2.116
	C279.342,428.344,278.924,429.517,277.379,429.553z M281.607,216.605c-0.623-0.088-0.449-0.964-0.528-1.583
	C282.832,214.656,281.932,216.114,281.607,216.605z M282.662,421.626c-0.617-0.088-0.445-0.968-0.527-1.589
	C283.893,419.677,282.986,421.131,282.662,421.626z M283.723,395.73c-1.538-0.736,0.148-2.607,0.527-3.167
	C285.751,393.269,283.842,394.911,283.723,395.73z M304.853,194.414C305.482,192.808,307.658,194.982,304.853,194.414
	L304.853,194.414z M298.516,199.169C299.141,197.562,301.32,199.741,298.516,199.169L298.516,199.169z M299.043,161.12
	c-1.218,0.722-2.357,1.522-4.229,1.586C295.176,161.133,296.922,160.938,299.043,161.12z M295.342,165.88
	c-0.615-0.088-0.443-0.964-0.527-1.585C296.576,163.931,295.666,165.389,295.342,165.88z M293.754,374.599
	C295.069,372.534,294.533,376.351,293.754,374.599L293.754,374.599z M291.644,405.773
	C291.75,404.188,293.838,406.277,291.644,405.773L291.644,405.773z M286.36,280.014c0-0.352,0-0.705,0-1.057
	c1.061-0.18,1.654,0.107,1.585,1.057C287.421,280.014,286.888,280.014,286.36,280.014z M287.421,274.729
	C287.523,273.147,289.615,275.234,287.421,274.729L287.421,274.729z M289.403,355.949
	C289.38,356.116,289.38,356.085,289.403,355.949L289.403,355.949z M289.403,355.945c0.013-0.087,0.031-0.227,0.061-0.431
	C289.44,355.686,289.422,355.844,289.403,355.945z M289.533,355.047c-0.006,0.023-0.011,0.041-0.011,0.069
	c0.021-0.129,0.038-0.258,0.052-0.355C289.561,354.833,289.546,354.928,289.533,355.047z M291.116,396.792
	C291.223,395.207,293.311,397.296,291.116,396.792L291.116,396.792z M291.644,426.382c0.13-0.931,0.913-1.203,2.11-1.056
	C293.412,426.03,292.629,426.307,291.644,426.382z M293.754,432.192c-0.154-1.394,1.106-1.36,2.115-1.585
	C296.033,431.998,295.139,432.341,293.754,432.192z M295.869,384.638C297.643,383.359,294.594,386.405,295.869,384.638
	L295.869,384.638z M296.402,358.219c-0.082-1.314,0.826-1.633,1.056-2.644c0.765,0.119,0.185,1.578,1.058,1.587
	C298.168,357.867,297.385,358.145,296.402,358.219z M299.043,420.037C299.149,418.461,301.238,420.544,299.043,420.037
	L299.043,420.037z M298.516,361.913c-0.25-1.125,0.753-1.005,1.582-1.056C299.865,361.511,299.422,361.945,298.516,361.913z
	 M302.742,159.541C298.625,158.762,303.992,159.777,302.742,159.541L302.742,159.541z M301.686,197.053
	c0.19-0.448,0.287-0.671,0.319-0.746c-0.082,0.194-0.527,1.229-0.609,1.428C301.422,197.659,301.515,197.45,301.686,197.053z
	 M301.686,206.568C302.312,204.956,304.491,207.138,301.686,206.568L301.686,206.568z M302.214,165.352
	C302.316,163.767,304.409,165.855,302.214,165.352L302.214,165.352z M303.797,246.723
	C305.409,245.283,302.357,248.33,303.797,246.723L303.797,246.723z M306.969,384.109c-0.449,0.783-1.328,1.139-2.644,1.056
	C303.784,383.393,305.969,384.345,306.969,384.109z M305.908,403.657c0.648-0.751,2.02-1.199,2.648-0.523
	C308.502,404.477,306.589,404.379,305.908,403.657z M309.081,418.982c-0.449-1.686,0.833-1.635,1.061-2.638
	C311.354,416.757,310.654,419.612,309.081,418.982z M311.725,180.144c0-0.352,0-0.704,0-1.055c0.703,0,1.412,0,2.115,0
	C314.373,180.68,312.66,180.024,311.725,180.144z M313.307,209.206c0-0.527,0-1.056,0-1.583
	C314.85,206.845,314.85,209.985,313.307,209.206z M315.423,190.187c-1.589-0.954,1.538-1.583,2.116-2.116
	C319.466,189.368,315.367,189.02,315.423,190.187z M320.179,188.604c-0.024-2.134,3.778-0.449,4.755-1.589
	C324.614,188.807,321.377,187.686,320.179,188.604z M322.822,153.725c-0.158-1.389,2.051-0.412,1.582-2.11
	c2.219-0.397-0.716,2.019,1.585,2.11C325.771,154.9,323.189,154.137,322.822,153.725z M331.277,163.233
	c0.443-0.782,1.698-0.757,2.638-1.055C333.999,163.722,331.777,163.786,331.277,163.233z M350.824,198.108
	C350.936,196.529,353.02,198.613,350.824,198.108L350.824,198.108z M358.752,175.918c0.063-1.344,0.769-2.047,2.111-2.113
	C361.111,175.46,360.404,176.162,358.752,175.918z M366.15,177.506c-0.936-0.121-2.648,0.527-2.112-1.056
	c0.945,0.064,1.112-0.648,2.112-0.532C366.15,176.45,366.15,176.973,366.15,177.506z M371.961,211.85
	c0.129-0.931,0.91-1.203,2.114-1.059C373.951,211.722,373.168,211.997,371.961,211.85z M380.332,175.333
	c0.045,0.574-1.85,3.445-0.968,1.117c0.036-0.108-0.075-0.46,0-0.532c0.382-0.386,0.634-0.585,0.782-0.649
	c-0.078-0.073-0.166-0.199-0.26-0.406C380.924,173.237,380.805,175.251,380.332,175.333z M382.53,163.767c0-0.351,0-0.708,0-1.061
	c0.882,0,1.764,0,2.644,0C385.716,164.485,383.527,163.531,382.53,163.767z M388.869,183.844
	C388.975,182.26,391.063,184.349,388.869,183.844L388.869,183.844z M388.348,213.962c0.479-0.918,1.846-1.361,2.637-0.524
	C391.072,214.577,389.11,213.68,388.348,213.962z M393.101,176.973c-0.161-1.389,0.733-1.732,2.112-1.583
	C394.755,176.162,394.422,177.065,393.101,176.973z M395.083,194.261C395.064,194.395,395.059,194.428,395.083,194.261
	L395.083,194.261z M395.083,194.257c0.013-0.107,0.036-0.26,0.063-0.431C395.115,194.024,395.096,194.164,395.083,194.257z
	 M395.213,193.358c-0.006,0.023-0.006,0.041-0.015,0.064c0.024-0.13,0.036-0.26,0.056-0.356
	C395.244,193.14,395.23,193.238,395.213,193.358z M396.268,213.438C397.041,211.684,397.584,215.494,396.268,213.438
	L396.268,213.438z"/>
<path fill-rule="evenodd" clip-rule="evenodd" fill="#444444" d="M649.766,350.9c0.496-2.416,0.311-3.674-1.983-4.343
	c-0.97-0.282-2.381-0.769-2.978-0.328c-2.662,1.961-5.27,4.056-7.582,6.411c-4.03,4.105-8.908,6.706-14.232,8.517
	c-4.549,1.546-9.268,2.713-14.061,1.366c-3.078-0.865-6.438-1.715-8.895-3.589c-0.645-0.492-1.264-1.019-1.872-1.559
	c-0.093,0.649-0.354,2.466-0.046,0.311c0.019-0.131,0.034-0.233,0.045-0.312c-2.612-2.319-4.938-5.017-7.329-7.604
	c-0.217-0.007-0.434-0.013-0.644-0.013c0.01-0.214,0.073-0.374,0.158-0.513c-0.021-0.023-0.043-0.047-0.064-0.07
	c-0.604-0.644-0.903-1.717-1.029-2.635c-0.498-3.609-0.775-7.249-1.308-10.853c-0.937-6.346-0.246-12.684-0.036-19.024
	c0.014-0.433,0.746-1.188,1.17-1.206c6.322-0.292,12.647-0.521,18.974-0.708c0.244-0.542,0.584-1.131,0.634-1.447
	c1.299,0.393,0.976,0.863,0.436,1.413c0.157-0.005,0.313-0.011,0.471-0.016c2.203-0.062,4.688,0.747,6.555-0.025
	c2.841-1.174,5.446-0.17,8.121-0.191c1.709-0.013,2.729-0.489,3.131-1.953c0.357-1.301,0.407-2.703,0.457-4.066
	c0.04-1.092-0.197-2.191-0.186-3.286c0.06-5.648,0.181-11.298,0.224-16.946c0.007-0.947-0.435-1.906-0.379-2.843
	c0.273-4.624,0.642-9.243,0.981-13.863c0.205-2.797,0.711-5.606,0.561-8.383c-0.216-3.979-0.875-7.938-1.408-11.896
	c-0.27-1.992-1.772-3.292-3.744-3.366c-7.305-0.277-14.609-0.589-21.916-0.792c-4.347-0.121-8.699-0.13-13.047-0.056
	c-1.479,0.025-1.344-0.855-1.359-1.742c-0.076-4.505-0.113-9.012-0.205-13.516c-0.021-0.957-0.455-1.956-0.284-2.857
	c0.741-3.913-0.193-7.811,0.122-11.768c0.489-6.167-0.305-12.404,0.319-18.65c0.508-5.1,0.157-10.283,0.243-15.428
	c0.116-6.931,1.123-13.853-0.075-20.797c-0.344-1.996-0.063-4.097-0.1-6.151c-0.089-4.968-0.563-5.768-5.479-5.995
	c-5.86-0.273-11.746-0.036-17.619,0.022c-0.328,0.002-0.844,0.304-0.945,0.585c-0.512,1.418-1.327,2.887-1.283,4.316
	c0.158,5.21-0.742,10.099-3.252,14.703c-0.974,1.786-1.885,3.655-2.465,5.595c-1.43,4.772-4.324,8.594-7.617,12.138
	c-1.699,1.828-4,3.127-5.558,5.048c-1.885,2.322-4.091,3.996-6.519,5.718c-4.125,2.923-8.621,4.942-13.146,6.979
	c-2.188,0.984-4.488,1.777-6.812,2.379c-2.049,0.529-3.226,1.604-3.31,3.786c-0.088,2.275-0.143,4.553-0.184,6.83
	c-0.054,3.014-0.097,6.026-0.144,9.04c0.305,0.167,0.221,0.357-0.009,0.571c-0.054,3.418-0.111,6.837-0.191,10.254
	c-0.055,2.348-0.246,4.695-0.479,7.032c-0.084,0.854-0.191,1.625-1.645,1.494c-3.721-0.339-7.482-0.594-11.208-0.431
	c-4.395,0.193-8.77,0.803-13.153,1.247c-0.089,0.446-0.2,1.02-0.234,1.176c0.023-0.108,0.095-0.473,0.234-1.176
	c-0.203,0.021-0.406,0.045-0.609,0.064c-0.408,0.04-0.844,0.023-1.24-0.074c-6.435-1.582-12.935-0.896-19.422-0.555
	c-0.338,0.018-0.755,0.366-0.965,0.677c-0.918,1.362-1.779,2.607-1.026,4.541c0.548,1.404,0.445,3.145,0.325,4.712
	c-0.293,3.829-0.977,7.637-1.114,11.467c-0.224,6.203-0.144,12.418-0.175,18.629c-0.02,3.789-0.02,7.577-0.006,11.366
	c0.004,1.437,0.078,2.874,0.102,4.312c0.071,4.281-1.867,8.955,2.26,12.049c1.885-0.475,3.486-1.12,5.125-1.234
	c2.932-0.204,5.885-0.124,8.827-0.096c2.872,0.027,5.743,0.182,8.616,0.199c2.814,0.018,5.633-0.146,8.445-0.079
	c2.064,0.05,4.123,0.347,6.186,0.521c0.301,0.025,0.603,0.043,0.904,0.062c0.032-0.284-0.133-0.476-0.867-0.694
	c0.443-0.788,1.695-0.765,2.639-1.055c-0.225,0.535-0.293,1.228-0.448,1.833c1.112,0.068,2.221,0.152,3.303,0.371
	c0.659,0.132,1.394,1.021,1.655,1.729c0.348,0.941,0.398,2.047,0.354,3.071c-0.304,6.87-0.697,13.719,0.353,20.587
	c0.365,2.39-0.062,4.907-0.2,7.362c-0.137,2.467-0.598,4.937-0.504,7.39c0.193,5.022,0.634,10.036,1.023,15.05
	c0.357,4.579,0.686,9.162,1.208,13.722c0.352,3.076,0.571,6.283,1.643,9.135c1.962,5.223,4.442,10.258,6.849,15.303
	c0.793,1.661,0.461,4.163,3.083,4.669c0.126,0.024,0.131,0.513,0.251,0.756c0.688,1.395,1.283,2.853,2.125,4.149
	c0.658,1.014,1.763,1.737,2.438,2.744c1.338,1.998,2.84,3.845,4.448,5.588c0.812-1.163,0.813,0.141,0.489,0.521
	c2.258,2.387,4.711,4.581,7.241,6.67c4.885,4.031,10.618,6.765,16.286,9.597c7.174,3.586,14.731,5.923,22.588,6.9
	c6.364,0.791,12.824,0.833,19.194-0.074c0.043-0.063,0.086-0.129,0.147-0.214c0.875-0.63,0.576-0.21,0.202,0.167
	c1.125-0.167,2.248-0.354,3.366-0.582c5.926-1.211,11.762-2.88,17.605-4.461c2.516-0.681,5.023-1.491,7.404-2.537
	c2.965-1.301,5.908-2.727,8.658-4.427c3.256-2.012,6.285-4.392,9.446-6.564c0.55-0.378,1.257-0.542,1.905-0.762
	c1.754-0.592,2.496-1.873,2.42-3.64c-0.143-3.332-0.5-6.663-0.473-9.992c0.031-3.788-0.562-7.499,0.225-11.403
	c0.861-4.285,0.317-8.859,0.317-13.309c0-2.932-0.267-5.868-0.154-8.793c0.217-5.628,0.655-11.247,0.926-16.873
	c0.093-1.92-0.024-3.851-0.077-5.774C649.805,357.058,649.159,353.851,649.766,350.9z M624.537,313.83
	C625.815,311.456,624.148,314.558,624.537,313.83L624.537,313.83z M621.365,312.248
	C621.475,310.665,623.561,312.752,621.365,312.248L621.365,312.248z M621.365,254.65
	C623.656,254.871,620.811,257.715,621.365,254.65L621.365,254.65z M621.365,256.761c0.355,0,0.707,0,1.061,0
	C622.295,258.679,620.199,258.326,621.365,256.761z M620.842,313.303C620.943,311.72,623.036,313.808,620.842,313.303
	L620.842,313.303z M613.971,274.202C615.578,272.758,612.525,275.81,613.971,274.202L613.971,274.202z M612.914,277.374
	C613.018,275.786,615.109,277.874,612.914,277.374L612.914,277.374z M610.799,278.43c1.061-0.18,1.654,0.105,1.584,1.056
	c-0.523,0-1.055,0-1.584,0C610.799,279.132,610.799,278.781,610.799,278.43z M610.799,311.72
	C610.907,310.132,612.994,312.225,610.799,311.72L610.799,311.72z M608.16,290.052C608.785,288.448,610.961,290.625,608.16,290.052
	L608.16,290.052z M602.344,301.677c-0.801,0.788-2.318,0.852-3.698,1.056C598.721,301.223,600.849,301.771,602.344,301.677z
	 M596.529,307.492C596.311,307.27,596.881,307.834,596.529,307.492L596.529,307.492z M594.95,306.96
	C596.771,308.325,592.232,308.237,594.95,306.96L594.95,306.96z M589.135,253.596C588.914,253.371,589.482,253.941,589.135,253.596
	L589.135,253.596z M468.129,280.014c-0.155-1.395,0.733-1.736,2.119-1.584C469.787,279.202,469.454,280.105,468.129,280.014z
	 M470.248,273.675C469.084,275.285,466.861,273.063,470.248,273.675L470.248,273.675z M489.795,277.374
	C489.576,277.152,490.141,277.717,489.795,277.374L489.795,277.374z M485.043,249.895c1.492,0.436,1.365-0.744,2.64-0.527
	C487.182,250.487,485.107,252.747,485.043,249.895z M490.326,297.45c-0.707,0-1.408,0-2.115,0
	C488.094,295.718,490.691,295.361,490.326,297.45z M498.249,278.957c0.855-0.147,0.913,0.496,1.589,0.528
	C500.044,280.508,497.429,280.259,498.249,278.957z M506.703,285.301C506.811,283.716,508.898,285.801,506.703,285.301
	L506.703,285.301z M510.402,342.365C510.181,342.143,510.749,342.708,510.402,342.365L510.402,342.365z M511.457,336.555
	C512.772,334.49,512.23,338.306,511.457,336.555L511.457,336.555z M509.347,291.64c0.089-2.542,2.547-2.376,3.171-0.527
	C512.448,292.279,510.271,291.333,509.347,291.64z M510.936,271.025c-0.844-1.685,0.063-2.991,2.109-3.167
	C513.907,269.573,512.746,270.623,510.936,271.025z M516.217,272.614c-0.23,0.652-0.676,1.089-1.588,1.061
	C514.383,272.545,515.383,272.666,516.217,272.614z M513.572,212.906c0.359,0,0.705,0,1.057,0c0,0.352,0,0.704,0,1.056
	c-0.352,0-0.697,0-1.057,0C513.572,213.61,513.572,213.258,513.572,212.906z M513.585,267.344c-0.059-0.058-0.104-0.103-0.013-0.013
	C513.578,267.337,513.579,267.338,513.585,267.344C513.766,267.52,513.665,267.422,513.585,267.344z M514.629,364.028
	c-0.246-1.128,0.754-1.003,1.588-1.059C515.986,363.622,515.541,364.058,514.629,364.028z M515.686,340.777
	C515.795,339.197,517.881,341.286,515.686,340.777L515.686,340.777z M520.445,284.768c0.23-0.648,0.67-1.083,1.583-1.055
	C522.273,284.843,521.273,284.722,520.445,284.768z M520.973,322.812C521.078,321.229,523.168,323.318,520.973,322.812
	L520.973,322.812z M519.385,264.693c0.852-0.154,0.912,0.495,1.588,0.527C521.182,266.243,518.565,265.994,519.385,264.693z
	 M520.445,228.231C522.732,228.449,519.885,231.296,520.445,228.231L520.445,228.231z M518.857,211.85
	c-0.246-1.125,0.758-1.004,1.588-1.059C520.213,211.443,519.77,211.883,518.857,211.85z M519.918,209.739
	c-0.354,1.579-1.136-0.51-2.117,0C518.162,208.087,519.412,208.846,519.918,209.739z M517.801,362.446
	c0.793-0.616,1.293-1.528,2.645-1.589C520.078,361.903,519.037,362.27,517.801,362.446z M518.857,349.237
	C518.963,347.652,521.052,349.737,518.857,349.237L518.857,349.237z M517.801,339.722c0.152-1.74,4.607-4.135,4.755-1.055
	C520.357,338.397,520.227,340.213,517.801,339.722z M555.847,230.344c-0.367,1.041-1.409,1.41-2.64,1.583
	C553.572,230.884,554.609,230.523,555.847,230.344z M551.618,263.104c0.088,1.143-1.874,0.24-2.638,0.527
	C548.887,262.489,550.851,263.392,551.618,263.104z M551.618,365.086c-3.255,0.272-3.374,3.67-7.399,3.171
	C546.622,367.684,549.979,361.348,551.618,365.086z M550.035,288.469c1.023-0.209,0.768,2.406-0.533,1.583
	C549.359,289.199,550.002,289.145,550.035,288.469z M548.98,240.384c-0.01,1.58-1.376,1.798-1.588,3.171
	C546.84,243.473,547.642,240.323,548.98,240.384z M548.447,217.133c0.091,1.144-1.877,0.24-2.641,0.527
	C545.72,216.518,547.684,217.421,548.447,217.133z M544.748,229.286c0.249,1.131-0.754,1.006-1.584,1.058
	C543.396,229.695,543.84,229.259,544.748,229.286z M543.164,313.83C544.479,311.771,543.934,315.581,543.164,313.83L543.164,313.83z
	 M543.164,288.469C542.941,288.245,543.512,288.814,543.164,288.469L543.164,288.469z M544.219,374.067
	C545.149,376.73,540.557,376.702,544.219,374.067L544.219,374.067z M540.521,323.867
	C540.632,322.29,542.715,324.377,540.521,323.867L540.521,323.867z M536.82,215.55C536.928,213.965,539.02,216.054,536.82,215.55
	L536.82,215.55z M538.938,369.84c-0.654,0.76-1.815,1-3.172,1.055c-0.277-0.42-0.551-0.855-0.527-1.577
	C536.288,368.257,537.756,369.479,538.938,369.84z M534.709,355.047c0.185-0.695,0.932-0.832,1.057-1.584
	C537.079,353.676,535.797,355.51,534.709,355.047z M529.955,349.237c-0.078,1.152-1.334,1.133-2.644,1.055
	C526.941,348.458,529.164,348.398,529.955,349.237z M525.727,206.035c-0.125,0.931-0.906,1.209-2.115,1.055
	C523.741,206.165,524.523,205.893,525.727,206.035z M525.199,369.84C525.547,370.188,524.977,369.618,525.199,369.84L525.199,369.84
	z M523.089,352.402c1.24-0.013,1.55,0.912,3.165,0.527C526.385,355.042,522.635,354.787,523.089,352.402z M528.367,384.638
	C526.764,386.591,526.588,383.031,528.367,384.638L528.367,384.638z M528.9,351.347C529.52,349.741,531.7,351.921,528.9,351.347
	L528.9,351.347z M533.126,383.054C534.945,384.414,530.41,384.327,533.126,383.054L533.126,383.054z M535.766,217.133
	c-0.547,1.219-1.088,2.431-2.115,3.171C532.543,219.5,534.209,217.021,535.766,217.133z M534.182,422.153
	C533.96,421.933,534.529,422.496,534.182,422.153L534.182,422.153z M534.182,412.116c0-0.532,0-1.061,0-1.588
	c0.527,0,1.057,0,1.584,0C535.863,411.682,535.336,412.21,534.182,412.116z M536.293,427.964c-0.348,0-0.703,0-1.055,0
	c0-0.351,0-0.703,0-1.055c0.352,0,0.707,0,1.055,0C536.293,427.261,536.293,427.613,536.293,427.964z M535.766,382.521
	c-0.399-0.829-1.676-0.787-1.584-2.112c1.663-0.253,2.064,0.752,3.172,1.057C537.232,382.229,535.775,381.649,535.766,382.521z
	 M538.409,408.417C538.756,408.761,538.186,408.195,538.409,408.417L538.409,408.417z M538.938,379.354
	C538.716,379.133,539.283,379.698,538.938,379.354L538.938,379.354z M541.053,416.866
	C541.154,415.287,543.248,417.376,541.053,416.866L541.053,416.866z M539.465,388.337c0.449-0.787,1.328-1.135,2.645-1.055
	C542.029,388.434,540.774,388.416,539.465,388.337z M543.164,411.584c-0.727-2.13,0.945-1.869,1.584-2.645
	C545.961,409.518,544.952,412.265,543.164,411.584z M545.279,414.229c-0.716-0.163-0.439-1.324-0.531-2.112
	c0.855-0.152,0.911,0.496,1.589,0.523C546.628,413.811,545.327,413.395,545.279,414.229z M542.637,390.976c0-0.879,0-1.76,0-2.639
	c2.148-0.046,5.269-2.946,5.811,0C544.572,387.276,544.971,390.495,542.637,390.976z M548.98,399.957
	c-0.539-1.586,1.176-0.934,2.11-1.056C550.961,399.832,550.178,400.105,548.98,399.957z M551.091,431.135
	c-2.449-0.184-0.282-3.411-0.528-4.753C553.582,426.827,550.758,430.396,551.091,431.135z M551.238,286.443
	c0.079-0.035,0.319-0.139,0.797-0.346c0.223-0.093,0.459-0.196,0.639-0.269v-0.006c0.102-0.041,0.167-0.067,0.217-0.092
	c0.121-0.051,0.146-0.061,0,0c-0.055,0.027-0.13,0.055-0.217,0.098c-0.256,0.106-0.462,0.193-0.639,0.269
	C551.679,286.254,551.341,286.397,551.238,286.443z M552.146,338.667c0.459-0.773,0.791-1.677,2.115-1.589
	C554.419,338.476,553.531,338.818,552.146,338.667z M553.73,412.116c-1.186-0.556,0.693-2.435,2.116-2.115
	C555.68,411.242,554.21,411.182,553.73,412.116z M555.847,405.246C555.629,405.022,556.192,405.588,555.847,405.246L555.847,405.246
	z M561.655,222.943C562.004,223.29,561.434,222.726,561.655,222.943L561.655,222.943z M559.018,219.776
	C559.359,220.125,558.794,219.555,559.018,219.776L559.018,219.776z M559.018,427.964
	C559.119,426.385,561.212,428.471,559.018,427.964L559.018,427.964z M560.072,385.165c-1.791-0.145-1.809-2.063-3.698-2.111
	c0.222-1.893,1.687-2.541,3.698-2.645C559.518,382.614,561.186,383.99,560.072,385.165z M560.072,231.927
	c0.186-1.403,1.385-1.779,2.641-2.112C562.037,230.722,561.625,231.893,560.072,231.927z M603.401,377.238
	C603.747,377.581,603.178,377.021,603.401,377.238L603.401,377.238z M598.117,362.446c0.319,2.958-1.268,4.014-4.227,3.698
	C594.649,364.261,595.711,362.676,598.117,362.446z M591.248,402.603C592.561,400.542,592.021,404.353,591.248,402.603
	L591.248,402.603z M586.492,209.739C586.271,209.513,586.838,210.085,586.492,209.739L586.492,209.739z M587.547,276.841
	c-0.227,0.653-0.676,1.088-1.583,1.057C586.195,277.25,586.64,276.813,587.547,276.841z M580.681,413.172
	c0.333-2.957,3.395-1.796,5.812-1.588C584.77,412.334,582.764,412.792,580.681,413.172z M582.266,429.021
	c0.082,1.319-0.83,1.638-1.058,2.644C580.687,430.871,580.246,429.021,582.266,429.021z M580.153,404.188
	C580.26,402.605,582.348,404.689,580.153,404.188L580.153,404.188z M580.681,361.391
	C580.459,361.169,581.029,361.733,580.681,361.391L580.681,361.391z M581.208,398.374c0.528,0,1.058,0,1.589,0
	c-0.189,0.695-0.934,0.83-1.061,1.583C581.121,399.875,581.293,398.999,581.208,398.374z M583.324,367.202
	C583.104,366.979,583.672,367.544,583.324,367.202L583.324,367.202z M586.492,315.419
	C585.104,317.344,583.431,315.679,586.492,315.419L586.492,315.419z M586.23,372.35C586.106,372.413,586.076,372.428,586.23,372.35
	L586.23,372.35z M586.315,372.308c0.27-0.135,0.749-0.374,1.024-0.513c-0.08,0.039-0.182,0.097-0.314,0.16
	C586.683,372.128,586.455,372.238,586.315,372.308z M584.379,258.877c0.354,0,0.706,0,1.058,0c0,0.354,0,0.704,0,1.057
	c-0.352,0-0.704,0-1.058,0C584.379,259.581,584.379,259.23,584.379,258.877z M583.324,356.103
	C583.431,354.523,585.516,356.606,583.324,356.103L583.324,356.103z M583.324,237.213
	C585.146,238.58,580.602,238.492,583.324,237.213L583.324,237.213z M582.797,255.178
	C583.139,255.521,582.575,254.959,582.797,255.178L582.797,255.178z M582.266,315.419c0.615,0.791,1.527,1.287,1.586,2.64
	C582.199,318.299,582.162,316.929,582.266,315.419z M582.797,321.757c-0.764,1.565-1.18,0.455-3.177,1.056
	C580.047,321.693,581.797,320.754,582.797,321.757z M581.208,238.796C583.463,238.796,576.131,239.561,581.208,238.796
	L581.208,238.796z M578.043,217.133C578.385,217.48,577.819,216.911,578.043,217.133L578.043,217.133z M576.982,287.411
	C577.324,287.754,576.76,287.19,576.982,287.411L576.982,287.411z M576.982,377.767
	C578.801,379.133,574.264,379.045,576.982,377.767L576.982,377.767z M578.043,389.393c0.527,1.588-1.182,0.936-2.115,1.055
	C576.273,389.74,577.055,389.468,578.043,389.393z M576.455,322.285C572.893,322.748,576.746,318.893,576.455,322.285
	L576.455,322.285z M575.928,403.657c0.29,1.171-1.011,0.756-1.059,1.589C573.557,405.028,574.838,403.194,575.928,403.657z
	 M575.928,419.51c0,0.352,0,0.71,0,1.058c-0.359,0-0.707,0-1.059,0c0-0.348,0-0.706,0-1.058
	C575.221,419.51,575.568,419.51,575.928,419.51z M574.339,402.603C574.115,402.379,574.689,402.948,574.339,402.603L574.339,402.603
	z M574.339,416.866C576.111,415.589,573.064,418.646,574.339,416.866L574.339,416.866z M573.814,391.508
	C574.157,391.856,573.592,391.286,573.814,391.508L573.814,391.508z M572.754,271.559
	C572.537,271.336,573.102,271.906,572.754,271.559L572.754,271.559z M572.227,311.72
	C572.004,311.497,572.574,312.065,572.227,311.72L572.227,311.72z M570.116,404.188c0.939,0.385,0.073,0.961,0,1.585
	C569.17,405.389,570.037,404.811,570.116,404.188z M568.527,199.169C568.873,199.517,568.306,198.946,568.527,199.169
	L568.527,199.169z M568.527,309.077c-0.185,0.693-0.932,0.833-1.056,1.582C566.157,310.446,567.439,308.613,568.527,309.077z
	 M566.411,154.785C566.193,154.559,566.764,155.133,566.411,154.785L566.411,154.785z M565.889,201.28
	C566.23,201.627,565.666,201.062,565.889,201.28L565.889,201.28z M568.527,411.056c-0.064,1.166-2.24,0.224-3.172,0.528
	C565.805,410.575,567.676,410.158,568.527,411.056z M565.355,427.964C565.703,428.312,565.133,427.743,565.355,427.964
	L565.355,427.964z M565.355,430.607c0.11-0.879,3.927-2.125,3.7,0C567.912,429.419,567.254,431.044,565.355,430.607z
	 M565.355,415.284c0.629-0.959,2.756-0.413,3.7-1.056C568.546,415.302,567.027,415.371,565.355,415.284z M567.999,408.939
	c0.483-0.92,0.982-1.833,2.64-1.583C570.676,408.939,569.088,410.036,567.999,408.939z M570.116,272.614
	c0.227-0.647,0.67-1.082,1.578-1.056C571.468,272.208,571.019,272.647,570.116,272.614z M572.227,436.42
	C572.332,434.836,574.421,436.928,572.227,436.42L572.227,436.42z M571.694,425.326c0.185-1.408,1.39-1.788,2.645-2.115
	C573.917,424.372,573.278,425.321,571.694,425.326z M573.814,444.347C574.436,442.739,576.615,444.92,573.814,444.347
	L573.814,444.347z M576.455,436.947c-0.354,0-0.704,0-1.056,0c0-0.353,0-0.704,0-1.057c0.352,0,0.702,0,1.056,0
	C576.455,436.243,576.455,436.595,576.455,436.947z M576.982,415.284c-1.533-0.095-1.274-2.51,0.527-2.112
	C577.736,414.273,577.148,414.571,576.982,415.284z M578.043,407.356C578.385,407.705,577.819,407.139,578.043,407.356
	L578.043,407.356z M576.982,309.604c0.527,0,1.061,0,1.582,0c0,0.527,0,1.055,0,1.588
	C577.412,311.283,576.888,310.756,576.982,309.604z M578.564,338.14C578.343,337.916,578.912,338.481,578.564,338.14L578.564,338.14
	z M578.564,443.818C579.189,442.212,581.371,444.393,578.564,443.818L578.564,443.818z M578.564,435.363
	c0.658-1.453,1.668-2.564,3.701-2.644C584.158,435.582,582.863,436.762,578.564,435.363z M581.736,426.382
	c1.051-0.879,0.672,0.046,2.115,0C584.27,428.413,581.32,428.413,581.736,426.382z M586.492,444.874
	C586.838,445.222,586.271,444.651,586.492,444.874L586.492,444.874z M588.08,411.056c-0.357,0-0.709,0-1.055,0
	c0-0.353,0-0.704,0-1.055c0.346,0,0.697,0,1.055,0C588.08,410.352,588.08,410.703,588.08,411.056z M591.778,360.33
	c-0.343,1.073-2.471,0.348-2.644,1.583C587.416,360.399,590.523,359.261,591.778,360.33z M590.918,409.051
	c-0.148,0.089-0.395,0.229-0.615,0.357c-0.148,0.089-0.287,0.167-0.38,0.222c0.061-0.037,0.148-0.087,0.267-0.157
	c0.043-0.024,0.07-0.042,0.113-0.064C590.604,409.232,590.803,409.115,590.918,409.051z M589.662,438.535
	c0.08-1.158,1.335-1.135,2.644-1.061C591.857,438.262,590.979,438.614,589.662,438.535z M589.135,431.665
	c0.428-1.121,2.177-2.061,3.171-1.058C591.654,431.363,590.487,431.608,589.135,431.665z M591.778,427.964
	C591.881,426.385,593.974,428.471,591.778,427.964L591.778,427.964z M590.719,416.866c-0.756-0.648-0.996-1.813-1.057-3.165
	c1.237,0,2.469,0,3.701,0C593.322,415.594,591.316,415.528,590.719,416.866z M593.363,389.393
	C591.375,391.66,594.716,387.846,593.363,389.393L593.363,389.393z M593.363,388.337c0-0.533,0-1.055,0-1.588
	C594.904,385.976,594.904,389.114,593.363,388.337z M597.062,403.657c-0.936-0.121-2.648,0.531-2.112-1.055
	c0.945,0.067,1.111-0.648,2.112-0.53C597.062,402.603,597.062,403.134,597.062,403.657z M597.59,426.909
	C597.936,427.257,597.368,426.688,597.59,426.909L597.59,426.909z M596.529,400.49c-0.158-1.395,1.105-1.365,2.116-1.589
	C598.904,400.096,597.32,402.072,596.529,400.49z M598.646,412.64c-0.292-1.166,1.009-0.751,1.056-1.584
	C601.021,411.273,599.732,413.107,598.646,412.64z M600.762,408.939C599.16,410.899,598.984,407.338,600.762,408.939
	L600.762,408.939z M599.701,435.363c-0.244-1.13,0.76-1.009,1.588-1.055C601.058,434.957,600.613,435.392,599.701,435.363z
	 M601.816,398.374c-0.879,0-1.759,0-2.644,0c-0.773-2.009,2.366-0.101,1.589-2.11C602.35,395.728,601.697,397.44,601.816,398.374z
	 M602.344,446.462c-0.162-1.394,1.107-1.367,2.113-1.588C604.617,446.268,603.729,446.61,602.344,446.462z M604.457,438.008
	C604.234,437.786,604.808,438.351,604.457,438.008L604.457,438.008z M604.99,388.337c-0.049,0.325-0.079,0.546-0.104,0.709
	c-0.019,0.129-0.033,0.217-0.036,0.264c0.003-0.051,0.018-0.148,0.036-0.264C604.975,388.407,605.169,387.082,604.99,388.337z
	 M605.518,425.849C605.863,426.196,605.294,425.633,605.518,425.849L605.518,425.849z M607.1,423.211c-0.352,0-0.703,0-1.055,0
	c0-0.353,0-0.704,0-1.058c0.352,0,0.703,0,1.055,0C607.1,422.507,607.1,422.858,607.1,423.211z M605.518,404.188
	c0.124-0.931,0.906-1.207,2.109-1.055C607.503,404.061,606.721,404.333,605.518,404.188z M604.457,366.674
	c-0.158-1.921,2.818-0.709,3.703-1.588C608.117,366.808,605.762,366.214,604.457,366.674z M610.799,392.563
	C612.572,391.286,609.521,394.333,610.799,392.563L610.799,392.563z M620.842,427.964
	C621.184,428.312,620.619,427.743,620.842,427.964L620.842,427.964z M619.254,437.475c0.232-0.646,0.676-1.083,1.588-1.055
	C620.605,437.067,620.162,437.507,619.254,437.475z M620.842,432.192C622.156,430.132,621.611,433.942,620.842,432.192
	L620.842,432.192z M621.365,389.92c0.186-0.64,1.407-0.426,1.588,0C623.434,391.062,621.018,391.142,621.365,389.92z
	 M641.445,390.447c-0.445,0.788-1.33,1.14-2.64,1.061C639.657,390.897,640.479,389.434,641.445,390.447z M634.574,389.393
	C636.354,388.115,633.301,391.166,634.574,389.393L634.574,389.393z M628.235,413.701c0.093-1.668,0.372-3.155,2.116-3.173
	C629.314,411.256,630.015,413.714,628.235,413.701z M634.052,414.229C633.828,414.004,634.395,414.571,634.052,414.229
	L634.052,414.229z M634.052,416.345c1.272,0.212,1.144-0.97,2.638-0.533C637.469,417.481,633.658,418.352,634.052,416.345z
	 M636.162,436.42C635.941,436.197,636.51,436.768,636.162,436.42L636.162,436.42z M637.217,430.607
	c0.131-0.931,0.91-1.206,2.116-1.055C639.209,430.479,638.426,430.757,637.217,430.607z M636.162,426.909
	c-0.203-1.561,4.599-2.73,4.756-0.527C638.745,425.97,638.209,427.19,636.162,426.909z M639.861,422.684
	C640.824,419.773,643.553,422.501,639.861,422.684L639.861,422.684z"/>
</svg>
