<?xml version="1.0" encoding="utf-8"?>
<!-- Generator: Adobe Illustrator 16.0.0, SVG Export Plug-In . SVG Version: 6.00 Build 0)  -->
<!DOCTYPE svg PUBLIC "-//W3C//DTD SVG 1.1//EN" "http://www.w3.org/Graphics/SVG/1.1/DTD/svg11.dtd">
<svg version="1.1" id="Layer_1" xmlns="http://www.w3.org/2000/svg" xmlns:xlink="http://www.w3.org/1999/xlink" x="0px" y="0px"
	 width="800px" height="400px" viewBox="0 0 800 400" enable-background="new 0 0 800 400" xml:space="preserve">
<g>
	<path fill-rule="evenodd" clip-rule="evenodd" fill="#444444" d="M398.828,50.038c-0.746,0.3-1.395,0.748-2.068,0.795
		c-1.504,0.104-3.029-0.105-4.532,0.012c-9.174,0.719-18.314-0.468-27.477-0.412c-6.235,0.038-12.472-0.044-18.707,0.011
		c-7.253,0.064-14.507,0.331-21.76,0.303c-6.052-0.024-12.102-0.452-18.155-0.508c-4.714-0.043-9.433,0.253-14.15,0.323
		c-4.032,0.061-8.065,0.015-12.098,0.018c-4.003,0.003-8.006,0.033-12.01,0.041c0.213,0.066,0.4,0.211,0.524,0.461
		c-0.119,0.764-1.579,0.186-1.589,1.055c-1.042-0.449-0.361-1.314,0.435-1.516c-2.682,0.003-5.362-0.003-8.043-0.044
		c-7.459-0.111-14.915-0.589-22.371-0.576c-7.574,0.012-15.149,0.633-22.724,0.614c-9.685-0.023-19.368-0.579-29.053-0.602
		c-5.936-0.013-11.873,0.533-17.808,0.848c-1.979,0.105-4.14,0.848-5.891,0.283c-2.863-0.925-5.53-0.249-8.212,0.131
		c-0.872,0.124-2.043,1.664-2.181,2.678c-0.237,1.755,0.341,3.603,0.372,5.414c0.112,6.489-0.035,12.988,0.242,19.471
		c0.382,8.929-2.264,17.654-1.401,26.634c0.575,5.978,0.27,12.036,0.682,18.036c0.117,1.695,0.322,4.331,2.756,4.491
		c5.533,0.363,11.092,0.378,16.643,0.426c5.242,0.045,10.487-0.128,15.729-0.053c4.013,0.056,8.021,0.357,12.031,0.528
		c0.542,0.022,1.092-0.107,1.639-0.129c2.453-0.096,4.906-0.192,7.359-0.262c3.867-0.108,7.737-0.178,11.604-0.297
		c5.437-0.166,10.874-0.348,16.309-0.558c1.33-0.052,1.821,0.496,1.852,1.814c0.012,0.485,0.031,0.971,0.047,1.457
		c0.756-0.626,1.609-1.156,3.038-1.111c0.058,1.694-1.542,1.729-3.014,1.892c0.141,4.099,0.362,8.196,0.386,12.296
		c0.055,9.856-0.095,19.714-0.036,29.571c0.047,7.857,0.276,15.714,0.425,23.57c0.144,7.594,0.349,15.187,0.405,22.78
		c0.039,5.247-0.243,10.497-0.176,15.743c0.103,7.769,0.437,15.536,0.586,23.305c0.195,10.096,0.34,20.191,0.438,30.289
		c0.035,3.54-0.126,7.082-0.219,10.623c-0.062,2.379-0.263,4.758-0.22,7.134c0.027,1.522,0.07,3.045,0.117,4.567
		c0.537-0.075,1.174-0.051,1.836-0.001c-0.714,0.411-1.144,1.105-1.784,1.589c0.106,3.256,0.223,6.512,0.271,9.768
		c0.02,1.409-0.772,2.894-0.534,4.226c0.867,4.831,0.29,9.622,0.052,14.435c-0.02,0.387-0.022,0.77-0.016,1.149
		c1.197-0.834,2.212-1.889,2.012-3.687c1.759,0,3.523,0,5.281,0c-1.389,1.648-4.198,0.417-2.11,3.171
		c-1.897,0.35-3.62,0.874-5.11,1.63c0.181,1.67,0.733,3.239,2.033,4.603c0.777,0.815,1.397,1.271,2.632,0.99
		c1.851-0.419,3.78-0.783,5.662-0.725c4.412,0.135,8.812,0.611,13.223,0.808c5.387,0.239,10.778,0.456,16.168,0.46
		c6.943,0.004,13.888-0.172,20.829-0.355c3.23-0.084,6.459-0.326,9.682-0.582c1.645-0.131,2.83-1.274,2.837-2.773
		c0.012-2.5-0.493-4.999-0.728-7.504c-0.172-1.824-0.406-3.659-0.354-5.483c0.2-6.968,0.53-13.933,0.756-20.901
		c0.062-1.897-0.249-3.817-0.081-5.699c0.343-3.847,0.854-7.654,1.027-11.505c-0.111,0.1-0.393,0.136-0.939,0.011
		c0.06-0.896,0.752-0.618,0.947-0.299c0.09-2.226,0.068-4.467-0.172-6.738c-0.68-6.425-0.281-12.968-0.266-19.459
		c0.013-5.215,0.247-10.43,0.188-15.644c-0.016-1.437-0.954-2.793,0.29-4.25c0.379-0.444-0.033-1.583-0.122-2.398
		c-0.043-0.396-0.269-0.786-0.252-1.172c0.126-3.058,0.383-6.112,0.418-9.17c0.033-2.871-0.263-5.746-0.227-8.619
		c0.08-6.537,0.255-13.073,0.445-19.608c0.031-1.061,0.493-2.111,0.497-3.167c0.019-5.651-0.045-11.304-0.08-16.955
		c-0.021-3.597,0.023-7.194-0.075-10.788c-0.104-3.789-0.38-7.574-0.515-11.363c-0.237-6.646,1.389-13.305-0.17-19.949
		c-0.292-1.245-0.453-2.555-0.433-3.832c0.029-1.769,0.371-3.531,0.426-5.303c0.079-2.543,0.021-5.09,0.021-7.543
		c1.389-0.346,2.553-0.846,3.734-0.887c2.703-0.096,5.414,0.11,8.119,0.056c7.229-0.148,14.458-0.36,21.685-0.575
		c1.146-0.034,2.292-0.353,3.426-0.301c3.466,0.16,6.922,0.557,10.387,0.64c5.582,0.136,11.173,0.229,16.754,0.098
		c7.722-0.182,15.442-0.546,23.156-0.955c0.801-0.043,2.082-0.794,2.239-1.438c0.521-2.141,0.834-4.381,0.845-6.585
		c0.011-2.283-0.477-4.562-0.645-6.853c-0.103-1.423-0.007-2.859-0.016-4.289c-0.015-2.099,0.019-4.2-0.082-6.295
		c-0.095-1.938-0.463-3.865-0.481-5.801c-0.019-1.834,0.322-3.668,0.395-5.508c0.142-3.564,0.233-7.13,0.358-10.693
		c-0.076,0.131-0.348,0.199-0.971,0.058c0.064-0.956,0.844-0.58,0.978-0.238c0.034-0.957,0.059-1.916,0.102-2.873
		c0.061-1.347,0.492-2.674,0.609-4.022c0.131-1.521,0.089-3.057,0.144-4.585c0.02-0.536,0.171-1.074,0.147-1.606
		c-0.12-2.762-0.438-5.525-0.385-8.281C402.684,54.665,402.623,51.519,398.828,50.038z M155.847,53.197c0.53,0,1.056,0,1.586,0
		c0.987,2.397-2.101,0.718-1.586,2.64C154.609,55.703,155.54,53.518,155.847,53.197z M153.207,119.248
		C153.309,117.666,155.4,119.749,153.207,119.248L153.207,119.248z M153.73,126.115C154.504,124.365,155.044,128.177,153.73,126.115
		L153.73,126.115z M154.789,124.004c-1.373,0.313-1.901-0.214-1.582-1.583c0.523,0,1.055,0,1.582,0
		C154.789,122.943,154.789,123.477,154.789,124.004z M154.789,90.187c0.232-0.652,0.676-1.088,1.588-1.062
		C156.623,90.256,155.619,90.136,154.789,90.187z M156.902,64.295C157.527,62.688,159.707,64.864,156.902,64.295L156.902,64.295z
		 M164.3,81.201c0.126-0.928,0.907-1.206,2.116-1.058C166.944,81.737,165.24,81.08,164.3,81.201z M167.472,57.953
		c0.231-0.649,0.677-1.085,1.584-1.056C168.824,57.544,168.379,57.979,167.472,57.953z M184.909,68.522
		c-0.127,0.927-0.909,1.205-2.112,1.056C182.264,67.986,183.969,68.642,184.909,68.522z M179.625,56.897
		c2.462,0.203-0.227,2.901-2.109,2.11C177.25,57.341,180.135,58.813,179.625,56.897z M171.172,80.671c0-0.527,0-1.05,0-1.582
		C172.708,78.31,172.708,81.456,171.172,80.671z M173.812,88.604c-0.528-1.594,1.175-0.939,2.116-1.061
		C175.801,88.474,175.018,88.746,173.812,88.604z M176.455,94.937c0.124-0.922,0.906-1.2,2.109-1.051
		C179.098,95.474,177.395,94.816,176.455,94.937z M175.928,63.233c-0.438-1.489,0.744-1.369,0.527-2.638
		c1.246-0.015,1.555,0.907,3.17,0.524C178.955,62.388,177.898,63.276,175.928,63.233z M180.681,114.492c-0.351,0-0.704,0-1.056,0
		c0-0.354,0-0.707,0-1.055c0.352,0,0.705,0,1.056,0C180.681,113.785,180.681,114.138,180.681,114.492z M181.209,75.39
		C182.098,73.522,182.863,77.115,181.209,75.39L181.209,75.39z M182.264,85.431c-1.359-0.686-1.222-2.565,1.061-2.114
		C182.639,84.557,183.594,84.496,182.264,85.431z M183.324,78.561c0.33-1.611,1.173-2.698,3.171-2.643
		C185.982,77.348,185.167,78.468,183.324,78.561z M191.251,91.241c1.001,0.228,1.324,1.141,2.64,1.055
		C193.649,93.336,190.187,93.248,191.251,91.241z M195.479,119.776c-0.356,0-0.707,0-1.061,0c0-0.352,0-0.707,0-1.056
		c0.354,0,0.704,0,1.061,0C195.479,119.069,195.479,119.425,195.479,119.776z M194.945,115.55
		C195.571,113.943,197.751,116.12,194.945,115.55L194.945,115.55z M215.026,67.989c1.478,1.177-1.778,2.065-3.694,1.589
		C211.975,68.467,214.508,69.235,215.026,67.989z M209.743,54.254c-0.13,0.931-0.907,1.203-2.11,1.059
		C207.758,54.379,208.54,54.109,209.743,54.254z M201.816,122.943C203.586,121.665,200.539,124.717,201.816,122.943L201.816,122.943
		z M204.984,115.022c-0.223-1.464,1.973-0.496,2.115-1.585C208.934,114.513,205.775,116.405,204.984,115.022z M204.46,89.658
		c0.797-1.597,2.321,0.44,3.694,0C207.082,90.857,205.391,90.826,204.46,89.658z M208.683,110.791
		C211.78,111.498,206.775,113.286,208.683,110.791L208.683,110.791z M209.743,88.604c-0.81,0.324,1.158-0.47,1.533-0.615
		C211.129,88.047,210.68,88.229,209.743,88.604z M210.271,87.015c0-0.351,0-0.703,0-1.061c1.062-0.176,1.655,0.116,1.585,1.061
		C211.332,87.015,210.799,87.015,210.271,87.015z M212.914,82.26c0.076-0.038,0.12-0.061,0.178-0.089
		c-0.39,0.195-0.997,0.499-1.065,0.528C212.072,82.677,212.316,82.556,212.914,82.26z M212.914,88.07
		C213.023,86.491,215.109,88.58,212.914,88.07L212.914,88.07z M213.966,78.033C216.979,76.13,216.291,79.37,213.966,78.033
		L213.966,78.033z M220.312,62.706C221.629,60.647,221.083,64.458,220.312,62.706L220.312,62.706z M221.369,66.407
		c-0.355,0-0.703,0-1.057,0c0-0.352,0-0.703,0-1.056c0.354,0,0.701,0,1.057,0C221.369,65.704,221.369,66.056,221.369,66.407z
		 M223.485,91.241c0.224-0.647,0.673-1.082,1.579-1.055C225.314,91.316,224.309,91.19,223.485,91.241z M225.598,90.187
		C226.912,88.125,226.361,91.941,225.598,90.187L225.598,90.187z M226.119,119.248C226.225,117.666,228.32,119.749,226.119,119.248
		L226.119,119.248z M227.18,85.431c0.459-0.777,0.422-2.047,2.117-1.587C229.453,85.232,228.561,85.578,227.18,85.431z
		 M229.297,54.785C229.398,53.197,231.49,55.29,229.297,54.785L229.297,54.785z M230.879,86.487
		C230.986,84.902,233.073,86.991,230.879,86.487L230.879,86.487z M231.936,81.731c-0.166,0.397-0.26,0.606-0.293,0.682
		c0.088-0.2,0.529-1.237,0.612-1.431C232.227,81.062,232.131,81.277,231.936,81.731z M234.58,71.689
		C233.134,70.082,236.186,73.134,234.58,71.689L234.58,71.689z M279.49,301.018C281.098,299.577,278.051,302.625,279.49,301.018
		L279.49,301.018z M278.439,62.706C280.042,60.753,280.219,64.313,278.439,62.706L278.439,62.706z M275.268,127.171
		c-0.129,0.931-0.912,1.209-2.116,1.061C273.275,127.301,274.064,127.027,275.268,127.171z M272.623,249.759
		C274.91,249.982,272.063,252.83,272.623,249.759L272.623,249.759z M271.568,172.087
		C271.676,170.504,273.764,172.591,271.568,172.087L271.568,172.087z M268.396,268.257c0.691,0.186,0.831,0.931,1.585,1.061
		c0.098,0.443-0.205,0.495-0.527,0.522c-0.354,0-0.705,0-1.058,0C268.396,269.317,268.396,268.784,268.396,268.257z M267.18,264.932
		c-0.061,0.111-0.145,0.265-0.254,0.473C267.004,265.252,267.104,265.071,267.18,264.932z M266.807,265.613
		c0.021-0.028,0.034-0.057,0.049-0.084c-0.033,0.065-0.061,0.116-0.084,0.153C266.786,265.664,266.795,265.646,266.807,265.613z
		 M265.225,267.729c0.292,1.171-1.01,0.748-1.055,1.588C262.854,269.1,264.137,267.263,265.225,267.729z M263.114,73.805
		c0.246,1.131-0.76,1.006-1.588,1.058C261.758,74.214,262.201,73.777,263.114,73.805z M260.998,286.225c0.355,0,0.704,0,1.056,0
		c0,0.699,0,1.403,0,2.112c-0.352,0-0.7,0-1.056,0C260.998,287.628,260.998,286.924,260.998,286.225z M260.471,86.487
		c-0.354,0.707-1.13,0.98-2.115,1.056C257.822,85.954,259.535,86.606,260.471,86.487z M252.016,78.561
		c-0.223,1.186-2.898-0.078-2.644,1.583C247.812,81.056,250.956,76.782,252.016,78.561z M246.205,59.008
		c0.768,0.292,2.731-0.615,2.639,0.533C249.238,61.55,245.427,60.679,246.205,59.008z M247.261,107.09
		c0.851-0.143,0.906,0.501,1.583,0.533C249.059,108.646,246.441,108.393,247.261,107.09z M246.732,312.64
		C246.839,311.062,248.928,313.149,246.732,312.64L246.732,312.64z M244.616,55.312C244.729,53.73,246.812,55.813,244.616,55.312
		L244.616,55.312z M243.562,57.953c0,0.703,0,1.411,0,2.115C241.967,60.042,241.252,57.805,243.562,57.953z M240.391,126.115
		c0.23-0.648,0.676-1.083,1.582-1.061C242.223,126.186,241.223,126.063,240.391,126.115z M240.391,181.603
		C240.497,180.018,242.584,182.105,240.391,181.603L240.391,181.603z M241.449,52.136c0.246,1.131-0.754,1.01-1.588,1.062
		C240.094,52.545,240.537,52.113,241.449,52.136z M239.861,195.865c0.366-1.046,1.412-1.406,2.645-1.582
		C242.141,195.32,241.094,195.69,239.861,195.865z M239.861,332.192c0.129-0.931,0.912-1.203,2.111-1.058
		C242.51,332.725,240.797,332.077,239.861,332.192z M241.449,336.42C242.074,334.812,244.25,336.994,241.449,336.42L241.449,336.42z
		 M242.506,62.706c-0.62-0.082-0.449-0.962-0.533-1.586C243.732,60.758,242.828,62.216,242.506,62.706z M243.033,142.497
		C244.348,140.436,243.802,144.246,243.033,142.497L243.033,142.497z M244.616,128.759c0.231-0.648,0.677-1.089,1.589-1.055
		C246.445,128.828,245.445,128.707,244.616,128.759z M247.261,335.363c-0.358,0-0.709,0-1.056,0
		c0.277-0.427,0.552-0.856,0.527-1.588c0.57,0.135,0.357,1.055,1.057,1.061C247.882,335.285,247.584,335.331,247.261,335.363z
		 M247.261,279.878C247.363,278.299,249.455,280.386,247.261,279.878L247.261,279.878z M248.32,310.528
		C249.631,308.469,249.085,312.279,248.32,310.528L248.32,310.528z M249.9,111.321c-0.349,0-0.703,0-1.057,0
		c0-0.351,0-0.703,0-1.058c0.354,0,0.708,0,1.057,0C249.9,110.618,249.9,110.971,249.9,111.321z M251.488,316.866
		c0.273-0.776,0.782-1.328,1.057-2.109c1.697-0.464,0.727,1.739,2.109,1.588C254.354,318.084,252.663,317.099,251.488,316.866z
		 M253.072,294.676C253.178,293.091,255.266,295.186,253.072,294.676L253.072,294.676z M254.654,264.028c-0.347,0-0.703,0-1.049,0
		c0-0.352,0-0.703,0-1.059c0.346,0,0.702,0,1.049,0C254.654,263.325,254.654,263.677,254.654,264.028z M252.545,202.204
		c0.346-0.708,1.124-0.981,2.109-1.055C255.188,202.742,253.484,202.09,252.545,202.204z M258.887,251.347
		c-0.232,0.649-0.676,1.084-1.583,1.056C257.053,251.274,258.053,251.398,258.887,251.347z M258.887,301.545
		c-0.352,0-0.71,0-1.062,0c0-0.351,0-0.707,0-1.055c0.352,0,0.71,0,1.062,0C258.887,300.838,258.887,301.194,258.887,301.545z
		 M258.355,274.599C258.461,273.011,260.547,275.104,258.355,274.599L258.355,274.599z M259.938,289.92
		c0.236-0.648,0.676-1.083,1.589-1.055C261.775,289.995,260.775,289.874,259.938,289.92z M265.225,313.172
		C265.331,311.589,267.419,313.671,265.225,313.172L265.225,313.172z M264.697,301.018c-1.412-0.772,0.218-2.898,1.588-2.644
		C266.531,300.035,264.859,299.771,264.697,301.018z M261.526,298.374c2.286-0.837,2.73-5.893,5.813-4.223
		C264.743,294.896,264.479,297.98,261.526,298.374z M267.868,271.955c-1.001-0.352,2.422-2.318,3.167-1.061
		C270.666,273.011,268.56,270.928,267.868,271.955z M269.98,317.924c-0.69,0.264-0.232-2.616,1.055-2.112
		C271.424,317.256,269.989,316.876,269.98,317.924z M273.151,310.001c-1.296-0.464-3.052-0.478-3.171-2.116
		c1.435-0.889,2.472,0.839,3.171-1.057C274.328,307.051,273.568,309.636,273.151,310.001z M274.207,291.508
		c-0.615-0.087-0.443-0.967-0.528-1.588C275.438,289.559,274.531,291.014,274.207,291.508z M275.79,304.719
		c-0.353,0-0.704,0-1.056,0c0-0.352,0-0.709,0-1.062c0.352,0,0.703,0,1.056,0C275.79,304.01,275.79,304.367,275.79,304.719z
		 M275.79,270.373C275.901,268.79,277.984,270.877,275.79,270.373L275.79,270.373z M278.963,125.055
		c-0.079,1.32-1.787,0.163-2.111,0C277.323,123.29,278.031,124.597,278.963,125.055z M277.379,329.553
		c-0.514-2.097,1.527-1.644,2.64-2.116C279.342,328.344,278.924,329.517,277.379,329.553z M281.607,116.605
		c-0.623-0.088-0.449-0.964-0.528-1.583C282.832,114.656,281.932,116.114,281.607,116.605z M282.662,321.626
		c-0.617-0.088-0.445-0.968-0.527-1.589C283.893,319.677,282.986,321.131,282.662,321.626z M283.723,295.73
		c-1.538-0.736,0.148-2.607,0.527-3.167C285.751,293.269,283.842,294.911,283.723,295.73z M304.853,94.414
		C305.482,92.808,307.658,94.982,304.853,94.414L304.853,94.414z M298.516,99.169C299.141,97.562,301.32,99.741,298.516,99.169
		L298.516,99.169z M299.043,61.12c-1.218,0.722-2.357,1.522-4.229,1.586C295.176,61.133,296.922,60.938,299.043,61.12z
		 M295.342,65.88c-0.615-0.088-0.443-0.964-0.527-1.585C296.576,63.931,295.666,65.389,295.342,65.88z M293.754,274.599
		C295.069,272.534,294.533,276.351,293.754,274.599L293.754,274.599z M291.644,305.773
		C291.75,304.188,293.838,306.277,291.644,305.773L291.644,305.773z M286.36,180.014c0-0.352,0-0.705,0-1.057
		c1.061-0.18,1.654,0.107,1.585,1.057C287.421,180.014,286.888,180.014,286.36,180.014z M287.421,174.729
		C287.523,173.147,289.615,175.234,287.421,174.729L287.421,174.729z M289.403,255.949
		C289.38,256.116,289.38,256.085,289.403,255.949L289.403,255.949z M289.403,255.945c0.013-0.087,0.031-0.227,0.061-0.431
		C289.44,255.686,289.422,255.844,289.403,255.945z M289.533,255.047c-0.006,0.023-0.011,0.041-0.011,0.069
		c0.021-0.129,0.038-0.258,0.052-0.355C289.561,254.833,289.546,254.928,289.533,255.047z M291.116,296.792
		C291.223,295.207,293.311,297.296,291.116,296.792L291.116,296.792z M291.644,326.382c0.13-0.931,0.913-1.203,2.11-1.056
		C293.412,326.03,292.629,326.307,291.644,326.382z M293.754,332.192c-0.154-1.394,1.106-1.36,2.115-1.585
		C296.033,331.998,295.139,332.341,293.754,332.192z M295.869,284.638C297.643,283.359,294.594,286.405,295.869,284.638
		L295.869,284.638z M296.402,258.219c-0.082-1.314,0.826-1.633,1.056-2.644c0.765,0.119,0.185,1.578,1.058,1.587
		C298.168,257.867,297.385,258.145,296.402,258.219z M299.043,320.037C299.149,318.461,301.238,320.544,299.043,320.037
		L299.043,320.037z M298.516,261.913c-0.25-1.125,0.753-1.005,1.582-1.056C299.865,261.511,299.422,261.945,298.516,261.913z
		 M302.742,59.541C298.625,58.762,303.992,59.777,302.742,59.541L302.742,59.541z M301.686,97.053
		c0.19-0.448,0.287-0.671,0.319-0.746c-0.082,0.194-0.527,1.229-0.609,1.428C301.422,97.659,301.515,97.45,301.686,97.053z
		 M301.686,106.568C302.312,104.956,304.491,107.138,301.686,106.568L301.686,106.568z M302.214,65.352
		C302.316,63.767,304.409,65.855,302.214,65.352L302.214,65.352z M303.797,146.723C305.409,145.283,302.357,148.33,303.797,146.723
		L303.797,146.723z M306.969,284.109c-0.449,0.783-1.328,1.139-2.644,1.056C303.784,283.393,305.969,284.345,306.969,284.109z
		 M305.908,303.657c0.648-0.751,2.02-1.199,2.648-0.523C308.502,304.477,306.589,304.379,305.908,303.657z M309.081,318.982
		c-0.449-1.686,0.833-1.635,1.061-2.638C311.354,316.757,310.654,319.612,309.081,318.982z M311.725,80.144c0-0.352,0-0.704,0-1.055
		c0.703,0,1.412,0,2.115,0C314.373,80.68,312.66,80.024,311.725,80.144z M313.307,109.206c0-0.527,0-1.056,0-1.583
		C314.85,106.845,314.85,109.985,313.307,109.206z M315.423,90.187c-1.589-0.954,1.538-1.583,2.116-2.116
		C319.466,89.368,315.367,89.02,315.423,90.187z M320.179,88.604c-0.024-2.134,3.778-0.449,4.755-1.589
		C324.614,88.807,321.377,87.686,320.179,88.604z M322.822,53.725c-0.158-1.389,2.051-0.412,1.582-2.11
		c2.219-0.397-0.716,2.019,1.585,2.11C325.771,54.9,323.189,54.137,322.822,53.725z M331.277,63.233
		c0.443-0.782,1.698-0.757,2.638-1.055C333.999,63.722,331.777,63.786,331.277,63.233z M350.824,98.108
		C350.936,96.529,353.02,98.613,350.824,98.108L350.824,98.108z M358.752,75.918c0.063-1.344,0.769-2.047,2.111-2.113
		C361.111,75.46,360.404,76.162,358.752,75.918z M366.15,77.506c-0.936-0.121-2.648,0.527-2.112-1.056
		c0.945,0.064,1.112-0.648,2.112-0.532C366.15,76.45,366.15,76.973,366.15,77.506z M371.961,111.85
		c0.129-0.931,0.91-1.203,2.114-1.059C373.951,111.722,373.168,111.997,371.961,111.85z M380.332,75.333
		c0.045,0.574-1.85,3.445-0.968,1.117c0.036-0.108-0.075-0.46,0-0.532c0.382-0.386,0.634-0.585,0.782-0.649
		c-0.078-0.073-0.166-0.199-0.26-0.406C380.924,73.237,380.805,75.251,380.332,75.333z M382.53,63.767c0-0.351,0-0.708,0-1.061
		c0.882,0,1.764,0,2.644,0C385.716,64.485,383.527,63.531,382.53,63.767z M388.869,83.844
		C388.975,82.26,391.063,84.349,388.869,83.844L388.869,83.844z M388.348,113.962c0.479-0.918,1.846-1.361,2.637-0.524
		C391.072,114.577,389.11,113.68,388.348,113.962z M393.101,76.973c-0.161-1.389,0.733-1.732,2.112-1.583
		C394.755,76.162,394.422,77.065,393.101,76.973z M395.083,94.261C395.064,94.395,395.059,94.428,395.083,94.261L395.083,94.261z
		 M395.083,94.257c0.013-0.107,0.036-0.26,0.063-0.431C395.115,94.024,395.096,94.164,395.083,94.257z M395.213,93.358
		c-0.006,0.023-0.006,0.041-0.015,0.064c0.024-0.13,0.036-0.26,0.056-0.356C395.244,93.14,395.23,93.238,395.213,93.358z
		 M396.268,113.438C397.041,111.684,397.584,115.494,396.268,113.438L396.268,113.438z"/>
	<path fill-rule="evenodd" clip-rule="evenodd" fill="#444444" d="M649.766,250.9c0.496-2.416,0.311-3.674-1.983-4.343
		c-0.97-0.282-2.381-0.769-2.978-0.328c-2.662,1.961-5.27,4.056-7.582,6.411c-4.03,4.105-8.908,6.706-14.232,8.517
		c-4.549,1.546-9.268,2.713-14.061,1.366c-3.078-0.865-6.438-1.715-8.895-3.589c-0.645-0.492-1.264-1.019-1.872-1.559
		c-0.093,0.649-0.354,2.466-0.046,0.311c0.019-0.131,0.034-0.233,0.045-0.312c-2.612-2.319-4.938-5.017-7.329-7.604
		c-0.217-0.007-0.434-0.013-0.644-0.013c0.01-0.214,0.073-0.374,0.158-0.513c-0.021-0.023-0.043-0.047-0.064-0.07
		c-0.604-0.644-0.903-1.717-1.029-2.635c-0.498-3.609-0.775-7.249-1.308-10.853c-0.937-6.346-0.246-12.684-0.036-19.024
		c0.014-0.433,0.746-1.188,1.17-1.206c6.322-0.292,12.647-0.521,18.974-0.708c0.244-0.542,0.584-1.131,0.634-1.447
		c1.299,0.393,0.976,0.863,0.436,1.413c0.157-0.005,0.313-0.011,0.471-0.016c2.203-0.062,4.688,0.747,6.555-0.025
		c2.841-1.174,5.446-0.17,8.121-0.191c1.709-0.013,2.729-0.489,3.131-1.953c0.357-1.301,0.407-2.703,0.457-4.066
		c0.04-1.092-0.197-2.191-0.186-3.286c0.06-5.648,0.181-11.298,0.224-16.946c0.007-0.947-0.435-1.906-0.379-2.843
		c0.273-4.624,0.642-9.243,0.981-13.863c0.205-2.797,0.711-5.606,0.561-8.383c-0.216-3.979-0.875-7.938-1.408-11.896
		c-0.27-1.992-1.772-3.292-3.744-3.366c-7.305-0.277-14.609-0.589-21.916-0.792c-4.347-0.121-8.699-0.13-13.047-0.056
		c-1.479,0.025-1.344-0.855-1.359-1.742c-0.076-4.505-0.113-9.012-0.205-13.516c-0.021-0.957-0.455-1.956-0.284-2.857
		c0.741-3.913-0.193-7.811,0.122-11.768c0.489-6.167-0.305-12.404,0.319-18.65c0.508-5.1,0.157-10.283,0.243-15.428
		c0.116-6.931,1.123-13.853-0.075-20.797c-0.344-1.996-0.063-4.097-0.1-6.151c-0.089-4.968-0.563-5.768-5.479-5.995
		c-5.86-0.273-11.746-0.036-17.619,0.022c-0.328,0.002-0.844,0.304-0.945,0.585c-0.512,1.418-1.327,2.887-1.283,4.316
		c0.158,5.21-0.742,10.099-3.252,14.703c-0.974,1.786-1.885,3.655-2.465,5.595c-1.43,4.772-4.324,8.594-7.617,12.138
		c-1.699,1.828-4,3.127-5.558,5.048c-1.885,2.322-4.091,3.996-6.519,5.718c-4.125,2.923-8.621,4.942-13.146,6.979
		c-2.188,0.984-4.488,1.777-6.812,2.379c-2.049,0.529-3.226,1.604-3.31,3.786c-0.088,2.275-0.143,4.553-0.184,6.83
		c-0.054,3.014-0.097,6.026-0.144,9.04c0.305,0.167,0.221,0.357-0.009,0.571c-0.054,3.418-0.111,6.837-0.191,10.254
		c-0.055,2.348-0.246,4.695-0.479,7.032c-0.084,0.854-0.191,1.625-1.645,1.494c-3.721-0.339-7.482-0.594-11.208-0.431
		c-4.395,0.193-8.77,0.803-13.153,1.247c-0.089,0.446-0.2,1.02-0.234,1.176c0.023-0.108,0.095-0.473,0.234-1.176
		c-0.203,0.021-0.406,0.045-0.609,0.064c-0.408,0.04-0.844,0.023-1.24-0.074c-6.435-1.582-12.935-0.896-19.422-0.555
		c-0.338,0.018-0.755,0.366-0.965,0.677c-0.918,1.362-1.779,2.607-1.026,4.541c0.548,1.404,0.445,3.145,0.325,4.712
		c-0.293,3.829-0.977,7.637-1.114,11.467c-0.224,6.203-0.144,12.418-0.175,18.629c-0.02,3.789-0.02,7.577-0.006,11.366
		c0.004,1.437,0.078,2.874,0.102,4.312c0.071,4.281-1.867,8.955,2.26,12.049c1.885-0.475,3.486-1.12,5.125-1.234
		c2.932-0.204,5.885-0.124,8.827-0.096c2.872,0.027,5.743,0.182,8.616,0.199c2.814,0.018,5.633-0.146,8.445-0.079
		c2.064,0.05,4.123,0.347,6.186,0.521c0.301,0.025,0.603,0.043,0.904,0.062c0.032-0.284-0.133-0.476-0.867-0.694
		c0.443-0.788,1.695-0.765,2.639-1.055c-0.225,0.535-0.293,1.228-0.448,1.833c1.112,0.068,2.221,0.152,3.303,0.371
		c0.659,0.132,1.394,1.021,1.655,1.729c0.348,0.941,0.398,2.047,0.354,3.071c-0.304,6.87-0.697,13.719,0.353,20.587
		c0.365,2.39-0.062,4.907-0.2,7.362c-0.137,2.467-0.598,4.937-0.504,7.39c0.193,5.022,0.634,10.036,1.023,15.05
		c0.357,4.579,0.686,9.162,1.208,13.722c0.352,3.076,0.571,6.283,1.643,9.135c1.962,5.223,4.442,10.258,6.849,15.303
		c0.793,1.661,0.461,4.163,3.083,4.669c0.126,0.024,0.131,0.513,0.251,0.756c0.688,1.395,1.283,2.853,2.125,4.149
		c0.658,1.014,1.763,1.737,2.438,2.744c1.338,1.998,2.84,3.845,4.448,5.588c0.812-1.163,0.813,0.141,0.489,0.521
		c2.258,2.387,4.711,4.581,7.241,6.67c4.885,4.031,10.618,6.765,16.286,9.597c7.174,3.586,14.731,5.923,22.588,6.9
		c6.364,0.791,12.824,0.833,19.194-0.074c0.043-0.063,0.086-0.129,0.147-0.214c0.875-0.63,0.576-0.21,0.202,0.167
		c1.125-0.167,2.248-0.354,3.366-0.582c5.926-1.211,11.762-2.88,17.605-4.461c2.516-0.681,5.023-1.491,7.404-2.537
		c2.965-1.301,5.908-2.727,8.658-4.427c3.256-2.012,6.285-4.392,9.446-6.564c0.55-0.378,1.257-0.542,1.905-0.762
		c1.754-0.592,2.496-1.873,2.42-3.64c-0.143-3.332-0.5-6.663-0.473-9.992c0.031-3.788-0.562-7.499,0.225-11.403
		c0.861-4.285,0.317-8.859,0.317-13.309c0-2.932-0.267-5.868-0.154-8.793c0.217-5.628,0.655-11.247,0.926-16.873
		c0.093-1.92-0.024-3.851-0.077-5.774C649.805,257.058,649.159,253.851,649.766,250.9z M624.537,213.83
		C625.815,211.456,624.148,214.558,624.537,213.83L624.537,213.83z M621.365,212.248
		C621.475,210.665,623.561,212.752,621.365,212.248L621.365,212.248z M621.365,154.65
		C623.656,154.871,620.811,157.715,621.365,154.65L621.365,154.65z M621.365,156.761c0.355,0,0.707,0,1.061,0
		C622.295,158.679,620.199,158.326,621.365,156.761z M620.842,213.303C620.943,211.72,623.036,213.808,620.842,213.303
		L620.842,213.303z M613.971,174.202C615.578,172.758,612.525,175.81,613.971,174.202L613.971,174.202z M612.914,177.374
		C613.018,175.786,615.109,177.874,612.914,177.374L612.914,177.374z M610.799,178.43c1.061-0.18,1.654,0.105,1.584,1.056
		c-0.523,0-1.055,0-1.584,0C610.799,179.132,610.799,178.781,610.799,178.43z M610.799,211.72
		C610.907,210.132,612.994,212.225,610.799,211.72L610.799,211.72z M608.16,190.052C608.785,188.448,610.961,190.625,608.16,190.052
		L608.16,190.052z M602.344,201.677c-0.801,0.788-2.318,0.852-3.698,1.056C598.721,201.223,600.849,201.771,602.344,201.677z
		 M596.529,207.492C596.311,207.27,596.881,207.834,596.529,207.492L596.529,207.492z M594.95,206.96
		C596.771,208.325,592.232,208.237,594.95,206.96L594.95,206.96z M589.135,153.596C588.914,153.371,589.482,153.941,589.135,153.596
		L589.135,153.596z M468.129,180.014c-0.155-1.395,0.733-1.736,2.119-1.584C469.787,179.202,469.454,180.105,468.129,180.014z
		 M470.248,173.675C469.084,175.285,466.861,173.063,470.248,173.675L470.248,173.675z M489.795,177.374
		C489.576,177.152,490.141,177.717,489.795,177.374L489.795,177.374z M485.043,149.895c1.492,0.436,1.365-0.744,2.64-0.527
		C487.182,150.487,485.107,152.747,485.043,149.895z M490.326,197.45c-0.707,0-1.408,0-2.115,0
		C488.094,195.718,490.691,195.361,490.326,197.45z M498.249,178.957c0.855-0.147,0.913,0.496,1.589,0.528
		C500.044,180.508,497.429,180.259,498.249,178.957z M506.703,185.301C506.811,183.716,508.898,185.801,506.703,185.301
		L506.703,185.301z M510.402,242.365C510.181,242.143,510.749,242.708,510.402,242.365L510.402,242.365z M511.457,236.555
		C512.772,234.49,512.23,238.306,511.457,236.555L511.457,236.555z M509.347,191.64c0.089-2.542,2.547-2.376,3.171-0.527
		C512.448,192.279,510.271,191.333,509.347,191.64z M510.936,171.025c-0.844-1.685,0.063-2.991,2.109-3.167
		C513.907,169.573,512.746,170.623,510.936,171.025z M516.217,172.614c-0.23,0.652-0.676,1.089-1.588,1.061
		C514.383,172.545,515.383,172.666,516.217,172.614z M513.572,112.906c0.359,0,0.705,0,1.057,0c0,0.352,0,0.704,0,1.056
		c-0.352,0-0.697,0-1.057,0C513.572,113.61,513.572,113.258,513.572,112.906z M513.585,167.344
		c-0.059-0.058-0.104-0.103-0.013-0.013C513.578,167.337,513.579,167.338,513.585,167.344
		C513.766,167.52,513.665,167.422,513.585,167.344z M514.629,264.028c-0.246-1.128,0.754-1.003,1.588-1.059
		C515.986,263.622,515.541,264.058,514.629,264.028z M515.686,240.777C515.795,239.197,517.881,241.286,515.686,240.777
		L515.686,240.777z M520.445,184.768c0.23-0.648,0.67-1.083,1.583-1.055C522.273,184.843,521.273,184.722,520.445,184.768z
		 M520.973,222.812C521.078,221.229,523.168,223.318,520.973,222.812L520.973,222.812z M519.385,164.693
		c0.852-0.154,0.912,0.495,1.588,0.527C521.182,166.243,518.565,165.994,519.385,164.693z M520.445,128.231
		C522.732,128.449,519.885,131.296,520.445,128.231L520.445,128.231z M518.857,111.85c-0.246-1.125,0.758-1.004,1.588-1.059
		C520.213,111.443,519.77,111.883,518.857,111.85z M519.918,109.739c-0.354,1.579-1.136-0.51-2.117,0
		C518.162,108.087,519.412,108.846,519.918,109.739z M517.801,262.446c0.793-0.616,1.293-1.528,2.645-1.589
		C520.078,261.903,519.037,262.27,517.801,262.446z M518.857,249.237C518.963,247.652,521.052,249.737,518.857,249.237
		L518.857,249.237z M517.801,239.722c0.152-1.74,4.607-4.135,4.755-1.055C520.357,238.397,520.227,240.213,517.801,239.722z
		 M555.847,130.344c-0.367,1.041-1.409,1.41-2.64,1.583C553.572,130.884,554.609,130.523,555.847,130.344z M551.618,163.104
		c0.088,1.143-1.874,0.24-2.638,0.527C548.887,162.489,550.851,163.392,551.618,163.104z M551.618,265.086
		c-3.255,0.272-3.374,3.67-7.399,3.171C546.622,267.684,549.979,261.348,551.618,265.086z M550.035,188.469
		c1.023-0.209,0.768,2.406-0.533,1.583C549.359,189.199,550.002,189.145,550.035,188.469z M548.98,140.384
		c-0.01,1.58-1.376,1.798-1.588,3.171C546.84,143.473,547.642,140.323,548.98,140.384z M548.447,117.133
		c0.091,1.144-1.877,0.24-2.641,0.527C545.72,116.518,547.684,117.421,548.447,117.133z M544.748,129.286
		c0.249,1.131-0.754,1.006-1.584,1.058C543.396,129.695,543.84,129.259,544.748,129.286z M543.164,213.83
		C544.479,211.771,543.934,215.581,543.164,213.83L543.164,213.83z M543.164,188.469
		C542.941,188.245,543.512,188.814,543.164,188.469L543.164,188.469z M544.219,274.067
		C545.149,276.73,540.557,276.702,544.219,274.067L544.219,274.067z M540.521,223.867
		C540.632,222.29,542.715,224.377,540.521,223.867L540.521,223.867z M536.82,115.55C536.928,113.965,539.02,116.054,536.82,115.55
		L536.82,115.55z M538.938,269.84c-0.654,0.76-1.815,1-3.172,1.055c-0.277-0.42-0.551-0.855-0.527-1.577
		C536.288,268.257,537.756,269.479,538.938,269.84z M534.709,255.047c0.185-0.695,0.932-0.832,1.057-1.584
		C537.079,253.676,535.797,255.51,534.709,255.047z M529.955,249.237c-0.078,1.152-1.334,1.133-2.644,1.055
		C526.941,248.458,529.164,248.398,529.955,249.237z M525.727,106.035c-0.125,0.931-0.906,1.209-2.115,1.055
		C523.741,106.165,524.523,105.893,525.727,106.035z M525.199,269.84C525.547,270.188,524.977,269.618,525.199,269.84
		L525.199,269.84z M523.089,252.402c1.24-0.013,1.55,0.912,3.165,0.527C526.385,255.042,522.635,254.787,523.089,252.402z
		 M528.367,284.638C526.764,286.591,526.588,283.031,528.367,284.638L528.367,284.638z M528.9,251.347
		C529.52,249.741,531.7,251.921,528.9,251.347L528.9,251.347z M533.126,283.054C534.945,284.414,530.41,284.327,533.126,283.054
		L533.126,283.054z M535.766,117.133c-0.547,1.219-1.088,2.431-2.115,3.171C532.543,119.5,534.209,117.021,535.766,117.133z
		 M534.182,322.153C533.96,321.933,534.529,322.496,534.182,322.153L534.182,322.153z M534.182,312.116c0-0.532,0-1.061,0-1.588
		c0.527,0,1.057,0,1.584,0C535.863,311.682,535.336,312.21,534.182,312.116z M536.293,327.964c-0.348,0-0.703,0-1.055,0
		c0-0.351,0-0.703,0-1.055c0.352,0,0.707,0,1.055,0C536.293,327.261,536.293,327.613,536.293,327.964z M535.766,282.521
		c-0.399-0.829-1.676-0.787-1.584-2.112c1.663-0.253,2.064,0.752,3.172,1.057C537.232,282.229,535.775,281.649,535.766,282.521z
		 M538.409,308.417C538.756,308.761,538.186,308.195,538.409,308.417L538.409,308.417z M538.938,279.354
		C538.716,279.133,539.283,279.698,538.938,279.354L538.938,279.354z M541.053,316.866
		C541.154,315.287,543.248,317.376,541.053,316.866L541.053,316.866z M539.465,288.337c0.449-0.787,1.328-1.135,2.645-1.055
		C542.029,288.434,540.774,288.416,539.465,288.337z M543.164,311.584c-0.727-2.13,0.945-1.869,1.584-2.645
		C545.961,309.518,544.952,312.265,543.164,311.584z M545.279,314.229c-0.716-0.163-0.439-1.324-0.531-2.112
		c0.855-0.152,0.911,0.496,1.589,0.523C546.628,313.811,545.327,313.395,545.279,314.229z M542.637,290.976c0-0.879,0-1.76,0-2.639
		c2.148-0.046,5.269-2.946,5.811,0C544.572,287.276,544.971,290.495,542.637,290.976z M548.98,299.957
		c-0.539-1.586,1.176-0.934,2.11-1.056C550.961,299.832,550.178,300.105,548.98,299.957z M551.091,331.135
		c-2.449-0.184-0.282-3.411-0.528-4.753C553.582,326.827,550.758,330.396,551.091,331.135z M551.238,186.443
		c0.079-0.035,0.319-0.139,0.797-0.346c0.223-0.093,0.459-0.196,0.639-0.269v-0.006c0.102-0.041,0.167-0.067,0.217-0.092
		c0.121-0.051,0.146-0.061,0,0c-0.055,0.027-0.13,0.055-0.217,0.098c-0.256,0.106-0.462,0.193-0.639,0.269
		C551.679,186.254,551.341,186.397,551.238,186.443z M552.146,238.667c0.459-0.773,0.791-1.677,2.115-1.589
		C554.419,238.476,553.531,238.818,552.146,238.667z M553.73,312.116c-1.186-0.556,0.693-2.435,2.116-2.115
		C555.68,311.242,554.21,311.182,553.73,312.116z M555.847,305.246C555.629,305.022,556.192,305.588,555.847,305.246
		L555.847,305.246z M561.655,122.943C562.004,123.29,561.434,122.726,561.655,122.943L561.655,122.943z M559.018,119.776
		C559.359,120.125,558.794,119.555,559.018,119.776L559.018,119.776z M559.018,327.964
		C559.119,326.385,561.212,328.471,559.018,327.964L559.018,327.964z M560.072,285.165c-1.791-0.145-1.809-2.063-3.698-2.111
		c0.222-1.893,1.687-2.541,3.698-2.645C559.518,282.614,561.186,283.99,560.072,285.165z M560.072,131.927
		c0.186-1.403,1.385-1.779,2.641-2.112C562.037,130.722,561.625,131.893,560.072,131.927z M603.401,277.238
		C603.747,277.581,603.178,277.021,603.401,277.238L603.401,277.238z M598.117,262.446c0.319,2.958-1.268,4.014-4.227,3.698
		C594.649,264.261,595.711,262.676,598.117,262.446z M591.248,302.603C592.561,300.542,592.021,304.353,591.248,302.603
		L591.248,302.603z M586.492,109.739C586.271,109.513,586.838,110.085,586.492,109.739L586.492,109.739z M587.547,176.841
		c-0.227,0.653-0.676,1.088-1.583,1.057C586.195,177.25,586.64,176.813,587.547,176.841z M580.681,313.172
		c0.333-2.957,3.395-1.796,5.812-1.588C584.77,312.334,582.764,312.792,580.681,313.172z M582.266,329.021
		c0.082,1.319-0.83,1.638-1.058,2.644C580.687,330.871,580.246,329.021,582.266,329.021z M580.153,304.188
		C580.26,302.605,582.348,304.689,580.153,304.188L580.153,304.188z M580.681,261.391
		C580.459,261.169,581.029,261.733,580.681,261.391L580.681,261.391z M581.208,298.374c0.528,0,1.058,0,1.589,0
		c-0.189,0.695-0.934,0.83-1.061,1.583C581.121,299.875,581.293,298.999,581.208,298.374z M583.324,267.202
		C583.104,266.979,583.672,267.544,583.324,267.202L583.324,267.202z M586.492,215.419
		C585.104,217.344,583.431,215.679,586.492,215.419L586.492,215.419z M586.23,272.35C586.106,272.413,586.076,272.428,586.23,272.35
		L586.23,272.35z M586.315,272.308c0.27-0.135,0.749-0.374,1.024-0.513c-0.08,0.039-0.182,0.097-0.314,0.16
		C586.683,272.128,586.455,272.238,586.315,272.308z M584.379,158.877c0.354,0,0.706,0,1.058,0c0,0.354,0,0.704,0,1.057
		c-0.352,0-0.704,0-1.058,0C584.379,159.581,584.379,159.23,584.379,158.877z M583.324,256.103
		C583.431,254.523,585.516,256.606,583.324,256.103L583.324,256.103z M583.324,137.213
		C585.146,138.58,580.602,138.492,583.324,137.213L583.324,137.213z M582.797,155.178
		C583.139,155.521,582.575,154.959,582.797,155.178L582.797,155.178z M582.266,215.419c0.615,0.791,1.527,1.287,1.586,2.64
		C582.199,218.299,582.162,216.929,582.266,215.419z M582.797,221.757c-0.764,1.565-1.18,0.455-3.177,1.056
		C580.047,221.693,581.797,220.754,582.797,221.757z M581.208,138.796C583.463,138.796,576.131,139.561,581.208,138.796
		L581.208,138.796z M578.043,117.133C578.385,117.48,577.819,116.911,578.043,117.133L578.043,117.133z M576.982,187.411
		C577.324,187.754,576.76,187.19,576.982,187.411L576.982,187.411z M576.982,277.767
		C578.801,279.133,574.264,279.045,576.982,277.767L576.982,277.767z M578.043,289.393c0.527,1.588-1.182,0.936-2.115,1.055
		C576.273,289.74,577.055,289.468,578.043,289.393z M576.455,222.285C572.893,222.748,576.746,218.893,576.455,222.285
		L576.455,222.285z M575.928,303.657c0.29,1.171-1.011,0.756-1.059,1.589C573.557,305.028,574.838,303.194,575.928,303.657z
		 M575.928,319.51c0,0.352,0,0.71,0,1.058c-0.359,0-0.707,0-1.059,0c0-0.348,0-0.706,0-1.058
		C575.221,319.51,575.568,319.51,575.928,319.51z M574.339,302.603C574.115,302.379,574.689,302.948,574.339,302.603
		L574.339,302.603z M574.339,316.866C576.111,315.589,573.064,318.646,574.339,316.866L574.339,316.866z M573.814,291.508
		C574.157,291.856,573.592,291.286,573.814,291.508L573.814,291.508z M572.754,171.559
		C572.537,171.336,573.102,171.906,572.754,171.559L572.754,171.559z M572.227,211.72
		C572.004,211.497,572.574,212.065,572.227,211.72L572.227,211.72z M570.116,304.188c0.939,0.385,0.073,0.961,0,1.585
		C569.17,305.389,570.037,304.811,570.116,304.188z M568.527,99.169C568.873,99.517,568.306,98.946,568.527,99.169L568.527,99.169z
		 M568.527,209.077c-0.185,0.693-0.932,0.833-1.056,1.582C566.157,210.446,567.439,208.613,568.527,209.077z M566.411,54.785
		C566.193,54.559,566.764,55.133,566.411,54.785L566.411,54.785z M565.889,101.28C566.23,101.627,565.666,101.062,565.889,101.28
		L565.889,101.28z M568.527,311.056c-0.064,1.166-2.24,0.224-3.172,0.528C565.805,310.575,567.676,310.158,568.527,311.056z
		 M565.355,327.964C565.703,328.312,565.133,327.743,565.355,327.964L565.355,327.964z M565.355,330.607
		c0.11-0.879,3.927-2.125,3.7,0C567.912,329.419,567.254,331.044,565.355,330.607z M565.355,315.284
		c0.629-0.959,2.756-0.413,3.7-1.056C568.546,315.302,567.027,315.371,565.355,315.284z M567.999,308.939
		c0.483-0.92,0.982-1.833,2.64-1.583C570.676,308.939,569.088,310.036,567.999,308.939z M570.116,172.614
		c0.227-0.647,0.67-1.082,1.578-1.056C571.468,172.208,571.019,172.647,570.116,172.614z M572.227,336.42
		C572.332,334.836,574.421,336.928,572.227,336.42L572.227,336.42z M571.694,325.326c0.185-1.408,1.39-1.788,2.645-2.115
		C573.917,324.372,573.278,325.321,571.694,325.326z M573.814,344.347C574.436,342.739,576.615,344.92,573.814,344.347
		L573.814,344.347z M576.455,336.947c-0.354,0-0.704,0-1.056,0c0-0.353,0-0.704,0-1.057c0.352,0,0.702,0,1.056,0
		C576.455,336.243,576.455,336.595,576.455,336.947z M576.982,315.284c-1.533-0.095-1.274-2.51,0.527-2.112
		C577.736,314.273,577.148,314.571,576.982,315.284z M578.043,307.356C578.385,307.705,577.819,307.139,578.043,307.356
		L578.043,307.356z M576.982,209.604c0.527,0,1.061,0,1.582,0c0,0.527,0,1.055,0,1.588
		C577.412,211.283,576.888,210.756,576.982,209.604z M578.564,238.14C578.343,237.916,578.912,238.481,578.564,238.14
		L578.564,238.14z M578.564,343.818C579.189,342.212,581.371,344.393,578.564,343.818L578.564,343.818z M578.564,335.363
		c0.658-1.453,1.668-2.564,3.701-2.644C584.158,335.582,582.863,336.762,578.564,335.363z M581.736,326.382
		c1.051-0.879,0.672,0.046,2.115,0C584.27,328.413,581.32,328.413,581.736,326.382z M586.492,344.874
		C586.838,345.222,586.271,344.651,586.492,344.874L586.492,344.874z M588.08,311.056c-0.357,0-0.709,0-1.055,0
		c0-0.353,0-0.704,0-1.055c0.346,0,0.697,0,1.055,0C588.08,310.352,588.08,310.703,588.08,311.056z M591.778,260.33
		c-0.343,1.073-2.471,0.348-2.644,1.583C587.416,260.399,590.523,259.261,591.778,260.33z M590.918,309.051
		c-0.148,0.089-0.395,0.229-0.615,0.357c-0.148,0.089-0.287,0.167-0.38,0.222c0.061-0.037,0.148-0.087,0.267-0.157
		c0.043-0.024,0.07-0.042,0.113-0.064C590.604,309.232,590.803,309.115,590.918,309.051z M589.662,338.535
		c0.08-1.158,1.335-1.135,2.644-1.061C591.857,338.262,590.979,338.614,589.662,338.535z M589.135,331.665
		c0.428-1.121,2.177-2.061,3.171-1.058C591.654,331.363,590.487,331.608,589.135,331.665z M591.778,327.964
		C591.881,326.385,593.974,328.471,591.778,327.964L591.778,327.964z M590.719,316.866c-0.756-0.648-0.996-1.813-1.057-3.165
		c1.237,0,2.469,0,3.701,0C593.322,315.594,591.316,315.528,590.719,316.866z M593.363,289.393
		C591.375,291.66,594.716,287.846,593.363,289.393L593.363,289.393z M593.363,288.337c0-0.533,0-1.055,0-1.588
		C594.904,285.976,594.904,289.114,593.363,288.337z M597.062,303.657c-0.936-0.121-2.648,0.531-2.112-1.055
		c0.945,0.067,1.111-0.648,2.112-0.53C597.062,302.603,597.062,303.134,597.062,303.657z M597.59,326.909
		C597.936,327.257,597.368,326.688,597.59,326.909L597.59,326.909z M596.529,300.49c-0.158-1.395,1.105-1.365,2.116-1.589
		C598.904,300.096,597.32,302.072,596.529,300.49z M598.646,312.64c-0.292-1.166,1.009-0.751,1.056-1.584
		C601.021,311.273,599.732,313.107,598.646,312.64z M600.762,308.939C599.16,310.899,598.984,307.338,600.762,308.939
		L600.762,308.939z M599.701,335.363c-0.244-1.13,0.76-1.009,1.588-1.055C601.058,334.957,600.613,335.392,599.701,335.363z
		 M601.816,298.374c-0.879,0-1.759,0-2.644,0c-0.773-2.009,2.366-0.101,1.589-2.11C602.35,295.728,601.697,297.44,601.816,298.374z
		 M602.344,346.462c-0.162-1.394,1.107-1.367,2.113-1.588C604.617,346.268,603.729,346.61,602.344,346.462z M604.457,338.008
		C604.234,337.786,604.808,338.351,604.457,338.008L604.457,338.008z M604.99,288.337c-0.049,0.325-0.079,0.546-0.104,0.709
		c-0.019,0.129-0.033,0.217-0.036,0.264c0.003-0.051,0.018-0.148,0.036-0.264C604.975,288.407,605.169,287.082,604.99,288.337z
		 M605.518,325.849C605.863,326.196,605.294,325.633,605.518,325.849L605.518,325.849z M607.1,323.211c-0.352,0-0.703,0-1.055,0
		c0-0.353,0-0.704,0-1.058c0.352,0,0.703,0,1.055,0C607.1,322.507,607.1,322.858,607.1,323.211z M605.518,304.188
		c0.124-0.931,0.906-1.207,2.109-1.055C607.503,304.061,606.721,304.333,605.518,304.188z M604.457,266.674
		c-0.158-1.921,2.818-0.709,3.703-1.588C608.117,266.808,605.762,266.214,604.457,266.674z M610.799,292.563
		C612.572,291.286,609.521,294.333,610.799,292.563L610.799,292.563z M620.842,327.964
		C621.184,328.312,620.619,327.743,620.842,327.964L620.842,327.964z M619.254,337.475c0.232-0.646,0.676-1.083,1.588-1.055
		C620.605,337.067,620.162,337.507,619.254,337.475z M620.842,332.192C622.156,330.132,621.611,333.942,620.842,332.192
		L620.842,332.192z M621.365,289.92c0.186-0.64,1.407-0.426,1.588,0C623.434,291.062,621.018,291.142,621.365,289.92z
		 M641.445,290.447c-0.445,0.788-1.33,1.14-2.64,1.061C639.657,290.897,640.479,289.434,641.445,290.447z M634.574,289.393
		C636.354,288.115,633.301,291.166,634.574,289.393L634.574,289.393z M628.235,313.701c0.093-1.668,0.372-3.155,2.116-3.173
		C629.314,311.256,630.015,313.714,628.235,313.701z M634.052,314.229C633.828,314.004,634.395,314.571,634.052,314.229
		L634.052,314.229z M634.052,316.345c1.272,0.212,1.144-0.97,2.638-0.533C637.469,317.481,633.658,318.352,634.052,316.345z
		 M636.162,336.42C635.941,336.197,636.51,336.768,636.162,336.42L636.162,336.42z M637.217,330.607
		c0.131-0.931,0.91-1.206,2.116-1.055C639.209,330.479,638.426,330.757,637.217,330.607z M636.162,326.909
		c-0.203-1.561,4.599-2.73,4.756-0.527C638.745,325.97,638.209,327.19,636.162,326.909z M639.861,322.684
		C640.824,319.773,643.553,322.501,639.861,322.684L639.861,322.684z"/>
</g>
</svg>
