<?xml version="1.0" encoding="utf-8"?>
<!-- Generator: Adobe Illustrator 16.0.0, SVG Export Plug-In . SVG Version: 6.00 Build 0)  -->
<!DOCTYPE svg PUBLIC "-//W3C//DTD SVG 1.1//EN" "http://www.w3.org/Graphics/SVG/1.1/DTD/svg11.dtd">
<svg version="1.1" id="Layer_1" xmlns="http://www.w3.org/2000/svg" xmlns:xlink="http://www.w3.org/1999/xlink" x="0px" y="0px"
	 width="150px" height="150px" viewBox="0 0 150 150" enable-background="new 0 0 150 150" xml:space="preserve">
<pattern  width="150" height="150" patternUnits="userSpaceOnUse" id="Nueva_muestra_de_motivo_8" viewBox="0 -150 150 150" overflow="visible">
	<g>
		<polygon fill="none" points="0,-150 150,-150 150,0 0,0 		"/>
		<path fill="#FFFFFF" d="M6.352-138.889c2.826-2.501,8.949-4.25,8.226-7.665c-0.416-1.971-1.353-3.004-2.554-3.446h-3.65
			c-0.396,0.097-0.794,0.215-1.191,0.35c-1.377,0.465-2.568,0.02-3.811-0.35H0v18.171C2.408-132.967,4.153-136.944,6.352-138.889z"
			/>
		<path fill="#FFFFFF" d="M145.569-139.373c-1.465,3.05-1.966,6.428,2.174,7.718c0.825,0.257,1.567,0.152,2.257-0.174V-150h-0.486
			c-0.588,0.252-1.213,0.648-1.891,1.249C143.476-145.08,147.033-142.423,145.569-139.373z"/>
		<path fill="#FFFFFF" d="M142.619-138.898c1.182-1.046,0.769-3.445-0.924-5.358c-1.692-1.912-3.562-3.454-5.42-1.808
			c-1.862,1.646-0.557,3.688,1.136,5.6S141.435-137.85,142.619-138.898z"/>
		<path fill="#FFFFFF" d="M144.016-147.037c0.721-0.639,0.874-1.75,0.556-2.963h-7.21c0.312,0.427,0.664,0.854,1.036,1.273
			C140.223-146.664,142.739-145.908,144.016-147.037z"/>
		<path fill="#FFFFFF" d="M57.073-105.191c-4.74-2.863-6.216,1.326-9.563,0.838c-3.349-0.487-6.722,0.042-6.719,4.378
			c0.003,3.883,6.242,4.106,9.474,6.058c3.229,1.952,6.726,7.274,9.769,5.565c3.783-2.121,2.74-5.247,0.75-7.983
			C58.795-99.072,61.814-102.327,57.073-105.191z"/>
		<path fill="#FFFFFF" d="M46.176-107.028c1.352,0.816,3.518-0.293,4.84-2.479c1.319-2.185,2.234-4.429,0.108-5.712
			c-2.127-1.286-3.687,0.569-5.007,2.754C44.797-110.279,44.822-107.846,46.176-107.028z"/>
		<path fill="#FFFFFF" d="M63.733-96.423c1.353,0.817,3.519-0.292,4.839-2.479c1.32-2.185,2.236-4.429,0.11-5.713
			c-2.128-1.285-3.687,0.57-5.006,2.755C62.355-99.673,62.382-97.24,63.733-96.423z"/>
		<path fill="#FFFFFF" d="M54.361-108.122c1.458,0.88,3.797-0.316,5.221-2.675c1.424-2.358,2.412-4.778,0.117-6.166
			c-2.293-1.386-3.978,0.616-5.401,2.975C52.873-111.631,52.902-109.003,54.361-108.122z"/>
		<path fill="#FFFFFF" d="M60.894-104.178c1.458,0.881,3.796-0.316,5.22-2.675c1.424-2.356,2.414-4.778,0.119-6.163
			c-2.294-1.387-3.979,0.614-5.402,2.972S59.434-105.059,60.894-104.178z"/>
		<path fill="#FFFFFF" d="M76.15-45.752c5.507-0.593,4.143-4.818,7.103-6.458c2.96-1.641,5.323-4.104,2.694-7.553
			c-2.354-3.089-7.453,0.515-11.207,0.919c-3.752,0.402-9.757-1.716-11.145,1.488c-1.725,3.979,0.999,5.834,4.239,6.805
			C71.075-49.578,70.644-45.156,76.15-45.752z"/>
		<path fill="#FFFFFF" d="M85.934-50.891c-1.568,0.17-2.621,2.365-2.348,4.904s0.904,4.879,3.374,4.611
			c2.471-0.265,2.588-2.685,2.314-5.223C89.001-49.139,87.506-51.059,85.934-50.891z"/>
		<path fill="#FFFFFF" d="M65.541-48.693c-1.571,0.169-2.623,2.365-2.35,4.903s0.904,4.878,3.373,4.612
			c2.471-0.266,2.588-2.686,2.314-5.225C68.605-46.942,67.11-48.861,65.541-48.693z"/>
		<path fill="#FFFFFF" d="M80.084-45.062c-1.693,0.183-2.829,2.552-2.533,5.291c0.295,2.737,0.975,5.263,3.641,4.978
			c2.664-0.287,2.792-2.9,2.496-5.64C83.394-43.17,81.778-45.243,80.084-45.062z"/>
		<path fill="#FFFFFF" d="M72.497-44.242c-1.693,0.182-2.828,2.55-2.533,5.289c0.294,2.738,0.974,5.264,3.639,4.977
			s2.794-2.898,2.497-5.637C75.806-42.354,74.192-44.426,72.497-44.242z"/>
		<path fill="#FFFFFF" d="M2.996-61.831c0.37-3.649-1.441-4.681-2.996-5.9v10.522C1.404-57.941,2.703-58.948,2.996-61.831z"/>
		<path fill="#FFFFFF" d="M4.305-69.152c2.54,0.258,4.96,0.125,5.209-2.347c0.253-2.473-2.091-3.088-4.631-3.346
			C2.361-75.102,0.189-74.055,0-72.501v0.416C0.156-70.662,1.971-69.391,4.305-69.152z"/>
		<path fill="#FFFFFF" d="M7.442-51.091c0.25-2.473-2.093-3.088-4.633-3.346C1.776-54.542,0.805-54.425,0-54.148v4.8
			c0.646,0.304,1.405,0.519,2.23,0.603C4.771-48.488,7.191-48.619,7.442-51.091z"/>
		<path fill="#FFFFFF" d="M9.76-68.102c-2.74-0.28-5.104,0.871-5.275,2.566c-0.172,1.694,1.91,3.295,4.651,3.574
			c2.739,0.277,5.351,0.136,5.623-2.531C15.03-67.16,12.5-67.825,9.76-68.102z"/>
		<path fill="#FFFFFF" d="M8.989-60.512c-2.741-0.277-5.104,0.872-5.275,2.568c-0.173,1.693,1.909,3.295,4.651,3.572
			c2.739,0.279,5.351,0.139,5.621-2.529C14.258-59.566,11.729-60.232,8.989-60.512z"/>
		<path fill="#FFFFFF" d="M36.674-148.784c-0.302,0.821-0.174,1.743,0.379,2.742c0.486,0.877,1.336,1.305,2.596,1.305
			c0.802,0,1.693-0.167,2.557-0.328c0.824-0.154,1.678-0.313,2.4-0.313l0.177,0.003c0.763,0.029,1.688,0.252,2.582,0.466
			c1.015,0.244,2.064,0.496,2.967,0.496c0.001,0,0.001,0,0.001,0c1.054,0,1.778-0.342,2.214-1.047
			c0.611-0.985,0.793-1.913,0.541-2.756c-0.196-0.66-0.648-1.249-1.361-1.783h-1.431c1.154,0.596,1.855,1.266,2.073,1.998
			c0.188,0.629,0.033,1.351-0.459,2.146c-0.292,0.472-0.794,0.692-1.577,0.692c-0.814,0-1.82-0.241-2.792-0.475
			c-0.931-0.223-1.892-0.455-2.729-0.487c-0.067-0.002-0.136-0.003-0.206-0.003c-0.793,0-1.68,0.165-2.538,0.326
			c-0.829,0.155-1.687,0.316-2.419,0.316c-0.989,0-1.588-0.284-1.939-0.918c-0.442-0.8-0.555-1.513-0.331-2.12
			c0.202-0.551,0.688-1.043,1.437-1.475h-1.276C37.13-149.63,36.836-149.226,36.674-148.784z"/>
		<path fill="#FFFFFF" d="M3.543-97.775c1.17,1.262,2.297,1.902,3.352,1.902c0.908,0,1.746-0.468,2.487-1.388
			c1.26-1.564,0.038-3.463-1.04-5.139c-0.492-0.764-1-1.553-1.261-2.271s-0.404-1.658-0.543-2.568
			c-0.321-2.105-0.653-4.283-2.467-4.589c-2.374-0.4-3.751,0.78-4.071,3.457v2.513c0.356-0.497,0.652-1.05,0.688-1.785
			c0.155-3.146,1.523-3.51,2.538-3.51c0.224,0,0.467,0.022,0.721,0.065c1.277,0.215,1.556,2.036,1.85,3.963
			c0.144,0.946,0.293,1.924,0.58,2.711c0.289,0.795,0.82,1.622,1.334,2.42c1.032,1.604,2.008,3.119,1.086,4.263
			c-0.6,0.746-1.223,1.108-1.902,1.108c-0.838,0-1.78-0.559-2.802-1.662c-0.678-0.731-1.505-0.901-2.304-1.065
			C1.132-99.485,0.528-99.621,0-100.033v0.903c0.537,0.288,1.104,0.404,1.638,0.514C2.384-98.462,3.029-98.33,3.543-97.775z"/>
		<path fill="#FFFFFF" d="M3.306-94.306c0.504-0.639,0.66-1.321,0.441-1.923c-0.288-0.791-1.158-1.264-2.328-1.264
			c-0.46,0-0.943,0.093-1.419,0.239v0.774c0.002,0,0.004,0,0.005-0.001c0.472-0.172,0.96-0.263,1.414-0.263
			c0.829,0,1.45,0.295,1.624,0.77c0.126,0.348,0.011,0.775-0.326,1.202c-0.377,0.479-0.973,0.884-1.676,1.139
			C0.748-93.525,0.379-93.403,0-93.312v0.771c0.377-0.081,0.799-0.205,1.298-0.387C2.13-93.229,2.843-93.719,3.306-94.306z"/>
		<path fill="#FFFFFF" d="M148.146-70.116c-0.992-3.234-2.914-6.057-6.832-4.198c-3.509,1.662-1.04,7.397-1.422,11.153
			c-0.382,3.755-3.696,9.19-0.85,11.21c3.535,2.513,5.914,0.232,7.536-2.736c0.773-1.416,2.141-1.855,3.421-2.521v-10.522
			C149.207-68.354,148.48-69.023,148.146-70.116z"/>
		<path fill="#FFFFFF" d="M150-72.085v-0.416c-0.002,0.012-0.005,0.023-0.007,0.035C149.98-72.338,149.986-72.211,150-72.085z"/>
		<path fill="#FFFFFF" d="M147.92-52.059c-0.107,1.061,0.738,2.08,2.08,2.71v-4.8C148.827-53.742,148.016-52.991,147.92-52.059z"/>
		<path fill="#FFFFFF" d="M149.02-105.81c-0.775,0.977-1.653,2.084-0.82,4.371c0.467,1.287,1.11,1.939,1.801,2.309v-0.903
			c-0.42-0.328-0.792-0.825-1.097-1.663c-0.688-1.893-0.044-2.706,0.703-3.649c0.134-0.167,0.267-0.337,0.394-0.514v-2.514
			c-0.026,0.221-0.049,0.45-0.061,0.691C149.902-106.924,149.493-106.408,149.02-105.81z"/>
		<path fill="#FFFFFF" d="M147.6-96.019c-0.642,0.615-0.809,1.358-0.5,2.209c0.332,0.914,1.005,1.376,2,1.376
			c0.271,0,0.568-0.037,0.9-0.107v-0.771c-0.306,0.073-0.617,0.128-0.9,0.128c-0.674,0-1.073-0.272-1.295-0.882
			c-0.207-0.569-0.11-1.004,0.313-1.412c0.477-0.457,1.3-0.79,1.882-1.001v-0.774c-0.084,0.025-0.168,0.039-0.251,0.068
			C149.049-96.93,148.173-96.568,147.6-96.019z"/>
		<path fill="#FFFFFF" d="M142.965-108.757c0.573-0.55,1.449-0.912,2.148-1.166c0.553-0.201,1.131-0.308,1.672-0.308
			c1.169,0,2.039,0.472,2.327,1.262c0.433,1.194-0.644,2.645-2.45,3.303c-0.938,0.342-1.616,0.494-2.198,0.494
			c-0.994,0-1.667-0.463-2.001-1.376C142.154-107.398,142.322-108.142,142.965-108.757z M143.168-106.805
			c0.223,0.61,0.623,0.883,1.296,0.883c0.636,0,1.413-0.256,1.942-0.448c1.364-0.498,2.281-1.57,2.002-2.343
			c-0.174-0.473-0.795-0.768-1.623-0.768c-0.455,0-0.943,0.091-1.416,0.263c-0.58,0.211-1.408,0.545-1.887,1.002
			C143.059-107.808,142.961-107.373,143.168-106.805z"/>
		<path fill="#FFFFFF" d="M146.597-100.405c1.231,0,2.184,0.515,2.485,1.344c0.231,0.639,0.064,1.365-0.473,2.045
			c-0.495,0.629-1.26,1.154-2.152,1.478c-1.01,0.368-1.738,0.532-2.362,0.532c-1.06,0-1.775-0.494-2.13-1.466
			c-0.33-0.904-0.151-1.695,0.531-2.351c0.615-0.589,1.558-0.979,2.31-1.253C145.398-100.291,146.018-100.405,146.597-100.405z
			 M146.597-99.655c-0.493,0-1.023,0.098-1.534,0.284c-0.631,0.229-1.527,0.592-2.047,1.09c-0.467,0.448-0.574,0.927-0.347,1.552
			c0.245,0.673,0.685,0.973,1.426,0.973c0.69,0,1.532-0.278,2.106-0.486c0.763-0.278,1.409-0.717,1.82-1.238
			c0.369-0.469,0.495-0.939,0.355-1.325C148.186-99.329,147.504-99.655,146.597-99.655z"/>
		<path fill="#FFFFFF" d="M142.369-99.744c-1.059,0-1.775-0.493-2.129-1.466c-0.329-0.905-0.15-1.696,0.533-2.35
			c0.613-0.589,1.556-0.979,2.309-1.252c0.593-0.216,1.213-0.33,1.792-0.33c1.249,0,2.177,0.502,2.483,1.343
			c0.232,0.638,0.065,1.365-0.473,2.045c-0.496,0.629-1.26,1.154-2.152,1.479C143.723-99.908,142.994-99.744,142.369-99.744z
			 M142.369-100.494c0.691,0,1.533-0.277,2.107-0.486c0.762-0.277,1.408-0.717,1.819-1.238c0.371-0.469,0.497-0.939,0.356-1.324
			c-0.19-0.524-0.872-0.85-1.778-0.85c-0.493,0-1.024,0.099-1.536,0.285c-0.63,0.229-1.527,0.592-2.047,1.089
			c-0.467,0.448-0.574,0.927-0.346,1.552C141.189-100.794,141.629-100.494,142.369-100.494z"/>
		<path fill="#FFFFFF" d="M113.404-31.235c-0.701,2.246-1.829,3.384-3.356,3.384c0,0,0,0-0.001,0c-0.518,0-1.084-0.135-1.682-0.401
			c-1.679-0.749-1.456-2.94-1.24-5.061c0.093-0.915,0.188-1.862,0.115-2.622c-0.072-0.76-0.367-1.651-0.652-2.515
			c-0.625-1.891-1.333-4.034,0.277-5.234c2.058-1.534,4.009-0.854,5.525,1.957c0.359,0.666,0.95,0.955,1.635,1.29
			c1.121,0.549,2.391,1.171,2.624,3.594c0.234,2.422-0.894,3.274-1.887,4.027C114.154-32.356,113.629-31.959,113.404-31.235z
			 M114.31-33.414c0.959-0.727,1.787-1.353,1.593-3.357c-0.193-2.006-1.126-2.463-2.206-2.992c-0.734-0.358-1.492-0.73-1.966-1.607
			c-0.848-1.571-1.775-2.367-2.756-2.367c-0.519,0-1.076,0.219-1.661,0.655c-1.177,0.876-0.612,2.587-0.014,4.397
			c0.298,0.902,0.606,1.835,0.688,2.678c0.08,0.834-0.02,1.818-0.116,2.77c-0.197,1.939-0.384,3.771,0.801,4.301
			c0.501,0.224,0.964,0.336,1.375,0.336c0.001,0,0.001,0,0.001,0c1.177,0,2.04-0.934,2.64-2.857
			C112.984-32.411,113.658-32.921,114.31-33.414z"/>
		<path fill="#FFFFFF" d="M112.579-43.275c-0.062-0.638,0.261-1.259,0.908-1.752c0.595-0.451,1.407-0.748,2.289-0.833
			c0.404-0.039,0.751-0.058,1.06-0.058c1.722,0,2.658,0.659,2.785,1.962c0.087,0.9-0.263,1.578-1.037,2.013
			c-0.54,0.305-1.271,0.486-2.372,0.592c-0.173,0.018-0.345,0.025-0.512,0.025C114.001-41.326,112.688-42.146,112.579-43.275z
			 M113.326-43.349c0.077,0.795,1.359,1.392,2.814,1.251c0.615-0.059,1.5-0.175,2.076-0.498c0.513-0.289,0.715-0.686,0.657-1.288
			c-0.062-0.636-0.352-1.284-2.038-1.284c-0.318,0-0.651,0.021-0.988,0.054c-0.744,0.071-1.421,0.315-1.906,0.685
			C113.509-44.101,113.29-43.717,113.326-43.349z"/>
		<path fill="#FFFFFF" d="M120.926-30.463c0.086,0.9-0.262,1.578-1.037,2.013c-0.541,0.304-1.273,0.486-2.373,0.592
			c-0.173,0.017-0.344,0.024-0.512,0.024c-1.699,0-3.012-0.818-3.122-1.947c-0.12-1.265,1.285-2.4,3.198-2.586
			c0.404-0.039,0.751-0.059,1.061-0.059C119.861-32.426,120.799-31.766,120.926-30.463z M120.179-30.391
			c-0.062-0.635-0.353-1.285-2.038-1.285c-0.318,0-0.651,0.021-0.988,0.055c-1.445,0.141-2.601,0.95-2.523,1.768
			c0.076,0.793,1.35,1.388,2.814,1.249c0.615-0.06,1.5-0.175,2.078-0.499C120.034-29.393,120.237-29.789,120.179-30.391z"/>
		<path fill="#FFFFFF" d="M117.357-41.23c0.637-0.484,1.509-0.802,2.453-0.893c0.437-0.043,0.811-0.062,1.143-0.062
			c0.686,0,2.771,0,2.975,2.091c0.093,0.958-0.279,1.679-1.104,2.142c-0.742,0.418-1.752,0.561-2.549,0.637
			c-0.186,0.019-0.368,0.027-0.547,0.027c-1.819,0-3.225-0.875-3.34-2.078C116.323-40.044,116.668-40.705,117.357-41.23z
			 M117.136-39.439c0.084,0.874,1.476,1.529,3.067,1.377c0.668-0.064,1.627-0.191,2.254-0.543c0.564-0.317,0.787-0.755,0.723-1.417
			c-0.095-0.991-0.762-1.413-2.227-1.413c-0.308,0-0.658,0.019-1.07,0.059c-0.808,0.078-1.543,0.342-2.071,0.744
			C117.336-40.271,117.096-39.848,117.136-39.439z"/>
		<path fill="#FFFFFF" d="M124.413-35.076c0.231,2.401-2.49,2.665-3.653,2.777c-0.185,0.018-0.369,0.027-0.548,0.027
			c-1.818,0-3.222-0.873-3.339-2.076c-0.064-0.677,0.279-1.338,0.969-1.863c0.639-0.484,1.51-0.802,2.455-0.893
			c0.436-0.043,0.81-0.063,1.143-0.063C122.125-37.167,124.21-37.167,124.413-35.076z M123.666-35.004
			c-0.096-0.99-0.762-1.413-2.227-1.413c-0.309,0-0.658,0.021-1.071,0.06c-0.808,0.078-1.544,0.342-2.071,0.744
			c-0.476,0.361-0.716,0.785-0.677,1.193c0.085,0.885,1.46,1.527,3.068,1.375C122.946-33.264,123.781-33.812,123.666-35.004z"/>
		<path fill="#FFFFFF" d="M95.344-144.961c0.881,0.224,1.79,0.455,2.47,0.801s1.426,0.937,2.147,1.507
			c1.257,0.994,2.557,2.021,3.786,2.021c0.414,0,0.801-0.116,1.149-0.347c0.967-0.639,1.521-1.404,1.646-2.274
			c0.154-1.066-0.321-2.236-1.453-3.577c-0.488-0.58-0.541-1.236-0.603-1.996c-0.03-0.381-0.063-0.777-0.154-1.176h-0.776
			c0.112,0.392,0.148,0.803,0.183,1.235c0.066,0.814,0.134,1.657,0.777,2.419c0.972,1.151,1.404,2.156,1.284,2.986
			c-0.094,0.65-0.537,1.241-1.318,1.756c-1.042,0.69-2.579-0.47-4.056-1.637c-0.751-0.594-1.526-1.207-2.272-1.587
			c-0.754-0.385-1.706-0.626-2.626-0.86c-1.85-0.47-3.596-0.912-3.702-2.377c-0.061-0.835,0.107-1.481,0.486-1.935h-0.896
			c-0.277,0.541-0.396,1.204-0.339,1.99C91.224-146.005,93.412-145.45,95.344-144.961z"/>
		<path fill="#FFFFFF" d="M106.573-146.451c0.226,0.115,0.475,0.173,0.739,0.173c1.025,0,2.166-0.885,2.836-2.202
			c0.188-0.367,0.469-0.919,0.639-1.521h-0.793c-0.117,0.345-0.286,0.734-0.514,1.18c-0.645,1.265-1.848,2.068-2.566,1.702
			c-0.695-0.354-0.776-1.644-0.219-2.881h-0.814C105.299-148.462,105.56-146.968,106.573-146.451z"/>
		<path fill="#FFFFFF" d="M8.373,0h3.651C10.959-0.393,9.687-0.32,8.373,0z"/>
		<path fill="#FFFFFF" d="M3.371,0C2.328-0.311,1.25-0.563,0-0.179V0H3.371z"/>
		<path fill="#FFFFFF" d="M1.636-9.659C-0.226-8.013,1.08-5.971,2.772-4.061c1.692,1.913,4.022,2.615,5.205,1.567
			c1.184-1.048,0.771-3.445-0.922-5.358C5.363-9.764,3.495-11.306,1.636-9.659z"/>
		<path fill="#FFFFFF" d="M0-5.88v3.452C0.599-3.254,0.572-4.545,0-5.88z"/>
		<path fill="#FFFFFF" d="M150-0.179c-0.159,0.048-0.32,0.107-0.485,0.179H150V-0.179z"/>
		<path fill="#FFFFFF" d="M137.17-4.77c-1.598,1.414-1.028,3.1,0.191,4.77h7.21c-0.244-0.932-0.759-1.922-1.552-2.818
			C141.194-4.881,139.179-6.547,137.17-4.77z"/>
		<path fill="#FFFFFF" d="M142.886-9.827c-2.007,1.776-0.601,3.979,1.226,6.044c1.826,2.062,4.342,2.818,5.617,1.688
			c0.109-0.097,0.188-0.217,0.271-0.333V-5.88c-0.291-0.677-0.705-1.36-1.267-1.995C146.908-9.938,144.893-11.604,142.886-9.827z"/>
		<path fill="#FFFFFF" d="M48.881-2.411c-0.612-1.087-1.307-2.317-3.737-2.409c-2.448-0.094-3.221,1.084-3.913,2.117
			c-0.423,0.634-0.789,1.182-1.497,1.447C38.797-0.902,38.069-0.48,37.538,0h1.276c0.341-0.197,0.731-0.383,1.184-0.553
			c0.933-0.352,1.402-1.055,1.856-1.732c0.671-1.002,1.247-1.857,3.261-1.786c2.012,0.076,2.522,0.98,3.112,2.028
			c0.401,0.711,0.817,1.448,1.722,1.87C50.07-0.116,50.182-0.058,50.295,0h1.431c-0.402-0.301-0.886-0.584-1.46-0.853
			C49.58-1.174,49.256-1.748,48.881-2.411z"/>
		<path fill="#FFFFFF" d="M40.35-7.422c0.293,0.738,0.298,1.688,0.27,2.432c-0.071,1.873-1.097,3.341-2.335,3.341L38.224-1.65
			c-0.639-0.023-1.212-0.427-1.613-1.135c-0.368-0.65-0.554-1.495-0.52-2.379c0.04-1.064,0.135-3.557,2.294-3.557l0.109,0.002
			C39.397-8.684,40.022-8.248,40.35-7.422z M39.652-7.146c-0.217-0.546-0.583-0.801-1.188-0.824l-0.08-0.001
			c-1.021,0-1.468,0.82-1.544,2.835c-0.028,0.747,0.121,1.45,0.422,1.981c0.269,0.473,0.62,0.74,0.989,0.755l0.032,0.375v-0.375
			c0.806,0,1.531-1.2,1.585-2.62C39.893-5.639,39.896-6.53,39.652-7.146z"/>
		<path fill="#FFFFFF" d="M54.165-4.475C54.093-2.6,53.067-1.133,51.83-1.133h-0.059c-1.27-0.049-2.207-1.594-2.135-3.516
			c0.041-1.064,0.137-3.557,2.297-3.557l0.105,0.002C54.304-8.117,54.206-5.564,54.165-4.475z M52.011-7.454l-0.077-0.001
			c-1.021,0-1.47,0.821-1.547,2.836c-0.055,1.452,0.592,2.705,1.413,2.736l0.03,0.375v-0.375c0.805,0,1.53-1.199,1.585-2.621
			C53.494-6.584,53.101-7.412,52.011-7.454z"/>
		<path fill="#FFFFFF" d="M44.873-11.089c0.312,0.791,0.318,1.812,0.289,2.611C45.085-6.472,43.99-4.9,42.671-4.9h-0.062
			c-1.354-0.053-2.352-1.705-2.273-3.762c0.044-1.139,0.145-3.809,2.446-3.809l0.115,0.002
			C43.859-12.432,44.523-11.969,44.873-11.089z M44.176-10.812c-0.239-0.603-0.643-0.881-1.307-0.906l-0.088-0.002
			c-1.122,0-1.613,0.895-1.696,3.088c-0.061,1.582,0.649,2.947,1.552,2.982l0.034,0.375V-5.65c0.885,0,1.683-1.308,1.741-2.855
			C44.438-9.176,44.44-10.145,44.176-10.812z"/>
		<path fill="#FFFFFF" d="M50.199-8.286c-0.076,2.007-1.17,3.578-2.489,3.578l-0.062-0.001c-0.679-0.025-1.288-0.455-1.716-1.209
			c-0.396-0.697-0.594-1.604-0.558-2.552c0.044-1.14,0.145-3.809,2.446-3.809l0.114,0.001c0.964,0.037,1.628,0.502,1.977,1.381
			C50.225-10.105,50.229-9.086,50.199-8.286z M49.214-10.62c-0.239-0.603-0.642-0.882-1.307-0.907l-0.087-0.001
			c-1.122,0-1.613,0.895-1.696,3.087c-0.031,0.811,0.132,1.576,0.46,2.152c0.295,0.521,0.682,0.815,1.092,0.831l0.034,0.375v-0.375
			c0.884,0,1.681-1.308,1.739-2.856C49.475-8.984,49.479-9.952,49.214-10.62z"/>
		<path fill="#FFFFFF" d="M33.233-46.971c-0.928-1.489-1.23-2.715-0.926-3.748c0.249-0.844,0.907-1.521,1.956-2.015
			c0.283-0.133,0.58-0.2,0.882-0.2c1.334,0,2.568,1.304,3.763,2.564c0.633,0.668,1.286,1.359,1.91,1.799
			c0.622,0.441,1.49,0.801,2.328,1.146c1.842,0.762,3.929,1.624,3.785,3.629c-0.182,2.563-1.951,3.6-5.089,2.906
			c-0.697-0.152-1.358,0.104-2.044,0.396c-0.611,0.262-1.242,0.531-2.011,0.531c-0.001,0-0.001,0-0.001,0
			c-0.784,0-1.578-0.291-2.424-0.889c-1.987-1.404-1.898-2.814-1.819-4.06C33.593-45.671,33.635-46.328,33.233-46.971z
			 M33.871-47.367c0.527,0.847,0.474,1.69,0.422,2.506c-0.076,1.2-0.143,2.237,1.503,3.398c0.716,0.506,1.367,0.752,1.991,0.752
			c0,0,0,0,0.001,0c0.614,0,1.149-0.229,1.715-0.471c0.582-0.249,1.184-0.506,1.886-0.506c0.205,0,0.412,0.021,0.615,0.066
			c0.588,0.129,1.123,0.195,1.591,0.195c1.649,0,2.472-0.77,2.589-2.423c0.104-1.465-1.561-2.153-3.323-2.882
			c-0.877-0.363-1.784-0.738-2.476-1.227c-0.684-0.484-1.364-1.201-2.021-1.896c-1.085-1.146-2.207-2.33-3.218-2.33
			c-0.193,0-0.378,0.043-0.562,0.129c-0.848,0.397-1.371,0.918-1.557,1.549C32.79-49.702,33.073-48.646,33.871-47.367z"/>
		<path fill="#FFFFFF" d="M42.893-39.734c0.521,0.369,0.782,1.02,0.732,1.832c-0.045,0.745-0.352,1.555-0.862,2.277
			c-0.729,1.031-1.625,2.084-2.753,2.084c-0.406,0-0.81-0.139-1.2-0.416c-0.739-0.521-1.024-1.228-0.849-2.099
			c0.158-0.779,0.672-1.576,1.102-2.185c0.769-1.088,1.887-1.791,2.848-1.791C42.283-40.031,42.613-39.931,42.893-39.734z
			 M42.877-37.948c0.033-0.543-0.115-0.96-0.418-1.173c-0.15-0.105-0.334-0.16-0.549-0.16c-0.714,0-1.612,0.593-2.235,1.475
			c-0.357,0.504-0.847,1.252-0.978,1.899c-0.117,0.577,0.052,0.989,0.545,1.339c0.266,0.188,0.516,0.277,0.768,0.277
			c0.791,0,1.559-0.944,2.141-1.767C42.582-36.668,42.84-37.34,42.877-37.948z"/>
		<path fill="#FFFFFF" d="M28.938-41.363c-0.405,0-0.809-0.139-1.199-0.414c-1.85-1.309-0.377-3.395,0.253-4.284
			c0.769-1.089,1.887-1.792,2.849-1.792c0.371,0,0.701,0.1,0.98,0.297c1.037,0.732,0.98,2.537-0.129,4.109
			C30.963-42.416,30.066-41.363,28.938-41.363z M28.171-42.39c0.265,0.187,0.515,0.276,0.767,0.276c0.791,0,1.56-0.944,2.142-1.767
			c0.838-1.188,0.979-2.59,0.308-3.063c-0.149-0.106-0.334-0.16-0.547-0.16c-0.715,0-1.613,0.593-2.236,1.475
			C27.401-43.928,27.28-43.02,28.171-42.39z"/>
		<path fill="#FFFFFF" d="M34.352-32.772c-0.432,0-0.861-0.149-1.277-0.442c-0.521-0.368-0.834-0.83-0.928-1.371
			c-0.184-1.064,0.507-2.22,1.207-3.21c0.824-1.166,2.021-1.921,3.049-1.921c0.396,0,0.745,0.106,1.041,0.315
			c0.557,0.393,0.832,1.085,0.779,1.95c-0.049,0.799-0.378,1.666-0.926,2.442C36.517-33.903,35.556-32.772,34.352-32.772z
			 M36.685-35.441c0.469-0.663,0.749-1.394,0.79-2.056c0.036-0.597-0.129-1.055-0.463-1.292c-0.167-0.117-0.372-0.178-0.609-0.178
			c-0.779,0-1.759,0.645-2.438,1.604c-0.574,0.814-1.217,1.852-1.079,2.649c0.06,0.344,0.263,0.633,0.62,0.886
			c0.292,0.205,0.568,0.306,0.846,0.306C35.219-33.522,36.054-34.549,36.685-35.441z"/>
		<path fill="#FFFFFF" d="M30.232-35.682c-0.431,0-0.861-0.149-1.277-0.443c-0.786-0.556-1.09-1.308-0.902-2.234
			c0.169-0.834,0.721-1.691,1.183-2.345c0.825-1.167,2.022-1.921,3.051-1.921c0.394,0,0.743,0.105,1.039,0.313
			c0.556,0.392,0.832,1.085,0.779,1.95c-0.049,0.801-0.378,1.668-0.926,2.442C32.398-36.812,31.438-35.682,30.232-35.682z
			 M32.566-38.352c0.469-0.663,0.748-1.393,0.789-2.056c0.036-0.596-0.128-1.056-0.463-1.291c-0.166-0.117-0.371-0.177-0.606-0.177
			c-0.78,0-1.761,0.645-2.438,1.604c-0.387,0.548-0.917,1.356-1.06,2.061c-0.128,0.635,0.056,1.09,0.601,1.474
			c0.291,0.206,0.567,0.306,0.844,0.306C31.1-36.432,31.936-37.457,32.566-38.352z"/>
		<path fill="#FFFFFF" d="M102.106-2.58c-0.748-0.382-1.423-0.566-2.064-0.566c-0.988,0-1.726,0.449-2.376,0.847
			c-0.626,0.382-1.222,0.732-1.967,0.685c-0.248-0.018-0.496-0.028-0.74-0.028c-1.434,0-2.49,0.354-3.141,1.055
			C91.656-0.414,91.527-0.215,91.417,0h0.896c0.021-0.025,0.033-0.055,0.056-0.078c0.502-0.541,1.374-0.815,2.591-0.815
			c0.226,0,0.456,0.011,0.686,0.026c0.987,0.076,1.717-0.368,2.412-0.793c0.621-0.379,1.208-0.736,1.985-0.736
			c0.521,0,1.083,0.158,1.724,0.484c1.146,0.584,1.592,1.218,1.791,1.912h0.776C104.125-0.902,103.609-1.814,102.106-2.58z"/>
		<path fill="#FFFFFF" d="M98.071-4.635c-0.671,1.316-1.811,2.201-2.835,2.201c-0.266,0-0.516-0.059-0.741-0.174
			c-0.57-0.291-0.921-0.898-0.988-1.708c-0.062-0.744,0.126-1.589,0.528-2.377c0.622-1.224,1.428-2.476,2.682-2.476
			c0.321,0,0.655,0.088,0.991,0.259C99.726-7.881,98.566-5.605,98.071-4.635z M97.367-8.241c-0.229-0.117-0.449-0.177-0.65-0.177
			c-0.854,0-1.523,1.104-2.014,2.066c-0.34,0.666-0.499,1.367-0.448,1.975c0.044,0.542,0.251,0.934,0.581,1.102
			c0.721,0.369,1.923-0.436,2.567-1.7C98.349-6.83,98.339-7.746,97.367-8.241z"/>
		<path fill="#FFFFFF" d="M109.785-2.756c-0.336-0.171-0.668-0.258-0.989-0.258c-1.252,0-2.06,1.252-2.684,2.478
			c-0.091,0.178-0.163,0.357-0.23,0.536h0.813c0.029-0.065,0.053-0.131,0.085-0.196c0.491-0.962,1.163-2.067,2.016-2.067
			c0.202,0,0.42,0.06,0.648,0.176c0.737,0.377,0.918,0.998,0.55,2.088h0.792C111.065-0.992,111.04-2.115,109.785-2.756z"/>
		<path fill="#FFFFFF" d="M103.658-5.892c-0.719,1.411-1.938,2.358-3.034,2.358c-0.281,0-0.545-0.062-0.784-0.184
			c-1.207-0.616-1.42-2.535-0.484-4.368c0.668-1.312,1.532-2.655,2.867-2.655c0.342,0,0.697,0.092,1.056,0.275
			c0.858,0.437,1.267,1.137,1.214,2.082C104.445-7.533,104.021-6.605,103.658-5.892z M102.99-6.232
			c0.304-0.597,0.713-1.475,0.753-2.192c0.036-0.647-0.212-1.07-0.805-1.372c-0.252-0.128-0.493-0.193-0.716-0.193
			c-0.936,0-1.667,1.199-2.199,2.246c-0.72,1.41-0.647,2.949,0.156,3.359C100.976-3.98,102.288-4.854,102.99-6.232z"/>
		<path fill="#FFFFFF" d="M108.984-6.093c-0.049,0.849-0.472,1.776-0.835,2.489c-0.72,1.412-1.938,2.359-3.033,2.359
			c-0.281,0-0.545-0.061-0.784-0.183c-1.206-0.615-1.42-2.534-0.484-4.369c0.67-1.313,1.534-2.655,2.867-2.655
			c0.343,0,0.697,0.093,1.055,0.275C108.629-7.738,109.037-7.038,108.984-6.093z M108.235-6.136
			c0.036-0.646-0.212-1.069-0.806-1.372c-0.252-0.129-0.492-0.193-0.715-0.193c-0.934,0-1.666,1.2-2.199,2.246
			c-0.719,1.412-0.647,2.95,0.156,3.36c0.798,0.403,2.106-0.471,2.81-1.85C107.785-4.541,108.195-5.418,108.235-6.136z"/>
		<path fill="#FFFFFF" d="M110.76-91.717c0.584,0.591,0.872,1.448,0.857,2.546c-0.023,1.838-2.125,2.5-4.157,3.141
			c-0.877,0.277-1.784,0.562-2.453,0.93s-1.37,0.991-2.05,1.594c-1.188,1.055-2.417,2.146-3.725,2.146
			c-0.414,0-0.816-0.11-1.194-0.33c-0.988-0.571-1.573-1.295-1.737-2.153c-0.203-1.063,0.251-2.306,1.351-3.694
			c0.469-0.593,0.501-1.251,0.538-2.012c0.06-1.246,0.129-2.658,2.262-3.83c0.773-0.427,1.477-0.634,2.148-0.634
			c0.936,0,1.658,0.41,2.297,0.772c0.639,0.363,1.227,0.702,1.988,0.623C108.694-92.81,109.98-92.506,110.76-91.717z M110.227-91.19
			c-0.608-0.616-1.703-0.848-3.263-0.683c-0.992,0.108-1.73-0.314-2.438-0.716c-0.611-0.348-1.188-0.675-1.926-0.675
			c-0.543,0-1.127,0.177-1.787,0.541c-1.766,0.97-1.816,2.008-1.874,3.21c-0.04,0.815-0.081,1.659-0.698,2.44
			c-0.959,1.21-1.363,2.249-1.203,3.088c0.121,0.635,0.584,1.188,1.376,1.645c0.267,0.155,0.535,0.229,0.819,0.229
			c1.023,0,2.144-0.995,3.227-1.956c0.71-0.631,1.443-1.283,2.186-1.69c0.734-0.404,1.678-0.701,2.591-0.988
			c1.858-0.586,3.615-1.14,3.632-2.436C110.879-90.071,110.664-90.747,110.227-91.19z"/>
		<path fill="#FFFFFF" d="M95.36-86.9c-1.022,0-2.14-0.829-2.845-2.112c-0.545-0.988-1.063-2.129-0.781-3.101
			c0.145-0.496,0.484-0.895,1.01-1.184c0.35-0.192,0.699-0.29,1.039-0.29c1.222,0,2.051,1.209,2.702,2.391
			c0.427,0.775,0.641,1.614,0.602,2.36c-0.041,0.812-0.373,1.43-0.934,1.738C95.914-86.967,95.647-86.9,95.36-86.9z M95.792-87.756
			c0.324-0.178,0.519-0.576,0.546-1.118c0.031-0.609-0.149-1.306-0.51-1.96c-0.513-0.933-1.209-2.003-2.045-2.003
			c-0.212,0-0.44,0.067-0.678,0.197c-0.35,0.192-0.563,0.433-0.651,0.736c-0.206,0.712,0.275,1.726,0.718,2.529
			C93.852-88.138,95.085-87.367,95.792-87.756z"/>
		<path fill="#FFFFFF" d="M104.392-95.547c-0.525-0.956-1.756-3.192,0.228-4.286c0.35-0.191,0.699-0.289,1.039-0.289
			c1.222,0,2.053,1.208,2.703,2.391c0.927,1.686,0.782,3.485-0.33,4.098c-0.239,0.132-0.507,0.199-0.794,0.199
			C106.215-93.435,105.098-94.264,104.392-95.547z M105.049-95.909c0.681,1.237,1.913,2.007,2.62,1.619
			c0.72-0.396,0.736-1.806,0.035-3.08c-0.514-0.932-1.21-2.002-2.046-2.002c-0.212,0-0.439,0.066-0.678,0.197
			C104.026-98.649,104.045-97.733,105.049-95.909z"/>
		<path fill="#FFFFFF" d="M94.351-94.196c-0.562-1.023-1.881-3.419,0.235-4.583c0.373-0.205,0.744-0.31,1.106-0.31
			c1.303,0,2.192,1.296,2.891,2.564c0.992,1.803,0.841,3.728-0.346,4.381c-0.253,0.14-0.536,0.21-0.841,0.21
			C96.319-91.933,95.096-92.843,94.351-94.196z M95.008-94.558c0.742,1.348,2.084,2.186,2.869,1.758
			c0.789-0.436,0.812-1.977,0.049-3.363c-0.558-1.014-1.315-2.176-2.233-2.176c-0.233,0-0.484,0.073-0.745,0.216
			C93.898-97.545,93.915-96.545,95.008-94.558z"/>
		<path fill="#FFFFFF" d="M98.769-96.627c-0.562-1.023-1.88-3.419,0.234-4.583c0.373-0.205,0.745-0.309,1.106-0.309
			c1.303,0,2.191,1.295,2.89,2.563c0.992,1.803,0.843,3.727-0.344,4.381c-0.253,0.14-0.536,0.21-0.841,0.21
			C100.737-94.364,99.514-95.273,98.769-96.627z M99.426-96.989c0.742,1.349,2.091,2.187,2.868,1.758
			c0.789-0.436,0.812-1.975,0.048-3.363c-0.558-1.013-1.315-2.175-2.232-2.175c-0.232,0-0.484,0.072-0.744,0.216
			C98.316-99.976,98.333-98.976,99.426-96.989z"/>
	</g>
</pattern>
<pattern  id="SVGID_1_" xlink:href="#Nueva_muestra_de_motivo_8" patternTransform="matrix(1 0 0 1 150 0)">
</pattern>
<rect fill="url(#SVGID_1_)" width="150" height="150"/>
</svg>
