<?xml version="1.0" encoding="utf-8"?>
<!-- Generator: Adobe Illustrator 16.0.0, SVG Export Plug-In . SVG Version: 6.00 Build 0)  -->
<!DOCTYPE svg PUBLIC "-//W3C//DTD SVG 1.1//EN" "http://www.w3.org/Graphics/SVG/1.1/DTD/svg11.dtd">
<svg version="1.1" id="Layer_1" xmlns="http://www.w3.org/2000/svg" xmlns:xlink="http://www.w3.org/1999/xlink" x="0px" y="0px"
	 width="150px" height="150px" viewBox="0 0 150 150" enable-background="new 0 0 150 150" xml:space="preserve">
<pattern  x="-25" y="-325" width="150" height="150" patternUnits="userSpaceOnUse" id="Nueva_muestra_de_motivo_6" viewBox="0 -150 150 150" overflow="visible">
	<g>
		<polygon fill="none" points="0,-150 150,-150 150,0 0,0 		"/>
		<path fill="none" d="M106.244-148.333c-2.276,1.506-5.109,3.38-6.881,3.381c-0.201,0-0.39-0.024-0.56-0.071
			c-0.415-0.115-0.794-0.238-1.152-0.355c-0.797-0.26-1.485-0.484-2.215-0.484c-0.433,0-0.868,0.079-1.33,0.24
			c-0.929,0.326-1.665,1.216-1.753,2.119c-0.04,0.406,0.044,0.967,0.664,1.331c1.367,0.802,2.047,1.201,2.088,1.781
			c0.029,0.421-0.316,0.696-0.432,0.787c-0.246,0.195-0.667,1.22-0.382,2.039c0.223,0.64,0.829,0.965,1.803,0.965
			c0.215,0,0.45-0.016,0.706-0.05c2.053-0.272,2.108-0.989,2.186-1.981c0.057-0.726,0.127-1.629,1.113-2.261
			c2.005-1.284,9.144-5.278,9.445-5.447l0.129-0.044c0.309-0.045,0.625-0.068,0.939-0.068c1.006,0,1.891,0.232,2.673,0.437
			c0.78,0.205,1.493,0.392,2.188,0.311c0.725-0.089,1.445-0.757,1.711-1.59c0.241-0.752,0.068-1.468-0.474-1.966
			c-0.44-0.404-0.946-0.61-1.433-0.739h-6.678c-0.229,0.241-0.498,0.468-0.828,0.674
			C107.322-149.046,106.803-148.702,106.244-148.333z"/>
		<path fill="none" d="M46.847-6.038c0.509-1.335,1.346-2.204,2.084-2.972c0.579-0.603,1.078-1.121,1.34-1.76
			c0.232-0.566,0.111-1.336-0.307-1.96c-0.53-0.789-1.367-1.127-2.193-0.855c-0.877,0.288-1.421,0.947-1.858,1.476
			c-0.371,0.449-0.664,0.804-1.083,0.804c-0.391,0-0.629-0.328-0.707-0.435c-0.365-0.504-1.3-1.042-2.109-1.042
			c-0.705,0-1.134,0.414-1.274,1.229c-0.194,1.12,0.36,1.75,1.062,2.547c0.694,0.788,1.48,1.681,1.55,3.19
			c0.025,0.53,0.071,1.151,0.121,1.819c0.096,1.281,0.2,2.693,0.197,3.996h3.183c-0.028-2.828-0.029-5.703-0.029-5.904L46.847-6.038
			z"/>
		<path fill="none" d="M5.333-103.816c0.378,0.204,0.721,0.408,1.044,0.602c1.131,0.676,1.979,1.186,3.403,1.025
			c0.977-0.111,1.894-0.815,2.179-1.675c0.128-0.388,0.172-0.953-0.354-1.445c-1.152-1.085-1.728-1.626-1.637-2.201
			c0.064-0.417,0.463-0.608,0.594-0.671c0.322-0.153,0.966-1.141,0.812-1.998c-0.173-0.965-1.308-1.27-2.229-1.355
			c-2.022-0.19-2.272,0.484-2.571,1.446c-0.216,0.695-0.485,1.561-1.588,1.957c-0.968,0.349-2.983,0.978-4.986,1.587v3.339
			c1.467-0.492,2.924-0.882,4.029-0.882C4.567-104.088,4.994-103.999,5.333-103.816z"/>
		<path fill="none" d="M1.936-32.059c0.195-0.416,0.428-1.227-0.209-1.996C1.231-34.653,0.583-34.932,0-35.135v4.434
			c0.005,0,0.011,0.001,0.016,0.001C0.768-30.7,1.566-31.271,1.936-32.059z"/>
		<path fill="none" d="M41.855-145.055c-0.985,0.91-1.697,1.568-1.943,2.975c-0.133,0.761,0.094,1.602,0.59,2.192
			c0.536,0.638,1.25,0.818,1.889,0.442c1.131-0.663,1.747-1.024,2.233-1.024c0.255,0,0.7,0.108,0.816,0.832
			c0.062,0.392,0.917,1.351,1.833,1.351c0.895,0,1.463-0.96,1.783-1.765c0.765-1.925,0.166-2.323-0.662-2.874
			c-0.605-0.404-1.359-0.906-1.43-2.075c-0.059-0.989-0.094-2.983-0.114-4.999h-3.183c-0.005,1.795-0.213,3.379-0.939,4.113
			C42.425-145.581,42.132-145.31,41.855-145.055z"/>
		<path fill="none" d="M105.363-84.099c-0.96-0.423-2.049-0.902-2.747-2.244c-0.245-0.47-0.548-1.013-0.873-1.597
			c-1.488-2.671-3.342-5.996-2.735-7.673c0.146-0.405,0.299-0.774,0.441-1.122c0.512-1.24,0.882-2.136,0.513-3.516
			c-0.285-1.067-1.3-1.935-2.263-1.935c-0.455,0-0.824,0.197-1.094,0.586c-0.902,1.299-1.351,1.945-1.931,1.945
			c-0.425,0-0.674-0.368-0.755-0.489c-0.136-0.2-0.809-0.591-1.559-0.591c-0.441,0-0.795,0.137-1.052,0.408
			c-0.385,0.407-0.552,1.106-0.498,2.079c0.116,2.068,0.826,2.178,1.81,2.331c0.72,0.111,1.614,0.25,2.17,1.281
			c1.127,2.098,4.566,9.519,4.713,9.834l0.033,0.131c0.1,1.425-0.295,2.567-0.643,3.573c-0.272,0.79-0.508,1.47-0.477,2.16
			c0.046,1.004,1.16,1.989,2.249,1.989c0.454,0,0.858-0.163,1.202-0.485c0.676-0.631,0.893-1.458,1.067-2.121
			c0.161-0.614,0.327-1.248,0.937-1.248c0.164,0,0.338,0.053,0.532,0.162c0.307,0.171,0.775,0.274,1.255,0.274
			c0.714,0,1.312-0.224,1.599-0.599c0.235-0.308,0.282-0.735,0.14-1.269C107.103-83.333,106.335-83.67,105.363-84.099z"/>
		<path fill="none" d="M57.629-61.736c-0.374-0.16-0.779-0.238-1.239-0.238c-0.407,0-0.792,0.062-1.131,0.114
			c-0.276,0.044-0.515,0.082-0.727,0.082c-0.001,0-0.001,0-0.002,0c-0.112,0-0.444-0.001-0.668-0.248
			c-0.158-0.175-0.22-0.417-0.188-0.743c0.052-0.538-0.21-1.443-0.738-2.023c-0.293-0.324-0.612-0.487-0.948-0.487
			c-0.307,0-0.635,0.139-0.976,0.413c-0.887,0.71-0.887,1.549-0.889,2.611c-0.001,1.05-0.004,2.24-0.95,3.418
			c-0.333,0.413-0.709,0.909-1.113,1.443c-1.849,2.436-4.147,5.467-5.927,5.587c-0.429,0.028-0.827,0.037-1.203,0.046
			c-1.341,0.029-2.31,0.051-3.426,0.943c-0.77,0.615-1.17,1.7-0.953,2.58c0.098,0.396,0.361,0.897,1.067,1.035
			c1.554,0.303,2.328,0.455,2.559,0.989c0.167,0.389-0.068,0.763-0.146,0.886c-0.154,0.243-0.211,1.143,0.162,1.82
			c0.266,0.48,0.681,0.726,1.235,0.726c0.447,0,0.981-0.155,1.588-0.463c1.847-0.937,1.662-1.631,1.406-2.593
			c-0.188-0.703-0.42-1.579,0.302-2.502c1.468-1.876,6.881-8.008,7.11-8.268l0.106-0.084c1.266-0.663,2.47-0.762,3.532-0.848
			c0.831-0.068,1.549-0.126,2.167-0.432c0.653-0.323,1.111-1.193,1.087-2.067C58.706-60.827,58.306-61.445,57.629-61.736z"/>
		<path fill="none" d="M113.276-0.734c-0.175-0.336-0.01-0.693,0.045-0.811c0.275-0.594,0.272-1.74-0.173-2.436
			c-0.354-0.553-0.899-0.689-1.644-0.427c-1.071,0.378-1.351,1.169-1.704,2.171c-0.258,0.734-0.545,1.542-1.199,2.236h6.679
			c-0.265-0.07-0.525-0.119-0.764-0.162C113.934-0.27,113.474-0.354,113.276-0.734z"/>
		<path fill="none" d="M148.523-35.982c-0.127-0.357,0.086-0.688,0.156-0.797c0.381-0.596,0.511-1.805,0.113-2.532
			c-0.286-0.522-0.793-0.702-1.522-0.552c-1.114,0.229-1.498,0.974-1.984,1.918c-0.48,0.934-1.025,1.99-2.407,2.605
			c-0.483,0.217-1.045,0.486-1.647,0.775c-2.263,1.087-5.077,2.438-6.863,2.438c-0.371,0-0.694-0.059-0.96-0.174
			c-0.396-0.171-0.755-0.345-1.094-0.51c-0.938-0.456-1.681-0.815-2.624-0.815c-0.273,0-0.554,0.03-0.854,0.091
			c-0.965,0.196-1.816,0.979-2.026,1.86c-0.094,0.396-0.088,0.963,0.477,1.408c1.244,0.98,1.863,1.469,1.824,2.05
			c-0.028,0.422-0.409,0.646-0.535,0.72c-0.306,0.182-0.861,1.221-0.634,2.062c0.256,0.945,1.413,1.149,2.339,1.154l0.04,0.375
			v-0.375c2.033,0,2.185-0.697,2.396-1.664c0.154-0.711,0.348-1.597,1.41-2.088c2.162-0.999,9.778-3.981,10.102-4.108l0.134-0.025
			h0.001c1.456,0,2.557,0.456,3.525,0.858c0.766,0.317,1.428,0.59,2.111,0.605v-4.434c-0.109-0.038-0.222-0.078-0.325-0.112
			C149.111-35.433,148.667-35.578,148.523-35.982z"/>
		<path fill="none" d="M144.501-104.899l-0.069-0.006c-1.424-0.112-2.496-0.67-3.44-1.162c-0.739-0.385-1.379-0.718-2.064-0.789
			c-0.051-0.006-0.103-0.008-0.153-0.008c-0.738,0-1.531,0.527-1.928,1.283c-0.2,0.381-0.454,1.136,0.084,1.917
			c0.524,0.76,1.31,1.097,1.94,1.367c0.544,0.233,0.974,0.418,1.082,0.833c0.095,0.367-0.146,0.678-0.226,0.78
			c-0.442,0.575-0.673,1.822-0.306,2.568c0.247,0.504,0.719,0.709,1.442,0.625c1.129-0.13,1.576-0.84,2.144-1.738
			c0.561-0.888,1.195-1.894,2.624-2.387c0.503-0.173,1.087-0.394,1.716-0.63c0.833-0.314,1.745-0.657,2.653-0.961v-3.339
			c-2.633,0.802-5.244,1.57-5.434,1.625L144.501-104.899z"/>
		<path fill="#FFFFFF" d="M5.25-140.252c0.174,2.998-0.293,4.98,1.556,7.336c1.848,2.356,5.888,2.492,6.474-0.359
			c0.584-2.852,0.822-4.027,2.007-3.263c1.184,0.765,6.718,0.247,4.009-5.217c-2.709-5.464-5.003-0.586-7.839-2.847
			c-1.251-0.997-3.806-3.222-6.272-5.399H0v3.411C2.68-144.396,5.146-142.038,5.25-140.252z"/>
		<path fill="#FFFFFF" d="M14.834-51.271c2.296,1.169,6.123-0.908,5.371-4.053s-4.327-4.06-2.579-5.117
			c1.747-1.056,3.737-5.188-0.009-6.161c-3.747-0.974-4.807,3.359-9.102,3.199C6.268-63.488,2.942-63.407,0-63.636v5.967
			c4.155,0.31,8.144,0.643,8.144,0.643C11.482-55.422,12.541-52.442,14.834-51.271z"/>
		<path fill="#FFFFFF" d="M145.658-150c1.261,0.996,2.833,2.177,4.342,3.411V-150H145.658z"/>
		<path fill="#FFFFFF" d="M76.279-120.875c-2.889-0.356-4.079-0.5-3.412-1.742c0.669-1.24-0.289-6.715-5.519-3.58
			c-5.231,3.136-0.187,5.034-2.214,8.041c-2.027,3.01-9.829,13.213-9.829,13.213c-3.151,1.947-6.231,1.232-8.454,2.533
			c-2.222,1.302-2.536,5.646,0.519,6.707c3.053,1.062,5.752-1.455,5.7,0.587c-0.053,2.041,2.354,5.944,5.193,3.314
			c2.84-2.632-0.237-5.859,2.213-9.391c2.45-3.528,6.511-10.712,9.486-11.124c2.976-0.413,4.988-0.104,7.189-2.135
			C79.354-116.48,79.168-120.518,76.279-120.875z"/>
		<path fill="#FFFFFF" d="M89.385-31.206c-1.011-3.485-3.843-16.013-3.843-16.013c0.525-3.668,3.048-5.573,3.475-8.113
			c0.424-2.54-2.709-5.566-5.481-3.901c-2.771,1.663-2.568,5.348-4.104,3.999c-1.533-1.348-6.072-2.002-5.872,1.862
			c0.199,3.867,4.649,3.573,5.79,7.718c1.138,4.143,4.049,11.863,2.457,14.411c-1.59,2.548-3.116,3.896-2.969,6.888
			c0.146,2.99,3.365,5.434,5.491,3.447c2.124-1.989,2.997-2.812,3.523-1.504c0.523,1.309,5.339,4.082,6.286-1.941
			C95.084-30.379,90.394-27.723,89.385-31.206z"/>
		<path fill="#FFFFFF" d="M4.977-103.156c0.369,0.199,0.701,0.397,1.015,0.585c1.194,0.713,2.197,1.319,3.873,1.127
			c1.272-0.145,2.427-1.043,2.807-2.184c0.274-0.829,0.074-1.641-0.56-2.236c-0.689-0.648-1.402-1.319-1.405-1.52
			c0,0,0.028-0.049,0.181-0.121c0.641-0.306,1.438-1.619,1.227-2.806c-0.141-0.79-0.758-1.772-2.898-1.971
			c-2.704-0.249-3.053,0.989-3.357,1.97c-0.2,0.646-0.374,1.204-1.125,1.474c-0.91,0.328-2.807,0.921-4.732,1.508v0.785
			c2.003-0.609,4.019-1.238,4.986-1.587c1.103-0.396,1.372-1.262,1.588-1.957c0.299-0.961,0.549-1.636,2.571-1.446
			c0.922,0.085,2.057,0.39,2.229,1.355c0.153,0.857-0.49,1.844-0.812,1.998c-0.131,0.062-0.529,0.253-0.594,0.671
			c-0.091,0.575,0.484,1.116,1.637,2.201c0.525,0.492,0.481,1.058,0.354,1.445c-0.285,0.86-1.202,1.564-2.179,1.675
			c-1.424,0.16-2.272-0.349-3.403-1.025c-0.323-0.193-0.666-0.398-1.044-0.602c-0.339-0.183-0.766-0.272-1.304-0.272
			c-1.105,0-2.562,0.391-4.029,0.882v0.792c1.484-0.508,2.963-0.924,4.029-0.924C4.434-103.338,4.754-103.276,4.977-103.156z"/>
		<path fill="#FFFFFF" d="M138.358-70.301c-2.897-0.76-6.196,1.574-4.94,4.199c1.258,2.624,1.779,3.705,0.373,3.812
			c-1.405,0.105-5.5,3.863-0.04,6.578c5.461,2.716,4.34-2.557,7.966-2.47c1.603,0.038,4.994,0.268,8.283,0.512v-5.967
			c-2.677-0.208-5.038-0.673-5.968-1.761C142.081-67.68,141.255-69.541,138.358-70.301z"/>
		<path fill="#FFFFFF" d="M141.338-106.732c-0.774-0.403-1.506-0.784-2.335-0.87c-1.089-0.109-2.253,0.59-2.821,1.673
			c-0.475,0.903-0.426,1.884,0.131,2.69c0.647,0.938,1.58,1.339,2.262,1.631c0.254,0.109,0.602,0.258,0.649,0.312
			c0,0-0.007,0.047-0.09,0.155c-0.601,0.779-0.898,2.313-0.386,3.357c0.337,0.685,0.984,1.062,1.825,1.062
			c0.119,0,0.244-0.007,0.376-0.023c1.486-0.171,2.1-1.143,2.691-2.083c0.52-0.822,1.055-1.671,2.234-2.078
			c0.509-0.175,1.1-0.398,1.736-0.637c0.753-0.284,1.572-0.592,2.389-0.872v-0.792c-0.908,0.304-1.82,0.647-2.653,0.961
			c-0.629,0.236-1.213,0.457-1.716,0.63c-1.429,0.493-2.063,1.499-2.624,2.387c-0.567,0.898-1.015,1.608-2.144,1.738
			c-0.724,0.084-1.195-0.122-1.442-0.625c-0.367-0.747-0.137-1.994,0.306-2.568c0.08-0.102,0.32-0.414,0.226-0.78
			c-0.108-0.416-0.538-0.6-1.082-0.833c-0.631-0.271-1.416-0.607-1.94-1.367c-0.538-0.78-0.284-1.536-0.084-1.917
			c0.396-0.755,1.189-1.283,1.928-1.283c0.051,0,0.103,0.002,0.153,0.008c0.686,0.07,1.325,0.403,2.064,0.789
			c0.944,0.492,2.017,1.05,3.44,1.162l0.069,0.006l0.065-0.02c0.189-0.056,2.801-0.824,5.434-1.625v-0.785
			c-2.539,0.775-5.129,1.539-5.577,1.671C143.184-105.771,142.246-106.259,141.338-106.732z"/>
		<path fill="#FFFFFF" d="M41.347-145.605c-1.011,0.934-1.884,1.739-2.173,3.397c-0.17,0.974,0.119,2.048,0.754,2.804
			c0.77,0.915,1.874,1.174,2.854,0.6c0.872-0.511,1.561-0.915,1.854-0.92c0,0,0.039,0.042,0.064,0.207
			c0.112,0.696,1.249,1.982,2.574,1.982c0.726,0,1.745-0.388,2.48-2.238c0.988-2.49-0.082-3.203-0.943-3.776
			c-0.562-0.375-1.049-0.699-1.097-1.495c-0.058-0.964-0.092-2.946-0.112-4.955h-0.751c0.021,2.016,0.056,4.01,0.114,4.999
			c0.07,1.169,0.824,1.671,1.43,2.075c0.828,0.551,1.427,0.949,0.662,2.874c-0.32,0.805-0.889,1.765-1.783,1.765
			c-0.916,0-1.771-0.959-1.833-1.351c-0.116-0.724-0.562-0.832-0.816-0.832c-0.486,0-1.103,0.361-2.233,1.024
			c-0.639,0.375-1.353,0.195-1.889-0.442c-0.496-0.59-0.723-1.431-0.59-2.192c0.246-1.407,0.958-2.065,1.943-2.975
			c0.276-0.255,0.569-0.526,0.873-0.832c0.727-0.734,0.935-2.318,0.939-4.113h-0.753c-0.003,1.6-0.166,3.025-0.72,3.586
			C41.9-146.117,41.615-145.854,41.347-145.605z"/>
		<path fill="#FFFFFF" d="M2.615-31.739c0.46-0.98,0.348-1.998-0.311-2.793C1.607-35.375,0.694-35.699,0-35.93v0.795
			c0.583,0.203,1.231,0.481,1.727,1.08c0.637,0.77,0.404,1.58,0.209,1.996C1.566-31.271,0.768-30.7,0.016-30.7
			c-0.005,0-0.011-0.001-0.016-0.001v0.748c0.014,0,0.025,0.003,0.038,0.003C1.059-29.95,2.119-30.686,2.615-31.739z"/>
		<path fill="#FFFFFF" d="M149.234-36.213c0-0.001,0.003-0.048,0.076-0.162c0.506-0.789,0.684-2.303,0.141-3.296
			c-0.443-0.812-1.267-1.144-2.332-0.927c-1.465,0.3-1.991,1.32-2.5,2.309c-0.444,0.863-0.904,1.758-2.045,2.266
			c-0.49,0.219-1.058,0.49-1.668,0.783c-2.193,1.054-4.923,2.363-6.538,2.364c-0.268,0-0.491-0.038-0.663-0.112
			c-0.385-0.166-0.734-0.336-1.063-0.495c-0.984-0.479-1.835-0.892-2.951-0.892c-0.324,0-0.652,0.035-1.003,0.106
			c-1.257,0.255-2.328,1.251-2.607,2.421c-0.201,0.85,0.069,1.641,0.754,2.18c0.742,0.586,1.51,1.19,1.531,1.39
			c0,0.001-0.024,0.051-0.17,0.137c-0.611,0.36-1.291,1.739-0.978,2.903c0.21,0.773,0.911,1.698,3.059,1.709h0.045
			c2.638,0,2.91-1.25,3.128-2.255c0.144-0.661,0.269-1.231,0.992-1.565c2.037-0.941,9.23-3.766,9.995-4.065
			c1.243,0.005,2.221,0.409,3.165,0.802c0.795,0.329,1.548,0.639,2.398,0.66v-0.748c-0.684-0.016-1.346-0.288-2.111-0.605
			c-0.969-0.402-2.069-0.858-3.525-0.858h-0.001l-0.134,0.025c-0.323,0.127-7.939,3.109-10.102,4.108
			c-1.062,0.491-1.256,1.377-1.41,2.088c-0.211,0.967-0.362,1.664-2.396,1.664v0.375l-0.04-0.375
			c-0.926-0.005-2.083-0.209-2.339-1.154c-0.228-0.842,0.328-1.881,0.634-2.062c0.126-0.074,0.507-0.298,0.535-0.72
			c0.039-0.581-0.58-1.069-1.824-2.05c-0.564-0.445-0.57-1.012-0.477-1.408c0.21-0.882,1.062-1.664,2.026-1.86
			c0.3-0.061,0.58-0.091,0.854-0.091c0.943,0,1.686,0.359,2.624,0.815c0.339,0.165,0.697,0.339,1.094,0.51
			c0.266,0.115,0.589,0.174,0.96,0.174c1.786-0.001,4.601-1.352,6.863-2.438c0.603-0.289,1.164-0.559,1.647-0.775
			c1.382-0.615,1.927-1.672,2.407-2.605c0.486-0.944,0.87-1.689,1.984-1.918c0.729-0.15,1.236,0.029,1.522,0.552
			c0.397,0.728,0.268,1.937-0.113,2.532c-0.07,0.108-0.283,0.439-0.156,0.797c0.144,0.404,0.588,0.55,1.151,0.735
			c0.104,0.034,0.216,0.074,0.325,0.112v-0.795c-0.03-0.01-0.062-0.021-0.091-0.03C149.646-36.046,149.287-36.164,149.234-36.213z"
			/>
		<path fill="#FFFFFF" d="M108.121-82.43c0.259,0.96-0.002,1.574-0.268,1.92c-0.435,0.567-1.234,0.892-2.193,0.892
			c-0.61,0-1.201-0.135-1.621-0.369c-0.117-0.065-0.163-0.066-0.166-0.066c-0.045,0.055-0.141,0.421-0.211,0.688
			c-0.188,0.717-0.447,1.699-1.279,2.479c-0.481,0.449-1.075,0.688-1.716,0.688c0,0,0,0-0.001,0c-1.504,0-2.933-1.29-2.997-2.705
			c-0.038-0.833,0.231-1.612,0.517-2.438c0.334-0.967,0.679-1.967,0.607-3.208c-0.346-0.746-3.6-7.753-4.663-9.73
			c-0.378-0.702-0.955-0.792-1.624-0.895c-1.021-0.158-2.293-0.354-2.443-3.03c-0.065-1.187,0.17-2.074,0.703-2.636
			c0.396-0.42,0.949-0.642,1.596-0.642c0.962,0,1.88,0.478,2.18,0.921c0.095,0.139,0.146,0.161,0.146,0.161
			c0.197-0.034,0.754-0.836,1.293-1.612c0.416-0.599,1.023-0.921,1.719-0.921c1.302,0,2.614,1.094,2.987,2.492
			c0.434,1.624-0.019,2.723-0.543,3.994c-0.14,0.339-0.288,0.697-0.431,1.092c-0.489,1.355,1.422,4.784,2.686,7.053
			c0.329,0.591,0.635,1.14,0.883,1.616c0.576,1.108,1.495,1.513,2.385,1.904C106.683-84.337,107.733-83.874,108.121-82.43z
			 M107.398-82.235c-0.296-1.098-1.063-1.436-2.035-1.864c-0.96-0.423-2.049-0.902-2.747-2.244c-0.245-0.47-0.548-1.013-0.873-1.597
			c-1.488-2.671-3.342-5.996-2.735-7.673c0.146-0.405,0.299-0.774,0.441-1.122c0.512-1.24,0.882-2.136,0.513-3.516
			c-0.285-1.067-1.3-1.935-2.263-1.935c-0.455,0-0.824,0.197-1.094,0.586c-0.902,1.299-1.351,1.945-1.931,1.945
			c-0.425,0-0.674-0.368-0.755-0.489c-0.136-0.2-0.809-0.591-1.559-0.591c-0.441,0-0.795,0.137-1.052,0.408
			c-0.385,0.407-0.552,1.106-0.498,2.079c0.116,2.068,0.826,2.178,1.81,2.331c0.72,0.111,1.614,0.25,2.17,1.281
			c1.127,2.098,4.566,9.519,4.713,9.834l0.033,0.131c0.1,1.425-0.295,2.567-0.643,3.573c-0.272,0.79-0.508,1.47-0.477,2.16
			c0.046,1.004,1.16,1.989,2.249,1.989c0.454,0,0.858-0.163,1.202-0.485c0.676-0.631,0.893-1.458,1.067-2.121
			c0.161-0.614,0.327-1.248,0.937-1.248c0.164,0,0.338,0.053,0.532,0.162c0.307,0.171,0.775,0.274,1.255,0.274
			c0.714,0,1.312-0.224,1.599-0.599C107.494-81.273,107.541-81.701,107.398-82.235z"/>
		<path fill="#FFFFFF" d="M105.83-148.958c-2.076,1.374-4.921,3.256-6.468,3.256c-0.133,0-0.253-0.015-0.358-0.044
			c-0.403-0.112-0.771-0.232-1.119-0.345c-0.858-0.28-1.6-0.521-2.448-0.521c-0.519,0-1.034,0.092-1.577,0.283
			c-1.21,0.424-2.137,1.557-2.252,2.754c-0.085,0.869,0.291,1.616,1.045,2.058c0.814,0.478,1.657,0.972,1.705,1.167
			c0,0-0.018,0.054-0.148,0.158c-0.508,0.401-1.016,1.751-0.626,2.873c0.191,0.549,0.771,1.469,2.512,1.469
			c0.25,0,0.521-0.019,0.805-0.057c2.655-0.352,2.755-1.635,2.835-2.666c0.053-0.674,0.098-1.257,0.77-1.688
			c1.89-1.21,8.63-4.989,9.346-5.391c0.252-0.034,0.509-0.051,0.764-0.051c0.909,0,1.709,0.209,2.482,0.412
			c0.85,0.223,1.652,0.429,2.471,0.329c1.016-0.124,1.977-0.99,2.334-2.105c0.334-1.042,0.086-2.043-0.682-2.747
			c-0.074-0.068-0.151-0.127-0.229-0.187h-1.711c0.486,0.129,0.992,0.335,1.433,0.739c0.542,0.498,0.715,1.214,0.474,1.966
			c-0.266,0.833-0.986,1.501-1.711,1.59c-0.695,0.081-1.408-0.106-2.188-0.311c-0.782-0.204-1.667-0.437-2.673-0.437
			c-0.314,0-0.631,0.023-0.939,0.068l-0.129,0.044c-0.302,0.169-7.44,4.163-9.445,5.447c-0.986,0.632-1.057,1.535-1.113,2.261
			c-0.077,0.992-0.133,1.708-2.186,1.981c-0.256,0.034-0.491,0.05-0.706,0.05c-0.974,0-1.58-0.325-1.803-0.965
			c-0.285-0.819,0.136-1.844,0.382-2.039c0.115-0.09,0.461-0.365,0.432-0.787c-0.041-0.581-0.721-0.979-2.088-1.781
			c-0.62-0.364-0.704-0.924-0.664-1.331c0.088-0.902,0.824-1.793,1.753-2.119c0.462-0.162,0.897-0.24,1.33-0.24
			c0.729,0,1.418,0.224,2.215,0.484c0.358,0.117,0.737,0.24,1.152,0.355c0.17,0.047,0.358,0.071,0.56,0.071
			c1.771,0,4.604-1.875,6.881-3.381c0.559-0.37,1.078-0.713,1.529-0.994c0.33-0.206,0.6-0.433,0.828-0.674h-1.173
			c-0.019,0.012-0.033,0.025-0.052,0.037C106.92-149.68,106.396-149.332,105.83-148.958z"/>
		<path fill="#FFFFFF" d="M0,0h5.184C3.123-1.82,1.125-3.605,0-4.613V0z"/>
		<path fill="#FFFFFF" d="M147.215-14.078c-1.121-2.319-5.426-2.979-6.727-0.018c-1.302,2.959,0.992,5.849-1.039,5.635
			c-2.03-0.215-6.113,1.873-3.718,4.913c2.397,3.041,5.86,0.229,9.185,2.953c0.23,0.188,0.48,0.388,0.742,0.595H150v-4.613
			c-0.583-0.522-0.934-0.837-0.934-0.837C147.377-8.746,148.335-11.76,147.215-14.078z"/>
		<path fill="#FFFFFF" d="M49.472-8.49c0.605-0.63,1.178-1.225,1.493-1.995c0.329-0.804,0.184-1.823-0.379-2.661
			c-0.716-1.067-1.907-1.524-3.05-1.15c-1.083,0.355-1.729,1.139-2.202,1.709c-0.177,0.215-0.418,0.506-0.482,0.537
			c0,0-0.043-0.021-0.123-0.131c-0.481-0.664-1.629-1.351-2.716-1.351c-1.077,0-1.811,0.675-2.015,1.853
			c-0.254,1.475,0.505,2.336,1.239,3.17c0.642,0.729,1.306,1.482,1.364,2.729c0.023,0.536,0.07,1.165,0.121,1.84
			c0.088,1.173,0.194,2.616,0.192,3.94h0.753c0.003-1.303-0.102-2.715-0.197-3.996c-0.05-0.668-0.096-1.289-0.121-1.819
			c-0.069-1.51-0.855-2.402-1.55-3.19c-0.701-0.797-1.256-1.427-1.062-2.547c0.141-0.815,0.569-1.229,1.274-1.229
			c0.81,0,1.744,0.538,2.109,1.042c0.078,0.106,0.316,0.435,0.707,0.435c0.419,0,0.712-0.354,1.083-0.804
			c0.438-0.528,0.981-1.188,1.858-1.476c0.826-0.271,1.663,0.066,2.193,0.855c0.418,0.624,0.539,1.394,0.307,1.96
			c-0.262,0.639-0.761,1.157-1.34,1.76c-0.738,0.768-1.575,1.637-2.084,2.972l-0.025,0.134c0,0.201,0.001,3.076,0.029,5.904h0.751
			c-0.027-2.658-0.03-5.367-0.03-5.834C48.028-6.991,48.762-7.754,49.472-8.49z"/>
		<path fill="#FFFFFF" d="M59.477-60.059c0.032,1.171-0.587,2.307-1.505,2.761c-0.747,0.368-1.568,0.436-2.438,0.506
			c-1.021,0.083-2.076,0.169-3.184,0.733c-0.543,0.615-5.652,6.414-7.035,8.182c-0.492,0.629-0.342,1.192-0.168,1.847
			c0.266,0.999,0.597,2.242-1.791,3.454c-0.713,0.361-1.36,0.544-1.928,0.544c-0.824,0-1.496-0.396-1.893-1.114
			c-0.485-0.883-0.463-2.068-0.139-2.583c0.09-0.142,0.088-0.198,0.088-0.198c-0.109-0.168-1.069-0.355-1.998-0.537
			c-0.854-0.167-1.455-0.747-1.664-1.595c-0.287-1.168,0.211-2.544,1.213-3.345c1.314-1.051,2.502-1.076,3.878-1.107
			c0.365-0.008,0.753-0.016,1.171-0.045c1.438-0.096,3.809-3.223,5.378-5.291c0.409-0.54,0.789-1.042,1.126-1.461
			c0.782-0.973,0.784-1.978,0.785-2.949c0.002-1.109,0.003-2.259,1.17-3.195c1.021-0.818,2.131-0.744,2.948,0.155
			c0.618,0.681,1.009,1.773,0.929,2.601c-0.009,0.094-0.002,0.144,0.003,0.164c0.009-0.002,0.047,0.005,0.108,0.005h0.001
			c0.152,0,0.364-0.034,0.609-0.072c0.349-0.056,0.782-0.124,1.248-0.124c0.564,0,1.065,0.098,1.535,0.301
			C58.882-62.014,59.447-61.152,59.477-60.059z M58.727-60.038c-0.021-0.789-0.421-1.407-1.098-1.698
			c-0.374-0.16-0.779-0.238-1.239-0.238c-0.407,0-0.792,0.062-1.131,0.114c-0.276,0.044-0.515,0.082-0.727,0.082
			c-0.001,0-0.001,0-0.002,0c-0.112,0-0.444-0.001-0.668-0.248c-0.158-0.175-0.22-0.417-0.188-0.743
			c0.052-0.538-0.21-1.443-0.738-2.023c-0.293-0.324-0.612-0.487-0.948-0.487c-0.307,0-0.635,0.139-0.976,0.413
			c-0.887,0.71-0.887,1.549-0.889,2.611c-0.001,1.05-0.004,2.24-0.95,3.418c-0.333,0.413-0.709,0.909-1.113,1.443
			c-1.849,2.436-4.147,5.467-5.927,5.587c-0.429,0.028-0.827,0.037-1.203,0.046c-1.341,0.029-2.31,0.051-3.426,0.943
			c-0.77,0.615-1.17,1.7-0.953,2.58c0.098,0.396,0.361,0.897,1.067,1.035c1.554,0.303,2.328,0.455,2.559,0.989
			c0.167,0.389-0.068,0.763-0.146,0.886c-0.154,0.243-0.211,1.143,0.162,1.82c0.266,0.48,0.681,0.726,1.235,0.726
			c0.447,0,0.981-0.155,1.588-0.463c1.847-0.937,1.662-1.631,1.406-2.593c-0.188-0.703-0.42-1.579,0.302-2.502
			c1.468-1.876,6.881-8.008,7.11-8.268l0.106-0.084c1.266-0.663,2.47-0.762,3.532-0.848c0.831-0.068,1.549-0.126,2.167-0.432
			C58.293-58.294,58.751-59.164,58.727-60.038z"/>
		<path fill="#FFFFFF" d="M113.949-1.059c0-0.001-0.004-0.049,0.053-0.171c0.363-0.783,0.381-2.213-0.221-3.155
			c-0.536-0.839-1.445-1.109-2.525-0.729c-1.411,0.497-1.793,1.581-2.162,2.628c-0.316,0.901-0.648,1.83-1.665,2.486h1.173
			c0.654-0.694,0.941-1.502,1.199-2.236c0.354-1.002,0.633-1.793,1.704-2.171c0.744-0.263,1.29-0.126,1.644,0.427
			c0.445,0.695,0.448,1.842,0.173,2.436c-0.055,0.117-0.22,0.475-0.045,0.811c0.197,0.381,0.657,0.465,1.24,0.572
			c0.238,0.043,0.499,0.092,0.764,0.162h1.71c-0.787-0.611-1.674-0.779-2.339-0.9C114.379-0.951,114.007-1.018,113.949-1.059z"/>
	</g>
</pattern>
<pattern  id="SVGID_1_" xlink:href="#Nueva_muestra_de_motivo_6" patternTransform="matrix(1 0 0 1 50 0)">
</pattern>
<rect fill="url(#SVGID_1_)" width="150" height="150"/>
</svg>
