<?xml version="1.0" encoding="utf-8"?>
<!-- Generator: Adobe Illustrator 16.0.0, SVG Export Plug-In . SVG Version: 6.00 Build 0)  -->
<!DOCTYPE svg PUBLIC "-//W3C//DTD SVG 1.1//EN" "http://www.w3.org/Graphics/SVG/1.1/DTD/svg11.dtd">
<svg version="1.1" id="Layer_1" xmlns="http://www.w3.org/2000/svg" xmlns:xlink="http://www.w3.org/1999/xlink" x="0px" y="0px"
	 width="500px" height="500px" viewBox="0 0 500 500" enable-background="new 0 0 500 500" xml:space="preserve">
<path fill="#56BCEB" d="M249.983,2.017C113.032,2.017,2,113.066,2,250c0,136.952,111.032,247.983,247.983,247.983
	C386.951,497.982,498,386.951,498,250C498,113.066,386.951,2.017,249.983,2.017z M407.571,232.492h-17.508h-17.508V250v87.54
	l-0.018,35.016c0,0-7.865,0-17.49,0h-52.524c-9.626,0-17.508-0.016-17.508-0.016v-87.523v-17.508h-17.508h-35.016h-17.508v17.508
	v87.523c0,0-7.882,0.016-17.509,0.016h-52.523c-9.625,0-17.524,0-17.524,0l0.017-35.016V250v-17.508h-17.508H92.429L250,92.429
	L407.571,232.492z"/>
</svg>
